<?xml version="1.0" encoding="utf-8"?>
<!-- Generator: Adobe Illustrator 19.1.1, SVG Export Plug-In . SVG Version: 6.00 Build 0)  -->
<svg version="1.1" id="Layer_1" xmlns="http://www.w3.org/2000/svg" xmlns:xlink="http://www.w3.org/1999/xlink" x="0px" y="0px"
	 viewBox="349 200 1309 394" style="enable-background:new 349 200 1309 394;" xml:space="preserve">
<style type="text/css">
	.st0{fill:#FFFFFF;}
	.st1{display:none;}
	.st2{display:inline;fill:#FFFFFF;}
	.st3{font-family:'MyriadPro-Regular';}
	.st4{font-size:99px;}
</style>
<g>
	<g>
		<g>
			<path class="st0" d="M838.7,291.5h23.2l47.4,108.8h-23.8L878,383h-55.3l-7.4,17.3h-24L838.7,291.5z M870.6,364.7l-12.6-31
				c-3.4-8.2-7.6-19.1-7.7-19.5c-0.2,0.3-4.4,11.3-7.7,19.5L830,364.8h40.6V364.7z M916.3,357v-65.5h23.5v64.3
				c0,16.3,9.2,24.9,23.5,24.9s23.5-8.6,23.5-24.9v-64.3h23.5V357c0,28.7-19.2,45.2-47,45.2C935.4,402.2,916.3,385.7,916.3,357z
				 M1060.7,311.7h-36.9v-20.1h97.4v20.1h-37v88.7h-23.5V311.7L1060.7,311.7z M1135.4,291.5h23.5V334h46.5v-42.5h23.5v108.8h-23.5
				v-46.2h-46.5v46.2h-23.5V291.5z M1250.6,291.5h43.7c35.8,0,58.3,24.7,58.3,54.4s-22.5,54.4-58.3,54.4h-43.7V291.5z M1293.3,380.2
				c20.8,0,34.6-14.4,34.6-34.3c0-19.6-13.8-34.3-34.6-34.3h-19.2v68.5L1293.3,380.2L1293.3,380.2z M1366.3,345.9
				c0-31.1,24-56.1,57.6-56.1s57.6,25,57.6,56.1c0,31.2-24,56.3-57.6,56.3S1366.3,377.2,1366.3,345.9z M1457,345.9
				c0-19.3-13.9-34.8-32.9-34.8s-33.3,15.5-33.3,34.8c0,19.5,14.1,34.9,33.3,34.9C1443,380.9,1457,365.4,1457,345.9z M1495.3,345.9
				c0-31.1,23.8-56.1,57.4-56.1c15.3,0,28.7,5.4,38.6,13.9l-14.6,15.9c-7.6-6.7-15.3-8.6-23.5-8.6c-19,0-33.4,15.5-33.4,34.8
				c0,19.5,14.1,34.9,33.4,34.9c10.4,0,19.1-4.7,25-10.9v-16h-18.5v-17.1h40V379c-9.6,14.3-27.2,23-46.8,23
				C1519.3,402.2,1495.3,377.2,1495.3,345.9z"/>
			<g class="st1">
				<path class="st2" d="M797.4,426h7.4v60h-7.4V426z"/>
				<path class="st2" d="M820.8,463.5c0-13.2,8.8-23.5,21.3-23.5c7.2,0,13.6,3,16.9,8.8v-23.7h7V486h-6.8v-7.9
					c-3.3,5.9-9.9,8.8-17.2,8.8C829.6,486.9,820.8,476.5,820.8,463.5z M859,463.5c0-9.4-6.8-16.6-15.3-16.6c-9,0-15.6,7-15.6,16.6
					c0,9.5,6.7,16.6,15.6,16.6C852.2,480.1,859,473,859,463.5z"/>
				<path class="st2" d="M880.8,463.5c0-13,9.8-23.5,22.7-23.5c12,0,21.5,10.4,21.5,23.2c0,1.3-0.2,2.7-0.2,2.8h-36.7
					c1.1,9,8,14.6,16.4,14.6c5.1,0,10.2-1.8,13.9-4.8l3,5.2c-4.8,3.8-10.8,5.9-17,5.9C891.7,486.9,880.8,477.8,880.8,463.5z
					 M918.1,460.6c-0.7-8.3-7.1-14.3-15-14.3c-7.7,0-14,5.9-15,14.3H918.1z"/>
				<path class="st2" d="M939.9,440.9h7v7.7c3.1-5.5,9-8.6,15.6-8.6c11.3,0,16.3,6.8,16.3,18.7V486h-7v-26.4c0-8.3-3-12.8-11.2-12.8
					c-8,0-13.7,6.3-13.7,13.8V486h-7L939.9,440.9L939.9,440.9z"/>
				<path class="st2" d="M997.2,472.5v-25.7h-6.8V441h6.8v-9.7l7-1.3v11h15.4v5.8h-15.4v25.9c0,6.2,2.7,8,6.3,8
					c4.2,0,7.4-2.5,7.4-2.5l2.3,5.5c-1.8,1.2-5.5,3.3-10.4,3.3C1001.9,486.9,997.2,483,997.2,472.5z"/>
				<path class="st2" d="M1032.3,428.3c0-2.6,2-4.7,4.6-4.7s4.7,2.1,4.7,4.7s-2.1,4.6-4.7,4.6
					C1034.4,432.9,1032.3,430.9,1032.3,428.3z M1033.4,440.9h7v45h-7V440.9z"/>
				<path class="st2" d="M1059.6,472.5v-25.7h-6.8V441h6.8v-9.7l7-1.3v11h15.3v5.8h-15.3v25.9c0,6.2,2.7,8,6.3,8
					c4.2,0,7.4-2.5,7.4-2.5l2.3,5.5c-1.8,1.2-5.5,3.3-10.4,3.3C1064.3,486.9,1059.6,483,1059.6,472.5z"/>
				<path class="st2" d="M1099.3,492.9c4.9,0,7.9-1.4,11-7.9l1-2l-20.3-42.1h7.3l14.2,30.3c1,2.1,2,5.1,2,5.1s1.4-3.7,2.1-5.4
					l13.4-30h7.2l-21.5,47.3c-4.9,10.6-11.3,11.4-16.6,11.4L1099.3,492.9L1099.3,492.9z"/>
				<path class="st2" d="M1168.8,477.6l3.2-5.5c4.8,4.7,11.3,8.1,20.3,8.1c7.8,0,15.9-3.4,15.9-10.8c0-6.8-7.8-8.9-15.4-10.8
					c-10.7-2.7-21.5-6.1-21.5-17.2c0-10.7,10.3-16.2,21-16.2c7.4,0,14.1,1.9,20.2,6.7l-3.1,5.6c-5.4-4.2-11.4-5.6-17.1-5.6
					c-5.9,0-13.5,2.8-13.5,9.4c0,6.2,6.8,8.2,14.9,10.3c11.1,2.8,22.3,6.6,22.3,17.8c0,12.3-12.3,17.6-23.8,17.6
					C1180.3,486.9,1173.1,482.2,1168.8,477.6z"/>
				<path class="st2" d="M1228.8,428.3c0-2.6,2-4.7,4.6-4.7s4.7,2.1,4.7,4.7s-2.1,4.6-4.7,4.6
					C1230.9,432.9,1228.8,430.9,1228.8,428.3z M1229.9,440.9h7v45h-7V440.9z"/>
				<path class="st2" d="M1253.7,440.9h7v7.8c2.5-4.9,8.1-8.7,14.4-8.7c7.2,0,12.3,3.1,14.4,9.5c3.2-6.6,10.3-9.5,15.5-9.5
					c10.8,0,16.6,6.3,16.6,18.7V486h-7.1v-26.4c0-7.7-2.7-12.8-10.9-12.8c-7.6,0-12.4,6.1-12.4,12.9V486h-7.1v-26.4
					c0-7.7-2.7-12.8-10.8-12.8c-7.9,0-12.6,6.7-12.6,13.2v26h-7V440.9L1253.7,440.9z"/>
				<path class="st2" d="M1337.5,440.9h6.8v7.8c3.3-5.8,9.9-8.7,17.2-8.7c12.5,0,21.3,10.3,21.3,23.4s-8.8,23.5-21.3,23.5
					c-7.1,0-13.6-3-16.9-8.8V499h-7L1337.5,440.9L1337.5,440.9z M1375.5,463.4c0-9.5-6.7-16.6-15.6-16.6c-8.6,0-15.3,7.1-15.3,16.6
					s6.8,16.6,15.3,16.6C1368.9,480.1,1375.5,473,1375.5,463.4z"/>
				<path class="st2" d="M1396.4,425.1h7V486h-7V425.1z"/>
				<path class="st2" d="M1419,428.3c0-2.6,2-4.7,4.6-4.7s4.7,2.1,4.7,4.7s-2.1,4.6-4.7,4.6C1421.1,432.9,1419,430.9,1419,428.3z
					 M1420.1,440.9h7v45h-7V440.9z"/>
				<path class="st2" d="M1446.1,446.8h-7.3V441h7.3v-3.4c0-11.2,5.9-14.2,12.1-14.2c4.4,0,8.6,1.7,10.8,3.1l-2.3,5.4
					c-0.9-0.5-3.6-2.2-7-2.2c-3.5,0-6.6,1.8-6.6,8.8v2.7h14.3v5.8h-14.3v39h-7V446.8L1446.1,446.8z"/>
				<path class="st2" d="M1477.5,428.3c0-2.6,2-4.7,4.6-4.7s4.7,2.1,4.7,4.7s-2.1,4.6-4.7,4.6S1477.5,430.9,1477.5,428.3z"/>
				<rect x="1478.6" y="440.9" class="st2" width="7" height="45"/>
				<path class="st2" d="M1499.3,463.5c0-13,9.8-23.5,22.7-23.5c12,0,21.6,10.4,21.6,23.2c0,1.3-0.2,2.7-0.2,2.8h-36.7
					c1.1,9,8.1,14.6,16.4,14.6c5.1,0,10.2-1.8,13.9-4.8l3.1,5.2c-4.8,3.8-10.8,5.9-17,5.9C1510.1,486.9,1499.3,477.8,1499.3,463.5z
					 M1536.6,460.6c-0.7-8.3-7.1-14.3-15-14.3c-7.7,0-14,5.9-15,14.3H1536.6z"/>
				<path class="st2" d="M1554.1,463.5c0-13.2,8.8-23.5,21.3-23.5c7.2,0,13.6,3,16.9,8.8v-23.7h7V486h-6.8v-7.9
					c-3.3,5.9-9.9,8.8-17.2,8.8C1562.8,486.9,1554.1,476.5,1554.1,463.5z M1592.3,463.5c0-9.4-6.8-16.6-15.3-16.6
					c-9,0-15.6,7-15.6,16.6c0,9.5,6.7,16.6,15.6,16.6C1585.5,480.1,1592.3,473,1592.3,463.5z"/>
			</g>
		</g>
		<g>
			<path class="st0" d="M705.4,408.3c-18.6,64.7-67.8,88.8-85.9,95.6l-41.7-41.7l-84.9,13.1c-12.9,2-25.8-2.6-34.6-12.3l-36.8-40.9
				c-2.1-2.3-2.9-5.4-2.3-8.4s2.6-5.5,5.4-6.8l64.2-30l-0.2-8.4c-0.7-32.8,19.6-54,60.3-63.4v9.1c0,49.3,27.4,93.6,71.5,115.6
				l5.8,2.9l5.8-2.9c44.1-22,71.5-66.4,71.5-115.6v-32.5L626.2,243l-68.3,34.2c-58.7,9.1-92,38.5-94.8,83.3l-49.4,23.1
				c-10.3,4.8-17.4,13.9-19.7,25c-2.3,11.1,0.8,22.3,8.4,30.7l36.8,40.9c14.6,16.2,36.1,23.9,57.7,20.5l72-11.1l43.3,43.3l7.1-1.8
				c3.4-0.9,84.3-22.8,110.9-115.7L705.4,408.3z M626.2,403.7c-31.9-18.5-51.5-52.2-51.5-89.5v-16.6l51.5-25.7V403.7z"/>
			<path class="st0" d="M518.7,368.6c0,5.9,4.8,10.7,10.7,10.7s10.7-4.8,10.7-10.7s-4.8-10.7-10.7-10.7
				C523.5,358,518.7,362.8,518.7,368.6z"/>
		</g>
	</g>
</g>
<g>
	<path class="st0" d="M866.7,431.4v66.7H858v-66.7H866.7z"/>
	<path class="st0" d="M893.1,477.2l-7.1,21h-9.1l23.1-66.7h10.6l23.2,66.7h-9.4l-7.3-21H893.1z M915.4,470.4l-6.7-19.2
		c-1.5-4.4-2.5-8.3-3.5-12.2H905c-1,4-2.1,8-3.4,12.1l-6.7,19.3H915.4z"/>
	<path class="st0" d="M1000.7,468.9c-0.5-9.3-1.1-20.5-1-28.8h-0.3c-2.3,7.8-5.1,16.1-8.6,25.3l-12,32.4h-6.7l-11-31.8
		c-3.2-9.4-6-18-7.9-25.9h-0.2c-0.2,8.3-0.7,19.5-1.3,29.5l-1.8,28.6h-8.4l4.7-66.7h11.2l11.6,32.3c2.8,8.2,5.1,15.5,6.9,22.5h0.3
		c1.7-6.7,4.1-14.1,7.2-22.5l12.1-32.3h11.2l4.2,66.7h-8.6L1000.7,468.9z"/>
	<path class="st0" d="M1044.7,487.7c3.9,2.4,9.7,4.4,15.7,4.4c9,0,14.2-4.7,14.2-11.4c0-6.2-3.6-9.8-12.8-13.3
		c-11.1-3.9-18-9.5-18-18.9c0-10.4,8.8-18.1,22-18.1c7,0,12,1.6,15,3.3l-2.4,7c-2.2-1.2-6.8-3.2-12.9-3.2c-9.3,0-12.8,5.4-12.8,10
		c0,6.2,4.1,9.3,13.5,12.9c11.5,4.4,17.4,9.8,17.4,19.6c0,10.3-7.8,19.2-23.8,19.2c-6.6,0-13.7-1.9-17.4-4.3L1044.7,487.7z"/>
	<path class="st0" d="M1105.8,436.5v13.8h12.7v6.6h-12.7v25.8c0,5.9,1.7,9.3,6.7,9.3c2.3,0,4-0.3,5.1-0.6l0.4,6.5
		c-1.7,0.7-4.4,1.2-7.9,1.2c-4.1,0-7.5-1.3-9.6-3.7c-2.5-2.6-3.4-6.8-3.4-12.5v-26.1h-7.6v-6.6h7.6v-11.5L1105.8,436.5z"/>
	<path class="st0" d="M1128.5,465.2c0-5.6-0.1-10.5-0.4-14.9h7.8l0.3,9.4h0.4c2.2-6.4,7.6-10.5,13.5-10.5c1,0,1.7,0.1,2.5,0.3v8.2
		c-0.9-0.2-1.8-0.3-3-0.3c-6.3,0-10.7,4.7-11.9,11.2c-0.2,1.2-0.4,2.6-0.4,4.1v25.5h-8.8V465.2z"/>
	<path class="st0" d="M1165.4,475.8c0.2,11.8,7.9,16.6,16.7,16.6c6.4,0,10.2-1.1,13.5-2.5l1.5,6.2c-3.1,1.4-8.5,3-16.2,3
		c-15,0-24-9.7-24-24.2c0-14.5,8.7-25.8,22.9-25.8c15.9,0,20.2,13.8,20.2,22.6c0,1.8-0.2,3.2-0.3,4.1H1165.4z M1191.4,469.6
		c0.1-5.5-2.3-14.2-12.3-14.2c-9,0-12.9,8.1-13.6,14.2H1191.4z"/>
	<path class="st0" d="M1238,498.2l-0.7-6h-0.3c-2.7,3.8-8,7.1-14.9,7.1c-9.9,0-14.9-6.8-14.9-13.8c0-11.6,10.5-17.9,29.4-17.8v-1
		c0-4-1.1-11.1-11.1-11.1c-4.5,0-9.3,1.4-12.7,3.6l-2-5.7c4-2.6,9.9-4.3,16-4.3c14.9,0,18.6,10,18.6,19.6v17.9
		c0,4.2,0.2,8.2,0.8,11.5H1238z M1236.7,473.7c-9.7-0.2-20.7,1.5-20.7,10.8c0,5.6,3.8,8.3,8.4,8.3c6.4,0,10.4-4,11.8-8
		c0.3-0.9,0.5-1.9,0.5-2.8V473.7z"/>
	<path class="st0" d="M1259.6,463.2c0-5-0.1-9-0.4-13h7.8l0.4,7.7h0.3c2.7-4.6,7.3-8.8,15.3-8.8c6.7,0,11.7,4,13.8,9.6h0.2
		c1.5-2.7,3.4-4.8,5.4-6.2c2.9-2.2,6.2-3.4,10.8-3.4c6.5,0,16,4.2,16,20.8v28.2h-8.7V471c0-9.2-3.4-14.8-10.6-14.8
		c-5,0-9,3.7-10.5,7.9c-0.4,1.2-0.7,2.8-0.7,4.4v29.6h-8.7v-28.7c0-7.6-3.4-13.2-10.2-13.2c-5.5,0-9.6,4.4-11,8.7
		c-0.5,1.3-0.7,2.8-0.7,4.3v28.9h-8.7V463.2z"/>
	<path class="st0" d="M1343.8,427.9h8.9v70.3h-8.9V427.9z"/>
	<path class="st0" d="M1377.5,436.8c0.1,3-2.1,5.3-5.6,5.3c-3.1,0-5.3-2.4-5.3-5.3c0-3.1,2.3-5.4,5.5-5.4
		C1375.3,431.3,1377.5,433.7,1377.5,436.8z M1367.6,498.2v-47.9h8.9v47.9H1367.6z"/>
	<path class="st0" d="M1391.2,463.2c0-5-0.1-9-0.4-13h7.9l0.5,7.9h0.2c2.4-4.6,8.1-9,16.1-9c6.8,0,17.3,4,17.3,20.4v28.6h-8.9v-27.6
		c0-7.7-2.9-14.2-11.3-14.2c-5.9,0-10.4,4.1-11.9,8.9c-0.4,1.1-0.6,2.6-0.6,4.1v28.8h-8.9V463.2z"/>
	<path class="st0" d="M1452.1,475.8c0.2,11.8,7.9,16.6,16.7,16.6c6.4,0,10.2-1.1,13.5-2.5l1.5,6.2c-3.1,1.4-8.5,3-16.2,3
		c-15,0-24-9.7-24-24.2c0-14.5,8.7-25.8,22.9-25.8c15.9,0,20.2,13.8,20.2,22.6c0,1.8-0.2,3.2-0.3,4.1H1452.1z M1478.1,469.6
		c0.1-5.5-2.3-14.2-12.3-14.2c-9,0-12.9,8.1-13.6,14.2H1478.1z"/>
	<path class="st0" d="M1539.9,427.9v57.9c0,4.3,0.1,9.1,0.4,12.4h-8l-0.4-8.3h-0.2c-2.7,5.3-8.7,9.4-16.6,9.4
		c-11.8,0-20.9-9.8-20.9-24.4c-0.1-15.9,10-25.7,21.9-25.7c7.5,0,12.5,3.5,14.7,7.3h0.2v-28.6H1539.9z M1531,469.8
		c0-1.1-0.1-2.6-0.4-3.7c-1.3-5.5-6.2-10.1-12.8-10.1c-9.2,0-14.6,7.9-14.6,18.5c0,9.7,4.8,17.7,14.4,17.7c6,0,11.4-3.9,13-10.4
		c0.3-1.2,0.4-2.4,0.4-3.8V469.8z"/>
</g>
<text id="IAM_Streamlined__x28_text_copy_x29_" transform="matrix(1.0191 0 0 1 736.3001 576.167)" class="st1 st3 st4">IAM Streamlined</text>
</svg>
