<svg width="94" height="56" viewBox="0 0 94 56" fill="none" xmlns="http://www.w3.org/2000/svg">
<path d="M26.5814 20.2912C26.5814 21.4392 26.7059 22.37 26.9237 23.0525C27.1728 23.7351 27.484 24.4797 27.9198 25.2864C28.0754 25.5346 28.1377 25.7828 28.1377 26C28.1377 26.3103 27.9509 26.6206 27.5463 26.9308L25.5853 28.2339C25.3052 28.4201 25.0251 28.5132 24.7761 28.5132C24.4648 28.5132 24.1535 28.358 23.8423 28.0788C23.4065 27.6134 23.033 27.117 22.7218 26.6206C22.4105 26.0931 22.0992 25.5036 21.7569 24.79C19.329 27.6444 16.2787 29.0716 12.6059 29.0716C9.9913 29.0716 7.90587 28.327 6.3807 26.8377C4.85554 25.3485 4.07739 23.3628 4.07739 20.8807C4.07739 18.2435 5.01117 16.1026 6.90984 14.4893C8.80852 12.8759 11.3297 12.0692 14.5357 12.0692C15.5939 12.0692 16.6834 12.1623 17.835 12.3174C18.9867 12.4726 20.1694 12.7208 21.4145 13V10.7351C21.4145 8.3771 20.9165 6.73271 19.9516 5.7709C18.9555 4.80908 17.2747 4.34369 14.8781 4.34369C13.7887 4.34369 12.6681 4.46779 11.5165 4.74703C10.3648 5.02627 9.24428 5.36756 8.15488 5.80192C7.65686 6.01911 7.28335 6.14321 7.06547 6.20527C6.84759 6.26732 6.69196 6.29834 6.56746 6.29834C6.1317 6.29834 5.91382 5.98808 5.91382 5.33653V3.81624C5.91382 3.31982 5.97607 2.94751 6.1317 2.73032C6.28733 2.51314 6.56746 2.29595 7.00322 2.07877C8.09262 1.5203 9.39991 1.0549 10.9251 0.682588C12.4502 0.279247 14.0688 0.0930889 15.7807 0.0930889C19.4847 0.0930889 22.1926 0.930798 23.9357 2.60622C25.6476 4.28164 26.5191 6.82579 26.5191 10.2387V20.2912H26.5814ZM13.9443 25.0072C14.9714 25.0072 16.0297 24.821 17.1502 24.4487C18.2708 24.0764 19.2668 23.3938 20.1072 22.463C20.6052 21.8735 20.9787 21.222 21.1655 20.4774C21.3522 19.7327 21.4767 18.833 21.4767 17.7781V16.475C20.5741 16.2578 19.6092 16.0716 18.6132 15.9475C17.6171 15.8234 16.6522 15.7614 15.6873 15.7614C13.6019 15.7614 12.0767 16.1647 11.0496 17.0024C10.0224 17.8401 9.52441 19.0191 9.52441 20.5704C9.52441 22.0287 9.89792 23.1146 10.6761 23.8592C11.4231 24.6349 12.5125 25.0072 13.9443 25.0072ZM38.9383 28.358C38.3781 28.358 38.0045 28.2649 37.7555 28.0478C37.5065 27.8616 37.2886 27.4272 37.1019 26.8377L29.7873 2.85443C29.6006 2.2339 29.5072 1.83056 29.5072 1.61338C29.5072 1.11696 29.7562 0.83772 30.2542 0.83772H33.3045C33.8959 0.83772 34.3006 0.930798 34.5185 1.14798C34.7675 1.33414 34.9542 1.76851 35.141 2.35801L40.3701 22.8974L45.2257 2.35801C45.3814 1.73748 45.5681 1.33414 45.8171 1.14798C46.0661 0.961825 46.5019 0.83772 47.0622 0.83772H49.5522C50.1436 0.83772 50.5482 0.930798 50.7973 1.14798C51.0463 1.33414 51.2641 1.76851 51.3886 2.35801L56.3065 23.1456L61.6913 2.35801C61.878 1.73748 62.0959 1.33414 62.3138 1.14798C62.5628 0.961825 62.9675 0.83772 63.5277 0.83772H66.4224C66.9204 0.83772 67.2006 1.08593 67.2006 1.61338C67.2006 1.76851 67.1694 1.92364 67.1383 2.1098C67.1072 2.29595 67.0449 2.54416 66.9204 2.88545L59.4191 26.8688C59.2324 27.4893 59.0145 27.8926 58.7655 28.0788C58.5165 28.2649 58.1118 28.3891 57.5827 28.3891H54.9059C54.3145 28.3891 53.9098 28.296 53.6608 28.0788C53.4118 27.8616 53.1939 27.4583 53.0694 26.8377L48.2449 6.82579L43.4516 26.8067C43.2959 27.4272 43.1092 27.8306 42.8602 28.0478C42.6112 28.2649 42.1754 28.358 41.6151 28.358H38.9383ZM78.935 29.1957C77.3165 29.1957 75.6979 29.0096 74.1416 28.6373C72.5853 28.2649 71.3714 27.8616 70.5622 27.3962C70.0641 27.117 69.7218 26.8067 69.5973 26.5275C69.4728 26.2482 69.4105 25.938 69.4105 25.6587V24.0764C69.4105 23.4248 69.6595 23.1146 70.1264 23.1146C70.3132 23.1146 70.4999 23.1456 70.6867 23.2077C70.8734 23.2697 71.1535 23.3938 71.4648 23.5179C72.5231 23.9833 73.6747 24.3556 74.8886 24.6038C76.1337 24.8521 77.3476 24.9762 78.5926 24.9762C80.5535 24.9762 82.0787 24.6349 83.137 23.9523C84.1953 23.2697 84.7555 22.2769 84.7555 21.0048C84.7555 20.1361 84.4754 19.4225 83.9151 18.833C83.3549 18.2435 82.2966 17.716 80.7714 17.2196L76.2582 15.8234C73.986 15.1098 72.3052 14.0549 71.2781 12.6587C70.2509 11.2936 69.7218 9.77329 69.7218 8.15992C69.7218 6.85682 70.0019 5.70885 70.5622 4.716C71.1224 3.72316 71.8694 2.85443 72.8032 2.17185C73.737 1.45825 74.7953 0.930798 76.0403 0.558483C77.2853 0.186168 78.5926 0.0310364 79.9622 0.0310364C80.6469 0.0310364 81.3628 0.0620627 82.0476 0.155141C82.7635 0.24822 83.4171 0.372325 84.0708 0.496431C84.6933 0.651562 85.2847 0.806693 85.8449 0.992851C86.4052 1.17901 86.841 1.36517 87.1522 1.55132C87.588 1.79953 87.8992 2.04774 88.086 2.32698C88.2728 2.57519 88.3661 2.91648 88.3661 3.35085V4.80908C88.3661 5.46063 88.1171 5.80192 87.6502 5.80192C87.4012 5.80192 86.9966 5.67782 86.4675 5.42961C84.6933 4.62293 82.7012 4.21958 80.4913 4.21958C78.7171 4.21958 77.3165 4.49882 76.3516 5.08832C75.3867 5.67782 74.8886 6.57758 74.8886 7.84966C74.8886 8.71839 75.1999 9.46302 75.8224 10.0525C76.4449 10.642 77.5966 11.2315 79.2463 11.759L83.6661 13.1552C85.9072 13.8688 87.5257 14.8616 88.4906 16.1337C89.4555 17.4058 89.9224 18.864 89.9224 20.4774C89.9224 21.8115 89.6423 23.0215 89.1131 24.0764C88.5529 25.1313 87.8059 26.0621 86.841 26.8067C85.8761 27.5824 84.7244 28.1408 83.386 28.5442C81.9853 28.9786 80.5224 29.1957 78.935 29.1957Z" fill="white"/>
<path d="M84.8179 44.2745C74.5775 51.8139 59.6993 55.8163 46.9066 55.8163C28.9781 55.8163 12.8238 49.2077 0.622487 38.2244C-0.342414 37.3556 0.52911 36.1766 1.68077 36.8592C14.8781 44.4917 31.1569 49.1146 47.996 49.1146C59.3569 49.1146 71.8384 46.7566 83.3238 41.9165C85.0357 41.1408 86.4987 43.0335 84.8179 44.2745ZM89.0821 39.4344C87.7748 37.759 80.4291 38.6277 77.0987 39.0311C76.1026 39.1552 75.947 38.2864 76.8496 37.6349C82.7013 33.5394 92.3192 34.7184 93.4397 36.0836C94.5602 37.4797 93.1285 47.0669 87.6503 51.6588C86.8099 52.3724 86.0006 52 86.3742 51.0693C87.6192 47.9977 90.3894 41.0788 89.0821 39.4344Z" fill="white"/>
</svg>
