<svg width="75" height="64" viewBox="0 0 75 64" fill="none" xmlns="http://www.w3.org/2000/svg">
<g clip-path="url(#clip0_3_163)">
<path fill-rule="evenodd" clip-rule="evenodd" d="M39.7195 2.83062C41.028 2.83062 42.2554 3.00602 43.3917 3.33133C42.2792 0.738381 39.9692 0 37.3983 0C34.8225 0 32.5085 0.741283 31.3984 3.34661C32.5265 3.00985 33.7485 2.83062 35.0525 2.83062H39.7195ZM34.7533 5.43384C28.54 5.43384 25 10.3217 25 16.3512V22.545C25 23.1479 25.5037 23.625 26.125 23.625H48.625C49.2463 23.625 49.75 23.1479 49.75 22.545V16.3512C49.75 10.3217 45.6334 5.43384 39.4202 5.43384H34.7533ZM37.3662 16.4048C39.5408 16.4048 41.3037 14.6419 41.3037 12.4673C41.3037 10.2927 39.5408 8.52979 37.3662 8.52979C35.1916 8.52979 33.4287 10.2927 33.4287 12.4673C33.4287 14.6419 35.1916 16.4048 37.3662 16.4048ZM25 27.2656C25 26.6626 25.5037 26.1738 26.125 26.1738H48.625C49.2463 26.1738 49.75 26.6626 49.75 27.2656V33.816C49.75 35.0219 48.7426 35.9995 47.5 35.9995H27.25C26.0074 35.9995 25 35.0219 25 33.816V27.2656Z" fill="white"/>
</g>
<path d="M0 60.1806V48.5953H4.87426C5.66858 48.5953 6.34943 48.7301 6.91681 48.9996C7.48418 49.2692 7.91745 49.6579 8.21661 50.1659C8.51577 50.6635 8.66535 51.27 8.66535 51.9854C8.66535 52.4933 8.52609 52.9806 8.24756 53.4471C7.96903 53.9033 7.50997 54.2869 6.87038 54.5979V53.416C7.47902 53.6545 7.9484 53.9396 8.2785 54.2713C8.60861 54.6031 8.83556 54.9659 8.95935 55.3599C9.08314 55.7434 9.14504 56.1478 9.14504 56.5728C9.14504 57.7132 8.76851 58.5996 8.01545 59.232C7.26239 59.8644 6.21533 60.1806 4.87426 60.1806H0ZM2.39844 58.0812H5.15279C5.63764 58.0812 6.02448 57.9413 6.31333 57.6614C6.60217 57.3815 6.74659 57.0186 6.74659 56.5728C6.74659 56.1167 6.60217 55.7486 6.31333 55.4687C6.02448 55.1888 5.63764 55.0488 5.15279 55.0488H2.39844V58.0812ZM2.39844 52.9495H5.04447C5.41584 52.9495 5.70985 52.8458 5.92648 52.6385C6.15343 52.4208 6.2669 52.1357 6.2669 51.7832C6.2669 51.4307 6.15343 51.1508 5.92648 50.9435C5.70985 50.7257 5.41584 50.6169 5.04447 50.6169H2.39844V52.9495Z" fill="white"/>
<path d="M13.1285 60.3672C12.5198 60.3672 11.9937 60.2687 11.5501 60.0717C11.1065 59.8748 10.7661 59.5948 10.5289 59.232C10.2916 58.8588 10.173 58.4182 10.173 57.9102C10.173 57.4333 10.2813 57.0134 10.4979 56.6506C10.7145 56.2774 11.0447 55.9663 11.4882 55.7175C11.9421 55.4687 12.5044 55.2925 13.1749 55.1888L15.759 54.7689V56.4795L13.5927 56.8683C13.2626 56.9305 13.0098 57.0393 12.8345 57.1948C12.6591 57.34 12.5714 57.5525 12.5714 57.8324C12.5714 58.0916 12.6694 58.2938 12.8654 58.4389C13.0614 58.584 13.3038 58.6566 13.5927 58.6566C13.9744 58.6566 14.3096 58.5737 14.5985 58.4078C14.8873 58.2419 15.1091 58.019 15.2639 57.7391C15.4289 57.4488 15.5114 57.1326 15.5114 56.7905V54.5823C15.5114 54.2609 15.3825 53.9914 15.1246 53.7737C14.877 53.556 14.5366 53.4471 14.1033 53.4471C13.6907 53.4471 13.3245 53.5612 13.0047 53.7892C12.6952 54.0173 12.4682 54.318 12.3238 54.6912L10.467 53.8048C10.632 53.3279 10.8951 52.9184 11.2561 52.5763C11.6172 52.2342 12.0505 51.9698 12.5559 51.7832C13.0614 51.5966 13.6133 51.5033 14.2116 51.5033C14.9234 51.5033 15.5527 51.6329 16.0994 51.8921C16.6462 52.1512 17.0691 52.5141 17.3683 52.9806C17.6778 53.4368 17.8325 53.9707 17.8325 54.5823V60.1806H15.6662V58.8121L16.1923 58.7188C15.9447 59.092 15.6713 59.403 15.3722 59.6519C15.073 59.8903 14.7377 60.0665 14.3664 60.1806C13.995 60.305 13.5824 60.3672 13.1285 60.3672Z" fill="white"/>
<path d="M23.6817 60.3672C22.8358 60.3672 22.0725 60.1754 21.3916 59.7918C20.7211 59.3979 20.1847 58.864 19.7823 58.1901C19.3903 57.5162 19.1943 56.7594 19.1943 55.9197C19.1943 55.0799 19.3903 54.3283 19.7823 53.6648C20.1743 52.991 20.7108 52.4622 21.3916 52.0787C22.0725 51.6951 22.8358 51.5033 23.6817 51.5033C24.311 51.5033 24.8939 51.6121 25.4303 51.8298C25.9667 52.0476 26.4258 52.3534 26.8075 52.7473C27.1891 53.1309 27.4625 53.5871 27.6276 54.1158L25.616 54.9866C25.4715 54.5616 25.224 54.2247 24.8732 53.9758C24.5328 53.727 24.1356 53.6026 23.6817 53.6026C23.2794 53.6026 22.9184 53.7011 22.5986 53.8981C22.2891 54.0951 22.0415 54.3698 21.8558 54.7223C21.6805 55.0748 21.5928 55.4791 21.5928 55.9352C21.5928 56.3914 21.6805 56.7957 21.8558 57.1482C22.0415 57.5007 22.2891 57.7754 22.5986 57.9724C22.9184 58.1694 23.2794 58.2678 23.6817 58.2678C24.146 58.2678 24.5483 58.1434 24.8887 57.8946C25.2291 57.6458 25.4715 57.3089 25.616 56.8838L27.6276 57.7702C27.4728 58.2678 27.2046 58.7136 26.8229 59.1076C26.4412 59.5015 25.9822 59.8126 25.4458 60.0406C24.9093 60.2583 24.3213 60.3672 23.6817 60.3672Z" fill="white"/>
<path d="M28.9943 60.1806V48.4087H31.3154V55.9508L30.4489 55.6709L34.1781 51.6899H37.0407L33.9769 55.1111L37.0253 60.1806H34.3947L31.8415 55.873L33.1878 55.5309L30.6036 58.3612L31.3154 57.0082V60.1806H28.9943Z" fill="white"/>
<path d="M38.061 63.2907V51.6899H40.2274V53.3072L40.0262 52.8406C40.3048 52.4156 40.6813 52.089 41.1558 51.861C41.6407 51.6225 42.1926 51.5033 42.8115 51.5033C43.6162 51.5033 44.3434 51.7003 44.9933 52.0942C45.6432 52.4882 46.159 53.0221 46.5407 53.6959C46.9224 54.3594 47.1132 55.1059 47.1132 55.9352C47.1132 56.7542 46.9224 57.5007 46.5407 58.1745C46.1693 58.8484 45.6587 59.3823 45.0088 59.7763C44.3589 60.1702 43.6213 60.3672 42.796 60.3672C42.2184 60.3672 41.6819 60.2635 41.1868 60.0562C40.7019 59.8385 40.3099 59.5223 40.0108 59.1076L40.3821 58.6255V63.2907H38.061ZM42.5175 58.2678C42.9508 58.2678 43.3325 58.1694 43.6626 57.9724C43.9927 57.7754 44.2506 57.5007 44.4363 57.1482C44.622 56.7957 44.7148 56.3914 44.7148 55.9352C44.7148 55.4791 44.622 55.08 44.4363 54.7378C44.2506 54.3854 43.9927 54.1106 43.6626 53.9136C43.3325 53.7063 42.9508 53.6026 42.5175 53.6026C42.1049 53.6026 41.7335 53.7011 41.4034 53.8981C41.0836 54.0951 40.8309 54.3698 40.6452 54.7223C40.4698 55.0748 40.3821 55.4791 40.3821 55.9352C40.3821 56.3914 40.4698 56.7957 40.6452 57.1482C40.8309 57.5007 41.0836 57.7754 41.4034 57.9724C41.7335 58.1694 42.1049 58.2678 42.5175 58.2678Z" fill="white"/>
<path d="M51.0877 60.3672C50.4791 60.3672 49.953 60.2687 49.5094 60.0717C49.0658 59.8748 48.7254 59.5948 48.4881 59.232C48.2509 58.8588 48.1322 58.4182 48.1322 57.9102C48.1322 57.4333 48.2405 57.0134 48.4572 56.6506C48.6738 56.2774 49.0039 55.9663 49.4475 55.7175C49.9014 55.4687 50.4636 55.2925 51.1341 55.1888L53.7183 54.7689V56.4795L51.5519 56.8683C51.2218 56.9305 50.9691 57.0393 50.7937 57.1948C50.6183 57.34 50.5307 57.5525 50.5307 57.8324C50.5307 58.0916 50.6287 58.2938 50.8247 58.4389C51.0207 58.584 51.2631 58.6566 51.5519 58.6566C51.9336 58.6566 52.2689 58.5737 52.5577 58.4078C52.8466 58.2419 53.0684 58.019 53.2231 57.7391C53.3882 57.4488 53.4707 57.1326 53.4707 56.7905V54.5823C53.4707 54.2609 53.3417 53.9914 53.0838 53.7737C52.8363 53.556 52.4958 53.4471 52.0626 53.4471C51.6499 53.4471 51.2837 53.5612 50.9639 53.7892C50.6545 54.0173 50.4275 54.318 50.2831 54.6912L48.4262 53.8048C48.5913 53.3279 48.8543 52.9184 49.2154 52.5763C49.5764 52.2342 50.0097 51.9698 50.5152 51.7832C51.0207 51.5966 51.5726 51.5033 52.1709 51.5033C52.8827 51.5033 53.512 51.6329 54.0587 51.8921C54.6054 52.1512 55.0284 52.5141 55.3276 52.9806C55.637 53.4368 55.7918 53.9707 55.7918 54.5823V60.1806H53.6254V58.8121L54.1515 58.7188C53.904 59.092 53.6306 59.403 53.3314 59.6519C53.0323 59.8903 52.697 60.0665 52.3256 60.1806C51.9543 60.305 51.5416 60.3672 51.0877 60.3672Z" fill="white"/>
<path d="M61.641 60.3672C60.7951 60.3672 60.0317 60.1754 59.3509 59.7918C58.6803 59.3979 58.1439 58.864 57.7416 58.1901C57.3496 57.5162 57.1536 56.7594 57.1536 55.9197C57.1536 55.0799 57.3496 54.3283 57.7416 53.6648C58.1336 52.991 58.67 52.4622 59.3509 52.0787C60.0317 51.6951 60.7951 51.5033 61.641 51.5033C62.2703 51.5033 62.8531 51.6121 63.3895 51.8298C63.926 52.0476 64.385 52.3534 64.7667 52.7473C65.1484 53.1309 65.4218 53.5871 65.5868 54.1158L63.5752 54.9866C63.4308 54.5616 63.1832 54.2247 62.8325 53.9758C62.4921 53.727 62.0949 53.6026 61.641 53.6026C61.2387 53.6026 60.8776 53.7011 60.5578 53.8981C60.2484 54.0951 60.0008 54.3698 59.8151 54.7223C59.6397 55.0748 59.552 55.4791 59.552 55.9352C59.552 56.3914 59.6397 56.7957 59.8151 57.1482C60.0008 57.5007 60.2484 57.7754 60.5578 57.9724C60.8776 58.1694 61.2387 58.2678 61.641 58.2678C62.1052 58.2678 62.5075 58.1434 62.848 57.8946C63.1884 57.6458 63.4308 57.3089 63.5752 56.8838L65.5868 57.7702C65.4321 58.2678 65.1639 58.7136 64.7822 59.1076C64.4005 59.5015 63.9414 59.8126 63.405 60.0406C62.8686 60.2583 62.2806 60.3672 61.641 60.3672Z" fill="white"/>
<path d="M66.9536 60.1806V48.4087H69.2747V55.9508L68.4081 55.6709L72.1373 51.6899H75L71.9362 55.1111L74.9845 60.1806H72.354L69.8008 55.873L71.147 55.5309L68.5629 58.3612L69.2747 57.0082V60.1806H66.9536Z" fill="white"/>
<defs>
<clipPath id="clip0_3_163">
<rect width="24.75" height="36" fill="white" transform="translate(25)"/>
</clipPath>
</defs>
</svg>
