<svg width="236" height="53" viewBox="0 0 236 53" fill="none" xmlns="http://www.w3.org/2000/svg">
<path d="M64.7502 25.6435C68.3287 25.6435 70.7306 27.259 72.2012 29.2662V0.675931C72.2012 0.137415 71.5639 -0.205276 71.1228 0.137416L35.7796 25.9372H36.711C40.3875 25.9372 42.2502 28.2871 42.2502 30.8328C42.2502 32.84 41.2208 34.3087 39.7992 34.9451C39.5541 35.043 39.5541 35.3857 39.7992 35.4836C41.4169 36.169 42.5934 37.8824 42.5934 39.9386C42.5934 42.8759 40.6816 45.1769 37.0051 45.1769H26.9561C26.76 45.1769 26.5639 45.03 26.5639 44.7852V32.6442L0.240414 51.8838C-0.200762 52.2755 -0.0046851 52.9609 0.58355 52.9609H71.5639C71.9071 52.9609 72.1522 52.7161 72.1522 52.3734V42.6312C70.2404 44.3936 67.7404 45.5196 64.7012 45.5196C59.0149 45.5196 54.4071 41.6031 54.4071 35.5815C54.4561 29.511 59.113 25.6435 64.7502 25.6435ZM50.6816 44.8342C50.6816 45.03 50.5345 45.1769 50.3385 45.1769H46.9561C46.76 45.1769 46.613 45.03 46.613 44.8342V26.2799C46.613 26.0841 46.76 25.9372 46.9561 25.9372H50.3385C50.5345 25.9372 50.6816 26.0841 50.6816 26.2799V44.8342Z" fill="white"/>
<path d="M31.0737 33.5743H35.8286C37.2012 33.5743 38.0835 32.791 38.0835 31.5671C38.0835 30.3922 37.2012 29.5599 35.8286 29.5599H30.8777C30.7796 29.5599 30.6816 29.6578 30.6816 29.7557V33.2316C30.6816 33.4274 30.8777 33.5743 31.0737 33.5743Z" fill="white"/>
<path d="M31.0737 41.6031H36.0247C37.5443 41.6031 38.4757 40.7708 38.4757 39.4001C38.4757 38.1762 37.5933 37.1971 36.0247 37.1971H31.0737C30.8777 37.1971 30.6816 37.3439 30.6816 37.5887V41.2114C30.6816 41.4073 30.8777 41.6031 31.0737 41.6031Z" fill="white"/>
<path d="M69.113 31.4692C68.1816 30.2453 66.613 29.2662 64.7502 29.2662C61.2208 29.2662 58.6718 31.9588 58.6718 35.5815C58.6718 39.2042 61.2208 41.8968 64.7502 41.8968C66.3679 41.8968 67.8875 41.2114 68.7208 40.5261C68.7698 40.4771 68.8188 40.3792 68.8188 40.2813V38.421C68.8188 38.2741 68.6718 38.1272 68.5247 38.1272H64.162C63.9169 38.1272 63.7698 37.9314 63.7698 37.7356V34.994C63.7698 34.7493 63.9659 34.6024 64.162 34.6024H72.2502V30.2453L69.6522 31.665C69.4561 31.714 69.211 31.6161 69.113 31.4692Z" fill="white"/>
<path d="M75.2404 35.5815C75.2404 29.6578 79.5051 25.6435 84.9953 25.6435C88.5737 25.6435 90.8777 27.4548 92.2502 29.6578C92.3483 29.8047 92.2992 30.0495 92.1032 30.0984L89.8973 31.2734C89.7502 31.3713 89.5541 31.3223 89.5051 31.1755C88.5738 29.7068 86.8581 28.6298 84.9953 28.6298C81.3188 28.6298 78.5738 31.5182 78.5738 35.5815C78.5738 39.5959 81.3188 42.5333 84.9953 42.5333C86.8581 42.5333 88.5738 41.4562 89.5051 39.9875C89.6032 39.8407 89.7502 39.7917 89.8973 39.8896L92.1032 41.0156C92.2992 41.1135 92.3483 41.3094 92.2502 41.5052C90.8287 43.7082 88.5247 45.5685 84.9953 45.5685C79.5051 45.5196 75.2404 41.4562 75.2404 35.5815Z" fill="white"/>
<path d="M94.162 35.5815C94.162 30.7838 96.9071 27.0632 101.025 25.9861C108.035 24.1258 114.456 30.6859 112.936 37.9803C112.005 42.4843 108.427 45.5685 103.672 45.5685C98.0836 45.5196 94.162 41.3094 94.162 35.5815ZM109.799 35.5815C109.799 31.6161 107.348 28.6298 103.623 28.6298C99.8483 28.6298 97.4463 31.6161 97.4463 35.5815C97.4463 39.5469 99.8483 42.5332 103.623 42.5332C107.397 42.5332 109.799 39.498 109.799 35.5815Z" fill="white"/>
<path d="M133.133 44.9321V30.2943L127.299 45.03C127.299 45.079 127.201 45.1279 127.152 45.1279H125.927C125.878 45.1279 125.78 45.079 125.78 45.03L119.897 30.2943V44.9321C119.897 45.079 119.799 45.1769 119.652 45.1769H116.711C116.564 45.1769 116.466 45.079 116.466 44.9321V26.133C116.466 25.9861 116.564 25.8882 116.711 25.8882H120.927C121.123 25.8882 121.27 25.9861 121.368 26.182L126.515 39.4001L131.613 26.182C131.662 25.9861 131.858 25.8882 132.054 25.8882H136.27C136.417 25.8882 136.515 25.9861 136.515 26.133V44.9321C136.515 45.079 136.417 45.1769 136.27 45.1769H133.329C133.28 45.1769 133.133 45.079 133.133 44.9321Z" fill="white"/>
<path d="M166.466 44.8342V26.2799C166.466 26.0841 166.613 25.9372 166.809 25.9372H179.309C179.505 25.9372 179.652 26.0841 179.652 26.2799V28.5319C179.652 28.7277 179.505 28.8746 179.309 28.8746H170.191C169.995 28.8746 169.848 29.0214 169.848 29.2172V33.4764C169.848 33.6722 169.995 33.8191 170.191 33.8191H179.113C179.309 33.8191 179.456 33.966 179.456 34.1618V36.4138C179.456 36.6096 179.309 36.7565 179.113 36.7565H170.191C169.995 36.7565 169.848 36.9033 169.848 37.0991V41.75C169.848 41.9458 169.995 42.0927 170.191 42.0927H179.309C179.505 42.0927 179.652 42.2395 179.652 42.4353V44.6873C179.652 44.8831 179.505 45.03 179.309 45.03H166.809C166.613 45.1769 166.466 45.03 166.466 44.8342Z" fill="white"/>
<path d="M195.338 44.981L191.27 38.1272C191.221 38.0293 191.074 37.9803 190.976 37.9803H188.133C187.937 37.9803 187.789 38.1272 187.789 38.323V44.8342C187.789 45.03 187.642 45.1769 187.446 45.1769H184.799C184.603 45.1769 184.456 45.03 184.456 44.8342V26.2799C184.456 26.0841 184.603 25.9372 184.799 25.9372H192.937C196.76 25.9372 199.26 28.385 199.26 31.9588C199.26 35.1409 197.299 36.9523 195.142 37.4908C194.897 37.5397 194.799 37.7845 194.897 38.0293C195.682 39.3022 198.133 43.2186 199.064 44.6384C199.211 44.8831 199.064 45.1769 198.77 45.1769H195.682C195.535 45.1769 195.437 45.1279 195.338 44.981ZM195.78 31.9098C195.78 30.0495 194.407 28.8746 192.495 28.8746H188.182C187.986 28.8746 187.838 29.0214 187.838 29.2172V34.6513C187.838 34.8472 187.986 34.994 188.182 34.994H192.495C194.407 34.994 195.78 33.8191 195.78 31.9098Z" fill="white"/>
<path d="M222.103 44.8342V26.2799C222.103 26.0841 222.25 25.9372 222.446 25.9372H234.995C235.191 25.9372 235.338 26.0841 235.338 26.2799V28.5808C235.338 28.7766 235.191 28.9235 234.995 28.9235H225.829C225.633 28.9235 225.486 29.0704 225.486 29.2662V33.5743C225.486 33.7701 225.633 33.917 225.829 33.917H234.75C234.946 33.917 235.093 34.0639 235.093 34.2597V36.5606C235.093 36.7565 234.946 36.9033 234.75 36.9033H225.829C225.633 36.9033 225.486 37.0502 225.486 37.246V41.9458C225.486 42.1416 225.633 42.2885 225.829 42.2885H234.995C235.191 42.2885 235.338 42.4353 235.338 42.6312V44.9321C235.338 45.1279 235.191 45.2748 234.995 45.2748H222.446C222.25 45.1769 222.103 45.03 222.103 44.8342Z" fill="white"/>
<path d="M201.711 35.4836C201.711 29.5599 205.976 25.5455 211.466 25.5455C215.044 25.5455 217.348 27.3569 218.721 29.5599C218.819 29.7068 218.77 29.9516 218.574 30.0005L216.368 31.1755C216.221 31.2734 216.025 31.2244 215.976 31.0776C215.044 29.6089 213.329 28.5319 211.466 28.5319C207.789 28.5319 205.044 31.4203 205.044 35.4836C205.044 39.498 207.789 42.4353 211.466 42.4353C213.329 42.4353 215.044 41.3583 215.976 39.8896C216.074 39.7428 216.221 39.6938 216.368 39.7917L218.574 40.9177C218.77 41.0156 218.819 41.2114 218.721 41.4073C217.299 43.6103 214.995 45.4706 211.466 45.4706C205.976 45.4217 201.711 41.4073 201.711 35.4836Z" fill="white"/>
<path d="M158.133 44.9321V30.2943L152.299 45.03C152.299 45.079 152.201 45.1279 152.152 45.1279H150.927C150.878 45.1279 150.78 45.079 150.78 45.03L144.897 30.2943V44.9321C144.897 45.079 144.799 45.1769 144.652 45.1769H141.711C141.564 45.1769 141.466 45.079 141.466 44.9321V26.133C141.466 25.9861 141.564 25.8882 141.711 25.8882H145.927C146.123 25.8882 146.27 25.9861 146.368 26.182L151.515 39.4001L156.613 26.182C156.662 25.9861 156.858 25.8882 157.054 25.8882H161.27C161.417 25.8882 161.515 25.9861 161.515 26.133V44.9321C161.515 45.079 161.417 45.1769 161.27 45.1769H158.329C158.231 45.1769 158.133 45.079 158.133 44.9321Z" fill="white"/>
</svg>
