<svg width="243" height="26" viewBox="0 0 243 26" fill="none" xmlns="http://www.w3.org/2000/svg">
<path d="M34.8984 1.70256H43.2168C45.2098 1.70256 46.7911 2.21901 47.9609 3.25191C49.1307 4.28481 49.7156 5.80188 49.7156 7.80312C49.7156 8.72842 49.5206 9.56766 49.1307 10.3208C48.7408 11.0524 48.1884 11.6012 47.4735 11.967C49.7481 12.8923 50.8854 14.7321 50.8854 17.4865C50.8854 19.6599 50.2138 21.3384 48.8707 22.5219C47.5493 23.7055 45.7189 24.2972 43.3793 24.2972H34.8984V1.70256ZM42.9894 10.4822C43.8775 10.4822 44.5382 10.2993 44.9715 9.93347C45.4264 9.54614 45.6539 8.91133 45.6539 8.02907C45.6539 7.1468 45.4264 6.52275 44.9715 6.15694C44.5166 5.7696 43.8234 5.57593 42.8919 5.57593H39.1226V10.4822H42.9894ZM42.9894 20.4239C44.2675 20.4239 45.199 20.1656 45.7838 19.6492C46.3687 19.1327 46.6612 18.3796 46.6612 17.3897C46.6612 16.3999 46.3687 15.6467 45.7838 15.1302C45.199 14.6138 44.2675 14.3556 42.9894 14.3556H39.1226V20.4239H42.9894Z" fill="white"/>
<path d="M53.5768 1.44434H57.6061V24.2972H53.5768V1.44434Z" fill="white"/>
<path d="M69.0115 24.5554C67.3002 24.5554 65.8163 24.1896 64.5599 23.458C63.3035 22.7264 62.3395 21.7257 61.6679 20.4561C61.0181 19.1865 60.6931 17.7555 60.6931 16.1631C60.6931 14.5708 61.0181 13.1398 61.6679 11.8702C62.3395 10.6006 63.3035 9.59993 64.5599 8.8683C65.8163 8.13666 67.3002 7.77084 69.0115 7.77084C70.7229 7.77084 72.2067 8.13666 73.4632 8.8683C74.7196 9.59993 75.6727 10.6006 76.3226 11.8702C76.9941 13.1398 77.3299 14.5708 77.3299 16.1631C77.3299 17.7555 76.9941 19.1865 76.3226 20.4561C75.6727 21.7257 74.7196 22.7264 73.4632 23.458C72.2067 24.1896 70.7229 24.5554 69.0115 24.5554ZM69.0115 21.134C70.2679 21.134 71.2644 20.6606 72.0009 19.7137C72.7375 18.7454 73.1057 17.5619 73.1057 16.1631C73.1057 14.7644 72.7375 13.5917 72.0009 12.6448C71.2644 11.6765 70.2679 11.1923 69.0115 11.1923C67.7551 11.1923 66.7586 11.6765 66.0221 12.6448C65.2856 13.5917 64.9173 14.7644 64.9173 16.1631C64.9173 17.5619 65.2856 18.7454 66.0221 19.7137C66.7586 20.6606 67.7551 21.134 69.0115 21.134Z" fill="white"/>
<path d="M86.9601 24.5554C85.2487 24.5554 83.7865 24.1896 82.5734 23.458C81.382 22.7048 80.483 21.6935 79.8764 20.4239C79.2699 19.1542 78.9666 17.734 78.9666 16.1631C78.9666 14.5923 79.2699 13.172 79.8764 11.9024C80.483 10.6328 81.382 9.63221 82.5734 8.90057C83.7865 8.14742 85.2487 7.77084 86.9601 7.77084C88.7797 7.77084 90.3178 8.16894 91.5742 8.96513C92.8523 9.7398 93.7946 10.8911 94.4011 12.4189L90.7943 13.8714C90.3611 12.9891 89.8304 12.3221 89.2021 11.8702C88.5956 11.4183 87.8482 11.1923 86.9601 11.1923C85.7253 11.1923 84.783 11.655 84.1331 12.5803C83.5049 13.4841 83.1908 14.6784 83.1908 16.1631C83.1908 17.6479 83.5049 18.853 84.1331 19.7783C84.783 20.6821 85.7253 21.134 86.9601 21.134C87.8482 21.134 88.5956 20.908 89.2021 20.4561C89.8304 20.0042 90.3611 19.3372 90.7943 18.4549L94.4011 19.9074C93.7946 21.4352 92.8523 22.5972 91.5742 23.3934C90.3178 24.1681 88.7797 24.5554 86.9601 24.5554Z" fill="white"/>
<path d="M97.1049 1.44434H101.134V14.4201L106.463 8.02907H111.435L104.871 15.5176L111.857 24.2972H106.918L101.134 16.615V24.2972H97.1049V1.44434Z" fill="white"/>
<path d="M122.72 1.70256H131.299C133.617 1.70256 135.382 2.33736 136.595 3.60697C137.808 4.85505 138.415 6.512 138.415 8.57779C138.415 10.6436 137.808 12.3113 136.595 13.5809C135.382 14.829 133.617 15.453 131.299 15.453H126.945V24.2972H122.72V1.70256ZM131.136 11.5797C132.089 11.5797 132.826 11.3322 133.346 10.8373C133.866 10.3423 134.126 9.58917 134.126 8.57779C134.126 7.56641 133.866 6.81326 133.346 6.31833C132.826 5.8234 132.089 5.57593 131.136 5.57593H126.945V11.5797H131.136Z" fill="white"/>
<path d="M141.213 8.02907H145.242V10.6759C145.827 9.75056 146.542 9.04045 147.386 8.54551C148.231 8.02907 149.13 7.77084 150.083 7.77084C150.69 7.77084 151.351 7.87843 152.066 8.09362L151.318 11.8056C150.82 11.5043 150.257 11.3537 149.628 11.3537C148.35 11.3537 147.3 11.9347 146.477 13.0967C145.653 14.2372 145.242 16.0448 145.242 18.5194V24.2972H141.213V8.02907Z" fill="white"/>
<path d="M161.409 24.5554C159.698 24.5554 158.214 24.1896 156.958 23.458C155.701 22.7264 154.737 21.7257 154.066 20.4561C153.416 19.1865 153.091 17.7555 153.091 16.1631C153.091 14.5708 153.416 13.1398 154.066 11.8702C154.737 10.6006 155.701 9.59993 156.958 8.8683C158.214 8.13666 159.698 7.77084 161.409 7.77084C163.121 7.77084 164.604 8.13666 165.861 8.8683C167.117 9.59993 168.07 10.6006 168.72 11.8702C169.392 13.1398 169.728 14.5708 169.728 16.1631C169.728 17.7555 169.392 19.1865 168.72 20.4561C168.07 21.7257 167.117 22.7264 165.861 23.458C164.604 24.1896 163.121 24.5554 161.409 24.5554ZM161.409 21.134C162.666 21.134 163.662 20.6606 164.399 19.7137C165.135 18.7454 165.503 17.5619 165.503 16.1631C165.503 14.7644 165.135 13.5917 164.399 12.6448C163.662 11.6765 162.666 11.1923 161.409 11.1923C160.153 11.1923 159.156 11.6765 158.42 12.6448C157.683 13.5917 157.315 14.7644 157.315 16.1631C157.315 17.5619 157.683 18.7454 158.42 19.7137C159.156 20.6606 160.153 21.134 161.409 21.134Z" fill="white"/>
<path d="M179.794 24.5554C177.909 24.5554 176.436 24.0498 175.375 23.0384C174.313 22.027 173.783 20.5314 173.783 18.5517V11.4505H171.248V8.02907H173.783V3.96203L177.812 1.44434V8.02907H182.134V11.4505H177.812V18.4872C177.812 19.4555 177.985 20.1441 178.332 20.553C178.7 20.9403 179.242 21.134 179.957 21.134C180.498 21.134 181.018 21.0049 181.516 20.7466L182.459 23.9744C181.614 24.3618 180.726 24.5554 179.794 24.5554Z" fill="white"/>
<path d="M192.414 24.5554C190.702 24.5554 189.218 24.1896 187.962 23.458C186.706 22.7264 185.742 21.7257 185.07 20.4561C184.42 19.1865 184.095 17.7555 184.095 16.1631C184.095 14.5708 184.42 13.1398 185.07 11.8702C185.742 10.6006 186.706 9.59993 187.962 8.8683C189.218 8.13666 190.702 7.77084 192.414 7.77084C194.125 7.77084 195.609 8.13666 196.865 8.8683C198.122 9.59993 199.075 10.6006 199.725 11.8702C200.396 13.1398 200.732 14.5708 200.732 16.1631C200.732 17.7555 200.396 19.1865 199.725 20.4561C199.075 21.7257 198.122 22.7264 196.865 23.458C195.609 24.1896 194.125 24.5554 192.414 24.5554ZM192.414 21.134C193.67 21.134 194.667 20.6606 195.403 19.7137C196.14 18.7454 196.508 17.5619 196.508 16.1631C196.508 14.7644 196.14 13.5917 195.403 12.6448C194.667 11.6765 193.67 11.1923 192.414 11.1923C191.157 11.1923 190.161 11.6765 189.424 12.6448C188.688 13.5917 188.319 14.7644 188.319 16.1631C188.319 17.5619 188.688 18.7454 189.424 19.7137C190.161 20.6606 191.157 21.134 192.414 21.134Z" fill="white"/>
<path d="M210.362 24.5554C208.651 24.5554 207.189 24.1896 205.976 23.458C204.784 22.7048 203.885 21.6935 203.279 20.4239C202.672 19.1542 202.369 17.734 202.369 16.1631C202.369 14.5923 202.672 13.172 203.279 11.9024C203.885 10.6328 204.784 9.63221 205.976 8.90057C207.189 8.14742 208.651 7.77084 210.362 7.77084C212.182 7.77084 213.72 8.16894 214.976 8.96513C216.254 9.7398 217.197 10.8911 217.803 12.4189L214.196 13.8714C213.763 12.9891 213.233 12.3221 212.604 11.8702C211.998 11.4183 211.25 11.1923 210.362 11.1923C209.127 11.1923 208.185 11.655 207.535 12.5803C206.907 13.4841 206.593 14.6784 206.593 16.1631C206.593 17.6479 206.907 18.853 207.535 19.7783C208.185 20.6821 209.127 21.134 210.362 21.134C211.25 21.134 211.998 20.908 212.604 20.4561C213.233 20.0042 213.763 19.3372 214.196 18.4549L217.803 19.9074C217.197 21.4352 216.254 22.5972 214.976 23.3934C213.72 24.1681 212.182 24.5554 210.362 24.5554Z" fill="white"/>
<path d="M227.564 24.5554C225.853 24.5554 224.369 24.1896 223.113 23.458C221.856 22.7264 220.892 21.7257 220.221 20.4561C219.571 19.1865 219.246 17.7555 219.246 16.1631C219.246 14.5708 219.571 13.1398 220.221 11.8702C220.892 10.6006 221.856 9.59993 223.113 8.8683C224.369 8.13666 225.853 7.77084 227.564 7.77084C229.276 7.77084 230.76 8.13666 232.016 8.8683C233.273 9.59993 234.226 10.6006 234.876 11.8702C235.547 13.1398 235.883 14.5708 235.883 16.1631C235.883 17.7555 235.547 19.1865 234.876 20.4561C234.226 21.7257 233.273 22.7264 232.016 23.458C230.76 24.1896 229.276 24.5554 227.564 24.5554ZM227.564 21.134C228.821 21.134 229.817 20.6606 230.554 19.7137C231.29 18.7454 231.659 17.5619 231.659 16.1631C231.659 14.7644 231.29 13.5917 230.554 12.6448C229.817 11.6765 228.821 11.1923 227.564 11.1923C226.308 11.1923 225.312 11.6765 224.575 12.6448C223.839 13.5917 223.47 14.7644 223.47 16.1631C223.47 17.5619 223.839 18.7454 224.575 19.7137C225.312 20.6606 226.308 21.134 227.564 21.134Z" fill="white"/>
<path d="M238.971 1.44434H243V24.2972H238.971V1.44434Z" fill="white"/>
<path opacity="0.9" d="M9.81849 5.2H5.28688V2.97143C5.28688 2.18336 4.96859 1.42757 4.40203 0.870315C3.83547 0.313064 3.06704 0 2.26581 0H0V23.0286C0 23.8166 0.318289 24.5724 0.88485 25.1297C1.45141 25.6869 2.21984 26 3.02107 26H5.28688V20.8H9.81849C11.8684 20.7238 13.8085 19.8692 15.2314 18.4158C16.6542 16.9624 17.4491 15.0232 17.4491 13.0056C17.4491 10.9879 16.6542 9.04876 15.2314 7.59536C13.8085 6.14195 11.8684 5.28739 9.81849 5.21114V5.2ZM9.81849 15.6H5.28688V10.4H9.81849C11.329 10.4 12.3675 11.5756 12.3675 13C12.3675 14.4244 11.329 15.5944 9.81849 15.5944V15.6Z" fill="white"/>
</svg>
