<svg width="243" height="40" viewBox="0 0 243 40" fill="none" xmlns="http://www.w3.org/2000/svg">
  <path d="M51.023 27.1c1.5 1.9-8.3 6.5-14.199 6.5 4.7-.9 12.899-4.9 12.899-6.3v-3.9c0-.1 0-.2-.1-.3l-.2-.2-1.5-.4s-.1 0-.1-.1v-.1c-.1-4-1.1-7.4-2.6-10.3L26.925 31.4c-.1.1-.3.3-.5.3-.2.1-.4.1-.6.1-.2 0-.4 0-.6-.1-.2-.1-.3-.2-.5-.3l-9.798-9.1c-.2-.2-.3-.4-.3-.6 0-.2.1-.4.2-.6l3.4-3.6c.1-.1.2-.1.3-.2.1 0 .2-.1.3-.1.1 0 .2 0 .3.1.1 0 .2.1.3.2l5.999 5.6.1.1h.2s.1 0 .1-.1L41.324 6.9c-3-2.9-6.7-4.8-9.9-5.4h-.1s-.1 0-.1.1c0 0 0 .1-.1.1v.1l.6 11.6-2.099-12.1c-.1-.4-.3-.7-.5-.9-.3-.2-.6-.4-1-.4h-4.4c-.4 0-.7.1-1 .4-.299.2-.499.6-.499.9l-2.2 12.1.6-11.6v-.1s0-.1-.1-.1c0 0-.1 0-.1-.1h-.1C13.327 2.9 4.228 9.9 4.028 22.2c0 .1 0 .1-.1.1l-.1.1-1.5.4c-.1 0-.2.1-.2.2s-.1.2-.1.3v3.9c0 1.4 8.2 5.4 12.899 6.3-5.9 0-15.698-4.6-14.198-6.5-3.4 1.6 5.599 9.2 16.598 9.2h16.998c11.098.1 20.197-7.5 16.698-9.1z" fill="#FFFFFF"/>
  <path d="M85.818 21.7c0 6.6-4.6 10.9-10.798 10.9-2.9 0-5.4-1-7-3v2.7h-4.699V2.8h5v10.8c1.7-1.9 4.099-2.8 6.799-2.8 6.099 0 10.698 4.3 10.698 10.9zm-5.099 0c0-4.1-2.7-6.6-6.3-6.6-3.599 0-6.298 2.6-6.298 6.6 0 4 2.7 6.6 6.299 6.6 3.6 0 6.299-2.6 6.299-6.6zM109.516 11v21.2h-4.7v-2.7c-1.599 1.9-4.099 3-6.799 3-5.4 0-9.099-3-9.099-9.4V11h5v11.5c0 3.9 1.8 5.7 4.999 5.7 3.5 0 5.799-2.1 5.799-6.4V11h4.8zm4.199-6.4c0-1.7 1.4-3 3.2-3 1.8 0 3.2 1.2 3.2 2.9 0 1.8-1.3 3.1-3.2 3.1-1.8-.1-3.2-1.4-3.2-3zm.7 6.4h5v21.2h-5V11zm9.899-8.2h5v29.5h-5V2.8zm30.696 0v29.5h-4.799v-2.7c-1.7 2-4.1 3-6.999 3-6.2 0-10.699-4.3-10.699-10.9 0-6.6 4.599-10.9 10.699-10.9 2.699 0 5.199.9 6.799 2.9V2.8h4.999zm-4.899 18.9c0-4.1-2.7-6.6-6.299-6.6-3.6 0-6.3 2.6-6.3 6.6 0 4 2.7 6.6 6.3 6.6 3.599 0 6.299-2.6 6.299-6.6z" fill="#FFFFFF"/>
  <path d="M182.507 21.7c0 6.6-4.599 10.9-10.799 10.9-2.699 0-5.099-.9-6.799-2.9V40h-4.999V11h4.699v2.8c1.7-2 4.1-3 6.999-3 6.3 0 10.899 4.3 10.899 10.9zm-5.099 0c0-4.1-2.7-6.6-6.3-6.6-3.599 0-6.299 2.6-6.299 6.6 0 4 2.7 6.6 6.299 6.6 3.6 0 6.3-2.6 6.3-6.6zm25.697-1.9v12.5h-4.7v-2.6c-1.2 1.8-3.499 2.9-6.699 2.9-4.899 0-7.899-2.7-7.899-6.4 0-3.5 2.4-6.3 8.799-6.3h5.499v-.3c0-2.9-1.8-4.6-5.299-4.6-2.4 0-4.9.8-6.399 2.1l-1.9-3.6c2.3-1.8 5.599-2.6 8.999-2.6 6.099-.1 9.599 2.8 9.599 8.9zm-4.9 5.8v-2.5h-5.199c-3.4 0-4.3 1.3-4.3 2.8 0 1.8 1.5 2.9 4.1 2.9 2.4.1 4.499-1 5.399-3.2zm7.299 4.6 1.9-3.8c1.9 1.2 4.7 2.1 7.399 2.1 3.1 0 4.5-.9 4.5-2.3 0-4.1-13.099-.2-13.099-8.7 0-4 3.6-6.6 9.299-6.6 2.8 0 6 .7 7.999 1.8l-1.899 3.8c-2-1.2-4.1-1.6-6.1-1.6-2.999 0-4.499 1-4.499 2.4 0 4.3 13.098.5 13.098 8.8 0 4-3.699 6.6-9.599 6.6-3.599-.1-7.099-1.2-8.999-2.5zm18.898 0 1.9-3.8c1.9 1.2 4.699 2.1 7.399 2.1 3.1 0 4.499-.9 4.499-2.3 0-4.1-13.098-.2-13.098-8.7 0-4 3.6-6.6 9.299-6.6 2.8 0 5.999.7 7.999 1.8l-1.9 3.8c-2-1.2-4.099-1.6-6.099-1.6-3 0-4.5 1-4.5 2.4 0 4.3 13.099.5 13.099 8.8 0 4-3.7 6.6-9.599 6.6-3.6-.1-7.099-1.2-8.999-2.5z" fill="#FFFFFF"/>
</svg>
