<svg width="175" height="38" viewBox="0 0 175 38" fill="none" xmlns="http://www.w3.org/2000/svg">
<path d="M17.4276 35.9566C7.48714 35.9566 0 28.1136 0 18.4307C0 8.71562 7.10483 0.807968 17.4276 0.807968C22.9075 0.807968 26.6988 2.48632 29.6618 6.32719L24.8827 10.2972C22.8756 8.16692 20.4542 7.10182 17.4276 7.10182C10.705 7.10182 7.00924 12.2337 7.00924 18.4307C7.00924 24.6278 11.0555 29.6628 17.4276 29.6628C20.4223 29.6628 22.9713 28.5978 24.9784 26.4675L29.6937 30.5988C26.8582 34.2782 22.9713 35.9566 17.4276 35.9566Z" fill="white"/>
<path d="M50.2754 10.1667H56.7111V35.3421H50.2754V31.6626C48.9373 34.277 46.707 36.0198 42.4379 36.0198C35.6198 36.0198 30.1716 30.1134 30.1716 22.8513C30.1716 15.5891 35.6198 9.68259 42.4379 9.68259C46.6753 9.68259 48.9373 11.4255 50.2754 14.0399V10.1667ZM50.4665 22.8513C50.4665 18.9136 47.7584 15.6537 43.4892 15.6537C39.3792 15.6537 36.7029 18.9458 36.7029 22.8513C36.7029 26.6598 39.3792 30.0488 43.4892 30.0488C47.7267 30.0488 50.4665 26.7567 50.4665 22.8513Z" fill="white"/>
<path d="M61.2672 0H67.7028V35.3101H61.2672V0Z" fill="white"/>
<path d="M70.5702 31.986C70.5702 29.9203 72.227 28.1773 74.489 28.1773C76.7512 28.1773 78.3442 29.9203 78.3442 31.986C78.3442 34.1162 76.7193 35.859 74.489 35.859C72.2589 35.859 70.5702 34.1162 70.5702 31.986Z" fill="white"/>
<path d="M102.972 31.2754C100.583 34.1801 96.9505 36.0198 92.6493 36.0198C84.971 36.0198 79.3318 30.1134 79.3318 22.8513C79.3318 15.5891 84.971 9.68259 92.6493 9.68259C96.7911 9.68259 100.391 11.4255 102.781 14.169L97.8108 18.3326C96.5681 16.7833 94.9432 15.6214 92.6493 15.6214C88.5394 15.6214 85.8632 18.9136 85.8632 22.819C85.8632 26.7244 88.5394 30.0165 92.6493 30.0165C95.1345 30.0165 96.8549 28.7256 98.1293 26.9826L102.972 31.2754Z" fill="white"/>
<path d="M103.514 22.8513C103.514 15.5891 109.153 9.68259 116.831 9.68259C124.51 9.68259 130.149 15.5891 130.149 22.8513C130.149 30.1134 124.51 36.0198 116.831 36.0198C109.153 35.9875 103.514 30.1134 103.514 22.8513ZM123.617 22.8513C123.617 18.9136 120.941 15.6537 116.831 15.6537C112.721 15.6214 110.045 18.9136 110.045 22.8513C110.045 26.7567 112.721 30.0488 116.831 30.0488C120.941 30.0488 123.617 26.7567 123.617 22.8513Z" fill="white"/>
<path d="M173.669 19.9469V35.3103H167.234V21.5284C167.234 17.1712 165.195 15.2991 162.137 15.2991C159.269 15.2991 157.23 16.7193 157.23 21.5284V35.3103H150.794V21.5284C150.794 17.1712 148.723 15.2991 145.697 15.2991C142.829 15.2991 140.312 16.7193 140.312 21.5284V35.3103H133.877V10.135H140.312V13.6208C141.65 10.9096 144.072 9.55399 147.799 9.55399C151.336 9.55399 154.299 11.2969 155.924 14.234C157.549 11.2323 159.938 9.55399 164.271 9.55399C169.56 9.58627 173.669 13.5885 173.669 19.9469Z" fill="white"/>
</svg>
