<svg width="275" height="101" viewBox="0 0 275 101" fill="none" xmlns="http://www.w3.org/2000/svg">
<g clip-path="url(#clip0_823_5)">
<path d="M272.395 23.4417H227.582C226.198 23.4417 225.666 24.0811 225.666 25.1466C225.666 25.6793 225.985 26.4252 226.517 27.2776C228.753 30.7939 230.03 32.9249 232.052 35.5888C232.372 36.015 233.01 36.3346 233.543 36.3346H241.633L232.798 81.0868C232.691 81.513 233.117 82.0457 233.543 82.0457H242.697C246.316 82.0457 249.403 79.4885 250.042 76.0788L257.812 36.3346H268.989C269.521 36.3346 269.947 36.015 270.16 35.5888C270.905 34.097 272.608 30.3677 272.608 30.3677C273.247 28.9825 273.566 28.1301 274.099 26.6383C274.311 26.1056 274.311 25.6793 274.311 25.2531C274.631 24.0811 273.673 23.4417 272.395 23.4417ZM174.784 23.4417H128.48C127.309 23.4417 126.777 24.2942 126.777 25.3597C126.777 25.999 127.629 27.3842 128.587 28.6628C129.225 29.5152 132.525 33.8839 133.909 35.6953C134.228 36.1215 134.867 36.4412 135.399 36.4412H144.234L135.506 81.1933C135.399 81.6195 135.719 82.1523 136.251 82.1523H145.299C148.811 82.1523 151.898 79.595 152.537 76.1853L160.201 36.5477H168.078C168.717 36.5477 169.249 36.2281 169.568 35.8019C169.568 35.8019 171.485 33.3511 173.188 31.1135C174.359 29.6218 175.104 28.5563 175.742 27.5973C176.381 26.6383 176.7 25.999 176.7 25.4662C176.7 24.2942 175.955 23.4417 174.784 23.4417ZM215.979 33.9905C214.382 32.4987 211.934 32.9249 210.124 34.7363L191.177 55.9403C191.071 56.1534 190.964 56.1534 190.964 56.1534C190.964 56.1534 190.858 56.1534 190.645 55.9403C189.687 55.0879 187.558 52.7437 187.558 52.7437C185.429 50.293 182.981 50.7192 181.49 51.8913C180 53.0634 179.255 55.6207 180.639 57.9648L181.065 58.6041C182.236 60.6286 184.152 63.7187 185.429 65.4235C186.706 67.1284 188.622 68.1939 190.645 68.3004H190.964C192.88 68.3004 194.583 67.448 195.967 66.0628C201.822 59.5631 215.766 40.5967 216.405 39.6378C217.682 37.5067 217.363 35.2691 215.979 33.9905ZM206.292 22.3762C214.382 22.6959 220.45 25.3597 223.643 29.4087C226.943 33.4577 227.688 40.4902 225.559 50.5061L224.282 56.4731C222.153 66.5956 218.959 73.5215 214.915 77.2509C210.763 80.9802 205.122 82.685 196.18 83.0047C194.158 83.1113 191.496 83.1113 189.9 83.0047C180.745 82.685 175.529 80.8736 172.23 76.8246C169.036 72.7756 168.398 65.6366 170.527 55.6207L171.804 49.6537C174.039 39.5312 177.126 32.6053 181.278 28.8759C185.429 25.1466 191.709 22.4828 200.119 22.3762H206.292ZM219.598 16.3027C218.427 17.1551 216.405 18.3272 215.34 18.7534C214.702 19.0731 214.063 19.1796 213.424 19.1796C212.892 19.1796 212.147 18.9665 211.189 18.4338C209.592 17.5813 207.144 16.4093 207.144 16.4093C206.08 15.7699 204.696 15.6634 203.525 16.0896L195.967 18.7534C195.009 19.0731 193.838 19.1796 192.88 18.86C191.603 18.4338 187.877 16.1962 187.771 16.0896C187.451 15.7699 187.239 15.5568 187.239 15.1306C187.239 14.5979 187.558 14.2782 188.197 13.852L201.502 6.28675C202.567 5.64744 203.738 5.32778 204.909 5.32778H208.528C209.592 5.32778 209.912 5.43433 210.976 6.28675C213.105 8.09815 219.172 13.852 219.172 13.852C219.811 14.3848 220.13 14.9175 220.13 15.2372C220.343 15.5568 220.237 15.7699 219.598 16.3027ZM227.795 17.1551C229.817 18.7534 231.094 18.1141 233.543 16.0896C237.268 12.9996 238.865 11.7209 240.675 9.90955C243.229 7.35228 243.123 4.58191 241.633 2.98362C240.994 2.3443 238.758 1.17222 236.736 0.106697C236.097 -0.212961 235.459 -0.212961 235.033 0.426355C234.607 0.959119 227.475 11.5078 225.878 13.9585C225.559 14.3848 225.346 15.0241 226.198 15.7699C226.304 15.8765 227.262 16.7289 227.795 17.1551ZM36.9366 49.7603C35.2335 45.7113 30.4434 42.6212 23.3115 42.6212C22.8857 42.6212 18.3085 42.6212 9.0477 44.113C6.493 44.5392 2.55449 45.0719 0.638458 45.6047C0.212674 45.7113 -0.000218488 46.1375 0.106228 46.4571C0.31912 47.0964 2.66093 48.8013 4.36407 49.1209C5.21564 49.2275 6.17366 49.3341 7.13167 49.4406C4.15118 52.5306 2.1287 56.4731 1.27714 60.8417C-1.17113 72.9887 6.17366 80.9802 17.1376 80.9802C25.4404 80.9802 31.5078 76.8246 31.9336 74.4805C32.1465 73.2019 31.9336 71.1774 31.2949 69.7922C31.1885 69.4725 30.8692 69.366 30.5498 69.5791C28.4209 70.6446 25.334 71.3905 22.5664 71.3905C15.8603 71.3905 12.5604 67.0218 13.8378 60.6286C14.9022 55.301 17.5634 52.211 21.0761 52.211C23.6308 52.211 25.1211 53.5962 25.334 57.1124C25.334 57.4321 25.6533 57.7517 26.0791 57.7517C29.3789 57.3255 32.3594 56.3665 33.9561 55.6207C35.8721 54.6617 36.9366 53.4896 37.1495 52.3175C37.3624 51.4651 37.3624 50.7192 36.9366 49.7603ZM99.9527 87.3734C96.44 87.3734 93.4595 89.7175 92.7144 93.5534C91.8628 97.709 94.6304 100.16 97.9302 100.16C101.443 100.16 104.53 97.8155 105.275 93.9796C106.02 89.9306 103.253 87.3734 99.9527 87.3734ZM106.446 52.211C102.614 52.211 99.5269 55.301 98.2496 61.4811C97.0787 67.6611 98.9947 71.3905 103.253 71.3905C107.085 71.3905 110.278 68.3004 111.342 62.1204C112.62 55.9403 110.704 52.211 106.446 52.211ZM122.519 46.8833C122.306 46.9899 122.2 47.203 121.987 47.3096C124.968 50.6127 126.458 55.4076 125.18 61.5876C122.839 73.9477 111.981 80.9802 101.549 80.9802C91.1177 80.9802 83.1342 73.9477 85.5825 61.6942C86.6469 56.3665 89.2017 52.1044 92.7144 48.9078C91.8628 48.8013 91.0112 48.8013 90.1597 48.6947C88.3501 48.4816 86.2212 46.7768 86.0083 46.1375C85.9018 45.7113 86.1147 45.3916 86.5405 45.285C88.563 44.8588 92.1821 44.2195 94.8433 43.7933C104.317 42.3016 108.788 42.3016 109.214 42.3016C113.046 42.3016 116.452 43.2605 119.219 45.0719C119.645 44.5392 119.965 44.0064 120.284 43.4736C118.794 42.9409 117.836 41.4492 118.261 39.3181C118.687 36.7608 120.816 35.1625 123.158 35.1625C125.393 35.1625 127.203 36.8674 126.671 39.6378C126.032 42.4081 124.648 44.8588 122.519 46.8833ZM78.557 75.3329C77.9184 77.9967 74.2992 80.9802 69.6156 80.9802C64.6126 80.9802 60.4612 77.9967 61.9514 70.6446L64.5061 57.3255C65.2513 53.7027 64.0804 51.9979 61.0999 51.9979C59.3967 51.9979 57.3743 52.7437 55.5647 53.9158L50.5617 80.0212C50.5617 80.3409 50.2424 80.554 50.0295 80.554H40.4493C38.6397 80.554 38.0011 79.8081 38.214 78.3164L46.4103 35.6953C44.9201 35.6953 43.1105 35.5887 40.7687 35.2691C39.0655 35.056 36.4044 33.0315 36.1915 32.3922C36.085 31.966 36.2979 31.5397 36.7237 31.4332C38.7462 31.007 52.1584 28.6628 57.0549 28.6628C59.2903 28.6628 60.2483 29.6218 59.929 31.4332L56.9485 46.8833C60.2483 43.6868 64.5061 42.0885 68.1253 42.0885C75.7894 42.0885 79.3022 47.0964 77.2797 57.6452L75.2572 68.3004C74.9379 70.2184 75.4701 71.0708 76.7475 71.0708H78.6635C78.7699 72.5625 78.8764 73.9477 78.557 75.3329Z" fill="white"/>
</g>
<defs>
<clipPath id="clip0_823_5">
<rect width="274.631" height="100.16" fill="white"/>
</clipPath>
</defs>
</svg>
