<svg width="300" height="49" viewBox="0 0 300 49" fill="none" xmlns="http://www.w3.org/2000/svg">
<g clip-path="url(#clip0_1045_1008)">
<path d="M39.5007 14.2257C44.4672 20.0244 46.4947 27.7832 45.0001 35.2703C52.796 32.1608 55.8203 26.9473 56.7406 21.7338C56.7406 21.7338 59.398 11.8541 63.5291 7.74731C55.3663 9.0284 54.5413 5.82569 39.5007 14.2338" fill="white"/>
<path d="M27.0122 24.3243C25.3802 19.2834 22.5661 14.706 18.8047 10.9743C18.8047 10.9743 30.1561 13.9581 36.6912 35.1446C30.525 33.2838 27.8939 27.1986 27 24.3243M41.0574 38.1892C41.2399 37.1757 44.248 26.927 38.2885 18.604C28.3095 7.54459 13.2689 5.99188 13.2689 5.99188C16.2041 11.6676 16.2973 16.9662 19.5041 27.7703C23.3899 38.9554 37.727 39.7094 38.7892 39.7297C39.752 41.25 41.9595 43.2973 47.0128 44.3554L47.5723 41.6919C43.2122 40.7797 41.6169 39.1013 41.0696 38.177" fill="white"/>
<path d="M14.8784 2.73649C8.53581 5.72432 5.99189 13.0176 5.99189 24.1662C5.99189 35.1122 8.53176 42.45 14.8784 45.6527L14.1669 48.3892C4.41892 44.9716 0 37.3743 0 24.2108C0 10.9459 4.41892 3.34459 14.1669 0L14.8784 2.73649Z" fill="white"/>
<path d="M61.8486 0C71.6047 3.34054 76.0135 10.9459 76.0135 24.2068C76.0135 37.3824 71.5945 44.9716 61.8466 48.3608L61.0864 45.6284C67.4371 42.4378 69.9729 35.0878 69.9729 24.1419C69.9729 12.9932 67.433 5.70811 61.0864 2.72027L61.8486 0Z" fill="white"/>
<path d="M105.073 35.8946C102.132 37.0237 98.9989 37.565 95.8499 37.4878C88.0925 37.4878 84.3648 34.127 85.5648 25.6378C86.6716 17.6311 89.7324 14.3595 97.8486 14.3595C101.037 14.3068 104.208 14.847 107.199 15.9527L106.097 20.8581L98.8702 20.8135C95.5885 20.8135 94.4797 21.9203 93.9466 25.8973C93.3689 30.2757 94.127 31.0703 97.3175 31.0703C99.7161 31.0845 102.114 30.9668 104.499 30.7176L105.073 35.8946Z" fill="white"/>
<path d="M118.024 26.2986C117.403 30.8108 117.801 31.8689 120.687 31.8689C123.48 31.8689 124.37 30.677 125.078 25.6784C125.785 21.0811 125.301 20.0027 122.593 20.0027C119.668 20.0027 118.78 21.1054 118.024 26.2865M133.407 26.3027C132.191 34.5729 128.842 37.4878 120.399 37.4878C111.957 37.4878 108.399 34.3054 109.638 25.6824C110.797 17.327 114.162 14.3594 122.724 14.3594C131.191 14.3594 134.651 17.6351 133.411 26.3027" fill="white"/>
<path d="M150.655 19.5243C147.284 19.5243 146.487 20.2297 145.82 25.3176C145.289 29.2986 145.2 30.8878 147.195 30.7581C149.063 30.5767 150.815 29.7662 152.163 28.4595L153.357 19.5405L150.655 19.5243ZM159.032 36.9568H152.692L152.605 33.2432C150.357 35.6921 147.271 37.207 143.959 37.4878C138.817 37.4878 136.512 33.8595 137.617 25.4595C138.833 16.2608 142.451 14.3595 147.195 14.3595C149.574 14.3587 151.948 14.5731 154.289 15C154.266 13.4899 154.371 11.9805 154.601 10.4878L155.353 6.02838H163.415L159.032 36.9568Z" fill="white"/>
<path d="M177.922 23.8662C179.919 23.6878 180.979 23.3797 181.166 21.4784C181.299 20.0189 180.722 19.7514 178.502 19.796C175.794 19.8406 174.908 20.6351 174.201 24.2189L177.922 23.8662ZM186.748 35.7203C183.528 36.9749 180.09 37.5758 176.635 37.4878C167.236 37.4878 164.676 33.377 165.505 25.6824C166.518 16.5324 170.696 14.3635 178.63 14.3635C187.322 14.3635 189.606 17.2378 188.915 22.2689C188.293 26.3838 185.499 27.5595 179.676 28.0176L173.688 28.4595C173.781 30.8068 174.93 31.2487 177.416 31.2487C179.361 31.2487 183.513 31.0257 186.191 30.7176L186.748 35.7203Z" fill="white"/>
<path d="M206.256 8.7608C203.548 8.7608 202.443 9.38107 202.044 12.2067L201.557 15.4054H208.247L207.799 18.7013H201.109L198.182 39.4419C198.125 41.2287 197.34 42.9145 196.009 44.108C194.678 45.3016 192.917 45.8992 191.134 45.7621C189.342 45.7498 187.551 45.6307 185.773 45.4054L186.44 42.2189H189.764C192.428 42.2189 193.532 41.5986 193.936 38.773L196.774 18.7054H192.922L193.328 15.6081L197.274 15.3892L197.807 11.5378C197.86 9.74973 198.65 8.06293 199.988 6.87627C201.327 5.68961 203.096 5.10847 204.878 5.27026C206.995 5.24415 209.112 5.34705 211.216 5.57836L210.509 8.78107L206.256 8.7608Z" fill="white"/>
<path d="M226.476 18.827H225.259C222.827 18.827 220.472 20.4486 216.724 23.2054L214.816 36.9567H210.513L213.57 15.377H216.853L216.63 20.3311C220.076 16.7959 223.455 14.8013 226.386 14.8013H227.54L226.476 18.827Z" fill="white"/>
<path d="M241.419 24.8392C244.08 24.6649 245.232 23.9149 245.585 21.4338C245.99 18.4703 244.48 18.3933 241.02 18.3933C236.635 18.3933 235.125 19.5852 234.195 25.5122L241.419 24.8392ZM247.626 36.2514C244.737 37.1336 241.727 37.5523 238.707 37.4919C231.207 37.4919 228.643 33.6406 229.703 25.5973C230.858 17.1933 233.826 14.8054 241.662 14.8054C248.757 14.8054 250.488 17.4608 249.866 21.7946C249.158 26.0838 246.675 27.6324 241.399 28.0297L233.899 28.6946C233.854 33.0284 235.893 33.9081 239.349 33.9081C241.747 33.9081 244.849 33.6446 247.334 33.377L247.626 36.2514Z" fill="white"/>
<path d="M259.504 26.2541C256.403 24.7946 254.939 23.1162 255.337 19.9703C255.825 15.8595 258.797 14.7 264.472 14.7973C267.573 14.8497 270.667 15.1016 273.736 15.5514L273.203 18.5919C270.456 18.5068 267.882 18.4135 264.602 18.3689C261.053 18.3689 259.723 18.4581 259.5 20.2703C259.281 21.8919 260.311 22.35 262.076 23.1446L267.93 25.8C271.297 27.3487 272.676 28.7189 272.228 32.0351C271.565 36.9446 268.06 37.4311 261.983 37.4311C259.179 37.4371 256.378 37.2297 253.605 36.8108L254.094 33.6284C256.091 33.8027 258.882 33.8514 260.878 33.8514C266.333 33.8514 267.752 33.4095 268.016 31.6378C268.281 30.0487 267.205 29.7811 265.31 28.8973L259.504 26.2541Z" fill="white"/>
<path d="M285.405 14.4932C285.154 16.2813 284.799 18.0533 284.341 19.8C288.101 16.4838 291.243 14.7973 294.353 14.7973C295.944 14.5911 297.532 15.2048 298.571 16.4277C299.61 17.6507 299.96 19.3166 299.499 20.854L297.195 36.9486H292.938L295.022 21.9162C295.376 19.2162 294.888 18.4216 293.027 18.4216C290.364 18.4216 287.795 20.2338 284.084 23.1527L282.176 36.9365H277.865L282.253 5.98376H286.51L285.405 14.4932Z" fill="white"/>
</g>
<defs>
<clipPath id="clip0_1045_1008">
<rect width="300" height="48.6486" fill="white"/>
</clipPath>
</defs>
</svg>
