<?xml version="1.0" encoding="UTF-8"?><svg id="Calque_1" xmlns="http://www.w3.org/2000/svg" viewBox="0 0 1095.95 530.97"><g><path d="M123.97,14.3l-14.58,25.48c-7.99-7.54-18.71-11.31-32.15-11.31s-23.09,4.29-30.58,12.87c-7.49,8.58-11.24,20.46-11.24,35.62,0,30.61,14.58,45.91,43.73,45.91,12.62,0,23.75-4.18,33.38-12.53l12.53,26.84c-9.9,6.18-18.55,10.08-25.95,11.72-7.4,1.63-16.14,2.45-26.22,2.45-22.52,0-40.3-6.56-53.33-19.69C6.52,118.54,0,100.31,0,76.97S7.13,35.42,21.39,21.25C35.65,7.08,55.08,0,79.69,0c16.98,0,31.74,4.77,44.27,14.3Z" fill="#fff"/><path d="M142.77,75.34c0-22.25,6.42-40.37,19.28-54.36C174.9,6.99,191.86,0,212.93,0c22.16,0,39.37,6.72,51.63,20.16,12.26,13.44,18.39,31.83,18.39,55.17s-6.25,41.73-18.73,55.45c-12.49,13.71-29.59,20.57-51.29,20.57s-39.39-6.92-51.7-20.78c-12.31-13.85-18.46-32.26-18.46-55.24Zm35.42,0c0,32.15,11.58,48.23,34.74,48.23,10.63,0,19.05-4.18,25.27-12.53,6.22-8.35,9.33-20.25,9.33-35.69,0-31.69-11.53-47.54-34.6-47.54-10.63,0-19.07,4.18-25.34,12.53-6.27,8.36-9.4,20.03-9.4,35.01Z" fill="#fff"/><path d="M479.12,148.63V57.22c0-19.16-8.58-28.74-25.75-28.74-5.09,0-9.99,1.5-14.71,4.5-4.72,3-8.04,6.45-9.94,10.35v105.31h-34.06V51.9c0-7.17-2.23-12.87-6.67-17.1-4.45-4.22-10.72-6.33-18.8-6.33-4.27,0-8.92,1.59-13.96,4.77-5.04,3.18-8.7,6.68-10.97,10.49v104.9h-34.06V2.72h23.43l6.95,12.81c9.44-10.35,21.66-15.53,36.65-15.53,19.35,0,33.92,5.27,43.73,15.8,4.27-4.81,10.22-8.65,17.85-11.51,7.63-2.86,15.26-4.29,22.89-4.29,16.26,0,28.9,4.66,37.94,13.96,9.04,9.31,13.56,22.09,13.56,38.35v96.31h-34.06Z" fill="#fff"/><path d="M581.3,144.95v60.9h-34.06V2.72h34.06V12.53c8.54-8.35,19.03-12.53,31.47-12.53,46.5,0,69.75,25.61,69.75,76.83,0,23.89-6.43,42.28-19.28,55.17-12.85,12.9-30.4,19.34-52.65,19.34-10.72,0-20.48-2.13-29.29-6.4Zm0-106.53V115.11c6.17,5,13.39,7.49,21.66,7.49,15.71,0,27-3.75,33.85-11.24,6.86-7.49,10.29-19.32,10.29-35.49,0-17.25-3.41-29.4-10.22-36.44-6.81-7.04-18.07-10.56-33.79-10.56-8.17,0-15.44,3.18-21.8,9.54Z" fill="#fff"/><path d="M793.68,134.05c-3.09,5.09-8.47,9.24-16.14,12.47-7.68,3.22-15.69,4.84-24.04,4.84-15.71,0-28.06-3.93-37.05-11.78-8.99-7.85-13.49-19-13.49-33.44,0-16.89,6.33-30.11,19-39.64,12.67-9.54,30.67-14.3,54.02-14.3,4,0,8.72,.68,14.17,2.04,0-17.17-10.85-25.75-32.56-25.75-12.81,0-23.52,2.13-32.15,6.4l-7.36-26.43c11.72-5.63,25.66-8.45,41.82-8.45,22.25,0,38.55,5.06,48.91,15.19,10.35,10.13,15.53,29.31,15.53,57.56v31.2c0,19.44,3.9,31.65,11.72,36.65-2.82,4.9-5.95,7.92-9.4,9.06-3.45,1.13-7.4,1.7-11.85,1.7-4.9,0-9.31-1.82-13.21-5.45-3.91-3.63-6.54-7.58-7.9-11.85Zm-3.27-54.08c-5.81-1.18-10.17-1.77-13.08-1.77-26.88,0-40.32,8.81-40.32,26.43,0,13.08,7.58,19.62,22.75,19.62,20.43,0,30.65-10.22,30.65-30.65v-13.62Z" fill="#fff"/><path d="M945.44,34.47c-6.09-4-12.76-5.99-20.03-5.99-7.9,0-14.92,3.59-21.05,10.76-6.13,7.18-9.2,15.94-9.2,26.29v83.1h-34.06V2.72h34.06v13.35c9.54-10.72,22.21-16.08,38.01-16.08,11.62,0,20.52,1.77,26.7,5.31l-14.44,29.15Z" fill="#fff"/><path d="M1052.79,134.05c-3.09,5.09-8.47,9.24-16.14,12.47-7.68,3.22-15.69,4.84-24.04,4.84-15.71,0-28.06-3.93-37.05-11.78-8.99-7.85-13.49-19-13.49-33.44,0-16.89,6.33-30.11,19-39.64,12.67-9.54,30.67-14.3,54.02-14.3,4,0,8.72,.68,14.17,2.04,0-17.17-10.85-25.75-32.56-25.75-12.81,0-23.52,2.13-32.15,6.4l-7.36-26.43c11.72-5.63,25.66-8.45,41.82-8.45,22.25,0,38.55,5.06,48.91,15.19,10.35,10.13,15.53,29.31,15.53,57.56v31.2c0,19.44,3.9,31.65,11.72,36.65-2.82,4.9-5.95,7.92-9.4,9.06-3.45,1.13-7.4,1.7-11.85,1.7-4.9,0-9.31-1.82-13.21-5.45-3.91-3.63-6.54-7.58-7.9-11.85Zm-3.27-54.08c-5.81-1.18-10.17-1.77-13.08-1.77-26.88,0-40.32,8.81-40.32,26.43,0,13.08,7.58,19.62,22.75,19.62,20.43,0,30.65-10.22,30.65-30.65v-13.62Z" fill="#fff"/></g><g><path d="M.99,510.55l20.43-45.67c17.13,13.62,36.49,20.43,58.06,20.43s33.51-7.95,33.51-23.87c0-9.33-3.37-16.98-10.1-22.95-6.73-5.97-19.82-13-39.25-21.11C21.26,399.78,.07,375.14,.07,343.47c0-21.26,8.11-37.83,24.33-49.69,16.22-11.86,36.95-17.79,62.19-17.79s49.57,5.74,72.06,17.21l-16.52,44.52c-12.55-10.71-29.99-16.07-52.33-16.07-20.05,0-30.06,7.96-30.06,23.87,0,6.28,3.29,11.93,9.87,16.98,6.58,5.05,20.66,11.82,42.23,20.31,21.57,8.49,37.1,18.78,46.59,30.87,9.48,12.09,14.23,26.7,14.23,43.83,0,22.8-8.46,40.74-25.36,53.82-16.91,13.08-39.9,19.62-68.97,19.62-16.37,0-29.49-1.34-39.36-4.02s-22.53-8.15-37.98-16.41Z" fill="#e0e0e0"/><path d="M227.28,326.72h-28.46v-46.13h28.46v-50.03l57.38-21.11v71.15h67.47v46.13h-67.47v107.64c0,17.6,2.75,30.03,8.26,37.29,5.51,7.27,15.15,10.9,28.92,10.9s26.62-3.75,38.56-11.25v52.79c-13.31,4.59-32.28,6.88-56.92,6.88s-43.3-6.92-56.46-20.77c-13.16-13.85-19.74-33.54-19.74-59.1v-124.39Z" fill="#e0e0e0"/><path d="M388.85,402.91c0-37.48,10.82-68.01,32.47-91.57,21.65-23.56,50.22-35.34,85.72-35.34,37.33,0,66.33,11.32,86.98,33.97,20.66,22.65,30.98,53.63,30.98,92.95s-10.52,70.31-31.56,93.41c-21.04,23.1-49.84,34.65-86.41,34.65s-66.37-11.67-87.1-35c-20.73-23.33-31.1-54.35-31.1-93.06Zm59.67,0c0,54.16,19.51,81.24,58.52,81.24,17.9,0,32.09-7.04,42.57-21.11,10.48-14.07,15.72-34.12,15.72-60.13,0-53.4-19.43-80.1-58.29-80.1-17.9,0-32.13,7.04-42.69,21.11-10.56,14.08-15.84,33.74-15.84,58.98Z" fill="#e0e0e0"/><path d="M812.97,334.06c-10.25-6.73-21.5-10.1-33.74-10.1-13.31,0-25.13,6.05-35.46,18.13-10.33,12.09-15.49,26.85-15.49,44.29v140h-57.38v-245.8h57.38v22.49c16.07-18.05,37.41-27.08,64.03-27.08,19.58,0,34.58,2.98,44.98,8.95l-24.33,49.11Z" fill="#e0e0e0"/><path d="M1091.13,421.04h-175.57c1.07,19.59,7.8,34.81,20.2,45.67,12.39,10.87,29.07,16.29,50.03,16.29,26.16,0,46.05-6.81,59.67-20.43l22.26,43.83c-20.2,16.37-50.34,24.56-90.42,24.56-37.49,0-67.13-10.98-88.93-32.93-21.8-21.95-32.7-52.59-32.7-91.92s11.97-70.07,35.92-94.1c23.94-24.02,52.67-36.03,86.18-36.03,35.65,0,64.26,10.64,85.83,31.9,21.57,21.27,32.36,48.35,32.36,81.24,0,7.04-1.61,17.67-4.82,31.9Zm-173.5-43.15h120.72c-3.98-35.95-23.87-53.93-59.67-53.93-32.74,0-53.09,17.98-61.05,53.93Z" fill="#e0e0e0"/></g></svg>