<?xml version="1.0" encoding="utf-8"?>
<!-- Generator: Adobe Illustrator 26.3.1, SVG Export Plug-In . SVG Version: 6.00 Build 0)  -->
<svg version="1.1" id="Calque_1" xmlns="http://www.w3.org/2000/svg" xmlns:xlink="http://www.w3.org/1999/xlink" x="0px" y="0px"
	 viewBox="0 0 1456.54 1456.54" style="enable-background:new 0 0 1456.54 1456.54;" xml:space="preserve">
<style type="text/css">
	.st0{fill:#FFFFFF;}
	.st1{fill:#E5E4E4;}
</style>
<g>
	<g>
		<path class="st0" d="M304.27,477.09l-14.58,25.48c-7.99-7.54-18.71-11.31-32.15-11.31c-12.9,0-23.09,4.29-30.58,12.87
			c-7.49,8.58-11.24,20.46-11.24,35.62c0,30.61,14.58,45.91,43.73,45.91c12.62,0,23.75-4.18,33.38-12.53l12.53,26.84
			c-9.9,6.18-18.55,10.08-25.95,11.72c-7.4,1.63-16.14,2.45-26.22,2.45c-22.52,0-40.3-6.56-53.33-19.69
			c-13.03-13.12-19.55-31.35-19.55-54.7c0-22.98,7.13-41.55,21.39-55.72c14.26-14.17,33.69-21.25,58.31-21.25
			C276.98,462.79,291.74,467.55,304.27,477.09z"/>
		<path class="st0" d="M323.07,538.12c0-22.25,6.42-40.37,19.28-54.36c12.85-13.98,29.81-20.98,50.88-20.98
			c22.16,0,39.37,6.72,51.63,20.16c12.26,13.44,18.39,31.83,18.39,55.17c0,23.25-6.25,41.73-18.73,55.45
			c-12.49,13.71-29.59,20.57-51.29,20.57c-22.16,0-39.39-6.92-51.7-20.78C329.22,579.51,323.07,561.1,323.07,538.12z M358.49,538.12
			c0,32.15,11.58,48.23,34.74,48.23c10.63,0,19.05-4.18,25.27-12.53c6.22-8.35,9.33-20.25,9.33-35.69
			c0-31.69-11.53-47.54-34.6-47.54c-10.63,0-19.07,4.18-25.34,12.53C361.62,511.47,358.49,523.14,358.49,538.12z"/>
		<path class="st0" d="M659.42,611.41V520c0-19.16-8.58-28.74-25.75-28.74c-5.09,0-9.99,1.5-14.71,4.5c-4.72,3-8.04,6.45-9.94,10.35
			v105.31h-34.06v-96.72c0-7.17-2.23-12.87-6.67-17.1c-4.45-4.22-10.72-6.33-18.8-6.33c-4.27,0-8.92,1.59-13.96,4.77
			c-5.04,3.18-8.7,6.68-10.97,10.49v104.9H490.5v-145.9h23.43l6.95,12.81c9.44-10.35,21.66-15.53,36.65-15.53
			c19.35,0,33.92,5.27,43.73,15.8c4.27-4.81,10.22-8.65,17.85-11.51c7.63-2.86,15.26-4.29,22.89-4.29c16.26,0,28.9,4.66,37.94,13.96
			c9.04,9.31,13.56,22.09,13.56,38.35v96.31H659.42z"/>
		<path class="st0" d="M761.6,607.74v60.9h-34.06V465.51h34.06v9.81c8.54-8.35,19.03-12.53,31.47-12.53
			c46.5,0,69.75,25.61,69.75,76.83c0,23.89-6.43,42.28-19.28,55.17c-12.85,12.9-30.4,19.34-52.65,19.34
			C780.17,614.14,770.4,612,761.6,607.74z M761.6,501.2v76.7c6.17,5,13.39,7.49,21.66,7.49c15.71,0,27-3.75,33.85-11.24
			c6.86-7.49,10.29-19.32,10.29-35.49c0-17.25-3.41-29.4-10.22-36.44c-6.81-7.04-18.07-10.56-33.79-10.56
			C775.22,491.67,767.95,494.85,761.6,501.2z"/>
		<path class="st0" d="M973.98,596.84c-3.09,5.09-8.47,9.24-16.14,12.47c-7.68,3.22-15.69,4.84-24.04,4.84
			c-15.71,0-28.06-3.93-37.05-11.78c-8.99-7.85-13.49-19-13.49-33.44c0-16.89,6.33-30.11,19-39.64c12.67-9.54,30.67-14.3,54.02-14.3
			c4,0,8.72,0.68,14.17,2.04c0-17.17-10.85-25.75-32.56-25.75c-12.81,0-23.52,2.13-32.15,6.4l-7.36-26.43
			c11.72-5.63,25.66-8.45,41.82-8.45c22.25,0,38.55,5.06,48.91,15.19c10.35,10.13,15.53,29.31,15.53,57.56v31.2
			c0,19.44,3.9,31.65,11.72,36.65c-2.82,4.9-5.95,7.92-9.4,9.06c-3.45,1.13-7.4,1.7-11.85,1.7c-4.9,0-9.31-1.82-13.21-5.45
			C977.97,605.06,975.34,601.11,973.98,596.84z M970.71,542.75c-5.81-1.18-10.17-1.77-13.08-1.77c-26.88,0-40.32,8.81-40.32,26.43
			c0,13.08,7.58,19.62,22.75,19.62c20.43,0,30.65-10.22,30.65-30.65V542.75z"/>
		<path class="st0" d="M1125.74,497.25c-6.09-4-12.76-5.99-20.03-5.99c-7.9,0-14.92,3.59-21.05,10.76
			c-6.13,7.18-9.2,15.94-9.2,26.29v83.1h-34.06v-145.9h34.06v13.35c9.54-10.72,22.21-16.08,38.01-16.08
			c11.62,0,20.52,1.77,26.7,5.31L1125.74,497.25z"/>
		<path class="st0" d="M1233.09,596.84c-3.09,5.09-8.47,9.24-16.14,12.47c-7.68,3.22-15.69,4.84-24.04,4.84
			c-15.71,0-28.06-3.93-37.05-11.78c-8.99-7.85-13.49-19-13.49-33.44c0-16.89,6.33-30.11,19-39.64c12.67-9.54,30.67-14.3,54.02-14.3
			c4,0,8.72,0.68,14.17,2.04c0-17.17-10.85-25.75-32.56-25.75c-12.81,0-23.52,2.13-32.15,6.4l-7.36-26.43
			c11.72-5.63,25.66-8.45,41.82-8.45c22.25,0,38.55,5.06,48.91,15.19c10.35,10.13,15.53,29.31,15.53,57.56v31.2
			c0,19.44,3.9,31.65,11.72,36.65c-2.82,4.9-5.95,7.92-9.4,9.06c-3.45,1.13-7.4,1.7-11.85,1.7c-4.9,0-9.31-1.82-13.21-5.45
			C1237.09,605.06,1234.45,601.11,1233.09,596.84z M1229.82,542.75c-5.81-1.18-10.17-1.77-13.08-1.77
			c-26.88,0-40.32,8.81-40.32,26.43c0,13.08,7.58,19.62,22.75,19.62c20.43,0,30.65-10.22,30.65-30.65V542.75z"/>
	</g>
	<g>
		<path class="st1" d="M181.29,973.33l20.43-45.67c17.13,13.62,36.49,20.43,58.06,20.43c22.34,0,33.51-7.95,33.51-23.87
			c0-9.33-3.37-16.98-10.1-22.95c-6.73-5.97-19.82-13-39.25-21.11c-42.38-17.59-63.57-42.23-63.57-73.9
			c0-21.26,8.11-37.83,24.33-49.69c16.22-11.86,36.95-17.79,62.19-17.79c25.55,0,49.57,5.74,72.06,17.21l-16.52,44.52
			c-12.55-10.71-29.99-16.07-52.33-16.07c-20.05,0-30.06,7.96-30.06,23.87c0,6.28,3.29,11.93,9.87,16.98
			c6.58,5.05,20.66,11.82,42.23,20.31c21.57,8.49,37.1,18.78,46.59,30.87c9.48,12.09,14.23,26.7,14.23,43.83
			c0,22.8-8.46,40.74-25.36,53.82c-16.91,13.08-39.9,19.62-68.97,19.62c-16.37,0-29.49-1.34-39.36-4.02S196.74,981.6,181.29,973.33z
			"/>
		<path class="st1" d="M407.58,789.5h-28.46v-46.13h28.46v-50.03l57.38-21.11v71.15h67.47v46.13h-67.47v107.64
			c0,17.6,2.75,30.03,8.26,37.29c5.51,7.27,15.15,10.9,28.92,10.9s26.62-3.75,38.56-11.25v52.79c-13.31,4.59-32.28,6.88-56.92,6.88
			c-24.48,0-43.3-6.92-56.46-20.77c-13.16-13.85-19.74-33.54-19.74-59.1V789.5z"/>
		<path class="st1" d="M569.15,865.7c0-37.48,10.82-68.01,32.47-91.57c21.65-23.56,50.22-35.34,85.72-35.34
			c37.33,0,66.33,11.32,86.98,33.97c20.66,22.65,30.98,53.63,30.98,92.95c0,39.17-10.52,70.31-31.56,93.41
			c-21.04,23.1-49.84,34.65-86.41,34.65c-37.33,0-66.37-11.67-87.1-35C579.51,935.43,569.15,904.41,569.15,865.7z M628.82,865.7
			c0,54.16,19.51,81.24,58.52,81.24c17.9,0,32.09-7.04,42.57-21.11c10.48-14.07,15.72-34.12,15.72-60.13
			c0-53.4-19.43-80.1-58.29-80.1c-17.9,0-32.13,7.04-42.69,21.11C634.1,820.79,628.82,840.45,628.82,865.7z"/>
		<path class="st1" d="M993.27,796.85c-10.25-6.73-21.5-10.1-33.74-10.1c-13.31,0-25.13,6.05-35.46,18.13
			c-10.33,12.09-15.49,26.85-15.49,44.29v140h-57.38v-245.8h57.38v22.49c16.07-18.05,37.41-27.08,64.03-27.08
			c19.58,0,34.58,2.98,44.98,8.95L993.27,796.85z"/>
		<path class="st1" d="M1271.42,883.83h-175.57c1.07,19.59,7.8,34.81,20.2,45.67c12.39,10.87,29.07,16.29,50.03,16.29
			c26.16,0,46.05-6.81,59.67-20.43l22.26,43.83c-20.2,16.37-50.34,24.56-90.42,24.56c-37.49,0-67.13-10.98-88.93-32.93
			c-21.8-21.95-32.7-52.59-32.7-91.92c0-38.71,11.97-70.07,35.92-94.1c23.94-24.02,52.67-36.03,86.18-36.03
			c35.65,0,64.26,10.64,85.83,31.9c21.57,21.27,32.36,48.35,32.36,81.24C1276.25,858.97,1274.64,869.6,1271.42,883.83z
			 M1097.92,840.68h120.72c-3.98-35.95-23.87-53.93-59.67-53.93C1126.23,786.75,1105.88,804.73,1097.92,840.68z"/>
	</g>
</g>
</svg>
