<svg width="260" height="48" viewBox="0 0 260 48" fill="none" xmlns="http://www.w3.org/2000/svg">
<path fill-rule="evenodd" clip-rule="evenodd" d="M41.3596 23.6507V23.1902L37.452 19.8332H36.9967C35.9221 21.0182 34.2629 21.9062 32.4068 21.9062C29.5093 21.9062 27.2294 19.7012 27.2294 16.6742C27.2294 13.6472 29.5093 11.4422 32.4068 11.4422C34.2629 11.4422 35.9221 12.3302 36.9967 13.5152H37.452L41.3596 10.1582V9.6977C39.3081 7.1972 36.0859 5.5847 32.4384 5.5847C25.7325 5.5847 20.6542 10.3232 20.6542 16.6742C20.6542 16.9202 20.7098 17.1467 20.7264 17.3882C23.4707 19.2512 25.8933 20.7422 27.9793 22.1072C30.9866 24.0062 33.4138 25.7537 35.4126 27.3782C37.9044 26.7497 39.9243 25.3862 41.3596 23.6507V23.6507ZM23.0994 23.5322C24.6654 25.4522 26.8762 26.8292 29.4837 27.4172C27.7223 26.4287 26.0165 25.4582 24.428 24.3842C23.9621 24.0962 23.5473 23.8172 23.0994 23.5322" fill="white"/>
<path fill-rule="evenodd" clip-rule="evenodd" d="M63.978 26.3507L63.0012 22.1387L62.6435 21.9077C62.4481 22.0067 62.2858 22.1387 61.7973 22.1387C61.0474 22.1387 60.592 21.3482 60.2013 20.7242C59.5505 19.7357 59.029 19.2092 58.5736 18.9797C60.9497 17.9267 62.5458 15.9527 62.5458 13.1222C62.5458 8.7452 59.5505 5.9807 53.9838 5.9807H44.2812V27.3707H50.7271V19.8677H51.3132C52.7454 19.8677 54.5699 22.9607 55.4161 24.3437C57.1745 27.1412 58.5736 27.7652 61.0805 27.7652C62.2527 27.7652 63.2296 27.3377 63.8157 26.8112L63.978 26.3507ZM55.9691 13.4837C55.9691 14.8997 54.9276 15.5897 53.7223 15.5897H50.7271V11.2457H53.7223C54.9276 11.2457 55.9691 12.0362 55.9691 13.4837Z" fill="white"/>
<path fill-rule="evenodd" clip-rule="evenodd" d="M88.8809 16.6817C88.8809 10.3307 83.8027 5.59221 77.0637 5.59221C70.3233 5.59221 65.245 10.3307 65.245 16.6817C65.245 23.0327 70.3233 27.7712 77.0637 27.7712C83.8027 27.7712 88.8809 22.9997 88.8809 16.6817ZM82.3043 16.6817C82.3043 19.7417 79.9598 21.9137 77.0637 21.9137C74.1662 21.9137 71.8216 19.7417 71.8216 16.6817C71.8216 13.6217 74.1662 11.4497 77.0637 11.4497C79.9598 11.4497 82.3043 13.6217 82.3043 16.6817" fill="white"/>
<path fill-rule="evenodd" clip-rule="evenodd" d="M103.249 5.98671L99.2359 17.7602L95.4335 5.98671H89.2717L88.9861 6.48021L96.8613 27.3752H100.769L105.202 15.7202L109.651 27.3752H113.558L121.449 6.48021L121.148 5.98671H115.001L111.184 17.8352L107.156 5.98671H103.249Z" fill="white"/>
<path fill-rule="evenodd" clip-rule="evenodd" d="M145.044 16.6502C145.044 10.2662 140.779 5.9882 133.844 5.9882H123.979V27.3782H133.844C140.779 27.3782 145.044 23.1002 145.044 16.6502V16.6502ZM138.467 16.6832C138.467 20.1707 136.416 22.1132 133.584 22.1132H130.425V11.2532H133.584C136.416 11.2532 138.467 13.1957 138.467 16.6832" fill="white"/>
<path fill-rule="evenodd" clip-rule="evenodd" d="M166.37 11.2517H172.682V27.3752H179.145V11.2517H185.607V5.98671H166.37V11.2517Z" fill="white"/>
<path fill-rule="evenodd" clip-rule="evenodd" d="M206.197 13.1267C206.197 8.7497 203.201 5.9852 197.635 5.9852H187.932V27.3752H194.379V19.8722H195.909L199.913 27.3752H206.327L206.62 26.8817L202.322 18.9512C204.633 17.8652 206.197 15.9242 206.197 13.1267V13.1267ZM199.62 13.4882C199.62 14.9042 198.578 15.5942 197.373 15.5942H194.379V11.2502H197.373C198.578 11.2502 199.62 12.0407 199.62 13.4882Z" fill="white"/>
<path fill-rule="evenodd" clip-rule="evenodd" d="M210.104 27.3752H216.566V5.98671H210.104V27.3752Z" fill="white"/>
<path fill-rule="evenodd" clip-rule="evenodd" d="M227.087 13.5887V5.98671H220.624V27.3752H227.087V20.7902L228.289 19.4102L233.699 27.3752H240.462L240.763 26.8802L232.948 15.5552L240.162 6.48021L240.012 5.98671H233.098L227.087 13.5887Z" fill="white"/>
<path fill-rule="evenodd" clip-rule="evenodd" d="M249.029 22.1102V19.1552H256.393V14.2127H249.029V11.2517H258.647V5.9852H242.566V27.3752H258.798V22.1102H249.029Z" fill="white"/>
<path fill-rule="evenodd" clip-rule="evenodd" d="M156 27.6252C160.722 27.6252 164.82 25.3228 164.82 20.8828C164.82 16.0437 160.689 14.7927 157.043 13.7397C155.609 13.3122 154.142 12.8172 154.142 11.7642C154.142 11.0067 154.957 10.5462 156.195 10.5462C158.313 10.5462 160.103 11.8632 161.014 12.7197H161.469L164.496 9.10025V8.63975C162.901 6.83075 159.648 5.44925 156.065 5.44925C151.051 5.44925 147.57 8.14625 147.57 12.0612C147.57 16.2747 151.409 18.1182 154.664 19.0392C156.781 19.6317 158.217 19.7308 158.217 20.8828C158.217 21.7063 157.205 22.1997 155.641 22.1997C153.654 22.1997 151.246 20.9157 150.076 19.7637H149.62L146.626 23.5152V23.9757C148.546 26.1132 151.995 27.6252 156 27.6252" fill="white"/>
<path fill-rule="evenodd" clip-rule="evenodd" d="M44.8162 47.2902C43.2547 43.7232 40.1182 39.1468 27.8335 32.6113C22.1676 29.4673 12.489 24.6267 3.78729 15.4212C4.57631 18.7422 8.61908 26.0397 26 35.1462C30.8153 37.7757 38.9579 40.2418 44.8162 47.2783" fill="white"/>
<path fill-rule="evenodd" clip-rule="evenodd" d="M44.0347 41.1853C42.5528 36.9703 39.8777 31.5733 27.1873 23.5603C21.0089 19.5193 11.9329 14.4448 0 1.51025C0.853642 4.99775 4.62589 14.0668 23.6405 25.8403C29.8865 30.0643 37.948 32.6698 44.0347 41.1853Z" fill="white"/>
</svg>
