<svg width="300" height="76" viewBox="0 0 300 76" fill="none" xmlns="http://www.w3.org/2000/svg">
<g clip-path="url(#clip0_1302_656)">
<path fill-rule="evenodd" clip-rule="evenodd" d="M97.7651 54.104H83.7489V21.8997H97.7651C107.861 21.8997 112.917 26.9753 112.917 37.1229C112.913 48.4412 107.861 54.104 97.7651 54.104ZM89.7377 48.9199H96.8582C103.567 48.9199 106.917 44.9888 106.917 37.1191C106.917 30.4202 103.563 27.0688 96.8582 27.0688H89.7377V48.9199Z" fill="white"/>
<path fill-rule="evenodd" clip-rule="evenodd" d="M119.19 54.104H113.037L126.765 21.8997H133.207L147.227 54.104H140.784L136.715 45.3217H126.36L128.417 40.1413H135.133L129.841 28.0451L119.19 54.104Z" fill="white"/>
<path fill-rule="evenodd" clip-rule="evenodd" d="M143.843 21.8997H168.375V27.0763H159.107V54.104H153.118V27.0763H143.843V21.8997Z" fill="white"/>
<path fill-rule="evenodd" clip-rule="evenodd" d="M171.455 54.104H165.302L179.029 21.8997H185.472L199.492 54.104H193.042L188.972 45.3217H178.617L180.675 40.1413H187.39L182.102 28.0451L171.455 54.104Z" fill="white"/>
<path fill-rule="evenodd" clip-rule="evenodd" d="M217.484 54.104H203.468V21.8997H217.484C227.588 21.8997 232.636 26.9753 232.636 37.1229C232.636 48.4412 227.588 54.104 217.484 54.104ZM209.46 48.9199H216.581C223.285 48.9199 226.647 44.9888 226.647 37.1191C226.647 30.4202 223.289 27.0688 216.581 27.0688H209.46V48.9199Z" fill="white"/>
<path fill-rule="evenodd" clip-rule="evenodd" d="M236.695 38.0467C236.695 27.1249 242.11 21.6678 252.933 21.6678C263.592 21.6678 268.913 27.1249 268.913 38.0467C268.913 48.905 263.588 54.3359 252.933 54.3359C242.59 54.3359 237.178 48.905 236.695 38.0467ZM252.933 49.1443C259.439 49.1443 262.696 45.4003 262.696 37.9046C262.696 30.5287 259.439 26.8369 252.933 26.8369C246.255 26.8369 242.916 30.5287 242.916 37.9046C242.916 45.4003 246.255 49.1443 252.933 49.1443Z" fill="white"/>
<path fill-rule="evenodd" clip-rule="evenodd" d="M293.914 41.0727V48.6132C292.531 48.9723 291.294 49.1518 290.204 49.1518C282.877 49.1518 279.219 45.2843 279.219 37.553C279.219 30.4127 283.102 26.8482 290.863 26.8482C294.105 26.8482 297.118 27.4504 299.906 28.651V23.2425C297.118 22.1952 293.951 21.6678 290.41 21.6678C278.803 21.6678 272.998 26.9604 272.998 37.553C272.998 48.7366 278.702 54.3359 290.114 54.3359C294.037 54.3359 297.298 53.7674 299.906 52.6229V35.7726H290.23L288.206 41.0689L293.914 41.0727Z" fill="white"/>
<path fill-rule="evenodd" clip-rule="evenodd" d="M59.539 53.9208L53.2167 49.7615L47.9438 58.5513L41.8126 56.7634L36.4122 64.9884L36.6896 67.5768L66.045 62.1794L64.3398 43.8742L59.539 53.9208ZM32.1624 46.0324L36.8732 45.3853C37.634 45.7257 38.1661 45.8566 39.0806 46.0885C40.5047 46.4588 42.1499 46.8141 44.5896 45.5873C45.1555 45.3068 46.3398 44.2258 46.8157 43.6124L66.1124 40.1189L68.0799 63.8963L35.0219 69.8434L32.1624 46.0324ZM68.005 37.4633L66.1012 37.8261L62.4435 0.0935059L0.093689 7.30863L7.77639 69.5217L15.0731 68.4632C14.4922 67.6329 13.5815 66.6267 12.0337 65.34C9.88257 63.5596 10.6433 60.5299 11.9138 58.6186C13.589 55.3907 22.2348 51.2838 21.7439 46.1222C21.5678 44.2445 21.268 41.8021 19.5215 40.1264C19.4578 40.8221 19.574 41.4916 19.574 41.4916C19.574 41.4916 18.8582 40.579 18.4984 39.3334C18.1424 38.8547 17.8651 38.7051 17.4866 38.0655C17.2167 38.8023 17.2542 39.6588 17.2542 39.6588C17.2542 39.6588 16.6696 38.2749 16.5721 37.1079C16.2236 37.6316 16.1374 38.6228 16.1374 38.6228C16.1374 38.6228 15.3766 36.4421 15.549 35.2677C15.2005 34.2466 14.1699 32.2193 14.4622 27.6112C16.366 28.9428 20.5559 28.6248 22.1861 26.2235C22.7295 25.4268 23.1006 23.2574 21.9163 18.9822C21.1555 16.2406 19.2742 12.1561 18.5397 10.6039L18.4535 10.6675C18.8395 11.9167 19.6377 14.5312 19.945 15.8029C20.8707 19.6518 21.118 20.9908 20.6833 22.7637C20.3123 24.3047 19.4279 25.3146 17.1793 26.4442C14.9307 27.5775 11.9475 24.8209 11.7564 24.6713C9.57152 22.9358 7.88132 20.1006 7.69394 18.7241C7.49906 17.2168 8.5634 16.3116 9.10306 15.0811C8.33479 15.3017 7.47657 15.6907 7.47657 15.6907C7.47657 15.6907 8.49968 14.6322 9.76264 13.7196C10.2873 13.3755 10.5909 13.1548 11.1418 12.6985C10.3435 12.6872 9.69519 12.7059 9.69519 12.7059C9.69519 12.7059 11.0256 11.9878 12.4047 11.4679C11.3966 11.423 10.4297 11.4604 10.4297 11.4604C10.4297 11.4604 13.3979 10.1363 15.7402 9.16383C17.3517 8.50553 18.9257 8.70003 19.8101 9.97549C20.9719 11.6474 22.1899 12.5563 24.7758 13.1211C26.3648 12.4179 26.8445 12.0589 28.8382 11.5165C30.5921 9.59023 31.9713 9.33963 31.9713 9.33963C31.9713 9.33963 31.2892 9.96427 31.1056 10.948C32.1024 10.1662 33.193 9.51169 33.193 9.51169C33.193 9.51169 32.7695 10.0316 32.376 10.8582L32.466 10.9929C33.6277 10.2972 34.9919 9.75107 34.9919 9.75107C34.9919 9.75107 34.6021 10.2448 34.1449 10.8807C35.0219 10.8732 36.7982 10.9181 37.4841 10.9966C41.554 11.0864 42.3972 6.65781 43.96 6.10423C45.9163 5.40853 46.7895 4.98587 50.1212 8.25119C52.9806 11.0564 55.2142 16.0722 54.1049 17.1981C53.1755 18.1294 51.3392 16.8353 49.3079 14.3031C48.2324 12.964 47.4229 11.3819 47.0406 9.36955C46.7183 7.67144 45.4703 6.68773 45.4703 6.68773C45.4703 6.68773 46.1936 8.29982 46.1936 9.72115C46.1936 10.4991 46.2911 13.4016 47.539 15.0287C47.4154 15.2681 47.3591 16.2069 47.2205 16.3864C45.7701 14.636 42.6521 13.3829 42.1462 13.0126C43.8663 14.419 47.8201 17.6507 49.3379 20.7477C50.7733 23.6764 49.9263 26.3619 50.6533 27.0576C50.8595 27.2559 53.7414 30.8391 54.2961 32.642C55.263 35.7801 54.3523 39.0791 53.0893 41.1251L49.5553 41.6749C49.0381 41.5327 48.6896 41.4579 48.2249 41.1924C48.4797 40.7398 48.9894 39.614 48.9931 39.3821L48.7945 39.0342C47.6927 40.5902 45.8526 42.1013 44.3198 42.969C42.3148 44.1024 40.0062 43.9266 38.5034 43.4628C34.2348 42.1499 30.1986 39.2698 29.228 38.5143C29.228 38.5143 29.198 39.1165 29.3816 39.2549C30.4572 40.4668 32.9232 42.6586 35.3067 44.1847L30.2286 44.742L32.6309 63.4025C31.5665 63.5559 31.4016 63.6307 30.2361 63.7953C29.2092 60.1746 27.2455 57.807 25.0981 56.4305C23.2055 55.2149 20.5934 54.9419 18.0899 55.4356L17.9288 55.6226C19.6677 55.4431 21.7214 55.6937 23.8276 57.0252C25.8963 58.3306 27.564 61.7044 28.1786 63.7354C28.9656 66.3312 29.5091 69.1066 27.3916 72.0502C25.8851 74.1411 21.4928 75.2968 17.94 72.7983C18.8882 74.3206 20.1699 75.5661 21.8938 75.798C24.4572 76.1459 26.8894 75.7008 28.5609 73.9877C29.9888 72.5215 30.7495 69.4544 30.5472 66.2265L32.807 65.9011L33.624 71.6949L71.0556 67.1952L68.005 37.4633ZM45.2305 21.7239C45.1255 21.9633 44.9606 22.1166 45.208 22.8909L45.223 22.9358L45.2605 23.0368L45.3616 23.2687C45.8076 24.1738 46.2948 25.0304 47.1081 25.468C47.3179 25.4343 47.539 25.4081 47.7639 25.3969C48.5284 25.3633 49.0119 25.4829 49.3192 25.6513C49.3454 25.4979 49.3529 25.2772 49.3342 24.9481C49.2742 23.7998 49.5628 21.8473 47.3517 20.8187C46.5159 20.4335 45.3467 20.5494 44.9569 21.0357C45.0281 21.0432 45.0918 21.0581 45.1405 21.0768C45.7364 21.2788 45.3392 21.4808 45.2305 21.7239ZM51.4291 32.44C51.1405 32.2791 49.7839 32.3427 48.832 32.4549C47.0181 32.6681 45.0581 33.2965 44.6271 33.6294C43.8476 34.2316 44.1999 35.2826 44.777 35.7128C46.396 36.9172 47.8126 37.7288 49.3079 37.5306C50.2261 37.4109 51.0356 35.9596 51.609 34.6393C52.0062 33.7341 52.0062 32.7579 51.4291 32.44ZM35.3629 23.1452C35.8763 22.659 32.8145 22.0231 30.4385 23.639C28.6883 24.8321 28.6321 27.3905 30.3073 28.838C30.476 28.9802 30.6146 29.0849 30.742 29.1672C31.233 28.9353 31.7914 28.7034 32.4322 28.4977C33.519 28.1461 34.4185 27.9628 35.1605 27.8693C35.5165 27.4728 35.9288 26.7771 35.8239 25.5166C35.6852 23.7998 34.3848 24.0728 35.3629 23.1452Z" fill="white"/>
</g>
<defs>
<clipPath id="clip0_1302_656">
<rect width="300" height="76" fill="white"/>
</clipPath>
</defs>
</svg>
