<svg width="193" height="49" viewBox="0 0 193 49" fill="none" xmlns="http://www.w3.org/2000/svg">
<g clip-path="url(#clip0_1045_849)">
<path d="M149.466 22.3942L127.236 0.242815C127.122 0.128572 126.976 0.0504378 126.817 0.0186862C126.657 -0.0127541 126.492 0.00312169 126.343 0.0647572C126.193 0.126393 126.064 0.230675 125.974 0.364841C125.883 0.499007 125.835 0.657143 125.834 0.818702V19.4463L119.101 12.7411C118.986 12.6266 118.84 12.5487 118.68 12.517C118.521 12.4852 118.356 12.5014 118.206 12.5637C118.056 12.6256 117.927 12.7305 117.837 12.865C117.747 12.9998 117.699 13.1583 117.699 13.3201V32.5547C117.697 33.1571 117.816 33.7538 118.047 34.3107C118.277 34.8673 118.617 35.3729 119.045 35.7984L127.805 44.5145C128.668 45.3706 129.835 45.8515 131.053 45.8531H137.464C138.681 45.8524 139.848 45.3712 140.709 44.5145L149.469 35.7984C149.895 35.3738 150.233 34.8698 150.464 34.3148C150.694 33.7598 150.812 33.1649 150.812 32.5641V25.6316C150.812 25.0302 150.694 24.4347 150.463 23.8791C150.232 23.3234 149.893 22.8188 149.466 22.3942V22.3942Z" fill="white"/>
<path d="M142.686 30.5065C142.685 30.8694 142.54 31.2174 142.283 31.4746L135.225 38.5346C135.097 38.6632 134.945 38.765 134.778 38.8347C134.61 38.9041 134.43 38.9403 134.249 38.9403C134.068 38.9403 133.888 38.9041 133.72 38.8347C133.553 38.765 133.401 38.6632 133.273 38.5346L126.231 31.4652C125.975 31.2109 125.829 30.8666 125.825 30.5065V27.8107C125.825 27.6301 125.861 27.4515 125.931 27.2846C126 27.1181 126.102 26.9668 126.231 26.8395L128.767 24.3118C129.025 24.0547 129.376 23.9102 129.741 23.9102C130.106 23.9102 130.456 24.0547 130.715 24.3118L134.26 27.848L137.798 24.3118C138.057 24.0547 138.407 23.9102 138.773 23.9102C139.138 23.9102 139.488 24.0547 139.747 24.3118L142.28 26.8395C142.408 26.9668 142.51 27.1181 142.58 27.2846C142.649 27.4515 142.685 27.6301 142.686 27.8107V30.5065V30.5065Z" fill="white"/>
<path d="M183.06 17.5225C181.245 17.5232 179.484 18.1352 178.063 19.2595L176.929 20.1934C176.757 20.3263 176.546 20.3989 176.328 20.3989C176.11 20.3989 175.899 20.3263 175.727 20.1934L174.59 19.2595C173.169 18.1352 171.408 17.5232 169.593 17.5225H169.384C166.651 17.5225 164.253 19.0105 162.919 21.5693C162.893 21.6216 162.85 21.6636 162.796 21.6885C162.743 21.7134 162.683 21.7197 162.626 21.7063C162.568 21.6929 162.518 21.6608 162.481 21.6151C162.444 21.5693 162.424 21.5127 162.423 21.4541V18.5871C162.423 18.3583 162.332 18.1389 162.17 17.9773C162.007 17.8155 161.787 17.7249 161.558 17.7249H155.552C155.322 17.7258 155.101 17.8176 154.938 17.9801C154.776 18.1432 154.684 18.3636 154.684 18.5934V42.2203C154.684 42.4522 154.777 42.6748 154.941 42.8388C155.106 43.0029 155.329 43.095 155.562 43.095H161.545C161.778 43.095 162.001 43.0029 162.166 42.8388C162.33 42.6748 162.423 42.4522 162.423 42.2203V28.1251C162.423 27.7375 162.499 27.3534 162.647 26.9951C162.796 26.6371 163.014 26.3115 163.289 26.0376C163.564 25.7636 163.891 25.5457 164.25 25.3979C164.609 25.2497 164.995 25.1737 165.384 25.174H166.898C167.287 25.1737 167.673 25.2497 168.032 25.3979C168.392 25.546 168.719 25.7633 168.994 26.0373C169.269 26.3112 169.487 26.6368 169.636 26.9951C169.785 27.3531 169.862 27.7372 169.862 28.1251L169.881 42.2234C169.881 42.3383 169.903 42.4516 169.947 42.5577C169.991 42.6636 170.056 42.7598 170.138 42.8407C170.219 42.922 170.316 42.9861 170.423 43.0297C170.529 43.0732 170.643 43.0953 170.758 43.095H176.742C176.974 43.095 177.198 43.0029 177.362 42.8388C177.527 42.6748 177.619 42.4522 177.619 42.2203V28.1251C177.619 27.3425 177.931 26.592 178.487 26.0385C179.042 25.485 179.795 25.174 180.58 25.174H182.098C182.487 25.1737 182.872 25.2497 183.231 25.3979C183.59 25.546 183.917 25.7633 184.192 26.0376C184.467 26.3115 184.685 26.6371 184.834 26.9954C184.982 27.3534 185.059 27.7375 185.058 28.1251L185.08 42.2234C185.08 42.4547 185.172 42.6763 185.336 42.8398C185.5 43.0032 185.723 43.095 185.955 43.095H191.941C192.057 43.095 192.171 43.0723 192.277 43.0284C192.383 42.9845 192.479 42.9198 192.561 42.8385C192.642 42.7573 192.706 42.6608 192.75 42.5549C192.794 42.4488 192.816 42.3352 192.816 42.2203V27.3935C192.832 26.1048 192.592 24.826 192.11 23.6307C191.627 22.4353 190.911 21.3467 190.004 20.4287C189.097 19.5107 188.016 18.7814 186.824 18.2824C185.632 17.7837 184.352 17.5253 183.06 17.5225V17.5225ZM112.427 8.55426L106.868 3.01329C106.749 2.89344 106.597 2.81158 106.431 2.77827C106.265 2.74465 106.093 2.76146 105.937 2.82589C105.78 2.89033 105.647 2.99959 105.553 3.13999C105.459 3.28007 105.409 3.44536 105.41 3.61408V18.7054C105.41 18.7957 105.385 18.8847 105.338 18.9619C105.291 19.0398 105.224 19.1026 105.143 19.145C105.063 19.1873 104.973 19.2069 104.882 19.2019C104.792 19.1967 104.704 19.1674 104.629 19.1163C103.249 18.1825 101.612 17.6987 99.9446 17.7311H96.45C95.1537 17.7308 93.8701 17.9848 92.6725 18.4788C91.4748 18.9731 90.3865 19.6975 89.4699 20.6112C88.5533 21.5245 87.8259 22.609 87.3297 23.8028C86.8338 24.9963 86.5783 26.2757 86.5783 27.5679V33.2894C86.5783 34.5816 86.8338 35.8613 87.3297 37.0551C87.8259 38.2489 88.553 39.3334 89.4696 40.2473C90.3865 41.161 91.4745 41.8857 92.6722 42.3803C93.8698 42.8746 95.1537 43.1293 96.45 43.1293H98.3925C101.125 43.1293 103.524 41.6413 104.857 39.0825C104.884 39.0302 104.927 38.9882 104.98 38.9633C105.034 38.9387 105.093 38.9321 105.151 38.9455C105.208 38.9589 105.259 38.991 105.296 39.0367C105.333 39.0825 105.353 39.1392 105.354 39.1977V42.2608C105.354 42.3741 105.376 42.4861 105.42 42.5907C105.463 42.6953 105.527 42.7903 105.607 42.8706C105.687 42.9506 105.783 43.0141 105.888 43.0574C105.993 43.1006 106.105 43.123 106.219 43.123H112.224C112.454 43.1221 112.675 43.0309 112.837 42.8687C113 42.7065 113.091 42.4868 113.092 42.2577V10.1512C113.091 9.55226 112.852 8.97761 112.427 8.55426ZM94.2858 32.8349V28.0161C94.2867 27.2339 94.5987 26.4836 95.154 25.9305C95.7089 25.377 96.4616 25.066 97.2464 25.0651H102.221C103.006 25.0651 103.76 25.3761 104.315 25.9295C104.87 26.483 105.182 27.2335 105.182 28.0161V32.8349C105.182 33.2228 105.106 33.6069 104.957 33.9652C104.809 34.3235 104.591 34.6491 104.316 34.9237C104.041 35.1979 103.714 35.4155 103.355 35.564C102.995 35.7125 102.61 35.789 102.221 35.789H97.2464C96.4616 35.7881 95.7089 35.4771 95.154 34.9237C94.5987 34.3705 94.2867 33.6203 94.2858 32.838V32.8349V32.8349ZM50.7234 17.7435H44.721C44.4915 17.7435 44.2716 17.8344 44.1092 17.996C43.9472 18.1579 43.856 18.377 43.856 18.6058V21.6658C43.8553 21.7243 43.835 21.781 43.7982 21.8267C43.7617 21.8725 43.7104 21.9046 43.653 21.918C43.5958 21.9313 43.5359 21.9248 43.4825 21.9002C43.4294 21.8753 43.386 21.8333 43.3594 21.781C42.0259 19.2284 39.6118 17.7342 36.8949 17.7342H34.9492C32.3319 17.7342 29.8219 18.7708 27.9713 20.6152C26.1203 22.4602 25.0806 24.9621 25.0806 27.571V33.2925C25.0803 34.5847 25.3352 35.8641 25.8311 37.0579C26.3267 38.2517 27.0537 39.3365 27.97 40.2501C28.8863 41.1638 29.9743 41.8888 31.172 42.3834C32.3693 42.8778 33.6529 43.1324 34.9492 43.1324H36.8949C39.6243 43.1324 42.0259 41.6444 43.3594 39.0856C43.386 39.0333 43.4294 38.9913 43.4825 38.9664C43.5359 38.9418 43.5958 38.9353 43.653 38.9486C43.7104 38.962 43.7617 38.9941 43.7982 39.0399C43.835 39.0856 43.8553 39.1423 43.856 39.2008V42.2639C43.856 42.4927 43.9472 42.7118 44.1092 42.8737C44.2716 43.0353 44.4915 43.1262 44.721 43.1262H50.7234C50.9536 43.1262 51.1744 43.0349 51.3374 42.8728C51.5001 42.7103 51.5916 42.4902 51.5916 42.2608V18.6027C51.5913 18.4894 51.5685 18.3773 51.5244 18.2727C51.4807 18.1685 51.4167 18.0735 51.3361 17.9938C51.2556 17.9141 51.1597 17.8509 51.0547 17.808C50.9495 17.765 50.8371 17.7432 50.7234 17.7435V17.7435ZM43.6842 32.8505C43.6842 33.2383 43.6077 33.6225 43.4587 33.9811C43.3098 34.3394 43.0915 34.665 42.8163 34.9392C42.5409 35.2138 42.2142 35.4314 41.8548 35.5799C41.495 35.7283 41.1096 35.8046 40.7205 35.8046H35.7487C34.9627 35.8046 34.2088 35.4933 33.6532 34.9392C33.0973 34.3854 32.785 33.634 32.785 32.8505V28.0161C32.786 27.2332 33.0986 26.4827 33.6541 25.9292C34.21 25.3758 34.9633 25.0651 35.7487 25.0651H40.7205C41.5059 25.0651 42.2595 25.3761 42.8151 25.9292C43.3707 26.4827 43.6833 27.2332 43.6842 28.0161V32.8505V32.8505ZM72.3844 17.7435H71.8285C69.099 17.7435 66.6974 19.2284 65.3639 21.7903C65.3374 21.8426 65.294 21.8846 65.2409 21.9095C65.1875 21.9345 65.1275 21.9407 65.0704 21.9273C65.0129 21.9139 64.9617 21.8818 64.9251 21.8361C64.8883 21.7903 64.868 21.7337 64.8674 21.6751V18.5934C64.8639 18.3668 64.7715 18.1507 64.6097 17.9916C64.4476 17.8329 64.2297 17.7435 64.0023 17.7435H57.9999C57.8859 17.7432 57.7726 17.7653 57.6673 17.8086C57.5618 17.8522 57.4659 17.9157 57.385 17.996C57.3044 18.0766 57.2404 18.1722 57.197 18.2774C57.1536 18.3823 57.1314 18.4953 57.1317 18.6089V42.239C57.1317 42.4703 57.2239 42.6919 57.3878 42.8553C57.5518 43.0188 57.7741 43.1106 58.0062 43.1106H63.9929C64.1079 43.1106 64.2215 43.0882 64.3274 43.0443C64.4336 43.0004 64.5301 42.9363 64.6113 42.8553C64.6925 42.7744 64.7568 42.6782 64.8008 42.5727C64.8449 42.4668 64.8674 42.3535 64.8674 42.239L64.8892 28.3274C64.8892 27.5448 65.2012 26.7943 65.7565 26.2408C66.3114 25.6874 67.0647 25.3764 67.8498 25.3764H71.5349C72.3197 25.3773 73.0724 25.6883 73.6273 26.2418C74.1826 26.7949 74.4946 27.5451 74.4955 28.3274L74.5142 42.2234C74.5152 42.455 74.6079 42.6767 74.7725 42.8401C74.9368 43.0032 75.1594 43.095 75.3918 43.095H81.3754C81.4907 43.0953 81.6046 43.0732 81.7111 43.0297C81.8173 42.9861 81.9141 42.922 81.9956 42.8407C82.0772 42.7598 82.1421 42.6636 82.1861 42.5577C82.2302 42.4516 82.253 42.3383 82.253 42.2234V27.5679C82.2495 24.9611 81.2083 22.4624 79.358 20.6202C77.5076 18.7783 74.9995 17.7435 72.3844 17.7435ZM5.06859 12.5575C3.72415 12.5584 2.43467 13.0913 1.48435 14.0392C0.534029 14.9871 0 16.2727 0 17.6128V40.3837C0 41.1902 0.321354 41.9641 0.893171 42.5347L6.17413 47.7955C6.30217 47.9228 6.46488 48.0097 6.64257 48.0445C6.81965 48.0797 7.00359 48.0617 7.17036 47.9929C7.33775 47.9238 7.48047 47.807 7.58103 47.6573C7.68159 47.5076 7.7353 47.3314 7.73561 47.1511V35.4871C7.73561 35.2617 7.82556 35.0457 7.98545 34.8863C8.14535 34.7269 8.36208 34.6373 8.58819 34.6373H17.4887C17.7301 34.6373 17.9652 34.5607 18.1601 34.4184C18.355 34.2765 18.4993 34.076 18.5723 33.8466L20.2494 28.5547C20.295 28.4115 20.3062 28.2599 20.2819 28.1117C20.2578 27.9635 20.1988 27.8228 20.1101 27.7017C20.0211 27.5803 19.9049 27.4816 19.7706 27.4135C19.6363 27.3453 19.488 27.3098 19.3375 27.3095H8.58819C8.47607 27.3098 8.36489 27.2883 8.26152 27.2457C8.15784 27.203 8.06353 27.1405 7.98452 27.0614C7.90519 26.9826 7.84242 26.8886 7.79964 26.7853C7.75685 26.6819 7.7353 26.5714 7.73561 26.4597V20.6852C7.73561 20.5738 7.75748 20.4633 7.80057 20.3606C7.84336 20.2578 7.90644 20.1641 7.98545 20.0854C8.06478 20.0066 8.15878 19.9444 8.26215 19.902C8.36552 19.8597 8.47639 19.8382 8.58819 19.8385H22.2481C22.4886 19.8385 22.7231 19.7623 22.9173 19.6206C23.1116 19.479 23.2559 19.2795 23.3286 19.051L25.0182 13.8026C25.0638 13.6594 25.075 13.5078 25.0506 13.3596C25.0266 13.2115 24.9676 13.0708 24.8789 12.9497C24.7899 12.8283 24.6737 12.7296 24.5394 12.6614C24.4051 12.5933 24.2568 12.5578 24.1063 12.5575H5.06859V12.5575Z" fill="white"/>
</g>
<defs>
<clipPath id="clip0_1045_849">
<rect width="193" height="48.25" fill="white"/>
</clipPath>
</defs>
</svg>
