<svg width="169" height="56" viewBox="0 0 169 56" fill="none" xmlns="http://www.w3.org/2000/svg">
<path d="M0 0H36.5726V18.2863H18.2863L0 0ZM0 18.2863H18.2863L36.5726 36.5726H0V18.2863ZM0 36.5726H18.2863V54.8589L0 36.5726Z" fill="white"/>
<path d="M57.2082 14.4261H71.9915V19.1238H62.8036V25.652H71.9915V30.246H62.8036V38.6048H57.2082V14.4261ZM75.031 21.9558H80.316V25.4445C80.5921 24.2456 81.1568 23.3253 82.0085 22.6811C82.882 22.0127 83.8516 21.6797 84.9099 21.6797C85.463 21.6797 85.924 21.7265 86.2912 21.8177V26.7229C85.7642 26.6593 85.2337 26.625 84.7025 26.6192C83.2517 26.6192 82.1591 27.0902 81.4212 28.0348C80.6858 28.9559 80.316 30.3372 80.316 32.1803V38.6048H75.0335V21.9558H75.031ZM94.6341 39.0541C93.0228 39.0541 91.6172 38.6734 90.42 37.9137C89.2454 37.1541 88.3117 36.0756 87.7261 34.8048C87.1044 33.4704 86.7915 31.9602 86.7915 30.2803C86.7915 28.6221 87.1162 27.1245 87.7604 25.7901C88.3644 24.5008 89.3232 23.4107 90.5238 22.6468C91.7427 21.8872 93.1366 21.5065 94.7036 21.5065C95.8774 21.5065 96.9265 21.7608 97.8468 22.267C98.7671 22.7748 99.4582 23.4659 99.9192 24.3393V21.9558H105.169V38.6048H99.9192V36.2555C99.4582 37.0846 98.7445 37.7631 97.7774 38.2936C96.8102 38.8064 95.7293 39.0674 94.6341 39.0541ZM96.1543 34.6668C97.4201 34.6668 98.399 34.2526 99.0901 33.4235C99.7811 32.5944 100.127 31.5461 100.127 30.2803C100.127 29.037 99.7811 28.0005 99.0901 27.1714C98.399 26.3422 97.4201 25.9281 96.1543 25.9281C94.9554 25.9281 93.9899 26.3305 93.2529 27.1371C92.5392 27.9436 92.182 28.9902 92.182 30.2803C92.182 31.5704 92.5392 32.6287 93.2529 33.4578C93.9899 34.2643 94.9571 34.6668 96.1543 34.6668ZM108.865 21.9558H114.15V24.3736C114.52 23.5203 115.117 22.8292 115.946 22.3013C116.799 21.7734 117.789 21.5065 118.917 21.5065C121.542 21.5065 123.281 22.5305 124.132 24.5811C124.601 23.6516 125.334 22.8828 126.24 22.3707C127.208 21.7876 128.321 21.4889 129.451 21.5065C133.39 21.5065 135.358 23.7621 135.358 28.2765V38.6048H130.039V29.2437C130.039 28.1167 129.831 27.2876 129.417 26.7572C129.002 26.2285 128.381 25.9624 127.551 25.9624C126.654 25.9624 125.963 26.2736 125.479 26.8953C124.996 27.4943 124.754 28.5409 124.754 30.0385V38.6048H119.434V29.2094C119.434 28.0816 119.228 27.2634 118.813 26.7572C118.423 26.2285 117.811 25.9624 116.984 25.9624C116.062 25.9624 115.359 26.2736 114.876 26.8953C114.392 27.4943 114.15 28.5409 114.15 30.0385V38.6048H108.867V21.9558H108.865ZM155.211 29.4169C155.211 30.1297 155.165 30.9019 155.071 31.731H142.777C142.823 32.8136 143.191 33.641 143.882 34.2183C144.573 34.7931 145.507 35.0817 146.679 35.0817C148.315 35.0817 149.352 34.5856 149.788 33.5959H154.97C154.715 35.2315 153.818 36.5542 152.275 37.5682C150.756 38.5579 148.89 39.0541 146.679 39.0541C143.825 39.0541 141.579 38.2818 139.944 36.7391C138.332 35.1955 137.526 33.0437 137.526 30.2803C137.526 28.484 137.894 26.9296 138.631 25.6169C139.343 24.3059 140.441 23.245 141.774 22.5774C143.134 21.8646 144.711 21.5065 146.509 21.5065C148.211 21.5065 149.719 21.8403 151.032 22.5088C152.367 23.1773 153.393 24.1093 154.105 25.3065C154.843 26.5054 155.211 27.875 155.211 29.4169ZM149.993 28.4497C149.971 27.3445 149.66 26.5029 149.061 25.9281C148.463 25.3533 147.598 25.0647 146.47 25.0647C145.343 25.0647 144.445 25.3751 143.776 25.9976C143.132 26.5966 142.798 27.4131 142.774 28.4497H149.993ZM157.541 21.9558H162.826V25.4445C163.103 24.2456 163.667 23.3253 164.519 22.6811C165.346 22.0302 166.368 21.6772 167.42 21.6797C167.973 21.6797 168.434 21.7265 168.802 21.8177V26.7229C168.275 26.6593 167.744 26.625 167.213 26.6192C165.762 26.6192 164.67 27.0902 163.932 28.0348C163.194 28.9559 162.826 30.3372 162.826 32.1803V38.6048H157.541V21.9558Z" fill="white"/>
</svg>
