<svg width="209" height="42" viewBox="0 0 209 42" fill="none" xmlns="http://www.w3.org/2000/svg">
<g clip-path="url(#clip0_1045_633)">
<path d="M75.398 30.6075C77.6238 30.6075 79.8496 30.0825 81.9084 28.665V23.835H75.6763V19.53H87.2503V30.9225C84.5793 33.39 80.7399 35.385 75.398 35.385C65.7716 35.385 59.6507 28.98 59.6507 21C59.6507 13.02 65.7716 6.615 74.9529 6.615C79.4044 6.615 83.3552 8.19 86.0261 11.0775L82.131 14.7C80.406 12.6525 77.902 11.445 74.8972 11.445C69.2772 11.445 65.1038 15.855 65.1038 20.9475C65.1038 26.25 69.3328 30.6075 75.398 30.6075Z" fill="white"/>
<path d="M101.662 35.385C95.263 35.385 90.1994 30.6075 90.1994 24.7275C90.1994 18.8475 95.263 14.07 101.662 14.07C108.061 14.07 113.125 18.8475 113.125 24.7275C113.125 30.6075 108.061 35.385 101.662 35.385ZM101.662 30.765C105.335 30.765 108.006 27.93 108.006 24.7275C108.006 21.525 105.335 18.69 101.662 18.69C97.9896 18.69 95.3187 21.525 95.3187 24.7275C95.3187 27.93 97.9896 30.765 101.662 30.765Z" fill="white"/>
<path d="M126.368 35.385C119.969 35.385 114.905 30.6075 114.905 24.7275C114.905 18.8475 119.969 14.07 126.368 14.07C132.767 14.07 137.831 18.8475 137.831 24.7275C137.831 30.6075 132.767 35.385 126.368 35.385ZM126.368 30.765C130.041 30.765 132.712 27.93 132.712 24.7275C132.712 21.525 130.041 18.69 126.368 18.69C122.696 18.69 120.025 21.525 120.025 24.7275C120.025 27.93 122.751 30.765 126.368 30.765Z" fill="white"/>
<path d="M157.473 7.035H162.593V35.0175H157.473V32.9175C155.86 34.4925 153.523 35.4375 150.796 35.4375C144.564 35.4375 139.667 30.5025 139.667 24.78C139.667 19.0575 144.62 14.1225 150.796 14.1225C153.467 14.1225 155.86 15.0675 157.473 16.6425V7.035ZM151.13 18.69C147.457 18.69 144.787 21.525 144.787 24.7275C144.787 27.93 147.457 30.765 151.13 30.765C154.802 30.765 157.473 27.93 157.473 24.7275C157.473 21.525 154.802 18.69 151.13 18.69Z" fill="white"/>
<path d="M183.96 34.965L177.06 23.8875H171.218V34.965H167.601V7.035H176.838C183.96 7.035 187.132 10.7625 187.132 15.3825C187.132 19.2675 185.017 22.4175 180.9 23.4675L188.078 34.965H183.96ZM171.218 21.105H177.005C181.4 21.105 183.515 18.9525 183.515 15.645C183.515 12.3375 181.345 10.185 177.005 10.185H171.218V21.105Z" fill="white"/>
<path d="M196.758 24.36L189.191 14.5425H193.253L198.817 21.7875L204.381 14.5425H208.444L200.876 24.4125L209.056 34.965H204.938L198.761 27.0375L192.696 34.965H188.579L196.758 24.36Z" fill="white"/>
<path d="M36.9478 12.915H30.827V7.14C30.827 3.2025 27.4327 0 23.2593 0C19.086 0 15.6917 3.2025 15.6917 7.14V27.195H36.9478C41.1212 27.195 44.5155 23.9925 44.5155 20.055C44.5155 16.1175 41.1212 12.915 36.9478 12.915Z" fill="white"/>
<path d="M15.6917 29.0325V34.86C15.6917 38.7975 19.086 42 23.2593 42C27.4327 42 30.827 38.7975 30.827 34.86V29.0325H15.6917Z" fill="white"/>
<path d="M13.6885 12.915H7.56763C3.3943 12.915 0 16.1175 0 20.055C0 23.9925 3.3943 27.195 7.56763 27.195H13.6885V12.915Z" fill="white"/>
</g>
<defs>
<clipPath id="clip0_1045_633">
<rect width="209" height="42" fill="white"/>
</clipPath>
</defs>
</svg>
