<svg width="236" height="37" viewBox="0 0 236 37" fill="none" xmlns="http://www.w3.org/2000/svg">
<g clip-path="url(#clip0_1045_623)">
<path fill-rule="evenodd" clip-rule="evenodd" d="M121.444 35.4848C113.084 35.4848 108.041 30.6924 108.041 22.0872V0.563809H117.132V21.7489C117.132 25.6163 118.433 27.5985 121.491 27.5985C124.663 27.5985 126.168 25.6657 126.168 21.7489V0.563809H135.202V22.0872C135.202 30.5021 129.702 35.4865 121.444 35.4865V35.4848ZM146.64 23.8579V34.9227H137.617V0.563809H149.853C153.75 0.563809 156.706 0.806952 159.193 2.44905C162.463 4.57567 164.175 7.81052 164.175 12.1131C164.175 16.5619 161.997 20.2355 158.315 22.3075C155.98 23.6201 153.076 23.8579 149.236 23.8579H146.64ZM146.67 8.44833H149.102C153.172 8.44833 155.12 9.64466 155.12 12.5994C155.12 15.799 152.91 16.8984 148.369 16.8984H146.67V8.44833ZM214.266 15.7867V34.9227H205.219V0.563809H213.371L226.961 19.6558V0.563809H236.001V34.9209H228.048L214.266 15.7867ZM86.637 36.0486C81.1769 36.0486 76.4947 34.1845 72.8565 30.5638C69.3675 27.0928 67.6022 22.7938 67.6022 17.6578C67.6022 12.8619 69.5771 8.46243 73.2171 5.08309C76.861 1.71257 81.4356 0 86.6918 0C91.6327 0 96.3168 1.80948 99.9021 5.13948C103.652 8.61043 105.627 13.0592 105.627 17.8076C105.627 22.7938 103.748 27.2408 100.267 30.6166C98.5111 32.3414 96.3971 33.7129 94.0531 34.6471C91.7092 35.5812 89.1854 36.0582 86.637 36.0486ZM86.4709 8.44833C91.6629 8.44833 95.9713 12.4567 95.9713 17.4728C95.9713 23.0792 91.6648 27.0364 86.3671 27.0364C81.2808 27.0364 76.6571 22.8854 76.6571 17.4728C76.6571 12.4567 80.9693 8.44833 86.4709 8.44833ZM184.426 36.0486C178.962 36.0486 174.284 34.1845 170.644 30.5638C167.155 27.0928 165.382 22.7938 165.382 17.6578C165.382 12.8619 167.357 8.46243 171.004 5.08309C174.652 1.71257 179.223 0 184.477 0C189.424 0 194.094 1.80948 197.691 5.13948C201.431 8.61043 203.408 13.0592 203.408 17.8076C203.408 22.7938 201.539 27.2408 198.052 30.6166C196.297 32.3414 194.184 33.7131 191.841 34.6472C189.497 35.5814 186.974 36.0583 184.426 36.0486ZM184.241 8.44833C189.441 8.44833 193.749 12.4567 193.749 17.4728C193.749 23.0792 189.441 27.0364 184.147 27.0364C179.055 27.0364 174.435 22.8854 174.435 17.4728C174.435 12.4567 178.745 8.44833 184.241 8.44833ZM5.18282 30.5338C1.74668 27.0717 0.000274555 22.7814 0.000274555 17.6613C-0.0146449 15.332 0.468036 13.0232 1.42011 10.8698C2.37219 8.71654 3.77458 6.76188 5.54532 5.12009C9.13441 1.75838 13.6562 0 18.8368 0C26.6437 0 33.4669 4.5369 36.3952 11.9563H26.2246C23.9703 9.70809 21.6046 8.58576 18.733 8.58576C13.3975 8.58576 9.18916 12.7298 9.18916 17.7089C9.18916 23.2219 13.7034 27.4628 18.733 27.4628C22.1238 27.4628 25.1522 25.8066 26.9458 22.7814H16.5354V15.8571H37.3241C37.3713 16.6306 37.4242 17.4182 37.4242 18.1441C37.4242 22.0485 36.3971 25.3644 34.2901 28.2944C32.5739 30.6741 30.259 32.6251 27.548 33.9769C24.837 35.3286 21.8124 36.0399 18.7387 36.0486C13.3484 36.0486 8.78135 34.1422 5.18471 30.5338H5.18282ZM48.8374 23.8597V34.9245H39.8371V0.563809H52.0489C55.9249 0.563809 58.8683 0.806952 61.3586 2.44905C64.6173 4.57567 66.324 7.81052 66.324 12.0673C66.324 17.6226 63.2202 21.7824 57.998 23.1338L66.9981 34.9227H55.874L48.8374 23.8579V23.8597ZM48.8903 8.45009H51.3975C55.4076 8.45009 57.3409 9.64643 57.3409 12.6011C57.3409 15.8008 55.1471 16.9002 50.665 16.9002H48.8903V8.44833V8.45009Z" fill="white"/>
</g>
<defs>
<clipPath id="clip0_1045_623">
<rect width="236" height="37" fill="white"/>
</clipPath>
</defs>
</svg>
