<svg width="467" height="130" viewBox="0 0 467 130" fill="none" xmlns="http://www.w3.org/2000/svg">
<path d="M51.7387 43.9733C51.7387 48.228 48.2853 51.716 43.996 51.716C39.712 51.716 36.256 48.2307 36.256 43.9733C36.256 39.716 39.712 36.216 43.996 36.216C48.2853 36.216 51.7387 39.716 51.7387 43.9733ZM102.871 102.837C92.6547 113.023 79.0773 118.651 64.652 118.651C50.1733 118.651 36.5947 113.023 26.3587 102.837C16.1653 92.6293 10.5347 79.0547 10.5347 64.5693C10.5347 34.7573 34.816 10.4653 64.652 10.4653C65.2667 10.4653 66.5507 10.5093 67.2253 10.544V15.5773C66.5947 15.5467 65.2173 15.5467 64.652 15.5467C51.5307 15.5467 39.228 20.648 29.968 29.9C20.6787 39.1533 15.564 51.512 15.564 64.5693C15.564 77.708 20.6787 90.004 29.968 99.2307C39.228 108.497 51.5307 113.599 64.652 113.599C90.5747 113.599 111.864 93.4107 113.567 67.9187C113.587 67.7827 113.587 67.2547 113.587 67.1453H80.1027V62.1667H116.556H118.744V64.5693C118.744 79.0547 113.087 92.6293 102.871 102.837M80.0533 87.8253V92.9187H62.0347V36.252H67.2293V87.8253H80.0533ZM64.636 -2.47335e-06C28.912 -2.47335e-06 0 28.9133 0 64.6013C0 100.283 28.912 129.171 64.636 129.171C100.303 129.171 129.272 100.283 129.272 64.6013C129.272 28.9133 100.303 -2.47335e-06 64.636 -2.47335e-06" fill="white"/>
<path d="M445.319 22.7259V1.54594H429.685V22.7259H409.027V37.6686H429.685V58.6033H445.319V37.6686H466.116V22.7259H445.319Z" fill="white"/>
<path d="M376.623 22.554V70.4913C376.623 83.918 369.959 90.5207 358.681 90.5207C347.402 90.5207 340.738 83.918 340.738 70.4913V22.554H321.678V70.7807C321.678 97.2913 335.785 107.249 357.998 107.249H359.363C381.579 107.249 395.686 97.2913 395.686 70.7807V22.554H376.623Z" fill="white"/>
<path d="M181.866 106.028H217.259V89.7706H177.306V22.544H158.016V106.028H181.866Z" fill="white"/>
<path d="M259.688 74.2077H275.396V88.801C272.503 89.9077 266.855 91.0104 261.483 91.0104C244.123 91.0104 238.334 82.189 238.334 64.2837C238.334 47.2024 243.844 37.1424 261.202 37.1424C270.85 37.1424 276.36 40.1717 280.904 45.9584L292.896 34.9397C285.587 24.473 272.776 21.301 260.79 21.301C233.787 21.301 219.6 36.0384 219.6 64.1424C219.6 92.1117 232.407 107.268 260.652 107.268C273.603 107.268 286.279 103.96 293.167 99.137V58.637H259.688V74.2077Z" fill="white"/>
</svg>
