<svg width="250" height="46" viewBox="0 0 250 46" fill="none" xmlns="http://www.w3.org/2000/svg">
<g clip-path="url(#clip0_1183_2141)">
<path fill-rule="evenodd" clip-rule="evenodd" d="M4.29112 40.1946C-1.43045 34.5232 -1.43036 25.3282 4.2913 19.6569L19.8316 4.25351C24.6684 -0.540725 32.0457 -1.28219 37.6683 2.02913C39.4074 3.05335 39.3922 5.40289 37.9617 6.82072C36.5313 8.23857 34.1964 8.11654 32.2548 7.55367C29.7685 6.83289 26.9726 7.44432 25.0117 9.38796L9.47134 24.7914C6.61051 27.6271 6.61047 32.2245 9.47127 35.0602C12.3321 37.896 16.9705 37.896 19.8314 35.0603L50.9117 4.25371C56.6334 -1.4176 65.91 -1.41762 71.6317 4.25364L87.1723 19.6569C92.8941 25.3282 92.8941 34.5233 87.1723 40.1946C81.4505 45.8659 72.1738 45.8659 66.4521 40.1946L61.272 35.0601L54.7969 41.4782C49.9601 46.2724 42.5828 47.0139 36.9602 43.7026C35.221 42.6784 35.2363 40.3288 36.6667 38.911C38.0972 37.4931 40.4321 37.6152 42.3737 38.1781C44.86 38.8989 47.6559 38.2874 49.6168 36.3438L56.2769 29.7423C59.0356 27.0079 63.5083 27.0079 66.267 29.7423L71.6322 35.0602C74.493 37.8958 79.1311 37.8958 81.9924 35.0602C84.8529 32.2245 84.8529 27.6271 81.9924 24.7914L66.4518 9.38811C63.5909 6.55249 58.9526 6.5525 56.0917 9.38811L25.0115 40.1947C19.2897 45.8662 10.0128 45.8661 4.29112 40.1946Z" fill="white"/>
<path d="M149.983 8.23155C146.383 8.23155 143.655 9.52035 141.855 12.0979C140.274 9.52035 137.764 8.23155 134.437 8.23155C131 8.23155 128.491 9.41295 126.854 11.8295V8.98338H119.817V35.8334H126.854V20.7437C126.854 16.8235 128.873 14.6755 131.982 14.6755C134.873 14.6755 136.564 16.5551 136.564 19.7771V35.8334H143.601V20.7437C143.601 16.8235 145.456 14.6755 148.674 14.6755C151.565 14.6755 153.256 16.5551 153.256 19.7771V35.8334H160.293V19.2937C160.293 12.5812 156.256 8.23155 149.983 8.23155Z" fill="white"/>
<path d="M186.453 12.1517C184.325 9.52035 181.38 8.23155 177.561 8.23155C173.906 8.23155 170.797 9.62774 168.179 12.3665C165.615 15.1052 164.306 18.4346 164.306 22.4084C164.306 26.3822 165.615 29.7653 168.179 32.504C170.797 35.2427 173.906 36.5852 177.561 36.5852C181.38 36.5852 184.325 35.2964 186.453 32.6651V35.8334H193.489V8.98338H186.453V12.1517ZM173.47 27.8858C172.052 26.4359 171.343 24.6101 171.343 22.4084C171.343 20.2067 172.052 18.3809 173.47 16.9847C174.888 15.5348 176.688 14.8367 178.87 14.8367C181.053 14.8367 182.853 15.5348 184.271 16.9847C185.744 18.3809 186.453 20.2067 186.453 22.4084C186.453 24.6101 185.744 26.4359 184.271 27.8858C182.853 29.282 181.053 29.9801 178.87 29.9801C176.688 29.9801 174.888 29.282 173.47 27.8858Z" fill="white"/>
<path d="M219.454 13.6016V8.98338H198.998V15.4811H209.963L198.453 31.2152V35.8334H219.999V29.3357H207.89L219.454 13.6016Z" fill="white"/>
<path d="M249.422 25.2545C249.586 24.2342 249.695 23.3213 249.695 22.4084C249.695 18.3809 248.386 15.0514 245.768 12.3127C243.204 9.57408 239.877 8.23155 235.894 8.23155C231.694 8.23155 228.203 9.57408 225.53 12.3127C222.857 14.9978 221.493 18.3809 221.493 22.4084C221.493 26.4896 222.857 29.8727 225.585 32.5577C228.312 35.2427 231.912 36.5852 236.44 36.5852C241.677 36.5852 245.659 34.652 248.332 30.8393L242.659 27.6173C241.295 29.3894 239.222 30.3023 236.549 30.3023C232.348 30.3023 229.785 28.6376 228.857 25.2545H249.422ZM228.749 19.8844C229.566 16.4477 232.13 14.4607 235.894 14.4607C239.113 14.4607 241.84 16.2328 242.659 19.8844H228.749Z" fill="white"/>
</g>
<defs>
<clipPath id="clip0_1183_2141">
<rect width="250" height="45.7317" fill="white"/>
</clipPath>
</defs>
</svg>
