<svg id="Layer_1" data-name="Layer 1" xmlns="http://www.w3.org/2000/svg" xmlns:xlink="http://www.w3.org/1999/xlink" viewBox="0 0 169.76 34.69"><defs><style>.cls-1{fill:none;}.cls-2{fill:#fff;}.cls-3{clip-path:url(#clip-path);}</style><clipPath id="clip-path" transform="translate(-1.24 -2.79)"><rect class="cls-1" width="171" height="40"/></clipPath><symbol id="svg-logo" data-name="svg-logo" viewBox="0 0 169.76 34.69"><path class="cls-2" d="M43.9,25.51h4.35v-2a7.57,7.57,0,0,0,2.48,1.8,7.71,7.71,0,0,0,3,.59,5.76,5.76,0,0,0,2.94-.79,5.45,5.45,0,0,0,2.09-2.28,7.26,7.26,0,0,0,2.52,2.28,7.1,7.1,0,0,0,3.26.79,6.21,6.21,0,0,0,3.24-.85,5.08,5.08,0,0,0,2-2.19,12,12,0,0,0,.62-4.41v-10H66v8.63A7.33,7.33,0,0,1,65.3,21a2.51,2.51,0,0,1-2.19,1,3.35,3.35,0,0,1-2-.62,3.87,3.87,0,0,1-1.31-1.73,10.55,10.55,0,0,1-.43-3.53V8.49H55v8.27a11.4,11.4,0,0,1-.33,3.3,3,3,0,0,1-1,1.53,2.71,2.71,0,0,1-1.67.49,3.43,3.43,0,0,1-2-.62,3.61,3.61,0,0,1-1.3-1.76,10.61,10.61,0,0,1-.43-3.6V8.49H44Z"/><path class="cls-2" d="M76.17,32.53a2.73,2.73,0,0,0,2-.81,2.75,2.75,0,0,0,0-3.92A2.66,2.66,0,0,0,76.21,27a2.7,2.7,0,0,0-2,.82,2.78,2.78,0,0,0-.82,2,2.71,2.71,0,0,0,.82,1.93A2.6,2.6,0,0,0,76.17,32.53Zm-2.15-7h4.34v-17H74Z"/><path class="cls-2" d="M80.71,25.51h5l3.4-4.64,3.4,4.64h4.93l-5.85-8,6.64-9h-5l-4.12,5.59L85,8.49H80.09l6.57,9Z"/><path class="cls-2" d="M117.36,22.08l-3.59-2a6.46,6.46,0,0,1-2,1.47,5.51,5.51,0,0,1-2.32.39,5.43,5.43,0,0,1-3.92-1.43A4.79,4.79,0,0,1,104,16.89a4.69,4.69,0,0,1,1.44-3.53A5.31,5.31,0,0,1,109.23,12a5.58,5.58,0,0,1,4.54,2l3.43-2.32a9.34,9.34,0,0,0-7.84-3.56,9.45,9.45,0,0,0-7.12,2.64,8.8,8.8,0,0,0,2.19,14.05,10.72,10.72,0,0,0,5,1.18,10,10,0,0,0,4.61-1A9.06,9.06,0,0,0,117.36,22.08Z"/><path class="cls-2" d="M129.35,25.94A9.58,9.58,0,0,0,134,24.73a9,9,0,0,0,3.36-3.27A8.84,8.84,0,0,0,138.53,17a9.07,9.07,0,0,0-1.21-4.51A8.57,8.57,0,0,0,134,9.24a9.16,9.16,0,0,0-4.6-1.17,8.71,8.71,0,0,0-6.34,2.61A8.55,8.55,0,0,0,120.47,17a8.49,8.49,0,0,0,3,6.63A8.49,8.49,0,0,0,129.35,25.94Zm.07-4a4.59,4.59,0,0,1-3.37-1.37A4.9,4.9,0,0,1,124.71,17a5,5,0,0,1,1.34-3.59,4.47,4.47,0,0,1,3.37-1.38,4.55,4.55,0,0,1,3.39,1.38A4.82,4.82,0,0,1,134.15,17a4.88,4.88,0,0,1-1.34,3.56,4.57,4.57,0,0,1-3.39,1.34Z"/><path class="cls-2" d="M141.05,25.51h3.72V23.36a4.71,4.71,0,0,0,1.6,1.92,4,4,0,0,0,2.19.66,4.12,4.12,0,0,0,1.76-.43L149,21.85a2.7,2.7,0,0,1-1.24.36A2,2,0,0,1,146,21a11.18,11.18,0,0,1-.68-4.77V8.49h-4.31Z"/><path class="cls-2" d="M169.73,15.78H155.81a4.64,4.64,0,0,1,1.6-2.88,5,5,0,0,1,3.33-1.08,5.85,5.85,0,0,1,4.18,1.67l3.66-1.7A8.37,8.37,0,0,0,165.32,9a10.23,10.23,0,0,0-4.51-.91,9.17,9.17,0,0,0-6.63,2.51,8.57,8.57,0,0,0-2.55,6.34,8.87,8.87,0,0,0,2.55,6.47,8.57,8.57,0,0,0,6.4,2.58,8.89,8.89,0,0,0,6.63-2.58,9.27,9.27,0,0,0,2.55-6.8Zm-4.32,3.36a4.31,4.31,0,0,1-1.69,2.32,4.89,4.89,0,0,1-2.94.88,5,5,0,0,1-3.17-1,5.42,5.42,0,0,1-1.6-2.19Z"/><path class="cls-2" d="M0,0V34.69H35.18V0ZM2,2H33.15V32.76H2Z"/><path class="cls-2" d="M11.63,28.84V5.94H5.91v22.9Z"/><path class="cls-2" d="M14.7,28.88h5.68V5.94H14.7Z"/><path class="cls-2" d="M29.17,5.91H23.49V28.84h5.68Z"/></symbol></defs><g class="cls-3"><use width="169.76" height="34.69" transform="matrix(1, 0, 0, -1, 0, 34.69)" xlink:href="#svg-logo"/></g></svg>