<svg width="186" height="51" viewBox="0 0 186 51" fill="none" xmlns="http://www.w3.org/2000/svg">
<g clip-path="url(#clip0_1045_764)">
<path d="M25.5755 47.0713C22.7776 47.5631 19.9303 47.7106 16.985 48.1033L8.00145 21.767V49.2336C5.20346 49.5283 2.65086 49.9214 0 50.3145V0H7.4618L17.6722 28.548V0H25.5755V47.0713ZM41.0388 18.4257C44.0825 18.4257 48.746 18.2783 51.544 18.2783V26.1397C48.0585 26.1397 43.9843 26.1397 41.0388 26.2872V37.9816C45.6534 37.6868 50.2678 37.2934 54.931 37.146V44.7123L33.1843 46.4324V0H54.931V7.86164H41.0388V18.4257V18.4257ZM84.1392 7.86183H75.9904V44.0253C73.3396 44.0253 70.6887 44.0253 68.1365 44.1233V7.86183H59.9877V0H84.1396L84.1392 7.86183V7.86183ZM96.9024 17.8854H107.653V25.7468H96.9024V43.5831H89.1948V0H111.138V7.86164H96.9024V17.8854V17.8854ZM123.902 36.704C128.369 36.802 132.885 37.1465 137.254 37.3918V45.1552C130.234 44.7127 123.214 44.2711 116.047 44.1233V0H123.902V36.704ZM143.881 45.6958C146.385 45.8434 149.035 45.9908 151.588 46.2852V0H143.881V45.6958V45.6958ZM186 0L176.035 23.9289L186 50.3145C183.054 49.9214 180.109 49.3809 177.164 48.8894L171.519 34.3457L165.776 47.7106C162.928 47.2188 160.179 47.0713 157.332 46.6783L167.444 23.6338L158.314 0H166.757L171.911 13.2174L177.409 0H186V0Z" fill="white"/>
</g>
<defs>
<clipPath id="clip0_1045_764">
<rect width="186" height="50.3145" fill="white"/>
</clipPath>
</defs>
</svg>
