<svg width="182" height="51" viewBox="0 0 182 51" fill="none" xmlns="http://www.w3.org/2000/svg">
<path fill-rule="evenodd" clip-rule="evenodd" d="M25.1707 0.524277C11.4337 0.524277 0.297729 11.7149 0.297729 25.5196C0.297729 39.3239 11.4337 50.5147 25.1707 50.5147C38.9077 50.5147 50.0436 39.3239 50.0436 25.5196C50.0436 11.7149 38.9077 0.524277 25.1707 0.524277Z" fill="#999999"/>
<path fill-rule="evenodd" clip-rule="evenodd" d="M43.4817 36.5949L41.8323 36.7411L36.8856 37.1437C36.3255 37.1543 35.8131 36.941 35.4324 36.586L33.639 34.8496L31.8609 33.1748C31.6572 33.0009 31.386 32.905 31.0938 32.9317C30.5824 32.9786 30.1889 33.3837 30.1556 33.8987C30.1392 34.1506 30.2115 34.384 30.3438 34.5715L30.3635 34.6057L33.4846 38.3444L34.6026 39.5706C35.2612 40.2084 35.2808 41.2618 34.6463 41.9234C34.0118 42.5855 32.9635 42.6051 32.3049 41.9674L31.0358 40.8987L26.301 36.8434L26.0738 36.6492C25.8889 36.4802 25.6417 36.3791 25.3721 36.3841C25.1024 36.3892 24.8593 36.4997 24.6808 36.6754L24.4609 36.878L19.8798 41.1075L18.651 42.2229C18.0166 42.8849 16.9682 42.9046 16.3098 42.2669C15.6512 41.6291 15.6316 40.5758 16.266 39.9141L17.3378 38.6465L20.3183 34.7938L20.3365 34.7589C20.4618 34.5666 20.5256 34.3305 20.4999 34.0795C20.4473 33.5662 20.0392 33.176 19.5264 33.1483C19.2334 33.1327 18.9659 33.2385 18.7688 33.4198L17.054 35.16L15.3263 36.9625C14.9592 37.3317 14.4547 37.5638 13.8946 37.5744L8.93658 37.3572L7.2828 37.2729C6.36856 37.29 5.6135 36.5589 5.59648 35.6401C5.57946 34.7212 6.30682 33.9626 7.22123 33.9453L8.87084 33.8107L12.5615 33.3485C13.5252 33.1512 14.242 32.2859 14.223 31.2624L14.0099 19.7679C13.8961 13.635 18.7513 8.57071 24.8543 8.45652C30.9572 8.34232 35.9968 13.2211 36.1104 19.3542L36.3237 30.8485C36.3425 31.8721 37.0909 32.71 38.0612 32.871L41.7666 33.1949L43.42 33.2675C44.3344 33.2504 45.0895 33.9814 45.1065 34.9003C45.1235 35.819 44.3962 36.5778 43.4817 36.5949Z" fill="white"/>
<path fill-rule="evenodd" clip-rule="evenodd" d="M32.6863 18.8419C31.3733 17.9336 30.0352 17.0576 28.6684 16.2336C27.9519 15.8016 27.1176 16.3852 27.1288 17.2263C27.1346 17.6753 27.365 17.9679 27.7256 18.1987C28.4396 18.6558 29.1455 19.1256 29.9236 19.6354C29.0876 20.1381 28.32 20.5756 27.5786 21.0538C27.0415 21.4003 26.9217 22.0135 27.2334 22.536C27.5249 23.0248 28.1359 23.2337 28.6536 22.9373C29.9915 22.1706 31.322 21.3887 32.6259 20.5652C33.263 20.1628 33.3002 19.2668 32.6863 18.8419Z" fill="#999999"/>
<path fill-rule="evenodd" clip-rule="evenodd" d="M22.3201 20.9299C21.6383 20.5149 20.9509 20.1091 20.1593 19.6357C20.933 19.1314 21.6166 18.6903 22.2954 18.2421C22.9951 17.78 23.1758 17.159 22.7867 16.583C22.4137 16.0315 21.7918 15.9599 21.1089 16.4014C19.9639 17.1418 18.8202 17.8844 17.6803 18.633C16.7252 19.2603 16.7429 20.1512 17.7244 20.7416C18.8767 21.4348 20.0344 22.1192 21.1928 22.8025C21.8771 23.2061 22.5165 23.1001 22.8556 22.5382C23.1988 21.9693 22.9934 21.3394 22.3201 20.9299Z" fill="#999999"/>
<path fill-rule="evenodd" clip-rule="evenodd" d="M66.182 16.5654C65.2532 16.5654 64.3942 16.6004 63.6053 16.6704V24.5081H65.5207C66.5881 24.5081 67.5274 24.4501 68.3409 24.3332C69.1532 24.2169 69.8316 24.0069 70.3776 23.7034C70.9226 23.4006 71.3347 22.9921 71.6134 22.4788C71.8919 21.9658 72.0312 21.3125 72.0312 20.5191C72.0312 19.7732 71.8919 19.1432 71.6134 18.6299C71.3347 18.117 70.9348 17.7085 70.4122 17.4051C69.8902 17.1023 69.269 16.8862 68.5493 16.7575C67.8294 16.6298 67.0405 16.5654 66.182 16.5654ZM65.8683 12.7516C69.3504 12.7516 72.014 13.3931 73.8597 14.6757C75.7049 15.959 76.6275 17.9184 76.6275 20.5541C76.6275 23.8432 75.0141 26.0713 71.7878 27.2374C72.2285 27.7741 72.7275 28.4269 73.2847 29.1968C73.8419 29.9666 74.4102 30.8008 74.9907 31.6985C75.5712 32.5967 76.1284 33.5182 76.662 34.4627C77.1958 35.4076 77.672 36.3348 78.0899 37.2445H73.1806C72.7392 36.4047 72.263 35.5596 71.7527 34.7077C71.2423 33.8566 70.7254 33.0282 70.2032 32.2235C69.6813 31.4186 69.1643 30.6608 68.6539 29.9492C68.1431 29.2378 67.6668 28.6018 67.2266 28.0419C66.9012 28.0656 66.6227 28.077 66.3909 28.077H65.7291H63.6053V37.2445H59.2185V13.3462C60.2854 13.1132 61.4231 12.956 62.6303 12.8738C63.8371 12.7925 64.9168 12.7516 65.8683 12.7516Z" fill="white"/>
<path fill-rule="evenodd" clip-rule="evenodd" d="M121.121 13.5911C121.121 14.3844 120.866 15.0142 120.356 15.4807C119.844 15.9476 119.241 16.1803 118.545 16.1803C117.825 16.1803 117.21 15.9476 116.7 15.4807C116.188 15.0142 115.933 14.3844 115.933 13.5911C115.933 12.7751 116.188 12.1338 116.7 11.6667C117.21 11.2004 117.825 10.967 118.545 10.967C119.241 10.967 119.844 11.2004 120.356 11.6667C120.866 12.1338 121.121 12.7751 121.121 13.5911Z" fill="white"/>
<path fill-rule="evenodd" clip-rule="evenodd" d="M86.6184 34.2702C87.9187 34.2702 88.9047 34.2003 89.5779 34.0603V29.3717C89.3461 29.3017 89.009 29.2318 88.5683 29.1617C88.127 29.0918 87.6401 29.0567 87.1065 29.0567C86.6417 29.0567 86.1715 29.0918 85.6958 29.1617C85.2201 29.2318 84.7904 29.3603 84.4078 29.5467C84.0245 29.7337 83.717 29.9963 83.4852 30.3342C83.2523 30.6724 83.1365 31.0983 83.1365 31.6113C83.1365 32.6145 83.45 33.3082 84.0767 33.6931C84.7035 34.0781 85.551 34.2702 86.6184 34.2702ZM86.2708 18.4899C87.6634 18.4899 88.8347 18.665 89.7873 19.0148C90.7389 19.3647 91.4988 19.8545 92.0676 20.4842C92.6365 21.114 93.0426 21.8787 93.2859 22.7763C93.53 23.6744 93.652 24.66 93.652 25.7329V36.8246C93.0019 36.9646 92.0207 37.134 90.7099 37.332C89.3983 37.5297 87.9187 37.6295 86.2708 37.6295C85.1789 37.6295 84.1815 37.5245 83.2756 37.3146C82.3709 37.1046 81.5986 36.7667 80.9602 36.2999C80.3218 35.8334 79.8226 35.2271 79.4633 34.4802C79.1029 33.734 78.9235 32.8131 78.9235 31.7162C78.9235 30.6665 79.1262 29.7801 79.5329 29.0567C79.9385 28.334 80.4907 27.7448 81.1865 27.2898C81.8828 26.8349 82.6896 26.5086 83.6065 26.3101C84.5236 26.1122 85.4807 26.0129 86.4791 26.0129C86.9438 26.0129 87.4307 26.0423 87.9414 26.1001C88.4519 26.1586 88.9973 26.2577 89.5779 26.3978V25.6978C89.5779 25.208 89.5198 24.7417 89.404 24.2982C89.2875 23.8555 89.0848 23.4644 88.7944 23.1262C88.5043 22.7882 88.1215 22.5257 87.6458 22.3388C87.1699 22.1521 86.5715 22.0587 85.8528 22.0587C84.878 22.0587 83.9838 22.1288 83.1715 22.2689C82.3585 22.4087 81.6968 22.5722 81.1865 22.7587L80.665 19.3297C81.1982 19.1432 81.9753 18.9569 82.9971 18.7698C84.0188 18.5833 85.1096 18.4899 86.2708 18.4899Z" fill="white"/>
<path fill-rule="evenodd" clip-rule="evenodd" d="M109.553 28.182C109.553 26.2927 109.129 24.8231 108.282 23.7734C107.435 22.7235 106.071 22.1987 104.191 22.1987C103.796 22.1987 103.384 22.2164 102.954 22.2515C102.525 22.2864 102.102 22.3622 101.684 22.4787V32.9409C102.055 33.1978 102.548 33.4366 103.164 33.6581C103.778 33.8799 104.435 33.9904 105.13 33.9904C106.662 33.9904 107.782 33.4658 108.491 32.416C109.198 31.3662 109.553 29.9551 109.553 28.182ZM113.871 28.1121C113.871 29.5117 113.69 30.7949 113.331 31.9611C112.97 33.1279 112.454 34.1305 111.781 34.9701C111.108 35.8098 110.267 36.4633 109.257 36.9296C108.247 37.396 107.104 37.6295 105.827 37.6295C104.968 37.6295 104.179 37.5246 103.46 37.3146C102.74 37.1047 102.148 36.8716 101.684 36.6147V43.7177H97.4711V19.5397C98.3291 19.3068 99.3854 19.0847 100.639 18.8748C101.892 18.6649 103.216 18.5599 104.609 18.5599C106.047 18.5599 107.336 18.7817 108.473 19.2248C109.611 19.6683 110.58 20.304 111.381 21.1317C112.181 21.96 112.796 22.9633 113.227 24.1406C113.656 25.3189 113.871 26.6426 113.871 28.1121Z" fill="white"/>
<path fill-rule="evenodd" clip-rule="evenodd" d="M116.421 37.2445H120.634V18.9447H116.421V37.2445Z" fill="white"/>
<path fill-rule="evenodd" clip-rule="evenodd" d="M156.878 30.1056C156.333 28.6159 155.792 27.1738 155.256 25.7782C154.719 24.3829 154.161 23.0431 153.582 21.7591C152.985 23.0431 152.419 24.3829 151.882 25.7782C151.346 27.1738 150.813 28.6159 150.285 30.1056H156.878ZM159.204 36.7055C158.914 35.935 158.642 35.1776 158.386 34.4327C158.13 33.6879 157.866 32.9304 157.593 32.1599H149.57L147.959 36.7055H145.378C146.059 34.8224 146.699 33.0805 147.295 31.4793C147.891 29.8786 148.474 28.359 149.045 26.9211C149.616 25.4829 150.183 24.1089 150.745 22.7992C151.307 21.4895 151.895 20.1926 152.508 18.9084H154.783C155.396 20.1926 155.984 21.4895 156.546 22.7992C157.108 24.1089 157.675 25.4829 158.245 26.9211C158.816 28.359 159.399 29.8786 159.996 31.4793C160.592 33.0805 161.231 34.8224 161.912 36.7055H159.204Z" fill="white"/>
<path fill-rule="evenodd" clip-rule="evenodd" d="M169.093 20.9116C168.037 20.9116 167.228 20.9371 166.666 20.9886V27.974H168.531C169.383 27.974 170.149 27.9185 170.831 27.8071C171.512 27.696 172.087 27.5077 172.556 27.242C173.024 26.9768 173.387 26.6129 173.642 26.1506C173.897 25.6883 174.026 25.0977 174.026 24.3785C174.026 23.694 173.893 23.1289 173.629 22.6837C173.365 22.2385 173.007 21.8835 172.556 21.6177C172.104 21.3524 171.58 21.1685 170.984 21.0657C170.388 20.9631 169.757 20.9116 169.093 20.9116ZM168.889 18.7287C171.376 18.7287 173.288 19.2037 174.626 20.1538C175.964 21.1039 176.632 22.5212 176.632 24.404C176.632 25.4314 176.449 26.309 176.083 27.0365C175.716 27.7644 175.188 28.355 174.498 28.8086C173.808 29.2625 172.969 29.592 171.981 29.7972C170.993 30.0028 169.876 30.1056 168.633 30.1056H166.666V36.7055H164.186V19.1652C164.885 18.9941 165.665 18.8787 166.525 18.8187C167.385 18.7589 168.173 18.7287 168.889 18.7287Z" fill="white"/>
<path fill-rule="evenodd" clip-rule="evenodd" d="M179.298 36.7056H181.777V18.9083H179.298V36.7056Z" fill="white"/>
<path fill-rule="evenodd" clip-rule="evenodd" d="M128.715 28.042C128.715 29.9087 129.156 31.372 130.038 32.4333C130.92 33.4953 132.139 34.0253 133.694 34.0253C134.367 34.0253 134.942 33.9965 135.418 33.938C135.893 33.8799 136.282 33.8154 136.584 33.7458V23.2485C136.213 22.9921 135.719 22.7534 135.104 22.5314C134.489 22.3098 133.834 22.1987 133.137 22.1987C131.606 22.1987 130.485 22.7235 129.777 23.7734C129.069 24.8231 128.715 26.2462 128.715 28.042ZM140.797 36.6846C139.961 36.9417 138.911 37.1746 137.646 37.3846C136.381 37.5945 135.052 37.6995 133.659 37.6995C132.22 37.6995 130.932 37.4776 129.795 37.0346C128.657 36.5917 127.688 35.956 126.887 35.1277C126.087 34.2998 125.471 33.2967 125.042 32.1186C124.612 30.9408 124.398 29.6167 124.398 28.147C124.398 26.7012 124.577 25.3889 124.937 24.2105C125.297 23.0332 125.826 22.0238 126.521 21.184C127.218 20.3442 128.065 19.697 129.063 19.242C130.061 18.7873 131.21 18.5599 132.51 18.5599C133.392 18.5599 134.17 18.6649 134.844 18.8748C135.517 19.0848 136.097 19.3183 136.584 19.5747V11.6558H140.797V36.6846Z" fill="white"/>
</svg>
