<svg width="300" height="35" viewBox="0 0 300 35" fill="none" xmlns="http://www.w3.org/2000/svg">
<g clip-path="url(#clip0_1045_878)">
<path fill-rule="evenodd" clip-rule="evenodd" d="M57.2573 3.84243C68.9318 3.84243 76.3989 7.05749 76.3989 13.4441C76.3989 17.7605 72.1061 20.4452 66.2703 21.8536L76.5701 34.6703H64.8971L55.541 22.9572H52.0214V34.6703H41.2921V3.84243H57.2573ZM88.9403 3.84243L93.5756 10.0955C95.5501 12.7809 97.5254 15.8218 98.0389 17.2744C98.6388 15.8218 100.613 12.6496 102.502 10.0955L107.138 3.84243H118.811L103.275 23.0435V34.6703H92.5455V23.1328L77.0932 3.84243H88.9403ZM139.556 3.84243L154.917 34.6703H143.843L141.012 28.2409H127.538L124.706 34.6703H113.72L129.084 3.84243H139.556ZM169.692 3.84243L180.249 17.3637C181.709 19.2117 183.855 22.0763 184.971 23.7945C184.884 21.8993 184.628 18.5529 184.628 16.6134V3.84243H194.412V34.6703H184.112L173.04 20.9292C171.494 18.9926 169.606 16.4814 168.491 14.6768C168.577 16.5713 168.662 19.7407 168.662 21.6787V34.6703H158.875V3.84243H169.692ZM224.762 3.84243L240.127 34.6703H229.055L226.22 28.2409H212.744L209.912 34.6703H198.925L214.288 3.84243H224.762ZM255.059 3.84243V34.6703H244.331V3.84243H255.059ZM280.249 3.84243C291.922 3.84243 299.389 7.05749 299.389 13.4441C299.389 17.7605 295.1 20.4452 289.261 21.8536L299.56 34.6703H287.888L278.531 22.9572H275.013V34.6703H264.283V3.84243H280.249ZM134.235 11.9472C133.803 13.5319 132.603 16.834 131.487 19.3445L129.856 23.0892H138.698L137.066 19.433C136.037 17.0553 134.663 13.4869 134.235 11.9472ZM219.439 11.9472C219.01 13.5319 217.809 16.834 216.692 19.3445L215.062 23.0892H223.904L222.272 19.433C221.243 17.0553 219.869 13.4869 219.439 11.9472ZM56.743 9.21466H52.0214V17.8034H57.3429C62.8363 17.8034 65.6689 16.35 65.6689 13.5319C65.6689 10.7572 63.1808 9.21466 56.743 9.21466ZM279.733 9.21466H275.013V17.8034H280.334C285.828 17.8034 288.66 16.35 288.66 13.5319C288.66 10.7572 286.172 9.21466 279.733 9.21466Z" fill="white"/>
<path fill-rule="evenodd" clip-rule="evenodd" d="M15.7726 0.958587C18.636 1.17487 21.056 2.11141 23.7248 2.74671C25.9488 3.47053 28.3008 4.0266 30.7004 4.29285L32.3728 4.30927L32.4255 4.26359C33.4248 4.29071 34.1651 3.8617 35.1374 3.65184C35.2406 3.62757 35.493 3.56689 35.599 3.70538C35.6473 3.88669 35.572 4.08299 35.3613 4.2179C34.1703 5.10732 32.7488 5.76904 31.41 6.24587V6.21946C30.9711 6.30226 30.5007 6.48572 30.0449 6.63205C28.3945 7.1203 26.5173 7.42511 24.7417 7.3009C21.3428 7.13101 18.4546 5.94464 15.4529 6.08526C12.5069 5.91751 9.70419 7.01609 8.1357 9.18468C7.3317 10.3189 6.69084 11.516 6.49185 12.8323C6.5811 14.0237 8.29445 14.4805 8.93677 15.467C9.30549 16.0624 9.48984 16.7184 9.76711 17.3373C10.4789 18.5829 11.1842 19.8285 12.0591 21.0013L12.0394 21.0263C12.5529 21.8101 13.3687 22.4896 14.3336 22.95C15.5853 23.8216 16.6907 24.9173 17.3477 26.093L17.3126 26.1116C18.0529 27.2615 18.467 28.455 19.0398 29.6543C19.2959 30.3909 19.5797 31.0376 19.7999 31.7536C19.8738 31.8207 19.8738 31.9278 19.9184 32.0213C20.1218 32.5881 20.2945 33.1927 20.541 33.7188C20.4357 33.7994 20.6244 33.8273 20.601 33.9044C20.6142 34.2234 20.9339 34.7024 20.5088 34.9137C19.8899 34.3812 19.5666 33.6003 19.2322 33.0314C18.5036 31.7886 17.6674 30.5894 16.7676 29.408L16.7939 29.3837C16.2401 28.7084 15.6314 27.9447 14.9986 27.2437C12.3379 24.3677 8.42321 22.6395 5.56275 19.902L5.53641 19.9263C5.29133 19.7129 5.13551 19.4302 4.93798 19.1882L4.96066 19.1618C4.61243 18.6849 4.4054 18.1424 4.06741 17.6549L4.09082 17.6299C3.20488 16.3436 2.35406 14.9774 1.78124 13.6254C1.66199 13.0265 1.45203 12.5111 1.40521 11.8215L1.3379 11.5953C1.37448 10.9685 -0.221816 10.6038 0.657537 9.40097C1.20841 8.82063 3.34388 8.10538 4.06741 7.01609C4.0857 6.85262 4.12447 6.65918 3.97962 6.51284C3.97962 6.39577 3.85525 6.273 3.76893 6.15236C3.36583 5.66339 2.27212 6.05028 2.28968 5.32718C2.40234 5.3229 2.29627 5.22725 2.37015 5.18513C2.30724 4.82965 2.28237 4.59337 2.38405 4.29214C2.60426 3.70038 2.82007 3.01725 2.77618 2.41978C2.82007 2.19564 3.05125 2.06073 3.28316 1.97364C3.73747 1.86157 4.13471 1.80304 4.58024 1.74451L4.63731 1.78876C5.66663 1.70667 6.90226 1.78091 7.58775 2.56754C7.8833 3.16644 7.6514 3.87669 7.48606 4.47987C7.43412 4.82679 7.04419 5.11018 7.13417 5.47566C7.27024 5.61057 7.55483 5.60272 7.73479 5.52777C9.29012 4.60908 10.6472 3.33133 11.7789 2.0436C12.8222 1.09064 14.3592 0.760858 15.7726 0.958587ZM30.7545 8.907C31.0611 9.40882 30.7655 9.96203 30.6258 10.4417C29.4077 13.7681 27.1274 16.5228 25.2963 19.5537C23.7278 22.0442 22.7036 24.8095 21.6589 27.5135C21.2989 28.3244 21.1687 29.226 20.7305 29.9976C20.6946 30.0811 20.582 30.0304 20.5059 30.0526C20.2352 29.832 20.2696 29.5144 20.2074 29.2338C20.4152 25.8503 21.7518 22.7923 23.0079 19.7378C24.5793 16.3315 26.687 13.0786 28.1187 9.55658C28.3184 9.11187 28.7127 8.56865 29.3207 8.4009C29.9301 8.31168 30.3909 8.52582 30.7545 8.907ZM25.5091 8.69571C25.9488 9.0205 25.722 9.63153 25.5486 10.012C23.6327 14.1522 20.5293 17.7206 19.2454 22.0628C18.8906 22.9829 18.6594 23.9351 18.3653 24.8624C18.3148 25.0301 18.0632 25.0351 17.8861 24.993C17.7157 24.5997 17.7647 24.1 17.7647 23.6739C18.17 20.1847 19.0237 16.7955 20.7707 13.7596C21.5652 12.242 22.3334 10.8772 23.1659 9.39597C23.4 8.97696 23.7951 8.59792 24.3679 8.46086C24.79 8.43588 25.1946 8.53367 25.5091 8.69571ZM20.7707 8.52868C20.9844 9.46878 20.2945 10.239 19.9887 11.0806C18.3543 14.2664 16.3915 17.3815 15.4215 20.785C15.3754 20.8942 15.3117 21.0391 15.1822 21.0884C15.0432 21.1255 14.9262 21.057 14.8903 20.962C14.5633 19.6093 14.9415 18.2017 15.2971 16.9147C16.2284 14.0572 17.3557 11.1334 18.9323 8.47443C19.1152 8.3388 19.143 8.22316 19.3712 8.16034C19.9184 8.10538 20.4671 8.14393 20.7707 8.52868ZM15.7155 7.47365C15.9584 7.52433 16.1735 7.60642 16.3513 7.77845C16.7551 8.30311 16.2145 8.76352 16.0535 9.22537C14.3738 11.6866 13.7864 14.477 12.6722 17.1131C12.5873 17.2052 12.422 17.2316 12.3035 17.1952C12.0065 16.9896 12.0065 16.647 12.0394 16.3486C12.2647 13.4897 13.0387 10.8058 14.286 8.25029C14.5779 7.84127 15.0754 7.37728 15.7155 7.47365Z" fill="white"/>
</g>
<defs>
<clipPath id="clip0_1045_878">
<rect width="300" height="34.9398" fill="white"/>
</clipPath>
</defs>
</svg>
