<svg width="117" height="58" viewBox="0 0 117 58" fill="none" xmlns="http://www.w3.org/2000/svg">
<path d="M0 57.913H59.0724L117 0H0V57.913Z" fill="#555"/>
<path fill-rule="evenodd" clip-rule="evenodd" d="M69.3757 10.8846L57.9276 10.8823V38.2758L47.8532 10.8823H38.0078L29.3072 33.7919C28.3914 28.021 22.4383 26.0264 17.6301 24.5333C14.6536 23.5302 11.2192 22.0554 11.4481 20.4433C11.4481 19.1059 13.0509 17.8784 16.4853 18.0616C18.7749 18.1784 20.8356 18.3685 24.9569 20.3333L29.0783 13.3556C25.1859 11.4686 20.1487 10.2755 16.0274 10.2709C10.9902 10.2709 6.86888 11.8556 4.35029 14.4823C2.74755 16.3097 1.60274 18.6295 1.60274 21.2013C1.60274 24.7394 2.97651 27.2493 5.4951 29.2485C8.01369 30.9317 10.7612 32.0286 13.5088 32.8324C16.7143 33.824 19.2329 34.6828 19.2329 36.524C19.2329 37.2041 19.0039 37.8224 18.546 38.3194C17.6301 39.1415 16.4853 39.4529 14.6536 39.4919C11.4481 39.5514 9.15851 39.0407 5.26614 36.7667L1.60274 43.8315C5.4951 46.0208 10.0744 47.3078 14.6536 47.3078L15.3405 47.3032C19.2329 47.2299 22.6673 46.0735 25.1859 43.9712C25.4149 43.8475 25.4149 43.733 25.6438 43.6185L24.499 46.6941H35.0313L36.634 41.3628C38.4657 41.9766 40.5264 42.3338 42.816 42.3338C45.1057 42.3338 46.9374 41.988 48.7691 41.4063L50.6008 46.6941H67.544V35.6354H71.4364C80.3659 35.6354 85.6321 31.053 85.6321 23.3676C85.6321 14.812 80.5949 10.8846 69.3757 10.8846ZM42.816 34.337C41.4423 34.337 40.2974 34.0988 39.1526 33.682L42.816 22.1585L46.4794 33.7187C45.3346 34.1125 44.1898 34.337 42.816 34.337ZM70.0626 27.7096H67.544V18.4189H70.0626C73.497 18.4189 76.2446 19.5433 76.2446 23.0173C76.2446 26.5897 73.497 27.7096 70.0626 27.7096Z" fill="white"/>
<path d="M73.4971 54.2123C73.4971 52.4421 74.8708 51.0932 76.4736 51.0932C78.0763 51.0932 79.4501 52.4421 79.4501 54.2123C79.4501 56.0489 78.0763 57.3725 76.4736 57.3725C74.8708 57.3725 73.4971 56.0489 73.4971 54.2123ZM76.4736 58C78.5343 58 80.366 56.3947 80.366 54.2123C80.366 52.0619 78.5343 50.4818 76.4736 50.4818C74.4129 50.4818 72.5812 52.0619 72.5812 54.2123C72.5812 56.3947 74.4129 58 76.4736 58ZM75.7867 54.526H76.4736L77.6184 56.3947H78.3053L77.1605 54.4894C77.6184 54.4115 78.3053 54.0749 78.3053 53.3054C78.3053 52.4421 77.6184 52.0619 76.7026 52.0619H75.0998V56.3947H75.7867V54.526ZM75.7867 53.9672V52.6138H76.7026C76.9315 52.6138 77.6184 52.7192 77.6184 53.2665C77.6184 53.9237 76.9315 53.9672 76.4736 53.9672H75.7867Z" fill="#CCCCCC"/>
</svg>
