<svg width="100" height="75" viewBox="0 0 100 75" fill="none" xmlns="http://www.w3.org/2000/svg">
<path d="M30.2659 26.0316C30.3142 19.1158 33.0954 12.4994 38.0036 7.62349C42.9115 2.74764 49.5491 0.00750273 56.4698 0H58.3874V4.16122H56.4698C50.6531 4.16794 45.0745 6.4694 40.947 10.565C36.8196 14.6607 34.4774 20.2192 34.43 26.0316H30.2659Z" fill="white"/>
<path d="M38.2537 52.3714V48.2102H40.1597C45.9763 48.2035 51.555 45.9019 55.6824 41.8064C59.8098 37.7106 62.1521 32.1521 62.1995 26.3398H66.3636C66.3153 33.2557 63.534 39.8721 58.6258 44.7481C53.7179 49.6237 47.0804 52.3639 40.1597 52.3714H38.2537Z" fill="white"/>
<path d="M38.2537 44.3892V40.228H40.1597C43.8605 40.2268 47.4121 38.7682 50.0444 36.1688C52.6767 33.5692 54.1783 30.0378 54.2234 26.3398H58.3875C58.3415 31.1414 56.4012 35.7306 52.9878 39.1105C49.5747 42.4901 44.9648 44.3872 40.1597 44.3892H38.2537Z" fill="white"/>
<path d="M38.2537 26.0315C38.3005 21.2324 40.2394 16.6452 43.6498 13.266C47.0606 9.88671 51.667 7.98805 56.4698 7.98218H58.3875V12.1434H56.4698C52.771 12.1477 49.2226 13.6074 46.5926 16.2067C43.9627 18.8059 42.4629 22.3355 42.4178 26.0315H38.2537Z" fill="white"/>
<path d="M38.2537 36.4101V32.246H40.1597C41.7427 32.2472 43.2637 31.6304 44.3983 30.5272C45.5326 29.4239 46.1911 27.9214 46.2327 26.34V26.1859C46.2359 23.4745 47.3155 20.8751 49.2352 18.9587C51.1546 17.0422 53.7566 15.9654 56.4698 15.9646H58.3875V20.1258H56.4698C54.8892 20.1283 53.3713 20.7466 52.2397 21.8494C51.1077 22.9523 50.4509 24.4526 50.4084 26.0318V26.1859C50.4052 28.8996 49.3239 31.501 47.4022 33.4182C45.4805 35.3354 42.8752 36.4116 40.1597 36.4101H38.2537Z" fill="white"/>
<path d="M15.1814 60.1271C15.1085 59.4988 14.808 59.0125 14.2799 58.6674C13.7518 58.3179 13.0871 58.1431 12.2858 58.1431C11.7121 58.1431 11.2159 58.2315 10.797 58.4087C10.3782 58.581 10.0526 58.8201 9.82045 59.1252C9.59281 59.4259 9.47899 59.7689 9.47899 60.1537C9.47899 60.4766 9.55639 60.7551 9.71118 60.9895C9.87053 61.2239 10.0777 61.421 10.3326 61.5801C10.5922 61.7348 10.8699 61.8653 11.1658 61.9716C11.4617 62.0735 11.7463 62.1573 12.0195 62.2238L13.3853 62.5689C13.8315 62.6749 14.289 62.8188 14.7579 63.0001C15.2269 63.1814 15.6617 63.4202 16.0623 63.7165C16.463 64.0131 16.7862 64.3801 17.0321 64.818C17.2825 65.2559 17.4077 65.7802 17.4077 66.3904C17.4077 67.1602 17.2028 67.8437 16.793 68.4407C16.3879 69.038 15.7982 69.5089 15.0243 69.854C14.2549 70.1991 13.3238 70.3716 12.2311 70.3716C11.184 70.3716 10.278 70.2101 9.51314 69.8873C8.74827 69.5644 8.14958 69.1063 7.71706 68.5137C7.28455 67.9167 7.04553 67.2087 7 66.3904H9.11704C9.15802 66.8814 9.32192 67.2907 9.60875 67.618C9.90012 67.9409 10.2712 68.182 10.7219 68.3411C11.1772 68.4962 11.6757 68.5735 12.2175 68.5735C12.8139 68.5735 13.3443 68.4827 13.8087 68.3014C14.2776 68.1158 14.6464 67.8591 14.915 67.5319C15.1836 67.1999 15.3179 66.8128 15.3179 66.3705C15.3179 65.968 15.1996 65.6386 14.9628 65.382C14.7306 65.1254 14.4142 64.9132 14.0136 64.745C13.6175 64.5769 13.169 64.4288 12.6682 64.3004L11.0156 63.8625C9.89557 63.5662 9.00778 63.1306 8.35218 62.5555C7.70113 61.9803 7.37561 61.2195 7.37561 60.2731C7.37561 59.4901 7.59414 58.8067 8.03121 58.2228C8.46827 57.6389 9.06013 57.1855 9.80679 56.8626C10.5535 56.5354 11.3957 56.3716 12.3336 56.3716C13.2806 56.3716 14.116 56.533 14.8399 56.8559C15.5683 57.1788 16.142 57.6234 16.5608 58.1898C16.9797 58.7515 17.1982 59.3973 17.2164 60.1271H15.1814ZM23.643 70.3517C22.6596 70.3517 21.8014 70.1328 21.0684 69.6949C20.3355 69.257 19.7663 68.6442 19.3611 67.8568C18.9559 67.0694 18.7534 66.1495 18.7534 65.0968C18.7534 64.0394 18.9559 63.1151 19.3611 62.3234C19.7663 61.5316 20.3355 60.9165 21.0684 60.4786C21.8014 60.0407 22.6596 59.8217 23.643 59.8217C24.6265 59.8217 25.4846 60.0407 26.2176 60.4786C26.9506 60.9165 27.5197 61.5316 27.9249 62.3234C28.3301 63.1151 28.5327 64.0394 28.5327 65.0968C28.5327 66.1495 28.3301 67.0694 27.9249 67.8568C27.5197 68.6442 26.9506 69.257 26.2176 69.6949C25.4846 70.1328 24.6265 70.3517 23.643 70.3517ZM23.6499 68.6862C24.2873 68.6862 24.8154 68.5224 25.2342 68.1952C25.6531 67.8679 25.9627 67.4323 26.163 66.8882C26.3679 66.344 26.4703 65.7446 26.4703 65.0901C26.4703 64.4399 26.3679 63.8426 26.163 63.2987C25.9627 62.7502 25.6531 62.3099 25.2342 61.9783C24.8154 61.6464 24.2873 61.4805 23.6499 61.4805C23.0079 61.4805 22.4753 61.6464 22.0518 61.9783C21.633 62.3099 21.3211 62.7502 21.1162 63.2987C20.9159 63.8426 20.8157 64.4399 20.8157 65.0901C20.8157 65.7446 20.9159 66.344 21.1162 66.8882C21.3211 67.4323 21.633 67.8679 22.0518 68.1952C22.4753 68.5224 23.0079 68.6862 23.6499 68.6862ZM32.313 56.5575V70.1459H30.2711V56.5575H32.313ZM37.5719 70.3716C36.9071 70.3716 36.3062 70.2522 35.7689 70.0134C35.2317 69.7699 34.806 69.4184 34.4919 68.9583C34.1823 68.4982 34.0275 67.9342 34.0275 67.2662C34.0275 66.6914 34.1413 66.2181 34.3689 65.8465C34.5966 65.4749 34.9039 65.1809 35.2909 64.964C35.6779 64.7474 36.1104 64.5836 36.5884 64.4729C37.0665 64.3623 37.5536 64.2785 38.05 64.221C38.6783 64.15 39.1882 64.0925 39.5797 64.0484C39.9713 63.9997 40.2558 63.9223 40.4331 63.8161C40.6107 63.7101 40.6996 63.5376 40.6996 63.2987V63.252C40.6996 62.6728 40.5311 62.2238 40.1942 61.9053C39.8619 61.5868 39.3655 61.4274 38.7053 61.4274C38.0181 61.4274 37.4763 61.5757 37.08 61.872C36.6886 62.164 36.4177 62.4892 36.2675 62.8474L34.3485 62.4229C34.5761 61.8034 34.9084 61.3036 35.3455 60.9232C35.7871 60.5384 36.2948 60.2596 36.8684 60.0874C37.4421 59.9102 38.0455 59.8217 38.6783 59.8217C39.0971 59.8217 39.541 59.8705 40.0097 59.9677C40.4833 60.0608 40.925 60.2334 41.3345 60.4853C41.7489 60.7376 42.0882 61.0981 42.3523 61.567C42.6164 62.0314 42.7483 62.6352 42.7483 63.3782V70.1459H40.7543V68.7525H40.6723C40.5404 69.0091 40.3421 69.2613 40.0782 69.5089C39.8141 69.7568 39.4749 69.9623 39.0605 70.1261C38.6464 70.2898 38.15 70.3716 37.5719 70.3716ZM38.0157 68.7791C38.5803 68.7791 39.0629 68.6707 39.4634 68.4541C39.8688 68.2372 40.1759 67.9543 40.3853 67.6049C40.5996 67.2507 40.7065 66.8727 40.7065 66.4701V65.1564C40.6335 65.2273 40.4923 65.2936 40.2829 65.3555C40.0782 65.413 39.8435 65.4638 39.5797 65.5082C39.3156 65.5479 39.0584 65.5855 38.8078 65.6208C38.5575 65.6518 38.348 65.6784 38.1795 65.7005C37.7834 65.749 37.4217 65.831 37.0938 65.9461C36.7705 66.0611 36.511 66.2269 36.3153 66.4435C36.124 66.6561 36.0284 66.9389 36.0284 67.2928C36.0284 67.7838 36.2151 68.1555 36.5884 68.4077C36.9618 68.6553 37.4376 68.7791 38.0157 68.7791ZM46.9692 64.0949V70.1459H44.9271V59.9546H46.8872V61.6134H47.017C47.2583 61.0736 47.636 60.64 48.1504 60.3128C48.6697 59.9855 49.3229 59.8217 50.1105 59.8217C50.8253 59.8217 51.4512 59.9677 51.9885 60.2596C52.5258 60.5472 52.9422 60.9764 53.2382 61.5471C53.5342 62.1176 53.6823 62.8232 53.6823 63.6637V70.1459H51.6402V63.9025C51.6402 63.1636 51.4422 62.5864 51.0462 62.1707C50.6501 61.7506 50.106 61.5404 49.414 61.5404C48.9404 61.5404 48.5194 61.6399 48.1504 61.839C47.7862 62.0379 47.4972 62.3298 47.2832 62.7149C47.0738 63.0953 46.9692 63.5551 46.9692 64.0949ZM58.9324 70.3716C58.2677 70.3716 57.6667 70.2522 57.1295 70.0134C56.5922 69.7699 56.1667 69.4184 55.8524 68.9583C55.5429 68.4982 55.3882 67.9342 55.3882 67.2662C55.3882 66.6914 55.5021 66.2181 55.7295 65.8465C55.9573 65.4749 56.2644 65.1809 56.6514 64.964C57.0384 64.7474 57.4711 64.5836 57.9492 64.4729C58.427 64.3623 58.9143 64.2785 59.4104 64.221C60.0388 64.15 60.5487 64.0925 60.9402 64.0484C61.3317 63.9997 61.6163 63.9223 61.7939 63.8161C61.9715 63.7101 62.0601 63.5376 62.0601 63.2987V63.252C62.0601 62.6728 61.8918 62.2238 61.555 61.9053C61.2224 61.5868 60.7263 61.4274 60.0661 61.4274C59.3786 61.4274 58.8368 61.5757 58.4408 61.872C58.0493 62.164 57.7782 62.4892 57.628 62.8474L55.7091 62.4229C55.9369 61.8034 56.2692 61.3036 56.7061 60.9232C57.1478 60.5384 57.6553 60.2596 58.2289 60.0874C58.8026 59.9102 59.4059 59.8217 60.0388 59.8217C60.4576 59.8217 60.9014 59.8705 61.3705 59.9677C61.8441 60.0608 62.2855 60.2334 62.6953 60.4853C63.1097 60.7376 63.4489 61.0981 63.7128 61.567C63.9769 62.0314 64.1091 62.6352 64.1091 63.3782V70.1459H62.1148V68.7525H62.0328C61.9009 69.0091 61.7028 69.2613 61.4387 69.5089C61.1746 69.7568 60.8356 69.9623 60.4213 70.1261C60.0069 70.2898 59.5108 70.3716 58.9324 70.3716ZM59.3765 68.7791C59.9408 68.7791 60.4234 68.6707 60.8242 68.4541C61.2293 68.2372 61.5367 67.9543 61.7461 67.6049C61.9601 67.2507 62.067 66.8727 62.067 66.4701V65.1564C61.9943 65.2273 61.8531 65.2936 61.6436 65.3555C61.4387 65.413 61.2043 65.4638 60.9402 65.5082C60.6761 65.5479 60.4189 65.5855 60.1686 65.6208C59.9183 65.6518 59.7088 65.6784 59.5403 65.7005C59.1442 65.749 58.7821 65.831 58.4543 65.9461C58.1313 66.0611 57.8717 66.2269 57.6758 66.4435C57.4846 66.6561 57.3891 66.9389 57.3891 67.2928C57.3891 67.7838 57.5757 68.1555 57.9492 68.4077C58.3224 68.6553 58.7981 68.7791 59.3765 68.7791ZM66.1308 70.1459V56.5575H75.3911V58.9261H69.0878V62.164H74.7766V64.5328H69.0878V70.1459H66.1308ZM76.8391 56.5575H80.4861L84.3377 65.6871H84.5014L88.3533 56.5575H92V70.1459H89.1319V61.3016H89.0156L85.3963 70.0796H83.4431L79.8235 61.2683H79.7075V70.1459H76.8391V56.5575Z" fill="white"/>
</svg>
