<svg width="228" height="46" viewBox="0 0 228 46" fill="none" xmlns="http://www.w3.org/2000/svg">
<g clip-path="url(#clip0_1183_2057)" filter="url(#filter0_d_1183_2057)">
<path d="M26.2895 37.4868C24.2631 37.8487 22.3092 36.546 21.9473 34.5197L16.4473 4.48684C16.0855 2.46053 17.3881 0.506578 19.4145 0.144736C21.4408 -0.217106 23.3947 1.08553 23.7566 3.11184L29.2566 33.1447C29.6184 35.171 28.2434 37.125 26.2895 37.4868V37.4868Z" fill="#AAAAAA"/>
<path d="M11.8882 32.3487C10.5855 32.5658 9.2829 32.1316 8.34211 31.1184C7.03947 29.5263 7.18421 27.2105 8.77632 25.9079L32.0066 6.15132C33.5987 4.84868 35.9145 4.99342 37.2171 6.58553C38.5197 8.17763 38.375 10.4934 36.7829 11.7961L13.625 31.5526C13.1184 31.9868 12.4671 32.2763 11.8882 32.3487V32.3487Z" fill="#CCCCCC"/>
<path d="M37.8684 27.5724C37.2171 27.7171 36.5658 27.6447 35.9868 27.4276L7.18419 17.2237C5.23024 16.5 4.21708 14.4013 4.94077 12.4474C5.66445 10.4934 7.76314 9.48026 9.71708 10.2039L38.4474 20.4079C40.4013 21.1316 41.4145 23.2303 40.6908 25.1842C40.2566 26.4868 39.0987 27.3553 37.8684 27.5724V27.5724Z" fill="#999999"/>
<path d="M61.8948 23.9539C61.8948 23.2303 61.6053 22.6513 61.0987 22.2171C60.5921 21.7829 59.9408 21.3487 59.1448 20.9868C58.3487 20.625 57.4803 20.2632 56.5395 19.8289C55.5987 19.4671 54.7303 18.9605 53.9342 18.3816C53.1382 17.8026 52.4869 17.0789 51.9803 16.2105C51.4737 15.3421 51.1842 14.2566 51.1842 12.9539C51.1842 11.7961 51.4013 10.7829 51.7632 9.98684C52.125 9.11842 52.704 8.4671 53.4277 7.88816C54.1513 7.30921 54.9474 6.94737 55.9605 6.65789C56.9013 6.36842 57.9869 6.22368 59.2171 6.22368C60.5921 6.22368 61.8948 6.36842 63.0527 6.58553C64.2105 6.80263 65.2961 7.16447 66.0198 7.59868L64.5724 11.4342C64.0658 11.1447 63.3421 10.8553 62.329 10.6382C61.3158 10.3487 60.3026 10.2763 59.1448 10.2763C58.0592 10.2763 57.2632 10.4934 56.6842 10.9276C56.1053 11.3618 55.8158 11.9408 55.8158 12.6645C55.8158 13.3158 56.1053 13.8947 56.6119 14.3289C57.1184 14.7632 57.7698 15.1974 58.5658 15.5592C59.3619 15.9211 60.2303 16.3553 61.1711 16.7171C62.1119 17.1513 62.9803 17.5855 63.7763 18.1645C64.5724 18.7434 65.2237 19.4671 65.7303 20.2632C66.2369 21.1316 66.5263 22.1447 66.5263 23.375C66.5263 24.6053 66.3092 25.6908 65.875 26.6316C65.4408 27.5724 64.8619 28.2961 64.1382 28.875C63.4145 29.4539 62.4737 29.9605 61.3882 30.25C60.3027 30.5395 59.1448 30.6842 57.8421 30.6842C56.1777 30.6842 54.6579 30.5395 53.4277 30.1776C52.125 29.8882 51.1842 29.5263 50.6053 29.2368L52.0527 25.3289C52.2698 25.4737 52.6316 25.6184 52.9934 25.7632C53.3553 25.9079 53.8619 26.0526 54.2961 26.1974C54.8027 26.3421 55.3092 26.4145 55.8882 26.5592C56.4671 26.6316 56.9737 26.7039 57.5527 26.7039C58.9277 26.7039 59.9408 26.4868 60.6645 25.9803C61.5329 25.5461 61.8948 24.8947 61.8948 23.9539V23.9539ZM68.4803 21.8553C68.4803 19.0329 69.204 16.7895 70.579 15.2697C71.954 13.75 73.9079 12.9539 76.4408 12.9539C77.8158 12.9539 78.9737 13.1711 79.9145 13.6053C80.9277 14.0395 81.7237 14.6184 82.375 15.4145C83.0263 16.2105 83.5329 17.1513 83.8224 18.2368C84.1119 19.3224 84.329 20.5526 84.329 21.8553C84.329 24.6776 83.6053 26.9211 82.2303 28.4408C80.8553 29.9605 78.9013 30.7566 76.3684 30.7566C74.9934 30.7566 73.8355 30.5395 72.8948 30.1053C71.8816 29.6711 71.0855 29.0921 70.4342 28.2961C69.7829 27.5 69.2763 26.5592 68.9869 25.4737C68.625 24.3882 68.4803 23.1579 68.4803 21.8553V21.8553ZM72.9671 21.8553C72.9671 22.5789 73.0395 23.3026 73.1842 23.8816C73.329 24.5329 73.5461 25.0395 73.7632 25.5461C74.0527 26.0526 74.4145 26.4145 74.8487 26.6316C75.2829 26.9211 75.7895 26.9934 76.4408 26.9934C77.5987 26.9934 78.4671 26.5592 78.9737 25.7632C79.5526 24.9671 79.8421 23.5921 79.8421 21.8553C79.8421 20.3355 79.5526 19.0329 79.0461 18.0921C78.5395 17.1513 77.6711 16.6447 76.4408 16.6447C75.3553 16.6447 74.4869 17.0789 73.9079 17.875C73.2566 18.6711 72.9671 19.9737 72.9671 21.8553V21.8553ZM90.9145 13.4605V23.0132C90.9145 24.3882 91.0592 25.4013 91.4211 25.9803C91.7105 26.5592 92.3619 26.9211 93.3026 26.9211C94.0987 26.9211 94.8224 26.7039 95.4013 26.1974C95.9803 25.6908 96.3421 25.1118 96.6316 24.3882V13.5329H100.974V25.2566C100.974 26.1974 101.046 27.0658 101.118 27.9342C101.191 28.8026 101.336 29.5987 101.553 30.3224H98.2237L97.4277 27.8618H97.2829C96.7763 28.7303 96.0526 29.454 95.1119 29.9605C94.1711 30.5395 93.0855 30.8289 91.8553 30.8289C90.9869 30.8289 90.2632 30.6842 89.5395 30.4671C88.8882 30.25 88.3092 29.8882 87.875 29.3816C87.4408 28.875 87.079 28.1513 86.8619 27.2829C86.6448 26.4145 86.5 25.2566 86.5 23.8816V13.4605H90.9145ZM113.638 17.5132C112.914 17.2961 112.336 17.1513 111.757 17.1513C110.961 17.1513 110.309 17.3684 109.803 17.8026C109.296 18.2368 108.934 18.7434 108.717 19.3947V30.25H104.375V13.4605H107.776L108.283 15.7039H108.428C108.789 14.9079 109.296 14.2566 109.947 13.75C110.599 13.2434 111.395 13.0987 112.263 13.0987C112.842 13.0987 114.072 13.3882 114.724 13.6776L113.638 17.5132V17.5132ZM127.822 29.2368C127.171 29.7434 126.303 30.1053 125.362 30.3947C124.421 30.6842 123.408 30.7566 122.395 30.7566C121.02 30.7566 119.934 30.5395 118.993 30.1053C118.053 29.6711 117.329 29.0921 116.75 28.2961C116.171 27.5 115.737 26.5592 115.52 25.4737C115.23 24.3882 115.158 23.1579 115.158 21.8553C115.158 19.0329 115.809 16.7895 117.112 15.2697C118.414 13.75 120.224 12.9539 122.684 12.9539C123.914 12.9539 124.928 13.0263 125.651 13.2434C126.375 13.4605 127.099 13.6776 127.678 14.0395L126.664 17.5855C126.158 17.3684 125.651 17.1513 125.145 17.0066C124.638 16.8618 124.059 16.7895 123.408 16.7895C122.178 16.7895 121.309 17.2237 120.658 18.0197C120.007 18.8158 119.717 20.1184 119.717 21.8553C119.717 22.5789 119.789 23.2303 119.934 23.8092C120.079 24.3882 120.296 24.9671 120.658 25.4013C120.947 25.8355 121.382 26.1974 121.888 26.4868C122.395 26.7763 122.974 26.8487 123.625 26.8487C124.349 26.8487 125 26.7763 125.507 26.5592C126.013 26.3421 126.447 26.125 126.882 25.8355L127.822 29.2368V29.2368ZM143.237 28.8026C142.586 29.3092 141.645 29.8158 140.487 30.1776C139.329 30.5395 138.099 30.7566 136.796 30.7566C134.046 30.7566 132.092 29.9605 130.862 28.3684C129.632 26.7763 128.98 24.6053 128.98 21.8553C128.98 18.8882 129.704 16.6447 131.079 15.1974C132.454 13.75 134.48 12.9539 137.013 12.9539C137.882 12.9539 138.678 13.0987 139.474 13.3158C140.27 13.5329 140.993 13.8947 141.645 14.4013C142.296 14.9079 142.803 15.6316 143.164 16.5C143.526 17.3684 143.743 18.4539 143.743 19.7566C143.743 20.2632 143.743 20.6974 143.671 21.2763C143.599 21.7829 143.526 22.3618 143.454 22.9408H133.322C133.395 24.3882 133.757 25.4013 134.408 26.125C135.059 26.8487 136.145 27.2105 137.592 27.2105C138.533 27.2105 139.329 27.0658 140.053 26.7763C140.776 26.4868 141.355 26.1974 141.717 25.9079L143.237 28.8026V28.8026ZM136.941 16.4276C135.783 16.4276 134.914 16.7895 134.408 17.4408C133.829 18.0921 133.539 19.0329 133.395 20.1908H139.618C139.691 18.9605 139.546 18.0197 139.039 17.3684C138.678 16.7895 137.954 16.4276 136.941 16.4276V16.4276ZM160.75 30.25C160.75 32.7105 160.099 34.5197 158.796 35.6776C157.493 36.8355 155.612 37.4145 153.224 37.4145C151.632 37.4145 150.329 37.2697 149.388 37.0526C148.447 36.8355 147.724 36.6184 147.289 36.3289L148.23 32.8553C148.737 33.0724 149.316 33.2895 150.039 33.4342C150.763 33.5789 151.559 33.7237 152.572 33.7237C154.092 33.7237 155.105 33.3618 155.684 32.7105C156.263 32.0592 156.48 31.1184 156.48 29.9605V28.9474H156.336C155.539 30.0329 154.164 30.5395 152.138 30.5395C149.967 30.5395 148.375 29.8882 147.289 28.5132C146.204 27.1382 145.697 25.0395 145.697 22.2171C145.697 19.1776 146.421 16.9342 147.868 15.4145C149.316 13.8947 151.414 13.0987 154.092 13.0987C155.539 13.0987 156.842 13.1711 157.928 13.3882C159.013 13.6053 159.954 13.8224 160.678 14.1118V30.25H160.75V30.25ZM153.368 26.9934C154.237 26.9934 154.888 26.7763 155.322 26.4145C155.757 26.0526 156.118 25.4737 156.408 24.6776V17.1513C155.684 16.8618 154.816 16.7171 153.803 16.7171C152.645 16.7171 151.776 17.1513 151.197 17.9474C150.546 18.8158 150.257 20.1184 150.257 22C150.257 23.6645 150.546 24.8947 151.053 25.7632C151.559 26.6316 152.355 26.9934 153.368 26.9934V26.9934ZM173.414 17.5132C172.691 17.2961 172.112 17.1513 171.533 17.1513C170.737 17.1513 170.086 17.3684 169.579 17.8026C169.072 18.2368 168.711 18.7434 168.493 19.3947V30.25H164.151V13.4605H167.553L168.059 15.7039H168.204C168.566 14.9079 169.072 14.2566 169.724 13.75C170.375 13.2434 171.171 13.0987 172.039 13.0987C172.618 13.0987 173.27 13.2434 173.993 13.4605L173.414 17.5132V17.5132ZM175.513 14.2566C176.382 13.8224 177.033 13.6776 178.263 13.4605C179.493 13.2434 180.796 13.0987 182.099 13.0987C183.257 13.0987 184.27 13.2434 184.993 13.5329C185.717 13.8224 186.368 14.1842 186.875 14.7632C187.309 15.2697 187.671 15.9211 187.816 16.6447C188.033 17.3684 188.105 18.1645 188.105 19.0329C188.105 20.0461 188.105 20.9868 188.033 22C187.961 23.0132 187.961 23.9539 187.888 24.9671C187.888 25.9079 187.888 26.8487 187.961 27.7895C188.033 28.7303 188.178 29.5263 188.467 30.3947H184.921L184.197 28.0789C183.763 28.8026 183.112 29.3816 182.316 29.8882C181.52 30.3947 180.507 30.6118 179.204 30.6118C178.408 30.6118 177.684 30.4671 177.105 30.25C176.454 30.0329 175.947 29.6711 175.513 29.2368C175.079 28.8026 174.717 28.2961 174.5 27.7171C174.283 27.1382 174.138 26.4868 174.138 25.6908C174.138 24.6776 174.355 23.8092 174.862 23.0855C175.368 22.3618 175.947 21.7829 176.816 21.3487C177.684 20.9145 178.697 20.625 179.928 20.4079C181.158 20.1908 182.461 20.1908 183.98 20.2632C184.125 19.0329 184.053 18.0921 183.691 17.5855C183.329 17.0066 182.605 16.7895 181.447 16.7895C180.579 16.7895 179.638 16.8618 178.697 17.0789C177.757 17.2961 177.322 17.3684 176.743 17.6579L175.513 14.2566ZM180.651 26.9211C181.52 26.9211 182.243 26.7039 182.75 26.3421C183.257 25.9803 183.618 25.5461 183.908 25.1118V22.9408C183.184 22.8684 182.533 22.8684 181.882 22.9408C181.23 23.0132 180.651 23.0855 180.217 23.2303C179.783 23.375 179.349 23.5921 179.059 23.8816C178.77 24.1711 178.625 24.5329 178.625 24.9671C178.625 25.6184 178.842 26.0526 179.204 26.4145C179.493 26.7763 180 26.9211 180.651 26.9211ZM191.507 13.4605H194.691L195.197 15.4868H195.342C195.921 14.6184 196.645 14.0395 197.441 13.6053C198.237 13.1711 199.178 13.0263 200.336 13.0263C202.434 13.0263 204.026 13.6776 205.112 15.0526C206.197 16.4276 206.704 18.5263 206.704 21.4934C206.704 22.9408 206.559 24.2434 206.197 25.4013C205.836 26.5592 205.329 27.5724 204.678 28.3684C204.026 29.1645 203.23 29.8158 202.289 30.25C201.349 30.6842 200.263 30.9013 199.033 30.9013C198.309 30.9013 197.73 30.8289 197.296 30.7566C196.862 30.6842 196.428 30.4671 195.921 30.25V37.125H191.579V13.4605H191.507V13.4605ZM198.961 16.6447C198.092 16.6447 197.441 16.8618 196.934 17.2961C196.428 17.7303 196.066 18.3816 195.776 19.25V26.2697C196.066 26.4868 196.428 26.7039 196.789 26.8487C197.151 26.9934 197.658 27.0658 198.237 27.0658C199.467 27.0658 200.408 26.6316 201.059 25.7632C201.711 24.8947 202 23.4474 202 21.3487C202 19.9013 201.783 18.7434 201.276 17.9474C200.842 17.0789 200.046 16.6447 198.961 16.6447V16.6447ZM219.368 30.25V20.6974C219.368 19.3224 219.151 18.3092 218.789 17.7303C218.428 17.1513 217.704 16.7895 216.691 16.7895C215.967 16.7895 215.243 17.0066 214.664 17.5132C214.013 18.0197 213.651 18.6711 213.434 19.4671V30.1776H209.092V6.73026H213.434V15.3421H213.579C214.086 14.6184 214.809 14.0395 215.533 13.6053C216.329 13.1711 217.342 12.9539 218.5 12.9539C219.368 12.9539 220.092 13.0987 220.743 13.3158C221.395 13.5329 221.974 13.8947 222.408 14.4013C222.842 14.9079 223.204 15.6316 223.349 16.5C223.493 17.3684 223.638 18.4539 223.638 19.7566V30.25H219.368V30.25Z" fill="white"/>
</g>
<defs>
<filter id="filter0_d_1183_2057" x="0" y="0" width="228" height="45.6316" filterUnits="userSpaceOnUse" color-interpolation-filters="sRGB">
<feFlood flood-opacity="0" result="BackgroundImageFix"/>
<feColorMatrix in="SourceAlpha" type="matrix" values="0 0 0 0 0 0 0 0 0 0 0 0 0 0 0 0 0 0 127 0" result="hardAlpha"/>
<feOffset dy="4"/>
<feGaussianBlur stdDeviation="2"/>
<feComposite in2="hardAlpha" operator="out"/>
<feColorMatrix type="matrix" values="0 0 0 0 0 0 0 0 0 0 0 0 0 0 0 0 0 0 0.25 0"/>
<feBlend mode="normal" in2="BackgroundImageFix" result="effect1_dropShadow_1183_2057"/>
<feBlend mode="normal" in="SourceGraphic" in2="effect1_dropShadow_1183_2057" result="shape"/>
</filter>
<clipPath id="clip0_1183_2057">
<rect width="220" height="37.6316" fill="white" transform="translate(4)"/>
</clipPath>
</defs>
</svg>
