<svg width="120" height="42" viewBox="0 0 120 42" fill="none" xmlns="http://www.w3.org/2000/svg">
<path d="M10.9253 35.4199C13.1028 35.4199 14.7862 34.6114 14.7862 32.7214C14.7862 31.3144 13.866 30.5599 12.178 30.1279L8.58764 29.1604C2.76987 27.6484 0.760089 24.7834 0.760089 21.2764C0.760089 16.4719 4.45778 12.7504 10.9782 12.7504C16.3079 12.7504 20.4967 15.2839 21.3112 19.8169L14.9494 21.2764C14.7318 19.4389 13.2101 18.4204 11.2004 18.4204C9.13164 18.4204 7.72027 19.4404 7.72027 21.1714C7.72027 22.4629 8.58764 23.2714 10.7667 23.8699L14.2996 24.7834C19.2485 26.0839 21.9111 28.7824 21.9111 32.7199C21.9111 37.6324 17.9973 41.0284 11.0372 41.0284C4.29458 41.0284 0.651289 37.7914 0 33.4234L6.52498 32.3419C6.63076 34.2334 8.31564 35.4199 10.9253 35.4199Z" fill="white"/>
<path d="M25.5378 5.24587V13.5604V19.3879V40.3324H32.4964V19.3879H37.6644V13.5604H32.4964V5.24587H25.5378Z" fill="white"/>
<path d="M46.4395 24.5734H59.4381C59.163 20.5219 56.6667 18.5794 53.1866 18.5794C49.4844 18.5794 47.0938 20.6824 46.4395 24.5734ZM66.6657 29.4244H46.3322C46.7659 33.4234 49.9181 35.0404 53.1851 35.0404C56.443 35.0404 58.5117 33.5284 59.707 31.2079L65.5807 33.5284C63.6238 38.2219 58.8336 41.0284 53.1851 41.0284C45.1898 41.0284 39.647 35.4184 39.647 26.9449C39.647 18.5254 45.084 12.7504 53.2909 12.7504C61.339 12.7504 66.6657 18.3604 66.6657 26.9449V29.4244Z" fill="white"/>
<path d="M112.396 13.5604H105.275V40.3324H112.396V13.5604Z" fill="white"/>
<path d="M84.8972 34.6639C80.5981 34.6639 77.446 31.6399 77.446 26.8909C77.446 22.0864 80.5981 19.1179 84.8972 19.1179C89.2492 19.1179 92.3485 22.0864 92.3485 26.8909C92.3485 31.6399 89.2492 34.6639 84.8972 34.6639ZM99.6306 33.4234V27.9589V0.0168724H92.5601V16.3639C90.6561 13.8859 87.1775 12.7519 83.9709 12.7519C76.0905 12.7519 70.2742 18.3619 70.2742 26.9464C70.2742 36.2809 76.092 41.0299 83.8123 41.0299C87.5039 41.0299 90.9311 39.5764 92.6719 37.0369C92.7807 38.3314 92.888 39.4654 93.1086 40.3324H99.6291V33.4234H99.6306Z" fill="white"/>
<path d="M112.417 -1.48579e-06L112.397 7.07251L119.522 7.09302L119.542 0.0205088L112.417 -1.48579e-06Z" fill="white"/>
</svg>
