<svg width="958" height="184" viewBox="0 0 958 184" fill="none" xmlns="http://www.w3.org/2000/svg">
<path d="M237.23 107.83H251.01C251.18 114.64 257.14 120.26 266.84 120.26C276.84 120.26 282.84 115.66 282.84 109.19C282.84 103.24 278.25 100.19 271.95 98.82L261.06 96.26C247.79 92.69 240.13 86.26 240.13 73.46C240.13 60.36 251.36 50.32 267.36 50.32C280.8 50.32 294.75 57.46 294.75 73.46H280.45C280.28 67.33 273.98 63.25 267.69 63.25C260.03 63.25 254.92 67.85 254.92 73.97C254.92 79.42 260.03 82.31 265.13 83.5L276.88 86.39C293.38 90.48 297.64 100.39 297.64 109.39C297.64 124.19 283.34 133.21 266.84 133.21C252.52 133.19 237.91 124.17 237.23 107.83Z" fill="white"/>
<path d="M381.46 52.02V131.49H366.66V119.06C361.89 128.94 349.13 133.19 340.28 133.19C320.37 133.19 308.12 120.26 308.28 97.96V52.02H323.09V97.11C323.09 110.39 331.09 118.55 342.15 118.55C353.21 118.55 366.48 112.26 366.65 95.07V52.07L381.46 52.02Z" fill="white"/>
<path d="M563.73 98.14H499.07C501.28 112.26 511.49 119.24 525.07 119.24C534.77 119.24 543.79 115.15 548.21 107.15L561.15 112.26C554.15 126.04 539.88 133.19 524.56 133.19C501.93 133.19 483.72 116.68 483.72 91.5C483.72 66.32 501.93 50.32 524.56 50.32C547.19 50.32 564.04 66.32 564.04 91.5C564.07 93.71 563.9 95.92 563.73 98.14ZM549.27 85.37C547.39 71.76 537.69 64.27 524.59 64.27C511.15 64.27 501.59 71.08 499.24 85.37H549.27Z" fill="white"/>
<path d="M623.57 67.33C619.954 65.6052 616.006 64.6906 612 64.65C596.17 64.65 589.88 81.5001 589.88 102.43V131.53H574.88V52.02H589.88V70.02C593.96 56.02 601.62 50.28 612.17 50.28C616.051 50.2869 619.903 50.9391 623.57 52.21V67.33Z" fill="white"/>
<path d="M706.39 85.54V131.49H691.59V86.39C691.59 73.12 683.42 64.95 672.36 64.95C661.3 64.95 648.03 71.25 648.03 88.44V131.44H633.22V52.02H648.03V64.1C652.79 54.4 665.72 50.32 674.4 50.32C694.14 50.32 706.52 63.25 706.39 85.54Z" fill="white"/>
<path d="M715.08 91.5C715.08 66.31 733.97 50.32 756.6 50.32C779.23 50.32 798.29 66.32 798.29 91.5C798.29 116.68 779.23 133.19 756.6 133.19C733.97 133.19 715.08 116.65 715.08 91.5ZM783.49 91.5C783.49 75.16 771.23 64.27 756.6 64.27C742.13 64.27 730.05 75.16 730.05 91.5C730.05 108 742.13 119.24 756.6 119.24C771.23 119.24 783.52 108 783.52 91.5H783.49Z" fill="white"/>
<path d="M876.78 52.02L843.6 131.49H829.13L796.13 52.02H811.96L836.46 112.6L860.79 52.02H876.78Z" fill="white"/>
<path d="M957.93 52.02V131.49H943.13V118.89C937.86 128.08 926.28 133.19 914.88 133.19C893.1 133.19 875.06 116.68 875.06 91.67C875.06 66.48 892.93 50.32 914.71 50.32C926.63 50.32 937.86 55.08 943.13 64.44V52.02H957.93ZM943.13 91.5C943.13 74.31 929.18 64.27 916.07 64.27C901.61 64.27 890.07 75.5 890.07 91.5C890.07 107.32 901.64 119.24 916.07 119.24C930.37 119.24 943.13 108.51 943.13 91.5Z" fill="white"/>
<path d="M475.52 91.84C475.52 117.02 457.66 133.19 435.88 133.19C423.96 133.19 412.73 128.42 407.46 119.06V173.06H392.66V52.06H407.52V64.65C412.79 55.46 424.36 50.3601 435.77 50.3601C457.52 50.3201 475.52 66.82 475.52 91.84ZM460.52 92.01C460.52 76.18 448.95 64.27 434.31 64.27C420.19 64.27 407.43 74.99 407.43 92.01C407.382 95.5697 408.042 99.1033 409.372 102.406C410.702 105.708 412.674 108.713 415.175 111.247C417.676 113.78 420.655 115.792 423.94 117.164C427.225 118.536 430.75 119.242 434.31 119.24C448.99 119.24 460.52 108 460.52 92.01Z" fill="white"/>
<path d="M52.57 130.94C54.82 160.94 71.21 183.51 91.75 183.51C112.29 183.51 128.69 160.93 130.94 130.94C160.94 128.69 183.51 112.29 183.51 91.75C183.51 71.21 160.93 54.82 130.94 52.57C128.69 22.57 112.29 -3.05176e-05 91.75 -3.05176e-05C71.21 -3.05176e-05 54.82 22.58 52.57 52.57C22.57 54.82 0 71.21 0 91.75C0 112.29 22.58 128.65 52.57 130.94ZM108.21 157.01C105.5 161.42 99.75 168.83 91.75 168.83C83.75 168.83 78.01 161.42 75.3 157.01C70.94 149.91 68.18 140.82 67.3 130.89C88.98 129.13 106.71 119.96 114.71 107.2C115.938 112.671 116.552 118.263 116.54 123.87C116.52 136.5 113.57 148.27 108.21 157.01ZM78.91 91.75C78.9199 89.2102 79.6822 86.7304 81.1006 84.6236C82.519 82.5168 84.5299 80.8776 86.8794 79.9129C89.2288 78.9483 91.8115 78.7015 94.3011 79.2038C96.7907 79.706 99.0757 80.9348 100.867 82.7349C102.659 84.535 103.877 86.8256 104.368 89.3175C104.858 91.8095 104.6 94.3909 103.624 96.7359C102.649 99.0808 101 101.084 98.8866 102.493C96.7732 103.901 94.2898 104.652 91.75 104.65C90.0588 104.65 88.3842 104.316 86.8224 103.667C85.2607 103.018 83.8426 102.067 82.6495 100.868C81.4564 99.6694 80.5118 98.2468 79.8701 96.6821C79.2284 95.1173 78.9021 93.4412 78.91 91.75ZM157.01 75.3C161.42 78.01 168.83 83.75 168.83 91.75C168.83 99.75 161.42 105.5 157.01 108.21C149.91 112.56 140.82 115.33 130.89 116.21C129.13 94.53 119.96 76.79 107.2 68.8C112.671 67.5674 118.262 66.9535 123.87 66.97C136.52 66.98 148.27 69.93 157.01 75.3ZM75.3 26.5C78.01 22.08 83.75 14.68 91.75 14.68C99.75 14.68 105.5 22.08 108.21 26.5C112.56 33.59 115.33 42.69 116.21 52.62C94.53 54.38 76.79 63.55 68.8 76.31C67.572 70.8422 66.9615 65.2539 66.98 59.65C66.98 47.01 69.93 35.24 75.3 26.5ZM26.52 75.3C33.61 70.94 42.71 68.18 52.64 67.3C54.4 88.98 63.57 106.71 76.33 114.71C70.8585 115.937 65.2674 116.551 59.66 116.54C47.03 116.54 35.26 113.54 26.52 108.22C22.1 105.51 14.7 99.76 14.7 91.76C14.7 83.76 22.08 78.01 26.52 75.3Z" fill="white"/>
</svg>
