<svg width="234" height="36" viewBox="0 0 234 36" fill="none" xmlns="http://www.w3.org/2000/svg">
<g clip-path="url(#clip0_1045_853)">
<path d="M48.9168 4.56602C46.5303 4.56602 44.5894 6.48592 44.5894 8.8459C44.5894 12.2057 45.8474 15.2757 47.9212 17.6339C48.7802 18.6083 49.7776 19.4596 50.8864 20.1569C51.5514 19.1553 52.1084 18.074 52.5361 16.9329C53.1795 15.2123 53.5317 13.3522 53.5317 11.4124C53.5317 10.2605 53.4059 9.13751 53.1687 8.05257C53.1503 7.9622 53.1273 7.87117 53.1055 7.78082C52.6257 5.93342 50.931 4.56595 48.9183 4.56595L48.9168 4.56602ZM22.2192 16.9329C22.6469 18.074 23.204 19.1553 23.8725 20.1569C24.9778 19.4596 25.9751 18.6083 26.8342 17.6339C28.9098 15.2793 30.1696 12.2057 30.1696 8.8459C30.1696 6.48592 28.2287 4.56602 25.8386 4.56602C23.8258 4.56602 22.133 5.93526 21.6513 7.77909C21.633 7.86946 21.6086 7.9605 21.5882 8.05086C21.3545 9.13758 21.2287 10.2605 21.2287 11.4124C21.2287 13.3505 21.5792 15.2124 22.2225 16.933L22.2192 16.9329ZM70.2734 14.8392L74.3995 16.8822C71.4164 22.7686 65.2613 26.8149 58.1467 26.8149C56.0548 26.8149 54.0493 26.4616 52.1767 25.8187C48.4082 29.6005 43.1733 31.9496 37.3777 31.9496C31.5821 31.9496 26.3436 29.5987 22.5769 25.8151C20.7079 26.4599 18.6951 26.8112 16.6051 26.8112C9.20111 26.8112 2.83042 22.4281 0 16.1433L4.22316 14.2868C6.33654 18.9723 11.088 22.2488 16.6051 22.2488C17.6115 22.2488 18.5945 22.1366 19.538 21.9299C17.678 18.8508 16.6087 15.2556 16.6087 11.4104C16.6087 9.94693 16.7651 8.51787 17.058 7.14138C17.1008 6.94217 17.1479 6.74981 17.1964 6.55471C18.2153 2.78017 21.6963 0.00177978 25.835 0.00177978C25.9176 0.00177978 25.9967 0.00531107 26.0794 0.00766742C26.3309 0.0147365 26.5825 0.028171 26.8305 0.0556225C31.3053 0.544389 34.7809 4.29389 34.7809 8.84539C34.7809 14.9637 31.6863 20.3647 26.9635 23.6068C29.7778 25.9614 33.4115 27.3849 37.3777 27.3849C41.3421 27.3849 44.9758 25.9595 47.79 23.6068C43.0673 20.3647 39.9727 14.9619 39.9727 8.84539C39.9727 4.29204 43.4482 0.542821 47.9194 0.0538427C48.1674 0.026509 48.4172 0.0127211 48.6706 0.00588764C48.7533 0.00588764 48.8323 0 48.9168 0C53.0573 0 56.5365 2.78017 57.5572 6.55657C57.6054 6.75029 57.6524 6.944 57.6956 7.14184C57.9903 8.51833 58.1449 9.94918 58.1449 11.4108C58.1449 15.256 57.0756 18.8549 55.2156 21.9303C56.1609 22.1371 57.1385 22.2493 58.1449 22.2493C63.4463 22.2493 68.0397 19.2283 70.2698 14.8379L70.2734 14.8392Z" fill="white"/>
<path d="M87.9541 28.697H92.7168V9.49662H101.324V4.69656H79.3473V9.49662H87.9541V28.697Z" fill="white"/>
<path d="M99.0986 20.1254C99.0986 25.2341 102.467 29.1084 108.216 29.1084C111.482 29.1084 113.591 28.0113 114.986 26.8455L113.115 23.1083C111.924 24.1369 110.325 24.8569 108.284 24.8569C106.311 24.8569 104.27 23.8626 103.725 21.5654L103.691 21.4968H116.21V20.2625C116.21 14.7424 113.012 11.1423 107.808 11.1423C102.467 11.1423 99.0986 15.051 99.0986 20.1253V20.1254ZM111.312 18.2054H103.657C104.099 16.1139 105.528 14.9825 107.671 14.9825C109.849 14.9825 111.107 16.3539 111.312 18.2054V18.2054Z" fill="white"/>
<path d="M118.035 20.1254C118.035 25.2341 121.403 29.1084 127.152 29.1084C130.418 29.1084 132.527 28.0113 133.922 26.8455L132.051 23.1083C130.86 24.1369 129.261 24.8569 127.22 24.8569C125.247 24.8569 123.206 23.8626 122.662 21.5654L122.628 21.4968H135.147V20.2625C135.147 14.7424 131.949 11.1423 126.744 11.1423C121.403 11.1423 118.035 15.051 118.035 20.1253L118.035 20.1254ZM130.248 18.2054H122.594C123.036 16.1139 124.465 14.9825 126.608 14.9825C128.785 14.9825 130.044 16.3539 130.248 18.2054Z" fill="white"/>
<path d="M137.618 16.5939C137.618 20.2626 140.612 21.4283 143.265 22.0112C146.191 22.6626 147.041 22.8683 147.041 23.7598C147.041 24.7198 146.055 25.0627 144.796 25.0627C142.244 25.0627 140.475 24.1026 139.387 22.834L136.767 26.2627C138.23 28.0798 140.918 29.1085 144.32 29.1085C149.014 29.1085 151.668 27.2913 151.668 23.5198C151.668 20.0911 149.457 18.8911 146.225 18.1368C143.095 17.4168 142.278 17.2454 142.278 16.4225C142.278 15.6682 143.027 15.2225 144.422 15.2225C146.157 15.2225 148.028 15.8396 149.048 16.9711L151.566 13.6796C150.035 12.0681 147.824 11.1424 144.796 11.1424C140.339 11.1424 137.618 13.0967 137.618 16.5939Z" fill="white"/>
<path d="M154.305 35.5543H158.795V26.2284C160.122 28.0799 162.163 29.1428 164.51 29.1428C169.069 29.1428 172.199 25.4398 172.199 20.1254C172.199 14.7768 169.035 11.1081 164.442 11.1081C162.095 11.1081 160.088 12.1024 158.795 13.9196V11.5539H154.305V35.5543ZM163.116 24.7198C160.496 24.7198 158.659 22.8683 158.659 20.1254C158.659 17.3825 160.496 15.5311 163.116 15.5311C165.735 15.5311 167.572 17.4168 167.572 20.1254C167.572 22.834 165.735 24.7198 163.116 24.7198Z" fill="white"/>
<path d="M179.422 14.3653V11.5538H175.102V28.697H179.592V20.9483C179.592 17.6568 180.919 15.9768 183.879 15.9768C184.593 15.9768 185.307 16.0454 185.92 16.251V11.3823C185.375 11.2451 184.865 11.1423 184.253 11.1423C181.871 11.1423 180.341 12.3766 179.422 14.3652V14.3653Z" fill="white"/>
<path d="M190.775 9.53093C192.442 9.53093 193.667 8.29663 193.667 6.65088C193.667 4.97085 192.442 3.73654 190.775 3.73654C189.142 3.73654 187.917 4.97085 187.917 6.65088C187.917 8.29663 189.142 9.53093 190.775 9.53093ZM193.02 11.5539H188.53V28.697H193.02V11.5539Z" fill="white"/>
<path d="M197.227 28.697H201.718V20.5026C201.718 17.2453 202.977 15.4968 205.358 15.4968C207.433 15.4968 208.522 16.7654 208.522 19.1997V28.697H213.114V17.9654C213.114 13.611 210.937 11.1424 207.127 11.1424C204.848 11.1424 202.875 12.171 201.582 14.1596V11.5538H197.227V28.697Z" fill="white"/>
<path d="M216.106 20.0569C216.106 25.3713 219.27 28.8684 224.1 28.8684C226.448 28.8684 228.421 27.9084 229.577 26.2284V27.3256C229.577 30.2742 227.911 31.7485 224.611 31.7485C222.57 31.7485 220.903 31.0285 219.44 29.5884L217.228 33.3257C219.168 35.1429 221.583 36 224.747 36C230.768 36 234 33.0514 234 27.5656V11.5538H229.509V13.9539C228.421 12.2053 226.312 11.1424 223.964 11.1424C219.338 11.1424 216.106 14.811 216.106 20.0569V20.0569ZM229.611 20.1255C229.611 22.8684 227.842 24.7198 225.223 24.7198C222.569 24.7198 220.732 22.8341 220.732 20.1255C220.732 17.4169 222.569 15.5311 225.223 15.5311C227.842 15.5311 229.611 17.3826 229.611 20.1255Z" fill="white"/>
</g>
<defs>
<clipPath id="clip0_1045_853">
<rect width="234" height="36" fill="white"/>
</clipPath>
</defs>
</svg>
