<svg width="210" height="70" viewBox="0 0 210 70" fill="none" xmlns="http://www.w3.org/2000/svg">
<path d="M31.3158 31.3176H18.421V35H31.3158V49.7387H11.0526L3.6842 42.3703V3.6842H18.421V16.5789H31.3158V31.3176Z" fill="white"/>
<path d="M86.5789 49.7387H42.3684L35 42.3703V16.5789H49.7368V35H53.4211V16.5789H68.1579V35H71.8421V16.5789H86.5789V49.7387Z" fill="white"/>
<path d="M105 16.5789H90.2632V49.7368H105V16.5789Z" fill="white"/>
<path d="M105 3.6842H90.2632V12.8947H105V3.6842Z" fill="white"/>
<path d="M136.316 31.3176H123.421V35H136.316V49.7387H116.053L108.684 42.3703V3.6842H123.421V16.5789H136.316V31.3176Z" fill="white"/>
<path d="M169.474 31.3176H154.737V35H169.474V49.7387H147.368L140 42.3703V23.9492L147.368 16.5789H169.474V31.3176Z" fill="white"/>
<path d="M206.316 49.7387H191.579V31.3176H187.895V49.7387H173.158V3.6842H187.895V16.5789H198.947L206.316 23.9492V49.7387Z" fill="white"/>
<path d="M200.789 12.8947H191.579V0H171.354L162.054 12.8947H145.526L140 18.4211V12.8947H127.105V0H86.5789V12.8947H29.5658L20.2632 0H0V44.2105L25.7895 70H51.5789V62.6316L58.9474 70H108.684V62.6316L116.053 70H140V62.6316L147.368 70H193.421L210 53.4211V22.1053L200.789 12.8947ZM31.3158 31.3158H18.4211V35H31.3158V49.7368H11.0526L3.68421 42.3684V3.68421H18.4211V16.5789H31.3158V31.3158ZM86.5789 49.7368H42.3684L35 42.3684V16.5789H49.7368V35H53.4211V16.5789H68.1579V35H71.8421V16.5789H86.5789V49.7368ZM105 49.7368H90.2632V16.5789H105V49.7368ZM105 12.8947H90.2632V3.68421H105V12.8947ZM136.316 31.3158H123.421V35H136.316V49.7368H116.053L108.684 42.3684V3.68421H123.421V16.5789H136.316V31.3158ZM169.474 31.3158H154.737V35H169.474V49.7368H147.368L140 42.3684V23.9474L147.368 16.5789H169.474V31.3158ZM206.316 49.7368H191.579V31.3158H187.895V49.7368H173.158V3.68421H187.895V16.5789H198.947L206.316 23.9474V49.7368Z" fill="#999999"/>
</svg>
