<svg width="221" height="46" viewBox="0 0 221 46" fill="none" xmlns="http://www.w3.org/2000/svg">
<path d="M101.27 11.4689C93.3432 11.4689 87.6278 16.6299 87.6278 24.3715C87.6278 32.113 94.0613 37.274 101.988 37.274C106.777 37.274 110.999 35.3816 113.613 32.1918L108.12 29.0236C106.67 30.6077 104.465 31.5324 101.988 31.5324C98.5489 31.5324 95.6266 29.7404 94.5423 26.8731H114.661C114.819 26.0703 114.913 25.2388 114.913 24.3643C114.913 16.6299 109.197 11.4689 101.27 11.4689ZM94.4777 21.8626C95.3753 19.0026 97.8309 17.2034 101.263 17.2034C104.702 17.2034 107.158 19.0026 108.048 21.8626H94.4777ZM178.587 11.4689C170.66 11.4689 164.945 16.6299 164.945 24.3715C164.945 32.113 171.378 37.274 179.305 37.274C184.094 37.274 188.316 35.3816 190.93 32.1918L185.437 29.0236C183.987 30.6077 181.782 31.5324 179.305 31.5324C175.866 31.5324 172.943 29.7404 171.859 26.8731H191.978C192.136 26.0703 192.23 25.2388 192.23 24.3643C192.23 16.6299 186.514 11.4689 178.587 11.4689ZM171.802 21.8626C172.699 19.0026 175.155 17.2034 178.587 17.2034C182.026 17.2034 184.482 19.0026 185.372 21.8626H171.802ZM143.777 24.3715C143.777 28.6723 146.592 31.5396 150.958 31.5396C153.916 31.5396 156.135 30.1991 157.276 28.0129L162.791 31.1883C160.507 34.9874 156.228 37.274 150.958 37.274C143.023 37.274 137.315 32.113 137.315 24.3715C137.315 16.6299 143.031 11.4689 150.958 11.4689C156.228 11.4689 160.5 13.7555 162.791 17.5546L157.276 20.7301C156.135 18.5438 153.916 17.2034 150.958 17.2034C146.599 17.2034 143.777 20.0706 143.777 24.3715ZM203 3.58404V36.5572H196.538V3.58404H203ZM26.531 0L53.062 45.8757H0L26.531 0ZM92.8622 3.58404L72.9657 37.9908L53.0692 3.58404H60.5295L72.9657 25.0883L85.4019 3.58404H92.8622ZM135.161 12.1857V19.1316C134.443 18.9237 133.682 18.7804 132.863 18.7804C128.692 18.7804 125.683 21.6476 125.683 25.9484V36.5572H119.221V12.1857H125.683V18.7804C125.683 15.139 129.927 12.1857 135.161 12.1857Z" fill="white"/>
</svg>
