<svg width="195" height="55" viewBox="0 0 195 55" fill="none" xmlns="http://www.w3.org/2000/svg">
<g clip-path="url(#clip0_1446_2499)">
<path d="M44.1953 25.787C44.0078 30.0004 41.0547 35.7589 35.3594 43.0857C29.4766 50.7401 24.4844 54.5557 20.4063 54.5557C17.875 54.5557 15.7422 52.2383 14.0078 47.58C12.8359 43.3197 11.6875 39.036 10.5156 34.7757C9.22656 30.1175 7.82031 27.8001 6.34375 27.8001C6.01562 27.8001 4.89062 28.4789 2.94531 29.8366L0.90625 27.2149C3.03906 25.3422 5.14844 23.4696 7.23438 21.5735C10.0938 19.1156 12.2266 17.8282 13.6562 17.6877C17.0312 17.36 19.0937 19.654 19.8672 24.5931C20.7109 29.9068 21.2969 33.2074 21.625 34.5182C22.5859 38.919 23.6641 41.1194 24.8359 41.1194C25.75 41.1194 27.1094 39.6915 28.9141 36.8357C30.7188 33.9798 31.7031 31.8029 31.8203 30.3048C32.0781 27.8469 31.1172 26.6063 28.9141 26.6063C27.8828 26.6063 26.8047 26.8403 25.7031 27.3085C27.8359 20.3563 31.8906 16.9621 37.8906 17.1493C42.3437 17.2664 44.4297 20.1456 44.1953 25.787Z" fill="white"/>
<path d="M70.9141 39.434C69.1094 42.8516 66.6016 45.9649 63.4375 48.7505C59.1016 52.4958 54.7422 54.3684 50.4063 54.3684C48.3906 54.3684 46.8437 53.713 45.7891 52.4255C44.7109 51.1381 44.2187 49.4527 44.2891 47.3694C44.3594 45.2392 45.0156 41.9386 46.2812 37.4677C47.5469 32.9967 48.1797 30.6091 48.1797 30.2813C48.1797 28.5959 47.5938 27.7533 46.4219 27.7533C46.0234 27.7533 44.9219 28.4321 43.1172 29.7898L40.8906 27.168C42.9531 25.2954 45.0391 23.4227 47.1016 21.5267C49.8906 19.0688 51.9531 17.7813 53.3359 17.6409C55.4688 17.4536 57.0391 18.0857 58.0469 19.537C59.0547 20.9883 59.4297 22.8843 59.1719 25.2018C58.3281 29.1343 57.4141 34.1437 56.4531 40.2064C56.3828 42.992 57.3906 44.3731 59.4766 44.3731C60.3906 44.3731 62.0078 43.4134 64.3281 41.4939C66.2734 39.9021 67.8672 38.404 69.0859 36.9995L70.9141 39.434ZM62.4531 4.90681C62.3828 6.52198 61.5859 8.06693 60.0156 9.54165C58.2578 11.227 56.1953 12.0463 53.8047 12.0463C50.1016 12.0463 48.3203 10.4312 48.4609 7.22423C48.5312 5.53883 49.5156 3.94707 51.4141 2.40213C53.3359 0.857187 55.4453 0.0847168 57.7891 0.0847168C59.1484 0.0847168 60.2734 0.623107 61.1875 1.67648C62.1016 2.72985 62.5234 3.80662 62.4531 4.90681Z" fill="white"/>
<path d="M131.617 39.434C129.813 42.8516 127.305 45.9649 124.141 48.7504C119.805 52.4958 115.445 54.3684 111.109 54.3684C106.891 54.3684 104.852 52.051 104.992 47.3928C105.062 45.3328 105.461 42.8282 106.211 39.9255C106.961 37.0229 107.359 34.7523 107.43 33.1371C107.5 30.6793 106.75 29.4386 105.18 29.4386C103.492 29.4386 101.477 31.4517 99.1328 35.4546C96.6719 39.668 95.3359 43.7411 95.125 47.6971C94.9844 50.4826 95.2656 52.6128 95.9453 54.1109C91.4219 54.2514 88.2578 53.5023 86.4531 51.8871C84.8359 50.4592 84.0859 48.095 84.2266 44.7944C84.2969 42.7345 84.6016 40.6512 85.1875 38.5913C85.75 36.5313 86.0781 34.6821 86.1484 33.0435C86.2891 30.6559 85.3984 29.462 83.5234 29.462C81.9062 29.462 80.1484 31.3113 78.2734 34.9864C76.3984 38.6849 75.3437 42.5238 75.1562 46.5501C75.0156 50.1783 75.25 52.7064 75.8594 54.1343C71.4062 54.2748 68.2422 53.3385 66.3906 51.3253C64.8437 49.64 64.1406 47.1119 64.2578 43.6708C64.3281 41.9855 64.6094 39.6446 65.1484 36.6484C65.6875 33.6521 65.9922 31.3113 66.0391 29.6259C66.1562 28.4555 65.875 27.8937 65.1719 27.8937C64.7734 27.8937 63.6719 28.5491 61.8672 29.86L59.5234 27.2383C59.8516 26.9808 61.8906 25.1081 65.6406 21.5969C68.3594 19.0688 70.2109 17.7813 71.1719 17.7111C72.8594 17.5707 74.2188 18.2729 75.25 19.7944C76.2813 21.316 76.7969 23.0716 76.7969 25.0847C76.7969 25.7401 76.7266 26.3488 76.6094 26.934C77.5703 25.4358 78.7187 24.1484 80.0078 23.0482C82.9844 20.4499 86.3359 18.9986 90.0156 18.6709C93.2031 18.4134 95.4531 19.1624 96.8125 20.8946C97.9141 22.3225 98.4297 24.359 98.3594 27.0042C98.8047 26.6296 99.2969 26.1849 99.8125 25.7401C101.312 23.9845 102.766 22.6034 104.195 21.5735C106.586 19.8179 109.094 18.8581 111.672 18.6709C114.789 18.4134 117.016 19.1624 118.375 20.8946C119.547 22.3225 120.062 24.3356 119.922 26.9808C119.852 28.7832 119.43 31.4049 118.609 34.8693C117.789 38.3104 117.391 40.3001 117.391 40.815C117.32 42.1727 117.461 43.109 117.789 43.624C118.117 44.139 118.891 44.3965 120.133 44.3965C121.047 44.3965 122.664 43.4368 124.984 41.5173C126.93 39.9255 128.523 38.4274 129.742 37.0229L131.617 39.434Z" fill="white"/>
<path d="M168.086 39.3403C166.211 42.4536 162.508 45.5435 157 48.6568C150.133 52.5894 143.172 54.5791 136.094 54.5791C130.844 54.5791 127.07 52.8235 124.82 49.3356C123.203 46.948 122.43 44.0922 122.477 40.7916C122.547 35.5482 124.867 30.5622 129.484 25.8338C134.547 20.6606 140.5 18.0622 147.367 18.0622C153.719 18.0622 157.094 20.6371 157.469 25.8104C157.727 29.1109 155.922 32.4817 152.031 35.9695C147.883 39.7851 142.656 42.1961 136.375 43.2261C137.547 44.8413 139.281 45.6371 141.625 45.6371C146.289 45.6371 151.375 44.4433 156.883 42.0791C160.844 40.4171 163.937 38.6849 166.211 36.8825L168.086 39.3403ZM146.008 29.1812C146.078 27.4489 145.352 26.5828 143.875 26.5828C141.93 26.5828 139.961 27.9171 137.945 30.5856C135.93 33.2542 134.898 35.8291 134.852 38.2635C134.805 38.2635 134.805 38.6849 134.852 39.5276C138.016 38.3806 140.781 36.6016 143.102 34.2139C144.977 32.154 145.937 30.492 146.008 29.1812Z" fill="white"/>
<path d="M194.477 32.8328C194.219 38.7785 192.016 43.9283 187.867 48.2589C183.719 52.5894 178.563 54.7429 172.398 54.7429C167.289 54.7429 163.398 53.1044 160.727 49.8038C158.781 47.3459 157.703 44.2795 157.516 40.6044C157.188 35.0566 159.203 29.9302 163.539 25.2954C168.203 20.1222 174.063 17.5473 181.141 17.5473C185.664 17.5473 189.109 19.0688 191.453 22.1119C193.656 24.8506 194.664 28.4321 194.477 32.8328ZM183.484 32.4583C183.555 30.7027 183.297 29.1109 182.758 27.6362C182.195 26.1849 181.422 25.4358 180.367 25.4358C177.063 25.4358 174.344 27.2149 172.211 30.7963C170.383 33.7224 169.422 36.8356 169.281 40.1362C169.211 41.7514 169.516 43.1793 170.148 44.4199C170.852 45.8478 171.859 46.5501 173.172 46.5501C176.078 46.5501 178.586 44.8413 180.648 41.4003C182.43 38.5444 183.367 35.5716 183.484 32.4583Z" fill="white"/>
</g>
<defs>
<clipPath id="clip0_1446_2499">
<rect width="195" height="55" fill="white"/>
</clipPath>
</defs>
</svg>
