<svg id="Layer_1" data-name="Layer 1" xmlns="http://www.w3.org/2000/svg" viewBox="0 0 1215.39 192.5"><defs><style>.cls-1{fill:#fff;}</style></defs><path class="cls-1" d="M51.93,4.75H0l103.5,179L207,4.75H155.07L103.5,93.93Z"/><path class="cls-1" d="M244.25,96.25c0,29.14,20,52.75,49.5,52.75C323,149,343,125,343,96.25c0-28.46-19.17-52.75-49.25-52.75S244.25,67.77,244.25,96.25Zm-44.75,0c0-24.83,8.95-48.66,27-66,17.87-17.17,42.72-25.5,67.25-25.5s49.36,8.31,67.25,25.5,26.75,41.34,26.75,66-8.7,49.3-26.5,66.75c-17.9,17.9-42.48,26.25-67.5,26.25-25.24,0-49.79-8.4-68-26.25C208,145.26,199.5,121.1,199.5,96.25Z"/><path class="cls-1" d="M535.57,8.75h40.75V192.5l-121-107.25v98.5h-40.5V0L535.57,107.25Z"/><path class="cls-1" d="M595.81,46.5V8.75h138.5V46.5H686.06V183.75H643.81V46.5Z"/><path class="cls-1" d="M753.45,8.75h43v175h-43Z"/><path class="cls-1" d="M920.27,120.5V88h88.5c1.52,25.47-4.85,51.54-21.25,71.5-16.85,20.52-42.17,29.75-68.25,29.75-25.25,0-50.28-7.76-68.75-25.5-18.23-17.88-27-42.19-27-67.5,0-25,9-49.53,27.75-66.5,18.92-17.13,44.27-25,69.5-25,32,0,61,14.7,79,41.5l-37.5,19.5a47.1,47.1,0,0,0-41.5-24.25c-31.49,0-53,24.52-53,54.75,0,31.23,21.46,56.25,53,56.25,21.62,0,39.07-11.21,46-32Z"/><path class="cls-1" d="M1071.89,96.25c0,29.14,20,52.75,49.5,52.75,29.85,0,49.25-24.49,49.25-52.75,0-29.13-19.71-52.75-49.25-52.75C1091.33,43.5,1071.89,67.77,1071.89,96.25Zm-44.75,0c0-24.83,8.95-48.66,27-66,17.87-17.17,42.72-25.5,67.25-25.5s49.36,8.31,67.25,25.5,26.75,41.34,26.75,66-8.7,49.3-26.5,66.75c-17.9,17.9-42.48,26.25-67.5,26.25-25.25,0-49.79-8.4-68-26.25C1035.64,145.26,1027.14,121.1,1027.14,96.25Z"/></svg>