<svg width="141" height="40" viewBox="0 0 141 40" fill="none" xmlns="http://www.w3.org/2000/svg">
<path d="M53.9414 12.8635C52.5432 10.8847 49.8737 10.0435 47.5857 10.0435C42.5014 10.0435 37.8816 13.9565 37.8816 20.2694C37.8816 26.5812 42.5014 30.4953 47.5857 30.4953C49.7896 30.4953 52.5432 29.6118 53.9414 27.6765V30.1165H59.4949V10.5059H53.9414V12.8623V12.8635ZM48.645 25.3576C47.9714 25.3589 47.3042 25.2281 46.6816 24.9728C46.059 24.7175 45.4933 24.3427 45.0169 23.8699C44.5405 23.3971 44.1627 22.8356 43.9053 22.2175C43.6479 21.5995 43.5159 20.937 43.5168 20.2682C43.5168 17.3647 45.8475 15.2188 48.6438 15.2188C51.228 15.2188 53.7707 17.2388 53.7707 20.2682C53.7719 23.2541 51.3572 25.3588 48.645 25.3588V25.3576ZM78.4505 12.8212C77.0109 10.927 74.3413 10.0447 72.0948 10.0447C67.0105 10.0447 62.3919 13.9565 62.3919 20.2682C62.3919 26.5812 67.0105 30.4953 72.096 30.4953C74.2999 30.4953 77.0109 29.6118 78.4517 27.7188V28.0129C78.4517 33.1459 76.2051 35.0812 72.6458 35.0812C70.5249 35.0812 68.4928 33.8188 67.648 32.0518L63.0293 34.0282C64.7202 37.6447 68.4051 40 72.6446 40C79.6354 40 84.0004 36.0035 84.0004 27.4188V10.5059H78.4505V12.82V12.8212ZM73.1505 25.3588C72.477 25.3599 71.8098 25.229 71.1873 24.9735C70.5647 24.7181 69.9991 24.3432 69.5228 23.8702C69.0465 23.3973 68.6689 22.8357 68.4116 22.2176C68.1544 21.5995 68.0225 20.937 68.0236 20.2682C68.0236 17.3647 70.3542 15.2188 73.1505 15.2188C75.7347 15.2188 78.2775 17.2388 78.2775 20.2682C78.2799 23.2541 75.8639 25.3588 73.1505 25.3588ZM102.957 12.8212C101.516 10.927 98.8457 10.0447 96.6004 10.0447C91.5173 10.0447 86.8974 13.9565 86.8974 20.2682C86.8974 26.5812 91.5161 30.4953 96.6016 30.4953C98.8054 30.4953 101.516 29.6118 102.957 27.7188V28.0129C102.957 33.1459 100.711 35.0812 97.1513 35.0812C95.0304 35.0812 92.9984 33.8188 92.1535 32.0518L87.5325 34.0247C89.2281 37.6435 92.9142 40 97.1513 40C104.142 40 108.507 36.0035 108.507 27.4188V10.5059H102.957V12.82V12.8212ZM97.6608 25.3588C96.9872 25.3601 96.3198 25.2292 95.6972 24.9739C95.0745 24.7185 94.5088 24.3436 94.0323 23.8707C93.5559 23.3977 93.1782 22.836 92.9209 22.2179C92.6635 21.5997 92.5316 20.9371 92.5327 20.2682C92.5327 17.3647 94.8634 15.2188 97.6597 15.2188C100.245 15.2188 102.787 17.2388 102.787 20.2682C102.787 23.2541 100.372 25.3588 97.6597 25.3588H97.6608ZM134.339 0.0305786H139.89V30.1118H134.339V0.0305786ZM121.751 9.91058C115.887 9.91058 111.448 14.3576 111.448 20.18C111.448 26.0835 116.01 30.5306 122.117 30.5306C125.293 30.5306 128.266 29.3188 130.261 27.1729L127.37 23.4129C125.985 24.787 124.072 25.5965 122.117 25.5965C119.959 25.5965 118.331 24.6259 117.434 23.0482C120.937 22.0776 125.985 21.4718 131.279 21.4306C131.343 20.9765 131.371 20.5165 131.362 20.0576C131.321 13.9941 127.412 9.91058 121.751 9.91058ZM116.864 19.0882C117.272 16.5412 119.063 14.8435 121.588 14.8435C123.664 14.8435 125.212 15.9353 125.741 17.7141C122.687 17.8353 119.551 18.3212 116.864 19.0882V19.0882ZM6.63053 30.5012C6.20618 30.5 5.78385 30.443 5.37457 30.3318C1.05096 29.1729 0.239322 23.007 0.0153809 17.127L5.98952 16.9023C6.14592 21.0035 6.61631 23.0435 6.96111 24.0141C7.37226 23.6141 7.84384 23.0965 8.2076 22.6988C10.2586 20.4518 13.0691 17.3765 17.3228 17.2929H17.4958C21.8799 17.2929 24.7437 20.5941 26.6466 22.787C26.9831 23.1753 27.4215 23.6812 27.7983 24.0706C28.2983 23.1294 28.8884 21.3141 28.9891 18.9129C29.1372 15.3929 28.1858 12.0741 26.3776 9.80705C24.5138 7.46823 21.8633 6.32234 19.9698 5.77175L21.6464 0.074108C25.5589 1.2094 28.8149 3.29999 31.0662 6.12117C35.4834 11.6623 35.7263 19.4153 34.007 24.6423C32.9762 27.7776 31.3186 29.74 29.2166 30.3176C26.0423 31.1882 23.8645 28.6765 22.1157 26.6588C20.3561 24.6294 18.9923 23.1894 17.4413 23.227C15.7659 23.26 14.1746 25.0012 12.6355 26.6859C11.0596 28.4118 9.15194 30.5012 6.63053 30.5012V30.5012Z" fill="white"/>
</svg>
