<svg width="210" height="45" viewBox="0 0 210 45" fill="none" xmlns="http://www.w3.org/2000/svg">
<g clip-path="url(#clip0_1045_705)">
<path d="M85.0604 11.1655L79.1286 32.9049H75.1534L70.3707 17.0351L65.588 32.9049H61.5818L55.65 11.1655H59.9358L63.7557 26.6626L68.4452 11.1655H72.4204L77.1099 26.6937L80.9299 11.1655H85.0604ZM99.1537 21.8178V32.9049H95.3958V30.5757C94.3192 32.3563 92.6422 33.2465 90.3647 33.2465C88.9568 33.2465 87.7353 32.8532 86.7001 32.0664C85.7063 31.2589 85.2094 30.0684 85.2094 28.4949C85.2094 25.7206 86.9071 24.0849 90.3026 23.588L93.5325 23.1222C94.7747 22.9358 95.3958 22.3768 95.3958 21.4451C95.3958 20.9068 95.1474 20.5031 94.6505 20.2339C94.1743 19.9441 93.5428 19.7992 92.7561 19.7992C91.7415 19.7992 90.9651 19.9958 90.4268 20.3892C89.9092 20.7826 89.5469 21.3727 89.3399 22.1594H85.6752C85.9858 20.3582 86.7829 18.9917 88.0665 18.06C89.3709 17.1076 91.048 16.6314 93.0977 16.6314C95.0232 16.6314 96.5139 17.0662 97.5698 17.9358C98.6257 18.7846 99.1537 20.0787 99.1537 21.8178V21.8178ZM95.3027 26.1968V25.3272C94.93 25.4721 94.2468 25.6274 93.253 25.793L91.638 26.0415C89.9196 26.2692 89.0603 26.9835 89.0603 28.1844C89.0603 29.4266 89.8264 30.0477 91.3585 30.0477C92.5387 30.0477 93.4807 29.6751 94.1846 28.9297C94.93 28.1844 95.3027 27.2734 95.3027 26.1968V26.1968ZM111.369 29.4887V32.9049H108.854C107.156 32.9049 105.914 32.5426 105.127 31.818C104.34 31.0726 103.947 29.7061 103.947 27.7185V20.3892H101.027V16.9109H103.947V13.3084L107.798 12.2525V16.9109H110.996V20.3892H107.798V27.5632C107.798 28.2258 107.932 28.7123 108.201 29.0229C108.491 29.3334 108.999 29.4887 109.723 29.4887H111.369ZM127.792 26.0725H116.643C116.684 27.3148 117.057 28.2672 117.761 28.9297C118.485 29.5923 119.459 29.9235 120.68 29.9235C122.419 29.9235 123.548 29.3127 124.065 28.0912H127.668C127.254 29.7268 126.384 31.0001 125.059 31.9111C123.734 32.8014 122.223 33.2465 120.525 33.2465C118.351 33.2465 116.539 32.5219 115.09 31.0726C113.641 29.6233 112.916 27.6046 112.916 25.0166C112.916 22.3872 113.651 20.3375 115.121 18.8675C116.591 17.3768 118.423 16.6314 120.618 16.6314C122.688 16.6314 124.397 17.325 125.742 18.7122C127.109 20.0787 127.792 22.0042 127.792 24.4887V26.0725ZM116.736 23.2464H124.003C124.003 22.2112 123.693 21.4037 123.071 20.824C122.471 20.2443 121.643 19.9544 120.587 19.9544C119.552 19.9544 118.693 20.2339 118.009 20.793C117.326 21.352 116.902 22.1698 116.736 23.2464V23.2464ZM139.79 16.7246V20.4824H138.766C135.991 20.4824 134.604 22.0145 134.604 25.0787V32.9049H130.753V16.9109H134.573V19.2712C135.339 17.5734 136.726 16.7246 138.735 16.7246H139.79ZM154.837 27.9359C154.837 29.6751 154.184 30.9898 152.88 31.8801C151.555 32.7911 149.95 33.2465 148.066 33.2465C146.182 33.2465 144.547 32.8014 143.159 31.9111C141.772 31.0208 141.016 29.644 140.892 27.7806H144.774C144.899 28.526 145.261 29.0953 145.861 29.4887C146.482 29.8821 147.28 30.0788 148.253 30.0788C150.116 30.0788 151.048 29.4991 151.048 28.3396C151.048 27.8634 150.851 27.5322 150.458 27.3458C150.085 27.1388 149.298 26.9318 148.097 26.7247C146.545 26.4556 145.375 26.1968 144.588 25.9483C142.455 25.3065 141.389 23.8986 141.389 21.7246C141.389 20.0062 141.99 18.7329 143.19 17.9047C144.412 17.0558 145.934 16.6314 147.756 16.6314C149.702 16.6314 151.275 17.1076 152.476 18.06C153.698 18.9917 154.36 20.3168 154.464 22.0352H150.706C150.54 20.5652 149.567 19.8302 147.787 19.8302C146.938 19.8302 146.286 19.9958 145.83 20.3271C145.375 20.6377 145.147 21.0621 145.147 21.6004C145.147 22.1387 145.385 22.5218 145.861 22.7495C146.358 22.9773 147.238 23.1843 148.501 23.3706C149.868 23.5777 150.965 23.7951 151.793 24.0228C153.822 24.6025 154.837 25.9069 154.837 27.9359V27.9359ZM171.834 22.5942V32.9049H167.983V22.9358C167.983 22.0249 167.724 21.3209 167.206 20.824C166.689 20.3271 165.954 20.0787 165.001 20.0787C163.883 20.0787 163.014 20.4513 162.392 21.1967C161.792 21.9213 161.492 22.9462 161.492 24.2713V32.9049H157.641V10.8239H161.492V19.2712C162.009 18.3809 162.641 17.7184 163.386 17.2836C164.132 16.8488 165.115 16.6314 166.337 16.6314C168.138 16.6314 169.504 17.149 170.436 18.1842C171.368 19.1987 171.834 20.6687 171.834 22.5942V22.5942ZM189.514 26.0725H178.365C178.406 27.3148 178.779 28.2672 179.483 28.9297C180.208 29.5923 181.181 29.9235 182.402 29.9235C184.142 29.9235 185.27 29.3127 185.787 28.0912H189.39C188.976 29.7268 188.106 31.0001 186.781 31.9111C185.456 32.8014 183.945 33.2465 182.247 33.2465C180.073 33.2465 178.262 32.5219 176.812 31.0726C175.363 29.6233 174.638 27.6046 174.638 25.0166C174.638 22.3872 175.373 20.3375 176.843 18.8675C178.313 17.3768 180.146 16.6314 182.34 16.6314C184.411 16.6314 186.119 17.325 187.465 18.7122C188.831 20.0787 189.514 22.0042 189.514 24.4887V26.0725ZM178.458 23.2464H185.725C185.725 22.2112 185.415 21.4037 184.794 20.824C184.193 20.2443 183.365 19.9544 182.309 19.9544C181.274 19.9544 180.415 20.2339 179.732 20.793C179.048 21.352 178.624 22.1698 178.458 23.2464V23.2464ZM207.413 10.8239V32.9049H203.624V30.4515C203.189 31.3211 202.517 32.0043 201.606 32.5012C200.715 32.9981 199.701 33.2465 198.562 33.2465C196.471 33.2465 194.752 32.5219 193.407 31.0726C192.061 29.6026 191.388 27.5425 191.388 24.8924C191.388 22.2837 192.061 20.2546 193.407 18.8053C194.752 17.3561 196.471 16.6314 198.562 16.6314C199.639 16.6314 200.622 16.8488 201.512 17.2836C202.403 17.6977 203.086 18.2774 203.562 19.0227V10.8239H207.413ZM203.655 24.8924C203.655 23.3603 203.241 22.1698 202.413 21.3209C201.606 20.472 200.622 20.0476 199.463 20.0476C198.241 20.0476 197.237 20.4824 196.45 21.352C195.684 22.2008 195.301 23.381 195.301 24.8924C195.301 26.3831 195.684 27.5632 196.45 28.4328C197.237 29.2817 198.241 29.7061 199.463 29.7061C200.622 29.7061 201.606 29.2817 202.413 28.4328C203.241 27.5632 203.655 26.3831 203.655 24.8924Z" fill="white"/>
<path d="M22.1831 0C9.93359 0 0 9.93359 0 22.1831H11.0915C11.0915 12.4758 14.7873 2.77289 22.1831 0Z" fill="white"/>
<path d="M33.2747 22.1822H44.3662C44.3662 9.93322 34.4326 0 22.1831 0C29.5789 2.77278 33.2747 12.4753 33.2747 22.1822Z" fill="white"/>
<path d="M33.2747 22.1831C33.2747 31.8904 29.5789 41.5933 22.1831 44.3662C34.4326 44.3662 44.3662 34.4326 44.3662 22.1831H33.2747Z" fill="white"/>
<path d="M11.0913 22.1831H0C0 34.4326 9.93337 44.3662 22.1826 44.3662C14.7869 41.5933 11.0913 31.8904 11.0913 22.1831Z" fill="white"/>
<path d="M33.2747 22.1831H22.1831V44.3662C29.5789 41.5933 33.2747 31.8904 33.2747 22.1831Z" fill="white"/>
<path d="M33.2747 22.1822C33.2747 12.4753 29.5789 2.77278 22.1831 0V22.1822H33.2747Z" fill="white"/>
<path d="M11.0916 22.1822H22.1831C22.1831 2.77278 22.1831 0 22.1831 0C14.7873 2.77278 11.0916 12.4753 11.0916 22.1822Z" fill="white"/>
<path d="M11.0916 22.1831C11.0916 31.8904 14.7873 41.5933 22.1831 44.3662C22.1831 44.3662 22.1831 41.5933 22.1831 22.1831H11.0916Z" fill="white"/>
</g>
<defs>
<clipPath id="clip0_1045_705">
<rect width="210" height="44.3662" fill="white"/>
</clipPath>
</defs>
</svg>
