<svg  width="223" height="49" viewBox="0 0 1012 222" fill="none" xmlns="http://www.w3.org/2000/svg">
<path d="M355.174 53.866H310.623C306.598 53.874 303.29 57.186 303.286 61.21V71.164C303.366 73.794 305.554 75.913 308.185 75.907H315.53C315.75 75.908 315.956 76.016 316.083 76.196C316.163 76.3074 316.215 76.4358 316.237 76.5709C316.258 76.7061 316.248 76.8444 316.207 76.975L298.753 129.29C298.673 129.449 298.549 129.582 298.396 129.672C298.243 129.762 298.067 129.805 297.889 129.797C297.735 129.805 297.584 129.759 297.461 129.666C297.338 129.573 297.253 129.44 297.219 129.29L271.166 58.523V58.484C270.816 57.629 270.234 56.8891 269.485 56.3482C268.736 55.8073 267.851 55.4872 266.929 55.424H251.196C250.272 55.4843 249.383 55.8032 248.631 56.3443C247.879 56.8853 247.295 57.6267 246.944 58.484V58.523L220.844 129.29C220.816 129.449 220.731 129.593 220.605 129.695C220.479 129.796 220.321 129.849 220.159 129.843C219.981 129.851 219.805 129.808 219.652 129.718C219.498 129.628 219.374 129.496 219.294 129.337L201.848 76.982C201.808 76.8504 201.799 76.711 201.824 76.5755C201.848 76.44 201.904 76.3123 201.988 76.203C202.048 76.1135 202.129 76.0403 202.224 75.99C202.319 75.9398 202.425 75.914 202.533 75.915H209.886C212.515 75.921 214.701 73.801 214.777 71.172V61.21C214.777 57.184 211.466 53.87 207.44 53.866H162.889C162.113 53.8655 161.347 54.0512 160.658 54.4075C159.968 54.7639 159.374 55.2805 158.925 55.914C158.495 56.4942 158.208 57.1673 158.086 57.879C157.965 58.5906 158.012 59.3209 158.224 60.011C158.855 61.826 159.595 64.022 160.358 66.242C161.121 68.462 161.838 70.611 162.515 72.558C162.827 73.513 163.429 74.3469 164.237 74.9432C165.046 75.5395 166.02 75.8684 167.025 75.884H174.525C174.716 75.8816 174.902 75.9379 175.06 76.0453C175.218 76.1526 175.338 76.3057 175.406 76.484L209.963 178.358C210.27 179.316 210.871 180.154 211.68 180.752C212.49 181.35 213.467 181.679 214.473 181.692H225.19C226.166 181.687 227.117 181.386 227.919 180.83C228.721 180.274 229.336 179.489 229.684 178.577C239.225 151.028 257.427 98.51 258.144 96.719C258.196 96.5257 258.31 96.355 258.47 96.2337C258.629 96.1125 258.824 96.0475 259.024 96.049C259.214 96.0447 259.4 96.1013 259.556 96.2105C259.711 96.3197 259.828 96.4758 259.888 96.656C260.62 98.51 278.83 151.028 288.355 178.545C288.696 179.467 289.309 180.264 290.113 180.83C290.917 181.396 291.874 181.705 292.857 181.715H303.574C304.582 181.701 305.56 181.371 306.371 180.772C307.181 180.172 307.783 179.334 308.092 178.374L342.642 76.546C342.977 75.946 343.358 75.946 343.53 75.946H351.022C352.02 75.9336 352.989 75.6104 353.794 75.0214C354.6 74.4325 355.202 73.607 355.516 72.66C356.244 70.5573 356.963 68.4516 357.674 66.343C358.398 64.193 359.193 61.88 359.816 60.112C360.036 59.4196 360.088 58.6846 359.968 57.968C359.847 57.2515 359.557 56.574 359.122 55.992C358.684 55.3458 358.096 54.8151 357.409 54.4449C356.721 54.0747 355.955 53.8761 355.174 53.866ZM876.681 161.169H868.566C867.962 161.155 867.386 160.908 866.96 160.48C866.533 160.052 866.288 159.475 866.276 158.871V58.461C866.258 57.604 865.906 56.7879 865.295 56.1868C864.684 55.5856 863.862 55.247 863.005 55.243L862.903 55.244H839.335C838.84 55.252 838.351 55.3652 837.903 55.576C837.455 55.7869 837.056 56.0906 836.734 56.467L826.936 68.711C826.474 69.2952 826.223 70.0182 826.223 70.763C826.226 71.6135 826.556 72.4304 827.143 73.0454C827.731 73.6604 828.531 74.0268 829.381 74.069H832.442C833.051 74.1032 833.625 74.3604 834.057 74.7915C834.488 75.2226 834.745 75.7973 834.779 76.406V158.56C834.747 159.217 834.537 159.852 834.171 160.398C831.562 163.77 825.9 170.811 823.15 174.332C822.619 174.937 822.326 175.715 822.326 176.521C822.33 177.391 822.674 178.226 823.285 178.846C823.896 179.465 824.726 179.822 825.596 179.838H866.883C867.317 179.871 867.752 179.805 868.157 179.646C868.562 179.487 868.925 179.239 869.22 178.919L878.862 166.831C880.965 164.378 879.438 161.169 876.681 161.169Z" fill="white"/>
<path d="M850.356 41.778C860.163 41.778 868.114 33.8275 868.114 24.02C868.114 14.2125 860.163 6.26199 850.356 6.26199C840.549 6.26199 832.598 14.2125 832.598 24.02C832.598 33.8275 840.549 41.778 850.356 41.778Z" fill="white"/>
<path d="M1006.63 65.65C1006.63 63.968 1005.71 62.285 1003.41 62.285H999.285V73.15H1000.84V69.17H1002.22L1004.98 73.15H1006.81L1003.9 69.022C1005.87 68.867 1006.63 67.184 1006.63 65.65ZM1000.81 67.644V63.664H1003.57C1003.81 63.675 1004.05 63.7363 1004.27 63.8441C1004.49 63.9518 1004.69 64.1036 1004.84 64.29C1005 64.4765 1005.12 64.6935 1005.19 64.9275C1005.26 65.1615 1005.28 65.4075 1005.25 65.65C1005.28 65.9009 1005.25 66.1546 1005.17 66.3945C1005.09 66.6345 1004.97 66.8555 1004.8 67.0434C1004.63 67.2312 1004.42 67.3817 1004.19 67.4851C1003.96 67.5886 1003.72 67.6427 1003.46 67.644H1003.41H1000.81Z" fill="white"/>
<path d="M1002.65 58.305C997.522 58.305 993.303 62.524 993.303 67.652C993.303 72.779 997.522 76.998 1002.65 76.998C1007.78 76.998 1012 72.779 1012 67.652C1012 62.524 1007.78 58.305 1002.65 58.305ZM1002.65 75.604H1002.59C998.258 75.604 994.69 72.035 994.69 67.699V67.644C994.688 67.586 994.688 67.528 994.688 67.471C994.688 63.198 998.204 59.682 1002.48 59.682L1002.65 59.684C1007.02 59.684 1010.61 63.277 1010.61 67.644C1010.61 72.01 1007.02 75.604 1002.65 75.604ZM471.488 161.629C464.603 161.932 461.231 158.716 461.231 150.911V94.584C461.231 69.941 440.568 54.325 417.303 54.325C381.18 54.325 368.173 71.46 366.677 90.605C366.654 91.0573 366.723 91.5095 366.88 91.9343C367.036 92.3592 367.278 92.7479 367.589 93.0769C367.9 93.4059 368.275 93.6684 368.69 93.8486C369.105 94.0287 369.553 94.1227 370.006 94.125H387.8C388.619 94.0996 389.4 93.7734 389.993 93.2088C390.586 92.6441 390.951 91.8805 391.017 91.064C391.936 81.11 398.665 73.766 409.842 73.766C422.241 73.766 429.742 80.043 429.742 94.273V106.524H423.308C401.118 106.524 385.814 109.43 375.556 115.871C365.299 122.312 360.096 134.244 360.096 148.17C360.096 158.427 363.616 166.862 370.657 173.576C377.698 180.29 385.962 183.226 396.835 183.226C403.311 183.235 409.703 181.767 415.527 178.935C421.264 176.378 426.58 172.964 431.291 168.81C431.553 168.561 431.87 168.377 432.215 168.271C432.561 168.166 432.926 168.142 433.283 168.201C433.639 168.261 433.977 168.403 434.269 168.615C434.562 168.827 434.801 169.105 434.968 169.425C440.022 178.304 445.529 181.209 456.09 181.209C465.585 181.209 470.172 172.33 474.308 166.972C475.772 164.837 474.09 161.473 471.488 161.629ZM429.851 152.594H429.703C429.703 153.373 428.48 154.432 428.02 154.891C425.124 157.321 421.934 159.378 418.526 161.013C415.432 162.33 412.089 162.957 408.728 162.851C403.837 162.851 398.938 161.013 395.721 157.493C392.46 153.896 390.707 149.184 390.822 144.33C390.822 136.978 393.579 132.086 399.086 128.41C404.592 124.734 413.627 123.06 424.492 123.06H429.843L429.851 152.594ZM810.097 161.629C803.212 161.932 799.839 158.716 799.839 150.911V94.584C799.839 69.941 779.176 54.325 755.912 54.325C719.788 54.325 706.781 71.46 705.286 90.605C705.263 91.0572 705.332 91.5094 705.488 91.9343C705.645 92.3591 705.886 92.7478 706.197 93.0768C706.508 93.4059 706.883 93.6684 707.298 93.8485C707.714 94.0287 708.161 94.1227 708.614 94.125H726.408C727.227 94.0998 728.008 93.7737 728.601 93.209C729.195 92.6443 729.559 91.8806 729.625 91.064C730.544 81.11 737.281 73.766 748.45 73.766C760.85 73.766 768.35 80.043 768.35 94.273V106.524H761.924C739.727 106.524 724.422 109.43 714.165 115.871C703.907 122.312 698.65 134.228 698.65 148.154C698.65 158.412 702.17 166.847 709.211 173.561C716.252 180.274 724.516 183.211 735.389 183.211C741.865 183.219 748.257 181.751 754.081 178.919C759.819 176.363 765.134 172.949 769.845 168.794C770.108 168.546 770.424 168.363 770.77 168.258C771.115 168.153 771.48 168.129 771.836 168.189C772.192 168.248 772.53 168.389 772.822 168.601C773.115 168.813 773.354 169.089 773.522 169.409C778.576 178.288 784.083 181.193 794.644 181.193C804.138 181.193 808.726 172.314 812.862 166.956C814.38 164.837 812.698 161.473 810.097 161.629ZM768.467 152.594H768.311C768.311 153.373 767.088 154.432 766.629 154.891C763.733 157.321 760.543 159.378 757.134 161.013C754.043 162.33 750.702 162.957 747.344 162.851C742.445 162.851 737.546 161.013 734.329 157.493C731.069 153.895 729.316 149.183 729.43 144.33C729.43 136.978 732.188 132.086 737.694 128.41C743.201 124.734 752.235 123.052 763.108 123.052H768.467V152.594ZM977.948 54.808C976.305 53.936 972.177 53.539 968.602 53.539C962.8 53.539 958.235 54.318 954.24 56.031L953.921 56.171C952.413 56.8483 950.975 57.6726 949.629 58.632C944.602 61.7568 940.093 65.6462 936.264 70.16C932.435 74.673 934.543 71.452 934.247 69.279V58.111C934.235 57.2388 933.883 56.4057 933.266 55.7889C932.649 55.1721 931.816 54.8202 930.944 54.808H907.228C906.76 54.8073 906.298 54.912 905.876 55.1144C905.454 55.3168 905.083 55.6116 904.79 55.977C904.198 56.716 897.352 65.284 894.907 68.438C893.458 70.292 894.338 73.812 897.508 73.812H900.468C901.084 73.825 901.67 74.0755 902.106 74.511C902.541 74.9465 902.791 75.5334 902.804 76.149V158.708C902.808 159.361 902.618 160.001 902.259 160.546C899.922 163.412 893.995 170.881 891.098 174.565C890.647 175.147 890.401 175.862 890.401 176.599C890.405 177.464 890.744 178.293 891.348 178.912C891.952 179.531 892.773 179.891 893.637 179.916H944.769C945.643 179.912 946.481 179.563 947.099 178.944C947.718 178.326 948.067 177.488 948.071 176.614V164.339C948.067 163.464 947.718 162.627 947.099 162.008C946.481 161.39 945.643 161.041 944.769 161.037H936.653C936.034 161.034 935.442 160.787 935.004 160.349C934.567 159.912 934.32 159.319 934.317 158.7V110.652C935.244 87.793 948.881 80.822 955.432 78.781L956.374 78.501L956.631 78.439C958.412 77.9748 960.243 77.7313 962.083 77.714C969.872 77.714 972.769 78.875 977.006 79.965C978.766 80.417 980.308 78.485 980.308 76.663V57.97C980.262 56.529 979.101 55.416 977.948 54.808ZM699.639 55.244H662.542C661.93 55.2312 661.347 54.9798 660.918 54.5434C660.489 54.107 660.247 53.5202 660.244 52.908V34.581C660.244 25.702 664.84 16.823 674.326 16.823C685.043 16.823 686.726 25.858 687.185 32.743C687.243 33.5772 687.6 34.3624 688.191 34.9537C688.783 35.5449 689.568 35.9024 690.402 35.96H705.706C706.539 35.9222 707.324 35.5623 707.897 34.9564C708.47 34.3504 708.784 33.5457 708.775 32.712C708.464 9.782 693.922 0 670.502 0C656.265 0 646.934 4.439 639.893 13.015C632.852 21.59 629.332 31.061 629.332 48.204V52.799C629.317 53.4017 629.071 53.9757 628.645 54.402C628.219 54.8283 627.645 55.0743 627.042 55.089L563.736 55.244L563.635 55.243C562.778 55.2467 561.956 55.5853 561.345 56.1865C560.734 56.7877 560.382 57.6039 560.364 58.461V70.876C560.378 71.7653 560.738 72.6142 561.367 73.2424C561.997 73.8707 562.847 74.2289 563.736 74.241H570.528C571.143 74.2496 571.73 74.4992 572.162 74.9361C572.595 75.3729 572.839 75.9621 572.842 76.577C572.842 76.879 572.783 77.178 572.67 77.457C572.556 77.737 555.223 118.02 548.182 134.244C548 134.661 547.701 135.015 547.32 135.264C546.94 135.513 546.496 135.646 546.041 135.647C545.586 135.647 545.141 135.514 544.761 135.264C544.381 135.015 544.081 134.661 543.899 134.244C536.702 117.888 519.1 77.457 519.1 77.457C518.986 77.1776 518.928 76.8787 518.928 76.577C518.931 75.9621 519.175 75.3729 519.608 74.9361C520.04 74.4992 520.627 74.2496 521.242 74.241H525.985C526.874 74.2289 527.724 73.8707 528.354 73.2424C528.983 72.6142 529.343 71.7653 529.357 70.876V58.461C529.34 57.604 528.988 56.7878 528.377 56.1866C527.766 55.5854 526.944 55.2467 526.087 55.243L525.985 55.244H468.731C467.855 55.2612 467.02 55.6203 466.405 56.2446C465.79 56.8688 465.444 57.7088 465.44 58.585C465.44 59.128 465.573 59.663 465.826 60.143C467.508 63.204 471.333 70.401 472.407 72.543C472.689 73.0316 473.09 73.4416 473.572 73.7354C474.054 74.0293 474.601 74.1976 475.165 74.225H486.185C487.107 74.221 487.949 74.763 488.327 75.604C488.705 76.445 529.038 167.049 530.572 170.258C532.135 174.343 532.118 178.864 530.526 182.938C528.664 190.4 516.117 203.78 509.216 201.397C504.434 199.746 503.819 191.139 498.156 190.034C497.104 189.854 496.023 189.981 495.041 190.4C494.052 190.789 484.799 202.682 482.766 204.769C482.26 205.397 481.985 206.179 481.985 206.985C481.985 207.791 482.26 208.573 482.766 209.201C487.844 214.412 496.349 221.453 508.585 221.912C523.664 222.52 538.587 220.502 552.318 194.325C552.318 194.325 596.168 87.185 601.386 75.604C601.605 75.2303 601.917 74.9206 602.293 74.706C602.669 74.4913 603.095 74.3793 603.528 74.381H626.668C627.279 74.3837 627.864 74.6244 628.301 75.052C628.737 75.4796 628.989 76.0604 629.004 76.671V159.019C629.017 159.683 628.803 160.331 628.397 160.857C625.64 164.378 620.126 171.271 617.376 174.791C616.899 175.376 616.638 176.109 616.638 176.864C616.642 177.732 616.989 178.564 617.603 179.178C618.217 179.792 619.049 180.139 619.917 180.143L619.978 180.142H671.709C672.599 180.132 673.45 179.774 674.08 179.146C674.71 178.517 675.07 177.667 675.082 176.777V164.534C675.07 163.644 674.71 162.794 674.08 162.165C673.45 161.537 672.599 161.179 671.709 161.169H662.822C662.218 161.154 661.643 160.907 661.216 160.479C660.79 160.051 660.545 159.475 660.533 158.871V76.523C660.545 75.9189 660.79 75.3428 661.216 74.9147C661.643 74.4866 662.218 74.2396 662.822 74.225H690.129C690.624 74.2161 691.112 74.1026 691.561 73.8918C692.009 73.681 692.408 73.3778 692.731 73.002C695.067 69.941 699.74 63.82 702.225 60.603C702.675 60.021 702.919 59.305 702.919 58.57C702.915 57.6971 702.57 56.8603 701.957 56.2388C701.344 55.6172 700.512 55.2602 699.639 55.244Z" fill="white"/>
<path d="M141.424 94.865L132.498 61.179C132.352 60.6167 132.059 60.1037 131.648 59.693C131.237 59.2822 130.724 58.9888 130.162 58.843L96.476 49.917C95.9284 49.7755 95.3534 49.7786 94.8074 49.926C94.2613 50.0734 93.7629 50.3601 93.361 50.758L70.774 73.345L118.011 120.583L140.598 97.996C140.995 97.5905 141.28 97.0886 141.425 96.5397C141.57 95.9908 141.569 95.4137 141.424 94.865Z" fill="#CCCCCC"/>
<path d="M0.108004 146.316L9.041 179.994C9.18701 180.556 9.48063 181.07 9.89151 181.481C10.3024 181.891 10.8156 182.185 11.378 182.331L45.071 191.264C45.6195 191.404 46.1949 191.399 46.741 191.251C47.2872 191.102 47.7854 190.814 48.187 190.415L70.774 167.828L23.544 120.583L0.957004 143.17C0.553055 143.575 0.262121 144.078 0.113167 144.63C-0.0357884 145.182 -0.0375685 145.763 0.108004 146.316Z" fill="#CCCCCC"/>
<path d="M45.04 49.917L11.355 58.85C10.7926 58.996 10.2794 59.2896 9.8685 59.7005C9.45763 60.1114 9.164 60.6246 9.018 61.187L0.107996 94.849C-0.0320205 95.3974 -0.0274008 95.9729 0.121404 96.519C0.270209 97.0651 0.558112 97.5634 0.956996 97.965L23.544 120.552L70.774 73.322L48.187 50.735C47.7791 50.3364 47.2741 50.0513 46.7222 49.9078C46.1702 49.7644 45.5904 49.7675 45.04 49.917Z" fill="#CCCCCC"/>
<path d="M140.263 142.85L118.011 120.591L70.774 167.813L93.034 190.08C93.5352 190.579 94.1582 190.939 94.8412 191.123C95.5242 191.308 96.2435 191.311 96.928 191.132L129.726 182.44C130.417 182.255 131.047 181.891 131.553 181.386C132.059 180.88 132.422 180.249 132.607 179.558L141.307 146.76C141.49 146.074 141.49 145.352 141.307 144.666C141.124 143.98 140.764 143.354 140.263 142.85Z" fill="#CCCCCC"/>
<path d="M70.766 73.361L23.544 120.575L70.774 167.813L118.011 120.591L70.766 73.361Z" fill="white"/>
<path d="M141.424 94.865L132.498 61.179C132.352 60.6167 132.059 60.1037 131.648 59.693C131.237 59.2822 130.724 58.9888 130.162 58.843L96.476 49.917C95.9284 49.7755 95.3534 49.7786 94.8074 49.926C94.2613 50.0734 93.7629 50.3601 93.361 50.758L70.774 73.345L118.011 120.583L140.598 97.996C140.995 97.5905 141.28 97.0886 141.425 96.5397C141.57 95.9908 141.569 95.4137 141.424 94.865Z" fill="#CCCCCC"/>
<path d="M0.108004 146.316L9.041 179.994C9.18701 180.556 9.48063 181.07 9.89151 181.481C10.3024 181.891 10.8156 182.185 11.378 182.331L45.071 191.264C45.6195 191.404 46.1949 191.399 46.741 191.251C47.2872 191.102 47.7854 190.814 48.187 190.415L70.774 167.828L23.544 120.583L0.957004 143.17C0.553055 143.575 0.262121 144.078 0.113167 144.63C-0.0357884 145.182 -0.0375685 145.763 0.108004 146.316Z" fill="#CCCCCC"/>
<path d="M45.04 49.917L11.355 58.85C10.7926 58.996 10.2794 59.2896 9.8685 59.7005C9.45763 60.1114 9.164 60.6246 9.018 61.187L0.107996 94.849C-0.0320205 95.3974 -0.0274008 95.9729 0.121404 96.519C0.270209 97.0651 0.558112 97.5634 0.956996 97.965L23.544 120.552L70.774 73.322L48.187 50.735C47.7791 50.3364 47.2741 50.0513 46.7222 49.9078C46.1702 49.7644 45.5904 49.7675 45.04 49.917Z" fill="#CCCCCC"/>
<path d="M140.263 142.85L118.011 120.591L70.774 167.813L93.034 190.08C93.5352 190.579 94.1582 190.939 94.8412 191.123C95.5242 191.308 96.2435 191.311 96.928 191.132L129.726 182.44C130.417 182.255 131.047 181.891 131.553 181.386C132.059 180.88 132.422 180.249 132.607 179.558L141.307 146.76C141.49 146.074 141.49 145.352 141.307 144.666C141.124 143.98 140.764 143.354 140.263 142.85Z" fill="#BBBBBB"/>
<path d="M70.766 73.361L23.544 120.575L70.774 167.813L118.011 120.591L70.766 73.361Z" fill="#999999"/>
</svg>
