<svg width="1626" height="522" viewBox="0 0 1626 522" fill="none" xmlns="http://www.w3.org/2000/svg">
<path d="M860 164V175.5C860 223 821.5 261.5 774 261.5C726.5 261.5 688 223 688 175.5V164H649V175.5C649 224.5 677.5 268.5 721.5 289C677.5 309.5 649 353.5 649 402.5V414H688V402.5C688 355 726.5 316 774 316C821.5 316 860 355 860 402.5V414H899V402.5C899 353.5 870.5 309.5 826.5 289C870.5 268.5 899 224.5 899 175.5V164H860ZM1163 289C1163 219 1106.5 164 1037.5 164C993 164 951 188 928.5 228.5C901 278.5 910.5 341 952 380C976 402.5 1006.5 414 1037.5 414C1061 414 1084 407.5 1104.5 394.5V343.5C1087.5 364 1063 375 1038 375C1023.5 375 1009 371.5 995.5 364C959 343.5 943 299.5 957 260C971 220.5 1011.5 197 1052.5 204C1094 211.5 1124 247 1124 289V414H1163V289ZM1310.86 203.5V164.5H1224.86V25H1185.86V289C1185.86 358 1241.86 414 1310.86 414V375C1263.36 375 1224.86 336.5 1224.86 289V203.5H1310.86ZM1584.87 289C1584.87 219 1528.37 164 1459.37 164C1414.87 164 1372.87 188 1350.37 228.5C1322.87 278.5 1332.37 341 1373.87 380C1397.87 402.5 1428.37 414 1459.37 414C1482.87 414 1505.87 407.5 1526.37 394.5V343.5C1509.37 364 1484.87 375 1459.87 375C1445.37 375 1430.87 371.5 1417.37 364C1380.87 343.5 1364.87 299.5 1378.87 260C1392.87 220.5 1433.37 197 1474.37 204C1515.87 211.5 1545.87 247 1545.87 289V414H1584.87V289Z" fill="white"/>
<path d="M439.428 497.611C471.671 465.443 493.244 425.222 499.401 385.796C505.558 346.369 495.795 310.966 472.26 287.376L350.688 408.663L439.428 497.611Z" fill="white"/>
<path d="M121.572 498.306C89.3288 466.138 67.756 425.917 61.5989 386.49C55.4418 347.064 65.2047 311.661 88.74 288.07L210.312 409.358L121.572 498.306Z" fill="white"/>
<path d="M50.6717 154.184C50.725 199.729 68.8687 243.387 101.112 275.554L101.115 275.551L222.671 396.823C254.838 364.58 272.88 320.88 272.826 275.335C272.773 229.79 254.629 186.132 222.387 153.964L222.384 153.967L100.827 32.6953C68.66 64.9381 50.6185 108.639 50.6717 154.184Z" fill="white"/>
<path d="M510.327 153.488C510.274 199.033 492.13 242.692 459.887 274.859L459.884 274.855L338.328 396.127C306.161 363.884 288.119 320.183 288.172 274.638C288.226 229.094 306.369 185.435 338.612 153.268L338.616 153.271L460.171 32C492.339 64.2428 510.38 107.943 510.327 153.488Z" fill="white"/>
</svg>