<svg width="92" height="92" viewBox="0 0 92 92" fill="none" xmlns="http://www.w3.org/2000/svg">
<g clip-path="url(#clip0_1301_651)">
<path d="M82.4108 9.61256C73.7312 0.96636 61.251 0 46 0C30.7298 0 18.2307 0.9775 9.5547 9.64706C0.879929 18.313 0 30.792 0 46.0447C0 61.3 0.87993 73.7827 9.5583 82.4518C18.2338 91.1226 30.7314 92.0002 46 92.0002C61.2688 92.0002 73.7642 91.1226 82.4397 82.4518C91.1176 73.7811 92 61.3 92 46.0447C92 30.7724 91.108 18.28 82.4108 9.61256Z" fill="#999999"/>
<path d="M72.6933 28.4993C73.0094 28.4993 73.2725 28.7539 73.2725 29.0673V63.0976C73.2725 63.4058 73.0094 63.6617 72.6933 63.6617H65.237C64.917 63.6617 64.657 63.4058 64.657 63.0976V29.0673C64.657 28.7541 64.9168 28.4993 65.237 28.4993H72.6933ZM40.3356 28.4993C45.9603 28.4993 51.8415 28.7572 54.7422 31.6599C57.594 34.5163 57.9029 40.2038 57.9147 45.7269V63.0974C57.9147 63.4056 57.6549 63.6615 57.3363 63.6615H49.8811C49.5618 63.6615 49.3009 63.4056 49.3009 63.0974V45.428C49.293 42.3434 49.1156 39.1731 47.5249 37.5771C46.1556 36.2041 43.6007 35.8897 40.9438 35.8245H27.4295C27.1125 35.8245 26.8531 36.0794 26.8531 36.388V63.0976C26.8531 63.4058 26.5904 63.6617 26.2714 63.6617H18.8115C18.4927 63.6617 18.2363 63.4058 18.2363 63.0976V29.0673C18.2363 28.7541 18.4926 28.4993 18.8115 28.4993H40.3356ZM42.0043 42.0526C42.3216 42.0526 42.5795 42.3065 42.5795 42.6174V63.0976C42.5795 63.4058 42.3215 63.6617 42.0043 63.6617H34.1728C33.8508 63.6617 33.5928 63.4058 33.5928 63.0976V42.6174C33.5928 42.3065 33.8508 42.0526 34.1728 42.0526H42.0043Z" fill="white"/>
</g>
<defs>
<clipPath id="clip0_1301_651">
<rect width="92" height="92" fill="white"/>
</clipPath>
</defs>
</svg>
