<svg width="300" height="88" viewBox="0 0 300 88" fill="none" xmlns="http://www.w3.org/2000/svg">
<path d="M97.5 31.6439H105.3L113.1 49.726L121.2 31.6439H129L109.8 73.5343H102L109.2 58.7671L97.5 31.6439ZM158.7 45.8082C158.7 54.2466 152.1 61.1781 143.7 61.1781C135 61.1781 128.7 54.548 128.7 45.8082C128.7 37.3699 135.3 30.7397 144 30.7397C152.1 30.4384 158.7 37.3699 158.7 45.8082V45.8082ZM136.2 45.8082C136.2 50.9315 139.2 54.548 144 54.548C148.5 54.548 151.8 50.9315 151.8 45.8082C151.8 40.6849 148.8 37.3699 144 37.3699C139.2 37.0685 136.2 40.6849 136.2 45.8082ZM181.8 58.4658C179.7 60.274 177.9 60.8767 175.2 60.8767C171.9 60.8767 168.6 59.3699 166.5 56.9589C164.4 54.548 163.5 51.5343 163.5 46.7123V31.3425H170.7V46.1096C170.7 49.726 171 51.2329 172.2 52.4384C173.1 53.3425 174.3 53.9452 176.1 53.9452C178.2 53.9452 179.7 53.3425 180.9 51.8356C181.8 50.6302 182.1 48.8219 182.1 45.2055V31.0411H189.3V59.3699H182.1V58.4658H181.8ZM209.4 40.0822C207.9 37.6713 206.7 37.0685 205.2 37.0685C203.4 37.0685 202.2 37.9726 202.2 39.4795C202.2 40.685 202.5 40.9863 205.8 42.1918L208.5 43.0959C213.3 44.9041 215.4 47.3151 215.4 51.2329C215.4 56.6576 210.9 60.8767 204.9 60.8767C201.3 60.8767 198 59.3699 196.2 56.6576C195.3 55.4521 194.7 54.548 194.1 52.137L200.1 49.726C201.9 53.3425 203.1 54.2466 205.2 54.2466C207 54.2466 208.5 53.0411 208.5 51.2329C208.5 50.0274 207.9 49.4247 204.9 48.5206L201.9 47.3151C197.7 45.8082 195.6 43.0959 195.6 39.4795C195.6 34.3562 199.8 30.4384 205.5 30.4384C210 30.4384 213 32.548 215.4 37.0685L209.4 40.0822V40.0822ZM228.3 21.6986C228.3 24.1096 226.2 26.2192 223.8 26.2192C221.1 26.2192 219.3 24.1096 219.3 21.6986C219.3 19.2877 221.4 17.1781 224.1 17.1781C226.2 17.1781 228.3 19.2877 228.3 21.6986V21.6986ZM227.4 59.9726H220.2V31.6439H227.4V59.9726ZM254.4 58.1644C251.4 60.274 249.6 60.8767 246.6 60.8767C238.5 60.8767 231.9 53.9452 231.9 45.5069C231.9 37.0685 238.5 30.4384 246.6 30.4384C249.6 30.4384 251.4 31.0411 254.4 33.1507V31.3425H261.6V58.7671C261.6 67.8082 255.6 74.137 246.3 74.137C242.4 74.137 238.8 72.9315 236.1 70.5206C234.9 69.6165 234.6 69.3151 232.5 66.6028L237.3 61.7808L238.5 62.9863C241.2 66.3014 243 67.2055 246.6 67.2055C251.7 67.2055 254.7 63.8904 254.7 58.4658V58.1644H254.4ZM239.4 45.8082C239.4 50.9315 242.4 54.548 247.2 54.548C251.7 54.548 254.7 50.9315 254.7 45.8082C254.7 40.6849 251.7 37.3699 246.9 37.3699C242.4 37.0685 239.4 40.6849 239.4 45.8082V45.8082ZM275.7 32.8493C277.8 31.0411 279.6 30.4384 282.3 30.4384C285.6 30.4384 288.9 31.9452 291 34.3562C293.1 36.7671 294 39.7808 294 44.6028V59.9726H286.8V45.2055C286.8 41.5891 286.5 40.0822 285.3 38.8767C284.4 37.9726 283.2 37.3699 281.4 37.3699C279.3 37.3699 277.8 37.9726 276.6 39.4795C275.7 40.685 275.4 42.4932 275.4 46.1096V60.274H268.2V31.9452H275.4V32.8493H275.7Z" fill="white"/>
<path d="M66 5.42464C66.3 5.42464 66.3 5.72601 66.6 5.72601L31.2 82.5753H14.4C14.1 82.5753 14.1 82.274 13.8 82.274L49.2 5.42464H66ZM66 1.50684H48.6C47.4 1.50684 46.5 2.10958 45.9 3.01369L10.5 80.7671C9.29997 83.1781 11.7 86.1918 14.4 86.1918H31.8C33 86.1918 33.9 85.589 34.5 84.6849L70.2 6.93149C71.1 4.8219 69 1.50684 66 1.50684V1.50684Z" fill="white"/>
<path d="M8.70004 1.50684H30C32.1 1.50684 33.6 3.91779 32.7 5.72601L18 37.9726C16.8 40.6849 12.9 40.0822 12.3 37.3698L5.70004 5.12327C5.40004 3.31506 6.90004 1.50684 8.70004 1.50684Z" fill="white"/>
</svg>
