<svg width="64" height="64" viewBox="0 0 64 64" fill="none" xmlns="http://www.w3.org/2000/svg">
<rect x="8" y="8" width="48" height="48" rx="24" fill="black"/>
<path d="M32 31.1666C32 34.0975 31.1592 36.8325 29.7058 39.1425M26.8392 37.4425L26.8842 37.3675C28.0529 35.5108 28.671 33.3606 28.6667 31.1666C28.6667 30.2826 29.0179 29.4347 29.643 28.8096C30.2681 28.1845 31.1159 27.8333 32 27.8333C32.8841 27.8333 33.7319 28.1845 34.357 28.8096C34.9821 29.4347 35.3333 30.2826 35.3333 31.1666C35.3333 32.0141 35.275 32.8491 35.1642 33.6666M33.3992 39.37C33.9135 38.3437 34.3298 37.2712 34.6425 36.1666M37.8417 37.11C38.3792 35.2216 38.6667 33.2275 38.6667 31.1666C38.6669 29.9963 38.3591 28.8464 37.7741 27.8328C37.189 26.8191 36.3475 25.9773 35.334 25.392C34.3205 24.8067 33.1707 24.4985 32.0004 24.4985C30.83 24.4984 29.6802 24.8065 28.6667 25.3916M24.5 34.8033C25.0333 33.7041 25.3333 32.47 25.3333 31.1666C25.3333 29.9525 25.6583 28.8141 26.225 27.8333" stroke="url(#paint0_linear_1032_4940)" stroke-width="1.5" stroke-linecap="round" stroke-linejoin="round"/>
<rect x="8.5" y="8.5" width="47" height="47" rx="23.5" stroke="url(#paint1_radial_1032_4940)" stroke-opacity="0.15"/>
<rect x="8.5" y="8.5" width="47" height="47" rx="23.5" stroke="url(#paint2_linear_1032_4940)" stroke-opacity="0.5"/>
<rect x="0.5" y="0.5" width="63" height="63" rx="31.5" stroke="white" stroke-opacity="0.1"/>
<defs>
<linearGradient id="paint0_linear_1032_4940" x1="37.032" y1="27.6879" x2="28.3689" y2="24.9376" gradientUnits="userSpaceOnUse">
<stop stop-color="#FF1E56"/>
<stop offset="1" stop-color="#9C51A1"/>
</linearGradient>
<radialGradient id="paint1_radial_1032_4940" cx="0" cy="0" r="1" gradientUnits="userSpaceOnUse" gradientTransform="translate(32 8) rotate(90) scale(61.7143)">
<stop stop-color="white"/>
<stop offset="1" stop-color="white"/>
</radialGradient>
<linearGradient id="paint2_linear_1032_4940" x1="8" y1="8" x2="18.5" y2="27.5" gradientUnits="userSpaceOnUse">
<stop stop-color="white"/>
<stop offset="1" stop-color="white" stop-opacity="0"/>
</linearGradient>
</defs>
</svg>
