<svg width="188" height="75" viewBox="0 0 188 75" fill="none" xmlns="http://www.w3.org/2000/svg">
<path fill-rule="evenodd" clip-rule="evenodd" d="M152.282 0.0221394C143.721 -0.273052 135.161 2.38367 128.076 7.99231L132.799 10.649C138.408 6.51635 145.492 4.7452 152.282 5.04039V0.0221394Z" fill="url(#paint0_linear)"/>
<path fill-rule="evenodd" clip-rule="evenodd" d="M177.373 11.2394C171.469 5.04038 163.794 1.20289 155.529 0.317316V5.33557C162.614 6.51634 168.813 9.76344 173.831 14.7817L177.373 11.2394Z" fill="url(#paint1_linear)"/>
<path fill-rule="evenodd" clip-rule="evenodd" d="M188 35.4451C187.705 27.7701 184.753 20.0951 179.735 13.6009L176.192 17.1432C180.325 22.7519 182.687 28.9509 182.982 35.4451H188Z" fill="url(#paint2_linear)"/>
<path fill-rule="evenodd" clip-rule="evenodd" d="M179.735 60.8315C184.753 54.3373 187.705 46.6624 188 38.9874H182.982C182.687 45.4816 180.325 51.6806 176.192 57.2892L179.735 60.8315Z" fill="url(#paint3_linear)"/>
<path fill-rule="evenodd" clip-rule="evenodd" d="M155.529 74.1152C163.499 73.2296 171.469 69.3921 177.373 63.1931L173.831 59.6508C168.813 64.9642 162.318 68.2113 155.529 69.0969V74.1152Z" fill="url(#paint4_linear)"/>
<path fill-rule="evenodd" clip-rule="evenodd" d="M128.076 66.4402C135.161 72.0488 143.721 74.7055 152.282 74.4104V69.3921C145.492 69.6873 138.703 67.9161 132.799 63.7835L128.076 66.4402Z" fill="url(#paint5_linear)"/>
<path d="M25.48 26.152V17.52H0.52V26.152H8.112V56H17.94V26.152H25.48ZM58.8652 40.764V17.52H49.0372V40.764C49.0372 44.404 48.7772 48.096 44.1492 48.096C39.7292 48.096 39.1572 44.248 39.1572 40.764V17.52H29.3292V40.764C29.3292 45.652 29.6932 48.928 33.1772 52.62C35.9852 55.584 40.2492 56.728 44.2532 56.728C48.3612 56.728 52.1052 55.532 55.0172 52.568C58.3452 49.24 58.8652 45.34 58.8652 40.764ZM95.3818 56L84.9298 42.896C91.0138 41.908 94.4978 36.708 94.4978 30.78C94.4978 26.776 92.9378 22.824 89.7658 20.276C86.4378 17.624 81.9658 17.52 77.9098 17.52H65.7418V56H75.1538V43.572H75.2578L84.1498 56H95.3818ZM85.0858 31.352C85.0858 35.304 82.3298 36.864 78.6378 36.864H75.1538V26.152H78.7418C82.1218 26.152 85.0858 27.556 85.0858 31.352ZM128.054 44.3C128.054 39.932 125.922 36.812 121.71 35.356C124.57 33.744 126.182 30.884 126.182 27.608C126.182 25.216 125.506 23.032 123.894 21.264C120.566 17.572 116.198 17.52 111.57 17.52H99.7145V56H111.934C116.926 56 120.566 56.052 124.518 52.672C126.91 50.644 128.054 47.368 128.054 44.3ZM116.77 29.064C116.77 31.508 115.002 32.132 112.87 32.132H109.126V26.152H112.922C114.95 26.152 116.77 26.62 116.77 29.064ZM118.642 43.676C118.642 46.536 116.458 47.368 114.014 47.368H109.126V40.348H114.066C116.354 40.348 118.642 40.92 118.642 43.676ZM172.33 36.76C172.33 25.424 163.23 16.792 151.998 16.792C145.446 16.792 139.674 19.496 135.722 24.696C134.734 25.996 133.798 27.504 133.226 29.012C132.186 31.664 131.718 34.368 131.718 37.228C131.718 48.304 141.078 56.728 151.946 56.728C163.23 56.728 172.33 48.148 172.33 36.76ZM162.502 36.812C162.502 42.688 158.342 48.096 152.154 48.096C145.758 48.096 141.546 42.792 141.546 36.656C141.546 30.624 145.758 25.424 152.05 25.424C158.342 25.424 162.502 30.832 162.502 36.812Z" fill="black"/>
<defs>
<linearGradient id="paint0_linear" x1="158.038" y1="0" x2="158.038" y2="74.4325" gradientUnits="userSpaceOnUse">
<stop stop-color="#1E90FF"/>
<stop offset="1" stop-color="#FF1E56"/>
</linearGradient>
<linearGradient id="paint1_linear" x1="158.038" y1="0" x2="158.038" y2="74.4325" gradientUnits="userSpaceOnUse">
<stop stop-color="#1E90FF"/>
<stop offset="1" stop-color="#FF1E56"/>
</linearGradient>
<linearGradient id="paint2_linear" x1="158.038" y1="0" x2="158.038" y2="74.4325" gradientUnits="userSpaceOnUse">
<stop stop-color="#1E90FF"/>
<stop offset="1" stop-color="#FF1E56"/>
</linearGradient>
<linearGradient id="paint3_linear" x1="158.038" y1="0" x2="158.038" y2="74.4325" gradientUnits="userSpaceOnUse">
<stop stop-color="#1E90FF"/>
<stop offset="1" stop-color="#FF1E56"/>
</linearGradient>
<linearGradient id="paint4_linear" x1="158.038" y1="0" x2="158.038" y2="74.4325" gradientUnits="userSpaceOnUse">
<stop stop-color="#1E90FF"/>
<stop offset="1" stop-color="#FF1E56"/>
</linearGradient>
<linearGradient id="paint5_linear" x1="158.038" y1="0" x2="158.038" y2="74.4325" gradientUnits="userSpaceOnUse">
<stop stop-color="#1E90FF"/>
<stop offset="1" stop-color="#FF1E56"/>
</linearGradient>
</defs>
</svg>
