<svg width="200" height="200" viewBox="0 0 200 200" fill="none" xmlns="http://www.w3.org/2000/svg">
<ellipse opacity="0.2" cx="100" cy="172" rx="60" ry="4" fill="#808080"/>
<rect x="21.251" y="36.8438" width="156" height="24" rx="6" transform="rotate(-5 21.251 36.8438)" fill="#003333"/>
<path d="M34.7437 51.2487L34.648 51.2571C34.5083 51.7404 34.2563 52.164 33.8919 52.5278C33.5382 52.8907 33.0319 53.101 32.3731 53.1586C31.98 53.193 31.6131 53.1608 31.2725 53.0622C30.931 52.9528 30.6318 52.7756 30.3748 52.5304C30.1177 52.2852 29.9034 51.9773 29.7318 51.6069C29.5708 51.2355 29.4685 50.8001 29.4248 50.3007L28.9591 44.977L31.318 44.7706L31.7559 49.7755C31.8489 50.8381 32.3576 51.329 33.2821 51.2481C33.4627 51.2323 33.6362 51.1957 33.8025 51.1383C33.9785 51.0694 34.126 50.9815 34.2452 50.8747C34.374 50.7564 34.4745 50.6191 34.5464 50.4629C34.6184 50.3067 34.6456 50.1277 34.6279 49.9258L34.1552 44.5224L36.5142 44.316L37.2338 52.5406L34.8748 52.747L34.7437 51.2487Z" fill="white"/>
<path d="M38.4844 44.1437L40.8434 43.9373L40.9745 45.4355L41.0861 45.4258C41.2452 44.9193 41.5021 44.49 41.8567 44.1377C42.2114 43.7855 42.7181 43.5805 43.3769 43.5229C43.8339 43.4829 44.2557 43.5317 44.6425 43.6691C45.0399 43.8057 45.3868 44.0377 45.6831 44.3651C45.9901 44.6916 46.2416 45.1193 46.4378 45.6482C46.6446 46.1762 46.7806 46.8121 46.8456 47.5559C46.9107 48.2997 46.8873 48.9496 46.7753 49.5055C46.6739 50.0604 46.5005 50.5253 46.2549 50.9001C46.0199 51.274 45.7186 51.5627 45.3509 51.7662C44.9939 51.9688 44.5869 52.09 44.13 52.13C43.4711 52.1876 42.937 52.0791 42.5275 51.8044C42.1171 51.5191 41.789 51.1356 41.5435 50.6538L41.4319 50.6636L41.8419 55.3497L39.4829 55.5561L38.4844 44.1437ZM42.9495 50.3863C43.4808 50.3398 43.876 50.1446 44.135 49.8007C44.393 49.4462 44.497 48.982 44.4468 48.4082L44.3352 47.1331C44.285 46.5593 44.1025 46.1255 43.7877 45.8319C43.472 45.5276 43.0485 45.3986 42.5172 45.4451C42.1028 45.4814 41.7503 45.6139 41.4598 45.8428C41.18 46.0707 41.0591 46.4025 41.0972 46.8382L41.3092 49.2609C41.3473 49.6966 41.5239 50.0024 41.8391 50.1782C42.165 50.3532 42.5351 50.4225 42.9495 50.3863Z" fill="white"/>
<path d="M53.9538 49.5681L53.8422 49.5778C53.6734 50.0958 53.4117 50.531 53.057 50.8832C52.7121 51.2239 52.2102 51.4231 51.5514 51.4807C51.0944 51.5207 50.6673 51.4724 50.2699 51.3359C49.8831 51.1984 49.5362 50.9664 49.2292 50.6399C48.9329 50.3125 48.6813 49.8848 48.4745 49.3568C48.2784 48.8279 48.1477 48.1915 48.0827 47.4477C48.0176 46.7039 48.0357 46.0545 48.1371 45.4995C48.2491 44.9437 48.4225 44.4788 48.6575 44.1049C48.9031 43.73 49.2044 43.4413 49.5615 43.2388C49.9291 43.0353 50.3414 42.9136 50.7983 42.8736C51.1277 42.8448 51.4237 42.8617 51.6861 42.9244C51.9486 42.9871 52.182 43.0845 52.3863 43.2165C52.6012 43.3476 52.787 43.5134 52.9437 43.7138C53.1102 43.9027 53.2572 44.1147 53.3848 44.3498L53.4964 44.34L53.053 39.2714L55.4119 39.065L56.4439 50.8599L54.0849 51.0663L53.9538 49.5681ZM52.4111 49.5585C52.8255 49.5222 53.1727 49.3901 53.4525 49.1622C53.743 48.9333 53.8692 48.6011 53.8311 48.1654L53.6191 45.7427C53.581 45.307 53.399 45.0017 53.0732 44.8268C52.758 44.6509 52.3932 44.5811 51.9788 44.6173C51.4475 44.6638 51.0528 44.8643 50.7947 45.2188C50.5357 45.5627 50.4313 46.0216 50.4815 46.5954L50.5931 47.8705C50.6433 48.4443 50.8262 48.8834 51.1419 49.1877C51.4567 49.4814 51.8798 49.605 52.4111 49.5585Z" fill="white"/>
<path d="M65.1404 50.0991C64.6516 50.1419 64.2477 50.0541 63.9288 49.8357C63.609 49.6067 63.4021 49.2607 63.308 48.7978L63.2283 48.8048C63.127 49.3598 62.8652 49.7949 62.4431 50.1102C62.0316 50.4246 61.5071 50.6097 60.8695 50.6655C60.0726 50.7352 59.4111 50.5789 58.8851 50.1967C58.3688 49.8028 58.0767 49.218 58.0089 48.4423C57.9336 47.5816 58.1913 46.9166 58.7819 46.4474C59.3726 45.9781 60.2736 45.6905 61.485 45.5845L62.808 45.4688L62.7717 45.0543C62.7289 44.5655 62.58 44.2092 62.3248 43.9852C62.0794 43.7497 61.6857 43.6557 61.1437 43.7031C60.6443 43.7468 60.2489 43.8777 59.9575 44.096C59.6661 44.3142 59.4222 44.5872 59.2261 44.9148L57.8346 43.8802C58.07 43.3885 58.4668 42.9683 59.0253 42.6196C59.5934 42.2594 60.3396 42.0388 61.2641 41.958C62.3905 41.8594 63.2899 42.0431 63.9624 42.5089C64.6446 42.9632 65.0312 43.711 65.1223 44.7523L65.4375 48.3546L66.346 48.2751L66.4952 49.9806L65.1404 50.0991ZM61.6268 49.0413C62.0413 49.005 62.3831 48.8734 62.6523 48.6464C62.9216 48.4194 63.0395 48.1147 63.006 47.7321L62.9195 46.7439L61.6603 46.8541C60.6934 46.9387 60.2382 47.305 60.2949 47.9532L60.3228 48.272C60.3479 48.5589 60.4786 48.767 60.7147 48.8962C60.9509 49.0255 61.2549 49.0738 61.6268 49.0413Z" fill="white"/>
<path d="M72.3546 49.4679C71.5045 49.5423 70.8527 49.3745 70.3993 48.9644C69.9458 48.5544 69.6889 48.004 69.6284 47.3133L69.277 43.2967L67.0455 43.4919L66.8852 41.6589L68.3356 41.532C68.6863 41.5013 68.93 41.4104 69.0667 41.2593C69.2033 41.1081 69.2554 40.8466 69.2229 40.4747L69.0541 38.546L71.2218 38.3564L71.4756 41.2573L74.6794 40.977L74.8398 42.81L71.636 43.0903L72.0348 47.6489L75.2386 47.3686L75.399 49.2016L72.3546 49.4679Z" fill="white"/>
<path d="M81.5142 48.8593C80.1328 48.9802 79.0526 48.6892 78.2737 47.9864C77.4949 47.2836 77.0478 46.2734 76.9325 44.9558C76.8739 44.2863 76.9117 43.6781 77.0459 43.1309C77.1897 42.5723 77.4154 42.0921 77.7229 41.6905C78.0401 41.2772 78.4347 40.9536 78.9068 40.7196C79.3886 40.474 79.9376 40.3242 80.5539 40.2703C81.1702 40.2164 81.7316 40.269 82.2381 40.4281C82.7436 40.5766 83.1822 40.8167 83.5538 41.1482C83.9255 41.4797 84.2244 41.8979 84.4506 42.4028C84.6865 42.8961 84.8323 43.4616 84.8881 44.0991L84.9495 44.8005L79.323 45.2927L79.3355 45.4362C79.382 45.9675 79.5844 46.3834 79.9426 46.684C80.2999 46.974 80.7973 47.0911 81.4349 47.0353C81.9237 46.9925 82.3355 46.8655 82.6704 46.6541C83.0043 46.4322 83.2853 46.156 83.5133 45.8255L84.9098 47.1007C84.6254 47.5217 84.2089 47.9008 83.6602 48.2379C83.1115 48.575 82.3961 48.7821 81.5142 48.8593ZM80.7177 41.9585C80.2076 42.0031 79.8125 42.1983 79.5322 42.544C79.2616 42.8782 79.1496 43.3109 79.1961 43.8423L79.2072 43.9698L82.5226 43.6797L82.5114 43.5522C82.464 43.0103 82.278 42.5982 81.9536 42.3161C81.6397 42.0331 81.2277 41.9138 80.7177 41.9585Z" fill="white"/>
<path d="M87.9549 44.3448L87.7569 42.0814L92.8574 41.6352L93.0555 43.8985L87.9549 44.3448Z" fill="white"/>
<path d="M100.087 37.6941C99.5559 37.7406 99.1747 37.6668 98.9436 37.4729C98.7222 37.2674 98.598 37.0106 98.571 36.7024L98.5306 36.2402C98.5027 35.9214 98.5804 35.6469 98.7637 35.4168C98.9576 35.1856 99.3202 35.0468 99.8515 35.0004C100.383 34.9539 100.759 35.0281 100.979 35.2229C101.21 35.4169 101.34 35.6732 101.368 35.992L101.408 36.4542C101.435 36.7624 101.352 37.0373 101.159 37.2791C100.976 37.5093 100.619 37.6476 100.087 37.6941ZM96.9449 45.4695L99.559 45.2408L99.1601 40.6822L96.5461 40.9109L96.3857 39.0779L101.359 38.6429L101.918 45.0344L104.341 44.8225L104.501 46.6555L97.1053 47.3025L96.9449 45.4695Z" fill="white"/>
<path d="M106.2 46.5068L105.481 38.2822L107.84 38.0758L107.971 39.5741L108.066 39.5658C108.142 39.3236 108.239 39.0956 108.36 38.8816C108.48 38.6676 108.63 38.4779 108.808 38.3124C108.996 38.1353 109.214 37.9931 109.461 37.8858C109.719 37.7669 110.012 37.6931 110.341 37.6643C110.735 37.6299 111.102 37.6673 111.443 37.7766C111.784 37.8753 112.083 38.0473 112.34 38.2925C112.597 38.5377 112.806 38.846 112.967 39.2173C113.138 39.5878 113.246 40.0227 113.29 40.5222L113.755 45.8458L111.396 46.0522L110.959 41.0473C110.866 39.9847 110.357 39.4939 109.432 39.5747C109.252 39.5905 109.073 39.6329 108.897 39.7018C108.731 39.7592 108.584 39.8471 108.455 39.9654C108.325 40.0732 108.224 40.2051 108.152 40.3613C108.091 40.5166 108.069 40.6952 108.087 40.8971L108.559 46.3004L106.2 46.5068Z" fill="white"/>
<path d="M115.693 43.8293L118.116 43.6173L117.717 39.0588L115.135 39.2847L114.974 37.4517L117.556 37.2258L117.452 36.0303C117.39 35.329 117.543 34.7428 117.908 34.2718C118.284 33.7893 118.902 33.5104 119.762 33.4351L122.552 33.191L122.712 35.024L119.763 35.282L119.915 37.0194L122.864 36.7614L123.024 38.5944L120.076 38.8524L120.475 43.411L123.057 43.185L123.217 45.018L115.853 45.6623L115.693 43.8293Z" fill="white"/>
<path d="M129.077 44.6981C128.44 44.7539 127.857 44.7084 127.331 44.5618C126.803 44.4045 126.342 44.1557 125.948 43.8154C125.565 43.4742 125.255 43.0463 125.017 42.5317C124.779 42.0171 124.631 41.4251 124.572 40.7557C124.514 40.0863 124.557 39.4775 124.702 38.9295C124.847 38.3814 125.078 37.9061 125.396 37.5035C125.725 37.1 126.136 36.7803 126.629 36.5444C127.122 36.2979 127.687 36.1467 128.324 36.091C128.962 36.0352 129.544 36.0859 130.072 36.2432C130.599 36.3898 131.054 36.6338 131.437 36.975C131.831 37.3153 132.147 37.7428 132.384 38.2573C132.622 38.7719 132.77 39.3639 132.829 40.0333C132.888 40.7028 132.844 41.3115 132.7 41.8596C132.555 42.4076 132.318 42.8834 131.989 43.2869C131.671 43.6895 131.266 44.0141 130.774 44.2606C130.28 44.4965 129.715 44.6423 129.077 44.6981ZM128.924 42.9448C129.455 42.8983 129.855 42.6973 130.124 42.3419C130.393 41.9865 130.5 41.5059 130.447 40.9002L130.333 39.5932C130.28 38.9875 130.09 38.533 129.764 38.2296C129.438 37.9262 129.009 37.7978 128.478 37.8443C127.946 37.8907 127.546 38.0917 127.278 38.4471C127.009 38.8026 126.901 39.2831 126.954 39.8888L127.068 41.1958C127.121 41.8015 127.311 42.2561 127.637 42.5594C127.964 42.8628 128.393 42.9913 128.924 42.9448Z" fill="white"/>
<path d="M134.855 42.1528L136.752 41.9869L136.353 37.4283L134.456 37.5942L134.296 35.7612L138.552 35.3889L138.755 37.716L138.867 37.7063C138.915 37.4022 138.991 37.1065 139.094 36.819C139.207 36.5201 139.356 36.2555 139.539 36.0253C139.732 35.7835 139.972 35.5859 140.258 35.4324C140.544 35.2788 140.889 35.1844 141.293 35.1491L142.074 35.0807L142.264 37.2484L140.511 37.4018C139.926 37.453 139.5 37.6669 139.234 38.0436C138.966 38.4096 138.854 38.8424 138.898 39.3418L139.111 41.7805L141.821 41.5434L141.981 43.3764L135.015 43.9858L134.855 42.1528Z" fill="white"/>
<path d="M143.871 43.211L143.152 34.9864L145.049 34.8205L145.155 36.0319L145.266 36.0221C145.36 35.6284 145.512 35.2832 145.722 34.9865C145.942 34.6888 146.27 34.5209 146.705 34.4828C147.502 34.4131 148.032 34.8379 148.295 35.7572L148.39 35.7488C148.437 35.5519 148.501 35.3643 148.582 35.1859C148.663 35.0076 148.767 34.8486 148.894 34.709C149.021 34.5694 149.176 34.454 149.361 34.3629C149.546 34.2718 149.766 34.2151 150.021 34.1928C151.168 34.0923 151.816 34.8869 151.964 36.5765L152.479 42.458L150.582 42.6239L150.088 36.9815C150.055 36.599 149.962 36.3393 149.811 36.2027C149.67 36.0544 149.493 35.9896 149.28 36.0082C149.078 36.0259 148.909 36.1103 148.772 36.2614C148.645 36.401 148.594 36.609 148.618 36.8852L149.131 42.7508L147.219 42.9182L146.725 37.2757C146.692 36.8932 146.605 36.6331 146.464 36.4955C146.333 36.3463 146.161 36.2811 145.949 36.2997C145.736 36.3182 145.562 36.4031 145.425 36.5543C145.288 36.6948 145.231 36.9032 145.255 37.1795L145.768 43.0451L143.871 43.211Z" fill="white"/>
<path d="M157.972 42.1701C156.591 42.291 155.511 42 154.732 41.2972C153.953 40.5944 153.506 39.5842 153.39 38.2666C153.332 37.5971 153.37 36.9889 153.504 36.4417C153.648 35.8831 153.873 35.4029 154.181 35.0013C154.498 34.588 154.893 34.2644 155.365 34.0304C155.847 33.7848 156.396 33.635 157.012 33.5811C157.628 33.5272 158.19 33.5798 158.696 33.7389C159.202 33.8874 159.64 34.1275 160.012 34.459C160.383 34.7905 160.682 35.2087 160.909 35.7136C161.144 36.2069 161.29 36.7724 161.346 37.4099L161.407 38.1113L155.781 38.6035L155.793 38.747C155.84 39.2783 156.042 39.6942 156.401 39.9948C156.758 40.2848 157.255 40.4019 157.893 40.3461C158.382 40.3033 158.793 40.1763 159.128 39.9649C159.462 39.743 159.743 39.4668 159.971 39.1363L161.368 40.4115C161.083 40.8325 160.667 41.2116 160.118 41.5487C159.569 41.8858 158.854 42.0929 157.972 42.1701ZM157.176 35.2693C156.666 35.3139 156.27 35.5091 155.99 35.8548C155.72 36.189 155.608 36.6217 155.654 37.153L155.665 37.2806L158.981 36.9905L158.969 36.863C158.922 36.3211 158.736 35.909 158.411 35.6269C158.098 35.3439 157.686 35.2246 157.176 35.2693Z" fill="white"/>
<path d="M163.527 39.6444L165.424 39.4784L165.025 34.9198L163.128 35.0858L162.968 33.2528L167.223 32.8805L167.427 35.2076L167.539 35.1978C167.587 34.8938 167.663 34.598 167.766 34.3106C167.879 34.0116 168.027 33.747 168.211 33.5168C168.404 33.2751 168.643 33.0774 168.93 32.9239C169.216 32.7704 169.561 32.6759 169.965 32.6406L170.746 32.5723L170.936 34.74L169.182 34.8934C168.598 34.9445 168.172 35.1584 167.905 35.5351C167.638 35.9012 167.526 36.3339 167.569 36.8334L167.783 39.272L170.492 39.035L170.653 40.868L163.687 41.4774L163.527 39.6444Z" fill="white"/>
<rect x="68" y="72" width="64" height="64" rx="16" fill="#00CC66"/>
<circle cx="84" cy="88" r="4" fill="#003333"/>
<circle cx="100" cy="88" r="4" fill="#003333"/>
<circle cx="92" cy="96" r="4" fill="#003333"/>
<path fill-rule="evenodd" clip-rule="evenodd" d="M49.4043 64.3311C51.4306 65.2112 52.3597 67.5672 51.4797 69.5935C47.2574 79.3151 52.583 89.4501 61.2098 92.1873C63.3155 92.8554 64.4809 95.104 63.8128 97.2097C63.1447 99.3154 60.8961 100.481 58.7904 99.8127C45.7143 95.6638 38.0011 80.5454 44.1419 66.4065C45.022 64.3802 47.378 63.451 49.4043 64.3311Z" fill="#00CC66"/>
<path fill-rule="evenodd" clip-rule="evenodd" d="M157.255 57.675C158.539 59.4727 158.123 61.9709 156.325 63.2549C153.403 65.3421 152.043 67.3646 151.317 69.2126C150.548 71.1705 150.37 73.2078 150.245 75.6997C150.235 75.8966 150.226 76.0997 150.216 76.3083C150.115 78.4979 149.985 81.2984 149.036 83.8803C147.876 87.034 145.628 89.6581 141.789 91.5777C139.813 92.5657 137.41 91.7648 136.422 89.7889C135.434 87.8129 136.235 85.4102 138.211 84.4223C140.372 83.3419 141.124 82.216 141.527 81.1197C142.034 79.7414 142.114 78.1399 142.243 75.5504C142.247 75.468 142.251 75.3847 142.255 75.3002C142.381 72.7922 142.578 69.5795 143.871 66.2874C145.207 62.8854 147.597 59.6578 151.675 56.7451C153.473 55.461 155.971 55.8774 157.255 57.675Z" fill="#00CC66"/>
<path fill-rule="evenodd" clip-rule="evenodd" d="M86.8285 141.172C88.3906 142.734 88.3906 145.266 86.8285 146.828C84.0464 149.611 82.4979 151.738 81.5245 154.512C80.5037 157.421 80.0001 161.372 80.0001 168C80.0001 169.386 79.2823 170.674 78.103 171.403C76.9238 172.131 75.4512 172.198 74.2113 171.578L66.2113 167.578C64.2353 166.59 63.4344 164.187 64.4224 162.211C65.4104 160.235 67.8131 159.434 69.789 160.422L72.1888 161.622C72.4476 157.812 72.9962 154.655 73.9757 151.863C75.5024 147.512 77.9538 144.389 81.1717 141.172C82.7338 139.609 85.2664 139.609 86.8285 141.172Z" fill="#00CC66"/>
<path fill-rule="evenodd" clip-rule="evenodd" d="M116 140C118.209 140 120 141.791 120 144C120 148.098 120.801 149.885 122.387 151.539C124.296 153.529 127.383 155.394 132.944 158.754C133.308 158.974 133.684 159.201 134.07 159.434C135.113 160.065 135.812 161.138 135.967 162.347C136.123 163.557 135.718 164.771 134.868 165.645L129.868 170.788C128.328 172.372 125.796 172.408 124.212 170.868C122.628 169.328 122.592 166.796 124.132 165.212L125.624 163.677C121.872 161.384 118.794 159.35 116.613 157.076C113.199 153.515 112 149.502 112 144C112 141.791 113.791 140 116 140Z" fill="#00CC66"/>
</svg>
