<svg width="300" height="47" viewBox="0 0 300 47" fill="none" xmlns="http://www.w3.org/2000/svg">
<g clip-path="url(#clip0_1033_604)">
<path d="M82.616 22.0383H75.7158L86.3642 1.43182H94.0036L104.164 22.0383H96.499L94.951 18.3236H84.2754L82.616 22.0383ZM93.097 13.8379L89.8078 6.34023L86.3233 13.8379H93.097Z" fill="#FF6600"/>
<path d="M105.717 1.43135H112.339V22.0371H105.717V1.43135Z" fill="#FF6600"/>
<path d="M115.718 1.43138H122.34V5.63555H115.718V1.43138ZM115.718 7.66859H122.34V22.0144H115.718V7.66859Z" fill="#FF6600"/>
<path d="M125.955 1.43153H132.576V9.73287C133.365 8.92012 134.246 8.31074 135.221 7.90398C136.196 7.4995 137.264 7.2946 138.423 7.2946C140.679 7.2946 142.492 8.01705 143.862 9.46195C145.23 10.9061 145.914 12.8207 145.914 15.2066C145.914 17.3778 145.239 19.1164 143.888 20.4262C142.538 21.7345 140.746 22.3886 138.507 22.3886C137.274 22.3886 136.155 22.164 135.151 21.7125C134.149 21.261 133.291 20.5962 132.576 19.722C132.576 20.197 132.559 20.6288 132.52 21.0204C132.484 21.412 132.423 21.7497 132.339 22.038H125.718C125.792 21.7694 125.849 21.4309 125.891 21.028C125.934 20.6227 125.955 20.1606 125.955 19.6385V1.43153ZM139.221 14.9183C139.221 13.6509 138.924 12.653 138.328 11.9215C137.735 11.1892 136.927 10.8241 135.907 10.8241C134.811 10.8241 133.972 11.1763 133.392 11.8797C132.813 12.5832 132.52 13.6031 132.52 14.9456C132.52 16.2129 132.814 17.1972 133.398 17.9007C133.984 18.6019 134.8 18.9532 135.85 18.9532C136.882 18.9532 137.701 18.5912 138.309 17.865C138.918 17.138 139.221 16.156 139.221 14.9183Z" fill="#FF6600"/>
<path d="M161.02 19.7361C160.391 20.5663 159.571 21.1803 158.568 21.5802C157.564 21.9801 156.349 22.1812 154.918 22.1812C152.88 22.1812 151.316 21.8177 150.22 21.0922C149.124 20.366 148.576 19.3377 148.576 18.0066C148.576 16.1914 149.521 14.8808 151.41 14.0741C153.302 13.2705 156.467 12.8486 160.91 12.8114C160.91 12.7841 160.914 12.7302 160.923 12.6513C160.933 12.5723 160.938 12.5147 160.938 12.4775C160.938 11.7436 160.717 11.195 160.276 10.8322C159.834 10.471 159.174 10.2889 158.29 10.2889C157.493 10.2889 156.879 10.4217 156.452 10.6865C156.026 10.9506 155.771 11.349 155.688 11.878H149.576C149.605 10.2858 150.357 9.10047 151.836 8.32414C153.314 7.5463 155.567 7.15775 158.597 7.15775C161.506 7.15775 163.674 7.6108 165.096 8.51842C166.515 9.42451 167.228 10.8072 167.228 12.6596V19.9752C167.228 20.4282 167.25 20.7955 167.292 21.074C167.333 21.3533 167.404 21.6113 167.507 21.8534H161.372C161.248 21.5111 161.162 21.1651 161.105 20.8183C161.05 20.4699 161.02 20.1087 161.02 19.7361ZM160.882 15.6382C158.739 15.6382 157.28 15.7786 156.503 16.0571C155.726 16.3364 155.336 16.8243 155.336 17.5217C155.336 17.9953 155.526 18.3648 155.902 18.6289C156.28 18.8938 156.812 19.0266 157.503 19.0266C158.629 19.0266 159.474 18.7632 160.036 18.2389C160.6 17.7137 160.882 16.9214 160.882 15.8628V15.6382Z" fill="#FF6600"/>
<path d="M170.241 1.43153H176.864V9.73287C177.651 8.92012 178.534 8.31074 179.509 7.90398C180.483 7.4995 181.552 7.2946 182.711 7.2946C184.966 7.2946 186.779 8.01705 188.149 9.46195C189.517 10.9061 190.201 12.8207 190.201 15.2066C190.201 17.3778 189.526 19.1164 188.174 20.4262C186.825 21.7345 185.032 22.3886 182.794 22.3886C181.559 22.3886 180.441 22.164 179.439 21.7125C178.437 21.261 177.578 20.5962 176.864 19.722C176.864 20.197 176.845 20.6288 176.807 21.0204C176.771 21.412 176.71 21.7497 176.626 22.038H170.005C170.078 21.7694 170.137 21.4309 170.178 21.028C170.222 20.6227 170.241 20.1606 170.241 19.6385V1.43153ZM183.508 14.9183C183.508 13.6509 183.211 12.653 182.617 11.9215C182.023 11.1892 181.214 10.8241 180.193 10.8241C179.098 10.8241 178.259 11.1763 177.679 11.8797C177.099 12.5832 176.807 13.6031 176.807 14.9456C176.807 16.2129 177.1 17.1972 177.684 17.9007C178.272 18.6019 179.088 18.9532 180.138 18.9532C181.169 18.9532 181.986 18.5912 182.596 17.865C183.205 17.138 183.508 16.156 183.508 14.9183Z" fill="#FF6600"/>
<path d="M205.306 19.7361C204.675 20.5663 203.859 21.1803 202.855 21.5802C201.85 21.9801 200.635 22.1812 199.204 22.1812C197.169 22.1812 195.6 21.8177 194.506 21.0922C193.411 20.366 192.862 19.3377 192.862 18.0066C192.862 16.1914 193.807 14.8808 195.696 14.0741C197.589 13.2705 200.755 12.8486 205.197 12.8114C205.197 12.7841 205.203 12.7302 205.212 12.6513C205.219 12.5723 205.222 12.5147 205.222 12.4775C205.222 11.7436 205.003 11.195 204.563 10.8322C204.123 10.471 203.459 10.2889 202.578 10.2889C201.779 10.2889 201.166 10.4217 200.74 10.6865C200.313 10.9506 200.059 11.349 199.974 11.878H193.864C193.892 10.2858 194.644 9.10047 196.122 8.32414C197.6 7.5463 199.856 7.15775 202.884 7.15775C205.794 7.15775 207.959 7.6108 209.383 8.51842C210.805 9.42451 211.515 10.8072 211.515 12.6596V19.9752C211.515 20.4282 211.536 20.7955 211.578 21.074C211.62 21.3533 211.693 21.6113 211.794 21.8534H205.658C205.536 21.5111 205.446 21.1651 205.39 20.8183C205.337 20.4699 205.306 20.1087 205.306 19.7361ZM205.168 15.6382C203.027 15.6382 201.567 15.7786 200.788 16.0571C200.012 16.3364 199.622 16.8243 199.622 17.5217C199.622 17.9953 199.813 18.3648 200.189 18.6289C200.568 18.8938 201.098 19.0266 201.789 19.0266C202.915 19.0266 203.76 18.7632 204.325 18.2389C204.886 17.7137 205.168 16.9214 205.168 15.8628V15.6382Z" fill="#FF6600"/>
<path d="M231.672 14.2338V11.8282H240.323V19.4078C238.993 20.4665 237.625 21.2633 236.213 21.7983C234.803 22.331 233.352 22.5981 231.866 22.5981C229.861 22.5981 228.039 22.1686 226.4 21.3065C224.761 20.446 223.526 19.2014 222.687 17.5729C221.85 15.9413 221.435 14.1238 221.435 12.1128C221.435 10.1222 221.85 8.26222 222.683 6.53426C223.51 4.80706 224.707 3.52532 226.269 2.68752C227.827 1.84972 229.625 1.43158 231.657 1.43158C233.133 1.43158 234.469 1.67139 235.661 2.151C236.854 2.63212 237.792 3.29993 238.47 4.15822C239.147 5.01575 239.662 6.13282 240.013 7.51245L237.567 8.18102C237.26 7.13909 236.88 6.31722 236.426 5.71999C235.973 5.12048 235.325 4.64163 234.478 4.28268C233.634 3.92221 232.702 3.74388 231.672 3.74388C230.437 3.74388 229.374 3.93208 228.473 4.31C227.573 4.68868 226.85 5.1865 226.298 5.80271C225.745 6.4174 225.318 7.09431 225.011 7.83118C224.492 9.10002 224.234 10.4781 224.234 11.9602C224.234 13.7914 224.544 15.3205 225.172 16.5529C225.797 17.7846 226.706 18.699 227.905 19.2963C229.097 19.8935 230.37 20.1925 231.711 20.1925C232.88 20.1925 234.019 19.9664 235.134 19.5118C236.243 19.0595 237.089 18.5746 237.665 18.0608V14.2338H231.672Z" fill="#FF6600"/>
<path d="M244.292 22.319V7.48301H246.555V9.73535C247.134 8.68507 247.668 7.99373 248.158 7.65831C248.647 7.3244 249.187 7.15745 249.774 7.15745C250.622 7.15745 251.485 7.42382 252.361 7.95807L251.485 10.2886C250.87 9.92963 250.257 9.75053 249.644 9.75053C249.096 9.75053 248.604 9.91445 248.164 10.2446C247.73 10.5762 247.418 11.0361 247.231 11.6212C246.952 12.5159 246.811 13.4925 246.811 14.5542V22.319H244.292Z" fill="#FF6600"/>
<path d="M252.864 14.9022C252.864 12.1574 253.628 10.1243 255.153 8.80238C256.425 7.70505 257.977 7.15714 259.808 7.15714C261.846 7.15714 263.51 7.82343 264.802 9.15829C266.092 10.4932 266.739 12.3387 266.739 14.6928C266.739 16.6006 266.453 18.1009 265.882 19.1929C265.31 20.2864 264.478 21.1349 263.385 21.7405C262.295 22.343 261.1 22.6473 259.808 22.6473C257.735 22.6473 256.06 21.981 254.783 20.6507C253.502 19.3204 252.864 17.405 252.864 14.9022ZM255.453 14.906C255.453 16.8062 255.867 18.2269 256.691 19.1724C257.517 20.1187 258.556 20.5915 259.808 20.5915C261.052 20.5915 262.087 20.1149 262.911 19.1663C263.737 18.217 264.149 16.7675 264.149 14.8233C264.149 12.9883 263.736 11.5988 262.904 10.6533C262.075 9.70924 261.043 9.23418 259.808 9.23418C258.556 9.23418 257.517 9.7062 256.691 10.6464C255.867 11.5867 255.453 13.0066 255.453 14.906Z" fill="#FF6600"/>
<path d="M279.755 21.9932V19.7985C278.602 21.4787 277.04 22.321 275.063 22.321C274.187 22.321 273.375 22.1533 272.618 21.8172C271.861 21.4832 271.299 21.0621 270.933 20.5536C270.566 20.0459 270.309 19.4252 270.16 18.6906C270.058 18.1981 270.007 17.4157 270.007 16.3449V7.15719H272.527V15.3758C272.527 16.6879 272.577 17.5712 272.679 18.0266C272.836 18.6875 273.171 19.2059 273.68 19.583C274.19 19.9587 274.823 20.1491 275.573 20.1491C276.325 20.1491 277.029 19.9549 277.69 19.5671C278.348 19.1839 278.813 18.6572 279.086 17.9924C279.359 17.3276 279.499 16.3631 279.499 15.0943V7.15719H282.015V21.9932H279.755Z" fill="#FF6600"/>
<path d="M287.15 27.997V7.48311H289.433V9.41217C289.972 8.65937 290.583 8.09552 291.261 7.71988C291.939 7.34348 292.762 7.15755 293.726 7.15755C294.989 7.15755 296.106 7.48008 297.072 8.13195C298.038 8.78382 298.767 9.70282 299.258 10.8889C299.752 12.0751 300 13.3758 300 14.7888C300 16.305 299.726 17.671 299.182 18.8852C298.64 20.0994 297.849 21.0306 296.817 21.6764C295.782 22.3229 294.693 22.647 293.555 22.647C292.718 22.647 291.969 22.4709 291.303 22.1195C290.64 21.7674 290.093 21.322 289.669 20.7847V27.997H287.15ZM289.412 14.9869C289.412 16.897 289.796 18.3077 290.568 19.2206C291.337 20.1351 292.266 20.5912 293.362 20.5912C294.473 20.5912 295.426 20.1184 296.22 19.1713C297.015 18.2273 297.409 16.7626 297.409 14.7774C297.409 12.8871 297.023 11.471 296.247 10.53C295.474 9.59051 294.549 9.11773 293.474 9.11773C292.406 9.11773 291.463 9.6201 290.643 10.6203C289.823 11.6228 289.412 13.0775 289.412 14.9869Z" fill="#FF6600"/>
<path d="M9.86547 40.0929C9.49816 40.0504 8.92409 39.7233 8.51663 39.3955C4.63899 35.5897 9.61782 31.2133 15.3775 28.6771V21.4367C16.724 22.2965 17.4602 22.336 17.4996 22.4589L21.9089 18.0825L20.4389 14.3169C33.3418 9.85777 38.5259 8.13891 49.0198 6.38136L47.1385 4.62001L50.2035 2.86321C57.2658 5.19675 63.9237 5.80841 62.7778 11.7405C63.0648 7.7314 58.083 6.1757 50.489 4.04934L49.0198 4.94784L51.8356 7.28063C39.2621 9.44874 31.5446 11.9045 22.358 15.0948L23.6228 18.3686L19.0105 22.9089C19.7875 23.1138 27.8298 25.8131 36.1978 19.9637C36.1978 19.9637 36.3629 19.84 36.3629 19.7998C36.1198 19.3908 35.5457 18.9392 34.8528 18.3276C37.3028 18.4915 38.8925 20.6588 38.6077 22.9089H37.4649C37.5459 22.172 37.3823 21.395 37.1392 20.8637C30.6472 25.6098 23.1343 26.3056 16.724 24.0548V29.6591C13.6212 30.764 8.06676 34.1979 8.10918 37.515C8.3129 39.1094 9.13009 39.6816 9.86547 40.0929Z" fill="black"/>
<path d="M36.3824 38.2135C29.4367 41.7316 22.7849 44.5546 12.5365 44.9637C-0.814121 44.676 -2.89608 35.7972 3.43159 26.5124C9.3927 17.144 18.8656 8.67346 33.9316 3.39548C38.2985 1.84509 44.7095 0.083744 50.9152 0.00178528C59.8164 -0.0809326 68.4736 2.70186 67.9003 11.2529C67.5732 17.7989 58.1441 27.0436 53.1608 33.6723C51.0372 36.575 50.6691 38.4586 54.3021 38.2954C67.4929 37.4341 79.4545 32.8543 90.5595 28.1075C83.0489 33.2216 44.218 52.4894 44.0574 39.3594C44.0968 37.68 44.8716 35.9216 46.1371 34.0404C47.364 32.1576 49.0779 30.1937 50.8334 28.1895C53.4872 25.1623 60.0602 17.9211 62.2649 13.5834C65.9797 5.36096 57.6519 4.95117 50.4654 2.41577L47.4011 4.17257L49.2824 5.93392C38.7885 7.69223 33.6045 9.41033 20.7015 13.8702L22.1715 17.635L17.7622 22.0115C17.6402 21.8893 16.9867 21.8498 15.6393 20.9893V28.2297C9.88043 30.7666 4.90085 35.143 8.77848 38.948C9.1867 39.2759 9.76077 39.603 10.1281 39.6455C17.1904 43.6546 36.4195 38.2135 36.3824 38.2135Z" fill="#FF6600"/>
<path d="M77.9148 42.9235H78.8289C79.0235 42.9235 79.1712 42.9022 79.2803 42.8688C79.3954 42.8271 79.4772 42.7565 79.5317 42.6745C79.5862 42.5812 79.6188 42.4917 79.6188 42.3877C79.6188 42.2352 79.5605 42.1084 79.4529 42.0113C79.3424 41.9157 79.1712 41.8671 78.9349 41.8671H77.9148V42.9235ZM77.4854 44.7463V41.5044H78.916C79.2008 41.5044 79.4227 41.534 79.5681 41.5863C79.7188 41.6501 79.8339 41.7472 79.9225 41.9013C80.0164 42.0462 80.0588 42.2078 80.0588 42.3877C80.0588 42.6169 79.9831 42.8134 79.84 42.9713C79.6892 43.1238 79.4636 43.224 79.1538 43.2718C79.2682 43.3234 79.353 43.3757 79.4121 43.4319C79.5317 43.551 79.6544 43.6899 79.7612 43.8629L80.3239 44.7463H79.7877L79.3666 44.0785C79.2409 43.8758 79.1318 43.7324 79.0569 43.6247C78.9743 43.523 78.9039 43.4501 78.838 43.4076C78.7721 43.3682 78.713 43.3348 78.6464 43.3188C78.5964 43.3143 78.5199 43.3067 78.4078 43.3067H77.9148V44.7463H77.4854Z" fill="#FF6600"/>
<path d="M78.7894 46.2465C80.4881 46.2465 81.8672 44.8615 81.8672 43.1669C81.8672 41.464 80.4881 40.0814 78.7894 40.0814C77.0952 40.0814 75.7168 41.464 75.7168 43.1669C75.7168 44.8615 77.0952 46.2465 78.7894 46.2465ZM76.1932 43.1669C76.1932 41.7304 77.3557 40.5648 78.7894 40.5648C80.2215 40.5648 81.3863 41.7304 81.3863 43.1669C81.3863 44.5959 80.2215 45.7638 78.7894 45.7638C77.3557 45.7638 76.1932 44.5959 76.1932 43.1669Z" fill="#FF6600"/>
<path d="M105.717 28.6298V46.0953C106.928 46.0953 108.28 44.9957 108.28 43.7815V42.8663H109.732C110.704 42.8155 111.823 41.451 111.823 40.7695V36.8833C111.823 36.1525 110.999 35.6236 110.609 35.3314C110.999 34.9892 111.823 34.4079 111.823 33.6763V28.6298H105.717ZM109.304 34.4079C109.304 34.6978 109.064 35.1865 108.77 35.4771C108.725 35.5288 108.578 35.6729 108.578 35.6729C108.555 35.6927 108.53 35.7207 108.48 35.7207H109.304V40.7695H108.286V30.7653H109.304V34.4079ZM118.995 39.9424V32.1229H112.841V42.8109H115.894C116.38 42.7624 116.964 42.5658 117.444 42.2273C117.739 42.0323 117.981 41.8403 118.223 41.5952C118.659 41.1095 118.995 40.5282 118.995 39.9424ZM115.266 34.1651H116.573V40.8166H115.266V34.1651ZM112.21 28.6298V30.7653H119.591V46.0953C120.415 46.0953 122.198 45.2978 122.198 43.6373V30.7653C122.73 30.7653 123.168 29.2111 123.168 28.6298H112.21Z" fill="#FF6600"/>
<path d="M134.289 44.0818V42.4495H139.465C140.213 42.4495 140.889 41.17 141.288 40.4779H134.289V39.0953H138.181C139.287 39.0953 141.086 37.5616 141.138 36.7724V28.6296H124.484V39.0953H131.183V40.4779H124.484V42.4495H131.183V44.0818H124.289V46.1042H139.906C140.549 46.1042 141.138 44.824 141.632 44.0818H134.289ZM134.289 34.8494H135.62C135.815 34.8494 136.014 34.7985 136.209 34.649C136.456 34.5018 137.639 33.0205 137.787 32.8695H134.289V30.6012H138.083V37.1207H134.289V34.8494ZM127.489 34.8494H131.182V37.1199H127.489V34.8494ZM127.489 30.6012H131.182V32.8695H127.489V30.6012Z" fill="#FF6600"/>
<path d="M146.004 43.8399V38.9186H156.65C157.611 38.9186 159.341 37.3227 159.387 36.5236V28.6298H142.86V43.6639C142.86 44.8652 143.582 46.112 144.93 46.112H157.545C158.497 46.112 159.639 44.5912 159.836 43.8399H146.004ZM152.76 30.8753H156.272V36.6708H152.76V30.8753ZM146.028 30.8753H149.718V36.6708H146.028V30.8753Z" fill="#FF6600"/>
<path d="M165.996 43.8399V38.9186H176.644C177.609 38.9186 179.336 37.3227 179.387 36.5236V28.6298H162.861V43.6639C162.861 44.8652 163.583 46.112 164.93 46.112H177.541C178.493 46.112 179.636 44.5912 179.837 43.8399H165.996ZM172.758 30.8753H176.271V36.6708H172.758V30.8753ZM166.027 30.8753H169.712V36.6708H166.027V30.8753Z" fill="#FF6600"/>
<path d="M190.376 40.6292V40.0813H191.614V40.5526H199.121C199.121 40.5526 198.937 41.5657 197.299 41.5657H191.694V44.2832C191.694 46.3443 190.376 46.5909 190.376 46.5909V41.6431H181.434V40.6292H190.376Z" fill="#FF6600"/>
<path d="M184.292 42.9447H185.628C185.628 42.9447 184.237 44.7402 183.817 45.2122C183.399 45.6782 182.842 46.4257 182.034 46.4257C181.582 46.4257 181.434 46.4363 181.434 46.4363L184.292 42.9447Z" fill="#FF6600"/>
<path d="M197.056 42.9447H195.72C195.72 42.9447 197.112 44.7402 197.529 45.2122C197.948 45.6782 198.506 46.4257 199.313 46.4257C199.762 46.4257 199.912 46.4363 199.912 46.4363L197.056 42.9447Z" fill="#FF6600"/>
<path d="M197.221 30.3504C198.818 30.3504 199.122 29.3343 199.122 29.3343H191.634L192.178 28.63H190.948L190.32 29.4132H185.286L185.907 28.63H184.623L181.434 32.7856H182.798V38.4666C182.798 38.4666 182.938 38.4848 183.121 38.4666C185.101 38.4666 185.268 38.2063 185.268 38.2063H197.221C198.809 38.2063 198.964 37.2554 198.964 37.2554H191.528V35.5942H197.221C198.788 35.5942 199.042 34.5872 199.042 34.5872H191.528V32.9503H197.221C198.788 32.9503 199.042 31.9243 199.042 31.9243H191.528V30.3504H197.221ZM183.954 35.6709H190.296V37.2539H183.954V35.6709ZM183.954 33.1074H190.296V34.6669H183.954V33.1074ZM190.298 32.0002H183.954L183.948 31.4356L184.272 30.975L184.698 30.4286H190.298V32.0002Z" fill="#FF6600"/>
<path d="M202.862 28.6298V46.2744H217.678C218.793 46.2744 219.217 45.2143 219.163 44.1169V28.6298H202.862ZM217.964 43.9887C217.964 44.6277 217.824 45.1278 216.986 45.1278H203.968V29.6543H217.964V43.9887Z" fill="#FF6600"/>
<path d="M209.466 35.7872L205.721 42.5541C205.721 42.5541 206.977 42.7909 207.55 41.5979L210.734 35.8031L209.466 35.7872Z" fill="#FF6600"/>
<path d="M214.145 41.2931C214.145 41.6604 214.014 41.8425 213.752 41.8425H212.502V42.8367H214.092C215.072 42.8367 215.396 42.4785 215.344 41.3811C215.344 41.3811 215.335 34.7873 215.344 34.7873C216.578 34.7873 216.655 33.7529 216.655 33.7529L215.344 33.7658V31.493H214.145V33.7658H205.721V34.8632H214.145V41.2931Z" fill="#FF6600"/>
</g>
<defs>
<clipPath id="clip0_1033_604">
<rect width="300" height="46.5909" fill="white"/>
</clipPath>
</defs>
</svg>
