<svg width="300" height="61" viewBox="0 0 300 61" fill="none" xmlns="http://www.w3.org/2000/svg">
<g clip-path="url(#clip0_1027_604)">
<path d="M18.1183 25.3322L29.7896 13.6253L41.467 25.3384L48.2581 18.5262L29.7896 0L11.3271 18.52L18.1183 25.3322Z" fill="#F3BA2F"/>
<path d="M13.3233 30.1413L6.53223 23.3293L-0.259139 30.1417L6.53189 36.9537L13.3233 30.1413Z" fill="#F3BA2F"/>
<path d="M18.1185 34.9526L29.7898 46.6595L41.4667 34.9469L48.2617 41.7553L48.2583 41.7591L29.7898 60.2848L11.3269 41.7653L11.3174 41.7557L18.1185 34.9526Z" fill="#F3BA2F"/>
<path d="M53.0485 36.9569L59.8398 30.1445L53.0488 23.3325L46.2574 30.1449L53.0485 36.9569Z" fill="#F3BA2F"/>
<path d="M36.6786 30.1388H36.6814L29.7901 23.2262L24.6974 28.3347H24.6969L24.1121 28.9218L22.905 30.1326L22.8955 30.1422L22.905 30.1522L29.7901 37.0586L36.6814 30.146L36.6848 30.1422L36.6786 30.1388Z" fill="#F3BA2F"/>
<path d="M70.4268 14.6075H85.1972C88.8631 14.6075 91.6351 15.5513 93.5139 17.4387C94.9678 18.9004 95.6946 20.7122 95.6946 22.8734V22.9648C95.6946 23.878 95.5821 24.6851 95.3556 25.385C95.1297 26.0859 94.8278 26.7168 94.4504 27.2801C94.074 27.8438 93.6364 28.3385 93.1389 28.7642C92.641 29.1908 92.106 29.5565 91.5331 29.8603C93.3758 30.5612 94.8264 31.512 95.884 32.7147C96.941 33.918 97.4703 35.5849 97.4703 37.7157V37.8066C97.4703 39.2684 97.1903 40.5468 96.6297 41.6434C96.0691 42.739 95.2659 43.6527 94.2202 44.3836C93.1745 45.1144 91.9171 45.662 90.4475 46.0277C88.9779 46.3929 87.3493 46.5752 85.5622 46.5752H70.4268V14.6075ZM83.7205 27.5315C85.2688 27.5315 86.4982 27.2658 87.4082 26.7325C88.3186 26.1997 88.7738 25.3393 88.7738 24.1523V24.0609C88.7738 22.9957 88.3789 22.1815 87.59 21.6178C86.8006 21.0545 85.6623 20.7726 84.1757 20.7726H77.2554V27.5315H83.7205ZM85.5873 40.4106C87.1353 40.4106 88.3485 40.1297 89.2295 39.566C90.1096 39.0027 90.5501 38.1271 90.5501 36.9396V36.8486C90.5501 35.783 90.1399 34.9383 89.3206 34.3136C88.5009 33.6904 87.1808 33.378 85.3595 33.378H77.2554V40.4111H85.5873V40.4106Z" fill="#F3BA2F"/>
<path d="M106.268 14.6075H113.279V46.5762H106.268V14.6075Z" fill="#F3BA2F"/>
<path d="M123.899 14.6075H130.364L145.297 34.2913V14.6075H152.217V46.5762H146.254L130.819 26.2535V46.5762H123.899V14.6075Z" fill="#F3BA2F"/>
<path d="M173.445 14.3795H179.909L193.569 46.5762H186.238L183.324 39.4065H169.848L166.934 46.5762H159.785L173.445 14.3795ZM180.82 33.1947L176.586 22.8282L172.353 33.1947H180.82Z" fill="#F3BA2F"/>
<path d="M201.137 14.6075H207.602L222.535 34.2913V14.6075H229.455V46.5762H223.491L208.057 26.2535V46.5762H201.137V14.6075Z" fill="#F3BA2F"/>
<path d="M254.69 47.1238C252.351 47.1238 250.182 46.6971 248.179 45.8453C246.175 44.9935 244.445 43.8284 242.988 42.3514C241.531 40.8749 240.392 39.1317 239.574 37.1224C238.754 35.1126 238.345 32.9662 238.345 30.6826V30.5916C238.345 28.3081 238.754 26.1697 239.574 24.1751C240.393 22.1811 241.531 20.4303 242.988 18.9233C244.445 17.4163 246.191 16.2283 248.224 15.3608C250.257 14.4933 252.504 14.0595 254.963 14.0595C256.449 14.0595 257.807 14.1819 259.036 14.4247C260.266 14.669 261.381 15.0032 262.383 15.4294C263.385 15.856 264.31 16.3736 265.161 16.9821C266.009 17.5915 266.799 18.261 267.528 18.9919L263.067 24.1523C261.821 23.0262 260.554 22.1425 259.265 21.5035C257.974 20.8645 256.525 20.5446 254.917 20.5446C253.581 20.5446 252.344 20.8036 251.206 21.3211C250.068 21.8387 249.089 22.5539 248.269 23.4671C247.45 24.3804 246.813 25.4388 246.357 26.6411C245.902 27.8443 245.675 29.1304 245.675 30.5002V30.5912C245.675 31.961 245.902 33.2556 246.357 34.4727C246.813 35.6911 247.441 36.7562 248.247 37.6695C249.051 38.5827 250.022 39.3065 251.16 39.8393C252.299 40.3725 253.551 40.6382 254.917 40.6382C256.738 40.6382 258.277 40.3035 259.537 39.6336C260.797 38.9646 262.049 38.0509 263.294 36.8934L267.755 41.4148C266.936 42.2981 266.085 43.0899 265.206 43.7893C264.325 44.4902 263.362 45.0911 262.314 45.5939C261.268 46.0958 260.121 46.4772 258.878 46.7352C257.632 46.9938 256.237 47.1238 254.69 47.1238Z" fill="#F3BA2F"/>
<path d="M276.007 14.6075H300V20.8645H282.928V27.3496H297.952V33.6061H282.928V40.3197H300.229V46.5762H276.007V14.6075Z" fill="#F3BA2F"/>
</g>
<defs>
<clipPath id="clip0_1027_604">
<rect width="300" height="60.2848" fill="white"/>
</clipPath>
</defs>
</svg>
