<svg width="260" height="48" viewBox="0 0 260 48" fill="none" xmlns="http://www.w3.org/2000/svg">
<path fill-rule="evenodd" clip-rule="evenodd" d="M41.3596 23.6507V23.1902L37.4521 19.8332H36.9967C35.9222 21.0182 34.263 21.9062 32.4069 21.9062C29.5093 21.9062 27.2294 19.7012 27.2294 16.6742C27.2294 13.6472 29.5093 11.4422 32.4069 11.4422C34.263 11.4422 35.9222 12.3302 36.9967 13.5152H37.4521L41.3596 10.1582V9.69772C39.3082 7.19722 36.086 5.58472 32.4385 5.58472C25.7326 5.58472 20.6543 10.3232 20.6543 16.6742C20.6543 16.9202 20.7099 17.1467 20.7264 17.3882C23.4707 19.2512 25.8934 20.7422 27.9794 22.1072C30.9867 24.0062 33.4138 25.7537 35.4127 27.3782C37.9045 26.7497 39.9244 25.3862 41.3596 23.6507ZM23.0995 23.5322C24.6655 25.4522 26.8763 26.8292 29.4838 27.4172C27.7224 26.4287 26.0166 25.4582 24.4281 24.3842C23.9622 24.0962 23.5474 23.8172 23.0995 23.5322Z" fill="#040404"/>
<path fill-rule="evenodd" clip-rule="evenodd" d="M63.9781 26.3507L63.0012 22.1387L62.6436 21.9077C62.4482 22.0067 62.2859 22.1387 61.7974 22.1387C61.0475 22.1387 60.5921 21.3482 60.2014 20.7242C59.5506 19.7357 59.0291 19.2092 58.5737 18.9797C60.9498 17.9267 62.5459 15.9527 62.5459 13.1222C62.5459 8.74521 59.5506 5.98071 53.9839 5.98071H44.2812V27.3707H50.7271V19.8677H51.3133C52.7455 19.8677 54.57 22.9607 55.4162 24.3437C57.1745 27.1412 58.5737 27.7652 61.0806 27.7652C62.2528 27.7652 63.2297 27.3377 63.8158 26.8112L63.9781 26.3507ZM55.9692 13.4837C55.9692 14.8997 54.9277 15.5897 53.7224 15.5897H50.7271V11.2457H53.7224C54.9277 11.2457 55.9692 12.0362 55.9692 13.4837Z" fill="#040404"/>
<path fill-rule="evenodd" clip-rule="evenodd" d="M88.8811 16.6817C88.8811 10.3307 83.8028 5.59222 77.0638 5.59222C70.3234 5.59222 65.2451 10.3307 65.2451 16.6817C65.2451 23.0327 70.3234 27.7712 77.0638 27.7712C83.8028 27.7712 88.8811 22.9997 88.8811 16.6817ZM82.3044 16.6817C82.3044 19.7417 79.9599 21.9137 77.0638 21.9137C74.1663 21.9137 71.8218 19.7417 71.8218 16.6817C71.8218 13.6217 74.1663 11.4497 77.0638 11.4497C79.9599 11.4497 82.3044 13.6217 82.3044 16.6817Z" fill="#040404"/>
<path fill-rule="evenodd" clip-rule="evenodd" d="M103.249 5.98669L99.236 17.7602L95.4337 5.98669H89.2719L88.9863 6.48019L96.8615 27.3752H100.769L105.203 15.7202L109.651 27.3752H113.559L121.449 6.48019L121.148 5.98669H115.001L111.184 17.8352L107.156 5.98669H103.249Z" fill="#040404"/>
<path fill-rule="evenodd" clip-rule="evenodd" d="M145.044 16.6502C145.044 10.2662 140.779 5.98822 133.844 5.98822H123.979V27.3782H133.844C140.779 27.3782 145.044 23.1002 145.044 16.6502ZM138.467 16.6832C138.467 20.1707 136.416 22.1132 133.584 22.1132H130.425V11.2532H133.584C136.416 11.2532 138.467 13.1957 138.467 16.6832Z" fill="#040404"/>
<path fill-rule="evenodd" clip-rule="evenodd" d="M166.37 11.2517H172.682V27.3752H179.145V11.2517H185.607V5.98669H166.37V11.2517Z" fill="#040404"/>
<path fill-rule="evenodd" clip-rule="evenodd" d="M206.196 13.1267C206.196 8.74973 203.201 5.98523 197.634 5.98523H187.932V27.3752H194.379V19.8722H195.909L199.913 27.3752H206.327L206.62 26.8817L202.322 18.9512C204.633 17.8652 206.196 15.9242 206.196 13.1267ZM199.62 13.4882C199.62 14.9042 198.578 15.5942 197.373 15.5942H194.379V11.2502H197.373C198.578 11.2502 199.62 12.0407 199.62 13.4882Z" fill="#040404"/>
<path fill-rule="evenodd" clip-rule="evenodd" d="M210.104 27.3752H216.567V5.98669H210.104V27.3752Z" fill="#040404"/>
<path fill-rule="evenodd" clip-rule="evenodd" d="M227.086 13.5887V5.98669H220.624V27.3752H227.086V20.7902L228.289 19.4102L233.699 27.3752H240.462L240.763 26.8802L232.948 15.5552L240.162 6.48019L240.011 5.98669H233.098L227.086 13.5887Z" fill="#040404"/>
<path fill-rule="evenodd" clip-rule="evenodd" d="M249.029 22.1102V19.1552H256.393V14.2127H249.029V11.2517H258.647V5.98523H242.566V27.3752H258.798V22.1102H249.029Z" fill="#040404"/>
<path fill-rule="evenodd" clip-rule="evenodd" d="M156 27.6253C160.723 27.6253 164.821 25.3228 164.821 20.8828C164.821 16.0438 160.689 14.7928 157.043 13.7398C155.61 13.3123 154.143 12.8173 154.143 11.7643C154.143 11.0068 154.957 10.5463 156.196 10.5463C158.313 10.5463 160.103 11.8633 161.014 12.7198H161.469L164.496 9.10028V8.63978C162.902 6.83078 159.648 5.44928 156.065 5.44928C151.051 5.44928 147.571 8.14628 147.571 12.0613C147.571 16.2748 151.409 18.1183 154.664 19.0393C156.782 19.6318 158.217 19.7308 158.217 20.8828C158.217 21.7063 157.206 22.1998 155.641 22.1998C153.654 22.1998 151.247 20.9158 150.076 19.7638H149.621L146.627 23.5153V23.9758C148.546 26.1133 151.995 27.6253 156 27.6253Z" fill="#040404"/>
<path fill-rule="evenodd" clip-rule="evenodd" d="M44.816 47.2903C43.2545 43.7233 40.118 39.1468 27.8334 32.6113C22.1675 29.4673 12.4888 24.6268 3.78711 15.4213C4.57613 18.7423 8.6189 26.0398 25.9998 35.1463C30.8151 37.7758 38.9577 40.2418 44.816 47.2783" fill="#FC0000"/>
<path fill-rule="evenodd" clip-rule="evenodd" d="M44.0347 41.1853C42.5528 36.9703 39.8777 31.5733 27.1873 23.5603C21.0089 19.5193 11.9329 14.4448 0 1.51025C0.853642 4.99775 4.62589 14.0668 23.6405 25.8403C29.8865 30.0643 37.948 32.6698 44.0347 41.1853Z" fill="#FC0000"/>
</svg>
