<svg width="175" height="74" viewBox="0 0 175 74" fill="none" xmlns="http://www.w3.org/2000/svg">
<path d="M150.545 32.1038C147.621 32.7779 139.896 33.1523 139.896 33.1523L138.946 36.198C138.946 36.198 142.771 35.8734 145.571 36.148C145.571 36.148 146.471 36.0731 146.571 37.1466C146.621 38.245 146.496 39.3934 146.496 39.3934C146.496 39.3934 146.421 40.0674 145.496 40.2421C144.421 40.4169 137.171 40.7414 137.171 40.7414L135.996 44.6858C135.996 44.6858 135.571 45.5845 136.546 45.3348C137.446 45.0852 145.046 43.6373 146.046 43.837C147.096 44.0866 148.295 45.5345 147.946 46.8327C147.546 48.4054 139.946 53.2485 135.346 52.9239C135.346 52.9239 132.922 53.0737 130.897 49.8034C128.947 46.6829 131.572 40.8163 131.572 40.8163C131.572 40.8163 130.397 38.0703 131.272 37.0717C131.272 37.0717 131.772 36.6473 133.272 36.5225L135.146 32.678C135.146 32.678 133.022 32.8028 131.772 31.2551C130.622 29.7572 130.522 29.1082 131.422 28.7087C132.372 28.2094 141.171 26.6367 147.221 26.8364C147.221 26.8364 149.345 26.5868 151.22 30.2565C151.22 30.2565 152.07 31.7544 150.57 32.1038H150.545ZM127.747 46.8826C126.997 48.705 124.922 50.6272 122.422 49.4539C119.873 48.2556 115.848 40.0674 115.848 40.0674C115.848 40.0674 114.348 37.0218 114.048 37.1216C114.048 37.1216 113.723 36.5225 113.548 39.8677C113.298 43.1879 113.598 49.6536 112.223 50.6772C110.973 51.6757 109.473 51.2513 108.624 50.078C107.924 48.9047 107.624 46.0838 108.024 41.1658C108.474 36.2479 109.598 31.0054 111.023 29.3828C112.523 27.7351 113.723 28.9334 114.173 29.3828C114.173 29.3828 116.098 31.1302 119.348 36.2978L119.898 37.2465C119.898 37.2465 122.847 42.1644 123.147 42.1394C123.147 42.1394 123.397 42.3891 123.597 42.1894C123.897 42.1145 123.797 40.5168 123.797 40.5168C123.797 40.5168 123.247 35.1994 120.498 26.2123C120.498 26.2123 120.098 25.064 120.373 23.9655C120.623 22.967 121.698 23.4663 121.698 23.4663C121.698 23.4663 125.847 25.4634 127.872 32.2037C129.872 38.944 128.522 45.0602 127.772 46.8826H127.747ZM107.399 29.5825C106.999 30.2815 106.824 31.2551 105.099 31.5297C105.099 31.5297 88.3501 32.703 87.5252 33.8763C87.5252 33.8763 86.9752 34.5753 87.8751 34.75C88.8251 34.9498 92.6248 35.449 94.4246 35.5489C96.3745 35.5489 102.924 35.5988 105.324 38.5446C105.324 38.5446 106.699 39.9426 106.649 43.113C106.599 46.3584 106.024 47.5067 104.749 48.68C103.424 49.7784 92.0748 54.8711 84.7504 47.0823C84.7504 47.0823 81.4006 43.3377 85.9253 40.4918C85.9253 40.4918 89.175 38.4947 97.4994 40.8163C97.4994 40.8163 99.9992 41.715 99.8992 42.6387C99.7492 43.6373 97.8244 44.6358 95.0246 44.5859C92.3248 44.511 90.3249 43.2129 90.7249 43.4376C91.0999 43.5624 87.8001 41.8399 86.7752 43.0132C85.7753 44.1116 86.0253 44.7607 87.0252 45.4347C89.525 46.8826 99.3493 46.3584 102.274 43.0881C102.274 43.0881 103.449 41.765 101.674 40.6915C99.9242 39.6929 94.8246 39.0688 92.8497 38.9939C90.9749 38.8941 83.9504 38.9939 82.9005 37.1716C82.9005 37.1716 81.9006 35.8734 83.0005 32.3285C84.1504 28.5839 92.3248 27.136 95.8745 26.8364C95.8745 26.8364 105.624 26.437 107.449 28.4341C107.449 28.4341 107.699 28.8835 107.399 29.5575V29.5825ZM79.7508 51.5259C78.5758 52.3997 76.076 52.0252 75.3511 51.0266C74.6511 50.1529 74.4012 46.7079 74.5262 41.2906C74.7011 35.7486 74.7761 28.9584 76.026 27.8599C77.2759 26.7865 78.0259 27.7351 78.5258 28.4591C79.0258 29.208 79.6758 30.0318 79.7758 31.7543C79.9257 33.5018 80.3507 42.4889 80.3507 42.4889C80.3507 42.4889 80.9007 50.6772 79.7758 51.5259H79.7508ZM82.2506 22.3179C78.8008 23.4912 76.451 23.1168 74.4512 22.243C73.5762 23.8158 73.0513 24.2901 72.4013 24.3899C71.4014 24.4898 70.5265 22.8921 70.4015 22.3928C70.2015 22.0183 69.7265 21.3443 70.3015 19.8215C68.3516 18.074 68.2016 15.7274 68.5516 14.1546C69.0016 12.3073 72.3013 5.36728 82.3006 4.54346C82.3006 4.54346 87.2002 4.19396 88.0501 6.79023H88.2001C88.2001 6.79023 92.9497 6.79023 92.8497 11.0341C92.8497 15.278 87.6002 20.5704 82.2506 22.3928V22.3179ZM86.7002 10.2353C83.5505 10.7346 78.7008 14.9285 76.376 18.3985C79.9507 19.0476 86.2003 18.798 89 13.1561C89 13.1561 90.3249 9.61118 86.7002 10.2353ZM72.8763 12.9813C71.8764 14.604 71.8264 15.5776 72.3013 16.2267C73.4762 14.4792 75.5511 11.7331 78.6758 9.58621C76.276 9.83585 74.2512 10.8344 72.8763 12.9813ZM158.045 51.3512C155.745 56.9931 153.795 62.7099 152.67 71.2726C152.67 71.2726 152.42 72.9452 151.045 72.3959C149.67 71.8967 147.421 69.6499 146.921 66.4794C146.421 62.3354 148.27 55.3454 152.045 47.307C150.945 45.5595 150.17 42.9632 150.795 39.3185C150.795 39.3185 151.795 32.5782 158.545 26.4869C158.545 26.4869 159.345 25.8129 159.795 26.0376C160.345 26.2872 160.12 28.4341 159.67 29.5325C159.27 30.581 156.27 35.7736 156.27 35.7736C156.27 35.7736 154.395 39.3185 154.92 42.0895C158.47 36.6473 166.544 25.6132 171.544 29.1082C174.718 31.3549 174.718 38.5945 172.344 42.7885C170.469 46.1087 165.169 52.9739 158.095 51.3761L158.045 51.3512ZM168.494 34.4005C166.644 36.3977 163.344 40.1922 160.745 45.3348C163.494 45.0353 166.169 43.5125 166.994 42.7386C168.319 41.5653 171.369 38.3948 170.894 34.2008C170.894 34.2008 170.594 32.004 168.494 34.4005ZM56.5025 54.297C47.6532 56.9931 39.3039 55.7449 34.7542 54.5466C34.6292 56.3939 34.4292 57.1678 34.1293 57.4674C33.7793 57.8668 30.8795 59.5145 29.2796 57.1678C28.5797 56.0444 28.2297 54.0223 28.0297 52.175C17.7805 47.5317 13.0309 40.6915 12.8809 40.4419C12.6309 40.1922 10.3061 37.7707 12.6309 34.775C14.8057 32.0789 22.0052 29.3578 28.4547 28.2843C28.7047 22.7922 29.3046 18.5483 30.0796 16.676C31.0045 14.4293 32.1794 16.4264 33.2293 17.9242C34.0793 19.0476 34.6042 23.8657 34.6542 27.7102C38.8539 27.5105 41.4037 27.81 46.0783 28.7087C52.2279 29.7572 56.3276 32.9027 56.0026 36.4476C55.7026 39.9426 52.5028 41.3905 51.2529 41.4904C50.003 41.5902 48.0032 40.6665 48.0032 40.6665C46.6033 40.0175 47.8782 39.4183 49.5031 38.7193C51.3029 37.8456 50.903 36.9719 50.903 36.9719C50.253 34.9747 42.2786 33.6516 34.3542 33.6516C34.3542 38.0203 34.5292 45.2599 34.6542 49.4789C40.2038 50.5274 44.3535 50.3027 44.3535 50.3027C44.3535 50.3027 64.6019 49.7285 65.1769 36.8221C65.8018 23.8907 44.9284 11.5084 29.5546 7.61405C14.2058 3.59482 5.50646 6.44073 4.75652 6.81519C3.93158 7.21462 4.68152 7.3644 4.68152 7.3644C4.68152 7.3644 5.50646 7.48923 7.00634 7.98851C8.50623 8.48779 7.30632 9.23671 7.30632 9.23671C4.68152 10.1354 1.75675 9.61118 1.18179 8.4129C0.606836 7.23958 1.55676 6.16613 2.68168 4.59339C3.7316 2.97072 4.9315 3.02065 4.9315 3.02065C23.93 -3.59484 47.1283 8.26311 47.1283 8.26311C68.8266 19.1974 72.5263 32.0539 72.1263 37.0467C71.7764 41.9647 69.8765 50.2777 56.5025 54.3219V54.297ZM14.7557 36.4476C12.6059 37.4462 14.1058 39.0439 14.1058 39.0439C18.1555 43.3627 23.1051 46.0838 27.8547 47.7813C28.4047 40.2921 28.3547 37.6209 28.3547 33.8513C21.0053 34.3506 16.7556 35.5489 14.7557 36.4476Z" fill="black"/>
</svg>
