<?xml version="1.0" encoding="UTF-8"?>
<svg width="590px" height="116px" viewBox="0 0 590 116" version="1.1" xmlns="http://www.w3.org/2000/svg" xmlns:xlink="http://www.w3.org/1999/xlink">
    <title>Endear</title>
    <g id="Page-1" stroke="none" stroke-width="1" fill="none" fill-rule="evenodd">
        <g id="Logo-on-White" transform="translate(-105.000000, -142.000000)">
            <g id="Logo" transform="translate(105.000000, 142.000000)">
                <path d="M349.361389,8.64052944 C353.64658,7.19946272 355.551466,8.15856193 355.551466,11.8369895 L355.551466,11.8369895 L355.551466,99.0537646 C355.551466,105.767459 361.898945,107.366495 361.898945,111.202892 L361.898945,111.202892 L361.898945,111.683248 C361.898945,113.441865 360.628485,114.400964 358.723599,114.400964 L358.723599,114.400964 L339.046736,114.400964 C336.825439,114.400964 335.397578,112.963121 335.397578,110.88373 L335.397578,110.88373 L335.079561,107.366495 C330.318952,112.963121 322.545218,116 314.451861,116 C295.091407,116 277.160422,101.610288 277.160422,75.8709665 C277.160422,52.2094247 294.297972,36.0627073 314.609263,36.0627073 C322.386209,36.0627073 328.415672,38.3000682 333.176281,42.2976582 L333.176281,42.2976582 L333.176281,31.0221977 C333.176281,23.6669544 325.240326,23.1865989 325.240326,19.1922327 L325.240326,19.1922327 L325.240326,18.7118772 C325.240326,17.1128412 326.512392,15.6733864 328.57468,15.0350615 L328.57468,15.0350615 Z M474.142414,36.0253165 C494.685131,36.0253165 508.587016,48.5532554 510.801162,68.5362738 L510.801162,68.5362738 L514.27824,97.8730797 C515.541172,108.815549 522.492114,105.800427 522.492114,110.084567 C522.492114,113.730986 514.909706,114.681947 507.324085,114.681947 C498.31646,114.681947 494.209524,112.937448 493.261522,106.120091 C489.784444,111.351979 483.148431,115.316456 472.244803,115.316456 C455.180771,115.316456 442.538604,107.228474 442.538604,91.370567 C442.381139,75.5126604 455.653165,67.2656494 471.139337,67.2656494 C478.408422,67.2656494 484.253898,69.1691765 488.360834,72.0236639 L488.360834,72.0236639 L488.20337,70.1217432 C486.31058,51.5667717 483.781504,42.6852517 474.142414,42.6852517 C461.49864,42.6852517 465.133183,62.9847214 453.284767,62.9847214 C447.593542,62.9847214 443.804749,59.4941186 443.804749,54.1032014 C443.804749,42.6852517 457.706633,36.0253165 474.142414,36.0253165 Z M401.850776,35.3417722 C415.597302,35.3417722 427.506683,43.9137439 433.513474,56.4775259 C434.693351,58.9399438 435.373062,64.9276592 429.991478,64.9276592 L429.991478,64.9276592 L392.321989,64.9276592 C391.239901,64.9276592 390.340566,65.8190032 390.37904,66.883486 C391.102035,86.8249029 399.656142,98.8564435 412.64761,98.8564435 C424.013543,98.8564435 426.447038,93.1524833 429.696509,91.5220933 C431.992138,90.369438 433.755541,92.3364867 433.25217,94.0534461 C430.608669,103.082312 419.952907,114.632911 401.850776,114.632911 C382.049367,114.632911 365.999196,96.8829823 365.999196,74.9873418 C365.999196,53.0917013 382.049367,35.3417722 401.850776,35.3417722 Z M142.850346,35.3417722 C156.598616,35.3417722 168.50812,43.9137439 174.514972,56.4775259 C175.693258,58.9399438 176.37458,64.9276592 170.99294,64.9276592 L170.99294,64.9276592 L133.323064,64.9276592 C132.240965,64.9276592 131.34162,65.8190032 131.380095,66.883486 C132.103098,86.8249029 140.657292,98.8564435 153.648894,98.8564435 C165.014943,98.8564435 167.448464,93.1524833 170.697968,91.5220933 C172.992018,90.369438 174.757042,92.3364867 174.253665,94.0534461 C171.610137,103.082312 160.954266,114.632911 142.850346,114.632911 C123.050336,114.632911 107,96.8829823 107,74.9873418 C107,53.0917013 123.050336,35.3417722 142.850346,35.3417722 Z M548.253997,36.6923661 C551.900361,34.9437739 553.324898,36.8526403 553.324898,39.8706046 L553.324898,39.8706046 L553.324898,51.7950095 C556.814049,41.6207995 564.262385,36.05768 574.880635,36.05768 C584.231561,36.05768 589.462882,42.4157598 589.462882,50.5240346 C589.462882,57.1994575 586.928234,63.0815228 579.319477,63.0815228 C566.957454,63.0815228 572.504804,49.4101285 563.946356,49.4101285 C557.76374,49.4101285 555.545121,58.1530893 555.545121,66.8960501 L555.545121,66.8960501 L555.545121,98.6896549 C555.545121,105.365078 563.469906,106.637655 563.469906,110.610854 L563.469906,110.610854 L563.469906,111.247143 C563.469906,112.995735 562.043766,113.949367 559.983963,113.949367 L559.983963,113.949367 L530.663861,113.949367 C528.443638,113.949367 527.017497,112.995735 527.017497,111.247143 L527.017497,111.247143 L527.017497,110.610854 C527.017497,106.637655 533.198509,105.365078 533.198509,98.6896549 L533.198509,98.6896549 L533.198509,61.4916021 C533.198509,54.4956307 525.90899,54.0196162 525.90899,50.0448146 L525.90899,50.0448146 L525.90899,49.4101285 C525.90899,47.8202079 527.176314,46.549233 529.23772,45.5956011 L529.23772,45.5956011 Z M204.90417,36.0543218 C208.555541,34.135248 210.299335,36.3752425 210.299335,39.4135073 L210.299335,39.4135073 L210.299335,48.3702603 C214.583353,40.2150029 222.990818,35.4157056 233.779542,35.4157056 C248.214819,35.4157056 262.173202,44.0515378 264.079173,69.4832977 L264.079173,69.4832977 L265.983537,98.2758557 C266.45722,105.311922 271.69342,106.59238 271.69342,110.590182 L271.69342,110.590182 L271.69342,111.23041 C271.69342,112.830176 270.265949,113.949367 268.045261,113.949367 L268.045261,113.949367 L240.598966,113.949367 C238.379883,113.949367 236.949201,112.830176 236.949201,111.23041 L236.949201,111.23041 L236.949201,110.590182 C236.949201,106.59238 242.980225,105.311922 242.662295,98.2758557 L242.662295,98.2758557 L241.07586,68.6834148 C240.282642,51.5697918 235.680695,44.5305 227.274836,44.5305 C218.7068,44.5305 213.790135,51.7294458 213.790135,62.1263105 L213.790135,62.1263105 L213.790135,98.4355098 C213.790135,105.311922 220.611165,106.59238 220.611165,110.590182 L220.611165,110.590182 L220.611165,111.23041 C220.611165,112.830176 219.183694,113.949367 216.963006,113.949367 L216.963006,113.949367 L187.454987,113.949367 C185.232693,113.949367 183.806828,112.830176 183.806828,111.23041 L183.806828,111.23041 L183.806828,110.590182 C183.806828,106.59238 190.627858,105.311922 190.627858,98.4355098 L190.627858,98.4355098 L190.627858,61.1667736 C190.627858,53.9678277 182.854646,53.3292116 182.854646,49.3297972 L182.854646,49.3297972 L182.854646,48.6895684 C182.854646,47.0914153 184.123152,46.2915324 186.027516,45.3319955 L186.027516,45.3319955 Z M477.46042,74.4026712 C470.824407,74.4026712 465.92372,79.6361659 465.92372,87.724148 C465.92372,98.668224 471.139337,108.340069 479.198959,108.340069 C486.464831,108.340069 490.889911,101.203047 490.41591,94.0660256 L490.41591,94.0660256 L489.943515,88.5176859 C488.995514,79.1590794 483.938968,74.4026712 477.46042,74.4026712 Z M336.345202,65.5965154 C329.421118,50.1219734 316.058004,41.3514544 306.496632,46.0067124 C296.933654,50.6635824 294.792665,66.9827764 301.718355,82.4557065 C308.640834,97.9302484 322.005553,106.700767 331.565319,102.045509 C341.128297,97.3902514 343.267681,81.0710573 336.345202,65.5965154 Z M402.254756,41.9755517 C396.185444,41.9002042 390.563396,46.6807578 390.262014,57.1925248 C390.234762,58.1223441 391.029896,58.8918497 392.010989,58.8918497 L392.010989,58.8918497 L403.174932,58.8918497 C407.427938,58.8918497 409.064697,57.0915272 409.064697,49.4926595 C409.064697,45.3212979 406.642423,42.0300583 402.254756,41.9755517 Z M143.255933,41.9755517 C137.186559,41.9002042 131.564453,46.6807578 131.263068,57.1925248 C131.235815,58.1223441 132.030958,58.8918497 133.012061,58.8918497 L133.012061,58.8918497 L144.176118,58.8918497 C148.429168,58.8918497 150.065944,57.0915272 150.065944,49.4926595 C150.065944,45.3212979 147.643645,42.0300583 143.255933,41.9755517 Z" id="Combined-Shape" fill="#000000"></path>
                <g id="Group" transform="translate(0.000000, 0.500000)">
                    <path d="M49,0 C21.9373,0 0,21.6888199 0,48.4431818 C0,75.1975438 21.9373,96.8863636 49,96.8863636 C76.0618833,96.8863636 98,75.1975438 98,48.4431818 C98,21.6888199 76.0618833,0 49,0" id="Combined-Shape" fill="#FF8955"></path>
                    <polygon id="Fill-4" fill="#FFFFFF" points="75.9425287 35.0852273 49.4712644 48.1704545 49.4712644 61.2556818 75.9425287 48.1704545 75.9425287 61.2556818 49.4712644 74.3409091 49.4712644 61.2556818 23 74.3409091 23 61.2556818 49.4712644 48.1704545 49.4712644 35.0852273 23 48.1704545 23 35.0852273 49.4712644 22 49.4712644 35.0852273 75.9425287 22"></polygon>
                </g>
            </g>
        </g>
    </g>
</svg>