<svg width="209" height="42" viewBox="0 0 209 42" fill="none" xmlns="http://www.w3.org/2000/svg">
<g clip-path="url(#clip0_911_644)">
<path d="M75.3982 30.6075C77.624 30.6075 79.8498 30.0825 81.9086 28.665V23.835H75.6764V19.53H87.2504V30.9225C84.5795 33.39 80.7401 35.385 75.3982 35.385C65.7718 35.385 59.6509 28.98 59.6509 21C59.6509 13.02 65.7717 6.61499 74.9531 6.61499C79.4046 6.61499 83.3553 8.18999 86.0263 11.0775L82.1312 14.7C80.4062 12.6525 77.9022 11.445 74.8974 11.445C69.2773 11.445 65.104 15.855 65.104 20.9475C65.104 26.25 69.333 30.6075 75.3982 30.6075Z" fill="black"/>
<path d="M101.662 35.385C95.2633 35.385 90.1997 30.6075 90.1997 24.7275C90.1997 18.8475 95.2633 14.07 101.662 14.07C108.062 14.07 113.125 18.8475 113.125 24.7275C113.125 30.6075 108.062 35.385 101.662 35.385ZM101.662 30.765C105.335 30.765 108.006 27.93 108.006 24.7275C108.006 21.525 105.335 18.69 101.662 18.69C97.9899 18.69 95.319 21.525 95.319 24.7275C95.319 27.93 97.9899 30.765 101.662 30.765Z" fill="black"/>
<path d="M126.369 35.385C119.969 35.385 114.906 30.6075 114.906 24.7275C114.906 18.8475 119.969 14.07 126.369 14.07C132.768 14.07 137.831 18.8475 137.831 24.7275C137.831 30.6075 132.768 35.385 126.369 35.385ZM126.369 30.765C130.041 30.765 132.712 27.93 132.712 24.7275C132.712 21.525 130.041 18.69 126.369 18.69C122.696 18.69 120.025 21.525 120.025 24.7275C120.025 27.93 122.752 30.765 126.369 30.765Z" fill="black"/>
<path d="M157.474 7.03497H162.593V35.0175H157.474V32.9175C155.86 34.4925 153.523 35.4375 150.796 35.4375C144.564 35.4375 139.667 30.5025 139.667 24.78C139.667 19.0575 144.62 14.1225 150.796 14.1225C153.467 14.1225 155.86 15.0675 157.474 16.6425V7.03497ZM151.13 18.69C147.458 18.69 144.787 21.525 144.787 24.7275C144.787 27.93 147.458 30.765 151.13 30.765C154.803 30.765 157.474 27.93 157.474 24.7275C157.474 21.525 154.803 18.69 151.13 18.69Z" fill="black"/>
<path d="M183.96 34.965L177.06 23.8875H171.217V34.965H167.601V7.03497H176.838C183.96 7.03497 187.132 10.7625 187.132 15.3825C187.132 19.2675 185.017 22.4175 180.9 23.4675L188.078 34.965H183.96ZM171.217 21.105H177.004C181.4 21.105 183.515 18.9525 183.515 15.645C183.515 12.3375 181.345 10.185 177.004 10.185H171.217V21.105Z" fill="black"/>
<path d="M196.758 24.36L189.191 14.5425H193.253L198.817 21.7875L204.382 14.5425H208.444L200.876 24.4125L209.056 34.965H204.938L198.762 27.0375L192.696 34.965H188.579L196.758 24.36Z" fill="black"/>
<path d="M36.948 12.915H30.8271V7.14C30.8271 3.2025 27.4328 0 23.2595 0C19.0862 0 15.6919 3.2025 15.6919 7.14V27.195H36.948C41.1213 27.195 44.5156 23.9925 44.5156 20.055C44.5156 16.1175 41.1213 12.915 36.948 12.915Z" fill="#FFDB00"/>
<path d="M15.6919 29.0325V34.86C15.6919 38.7975 19.0862 42 23.2595 42C27.4328 42 30.8271 38.7975 30.8271 34.86V29.0325H15.6919Z" fill="#FFDB00"/>
<path d="M13.6885 12.915H7.56763C3.3943 12.915 0 16.1175 0 20.055C0 23.9925 3.3943 27.195 7.56763 27.195H13.6885V12.915Z" fill="#FFDB00"/>
</g>
<defs>
<clipPath id="clip0_911_644">
<rect width="209" height="42" fill="white"/>
</clipPath>
</defs>
</svg>
