<svg width="175" height="23" viewBox="0 0 175 23" fill="none" xmlns="http://www.w3.org/2000/svg">
<g clip-path="url(#clip0_911_694)">
<path d="M0.612793 0.931335H8.42469V7.95108H12.0772V0.931335H19.8891V21.7257H12.0772V13.9563H8.42469V21.7257H0.612793" fill="#4E75A0"/>
<path d="M34.2959 0.931335H49.8161V6.26963H42.1307V8.5255H49.2715V13.8677H42.1307V16.3222H50.0761V21.7257H34.2959" fill="#4E75A0"/>
<path d="M74.8783 13.3561H71.1969L73.1039 5.14368L74.8783 13.3561ZM61.3467 21.7613H69.2164L69.9821 18.4305H76.0096L76.7285 21.7613H85.2843L78.746 0.931885H68.2036" fill="#4E75A0"/>
<path d="M104.441 9.51194V5.58636C104.776 5.55338 105.073 5.55335 105.33 5.55335C107.085 5.55335 107.86 6.10637 107.86 7.40031C107.86 8.72927 106.885 9.53058 105.014 9.53058C104.84 9.53058 104.634 9.53057 104.441 9.511V9.51194ZM96.6284 21.7249H104.441V14.1892C104.693 14.1668 104.952 14.1668 105.158 14.1668C107.028 14.1668 107.29 15.0538 107.604 17.2941L107.805 18.8382C107.926 19.7699 108.151 20.7183 108.411 21.726H116.331C115.987 20.1857 115.727 18.9512 115.61 18.0253L115.351 15.8015C114.98 12.8077 114.314 11.5342 111.523 11.061C114.231 10.3386 115.61 8.72924 115.61 6.21537C115.61 2.05806 112.934 0.93158 107.232 0.93158H96.6285" fill="#4E75A0"/>
<path d="M135.182 15.0539V15.2205C135.182 16.6449 135.813 17.2943 137.161 17.2943C138.377 17.2943 139.099 16.6945 139.099 15.8017C139.099 15.1358 138.808 14.6237 138.285 14.3627C137.222 13.8418 135.349 13.5469 132.905 12.767C129.563 11.6999 128 10.0574 128 7.14243C128 3.07176 131.292 0.61438 137.339 0.61438C142.836 0.61438 145.743 2.65991 145.743 6.32947V6.76175H138.861C138.775 5.51941 138.206 4.91774 137.051 4.91774C135.987 4.91774 135.324 5.52037 135.324 6.30316C135.324 7.75188 136.763 7.69349 139.385 8.41983C144.201 9.70499 146.499 11.0349 146.499 14.8135C146.499 19.2123 142.987 22.0708 136.99 22.0708C130.914 22.0708 127.686 19.7702 127.686 15.8017C127.686 15.5728 127.686 15.3237 127.722 15.054" fill="#4E75A0"/>
<path d="M174.387 6.47865H169.401V21.7254H161.4V6.47865H156.383V0.93103H174.387" fill="#4E75A0"/>
</g>
<defs>
<clipPath id="clip0_911_694">
<rect width="175" height="22.6852" fill="white"/>
</clipPath>
</defs>
</svg>
