<svg width="168" height="35" viewBox="0 0 168 35" fill="none" xmlns="http://www.w3.org/2000/svg">
<g style="mix-blend-mode:luminosity" clip-path="url(#clip0_163_1457)">
<path d="M70.1235 5.86157H66.165V29.1266H80.6689V25.6131H70.1235V5.86157Z" fill="white"/>
<path d="M89.1216 12.8569C84.7833 12.8569 81.8381 16.3388 81.8381 21.15C81.8381 25.9296 84.7833 29.4431 89.1216 29.4431C91.5284 29.4431 93.1435 28.4619 94.0302 27.2591L94.2202 29.1266H97.6402V13.1735H94.2202L94.0302 15.041C93.1435 13.8382 91.5284 12.8569 89.1216 12.8569ZM89.945 16.2122C91.8451 16.2122 92.9851 17.225 93.8402 18.5861V23.714C92.9851 25.075 91.8451 26.088 89.945 26.088C87.4749 26.088 85.7016 24.157 85.7016 21.15C85.7016 18.143 87.4749 16.2122 89.945 16.2122Z" fill="white"/>
<path d="M107.097 7.8241H103.297V13.1735H100.288V16.4021H103.297V23.4924C103.297 27.354 105.608 29.4431 109.25 29.4431C110.833 29.4431 112.005 29 112.797 28.4935L111.783 25.5181C111.308 25.8031 110.612 26.0247 109.598 26.0247C108.11 26.0247 107.097 25.075 107.097 23.4607V16.4021H111.91V13.1735H107.097V7.8241Z" fill="white"/>
<path d="M120.085 7.8241H116.285V13.1735H113.277V16.4021H116.285V23.4924C116.285 27.354 118.597 29.4431 122.239 29.4431C123.822 29.4431 124.994 29 125.785 28.4935L124.772 25.5181C124.297 25.8031 123.6 26.0247 122.587 26.0247C121.099 26.0247 120.085 25.075 120.085 23.4607V16.4021H124.899V13.1735H120.085V7.8241Z" fill="white"/>
<path d="M132.029 13.1735H128.229V29.1266H132.029V13.1735ZM130.129 5.73499C128.799 5.73499 127.785 6.71624 127.785 8.07732C127.785 9.4384 128.799 10.4197 130.129 10.4197C131.491 10.4197 132.504 9.4384 132.504 8.07732C132.504 6.71624 131.491 5.73499 130.129 5.73499Z" fill="white"/>
<path d="M143.386 12.8569C138.477 12.8569 135.215 16.3388 135.215 21.15C135.215 25.9296 138.509 29.4431 143.417 29.4431C146.299 29.4431 148.485 28.1454 149.91 25.9296L147.185 23.8089C146.426 25.075 145.191 26.1196 143.449 26.1196C140.63 26.1196 139.079 23.9355 139.079 21.15C139.079 18.3329 140.567 16.1805 143.417 16.1805C145.191 16.1805 146.362 17.1934 147.091 18.4596L149.846 16.3705C148.422 14.1547 146.299 12.8569 143.386 12.8569Z" fill="white"/>
<path d="M159.088 12.8569C154.495 12.8569 151.266 16.3705 151.266 21.1818C151.266 25.9613 154.432 29.4431 159.372 29.4431C162.317 29.4431 164.408 28.4619 165.991 26.5627L163.363 24.4104C162.634 25.4232 161.272 26.2463 159.404 26.2463C156.745 26.2463 155.224 24.8534 155.13 22.3211H166.402V20.9918C166.402 16.5286 163.996 12.8569 159.088 12.8569ZM159.025 15.8957C161.305 15.8957 162.571 17.415 162.666 19.5991H155.13C155.256 17.3833 156.776 15.8957 159.025 15.8957Z" fill="white"/>
<path fill-rule="evenodd" clip-rule="evenodd" d="M13.3904 24.8219L6.02023 17.3785C4.76788 16.1138 2.73743 16.1138 1.48467 17.3785C0.232323 18.6433 0.232323 20.6939 1.48467 21.9592L11.1226 31.6929C12.375 32.9576 14.4059 32.9576 15.6582 31.6929L24.7297 22.5309L20.1946 17.9502L13.3904 24.8219Z" fill="#1BAC94"/>
<path fill-rule="evenodd" clip-rule="evenodd" d="M41.1699 10.509L26.9976 24.8221L12.8237 10.5074C11.5709 9.24217 9.54049 9.24217 8.28814 10.5074C7.03579 11.7722 7.03579 13.8228 8.28814 15.088L24.7299 31.693C25.9822 32.9579 28.0126 32.9579 29.2654 31.693L45.7055 15.0896C46.9578 13.8245 46.9578 11.7738 45.7055 10.509C44.4527 9.24419 42.4223 9.24419 41.1699 10.509Z" fill="#F1AE21"/>
<path fill-rule="evenodd" clip-rule="evenodd" d="M52.5104 21.9608L42.8741 31.693C41.6217 32.9577 39.5913 32.9577 38.3389 31.693L15.0931 8.21613C13.8407 6.95134 13.8407 4.9007 15.0931 3.63591C16.3459 2.37071 18.3762 2.37071 19.6286 3.63591L40.6062 24.822L47.9748 17.3802C49.2276 16.1154 51.2581 16.1154 52.5104 17.3802C53.7627 18.6454 53.7627 20.696 52.5104 21.9608Z" fill="#E76450"/>
<path fill-rule="evenodd" clip-rule="evenodd" d="M38.9025 3.63756C37.6501 2.37277 35.6197 2.37277 34.367 3.63756L20.1946 17.9508L24.7302 22.5313L38.9025 8.21818C40.1549 6.95299 40.1549 4.90235 38.9025 3.63756Z" fill="#1BAC94"/>
</g>
<defs>
<clipPath id="clip0_163_1457">
<rect width="167" height="35" fill="white" transform="translate(0.359863)"/>
</clipPath>
</defs>
</svg>
