<svg width="105" height="37" viewBox="0 0 105 37" fill="none" xmlns="http://www.w3.org/2000/svg">
<path d="M36.2356 0.00088501H30.8137C29.9824 0.00088501 29.3066 0.68084 29.3066 1.51621V35.4841C29.3066 36.3209 29.9824 36.9994 30.8137 36.9994H36.2356C37.0669 36.9994 37.7412 36.3209 37.7412 35.4841V1.51621C37.7412 0.68084 37.0669 0.00088501 36.2356 0.00088501Z" fill="#00B900"/>
<path d="M73.555 0.00088501H68.133C67.3017 0.00088501 66.6275 0.68084 66.6275 1.51621V21.6967L51.1929 0.674862C51.1573 0.621063 51.1173 0.570251 51.0758 0.520935L51.0654 0.511971C51.0358 0.4776 51.0061 0.447712 50.975 0.417824C50.9661 0.408855 50.9572 0.401382 50.9469 0.392418C50.9217 0.368507 50.895 0.346092 50.8668 0.325169C50.855 0.313213 50.8417 0.304249 50.8283 0.293785C50.8016 0.275852 50.7765 0.256428 50.7498 0.23999C50.735 0.229527 50.7201 0.220562 50.7038 0.213089C50.6772 0.196651 50.6505 0.180214 50.6238 0.166763C50.6075 0.15929 50.5927 0.150326 50.5764 0.144348C50.5483 0.130898 50.5201 0.117447 50.4905 0.106987C50.4727 0.101009 50.4579 0.0950317 50.4416 0.0890541C50.4119 0.0785942 50.3823 0.0681343 50.3512 0.0606613C50.3349 0.0546837 50.3171 0.0516968 50.2993 0.0457191C50.2697 0.0397415 50.2415 0.0322685 50.2134 0.0262909C50.1926 0.0233002 50.1704 0.0203094 50.1496 0.0188141C50.123 0.0128365 50.0963 0.0113449 50.0696 0.00835419C50.0444 0.00536728 50.0192 0.00536728 49.9926 0.00387573C49.9733 0.00387573 49.9585 0.00088501 49.9392 0.00088501H44.5187C43.6874 0.00088501 43.0117 0.68084 43.0117 1.51621V35.4841C43.0117 36.3209 43.6874 36.9994 44.5187 36.9994H49.9392C50.772 36.9994 51.4462 36.3209 51.4462 35.4841V15.3096L66.9001 36.3583C67.0068 36.5107 67.1387 36.6348 67.2825 36.7334C67.2869 36.7364 67.2928 36.7409 67.2973 36.7453C67.3284 36.7648 67.3595 36.7842 67.3906 36.8021C67.4054 36.8111 67.4188 36.8171 67.4336 36.8245C67.4558 36.838 67.481 36.85 67.5047 36.8604C67.5299 36.8709 67.5521 36.8813 67.5788 36.8918C67.5936 36.8978 67.6085 36.9037 67.6233 36.9082C67.6588 36.9217 67.6914 36.9321 67.7255 36.9426C67.7329 36.9426 67.7403 36.9456 67.7477 36.9471C67.8707 36.98 67.9997 36.9994 68.133 36.9994H73.555C74.3878 36.9994 75.0605 36.3209 75.0605 35.4841V1.51621C75.0605 0.68084 74.3878 0.00088501 73.555 0.00088501Z" fill="#00B900"/>
<path d="M23.1653 28.4938H8.43304V1.51831C8.43304 0.679955 7.75881 0 6.92899 0H1.50553C0.67423 0 0 0.679955 0 1.51831V35.4802V35.4832C0 35.8912 0.161519 36.2603 0.420838 36.5323C0.426765 36.5397 0.432692 36.5472 0.441583 36.5547C0.448992 36.5621 0.456402 36.5681 0.463811 36.5756C0.734984 36.8386 1.09951 37 1.50405 37H1.50553H23.1653C23.9966 37 24.6679 36.3186 24.6679 35.4802V30.0122C24.6679 29.1738 23.9966 28.4938 23.1653 28.4938Z" fill="#00B900"/>
<path d="M103.497 8.50616C104.329 8.50616 105 7.8277 105 6.98784V1.51981C105 0.681446 104.329 0 103.497 0H81.8376H81.8346C81.4286 0 81.0626 0.164383 80.7914 0.428894C80.7855 0.434872 80.7781 0.439358 80.7736 0.445335C80.7647 0.4543 80.7573 0.463268 80.7499 0.472233C80.4921 0.744217 80.332 1.11184 80.332 1.51831V1.51981V35.4817V35.4832C80.332 35.8912 80.4936 36.2603 80.7529 36.5323C80.7588 36.5397 80.7662 36.5487 80.7736 36.5547C80.7795 36.5621 80.7884 36.5696 80.7958 36.5756C81.0655 36.8371 81.4315 37 81.8346 37H81.8376H103.497C104.329 37 105 36.3186 105 35.4817V30.0122C105 29.1753 104.329 28.4938 103.497 28.4938H88.7666V22.7523H103.497C104.329 22.7523 105 22.0724 105 21.234V15.766C105 14.9276 104.329 14.2462 103.497 14.2462H88.7666V8.50616H103.497Z" fill="#00B900"/>
</svg>
