<?xml version="1.0" encoding="utf-8"?>
<!-- Generator: Adobe Illustrator 24.1.0, SVG Export Plug-In . SVG Version: 6.00 Build 0)  -->
<svg version="1.1" id="Layer_1" xmlns="http://www.w3.org/2000/svg" xmlns:xlink="http://www.w3.org/1999/xlink" x="0px" y="0px"
	 viewBox="0 0 156 32" style="enable-background:new 0 0 156 32;" xml:space="preserve">
<style type="text/css">
	.st0{fill-rule:evenodd;clip-rule:evenodd;fill:white;}
</style>
<path id="logo" class="st0" d="M22.1,6.6c-0.2-0.2-0.4-0.3-0.7-0.2h-2.9c-0.4,0-0.8,0.2-1,0.5l-6.2,8L7.9,6.9
	c-0.2-0.4-0.6-0.6-1-0.5H4.1c-0.5,0-1,0.3-1,0.8c0,0,0,0,0,0L0,24.8C0,25,0,25.3,0.1,25.5c0.2,0.2,0.4,0.3,0.7,0.2h2.9
	c0.5,0,1-0.4,1-0.9l1.8-10.4l2.9,6.7v0c0.1,0.3,0.4,0.5,0.7,0.4c0.3,0,0.6-0.2,0.8-0.4l5.2-6.7l-1.8,10.4c-0.1,0.2,0,0.5,0.1,0.7
	c0.2,0.2,0.4,0.3,0.7,0.2h2.9c0.5,0,1-0.4,1-0.9l3.1-17.6C22.2,7,22.2,6.8,22.1,6.6z M35.4,7.1c-0.1-0.5-0.5-0.9-1-0.8h-3.8
	c-0.3,0-0.5,0-0.7,0.2c-0.2,0.2-0.3,0.4-0.4,0.6l-9.1,17.5c-0.2,0.2-0.2,0.5-0.1,0.8c0.1,0.2,0.4,0.4,0.6,0.3h3.3
	c0.5,0,1-0.3,1.1-0.8l1.5-2.9h6.1l0.4,2.8c0,0.5,0.4,0.9,0.9,0.8c0,0,0,0,0.1,0h3.2c0.3,0,0.5-0.1,0.7-0.3c0.2-0.2,0.2-0.5,0.2-0.8
	L35.4,7.1z M28.5,17.9l3.3-6.6l0.9,6.6H28.5L28.5,17.9z M49.7,15.4l8.1-7.9c0.2-0.2,0.3-0.5,0.3-0.8c-0.1-0.3-0.3-0.5-0.6-0.4h-3.6
	c-0.5,0.1-1,0.3-1.3,0.7l-6,5.8l1-5.6c0.1-0.2,0-0.5-0.1-0.7c-0.2-0.2-0.4-0.3-0.7-0.2h-3.1c-0.5,0-1,0.3-1,0.8c0,0,0,0,0,0
	l-3.1,17.6c-0.1,0.2,0,0.5,0.1,0.7c0.2,0.2,0.4,0.3,0.7,0.2h3.1c0.5,0,1-0.3,1-0.8c0,0,0,0,0,0l1.3-7.2l4.2,7.3
	c0.2,0.5,0.6,0.8,1.2,0.8h3.2c0.3,0,0.6-0.1,0.7-0.4c0.1-0.3,0.1-0.6-0.1-0.8L49.7,15.4z M70.3,14.1c-0.2-0.2-0.4-0.2-0.6-0.2H63
	l0.6-3.4h7.1c0.5,0,1-0.3,1-0.9c0,0,0,0,0,0l0.4-2.3c0.1-0.2,0-0.5-0.1-0.7c-0.2-0.2-0.4-0.3-0.7-0.2h-11c-0.5,0-0.9,0.3-1,0.8
	c0,0,0,0,0,0l-3.1,17.6c-0.1,0.2,0,0.5,0.1,0.7c0.2,0.2,0.4,0.3,0.7,0.2h11.1c0.5,0,1-0.4,1-0.9l0.4-2.3c0.1-0.2,0-0.5-0.1-0.7
	c-0.2-0.2-0.4-0.3-0.7-0.2h-7.1l0.7-3.7H69c0.5,0,1-0.4,1-0.9l0.4-2.2C70.5,14.5,70.4,14.3,70.3,14.1L70.3,14.1z M86.4,7.1
	c-1.7-0.8-3.6-1.2-5.5-1.1c-2.1-0.1-4.1,0.5-5.8,1.6c-1.5,1.1-2.3,3-2.2,4.9c-0.1,1.2,0.4,2.4,1.3,3.3c1,0.9,2.2,1.6,3.5,2
	c0.8,0.3,1.5,0.6,2.2,1c0.4,0.2,0.7,0.6,0.7,1.1c0,0.7-0.4,1.3-1.1,1.5c-0.8,0.3-1.7,0.5-2.6,0.5c-1.4,0-2.7-0.3-3.9-0.8
	c-0.5-0.2-1,0-1.2,0.5c0,0,0,0,0,0.1l-1.1,2.1c-0.2,0.3-0.1,0.8,0.2,1.1c0,0,0.1,0.1,0.1,0.1c0.8,0.4,1.7,0.7,2.6,0.9
	c1.2,0.2,2.4,0.3,3.6,0.3c2.1,0.1,4.2-0.5,6-1.7c1.6-1.2,2.5-3,2.4-5c0-0.7-0.1-1.3-0.4-1.9c-0.3-0.6-0.7-1.1-1.2-1.5
	c-0.5-0.4-1-0.7-1.5-1c-0.5-0.3-1.1-0.6-1.9-0.9c-0.8-0.3-1.5-0.7-2.2-1.1c-0.4-0.2-0.6-0.6-0.6-1c0-1.2,1-1.8,3.1-1.8
	c1.2,0,2.4,0.2,3.5,0.6c0.5,0.2,1,0,1.2-0.4c0,0,0-0.1,0-0.1l1.1-2c0.2-0.4,0.1-0.8-0.2-1.1C86.4,7.1,86.4,7.1,86.4,7.1L86.4,7.1z
	 M113.8,6.3h-3.2c-0.5,0-1,0.3-1.1,0.8l-3.4,8.1l-1.7,4.4l-0.3-4.4l-0.6-8.1c0-0.5-0.4-0.9-0.9-0.8c0,0-0.1,0-0.1,0h-2.7
	c-0.5,0-1,0.3-1.2,0.8L95,15.2l-1.8,4.4l-0.2-4.3l-0.5-8.1c0-0.5-0.4-0.9-0.9-0.8c0,0-0.1,0-0.1,0h-3.1c-0.2,0-0.4,0.1-0.6,0.2
	c-0.2,0.2-0.3,0.6-0.2,0.9l1.7,17.5c0,0.5,0.4,0.9,0.9,0.8c0,0,0.1,0,0.1,0h3.4c0.5,0,1-0.3,1.2-0.8l3.5-7.7l1.5-3.7l0.3,3.6
	l0.8,7.7c0,0.5,0.4,0.9,0.9,0.9c0,0,0.1,0,0.1,0h3.4c0.5,0,1-0.3,1.2-0.8l7.9-17.5c0.1-0.2,0.2-0.5,0-0.8
	C114.3,6.4,114.1,6.3,113.8,6.3L113.8,6.3z M139.6,6.3h-10.8c-0.5,0-1,0.3-1,0.8c0,0,0,0,0,0l-3.1,17.6c-0.1,0.2,0,0.5,0.1,0.7
	c0.2,0.2,0.4,0.3,0.7,0.2h3c0.5,0,1-0.4,1-0.9l1.1-6.5h6.7c0.5,0,1-0.3,1-0.9l0.4-2.3c0.1-0.2,0-0.5-0.1-0.7
	c-0.2-0.2-0.4-0.3-0.7-0.2h-6.6l0.7-3.8h7c0.5,0,1-0.3,1-0.8c0,0,0,0,0,0l0.4-2.3c0.1-0.2,0-0.5-0.1-0.7
	C140.1,6.4,139.8,6.3,139.6,6.3L139.6,6.3z M155.9,6.6c-0.2-0.2-0.4-0.3-0.7-0.2h-12.7c-0.5,0-0.9,0.3-1,0.9c0,0,0,0,0,0L141,9.7
	c-0.1,0.2,0,0.5,0.1,0.7c0.2,0.2,0.4,0.3,0.7,0.2h3.8l-2.5,14.1c-0.1,0.2,0,0.5,0.1,0.7c0.2,0.2,0.4,0.3,0.7,0.2h3.1
	c0.5,0,1-0.4,1-0.9l2.5-14.1h3.9c0.5,0,1-0.4,1-0.9l0.4-2.5C156,7,156,6.8,155.9,6.6L155.9,6.6z M116.7,10.7h2l-1.8,6.7
	c-0.1,0.3,0.1,0.5,0.3,0.6c0,0,0.1,0,0.1,0h0.9c0.3,0,0.5-0.1,0.6-0.4l6.1-10.2c0.2-0.3,0.1-0.8-0.3-1c-0.1-0.1-0.2-0.1-0.4-0.1
	h-2.2l3.5-5.2c0.2-0.3,0.1-0.8-0.2-1C125.4,0,125.2,0,125.1,0h-5.6c-0.4,0-0.8,0.3-0.9,0.7l-2.5,9c-0.1,0.4,0.1,0.8,0.5,0.9
	C116.6,10.7,116.7,10.7,116.7,10.7L116.7,10.7z M119.2,20.9H116c-0.4,0-0.8,0.3-0.9,0.7l-0.8,3.2c-0.1,0.4,0.1,0.8,0.5,0.9
	c0.1,0,0.1,0,0.2,0h3.2c0.4,0,0.8-0.3,0.9-0.7l0.8-3.2c0.1-0.4-0.1-0.8-0.5-0.9C119.3,20.9,119.3,20.9,119.2,20.9L119.2,20.9z"/>
</svg>
