<svg width="147" height="30" viewBox="0 0 147 30" fill="none" xmlns="http://www.w3.org/2000/svg">
<g clip-path="url(#clip0_163_1482)">
<path fill-rule="evenodd" clip-rule="evenodd" d="M21.2156 6.1875C21.0284 6 20.8412 5.90625 20.5604 6H17.8463C17.472 6 17.0976 6.1875 16.9104 6.46875L11.1079 13.9687L7.92582 6.46875C7.73864 6.09375 7.36428 5.90625 6.98992 6H4.36941C3.90146 6 3.43351 6.28125 3.43351 6.75L0.532227 23.25C0.532227 23.4375 0.532227 23.7187 0.625816 23.9062C0.812996 24.0938 1.00018 24.1875 1.28094 24.0938H3.99505C4.463 24.0938 4.93094 23.7187 4.93094 23.25L6.61556 13.5L9.32966 19.7813C9.42325 20.0625 9.70402 20.25 9.98479 20.1562C10.2656 20.1562 10.5463 19.9688 10.7335 19.7813L15.6002 13.5L13.9156 23.25C13.822 23.4375 13.9156 23.7187 14.0091 23.9062C14.1963 24.0938 14.3835 24.1875 14.6643 24.0938H17.3784C17.8463 24.0938 18.3143 23.7187 18.3143 23.25L21.2156 6.75C21.3091 6.5625 21.3091 6.375 21.2156 6.1875ZM33.663 6.65625C33.5694 6.1875 33.195 5.8125 32.7271 5.90625H29.1707C28.8899 5.90625 28.7027 5.90625 28.5156 6.09375C28.3284 6.28125 28.2348 6.46875 28.1412 6.65625L19.6245 23.0625C19.4374 23.25 19.4374 23.5312 19.5309 23.8125C19.6245 24 19.9053 24.1875 20.0925 24.0938H23.1809C23.6489 24.0938 24.1168 23.8125 24.2104 23.3437L25.6143 20.625H31.3233L31.6976 23.25C31.6976 23.7187 32.072 24.0938 32.5399 24C32.5399 24 32.5399 24 32.6335 24H35.6284C35.9091 24 36.0963 23.9062 36.2835 23.7187C36.4707 23.5312 36.4707 23.25 36.4707 22.9688L33.663 6.65625ZM27.2053 16.7812L30.2938 10.5938L31.1361 16.7812H27.2053ZM47.0463 14.4375L54.6271 7.03125C54.8143 6.84375 54.9079 6.5625 54.9079 6.28125C54.8143 6 54.6271 5.8125 54.3463 5.90625H50.9771C50.5091 6 50.0412 6.1875 49.7604 6.5625L44.145 12L45.0809 6.75C45.1745 6.5625 45.0809 6.28125 44.9874 6.09375C44.8002 5.90625 44.613 5.8125 44.3322 5.90625H41.4309C40.963 5.90625 40.495 6.1875 40.495 6.65625L37.5938 23.1563C37.5002 23.3438 37.5938 23.625 37.6874 23.8125C37.8745 24 38.0617 24.0938 38.3425 24H41.2438C41.7117 24 42.1797 23.7187 42.1797 23.25L43.3963 16.5L47.3271 23.3437C47.5143 23.8125 47.8886 24.0938 48.4502 24.0938H51.445C51.7258 24.0938 52.0066 24 52.1002 23.7187C52.1938 23.4375 52.1938 23.1563 52.0066 22.9688L47.0463 14.4375ZM66.3258 13.2188C66.1386 13.0313 65.9515 13.0312 65.7643 13.0312H59.4938L60.0553 9.84375H66.7002C67.1681 9.84375 67.6361 9.5625 67.6361 9L68.0104 6.84375C68.104 6.65625 68.0104 6.375 67.9168 6.1875C67.7297 6 67.5425 5.90625 67.2617 6H56.9668C56.4989 6 56.1245 6.28125 56.0309 6.75L53.1297 23.25C53.0361 23.4375 53.1297 23.7187 53.2233 23.9062C53.4104 24.0938 53.5976 24.1875 53.8784 24.0938H64.2668C64.7348 24.0938 65.2027 23.7187 65.2027 23.25L65.5771 21.0938C65.6707 20.9062 65.5771 20.625 65.4835 20.4375C65.2963 20.25 65.1091 20.1563 64.8284 20.25H58.1835L58.8386 16.7812H65.1091C65.5771 16.7812 66.045 16.4062 66.045 15.9375L66.4194 13.875C66.513 13.5938 66.4194 13.4063 66.3258 13.2188ZM81.3938 6.65625C79.8027 5.90625 78.0245 5.53125 76.2463 5.625C74.2809 5.53125 72.4091 6.09375 70.8181 7.125C69.4143 8.15625 68.6656 9.9375 68.7591 11.7188C68.6656 12.8438 69.1335 13.9688 69.9758 14.8125C70.9117 15.6563 72.0348 16.3125 73.2515 16.6875C74.0002 16.9687 74.6553 17.25 75.3104 17.625C75.6848 17.8125 75.9656 18.1875 75.9656 18.6562C75.9656 19.3125 75.5912 19.875 74.9361 20.0625C74.1874 20.3437 73.345 20.5312 72.5027 20.5312C71.1925 20.5312 69.9758 20.25 68.8527 19.7813C68.3848 19.5938 67.9168 19.7813 67.7297 20.25C67.7297 20.25 67.7297 20.25 67.7297 20.3438L66.7002 22.3125C66.513 22.5937 66.6066 23.0625 66.8874 23.3437L66.9809 23.4375C67.7297 23.8125 68.572 24.0937 69.4143 24.2812C70.5374 24.4687 71.6604 24.5625 72.7835 24.5625C74.7489 24.6563 76.7143 24.0938 78.3989 22.9688C79.8963 21.8437 80.7386 20.1562 80.645 18.2812C80.645 17.625 80.5515 17.0625 80.2707 16.5C79.9899 15.9375 79.6156 15.4688 79.1476 15.0938C78.6797 14.7188 78.2117 14.4375 77.7438 14.1563C77.2758 13.875 76.7143 13.5937 75.9656 13.3125C75.2168 13.0312 74.5617 12.6563 73.9066 12.2813C73.5322 12.0938 73.345 11.7188 73.345 11.3438C73.345 10.2188 74.2809 9.65625 76.2463 9.65625C77.3694 9.65625 78.4925 9.84375 79.522 10.2187C79.9899 10.4062 80.4579 10.2188 80.645 9.84375V9.75L81.6745 7.875C81.8617 7.5 81.7681 7.125 81.4874 6.84375C81.3938 6.65625 81.3938 6.65625 81.3938 6.65625ZM107.037 5.90625H104.042C103.575 5.90625 103.107 6.1875 103.013 6.65625L99.8309 14.25L98.2399 18.375L97.9591 14.25L97.3976 6.65625C97.3976 6.1875 97.0232 5.8125 96.5553 5.90625H96.4617H93.9348C93.4668 5.90625 92.9989 6.1875 92.8117 6.65625L89.4425 14.25L87.7579 18.375L87.5707 14.3438L87.1027 6.75C87.1027 6.28125 86.7284 5.90625 86.2604 6H86.1668H83.2656C83.0784 6 82.8912 6.09375 82.704 6.1875C82.5168 6.375 82.4232 6.75 82.5168 7.03125L84.1079 23.4375C84.1079 23.9062 84.4822 24.2812 84.9502 24.1875H85.0438H88.2258C88.6938 24.1875 89.1617 23.9062 89.3489 23.4375L92.6245 16.2187L94.0284 12.75L94.3091 16.125L95.0579 23.3437C95.0579 23.8125 95.4322 24.1875 95.9002 24.1875H95.9938H99.1758C99.6438 24.1875 100.112 23.9062 100.299 23.4375L107.692 7.03125C107.786 6.84375 107.88 6.5625 107.692 6.28125C107.505 6 107.318 5.90625 107.037 5.90625ZM131.184 5.90625H121.076C120.608 5.90625 120.14 6.1875 120.14 6.65625L117.239 23.1563C117.145 23.3438 117.239 23.625 117.332 23.8125C117.519 24 117.707 24.0938 117.987 24H120.795C121.263 24 121.731 23.625 121.731 23.1563L122.76 17.0625H129.031C129.499 17.0625 129.967 16.7812 129.967 16.2187L130.341 14.0625C130.435 13.875 130.341 13.5938 130.248 13.4063C130.06 13.2188 129.873 13.125 129.592 13.2188H123.416L124.071 9.65625H130.622C131.09 9.65625 131.558 9.375 131.558 8.90625L131.932 6.75C132.026 6.5625 131.932 6.28125 131.839 6.09375C131.651 6 131.371 5.90625 131.184 5.90625ZM146.439 6.1875C146.251 6 146.064 5.90625 145.784 6H133.898C133.43 6 133.055 6.28125 132.962 6.84375L132.494 9.09375C132.4 9.28125 132.494 9.5625 132.587 9.75C132.775 9.9375 132.962 10.0313 133.242 9.9375H136.799L134.459 23.1563C134.366 23.3438 134.459 23.625 134.553 23.8125C134.74 24 134.927 24.0938 135.208 24H138.109C138.577 24 139.045 23.625 139.045 23.1563L141.385 9.9375H145.035C145.503 9.9375 145.971 9.5625 145.971 9.09375L146.345 6.75C146.532 6.5625 146.532 6.375 146.439 6.1875ZM109.751 10.0312H111.623L109.939 16.3125C109.845 16.5937 110.032 16.7812 110.219 16.875H110.313H111.155C111.436 16.875 111.623 16.7813 111.717 16.5L117.426 6.9375C117.613 6.65625 117.519 6.1875 117.145 6C117.051 5.90625 116.958 5.90625 116.771 5.90625H114.712L117.987 1.03125C118.175 0.75 118.081 0.28125 117.8 0.09375C117.894 0 117.707 0 117.613 0H112.372C111.998 0 111.623 0.28125 111.53 0.65625L109.19 9.09375C109.096 9.46875 109.284 9.84375 109.658 9.9375C109.658 10.0313 109.751 10.0312 109.751 10.0312ZM112.091 19.5937H109.096C108.722 19.5937 108.348 19.875 108.254 20.25L107.505 23.25C107.412 23.625 107.599 24 107.973 24.0938C108.067 24.0938 108.067 24.0938 108.16 24.0938H111.155C111.53 24.0938 111.904 23.8125 111.998 23.4375L112.746 20.4375C112.84 20.0625 112.653 19.6875 112.278 19.5937C112.185 19.5937 112.185 19.5937 112.091 19.5937Z" fill="#EFEFEF"/>
</g>
<defs>
<clipPath id="clip0_163_1482">
<rect width="146" height="30" fill="white" transform="translate(0.532227)"/>
</clipPath>
</defs>
</svg>