<svg width="200" height="43" viewBox="0 0 200 43" fill="none" xmlns="http://www.w3.org/2000/svg">
<g clip-path="url(#clip0_923_1033)">
<path d="M70.5964 24.7667L69.4044 28.1667H69.305C69.1063 27.4 68.7421 26.2333 68.1461 24.8333L61.7553 8.66666H55.4971V34.4333H59.6361V18.5333C59.6361 17.5333 59.6361 16.4 59.603 15C59.5699 14.3 59.5037 13.7667 59.4706 13.3667H59.5699C59.7686 14.3667 60.0004 15.1 60.1659 15.5667L67.8481 34.3667H70.762L78.3779 15.4C78.5434 14.9667 78.709 14.1 78.8745 13.3667H78.9739C78.8746 15.2667 78.8083 16.9667 78.7752 18V34.3333H83.1792V8.6H77.1527L70.5964 24.7667ZM87.3514 15.8667H91.656V34.3333H87.3514V15.8667ZM89.5368 8.06666C88.8083 8.06666 88.2123 8.33333 87.7156 8.8C87.2189 9.26666 86.954 9.86666 86.954 10.6C86.954 11.3 87.2189 11.9 87.7156 12.3667C88.2123 12.8333 88.8083 13.0667 89.5368 13.0667C90.2653 13.0667 90.8944 12.8 91.358 12.3667C91.8547 11.9 92.1196 11.3 92.1196 10.6C92.1196 9.9 91.8547 9.3 91.358 8.8C90.9275 8.33333 90.2984 8.06666 89.5368 8.06666ZM106.921 15.7C106.126 15.5333 105.298 15.4333 104.504 15.4333C102.55 15.4333 100.762 15.8667 99.2719 16.7333C97.7818 17.6 96.5898 18.8 95.8282 20.3C95.0335 21.8333 94.6361 23.6 94.6361 25.6333C94.6361 27.4 95.0335 28.9667 95.7951 30.4C96.5567 31.8 97.6163 32.9333 99.0401 33.7C100.398 34.4667 101.987 34.8667 103.775 34.8667C105.828 34.8667 107.583 34.4333 108.974 33.6333L109.007 33.6V29.6L108.841 29.7333C108.212 30.2 107.484 30.6 106.755 30.8333C105.994 31.1 105.298 31.2333 104.702 31.2333C102.981 31.2333 101.623 30.7333 100.663 29.6333C99.6693 28.5667 99.1726 27.1 99.1726 25.2667C99.1726 23.3667 99.6693 21.8667 100.696 20.7667C101.722 19.6667 103.08 19.1 104.735 19.1C106.126 19.1 107.55 19.5667 108.841 20.5L109.007 20.6333V16.4L108.974 16.3667C108.411 16.1333 107.782 15.8667 106.921 15.7ZM121.126 15.5667C120.067 15.5667 119.073 15.9 118.212 16.6C117.484 17.2 116.987 18.0667 116.557 19.1H116.524V15.8667H112.219V34.3333H116.524V24.9C116.524 23.3 116.855 21.9667 117.583 21C118.312 20 119.239 19.5 120.365 19.5C120.762 19.5 121.159 19.6 121.656 19.6667C122.12 19.8 122.451 19.9333 122.682 20.1L122.848 20.2333V15.9L122.749 15.8667C122.451 15.6667 121.855 15.5667 121.126 15.5667ZM132.848 15.4667C129.835 15.4667 127.418 16.3667 125.729 18.1333C124.007 19.9 123.179 22.3333 123.179 25.4C123.179 28.2667 124.04 30.6 125.696 32.3C127.351 33.9667 129.603 34.8333 132.418 34.8333C135.365 34.8333 137.716 33.9333 139.404 32.1333C141.126 30.3333 141.954 27.9333 141.954 24.9667C141.954 22.0333 141.159 19.7 139.537 18C137.981 16.3 135.696 15.4667 132.848 15.4667ZM136.292 29.6667C135.497 30.7 134.239 31.2 132.683 31.2C131.126 31.2 129.868 30.7 128.974 29.6C128.08 28.5667 127.649 27.0667 127.649 25.1667C127.649 23.2 128.113 21.7 128.974 20.6333C129.868 19.5667 131.093 19.0333 132.649 19.0333C134.173 19.0333 135.365 19.5333 136.226 20.5667C137.086 21.6 137.55 23.1 137.55 25.0667C137.484 27.0667 137.12 28.6333 136.292 29.6667ZM151.557 23.5333C150.199 22.9667 149.338 22.5333 148.941 22.1667C148.61 21.8333 148.444 21.3667 148.444 20.7667C148.444 20.2667 148.643 19.7667 149.139 19.4333C149.636 19.1 150.199 18.9333 151.027 18.9333C151.755 18.9333 152.517 19.0667 153.245 19.2667C153.974 19.4667 154.636 19.7667 155.166 20.1667L155.332 20.3V16.2333L155.232 16.2C154.735 16 154.073 15.8 153.279 15.6333C152.484 15.5 151.755 15.4333 151.159 15.4333C149.106 15.4333 147.418 15.9333 146.093 17.0333C144.769 18.0667 144.139 19.4667 144.139 21.1C144.139 21.9667 144.272 22.7333 144.57 23.3667C144.868 24 145.298 24.6 145.894 25.1C146.49 25.5667 147.351 26.1 148.543 26.6C149.537 27.0333 150.298 27.3667 150.762 27.6333C151.226 27.9 151.524 28.2 151.755 28.4333C151.921 28.7 152.02 29.0333 152.02 29.4667C152.02 30.7 151.093 31.3 149.206 31.3C148.477 31.3 147.716 31.1667 146.822 30.8667C145.928 30.5667 145.1 30.1333 144.404 29.6333L144.239 29.5V33.7333L144.338 33.7667C144.967 34.0667 145.729 34.2667 146.656 34.5C147.583 34.6667 148.411 34.8 149.139 34.8C151.358 34.8 153.179 34.3 154.471 33.2C155.795 32.1333 156.49 30.7667 156.49 29C156.49 27.7667 156.159 26.6667 155.431 25.8333C154.471 25.0333 153.279 24.2 151.557 23.5333ZM167.848 15.4667C164.835 15.4667 162.418 16.3667 160.729 18.1333C159.04 19.9 158.179 22.3333 158.179 25.4C158.179 28.2667 159.04 30.6 160.696 32.3C162.351 33.9667 164.603 34.8333 167.418 34.8333C170.365 34.8333 172.716 33.9333 174.404 32.1333C176.126 30.3333 176.954 27.9333 176.954 24.9667C176.954 22.0333 176.159 19.7 174.537 18C172.981 16.3 170.696 15.4667 167.848 15.4667ZM171.259 29.6667C170.464 30.7 169.206 31.2 167.649 31.2C166.06 31.2 164.835 30.7 163.941 29.6C163.047 28.5667 162.616 27.0667 162.616 25.1667C162.616 23.2 163.08 21.7 163.941 20.6333C164.835 19.5667 166.06 19.0333 167.616 19.0333C169.106 19.0333 170.332 19.5333 171.192 20.5667C172.053 21.6 172.517 23.1 172.517 25.0667C172.517 27.0667 172.086 28.6333 171.259 29.6667ZM199.967 19.4333V15.8667H195.63V10.4L195.497 10.4333L191.391 11.6667L191.292 11.7V15.8667H184.802V13.5333C184.802 12.4667 185.067 11.6333 185.53 11.1C185.994 10.5667 186.689 10.3 187.55 10.3C188.146 10.3 188.775 10.4333 189.471 10.7333L189.636 10.8333V7.06666L189.537 7.03333C188.941 6.83333 188.146 6.7 187.12 6.7C185.828 6.7 184.702 7 183.676 7.5C182.649 8.06666 181.888 8.83333 181.325 9.86666C180.762 10.8667 180.464 12 180.464 13.3V15.8667H177.451V19.4H180.464V34.3333H184.802V19.4333H191.292V28.9333C191.292 32.8333 193.113 34.8 196.755 34.8C197.351 34.8 197.981 34.7 198.577 34.6C199.206 34.4667 199.669 34.3 199.934 34.1667L199.967 34.1333V30.5667L199.802 30.7C199.537 30.8667 199.305 31 198.908 31.1C198.577 31.2 198.279 31.2333 198.047 31.2333C197.186 31.2333 196.59 31.0333 196.159 30.5333C195.762 30.0667 195.563 29.3 195.563 28.1667V19.4333H199.967Z" fill="#737373"/>
<path d="M0 0H20.298V20.4333H0V0Z" fill="#F25022"/>
<path d="M22.417 0H42.715V20.4333H22.417V0Z" fill="#7FBA00"/>
<path d="M0 22.5667H20.298V43H0V22.5667Z" fill="#00A4EF"/>
<path d="M22.417 22.5667H42.715V43H22.417V22.5667Z" fill="#FFB900"/>
</g>
<defs>
<clipPath id="clip0_923_1033">
<rect width="200" height="43" fill="white"/>
</clipPath>
</defs>
</svg>
