<svg width="2294" height="670" viewBox="0 0 2294 670" fill="none" xmlns="http://www.w3.org/2000/svg">
<path d="M1258.38 279.908C1302.86 279.908 1338.92 315.967 1338.92 360.447V470.517C1338.92 473.484 1336.52 475.887 1333.55 475.887H1312.07C1309.11 475.887 1306.7 473.484 1306.7 470.517V360.447C1306.7 333.759 1285.07 312.124 1258.38 312.124C1231.69 312.124 1210.06 333.759 1210.06 360.447V470.517C1210.06 473.484 1207.65 475.887 1204.69 475.887H1183.21C1180.24 475.887 1177.84 473.484 1177.84 470.517V360.447C1177.84 315.967 1213.9 279.908 1258.38 279.908Z" fill="white"/>
<path d="M1183.21 279.908H1204.69C1207.65 279.908 1210.06 282.312 1210.06 285.278V459.779C1210.06 462.745 1207.65 465.148 1204.69 465.148H1183.21C1180.24 465.148 1177.84 462.745 1177.84 459.779V285.278C1177.84 282.312 1180.24 279.908 1183.21 279.908Z" fill="white"/>
<path d="M1526.84 475.887C1606.01 475.887 1669.13 412.784 1669.13 334.943C1669.13 257.103 1606.01 194 1526.84 194C1519.77 194 1508.13 194 1491.91 194V228.9H1526.84C1588.24 228.9 1636.91 277.573 1636.91 337.628C1636.91 397.683 1588.24 443.671 1526.84 443.671C1519.59 443.671 1507.95 443.671 1491.91 443.671V475.887H1526.84Z" fill="white"/>
<path d="M1467.78 194H1494.63V475.887H1467.78C1464.81 475.887 1462.41 473.484 1462.41 470.517V199.369C1462.41 196.404 1464.81 194 1467.78 194Z" fill="white"/>
<path fill-rule="evenodd" clip-rule="evenodd" d="M853 334.943C853 257.103 916.103 194 993.943 194C1071.78 194 1134.89 257.103 1134.89 334.943C1134.89 412.784 1071.78 475.887 993.943 475.887C916.103 475.887 853 412.784 853 334.943ZM993.943 226.216C933.895 226.216 885.216 274.895 885.216 334.943C885.216 394.992 933.895 443.671 993.943 443.671C1053.99 443.671 1102.67 394.992 1102.67 334.943C1102.67 274.895 1053.99 226.216 993.943 226.216Z" fill="white"/>
<path d="M2162.03 348.136L2224.89 286.803C2225.9 285.825 2227.24 285.278 2228.64 285.278H2262.93C2264.41 285.278 2265.62 286.479 2265.62 287.962C2265.62 288.674 2265.34 289.357 2264.83 289.86L2195.59 359.105L2287.31 471.494C2288.24 472.643 2288.07 474.335 2286.93 475.272C2286.44 475.664 2285.84 475.876 2285.22 475.876L2253.14 475.822C2251.54 475.819 2250.03 475.108 2249.02 473.881L2172.77 381.924L2162.03 392.663V470.45C2162.03 473.414 2159.63 475.819 2156.66 475.819H2135.18C2132.22 475.819 2129.81 473.414 2129.81 470.45V212.792C2129.81 209.827 2132.22 207.423 2135.18 207.423H2156.66C2159.63 207.423 2162.03 209.827 2162.03 212.792V348.136Z" fill="white"/>
<path d="M2083.91 309.647L2082.89 308.534C2065.86 290.845 2042.37 279.908 2016.41 279.908C1989.75 279.908 1965.68 290.744 1948.55 308.964C1932.16 326.483 1922.29 350.653 1922.29 377.897C1922.29 434.7 1964.43 475.887 2016.41 475.887C2042.26 475.887 2065.68 465.035 2082.69 447.471L2082.62 447.4L2083.8 446.152C2085.78 444.061 2085.75 440.784 2083.75 438.721L2068.78 423.331C2066.77 421.259 2063.48 421.175 2061.36 423.111C2049.95 435.866 2033.83 443.671 2016.41 443.671C1981.99 443.671 1954.51 416.672 1954.51 377.897C1954.51 339.122 1981.99 312.124 2016.41 312.124C2033.88 312.124 2050.04 319.974 2061.46 332.795C2063.6 334.618 2066.81 334.493 2068.8 332.451L2083.8 317.017C2085.79 314.977 2085.84 311.744 2083.91 309.647Z" fill="white"/>
<path d="M1705.37 377.897C1705.37 322.563 1746.08 279.908 1799.49 279.908C1850.94 279.908 1891.91 322.542 1893.56 374.621C1893.2 377.231 1890.95 379.24 1888.24 379.24H1764.96C1762 379.24 1759.59 376.836 1759.59 373.871V360.447C1759.59 357.482 1762 355.078 1764.96 355.078H1857.6C1848.76 329.643 1825.59 312.124 1799.49 312.124C1765.08 312.124 1737.59 339.122 1737.59 377.897C1737.59 416.672 1765.08 443.671 1799.49 443.671C1816.92 443.671 1833.03 435.866 1844.45 423.111C1846.56 421.175 1849.85 421.259 1851.87 423.331L1866.83 438.721C1868.84 440.784 1868.86 444.061 1866.88 446.152L1865.7 447.4L1865.77 447.472C1848.84 464.984 1825.51 475.887 1799.49 475.887C1746.08 475.887 1705.37 433.232 1705.37 377.897Z" fill="white"/>
<path d="M1258.38 279.908C1302.86 279.908 1338.92 315.967 1338.92 360.447V470.517C1338.92 473.484 1336.52 475.887 1333.55 475.887H1312.07C1309.11 475.887 1306.7 473.484 1306.7 470.517V360.447C1306.7 333.759 1285.07 312.124 1258.38 312.124C1231.69 312.124 1210.06 333.759 1210.06 360.447V470.517C1210.06 473.484 1207.65 475.887 1204.69 475.887H1183.21C1180.24 475.887 1177.84 473.484 1177.84 470.517V360.447C1177.84 315.967 1213.9 279.908 1258.38 279.908Z" stroke="white" stroke-width="6" stroke-linejoin="round"/>
<path d="M1183.21 279.908H1204.69C1207.65 279.908 1210.06 282.312 1210.06 285.278V459.779C1210.06 462.745 1207.65 465.148 1204.69 465.148H1183.21C1180.24 465.148 1177.84 462.745 1177.84 459.779V285.278C1177.84 282.312 1180.24 279.908 1183.21 279.908Z" stroke="white" stroke-width="6" stroke-linejoin="round"/>
<path d="M1526.84 475.887C1606.01 475.887 1669.13 412.784 1669.13 334.943C1669.13 257.103 1606.01 194 1526.84 194C1519.77 194 1508.13 194 1491.91 194V228.9H1526.84C1588.24 228.9 1636.91 277.573 1636.91 337.628C1636.91 397.683 1588.24 443.671 1526.84 443.671C1519.59 443.671 1507.95 443.671 1491.91 443.671V475.887H1526.84Z" stroke="white" stroke-width="6" stroke-linejoin="round"/>
<path d="M1467.78 194H1494.63V475.887H1467.78C1464.81 475.887 1462.41 473.484 1462.41 470.517V199.369C1462.41 196.404 1464.81 194 1467.78 194Z" stroke="white" stroke-width="6" stroke-linejoin="round"/>
<path fill-rule="evenodd" clip-rule="evenodd" d="M853 334.943C853 257.103 916.103 194 993.943 194C1071.78 194 1134.89 257.103 1134.89 334.943C1134.89 412.784 1071.78 475.887 993.943 475.887C916.103 475.887 853 412.784 853 334.943ZM993.943 226.216C933.895 226.216 885.216 274.895 885.216 334.943C885.216 394.992 933.895 443.671 993.943 443.671C1053.99 443.671 1102.67 394.992 1102.67 334.943C1102.67 274.895 1053.99 226.216 993.943 226.216Z" stroke="white" stroke-width="6" stroke-linejoin="round"/>
<path d="M2162.03 348.136L2224.89 286.803C2225.9 285.825 2227.24 285.278 2228.64 285.278H2262.93C2264.41 285.278 2265.62 286.479 2265.62 287.962C2265.62 288.674 2265.34 289.357 2264.83 289.86L2195.59 359.105L2287.31 471.494C2288.24 472.643 2288.07 474.335 2286.93 475.272C2286.44 475.664 2285.84 475.876 2285.22 475.876L2253.14 475.822C2251.54 475.819 2250.03 475.108 2249.02 473.881L2172.77 381.924L2162.03 392.663V470.45C2162.03 473.414 2159.63 475.819 2156.66 475.819H2135.18C2132.22 475.819 2129.81 473.414 2129.81 470.45V212.792C2129.81 209.827 2132.22 207.423 2135.18 207.423H2156.66C2159.63 207.423 2162.03 209.827 2162.03 212.792V348.136Z" stroke="white" stroke-width="6" stroke-linejoin="round"/>
<path d="M2083.91 309.647L2082.89 308.534C2065.86 290.845 2042.37 279.908 2016.41 279.908C1989.75 279.908 1965.68 290.744 1948.55 308.964C1932.16 326.483 1922.29 350.653 1922.29 377.897C1922.29 434.7 1964.43 475.887 2016.41 475.887C2042.26 475.887 2065.68 465.035 2082.69 447.471L2082.62 447.4L2083.8 446.152C2085.78 444.061 2085.75 440.784 2083.75 438.721L2068.78 423.331C2066.77 421.259 2063.48 421.175 2061.36 423.111C2049.95 435.866 2033.83 443.671 2016.41 443.671C1981.99 443.671 1954.51 416.672 1954.51 377.897C1954.51 339.122 1981.99 312.124 2016.41 312.124C2033.88 312.124 2050.04 319.974 2061.46 332.795C2063.6 334.618 2066.81 334.493 2068.8 332.451L2083.8 317.017C2085.79 314.977 2085.84 311.744 2083.91 309.647Z" stroke="white" stroke-width="6" stroke-linejoin="round"/>
<path d="M1705.37 377.897C1705.37 322.563 1746.08 279.908 1799.49 279.908C1850.94 279.908 1891.91 322.542 1893.56 374.621C1893.2 377.231 1890.95 379.24 1888.24 379.24H1764.96C1762 379.24 1759.59 376.836 1759.59 373.871V360.447C1759.59 357.482 1762 355.078 1764.96 355.078H1857.6C1848.76 329.643 1825.59 312.124 1799.49 312.124C1765.08 312.124 1737.59 339.122 1737.59 377.897C1737.59 416.672 1765.08 443.671 1799.49 443.671C1816.92 443.671 1833.03 435.866 1844.45 423.111C1846.56 421.175 1849.85 421.259 1851.87 423.331L1866.83 438.721C1868.84 440.784 1868.86 444.061 1866.88 446.152L1865.7 447.4L1865.77 447.472C1848.84 464.984 1825.51 475.887 1799.49 475.887C1746.08 475.887 1705.37 433.232 1705.37 377.897Z" stroke="white" stroke-width="6" stroke-linejoin="round"/>
<path fill-rule="evenodd" clip-rule="evenodd" d="M517.022 154.771H594.33C601.315 154.771 606.978 160.434 606.978 167.419V199.038C606.978 206.023 601.315 211.686 594.33 211.686H559.581C548.063 190.757 533.703 171.613 517.022 154.771ZM466.493 211.686H335.054C328.069 211.686 322.407 206.023 322.407 199.038V167.419C322.407 160.434 328.069 154.771 335.054 154.771C386.889 154.771 433.614 176.654 466.493 211.686ZM466.493 458.314C433.614 493.346 386.889 515.229 335.054 515.229C328.069 515.229 322.407 509.566 322.407 502.581V470.962C322.407 463.977 328.069 458.314 335.054 458.314H466.493ZM559.581 458.314H594.33C601.315 458.314 606.978 463.977 606.978 470.962V502.581C606.978 509.566 601.315 515.229 594.33 515.229H517.022C533.703 498.387 548.063 479.243 559.581 458.314ZM508.977 382.429C503.348 403.118 494.127 422.326 482.024 439.343H335.054C328.069 439.343 322.407 433.68 322.407 426.695V395.076C322.407 388.091 328.069 382.429 335.054 382.429H508.977ZM586.785 382.429H594.33C601.315 382.429 606.978 388.091 606.978 395.076V426.695C606.978 433.68 601.315 439.343 594.33 439.343H569.019C577.047 421.371 583.064 402.304 586.785 382.429ZM513.049 306.543C514.519 315.812 515.283 325.317 515.283 335C515.283 344.683 514.519 354.188 513.049 363.457H335.054C328.069 363.457 322.407 357.795 322.407 350.81V319.191C322.407 312.205 328.069 306.543 335.054 306.543H513.049ZM589.605 306.543H594.33C601.315 306.543 606.978 312.205 606.978 319.191V350.81C606.978 357.795 601.315 363.457 594.33 363.457H589.605C590.638 354.114 591.168 344.619 591.168 335C591.168 325.381 590.638 315.886 589.605 306.543ZM482.024 230.657C494.127 247.674 503.348 266.882 508.977 287.571H334C327.015 287.571 321.353 281.909 321.353 274.924V243.305C321.353 236.32 327.015 230.657 334 230.657H482.024ZM569.019 230.657H593.276C600.261 230.657 605.924 236.32 605.924 243.305V274.924C605.924 281.909 600.261 287.571 593.276 287.571H586.785C583.064 267.696 577.047 248.629 569.019 230.657L569.019 230.657Z" fill="white"/>
<path fill-rule="evenodd" clip-rule="evenodd" d="M334 667C150.641 667 2 518.359 2 335C2 151.641 150.641 3 334 3C517.359 3 666 151.641 666 335C666 518.359 517.359 667 334 667ZM334 591.114C475.448 591.114 590.114 476.448 590.114 335C590.114 193.552 475.448 78.8857 334 78.8857C192.552 78.8857 77.8857 193.552 77.8857 335C77.8857 476.448 192.552 591.114 334 591.114Z" fill="white"/>
</svg>
