<svg width="134" height="35" viewBox="0 0 134 35" fill="none" xmlns="http://www.w3.org/2000/svg">
<g clip-path="url(#clip0_508_646)">
<path d="M49.9248 7.15808H42.5894C42.3466 7.15793 42.1116 7.24354 41.927 7.3995C41.7423 7.55545 41.6201 7.77149 41.5822 8.00869L38.6155 26.6085C38.6018 26.6948 38.6073 26.7831 38.6314 26.8671C38.6556 26.9511 38.6978 27.029 38.7553 27.0953C38.8128 27.1616 38.8842 27.2148 38.9645 27.2513C39.0448 27.2877 39.1321 27.3065 39.2204 27.3064H42.7224C42.9654 27.3065 43.2004 27.2208 43.3851 27.0646C43.5698 26.9084 43.6919 26.6921 43.7296 26.4547L44.5297 21.4381C44.5673 21.2009 44.6893 20.9847 44.8737 20.8286C45.0582 20.6724 45.293 20.5866 45.5358 20.5864H47.8579C52.6899 20.5864 55.4786 18.2743 56.2069 13.6925C56.5351 11.6879 56.2208 10.1129 55.2716 9.0099C54.229 7.79869 52.3799 7.15808 49.9248 7.15808V7.15808ZM50.771 13.9513C50.3699 16.554 48.3588 16.554 46.4142 16.554H45.3073L46.0839 11.6932C46.1066 11.551 46.1799 11.4215 46.2906 11.328C46.4013 11.2345 46.5421 11.1831 46.6877 11.1831H47.1951C48.5197 11.1831 49.7693 11.1831 50.4149 11.9297C50.8 12.3752 50.918 13.037 50.771 13.9513V13.9513ZM71.8515 13.8675H68.3388C68.1932 13.8675 68.0524 13.9189 67.9417 14.0124C67.831 14.1059 67.7577 14.2354 67.735 14.3776L67.5795 15.3491L67.3338 14.997C66.5734 13.9057 64.8776 13.5408 63.1851 13.5408C59.3034 13.5408 55.9881 16.4479 55.3424 20.526C55.0067 22.5602 55.484 24.5054 56.6509 25.8619C57.7214 27.1091 59.253 27.6288 61.0753 27.6288C64.203 27.6288 65.9373 25.6402 65.9373 25.6402L65.7807 26.6054C65.7668 26.6916 65.7719 26.7799 65.7958 26.864C65.8196 26.9482 65.8617 27.0262 65.919 27.0927C65.9763 27.1593 66.0475 27.2127 66.1277 27.2494C66.2079 27.2861 66.2952 27.3052 66.3835 27.3054H69.5476C69.7906 27.3055 70.0257 27.2197 70.2104 27.0635C70.395 26.9074 70.5172 26.6911 70.5548 26.4537L72.4533 14.5654C72.4672 14.4793 72.4621 14.3912 72.4383 14.3072C72.4145 14.2233 72.3725 14.1454 72.3153 14.0791C72.2581 14.0127 72.187 13.9594 72.1069 13.9229C72.0269 13.8864 71.9397 13.8674 71.8515 13.8675V13.8675ZM66.9552 20.6278C66.6163 22.6122 65.0235 23.9443 62.992 23.9443C61.972 23.9443 61.1568 23.6208 60.6334 23.0078C60.1143 22.399 59.9169 21.5325 60.0821 20.5673C60.3985 18.5999 62.0181 17.2243 64.0185 17.2243C65.016 17.2243 65.8269 17.552 66.361 18.1704C66.8962 18.7951 67.1086 19.6669 66.9552 20.6278V20.6278ZM90.5595 13.8675H87.0296C86.8632 13.8677 86.6993 13.9082 86.5522 13.9852C86.4051 14.0623 86.2792 14.1737 86.1855 14.3097L81.3171 21.401L79.2534 14.5866C79.1901 14.3787 79.0607 14.1966 78.8846 14.0671C78.7084 13.9376 78.4947 13.8676 78.2752 13.8675H74.8065C74.7091 13.8672 74.6131 13.89 74.5264 13.9338C74.4397 13.9777 74.3649 14.0414 74.3081 14.1196C74.2514 14.1978 74.2143 14.2883 74.2001 14.3836C74.1858 14.4788 74.1948 14.576 74.2262 14.6672L78.1143 25.9499L74.459 31.0525C74.394 31.1429 74.3555 31.2493 74.3476 31.36C74.3397 31.4707 74.3628 31.5814 74.4143 31.68C74.4658 31.7785 74.5438 31.8612 74.6396 31.9189C74.7355 31.9766 74.8455 32.0071 74.9577 32.007H78.4833C78.6479 32.0072 78.8101 31.968 78.956 31.8926C79.1019 31.8173 79.2272 31.708 79.321 31.5743L91.0615 14.8167C91.1251 14.7261 91.1624 14.6199 91.1694 14.5098C91.1763 14.3996 91.1527 14.2897 91.101 14.1919C91.0493 14.0941 90.9715 14.0122 90.876 13.955C90.7806 13.8978 90.6711 13.8675 90.5595 13.8675V13.8675Z" fill="#B1B1B1"/>
<path d="M102.246 7.15804H94.91C94.6674 7.15814 94.4327 7.24387 94.2483 7.3998C94.0639 7.55573 93.9418 7.77163 93.904 8.00865L90.9372 26.6085C90.9234 26.6947 90.9287 26.7827 90.9526 26.8667C90.9766 26.9507 91.0186 27.0285 91.0759 27.0948C91.1332 27.1612 91.2044 27.2144 91.2845 27.2509C91.3646 27.2875 91.4518 27.3064 91.54 27.3064H95.3047C95.4746 27.3061 95.6388 27.246 95.7678 27.1367C95.8967 27.0274 95.9821 26.8762 96.0084 26.7103L96.8503 21.438C96.8879 21.2008 97.0099 20.9847 97.1944 20.8285C97.3788 20.6724 97.6136 20.5865 97.8564 20.5864H100.177C105.011 20.5864 107.798 18.2743 108.528 13.6924C108.857 11.6879 108.54 10.1129 107.591 9.00986C106.55 7.79865 104.702 7.15804 102.246 7.15804V7.15804ZM103.093 13.9512C102.693 16.554 100.682 16.554 98.7359 16.554H97.6301L98.4077 11.6932C98.43 11.551 98.5031 11.4214 98.6136 11.3278C98.7242 11.2342 98.865 11.1829 99.0105 11.183H99.5178C100.841 11.183 102.092 11.183 102.738 11.9297C103.123 12.3752 103.24 13.037 103.093 13.9512V13.9512ZM124.172 13.8674H120.662C120.516 13.867 120.375 13.9183 120.265 14.0119C120.154 14.1055 120.081 14.2353 120.059 14.3776L119.903 15.3491L119.657 14.997C118.896 13.9056 117.201 13.5408 115.509 13.5408C111.627 13.5408 108.313 16.4479 107.667 20.5259C107.333 22.5602 107.808 24.5053 108.975 25.8618C110.047 27.1091 111.577 27.6288 113.399 27.6288C116.527 27.6288 118.261 25.6402 118.261 25.6402L118.105 26.6053C118.091 26.6918 118.096 26.7802 118.12 26.8645C118.144 26.9488 118.186 27.0269 118.244 27.0935C118.301 27.1601 118.373 27.2135 118.453 27.2501C118.533 27.2866 118.621 27.3055 118.71 27.3053H121.873C122.115 27.3052 122.35 27.2193 122.535 27.0631C122.719 26.907 122.841 26.6909 122.879 26.4536L124.778 14.5653C124.792 14.4789 124.786 14.3907 124.762 14.3067C124.738 14.2227 124.695 14.1448 124.638 14.0785C124.58 14.0122 124.509 13.959 124.428 13.9226C124.348 13.8861 124.261 13.8673 124.172 13.8674V13.8674ZM119.276 20.6277C118.939 22.6121 117.344 23.9443 115.313 23.9443C114.295 23.9443 113.477 23.6208 112.954 23.0077C112.435 22.399 112.24 21.5324 112.403 20.5673C112.721 18.5999 114.339 17.2243 116.339 17.2243C117.337 17.2243 118.148 17.552 118.682 18.1703C119.219 18.795 119.431 19.6668 119.276 20.6277V20.6277ZM128.313 7.66819L125.303 26.6085C125.289 26.6947 125.294 26.7827 125.318 26.8667C125.342 26.9507 125.384 27.0285 125.441 27.0948C125.499 27.1612 125.57 27.2144 125.65 27.2509C125.73 27.2875 125.817 27.3064 125.905 27.3064H128.932C129.435 27.3064 129.862 26.9458 129.939 26.4547L132.908 7.85592C132.922 7.76971 132.917 7.68157 132.893 7.59756C132.869 7.51355 132.827 7.43566 132.77 7.36924C132.712 7.30283 132.641 7.24947 132.561 7.21283C132.481 7.17619 132.394 7.15714 132.306 7.15698H128.916C128.771 7.15749 128.63 7.20922 128.52 7.30289C128.409 7.39656 128.336 7.52606 128.313 7.66819Z" fill="white"/>
<path d="M8.15317 30.9209L8.71413 27.3976L7.46457 27.3689H1.4978L5.6444 1.37031C5.65674 1.29087 5.69755 1.21846 5.75937 1.16629C5.82119 1.11411 5.89991 1.08564 5.98119 1.08606H16.042C19.382 1.08606 21.687 1.77334 22.8904 3.12985C23.4546 3.76622 23.8139 4.43122 23.9877 5.16303C24.17 5.93091 24.1732 6.84834 23.9952 7.96728L23.9823 8.04894V8.76591L24.5465 9.08197C24.9772 9.29774 25.3643 9.58962 25.6888 9.94319C26.1714 10.4873 26.4836 11.1788 26.6155 11.9986C26.7517 12.8418 26.7067 13.8452 26.4836 14.9811C26.2261 16.2877 25.81 17.4258 25.248 18.357C24.7521 19.1912 24.0853 19.9137 23.2905 20.4782C22.544 21.0021 21.657 21.3999 20.6541 21.6544C19.6823 21.9047 18.5744 22.0309 17.3591 22.0309H16.5761C16.0163 22.0309 15.4725 22.2303 15.0456 22.5877C14.6193 22.949 14.3365 23.4481 14.2476 23.9962L14.1886 24.3133L13.1975 30.5232L13.1525 30.7512C13.1407 30.8233 13.1203 30.8594 13.0903 30.8838C13.0612 30.9073 13.0249 30.9204 12.9873 30.9209H8.15317Z" fill="#7D7D7D"/>
<path d="M25.0806 8.13171C25.0506 8.32156 25.0163 8.51565 24.9777 8.71505C23.6509 15.451 19.1117 17.7779 13.3144 17.7779H10.3627C9.65372 17.7779 9.05629 18.287 8.94581 18.9785L7.43455 28.4561L7.00659 31.1426C6.98954 31.2492 6.99605 31.3581 7.02567 31.462C7.05529 31.5658 7.10731 31.6621 7.17815 31.7441C7.249 31.8262 7.33699 31.8921 7.43606 31.9373C7.53513 31.9825 7.64293 32.0059 7.75203 32.006H12.9873C13.6073 32.006 14.1339 31.5605 14.2315 30.956L14.283 30.6929L15.2687 24.5075L15.332 24.1681C15.4285 23.5614 15.9562 23.116 16.5762 23.116H17.3591C22.4314 23.116 26.4021 21.0796 27.5626 15.1869C28.0474 12.7252 27.7964 10.6697 26.5136 9.22414C26.107 8.77695 25.6214 8.40676 25.0806 8.13171V8.13171Z" fill="#B1B1B1"/>
<path d="M23.8223 7.98642C23.3987 7.86524 22.9677 7.77066 22.532 7.70324C21.6711 7.57241 20.801 7.50963 19.93 7.51551H12.0443C11.7442 7.51529 11.454 7.62123 11.226 7.81419C10.998 8.00715 10.8473 8.27441 10.8012 8.56764L9.12371 19.074L9.07544 19.3805C9.1277 19.0461 9.29929 18.7411 9.55918 18.5209C9.81906 18.3007 10.1501 18.1797 10.4923 18.1799H13.4441C19.2414 18.1799 23.7805 15.8519 25.1073 9.11703C25.147 8.91764 25.1802 8.72354 25.2103 8.5337C24.8602 8.35215 24.4953 8.19995 24.1195 8.0787C24.0209 8.04637 23.9219 8.01561 23.8223 7.98642V7.98642Z" fill="#7D7D7D"/>
<path d="M10.6716 8.16561C10.7173 7.87229 10.8678 7.60492 11.0959 7.41205C11.324 7.21918 11.6146 7.11362 11.9147 7.11455H19.8003C20.7345 7.11455 21.6065 7.175 22.4024 7.30227C22.9409 7.38597 23.472 7.51115 23.9909 7.67667C24.3824 7.805 24.746 7.95667 25.0817 8.13167C25.4764 5.64242 25.0785 3.94758 23.7174 2.41288C22.2168 0.723333 19.5085 0 16.043 0H5.98223C5.27433 0 4.67047 0.509091 4.56106 1.20167L0.370492 27.4676C0.350973 27.5895 0.3584 27.7142 0.39226 27.833C0.426121 27.9519 0.485613 28.0621 0.566643 28.156C0.647673 28.2499 0.748319 28.3254 0.861657 28.3772C0.974995 28.429 1.09834 28.4559 1.22319 28.4561H7.43451L8.99404 18.672L10.6716 8.16561V8.16561Z" fill="#888888"/>
</g>
<defs>
<clipPath id="clip0_508_646">
<rect width="133" height="35" fill="white" transform="translate(0.359863)"/>
</clipPath>
</defs>
</svg>