<svg width="117" height="58" viewBox="0 0 117 58" fill="none" xmlns="http://www.w3.org/2000/svg">
<path d="M0 57.913H59.0724L117 0H0V57.913Z" fill="#014185"/>
<path fill-rule="evenodd" clip-rule="evenodd" d="M69.3755 10.8846L57.9274 10.8823V38.2758L47.853 10.8823H38.0076L29.307 33.7919C28.3912 28.021 22.4381 26.0264 17.6299 24.5333C14.6534 23.5302 11.219 22.0554 11.4479 20.4433C11.4479 19.1059 13.0507 17.8784 16.4851 18.0616C18.7747 18.1784 20.8354 18.3685 24.9567 20.3333L29.0781 13.3556C25.1857 11.4686 20.1485 10.2755 16.0272 10.2709C10.99 10.2709 6.86868 11.8556 4.35009 14.4823C2.74735 16.3097 1.60254 18.6295 1.60254 21.2013C1.60254 24.7394 2.97632 27.2493 5.49491 29.2485C8.0135 30.9317 10.7611 32.0286 13.5086 32.8324C16.7141 33.824 19.2327 34.6828 19.2327 36.524C19.2327 37.2041 19.0037 37.8224 18.5458 38.3194C17.6299 39.1415 16.4851 39.4529 14.6534 39.4919C11.4479 39.5514 9.15831 39.0407 5.26594 36.7667L1.60254 43.8315C5.49491 46.0208 10.0742 47.3078 14.6534 47.3078L15.3403 47.3032C19.2327 47.2299 22.6671 46.0735 25.1857 43.9712C25.4147 43.8475 25.4147 43.733 25.6436 43.6185L24.4988 46.6941H35.0311L36.6338 41.3628C38.4655 41.9766 40.5262 42.3338 42.8158 42.3338C45.1055 42.3338 46.9372 41.988 48.7689 41.4063L50.6006 46.6941H67.5438V35.6354H71.4362C80.3657 35.6354 85.6319 31.053 85.6319 23.3676C85.6319 14.812 80.5947 10.8846 69.3755 10.8846ZM42.8158 34.337C41.4421 34.337 40.2972 34.0988 39.1524 33.682L42.8158 22.1585L46.4792 33.7187C45.3344 34.1125 44.1896 34.337 42.8158 34.337ZM70.0624 27.7096H67.5438V18.4189H70.0624C73.4968 18.4189 76.2444 19.5433 76.2444 23.0173C76.2444 26.5897 73.4968 27.7096 70.0624 27.7096Z" fill="white"/>
<path d="M73.4969 54.2122C73.4969 52.442 74.8707 51.0932 76.4734 51.0932C78.0762 51.0932 79.45 52.442 79.45 54.2122C79.45 56.0489 78.0762 57.3725 76.4734 57.3725C74.8707 57.3725 73.4969 56.0489 73.4969 54.2122ZM76.4734 58C78.5341 58 80.3658 56.3947 80.3658 54.2122C80.3658 52.0619 78.5341 50.4818 76.4734 50.4818C74.4128 50.4818 72.5811 52.0619 72.5811 54.2122C72.5811 56.3947 74.4128 58 76.4734 58ZM75.7865 54.526H76.4734L77.6183 56.3947H78.3052L77.1603 54.4893C77.6183 54.4115 78.3052 54.0748 78.3052 53.3054C78.3052 52.442 77.6183 52.0619 76.7024 52.0619H75.0997V56.3947H75.7865V54.526ZM75.7865 53.9672V52.6138H76.7024C76.9314 52.6138 77.6183 52.7191 77.6183 53.2664C77.6183 53.9237 76.9314 53.9672 76.4734 53.9672H75.7865Z" fill="#014185"/>
</svg>
