<svg width="179" height="51" viewBox="0 0 179 51" fill="none" xmlns="http://www.w3.org/2000/svg">
<g clip-path="url(#clip0_517_616)">
<path d="M38.7547 9.6594C38.7203 9.40607 38.5011 9.26553 38.3192 9.25023C38.1387 9.23493 34.6024 9.18067 34.6024 9.18067C34.6024 9.18067 31.6449 6.28032 31.3527 5.98527C31.0606 5.69023 30.49 5.7793 30.2682 5.8461C30.2654 5.84749 29.7128 6.02007 28.7826 6.31093C28.6268 5.80157 28.398 5.17529 28.0714 4.54623C27.0186 2.51711 25.4764 1.44409 23.6131 1.44132C23.6104 1.44132 23.609 1.44132 23.6062 1.44132C23.4767 1.44132 23.3485 1.45384 23.219 1.46497C23.1639 1.39817 23.1088 1.33276 23.0509 1.26874C22.2391 0.39196 21.1987 -0.0352971 19.9515 0.00227921C17.5452 0.0718651 15.1487 1.82682 13.2055 4.94427C11.8384 7.13761 10.7979 9.89325 10.503 12.0267C7.73978 12.891 5.80763 13.4949 5.76491 13.5089C4.37024 13.9514 4.32614 13.9946 4.14423 15.3223C4.00917 16.3257 0.359863 44.8226 0.359863 44.8226L30.9421 50.1639L44.197 46.8363C44.197 46.8363 38.7892 9.91273 38.7547 9.6594ZM27.2514 6.78968C26.5472 7.00957 25.7465 7.26008 24.8782 7.53147C24.8604 6.30119 24.7156 4.58938 24.1479 3.10998C25.9739 3.4593 26.8724 5.54549 27.2514 6.78968ZM23.2782 8.03248C21.6755 8.53347 19.9266 9.08042 18.1723 9.6288C18.6656 7.72074 19.6014 5.82105 20.7508 4.57546C21.178 4.11202 21.7761 3.59569 22.4844 3.30064C23.1501 4.7035 23.2948 6.68948 23.2782 8.03248ZM19.9996 1.61945C20.5647 1.60693 21.0402 1.73219 21.4467 2.00218C20.7963 2.34315 20.1678 2.83303 19.578 3.47183C18.0496 5.12797 16.8782 7.69848 16.411 10.1785C14.9543 10.6336 13.5293 11.0804 12.2173 11.4895C13.0456 7.58575 16.2856 1.72801 19.9996 1.61945Z" fill="#9F9F9F"/>
<path d="M38.3205 9.25165C38.14 9.23635 34.6037 9.18209 34.6037 9.18209C34.6037 9.18209 31.6463 6.28172 31.3541 5.98669C31.2452 5.87673 31.0978 5.81967 30.9434 5.79602L30.9448 50.1626L44.1983 46.8364C44.1983 46.8364 38.7905 9.91414 38.7561 9.66082C38.7215 9.40749 38.5011 9.26695 38.3205 9.25165Z" fill="#7A7A7A"/>
<path d="M23.5965 16.1338L22.0572 21.9497C22.0572 21.9497 20.34 21.1606 18.3045 21.29C15.3194 21.4808 15.2877 23.3818 15.3181 23.8592C15.4807 26.4603 22.257 27.0281 22.6374 33.121C22.9364 37.9141 20.1195 41.193 16.0609 41.4519C11.1892 41.7622 8.50732 38.8605 8.50732 38.8605L9.53957 34.4265C9.53957 34.4265 12.2393 36.4834 14.4002 36.3457C15.8115 36.2552 16.3158 35.0959 16.2648 34.2762C16.0526 30.8831 10.5345 31.0836 10.1859 25.5083C9.89234 20.8169 12.9436 16.0628 19.6757 15.6341C22.2694 15.4658 23.5965 16.1338 23.5965 16.1338Z" fill="white"/>
<path d="M61.6516 28.3123C60.1275 27.4772 59.3442 26.7732 59.3442 25.8056C59.3442 24.5743 60.4322 23.7833 62.1313 23.7833C64.1092 23.7833 65.8752 24.6184 65.8752 24.6184L67.2681 20.3089C67.2681 20.3089 65.9873 19.2971 62.2174 19.2971C56.9712 19.2971 53.3353 22.3311 53.3353 26.5965C53.3353 29.0149 55.033 30.8618 57.2979 32.1801C59.1269 33.2347 59.7802 33.9829 59.7802 35.0816C59.7802 36.2246 58.8658 37.148 57.1681 37.148C54.6379 37.148 52.2486 35.8284 52.2486 35.8284L50.7683 40.1379C50.7683 40.1379 52.9758 41.6329 56.6897 41.6329C62.0889 41.6329 65.9641 38.9508 65.9641 34.114C65.9627 31.5216 64.004 29.6747 61.6516 28.3123Z" fill="white"/>
<path d="M83.1614 19.2543C80.5053 19.2543 78.4153 20.5298 76.8051 22.4637L76.7176 22.4194L79.0249 10.2405H73.0161L67.1821 41.238H73.191L75.1935 30.6423C75.9767 26.6407 78.023 24.1794 79.9394 24.1794C81.2885 24.1794 81.8121 25.1029 81.8121 26.4225C81.8121 27.2577 81.7246 28.2695 81.551 29.1046L79.2874 41.2394H85.2966L87.647 28.7084C87.9086 27.3888 88.0833 25.8069 88.0833 24.7509C88.0808 21.3207 86.2959 19.2543 83.1614 19.2543Z" fill="white"/>
<path d="M101.665 19.2543C94.4365 19.2543 89.6487 25.8497 89.6487 33.1919C89.6487 37.8962 92.5215 41.6771 97.9211 41.6771C105.018 41.6771 109.807 35.2583 109.807 27.7394C109.807 23.3871 107.281 19.2543 101.665 19.2543ZM98.7043 37.0182C96.6577 37.0182 95.7868 35.2597 95.7868 33.0607C95.7868 29.5877 97.5726 23.9158 100.838 23.9158C102.971 23.9158 103.667 25.7627 103.667 27.5655C103.667 31.3021 101.883 37.0182 98.7043 37.0182Z" fill="white"/>
<path d="M125.177 19.2543C121.121 19.2543 118.819 22.8598 118.819 22.8598H118.733L119.082 19.6063H113.77C113.509 21.8052 113.029 25.1457 112.551 27.6525L108.371 49.8557H114.38L116.033 40.886H116.165C116.165 40.886 117.398 41.677 119.692 41.677C126.745 41.677 131.36 34.379 131.36 26.9913C131.36 22.904 129.574 19.2543 125.177 19.2543ZM119.429 37.1052C117.87 37.1052 116.947 36.2259 116.947 36.2259L117.948 30.554C118.645 26.7732 120.604 24.2664 122.695 24.2664C124.524 24.2664 125.089 25.9808 125.089 27.6083C125.089 31.5216 122.782 37.1052 119.429 37.1052Z" fill="white"/>
<path d="M139.937 10.5483C138.022 10.5483 136.498 12.0875 136.498 14.0655C136.498 15.8683 137.629 17.0996 139.327 17.0996H139.414C141.287 17.0996 142.897 15.8241 142.941 13.5824C142.941 11.8238 141.766 10.5483 139.937 10.5483Z" fill="white"/>
<path d="M131.534 41.238H137.541L141.635 19.7388H135.583L131.534 41.238Z" fill="white"/>
<path d="M156.918 19.6946H152.738L152.955 18.6828C153.303 16.6164 154.523 14.7694 156.525 14.7694C157.594 14.7694 158.44 15.0773 158.44 15.0773L159.616 10.3288C159.616 10.3288 158.571 9.80151 156.35 9.80151C154.216 9.80151 152.085 10.4171 150.473 11.8237C148.426 13.5824 147.468 16.1319 146.99 18.6828L146.817 19.6946H144.029L143.158 24.2678H145.946L142.767 41.2394H148.776L151.955 24.2678H156.091L156.918 19.6946Z" fill="white"/>
<path d="M171.372 19.7388C171.372 19.7388 167.616 29.2951 165.93 34.5115H165.842C165.728 32.8316 164.362 19.7388 164.362 19.7388H158.048L161.663 39.4794C161.751 39.9185 161.707 40.1835 161.533 40.4912C160.835 41.8537 159.66 43.1733 158.267 44.141C157.135 44.9761 155.872 45.5034 154.871 45.8554L156.525 51C157.745 50.7364 160.269 49.7246 162.403 47.7023C165.146 45.1086 167.671 41.1069 170.283 35.6544L177.641 19.7374H171.372V19.7388Z" fill="white"/>
</g>
<defs>
<clipPath id="clip0_517_616">
<rect width="178" height="51" fill="white" transform="translate(0.359863)"/>
</clipPath>
</defs>
</svg>