<svg width="201" height="31" viewBox="0 0 201 31" fill="none" xmlns="http://www.w3.org/2000/svg">
<g clip-path="url(#clip0_163_1469)">
<path d="M42.2051 3.8755C40.1636 3.8755 38.5033 5.50505 38.5033 7.50813C38.5033 10.3598 39.5794 12.9655 41.3535 14.9671C42.0883 15.7942 42.9415 16.5167 43.89 17.1085C44.4588 16.2584 44.9354 15.3407 45.3012 14.3721C45.8516 12.9117 46.1529 11.3329 46.1529 9.68646C46.1529 8.70877 46.0453 7.75565 45.8423 6.83478C45.8266 6.75808 45.8069 6.68082 45.7883 6.60413C45.3779 5.03611 43.9282 3.87544 42.2064 3.87544L42.2051 3.8755ZM19.367 14.3721C19.7329 15.3407 20.2095 16.2584 20.7813 17.1085C21.7268 16.5167 22.58 15.7942 23.3148 14.9671C25.0904 12.9686 26.168 10.3598 26.168 7.50813C26.168 5.50505 24.5077 3.8755 22.4631 3.8755C20.7414 3.8755 19.2932 5.03767 18.8812 6.60266C18.8655 6.67936 18.8446 6.75664 18.8272 6.83333C18.6273 7.75571 18.5197 8.70882 18.5197 9.68652C18.5197 11.3315 18.8195 12.9118 19.3699 14.3722L19.367 14.3721ZM60.4744 12.5951L64.004 14.3291C61.4521 19.3253 56.1868 22.7597 50.1007 22.7597C48.3113 22.7597 46.5956 22.4599 44.9938 21.9142C41.7701 25.124 37.2919 27.1179 32.3341 27.1179C27.3763 27.1179 22.8951 25.1225 19.6729 21.9111C18.0742 22.4584 16.3524 22.7566 14.5645 22.7566C8.23083 22.7566 2.78111 19.0363 0.359863 13.7019L3.97252 12.1262C5.78038 16.1031 9.84499 18.8842 14.5645 18.8842C15.4254 18.8842 16.2663 18.7889 17.0734 18.6134C15.4823 16 14.5676 12.9485 14.5676 9.68477C14.5676 8.44266 14.7013 7.22972 14.9519 6.06139C14.9885 5.89231 15.0288 5.72904 15.0703 5.56345C15.9419 2.35973 18.9197 0.00151062 22.4601 0.00151062C22.5308 0.00151062 22.5984 0.00450787 22.6691 0.00650787C22.8843 0.0125079 23.0995 0.0239107 23.3117 0.0472107C27.1396 0.462061 30.1127 3.64453 30.1127 7.50771C30.1127 12.7007 27.4655 17.2849 23.4255 20.0367C25.8329 22.0352 28.9413 23.2435 32.3341 23.2435C35.7254 23.2435 38.8338 22.0336 41.2412 20.0367C37.2012 17.2849 34.554 12.6992 34.554 7.50771C34.554 3.64296 37.5271 0.46073 41.3519 0.0457001C41.564 0.0225001 41.7777 0.0107973 41.9945 0.00499725C42.0652 0.00499725 42.1328 0 42.2051 0C45.7471 0 48.7233 2.35973 49.5965 5.56502C49.6377 5.72945 49.6779 5.89386 49.7148 6.06178C49.9669 7.2301 50.0992 8.44457 50.0992 9.68518C50.0992 12.9489 49.1845 16.0035 47.5934 18.6138C48.402 18.7893 49.2383 18.8846 50.0992 18.8846C54.6342 18.8846 58.5635 16.3204 60.4713 12.594L60.4744 12.5951Z" fill="#EFEFEF"/>
<path d="M75.5992 24.3572H79.6734V8.06047H87.036V3.98633H68.2366V8.06047H75.5992V24.3572Z" fill="#EFEFEF"/>
<path d="M85.1326 17.0818C85.1326 21.4179 88.0136 24.7064 92.9317 24.7064C95.7254 24.7064 97.5297 23.7751 98.7229 22.7857L97.1223 19.6136C96.1037 20.4867 94.736 21.0978 92.9899 21.0978C91.302 21.0978 89.556 20.2539 89.0903 18.3041L89.0612 18.2458H99.7705V17.1982C99.7705 12.5129 97.035 9.45728 92.5825 9.45728C88.0136 9.45728 85.1326 12.7748 85.1326 17.0818V17.0818ZM95.5799 15.4522H89.0321C89.4105 13.677 90.6327 12.7167 92.4661 12.7167C94.3286 12.7167 95.4053 13.8807 95.5799 15.4522Z" fill="#EFEFEF"/>
<path d="M101.332 17.0818C101.332 21.4179 104.213 24.7064 109.131 24.7064C111.924 24.7064 113.729 23.7751 114.922 22.7857L113.321 19.6136C112.303 20.4867 110.935 21.0978 109.189 21.0978C107.501 21.0978 105.755 20.2539 105.289 18.3041L105.26 18.2458H115.97V17.1982C115.97 12.5129 113.234 9.45728 108.782 9.45728C104.213 9.45728 101.332 12.7748 101.332 17.0818L101.332 17.0818ZM111.779 15.4522H105.231C105.609 13.677 106.832 12.7167 108.665 12.7167C110.528 12.7167 111.604 13.8807 111.779 15.4522Z" fill="#EFEFEF"/>
<path d="M118.083 14.0845C118.083 17.1983 120.644 18.1878 122.914 18.6825C125.417 19.2354 126.145 19.41 126.145 20.1667C126.145 20.9815 125.301 21.2725 124.224 21.2725C122.041 21.2725 120.528 20.4577 119.597 19.3809L117.356 22.291C118.607 23.8334 120.906 24.7065 123.816 24.7065C127.832 24.7065 130.102 23.1641 130.102 19.9629C130.102 17.0528 128.211 16.0343 125.446 15.3941C122.769 14.7829 122.07 14.6374 122.07 13.939C122.07 13.2988 122.711 12.9205 123.904 12.9205C125.388 12.9205 126.988 13.4443 127.862 14.4046L130.015 11.6109C128.705 10.2431 126.814 9.4574 124.224 9.4574C120.412 9.4574 118.083 11.1162 118.083 14.0845Z" fill="#EFEFEF"/>
<path d="M132.358 30.1774H136.199V22.2619C137.334 23.8334 139.08 24.7355 141.088 24.7355C144.988 24.7355 147.665 21.5925 147.665 17.0818C147.665 12.542 144.959 9.42822 141.03 9.42822C139.022 9.42822 137.305 10.2722 136.199 11.8146V9.80655H132.358V30.1774ZM139.895 20.9814C137.654 20.9814 136.083 19.4099 136.083 17.0818C136.083 14.7537 137.654 13.1823 139.895 13.1823C142.136 13.1823 143.707 14.7828 143.707 17.0818C143.707 19.3808 142.136 20.9814 139.895 20.9814Z" fill="#EFEFEF"/>
<path d="M153.844 12.1929V9.80657H150.148V24.3572H153.99V17.7803C153.99 14.9866 155.125 13.5606 157.657 13.5606C158.268 13.5606 158.879 13.6189 159.403 13.7934V9.66101C158.937 9.54451 158.5 9.45728 157.977 9.45728C155.94 9.45728 154.63 10.5049 153.844 12.1928V12.1929Z" fill="#EFEFEF"/>
<path d="M163.556 8.08961C164.982 8.08961 166.029 7.04198 166.029 5.64511C166.029 4.21915 164.982 3.17151 163.556 3.17151C162.159 3.17151 161.111 4.21915 161.111 5.64511C161.111 7.04198 162.159 8.08961 163.556 8.08961ZM165.477 9.80661H161.635V24.3572H165.477V9.80661Z" fill="#EFEFEF"/>
<path d="M169.076 24.3572H172.917V17.402C172.917 14.6374 173.994 13.1533 176.031 13.1533C177.806 13.1533 178.737 14.23 178.737 16.2962V24.3572H182.666V15.2486C182.666 11.5527 180.804 9.4574 177.544 9.4574C175.594 9.4574 173.906 10.3304 172.801 12.0183V9.80662H169.076V24.3572Z" fill="#EFEFEF"/>
<path d="M185.225 17.0237C185.225 21.5344 187.931 24.5027 192.064 24.5027C194.072 24.5027 195.759 23.6879 196.749 22.262V23.1932C196.749 25.6959 195.323 26.9473 192.5 26.9473C190.754 26.9473 189.328 26.3361 188.077 25.1138L186.185 28.2859C187.844 29.8283 189.91 30.5558 192.617 30.5558C197.767 30.5558 200.532 28.0531 200.532 23.3969V9.80662H196.691V11.8437C195.759 10.3595 193.955 9.4574 191.947 9.4574C187.989 9.4574 185.225 12.5712 185.225 17.0237ZM196.778 17.082C196.778 19.4101 195.265 20.9815 193.024 20.9815C190.754 20.9815 189.183 19.381 189.183 17.082C189.183 14.783 190.754 13.1824 193.024 13.1824C195.265 13.1824 196.778 14.7539 196.778 17.082Z" fill="#EFEFEF"/>
</g>
<defs>
<clipPath id="clip0_163_1469">
<rect width="200.172" height="30.5557" fill="white" transform="translate(0.359863)"/>
</clipPath>
</defs>
</svg>
