<svg width="119" height="36" viewBox="0 0 119 36" fill="none" xmlns="http://www.w3.org/2000/svg">
<g clip-path="url(#clip0_508_683)">
<path d="M17.3519 13.56C17.3519 15.6 15.6999 17.28 13.6939 17.28C11.6879 17.28 10.0359 15.6 10.0359 13.56C10.0359 11.52 11.6879 9.84 13.6939 9.84C15.6999 9.84 17.3519 11.52 17.3519 13.56V13.56ZM13.6939 18.72C11.6879 18.72 10.0359 20.4 10.0359 22.44C10.0359 24.48 11.6879 26.16 13.6939 26.16C15.6999 26.16 17.3519 24.48 17.3519 22.44C17.3519 20.4 15.6999 18.72 13.6939 18.72V18.72ZM35.7599 18C35.7599 27.96 27.8539 36 18.0599 36C8.26586 36 0.359863 27.96 0.359863 18C0.359863 8.04 8.26586 0 18.0599 0C27.8539 0 35.7599 8.04 35.7599 18ZM31.0399 18C31.0399 10.68 25.2579 4.8 18.0599 4.8C10.8619 4.8 5.07986 10.68 5.07986 18C5.07986 25.32 10.8619 31.2 18.0599 31.2C25.2579 31.2 31.0399 25.32 31.0399 18ZM22.4259 18.72C20.4199 18.72 18.7679 20.4 18.7679 22.44C18.7679 24.48 20.4199 26.16 22.4259 26.16C24.4319 26.16 26.0839 24.48 26.0839 22.44C26.0839 20.4 24.4319 18.72 22.4259 18.72ZM22.4259 9.84C20.4199 9.84 18.7679 11.52 18.7679 13.56C18.7679 15.6 20.4199 17.28 22.4259 17.28C24.4319 17.28 26.0839 15.6 26.0839 13.56C26.0839 11.52 24.4319 9.84 22.4259 9.84ZM83.3139 7.08C83.4319 7.08 83.5499 7.2 83.6679 7.32V11.16C83.6679 11.4 83.4319 11.52 83.3139 11.52H77.0599C76.8239 11.52 76.7059 11.28 76.7059 11.16V7.44C76.7059 7.2 76.9419 7.08 77.0599 7.08H83.3139V7.08ZM83.1959 12.48H71.1599C71.0419 12.48 70.8059 12.6 70.8059 12.84L69.2719 18.84L69.1539 19.2L67.2659 12.84C67.2659 12.72 67.0299 12.48 66.9119 12.48H62.1919C62.0739 12.48 61.8379 12.6 61.8379 12.84L60.0679 18.84L59.9499 19.2L59.8319 18.84L59.1239 15.84L58.4159 12.84C58.4159 12.72 58.1799 12.48 58.0619 12.48H48.6219V7.32C48.6219 7.2 48.3859 6.96 48.1499 7.08L42.2499 9C42.0139 9 41.8959 9.12 41.8959 9.36V12.6H40.3619C40.2439 12.6 40.0079 12.72 40.0079 12.96V17.52C40.0079 17.64 40.1259 17.88 40.3619 17.88H41.8959V23.52C41.8959 27.48 44.0199 29.28 47.9139 29.28C49.5659 29.28 51.0999 28.92 52.1619 28.32V23.52C52.1619 23.28 51.9259 23.16 51.8079 23.28C51.2179 23.52 50.6279 23.64 50.1559 23.64C49.0939 23.64 48.5039 23.16 48.5039 21.96V17.88H51.9259C52.0439 17.88 52.2799 17.76 52.2799 17.52V13.68L56.7639 28.8C56.7639 28.92 56.9999 29.16 57.1179 29.16H62.0739C62.1919 29.16 62.4279 29.04 62.4279 28.8L64.5519 22.08L65.6139 25.56L66.5579 28.8C66.5579 28.92 66.7939 29.16 66.9119 29.16H71.8679C71.9859 29.16 72.2219 29.04 72.2219 28.8L76.7059 13.68V28.8C76.7059 28.92 76.8239 29.16 77.0599 29.16H83.0779C83.1959 29.16 83.4319 29.04 83.4319 28.8V12.84C83.4319 12.72 83.3139 12.48 83.1959 12.48V12.48ZM91.1019 7.08H85.0839C84.9659 7.08 84.7299 7.2 84.7299 7.44V28.68C84.7299 28.8 84.8479 29.04 85.0839 29.04H91.1019C91.2199 29.04 91.4559 28.92 91.4559 28.68V7.32C91.4559 7.2 91.3379 7.08 91.1019 7.08V7.08ZM99.1259 7.08H92.8719C92.7539 7.08 92.5179 7.2 92.5179 7.44V11.16C92.5179 11.28 92.6359 11.52 92.8719 11.52H99.1259C99.2439 11.52 99.4799 11.4 99.4799 11.16V7.32C99.4799 7.2 99.3619 7.08 99.1259 7.08V7.08ZM99.0079 12.48H92.9899C92.8719 12.48 92.6359 12.6 92.6359 12.84V28.56C92.6359 28.68 92.7539 28.92 92.9899 28.92H99.0079C99.1259 28.92 99.3619 28.8 99.3619 28.56V12.84C99.3619 12.72 99.2439 12.48 99.0079 12.48ZM118.006 20.64C118.006 25.2 114.23 29.16 108.92 29.16C103.728 29.16 99.9519 25.2 99.9519 20.64C99.9519 16.08 103.728 12.12 109.038 12.12C114.23 12.12 118.006 16.08 118.006 20.64V20.64ZM111.634 20.76C111.634 19.08 110.454 17.76 109.038 17.88C107.504 17.88 106.442 19.2 106.442 20.76C106.442 22.32 107.622 23.64 109.038 23.64C110.572 23.64 111.634 22.32 111.634 20.76Z" fill="white"/>
</g>
<defs>
<clipPath id="clip0_508_683">
<rect width="118" height="36" fill="white" transform="translate(0.359863)"/>
</clipPath>
</defs>
</svg>