<svg width="142" height="32" viewBox="0 0 142 32" fill="none" xmlns="http://www.w3.org/2000/svg">
<path d="M70.52 8C65 8 61.02 11.6 61.02 17C61.02 22.4 65.5 26 71.02 26C74.355 26 77.295 24.68 79.115 22.455L75.29 20.245C74.28 21.35 72.745 21.995 71.02 21.995C68.625 21.995 66.59 20.745 65.835 18.745H79.845C79.955 18.185 80.02 17.605 80.02 16.995C80.02 11.6 76.04 8 70.52 8ZM65.79 15.25C66.415 13.255 68.125 12 70.515 12C72.91 12 74.62 13.255 75.24 15.25H65.79ZM124.36 8C118.84 8 114.86 11.6 114.86 17C114.86 22.4 119.34 26 124.86 26C128.195 26 131.135 24.68 132.955 22.455L129.13 20.245C128.12 21.35 126.585 21.995 124.86 21.995C122.465 21.995 120.43 20.745 119.675 18.745H133.685C133.795 18.185 133.86 17.605 133.86 16.995C133.86 11.6 129.88 8 124.36 8ZM119.635 15.25C120.26 13.255 121.97 12 124.36 12C126.755 12 128.465 13.255 129.085 15.25H119.635ZM100.12 17C100.12 20 102.08 22 105.12 22C107.18 22 108.725 21.065 109.52 19.54L113.36 21.755C111.77 24.405 108.79 26 105.12 26C99.595 26 95.62 22.4 95.62 17C95.62 11.6 99.6 8 105.12 8C108.79 8 111.765 9.595 113.36 12.245L109.52 14.46C108.725 12.935 107.18 12 105.12 12C102.085 12 100.12 14 100.12 17ZM141.36 2.5V25.5H136.86V2.5H141.36ZM18.475 0L36.95 32H0L18.475 0ZM64.665 2.5L50.81 26.5L36.955 2.5H42.15L50.81 17.5L59.47 2.5H64.665ZM94.12 8.5V13.345C93.62 13.2 93.09 13.1 92.52 13.1C89.615 13.1 87.52 15.1 87.52 18.1V25.5H83.02V8.5H87.52V13.1C87.52 10.56 90.475 8.5 94.12 8.5Z" fill="white"/>
</svg>