<svg width="65" height="65" viewBox="0 0 65 65" fill="none" xmlns="http://www.w3.org/2000/svg">
<g clip-path="url(#clip0_911_668)">
<path d="M63.8294 1.30571L49.0222 1.26089L48.7979 2.29286C48.7979 2.29286 52.2977 3.99798 53.2849 4.89533C54.272 5.79275 54.4483 5.96368 54.4483 5.96368L49.7508 10.5681C51.5113 11.9936 53.0899 13.5934 54.5108 15.3443L58.9834 10.6836L62.932 15.9783H63.8294V1.30571Z" fill="#010101"/>
<path d="M59.4424 14.2423L56.0818 17.572L56.0805 17.5728C58.7698 21.8099 60.3505 26.8237 60.4055 32.2111C60.5628 47.6123 48.2052 60.225 32.804 60.3824C17.4027 60.5397 4.79001 48.1821 4.63267 32.7808C4.47533 17.3796 16.833 4.76687 32.2342 4.60959C37.8843 4.55184 43.1579 6.18008 47.5802 9.02342L51.0296 5.75062C45.631 1.99854 39.2283 -0.0231247 32.5249 -0.0231247C32.4127 -0.0231247 32.2994 -0.0226593 32.1868 -0.0214005C23.5011 0.067337 15.3699 3.53312 9.2909 9.73752C3.212 15.9421 -0.0870497 24.1423 0.00174692 32.8282C0.0898117 41.4551 3.51582 49.547 9.64862 55.6138C15.7769 61.6763 23.897 65.015 32.5132 65.015C32.6254 65.015 32.7387 65.0145 32.8513 65.0133C50.7815 64.8301 65.2198 50.094 65.0366 32.1639C64.9703 25.6763 63.0158 19.4912 59.4424 14.2423Z" fill="#010101"/>
<path d="M15.0458 30.2034H16.1941L14.2739 33.754L12.3279 30.2042L13.7234 30.2034L13.7231 29.3202H7.95475L7.95361 30.2042H9.27383L11.9566 35.0782L15.063 35.0806L17.6999 30.2034L19.0216 30.2042V29.3202H15.0458V30.2034Z" fill="#010101"/>
<path d="M34.5474 34.1864H33.3177V30.2028H34.644V29.3209L29.3184 29.3202L29.319 30.2028H30.6593L30.661 34.1877H29.3184V35.0806L37.3126 35.08V32.4125H36.4341C36.4341 33.4339 35.687 34.1864 34.5474 34.1864Z" fill="#010101"/>
<path d="M23.7594 29.2051C21.115 29.2051 19.7104 30.5243 19.7104 32.1797C19.7104 33.858 21.0628 35.1959 23.7747 35.1959C26.4857 35.1959 27.8237 33.858 27.8237 32.1797C27.8237 30.5243 26.4043 29.2051 23.7594 29.2051ZM23.7301 34.2898C22.7644 34.2723 22.3399 33.205 22.3584 32.1444C22.3776 31.0461 22.9032 30.0883 23.8078 30.104C24.7124 30.1199 25.1901 31.096 25.1706 32.1938C25.1523 33.2296 24.7247 34.3078 23.7301 34.2898Z" fill="#010101"/>
<path d="M44.1522 30.2034H45.3006L43.3805 33.754L41.4345 30.2042L42.83 30.2034L42.8297 29.3202H37.0613L37.0601 30.2042H38.3803L41.063 35.0782L44.1693 35.0806L46.8063 30.2034L48.1281 30.2042V29.3202H44.1522V30.2034Z" fill="#010101"/>
<path d="M52.8511 29.1786C50.185 29.1786 48.769 30.5087 48.769 32.1776C48.769 33.8696 50.1325 35.2185 52.8665 35.2185C55.5999 35.2185 56.9488 33.8696 56.9488 32.1776C56.9488 30.5087 55.5178 29.1786 52.8511 29.1786ZM52.8216 34.305C51.848 34.2874 51.4201 33.2114 51.4387 32.1421C51.458 31.0347 51.9879 30.0691 52.8999 30.085C53.812 30.101 54.2935 31.085 54.2738 32.1919C54.2554 33.2361 53.8244 34.3233 52.8216 34.305Z" fill="#010101"/>
</g>
<defs>
<clipPath id="clip0_911_668">
<rect width="65" height="65" fill="white"/>
</clipPath>
</defs>
</svg>
