<svg width="214" height="33" viewBox="0 0 214 33" fill="none" xmlns="http://www.w3.org/2000/svg">
<g clip-path="url(#clip0_508_694)">
<path d="M12.5675 10.4188V21.895C14.1239 21.0576 15.2137 19.5997 15.7428 17.9556L15.8674 18.018C15.5247 22.1122 12.723 26.2061 8.36458 26.2061C3.97485 26.2061 0.737061 22.9496 0.737061 17.7384C0.737061 13.8306 3.28984 11.3799 6.55891 9.17762C6.08124 9.05278 5.58934 8.99023 5.09551 8.99154C2.85372 8.99154 1.54628 10.5114 1.54628 12.0624H1.3595C1.32822 11.8451 1.32822 11.6283 1.32822 11.4111C1.32822 8.65054 2.79161 5.30058 6.34085 5.30058C8.61346 5.30058 10.357 7.37866 13.0032 7.37866C14.0618 7.37866 15.3692 6.88229 15.8982 5.73462H15.9916C15.9608 7.75129 15.3384 9.82937 12.5675 10.4188V10.4188ZM14.2485 22.1741C12.6917 23.8177 11.0107 25.2138 8.83152 25.2138C4.78452 25.2138 1.67141 22.0499 1.67141 17.4592C1.67141 14.761 2.79207 13.3035 4.03741 11.5972H3.91274C3.13435 12.3727 1.07979 14.3265 1.07979 17.6453C1.07979 22.7324 4.28629 25.8651 8.48925 25.8651C11.4156 25.8651 13.408 23.8493 14.3111 22.2053L14.2485 22.1741V22.1741ZM15.4934 7.13116C14.9644 8.12345 13.8437 9.39487 11.5711 9.39487C9.29847 9.39487 7.21263 7.84387 5.37568 7.84387C3.69422 7.84387 2.54273 8.96083 2.10661 9.7982L2.13789 9.86054C2.72951 9.27112 3.63211 8.6817 5.09551 8.6817C7.52362 8.6817 9.08041 10.1708 11.5398 10.1708C14.1551 10.1708 15.3379 8.46445 15.556 7.16233L15.4934 7.13116V7.13116ZM6.83861 9.27112C5.25101 10.9152 3.78761 12.7141 3.78761 16.219C3.78761 18.1417 4.44133 20.1267 5.90473 21.3675L6.80733 20.9018V12.5899L5.96683 13.024L5.81134 12.7137L10.1698 10.356C8.98702 10.1085 7.92846 9.58141 6.83861 9.27112V9.27112ZM12.2248 10.4807C12.0067 10.5114 11.7891 10.5114 11.5398 10.5114C11.1041 10.5114 10.6993 10.4807 10.2945 10.3872V19.4438L6.21618 21.647C7.05667 22.2672 8.08395 22.6393 9.39139 22.6393C10.45 22.6393 11.3838 22.4221 12.2243 22.0499V10.4807H12.2248V10.4807ZM7.74168 12.0628L7.15006 12.4038V20.7166L7.74168 20.4063V12.0628V12.0628ZM25.6429 13.2412V23.9731C25.6429 26.9504 22.9967 28.9671 20.0391 29.556L19.977 29.4318C21.4404 28.7182 22.2809 27.2607 22.2809 25.7097V14.6057L20.5999 13.0863L19.9462 13.7995V22.4532L20.8801 23.2906V23.353L18.3586 26.0823L15.4635 23.446V23.3218L16.5842 22.143V8.43375L19.8841 4.92933L19.9462 4.96004V13.2724L22.6549 10.3569L25.4878 12.9007L26.0169 12.342L26.2662 12.5597L25.6429 13.2412V13.2412ZM16.926 23.3837V23.3218L17.5797 22.67V7.9062L16.926 8.58912V22.3602L15.9295 23.353V23.4148L18.3576 25.586L18.7933 25.0896L16.926 23.3837V23.3837ZM23.2769 14.1093L21.2531 12.3727L20.8175 12.8379L22.6232 14.4512V25.6171C22.6232 26.3615 22.4677 27.1365 22.1875 27.571L22.2188 27.6022C22.9972 27.0435 23.2773 26.2061 23.2773 25.1207V14.1093H23.2769V14.1093ZM30.5929 19.4755V21.0572L33.6127 23.4144L35.3562 21.5535L35.6056 21.8015L31.5586 26.1126L27.449 22.825L26.8266 23.4763L26.5772 23.2283L27.2935 22.484V14.6368L33.1775 10.3565L36.2598 15.3193L30.5929 19.4755V19.4755ZM28.2891 22.2053V14.3265L27.6353 14.7922V22.5156L31.496 25.6483L31.9942 25.1212L28.2891 22.2053V22.2053ZM30.6555 12.6518L30.5929 12.683V19.0414L33.3638 17.0252L30.6555 12.6518ZM31.4647 12.0317L30.9044 12.4345L33.6444 16.808L34.2047 16.4046L31.4647 12.0317V12.0317ZM56.5527 26.0819L52.2251 22.3597L48.9252 26.0819L44.4421 22.2355V16.1567H43.5703C42.7919 16.1567 42.3875 16.653 42.2003 17.242H42.1069C42.0076 16.8569 41.9553 16.4612 41.9514 16.0636C41.9514 15.257 42.1695 13.1482 44.4421 13.1482V7.81316C44.4421 6.7897 43.228 6.38637 43.228 5.02145C43.228 3.25412 44.909 1.51704 47.9913 0.430786L48.116 0.523828C46.9953 1.17558 46.4037 1.7957 46.4037 3.12945C46.4037 5.17683 48.3962 4.64929 48.3962 7.87504V9.11575L52.0388 5.30058L55.8682 9.05341L59.4795 5.30058L62.9662 8.71241V20.1886L56.5527 26.0819V26.0819ZM45.4385 21.7396V15.1955H43.695C42.7919 15.1955 42.3875 15.7845 42.325 16.312L42.3558 16.3432C42.6672 16.0022 42.9787 15.8161 43.6945 15.8161H44.7839V22.0815L48.8935 25.6176L49.3604 25.0589L45.4385 21.7396V21.7396ZM45.4385 7.50287C45.4385 6.23145 44.3179 5.79695 44.3179 4.99075C44.3179 3.87379 44.7535 2.94383 45.4385 2.07529L45.3764 2.04458C44.4425 2.7582 43.5708 3.90587 43.5708 5.02191C43.5708 6.13887 44.7848 6.66595 44.7848 7.6587V13.1486H45.4385V7.50287ZM52.0075 10.6049L49.6415 8.30954L48.3962 9.58095V20.5608L51.2291 22.9492L52.0075 22.0806V10.6049ZM53.0035 21.6778V10.1708L50.3573 7.5652L49.8591 8.06158L52.3498 10.4495V22.0187L56.5527 25.6478L57.051 25.1822L53.0035 21.6778ZM59.0434 10.2015L57.0822 8.34025L55.9616 9.48791V20.5301L59.0126 23.1971L59.0434 23.1664V10.2015V10.2015ZM60.0394 9.7675L57.7668 7.5652L57.2998 8.06158L59.3857 10.0466V23.0115L60.0394 22.3909V9.7675V9.7675ZM73.2679 26.0819L70.3103 23.4144L67.6642 26.0819L64.4264 23.2283L63.9902 23.6935L63.7414 23.4455L64.3017 22.8561V14.5442L70.1548 10.3257L73.5173 12.9314L74.1089 12.3108L74.3582 12.5592L73.6732 13.2724V21.8643L75.3229 23.3837L75.8525 22.8254L76.1013 23.0427L73.2679 26.0819V26.0819ZM65.2981 22.6393V14.2647L64.6444 14.7299V22.9496L67.6333 25.6171L68.1316 25.1207L65.2981 22.6393V22.6393ZM70.3103 14.4819L67.7575 12.4969L67.6642 12.5592V21.5847L69.7813 23.4144L70.3103 22.8873V14.4819V14.4819ZM71.3068 22.9185V14.0167L68.6606 11.8763L68.0382 12.3103L70.653 14.3577V23.2283L73.2684 25.5855L73.7353 25.0891L71.3068 22.9185V22.9185ZM82.3276 15.9706H85.5341V22.6082L80.584 26.0819C79.9303 25.3375 78.9959 24.8105 77.8444 24.8105C76.9106 24.8105 76.163 25.1208 75.167 25.9581L75.0115 25.8958L79.2457 19.7546H76.6304V13.9855L81.8298 10.3876C82.4522 10.884 82.9192 11.1627 83.7289 11.1627C84.3518 11.1627 85.2544 11.0385 85.9394 10.4807L86.064 10.5425L82.3276 15.9706V15.9706ZM78.8409 23.9107C77.9378 23.9107 77.222 24.221 76.5991 24.6551V24.7174C77.0973 24.5002 77.5956 24.4383 78.0625 24.4383C78.7783 24.4383 79.8995 24.7797 80.6466 25.6483L81.3629 25.1212C80.7708 24.4383 80.055 23.9107 78.8409 23.9107V23.9107ZM82.1716 18.7H80.428L76.7854 23.9424L76.8167 24.0043C77.7193 23.353 78.5911 22.9189 79.6497 22.9189C80.5835 22.9189 81.5487 23.353 82.1403 24.0973L82.1716 24.0666V18.7ZM77.6264 18.7V13.7069L76.9727 14.1721V19.3829H79.4942L79.9924 18.7004H77.6264V18.7ZM84.1332 12.6206C83.4795 13.0863 83.106 13.3342 82.0161 13.3342C81.3932 13.3342 80.6461 13.0551 80.055 12.4345L79.9928 12.4657V16.994H81.1756L84.1645 12.6513L84.1332 12.6206V12.6206ZM82.639 12.3415C82.0787 12.3415 81.3629 12.0628 80.8955 11.4422L80.1171 11.9693C80.7087 12.683 81.269 12.9928 82.1403 12.9928C82.7007 12.9928 83.5103 12.8374 84.3508 12.1238L84.3817 12.0312C83.8531 12.2489 83.1993 12.3415 82.639 12.3415V12.3415ZM83.1681 17.677H81.1443L80.6774 18.3282H82.5143V24.3453L83.1681 23.88V17.677ZM96.2747 13.2412V23.9731C96.2747 26.9504 93.6285 28.9671 90.6709 29.556L90.6088 29.4318C92.0722 28.7182 92.9127 27.2607 92.9127 25.7097V14.6057L91.2317 13.0863L90.578 13.7995V22.4532L91.5119 23.2906V23.353L88.9904 26.0823L86.0953 23.446V23.3218L87.216 22.143V8.43375L90.5159 4.92933L90.578 4.96004V13.2724L93.2867 10.3569L96.1197 12.9007L96.6487 12.342L96.8981 12.5597L96.2747 13.2412V13.2412ZM87.5578 23.3837V23.3218L88.2115 22.67V7.9062L87.5578 8.58866V22.3597L86.5613 23.3525V23.4144L88.9895 25.5855L89.4251 25.0891L87.5578 23.3837V23.3837ZM93.9087 14.1093L91.885 12.3727L91.4493 12.8379L93.255 14.4512V25.6171C93.255 26.3615 93.0995 27.1365 92.8193 27.571L92.8506 27.6022C93.629 27.0435 93.9092 26.2061 93.9092 25.1207V14.1093H93.9087ZM101.941 26.0819L99.2636 23.6316L98.6407 24.2829L98.3914 24.0345L99.1076 23.2595V14.2958L97.8002 13.0551L97.302 13.6138L97.0526 13.3654L99.8543 10.3257L102.345 12.5592L102.968 11.8767L103.248 12.094L102.47 12.9314V21.9885L103.964 23.3841L104.649 22.6705L104.898 22.9189L101.941 26.0819V26.0819ZM100.104 23.0427V13.7995L98.4852 12.3108L98.0495 12.8072L99.4504 14.1409V23.353L101.941 25.586L102.408 25.0896L100.104 23.0427V23.0427ZM101.038 10.0778L98.4852 7.75175L100.82 5.27033L103.373 7.59637L101.038 10.0778ZM99.4504 7.25491L98.9834 7.72012L101.007 9.61212L101.474 9.08504L99.4504 7.25491V7.25491ZM115.105 26.0819L112.396 23.6316V14.575L110.746 13.0863L109.874 14.0167V22.3909L110.84 23.2902V23.4144L108.287 26.0819L105.391 23.4455V23.3525L106.512 22.1741V14.3577L105.049 13.024L104.457 13.6752L104.209 13.4273L107.042 10.3565L109.874 12.869V13.4892L112.832 10.3565L115.602 12.8379L116.225 12.1866L116.506 12.4345L115.758 13.21V22.0806L117.159 23.3832L117.844 22.6389L118.093 22.8868L115.105 26.0819V26.0819ZM106.886 23.3837V23.3218C106.886 23.3837 107.509 22.7012 107.509 22.7012V13.892L105.734 12.2792L105.298 12.7444L106.855 14.1712V22.3593L105.89 23.352V23.4139L108.287 25.585L108.785 25.058L106.886 23.3837V23.3837ZM113.392 23.1357V14.0479L111.463 12.3108L110.964 12.8379L112.739 14.4196V23.4455L115.073 25.6167L115.572 25.0891L113.392 23.1357V23.1357ZM123.884 31.6648C122.857 30.5483 122.141 30.0831 121.176 30.0831C120.149 30.0831 118.965 30.4865 117.751 31.1377L117.658 31.0452L121.954 26.0823L118.903 23.6633L118.312 24.2838L118.063 24.0666L118.747 23.3222V14.5442L124.663 10.3257L127.962 12.9314L128.523 12.3108L128.772 12.5592L128.118 13.2724V23.8805C128.118 25.4934 129.021 25.4315 129.021 26.6406C129.021 28.0362 126.997 29.3388 123.884 31.6648ZM119.744 23.0734V14.2958L119.09 14.7615V23.353L122.172 25.8344L122.639 25.2757L119.744 23.0734V23.0734ZM121.923 29.2769C120.896 29.2769 119.961 29.5872 119.09 30.1762V30.2385C119.65 30.0212 120.273 29.7421 121.331 29.7421C122.297 29.7421 123.106 30.2692 123.915 31.2001L124.538 30.7037C123.76 29.8045 122.826 29.2769 121.923 29.2769ZM125.721 26.2991C124.943 25.8028 124.756 25.2757 124.756 23.9419V23.3832L119.588 29.3383L119.619 29.369C120.615 28.7801 121.518 28.346 122.982 28.346C124.227 28.346 125.067 28.842 126.033 29.6486C126.624 29.1523 127.029 28.6563 127.029 27.8808C127.029 27.2607 126.499 26.7955 125.721 26.2991V26.2991ZM124.756 14.4819L122.172 12.4662L122.109 12.528V22.0499L124.102 23.6009L124.756 22.8566V14.4819V14.4819ZM126.655 25.8651C125.845 25.2445 125.752 24.7174 125.752 23.3837V13.9548L123.137 11.8456L122.545 12.2489L125.098 14.2647V23.8177C125.098 25.1515 125.161 25.5241 126.001 26.0819C126.748 26.5782 127.34 27.1053 127.34 27.819C127.34 28.0046 127.309 28.3149 127.309 28.3149L127.34 28.346C127.496 28.1907 127.682 27.9427 127.682 27.5394C127.683 26.8574 127.34 26.3922 126.655 25.8651V25.8651ZM134.127 26.0819L131.263 23.8489L130.671 24.5002L130.422 24.2517L131.107 23.5074V12.6518H129.301L129.239 12.5899L130.328 10.9766H131.106V8.89895L134.407 5.39408L134.469 5.45641V10.977H136.96L137.022 11.0394L135.932 12.6522H134.469V22.0504L136.182 23.3534L136.835 22.6398L137.084 22.8878L134.127 26.0819V26.0819ZM132.103 8.37141L131.45 9.08504V10.977H132.103V8.37141ZM132.103 23.1976V12.6518H131.45V23.5697L134.096 25.6171L134.563 25.1207L132.103 23.1976V23.1976ZM147.265 13.5515V22.236L142.003 26.113L138.049 23.1357L137.582 23.6628L137.333 23.4144L137.893 22.7943V14.2958L143.404 10.3565L147.078 13.2105L147.669 12.5899L147.918 12.8379L147.265 13.5515V13.5515ZM138.89 22.4844V14.0167L138.236 14.4819V22.8254L141.972 25.679L142.564 25.245L138.89 22.4844V22.4844ZM143.903 14.575L141.287 12.5276L141.256 12.5587V21.8015L143.903 23.7865V14.575ZM144.899 14.0167L142.003 11.7832L141.412 12.2173L144.245 14.3884V24.035L144.899 23.539V14.0167ZM159.158 26.0819L156.449 23.6316V14.575L154.799 13.0863L153.927 14.0167V22.3909L154.892 23.2902V23.4144L152.339 26.0819L149.444 23.4455V23.3525L150.565 22.1741V14.3577L149.101 13.024L148.51 13.6752L148.261 13.4273L151.094 10.3565L153.927 12.869V13.4892L156.884 10.3565L159.655 12.8379L160.278 12.1866L160.558 12.4345L159.811 13.21V22.0806L161.212 23.3832L161.897 22.6389L162.146 22.8868L159.158 26.0819V26.0819ZM150.938 23.3837V23.3218C150.938 23.3837 151.561 22.7012 151.561 22.7012V13.892L149.786 12.2792L149.351 12.7444L150.908 14.1712V22.3593L149.942 23.352V23.4139L152.34 25.585L152.838 25.058L150.938 23.3837V23.3837ZM157.445 23.1357V14.0479L155.515 12.3108L155.017 12.8379L156.791 14.4196V23.4455L159.126 25.6167L159.624 25.0891L157.445 23.1357V23.1357ZM178.39 26.0819C177.518 25.1515 177.207 24.8412 176.18 24.562V30.6414L176.117 30.6721L174.872 29.5551L171.26 32.8739L171.198 32.8432V24.5002C170.108 24.7481 168.956 25.3068 167.835 26.4229L167.773 26.3922C167.991 24.0038 169.174 22.236 171.197 21.5535V15.5054H170.544C169.641 15.5054 169.143 15.9706 168.707 16.808H168.614C168.52 16.5293 168.458 16.0943 168.458 15.3816C168.458 14.0786 169.423 12.7141 171.011 12.7141H171.197V9.36416L169.921 8.2165L169.298 8.83708L169.08 8.61983L172.225 5.30104L175.151 7.96854V10.791L175.836 10.0466V6.47941H176.178V9.73633L180.319 5.30058L183.837 8.49562V21.988L178.39 26.0819V26.0819ZM171.199 23.3525C169.923 23.6005 169.02 24.376 168.428 25.3994L168.459 25.4618C169.331 24.7174 170.14 24.3764 171.199 24.128V23.3525V23.3525ZM172.195 14.4512H170.483C169.3 14.4512 168.833 15.1955 168.802 16.0641L168.833 16.0948C169.206 15.4742 169.58 15.2574 170.327 15.1648H171.541V32.0686L172.195 31.448V14.4512V14.4512ZM172.195 8.86779L170.638 7.44145L170.14 7.96854L171.541 9.20879V12.7137H172.195V8.86779V8.86779ZM175.838 10.6356L175.153 11.3492V29.3081L175.838 29.9287V10.6356V10.6356ZM179.916 9.92241L178.079 8.24766L176.18 10.295V21.2125C177.799 21.3679 178.92 21.8331 179.885 22.8873L179.916 22.8566V9.92241V9.92241ZM176.18 23.3525V24.1592C177.239 24.4071 177.674 24.7174 178.421 25.5855L179.138 25.0273C178.39 24.0968 177.643 23.539 176.18 23.3525V23.3525ZM180.912 9.4265L178.795 7.47216L178.297 7.99925L180.258 9.7982V24.221L180.912 23.7247V9.4265V9.4265ZM194.704 13.5515V22.236L189.442 26.113L185.488 23.1357L185.021 23.6628L184.772 23.4144L185.332 22.7943V14.2958L190.843 10.3565L194.516 13.2105L195.108 12.5899L195.357 12.8379L194.704 13.5515V13.5515ZM186.329 22.4844V14.0167L185.675 14.4819V22.8254L189.411 25.679L190.003 25.245L186.329 22.4844V22.4844ZM191.341 14.575L188.726 12.5276L188.695 12.5587V21.8015L191.341 23.7865V14.575ZM192.338 14.0167L189.442 11.7832L188.851 12.2173L191.684 14.3884V24.035L192.338 23.539V14.0167ZM201.926 15.9706H205.133V22.6082L200.183 26.0819C199.529 25.3375 198.595 24.8105 197.443 24.8105C196.509 24.8105 195.762 25.1208 194.766 25.9581L194.61 25.8958L198.844 19.7546H196.229V13.9855L201.428 10.3876C202.051 10.884 202.518 11.1627 203.327 11.1627C203.95 11.1627 204.852 11.0385 205.538 10.4807L205.662 10.5425L201.926 15.9706ZM198.439 23.9107C197.537 23.9107 196.82 24.221 196.198 24.6551V24.7174C196.696 24.5002 197.194 24.4383 197.661 24.4383C198.378 24.4383 199.498 24.7797 200.245 25.6483L200.961 25.1212C200.37 24.4383 199.654 23.9107 198.439 23.9107V23.9107ZM201.771 18.7H200.027L196.385 23.9424L196.416 24.0043C197.319 23.353 198.19 22.9189 199.249 22.9189C200.183 22.9189 201.148 23.353 201.74 24.0973L201.77 24.0666V18.7H201.771ZM197.226 18.7V13.7069L196.571 14.1721V19.3829H199.093L199.591 18.7004H197.226V18.7ZM203.732 12.6206C203.078 13.0863 202.705 13.3342 201.614 13.3342C200.992 13.3342 200.244 13.0551 199.653 12.4345L199.591 12.4657V16.994H200.774L203.762 12.6513L203.732 12.6206V12.6206ZM202.237 12.3415C201.677 12.3415 200.961 12.0628 200.494 11.4422L199.716 11.9693C200.308 12.683 200.868 12.9928 201.74 12.9928C202.3 12.9928 203.11 12.8374 203.95 12.1238L203.981 12.0312C203.452 12.2489 202.798 12.3415 202.237 12.3415V12.3415ZM202.767 17.677H200.744L200.277 18.3282H202.113V24.3453L202.767 23.88V17.677ZM210.301 26.0819L207.437 23.8489L206.845 24.5002L206.596 24.2517L207.281 23.5074V12.6518H205.475L205.413 12.5899L206.502 10.9766H207.28V8.89895L210.581 5.39408L210.643 5.45641V10.977H213.134L213.196 11.0394L212.106 12.6522H210.643V22.0504L212.356 23.3534L213.009 22.6398L213.258 22.8878L210.301 26.0819V26.0819ZM208.277 8.37141L207.624 9.08504V10.977H208.277V8.37141ZM208.277 23.1976V12.6518H207.624V23.5697L210.27 25.6171L210.737 25.1207L208.277 23.1976Z" fill="white"/>
</g>
<defs>
<clipPath id="clip0_508_694">
<rect width="213" height="33" fill="white" transform="translate(0.359863)"/>
</clipPath>
</defs>
</svg>