<svg width="198" height="35" viewBox="0 0 198 35" fill="none" xmlns="http://www.w3.org/2000/svg">
<g clip-path="url(#clip0_1045_807)">
<path d="M133.288 2.91667C133.288 4.52749 131.991 5.83333 130.39 5.83333C128.79 5.83333 127.493 4.52749 127.493 2.91667C127.493 1.30584 128.79 0 130.39 0C131.991 0 133.288 1.30584 133.288 2.91667Z" fill="white"/>
<path d="M22.6975 1.70138C22.6975 1.56715 22.8055 1.45833 22.9389 1.45833H27.2853C27.4186 1.45833 27.5267 1.56715 27.5267 1.70138V11.0031C27.5267 11.1961 27.7402 11.3132 27.9051 11.2147C29.4912 10.2666 31.3433 9.72222 33.3219 9.72222C39.1895 9.72222 43.9462 14.5103 43.9462 20.4167V34.2708C43.9462 34.4051 43.8381 34.5139 43.7048 34.5139H39.3584C39.2251 34.5139 39.117 34.4051 39.117 34.2708V20.4167C39.117 17.195 36.5224 14.5833 33.3219 14.5833C30.1213 14.5833 27.5267 17.195 27.5267 20.4167V34.2708C27.5267 34.4051 27.4186 34.5139 27.2853 34.5139H22.9389C22.8055 34.5139 22.6975 34.4051 22.6975 34.2708V1.70138Z" fill="white"/>
<path fill-rule="evenodd" clip-rule="evenodd" d="M59.3999 35C66.3344 35 71.956 29.3414 71.956 22.3611C71.956 15.3809 66.3344 9.72223 59.3999 9.72223C52.4654 9.72223 46.8438 15.3809 46.8438 22.3611C46.8438 29.3414 52.4654 35 59.3999 35ZM59.3999 30.1389C63.6673 30.1389 67.1267 26.6567 67.1267 22.3611C67.1267 18.0655 63.6673 14.5833 59.3999 14.5833C55.1326 14.5833 51.6731 18.0655 51.6731 22.3611C51.6731 26.6567 55.1326 30.1389 59.3999 30.1389Z" fill="white"/>
<path d="M135.702 10.4514C135.702 10.3171 135.811 10.2083 135.944 10.2083H139.324C139.458 10.2083 139.566 10.3171 139.566 10.4514V11.1794C139.566 11.3798 139.795 11.4958 139.96 11.3836C141.501 10.3347 143.36 9.72221 145.361 9.72221C148.147 9.72221 150.658 10.9099 152.421 12.8097C152.52 12.9166 152.69 12.9166 152.788 12.8097C154.552 10.9099 157.062 9.72221 159.849 9.72221C165.183 9.72221 169.507 14.075 169.507 19.4444V34.2708C169.507 34.4051 169.399 34.5139 169.266 34.5139H164.881C164.748 34.5139 164.639 34.4051 164.639 34.2708V19.4444C164.639 16.7598 162.477 14.5833 159.81 14.5833C157.319 14.5833 155.27 16.481 155.009 18.9183C155.007 18.9307 155.007 18.9434 155.008 18.9559C155.016 19.1178 155.02 19.2806 155.02 19.4444V34.4747C155.02 34.4964 155.002 34.5139 154.981 34.5139H150.432C150.298 34.5139 150.19 34.4051 150.19 34.2708V19.4444C150.19 16.7598 148.028 14.5833 145.361 14.5833C142.694 14.5833 140.532 16.7598 140.532 19.4444V34.2708C140.532 34.4051 140.424 34.5139 140.29 34.5139H135.944C135.811 34.5139 135.702 34.4051 135.702 34.2708V10.4514Z" fill="white"/>
<path d="M116.385 1.70138C116.385 1.56715 116.277 1.45833 116.144 1.45833H111.798C111.664 1.45833 111.556 1.56715 111.556 1.70138V24.7917C111.556 30.1611 115.88 34.5139 121.215 34.5139H124.837C124.97 34.5139 125.078 34.4051 125.078 34.2708V29.8958C125.078 29.7616 124.97 29.6528 124.837 29.6528H121.215C118.548 29.6528 116.385 27.4764 116.385 24.7917V14.3403C116.385 14.206 116.494 14.0972 116.627 14.0972H124.837C124.97 14.0972 125.078 13.9884 125.078 13.8542V10.4514C125.078 10.3171 124.97 10.2083 124.837 10.2083H116.627C116.494 10.2083 116.385 10.0995 116.385 9.96527V1.70138Z" fill="white"/>
<path d="M6.75365 10.2083C3.02371 10.2083 0 13.252 0 17.0065C0 20.126 2.10914 22.8452 5.11565 23.6018L13.9959 25.8364C14.8526 26.0521 15.4536 26.8268 15.4536 27.7157C15.4536 28.7856 14.592 29.6528 13.5292 29.6528H0.724324C0.590967 29.6528 0.48286 29.7616 0.48286 29.8958V34.2708C0.48286 34.4051 0.590967 34.5139 0.724324 34.5139H13.5292C17.2591 34.5139 20.2828 31.4702 20.2828 27.7157C20.2828 24.5962 18.1737 21.877 15.1672 21.1205L6.28693 18.8858C5.43025 18.6702 4.82927 17.8954 4.82927 17.0065C4.82927 15.9367 5.69085 15.0694 6.75365 15.0694H19.5584C19.6918 15.0694 19.7999 14.9606 19.7999 14.8264V10.4514C19.7999 10.3171 19.6918 10.2083 19.5584 10.2083H6.75365Z" fill="white"/>
<path d="M74.8536 10.4514C74.8536 10.3171 74.9616 10.2083 75.095 10.2083H79.4414C79.5747 10.2083 79.6828 10.3171 79.6828 10.4514V25.2778C79.6828 27.9625 81.8449 30.1389 84.5121 30.1389C87.1792 30.1389 89.3414 27.9625 89.3414 25.2778V10.4514C89.3414 10.3171 89.4494 10.2083 89.5828 10.2083H93.9292C94.0625 10.2083 94.1706 10.3171 94.1706 10.4514V25.2778C94.1706 27.9625 96.3327 30.1389 99 30.1389C101.667 30.1389 103.829 27.9625 103.829 25.2778V10.4514C103.829 10.3171 103.937 10.2083 104.071 10.2083H108.417C108.55 10.2083 108.659 10.3171 108.659 10.4514V25.2778C108.659 30.6472 104.334 35 99 35C96.2135 35 93.7027 33.8123 91.9399 31.9125C91.8407 31.8057 91.6712 31.8057 91.5721 31.9125C89.8092 33.8123 87.2984 35 84.5121 35C79.1778 35 74.8536 30.6472 74.8536 25.2778V10.4514Z" fill="white"/>
<path fill-rule="evenodd" clip-rule="evenodd" d="M172.405 22.3611C172.405 29.3414 178.026 35 184.961 35H185.927C190.283 35 194.121 32.7672 196.373 29.3766C196.453 29.2566 196.407 29.0944 196.28 29.0299L192.343 27.0488C192.238 26.9958 192.11 27.0272 192.039 27.1208C190.625 28.957 188.413 30.1389 185.927 30.1389H184.961C181.469 30.1389 178.519 27.8079 177.562 24.6075C177.516 24.4555 177.631 24.3056 177.79 24.3056H197.276C197.409 24.3056 197.517 24.1968 197.517 24.0625V22.3611C197.517 15.3809 191.896 9.72223 184.961 9.72223C178.026 9.72223 172.405 15.3809 172.405 22.3611ZM192.133 20.4167C192.291 20.4167 192.406 20.2668 192.36 20.1147C191.403 16.9143 188.453 14.5833 184.961 14.5833C181.469 14.5833 178.519 16.9143 177.562 20.1147C177.516 20.2668 177.631 20.4167 177.79 20.4167H192.133Z" fill="white"/>
<path d="M132.563 10.2083C132.697 10.2083 132.805 10.3171 132.805 10.4514V34.2708C132.805 34.4051 132.697 34.5139 132.563 34.5139H128.217C128.084 34.5139 127.976 34.4051 127.976 34.2708V10.4514C127.976 10.3171 128.084 10.2083 128.217 10.2083H132.563Z" fill="white"/>
</g>
<defs>
<clipPath id="clip0_1045_807">
<rect width="198" height="35" fill="white"/>
</clipPath>
</defs>
</svg>
