<svg width="171" height="45" viewBox="0 0 171 45" fill="none" xmlns="http://www.w3.org/2000/svg">
<g clip-path="url(#clip0_1045_778)">
<path d="M18.8395 0.0162354H0V44.9838L18.8395 0.0162354Z" fill="white"/>
<path d="M32.0947 0.0162354H50.9097V44.9838L32.0947 0.0162354Z" fill="white"/>
<path d="M25.4671 16.5897L37.4582 44.9838H29.591L26.0072 35.9437H17.2318L25.4671 16.5897Z" fill="white"/>
<path d="M81.645 28.6127L83.8665 34.9701C83.9401 35.1294 84.0506 35.2029 84.247 35.2029H88.5181C88.7513 35.2029 88.7881 35.0926 88.7513 34.8599L79.9268 10.3978C79.8899 10.2018 79.8531 10.1651 79.6567 10.1651H74.3547C74.2074 10.1651 74.1215 10.2753 74.1215 10.4346C74.0478 11.7208 73.9374 12.1128 73.7778 12.4925L65.9106 34.8231C65.8738 35.0926 65.9597 35.2029 66.1806 35.2029H69.9976C70.2308 35.2029 70.3413 35.1294 70.4272 34.8966L72.5259 28.6127H81.645ZM73.741 24.4601C74.8947 20.9813 76.4166 16.5225 77.0303 13.9747H77.0671C77.828 16.645 79.6199 21.9368 80.43 24.4601H73.741Z" fill="white"/>
<path d="M100.096 35.5826C102.391 35.5826 104.833 35.1661 107.313 34.1004C107.509 34.0269 107.546 33.9412 107.546 33.7574C107.472 33.0715 107.386 32.0793 107.386 31.3198V8.29096C107.386 8.14396 107.386 8.07047 107.202 8.07047H103.041C102.882 8.07047 102.808 8.14396 102.808 8.33995V16.1428C102.158 16.0693 101.704 16.0326 101.164 16.0326C94.4501 16.0326 90.3262 20.4546 90.3262 25.9791C90.3262 32.3855 94.5605 35.5826 100.096 35.5826V35.5826ZM102.808 31.3198C102.121 31.5403 101.36 31.6261 100.587 31.6261C97.5429 31.6261 95.0515 29.9111 95.0515 25.7463C95.0515 22.0593 97.6166 19.8789 101.016 19.8789C101.704 19.8789 102.305 19.9524 102.808 20.1484V31.3198Z" fill="white"/>
<path d="M120.819 16.0326C115.087 16.0326 111.54 20.4178 111.54 25.8321C111.54 30.6706 114.363 35.5826 120.733 35.5826C126.121 35.5826 129.901 31.626 129.901 25.7096C129.901 20.4913 126.698 16.0326 120.819 16.0326ZM120.586 19.8789C123.826 19.8789 125.201 22.6595 125.201 25.8321C125.201 29.7519 123.176 31.6995 120.819 31.6995C117.91 31.6995 116.192 29.2619 116.192 25.7463C116.192 22.1328 118.021 19.8789 120.586 19.8789V19.8789Z" fill="white"/>
<path d="M134.203 8.07047C134.043 8.07047 133.933 8.14396 133.933 8.33995V34.4067C133.933 34.5169 134.043 34.7129 134.203 34.7496C136.032 35.3131 137.946 35.5826 139.922 35.5826C145.58 35.5826 151.079 32.0793 151.079 25.0236C151.079 19.9156 147.568 16.0326 142.07 16.0326C140.806 16.0326 139.628 16.2286 138.597 16.5715L138.548 8.3767C138.548 8.10721 138.474 8.07047 138.204 8.07047H134.203ZM146.378 25.4891C146.378 29.7151 143.481 31.6995 140.352 31.6995C139.701 31.6995 139.124 31.6628 138.597 31.5036V20.3811C139.198 20.1484 139.922 19.9524 141.26 19.9524C144.279 19.9524 146.378 21.8633 146.378 25.4891Z" fill="white"/>
<path d="M166.606 26.861C168.472 26.861 170.006 26.8243 170.534 26.7018C170.73 26.665 170.804 26.5915 170.84 26.4323C170.951 26.0158 171 25.1461 171 24.0804C171 20.4546 168.815 16.0326 163.17 16.0326C157.401 16.0326 154.198 20.7241 154.198 26.0158C154.198 30.7073 156.677 35.5826 163.624 35.5826C166.226 35.5826 167.907 35.1661 169.355 34.4801C169.503 34.4066 169.576 34.2842 169.576 34.0637V30.8911C169.576 30.7073 169.466 30.6706 169.355 30.7441C167.907 31.3566 166.336 31.6628 164.618 31.6628C160.727 31.6628 158.96 29.5191 158.849 26.861H166.606ZM158.849 23.5782C159.156 21.7163 160.334 19.6951 162.973 19.6951C165.882 19.6951 166.643 22.1328 166.643 23.2352C166.643 23.272 166.643 23.4312 166.643 23.5414C166.483 23.5782 165.992 23.5782 164.544 23.5782H158.849Z" fill="white"/>
</g>
<defs>
<clipPath id="clip0_1045_778">
<rect width="171" height="45" fill="white"/>
</clipPath>
</defs>
</svg>
