<svg width="300" height="61" viewBox="0 0 300 61" fill="none" xmlns="http://www.w3.org/2000/svg">
<g clip-path="url(#clip0_1045_882)">
<path d="M18.1187 25.3322L29.79 13.6253L41.4674 25.3384L48.2586 18.5262L29.79 0L11.3276 18.52L18.1187 25.3322Z" fill="white"/>
<path d="M13.3229 30.1413L6.53186 23.3293L-0.259505 30.1417L6.53153 36.9537L13.3229 30.1413Z" fill="white"/>
<path d="M18.1187 34.9526L29.79 46.6595L41.467 34.9469L48.2619 41.7553L48.2586 41.7591L29.79 60.2848L11.3271 41.7653L11.3176 41.7557L18.1187 34.9526Z" fill="white"/>
<path d="M53.0488 36.9569L59.8402 30.1445L53.0492 23.3325L46.2578 30.1449L53.0488 36.9569Z" fill="white"/>
<path d="M36.6785 30.1388H36.6813L29.79 23.2262L24.6972 28.3347H24.6968L24.112 28.9218L22.9049 30.1326L22.8954 30.1422L22.9049 30.1522L29.79 37.0586L36.6813 30.146L36.6846 30.1422L36.6785 30.1388Z" fill="white"/>
<path d="M70.4272 14.6076H85.1976C88.8635 14.6076 91.6356 15.5513 93.5144 17.4387C94.9683 18.9005 95.695 20.7122 95.695 22.8734V22.9648C95.695 23.878 95.5825 24.6851 95.3561 25.385C95.1302 26.0859 94.8283 26.7168 94.4509 27.2801C94.0745 27.8438 93.6369 28.3385 93.1394 28.7642C92.6415 29.1908 92.1065 29.5565 91.5336 29.8603C93.3763 30.5612 94.8269 31.512 95.8844 32.7148C96.9415 33.918 97.4708 35.5849 97.4708 37.7157V37.8066C97.4708 39.2684 97.1907 40.5468 96.6302 41.6434C96.0696 42.739 95.2664 43.6527 94.2207 44.3836C93.175 45.1144 91.9176 45.662 90.448 46.0277C88.9784 46.3929 87.3498 46.5753 85.5627 46.5753H70.4272V14.6076ZM83.7209 27.5315C85.2693 27.5315 86.4987 27.2658 87.4087 26.7325C88.3191 26.1997 88.7743 25.3393 88.7743 24.1523V24.0609C88.7743 22.9958 88.3794 22.1815 87.5905 21.6178C86.8011 21.0545 85.6628 20.7726 84.1762 20.7726H77.2559V27.5315H83.7209V27.5315ZM85.5878 40.4106C87.1357 40.4106 88.349 40.1297 89.23 39.566C90.11 39.0027 90.5505 38.1271 90.5505 36.9396V36.8486C90.5505 35.783 90.1404 34.9383 89.3211 34.3136C88.5014 33.6904 87.1813 33.378 85.36 33.378H77.2559V40.4111H85.5878V40.4106Z" fill="white"/>
<path d="M106.267 14.6076H113.279V46.5762H106.267V14.6076Z" fill="white"/>
<path d="M123.899 14.6076H130.363L145.297 34.2913V14.6076H152.217V46.5762H146.253L130.819 26.2535V46.5762H123.899V14.6076Z" fill="white"/>
<path d="M173.445 14.3795H179.909L193.568 46.5762H186.238L183.324 39.4065H169.848L166.934 46.5762H159.785L173.445 14.3795ZM180.82 33.1947L176.585 22.8281L172.352 33.1947H180.82Z" fill="white"/>
<path d="M201.137 14.6076H207.603L222.535 34.2913V14.6076H229.456V46.5762H223.492L208.057 26.2535V46.5762H201.137V14.6076V14.6076Z" fill="white"/>
<path d="M254.689 47.1238C252.351 47.1238 250.182 46.6972 248.178 45.8453C246.174 44.9935 244.445 43.8284 242.988 42.3514C241.531 40.8749 240.392 39.1317 239.574 37.1224C238.754 35.1126 238.344 32.9662 238.344 30.6826V30.5916C238.344 28.3081 238.754 26.1697 239.574 24.1752C240.392 22.1811 241.531 20.4303 242.988 18.9233C244.444 17.4163 246.19 16.2284 248.223 15.3608C250.256 14.4933 252.504 14.0595 254.962 14.0595C256.448 14.0595 257.806 14.1819 259.036 14.4247C260.265 14.669 261.38 15.0032 262.383 15.4294C263.385 15.856 264.309 16.3736 265.16 16.9821C266.009 17.5915 266.799 18.261 267.527 18.9919L263.066 24.1523C261.82 23.0262 260.554 22.1425 259.264 21.5035C257.973 20.8645 256.525 20.5446 254.916 20.5446C253.58 20.5446 252.343 20.8036 251.206 21.3212C250.068 21.8387 249.088 22.5539 248.269 23.4671C247.45 24.3804 246.812 25.4388 246.356 26.6411C245.902 27.8443 245.675 29.1304 245.675 30.5002V30.5912C245.675 31.961 245.902 33.2557 246.356 34.4727C246.812 35.6911 247.441 36.7563 248.246 37.6695C249.05 38.5827 250.022 39.3065 251.159 39.8393C252.299 40.3726 253.55 40.6382 254.916 40.6382C256.738 40.6382 258.277 40.3035 259.536 39.6336C260.796 38.9646 262.049 38.0509 263.293 36.8934L267.755 41.4148C266.935 42.2981 266.084 43.0899 265.206 43.7894C264.325 44.4902 263.361 45.0911 262.314 45.5939C261.267 46.0958 260.12 46.4772 258.877 46.7352C257.632 46.9938 256.236 47.1238 254.689 47.1238Z" fill="white"/>
<path d="M276.007 14.6076H300V20.8645H282.927V27.3496H297.952V33.6061H282.927V40.3197H300.229V46.5762H276.007V14.6076Z" fill="white"/>
</g>
<defs>
<clipPath id="clip0_1045_882">
<rect width="300" height="60.2848" fill="white"/>
</clipPath>
</defs>
</svg>
