<svg width="263" height="57" viewBox="0 0 263 57" fill="none" xmlns="http://www.w3.org/2000/svg">
<g clip-path="url(#clip0_1302_747)">
<path d="M49.3048 16.1661C49.3074 18.5314 48.7806 20.8664 47.7624 23.0003C46.7443 25.1342 45.2608 27.0132 43.4214 28.4984L1.11745 4.47577C0.955888 4.38321 0.80611 4.27213 0.670637 4.14339C0.458591 3.93555 0.290301 3.68733 0.175022 3.41385C0.059743 3.13954 0 2.84503 0 2.548C0 1.95478 0.235606 1.38596 0.654649 0.966913C1.07369 0.547029 1.64251 0.311422 2.23574 0.311422H33.4578C37.6608 0.311422 41.6914 1.9817 44.6634 4.95539C47.6354 7.92824 49.3048 11.9613 49.3048 16.1661Z" fill="#CCCCCC"/>
<path d="M49.3048 40.8297C49.3057 42.9123 48.8959 44.9747 48.0999 46.8983C47.3039 48.8227 46.1368 50.5712 44.6651 52.0438C43.1934 53.5163 41.4457 54.6842 39.523 55.4811C37.6003 56.2788 35.5387 56.6886 33.4578 56.6886H2.23574C1.79313 56.6835 1.36231 56.548 0.997121 56.2981C0.632772 56.0482 0.349203 55.6957 0.18512 55.285C0.0201959 54.8744 -0.0193523 54.4242 0.0723659 53.9909C0.163243 53.5584 0.380337 53.162 0.696723 52.8524C0.82294 52.7262 0.964304 52.6159 1.11745 52.5242L17.7664 43.0705L43.418 28.5016C45.2566 29.9868 46.7401 31.8649 47.7591 33.998C48.7781 36.1311 49.3057 38.4661 49.3048 40.8297Z" fill="#999999"/>
<path d="M43.4214 28.4984L17.7664 43.0706L1.11829 52.5243C0.958415 52.6135 0.810319 52.7221 0.678211 52.8491C7.02612 46.3355 10.5754 37.5953 10.5678 28.4984C10.5796 19.3998 7.03117 10.6579 0.681577 4.14342C0.817051 4.27216 0.966829 4.38323 1.12923 4.47579L43.4214 28.4984Z" fill="#AAAAAA"/>
<path d="M83.9777 20.9867C91.2916 20.9867 95.4239 26.8315 95.4239 33.9114C95.4239 40.9906 91.2916 46.7907 83.9777 46.7907C80.1768 46.7907 77.2704 45.2702 75.6641 42.6903L75.0011 46.2092H70.4252V12.2407H76.089V24.785C77.4673 22.6789 80.1768 20.9867 83.9777 20.9867ZM82.8366 41.7992C87.1112 41.7992 89.771 38.3324 89.771 33.9114C89.771 29.397 87.1112 25.974 82.8366 25.974C78.5629 25.974 75.8989 29.3895 75.8989 33.9114C75.8989 38.3358 78.5149 41.7992 82.8366 41.7992Z" fill="white"/>
<path d="M115.326 36.0512V21.5606H120.978V35.7643C120.978 42.1013 118.083 46.7907 110.101 46.7907C102.12 46.7907 99.2249 42.0861 99.2249 35.7643V21.5606H104.878V36.0512C104.878 39.8983 106.681 41.7992 110.094 41.7992C113.508 41.7992 115.326 39.8983 115.326 36.0512Z" fill="white"/>
<path d="M125.502 13.9555C125.483 13.4591 125.567 12.9643 125.749 12.5024C125.931 12.0404 126.206 11.6205 126.558 11.2705C126.909 10.9204 127.33 10.647 127.793 10.4669C128.256 10.2877 128.751 10.206 129.247 10.2279C131.393 10.2279 132.939 11.7745 132.939 13.9741C132.939 16.1736 131.393 17.6167 129.247 17.6167C127.1 17.6167 125.502 16.0996 125.502 13.9555Z" fill="white"/>
<path d="M226.348 13.9556C226.328 13.4608 226.413 12.9677 226.593 12.5066C226.774 12.0463 227.047 11.6273 227.397 11.2781C227.747 10.928 228.165 10.6537 228.626 10.4728C229.087 10.2927 229.58 10.2086 230.074 10.2279C232.22 10.2279 233.767 11.7745 233.767 13.9741C233.767 16.1736 232.22 17.6167 230.074 17.6167C227.927 17.6167 226.348 16.0996 226.348 13.9556Z" fill="white"/>
<path d="M215.471 42.7761C215.452 42.2813 215.535 41.7882 215.715 41.3271C215.895 40.866 216.17 40.447 216.519 40.0969C216.869 39.7469 217.288 39.4726 217.748 39.2925C218.21 39.1116 218.703 39.0291 219.197 39.0485C221.344 39.0485 222.89 40.5951 222.89 42.7761C222.89 44.9572 221.344 46.4221 219.197 46.4221C217.051 46.4221 215.471 44.9235 215.471 42.7761Z" fill="white"/>
<path d="M132.049 21.5572H126.396V46.221H132.049V21.5572Z" fill="white"/>
<path d="M137.702 46.2211V12.2407H143.354V46.2286L137.702 46.2211Z" fill="white"/>
<path d="M166.676 12.2407H172.329V46.2286H167.764L167.101 42.7088C165.536 45.2778 162.63 46.81 158.792 46.81C151.522 46.81 147.389 40.9645 147.389 33.9299C147.389 26.8954 151.522 21.0053 158.792 21.0053C162.637 21.0053 165.298 22.7126 166.676 24.8036V12.2407ZM159.969 25.9816C155.695 25.9816 153.035 29.4038 153.035 33.919C153.035 38.34 155.695 41.8068 159.969 41.8068C164.243 41.8068 166.904 38.34 166.904 33.919C166.911 29.3895 164.299 25.974 159.977 25.974L159.969 25.9816Z" fill="white"/>
<path d="M199.926 39.4734C198.17 43.891 194.083 46.7907 188.717 46.7907C181.265 46.7907 176.42 41.2287 176.42 33.8626C176.42 26.6867 181.361 20.9867 188.676 20.9867C195.991 20.9867 200.79 26.5445 200.79 33.7692C200.813 34.3591 200.762 34.9489 200.637 35.5253H181.972C182.397 39.4246 184.917 41.9414 188.859 41.9414C191.567 41.9414 193.8 40.6102 194.843 38.1422L199.926 39.4734ZM182.066 31.3467H195.178C194.701 27.9245 192.328 25.5945 188.669 25.5945C185.009 25.5945 182.636 27.9725 182.066 31.3467Z" fill="white"/>
<path d="M218.072 26.6421C217.647 26.5824 217.219 26.5504 216.79 26.5445C212.8 26.5445 210.426 28.6364 210.426 33.3889V46.221H204.773V21.5606H209.338L209.997 24.9794C210.899 23.4135 212.978 21.3216 217.267 21.3216C217.502 21.3216 218.072 21.3704 218.072 21.3704V26.6421Z" fill="white"/>
<path d="M232.894 21.5572H227.242V46.221H232.894V21.5572Z" fill="white"/>
<path d="M236.93 33.9114C236.93 26.9737 241.871 20.9867 249.707 20.9867C257.544 20.9867 262.533 26.9737 262.533 33.9114C262.533 40.8492 257.596 46.7907 249.707 46.7907C241.819 46.7907 236.93 40.8492 236.93 33.9114ZM249.707 41.7992C253.843 41.7992 256.88 38.6639 256.88 33.9114C256.88 29.1581 253.843 25.9749 249.707 25.9749C245.571 25.9749 242.575 29.1093 242.575 33.9114C242.575 38.7127 245.623 41.7992 249.707 41.7992Z" fill="white"/>
</g>
<defs>
<clipPath id="clip0_1302_747">
<rect width="262.533" height="57" fill="white"/>
</clipPath>
</defs>
</svg>
