<svg width="286" height="40" viewBox="0 0 286 40" fill="none" xmlns="http://www.w3.org/2000/svg">
<path fill-rule="evenodd" clip-rule="evenodd" d="M0 40H40.3981V0H0V40ZM36.2665 35.9091V4.09091H4.13162V35.9091H36.2665Z" fill="white"/>
<path d="M82.2514 23.5214H77.8999C77.2677 27.4245 74.6272 29.6709 70.9826 29.6709C66.1477 29.6709 62.9866 25.9518 62.9866 20.0232C62.9866 14.1682 66.0362 10.375 70.7223 10.375C74.5156 10.375 77.0074 12.5845 77.7139 16.5614H82.065C81.2098 10.7432 76.4869 6.95045 70.5736 6.95045C63.47 6.95045 58.5607 12.7686 58.5607 20.0232C58.5607 27.4982 63.5815 33.0955 70.6851 33.0955C76.5984 33.0955 81.3585 29.3395 82.2514 23.5214Z" fill="white"/>
<path fill-rule="evenodd" clip-rule="evenodd" d="M102.218 23.5214C102.218 18.55 98.7586 13.9468 93.1056 13.9468C87.4531 13.9468 83.994 18.55 83.994 23.5214C83.994 28.4923 87.4531 33.0955 93.1056 33.0955C98.7586 33.0955 102.218 28.4923 102.218 23.5214ZM88.2712 23.5214C88.2712 19.5809 90.0188 16.9296 93.1056 16.9296C96.23 16.9296 97.9777 19.5809 97.9777 23.5214C97.9777 27.4245 96.23 30.1127 93.1056 30.1127C90.0188 30.1127 88.2712 27.4245 88.2712 23.5214Z" fill="white"/>
<path fill-rule="evenodd" clip-rule="evenodd" d="M118.037 28.8609H117.925C117.033 31.4014 114.876 33.0955 112.049 33.0955C106.991 33.0955 104.239 28.6764 104.239 23.5214C104.239 18.3659 107.103 13.9468 112.049 13.9468C114.876 13.9468 117.033 15.6041 117.925 18.145H118.037V7.31863H122.016V32.7273H118.037V28.8609ZM113.351 16.9295C110.264 16.9295 108.516 19.5809 108.516 23.5214C108.516 27.4245 110.264 30.1127 113.351 30.1127C116.475 30.1127 118.185 27.4245 118.185 23.5214C118.185 19.5809 116.475 16.9295 113.351 16.9295V16.9295Z" fill="white"/>
<path fill-rule="evenodd" clip-rule="evenodd" d="M142.023 27.0195H137.97C137.523 28.4923 136.482 30.1127 134.064 30.1127C131.238 30.1127 129.267 28.1609 129.081 24.81H142.358C142.916 18.4027 139.271 13.9468 133.73 13.9468C128.188 13.9468 125.027 18.4395 125.027 23.5214C125.027 28.6027 128.262 33.0955 133.804 33.0955C138.341 33.0955 141.242 30.665 142.023 27.0195V27.0195ZM133.73 16.9296C136.444 16.9296 138.044 18.8446 138.304 21.8273H129.118C129.378 18.8446 131.015 16.9296 133.73 16.9296Z" fill="white"/>
<path d="M158.05 18.1082C162.885 19.2127 165.303 21.7168 165.303 25.7305C165.303 29.9655 161.137 33.0955 155.186 33.0955C148.381 33.0955 144.699 28.3818 144.29 23.7791H148.641C148.901 27.0932 151.616 29.6709 155.224 29.6709C158.496 29.6709 160.914 28.2714 160.914 25.915C160.914 23.8527 159.352 22.7477 156.042 21.9745L152.323 21.1277C147.302 19.9491 144.811 17.6295 144.811 14.0941C144.811 9.82273 149.05 6.95045 154.22 6.95045C160.765 6.95045 164.112 10.4855 164.558 14.8677H160.207C159.873 11.8482 157.306 10.375 154.294 10.375C151.356 10.375 149.236 11.6273 149.236 13.7995C149.236 15.5305 150.538 16.3405 154.331 17.2245L158.05 18.1082Z" fill="white"/>
<path fill-rule="evenodd" clip-rule="evenodd" d="M180.946 28.8609H181.057V32.7273H185.037V14.3155H181.057V18.145H180.946C180.053 15.6041 177.896 13.9468 175.069 13.9468C170.123 13.9468 167.26 18.3659 167.26 23.5214C167.26 28.6764 170.012 33.0955 175.069 33.0955C177.896 33.0955 180.053 31.4014 180.946 28.8609V28.8609ZM171.536 23.5214C171.536 19.5809 173.322 16.9296 176.334 16.9296C179.346 16.9296 181.206 19.5809 181.206 23.5214C181.206 27.4245 179.346 30.1127 176.334 30.1127C173.359 30.1127 171.536 27.4245 171.536 23.5214Z" fill="white"/>
<path d="M193.143 21.68V32.7273H189.089V14.3155H193.031V17.9241H193.105C193.886 15.3464 195.82 13.9468 198.535 13.9468C202.626 13.9468 204.634 16.7086 204.634 20.7596V32.7273H200.581V21.9377C200.581 18.5132 199.353 16.9664 196.862 16.9664C194.37 16.9664 193.143 18.6605 193.143 21.68V21.68Z" fill="white"/>
<path fill-rule="evenodd" clip-rule="evenodd" d="M221.216 28.8609H221.327V32.7273H225.306V7.31863H221.327V18.145H221.216C220.323 15.6041 218.166 13.9468 215.34 13.9468C210.393 13.9468 207.529 18.3659 207.529 23.5214C207.529 28.6764 210.282 33.0955 215.34 33.0955C218.166 33.0955 220.323 31.4014 221.216 28.8609V28.8609ZM211.807 23.5214C211.807 19.5809 213.554 16.9295 216.641 16.9295C219.766 16.9295 221.476 19.5809 221.476 23.5214C221.476 27.4245 219.766 30.1127 216.641 30.1127C213.554 30.1127 211.807 27.4245 211.807 23.5214Z" fill="white"/>
<path fill-rule="evenodd" clip-rule="evenodd" d="M239.326 13.9468C244.272 13.9468 247.136 18.3659 247.136 23.5214C247.136 28.6764 244.384 33.0955 239.326 33.0955C236.499 33.0955 234.342 31.4014 233.45 28.8609H233.338V32.7273H229.359V7.31863H233.338V18.145H233.45C234.342 15.6041 236.499 13.9468 239.326 13.9468V13.9468ZM238.025 16.9295C234.901 16.9295 233.19 19.5809 233.19 23.5214C233.19 27.4245 234.901 30.1127 238.025 30.1127C241.111 30.1127 242.859 27.4245 242.859 23.5214C242.859 19.5809 241.111 16.9295 238.025 16.9295V16.9295Z" fill="white"/>
<path fill-rule="evenodd" clip-rule="evenodd" d="M267.403 23.5214C267.403 18.55 263.944 13.9468 258.291 13.9468C252.638 13.9468 249.179 18.55 249.179 23.5214C249.179 28.4923 252.638 33.0955 258.291 33.0955C263.944 33.0955 267.403 28.4923 267.403 23.5214ZM253.456 23.5214C253.456 19.5809 255.204 16.9296 258.291 16.9296C261.415 16.9296 263.163 19.5809 263.163 23.5214C263.163 27.4245 261.415 30.1127 258.291 30.1127C255.204 30.1127 253.456 27.4245 253.456 23.5214V23.5214Z" fill="white"/>
<path d="M276.478 25.5832L271.532 32.7273H266.958L274.098 22.8214L267.887 14.3155H272.462L276.478 20.06L280.495 14.3155H285.032L278.859 22.7846L285.962 32.7273H281.424L276.478 25.5832Z" fill="white"/>
</svg>
