<svg width="214" height="44" viewBox="0 0 214 44" fill="none" xmlns="http://www.w3.org/2000/svg">
<path d="M13.268 30.505C10.9497 28.3235 9.55867 25.3195 9.55867 21.8864C9.55867 18.4532 10.914 15.4492 13.1253 13.2677C15.0513 11.3366 15.0513 8.33256 13.1253 6.40141C11.1993 4.47027 8.20333 4.47027 6.27733 6.40141C2.461 10.371 0 15.8426 0 21.8864C0 27.9301 2.461 33.4017 6.42 37.3713C8.346 39.3025 11.342 39.3025 13.268 37.3713C15.0157 35.4402 15.0157 32.4362 13.268 30.505Z" fill="white"/>
<path d="M13.268 13.2677C15.4437 10.9432 18.4753 9.58423 21.8637 9.58423C25.252 9.58423 28.2837 10.9432 30.4593 13.1604C32.3853 15.0916 35.3813 15.0916 37.3073 13.1604C39.2333 11.2293 39.2333 8.22527 37.3073 6.29412C33.3483 2.46758 27.8913 0 21.8637 0C15.836 0 10.379 2.46758 6.41999 6.43716C4.49399 8.36831 4.49399 11.3723 6.41999 13.3035C8.34599 15.0201 11.342 15.0201 13.268 13.2677Z" fill="white"/>
<path d="M30.4593 30.505C28.2837 32.8295 25.252 34.1885 21.8637 34.1885C18.4753 34.1885 15.4437 32.8295 13.268 30.6123C11.342 28.6811 8.34599 28.6811 6.41999 30.6123C4.49399 32.5434 4.49399 35.5475 6.41999 37.4786C10.379 41.3051 15.836 43.7727 21.8637 43.7727C27.8913 43.7727 33.3483 41.3051 37.3073 37.3356C39.2333 35.4044 39.2333 32.4004 37.3073 30.4692C35.3813 28.7527 32.3853 28.7527 30.4593 30.505Z" fill="white"/>
<path d="M9.844 14.6267C12.4836 14.6267 14.6233 12.4812 14.6233 9.83456C14.6233 7.18795 12.4836 5.04245 9.844 5.04245C7.20445 5.04245 5.06467 7.18795 5.06467 9.83456C5.06467 12.4812 7.20445 14.6267 9.844 14.6267Z" fill="white"/>
<path d="M9.844 38.7303C12.4836 38.7303 14.6233 36.5848 14.6233 33.9382C14.6233 31.2916 12.4836 29.146 9.844 29.146C7.20445 29.146 5.06467 31.2916 5.06467 33.9382C5.06467 36.5848 7.20445 38.7303 9.844 38.7303Z" fill="white"/>
<path d="M58.7787 26.3924C60.134 25.2838 60.4193 25.999 61.525 27.0719C62.06 27.6083 63.7007 28.7169 62.6307 29.5394C60.455 31.3275 58.529 32.1501 55.6757 32.1501C49.3983 32.1501 44.8687 27.3579 45.154 21.1711C45.2967 18.3102 46.3667 15.6995 48.578 13.9114C50.611 12.2664 53.072 11.4439 55.6757 11.5869C57.031 11.5869 58.1367 11.873 59.3493 12.2664C60.1697 12.5525 60.99 12.9459 61.6677 13.4823C63.023 14.5909 62.3453 15.1273 61.3823 16.236C61.097 16.5221 60.99 16.7724 60.7047 16.9154C60.1697 17.4519 59.7417 17.881 59.064 17.3088C57.7087 16.3432 55.7827 15.8068 54.142 16.2002C48.685 17.5592 48.9347 27.2864 55.64 27.2864C56.71 27.501 57.9583 27.1076 58.7787 26.3924ZM210.576 31.7567C209.613 31.7567 208.935 31.0772 208.935 30.1116V8.58288C208.935 7.61731 209.613 6.93784 210.576 6.93784H212.359C213.322 6.93784 214 7.61731 214 8.58288V30.1116C214 31.0772 213.322 31.7567 212.359 31.7567H210.576ZM201.16 29.2891C199.234 31.0772 197.344 32.0428 194.597 32.0428C188.998 32.0428 186.394 27.3937 186.394 22.3155V13.5538C186.394 12.5882 187.072 11.9088 188.035 11.9088H189.818C190.781 11.9088 191.459 12.5882 191.459 13.5538V22.3155C191.459 25.1765 192.957 27.3937 196.095 27.3937C199.091 27.3937 201.017 24.7831 201.017 22.0652V13.5538C201.017 12.5882 201.695 11.9088 202.658 11.9088H204.441C205.404 11.9088 206.082 12.5882 206.082 13.5538V30.1116C206.082 31.0772 205.404 31.7567 204.441 31.7567H202.943C201.98 31.7567 201.445 30.9341 201.303 30.1116L201.16 29.2891ZM179.831 12.016H183.255C184.218 12.016 184.896 12.8386 184.896 13.6611V14.7697C184.896 15.7353 184.218 16.4148 183.255 16.4148H179.831V30.1116C179.831 31.0772 179.154 31.7567 178.191 31.7567H176.407C175.444 31.7567 174.767 31.0772 174.767 30.1116V11.3366C174.767 7.22393 177.085 3.93383 181.329 3.54045H183.933C184.896 3.54045 185.574 4.36296 185.574 5.18549V6.29412C185.574 7.25969 184.896 7.93917 183.933 7.93917H182.578C180.545 7.93917 179.724 9.44118 179.724 11.3723V12.0518H179.831V12.016ZM167.384 12.016H171.2C172.163 12.016 172.841 12.6955 172.841 13.6611V14.7697C172.841 15.7353 172.163 16.4148 171.2 16.4148H167.384V24.7473C167.384 26.3924 168.204 27.2149 169.845 27.2149H170.665C171.628 27.2149 172.306 27.8944 172.306 28.86V30.0759C172.306 31.0414 171.628 31.7209 170.665 31.7209H168.347C164.245 31.4348 162.462 28.86 162.462 24.7473V8.58288C162.462 7.61731 163.139 6.93784 164.102 6.93784H165.886C166.849 6.93784 167.526 7.61731 167.526 8.58288V12.016H167.384V12.016ZM112.6 12.016H116.416C117.379 12.016 118.057 12.6955 118.057 13.6611V14.7697C118.057 15.7353 117.379 16.4148 116.416 16.4148H112.6V24.7473C112.6 26.3924 113.42 27.3579 115.061 27.3579H115.881C116.844 27.3579 117.522 28.0374 117.522 29.003V30.1116C117.522 31.0772 116.844 31.7567 115.881 31.7567H114.775C110.281 31.7567 107.678 29.8255 107.678 24.7831V8.61865C107.678 7.65307 108.355 6.97359 109.318 6.97359H111.102C112.065 6.97359 112.742 7.65307 112.742 8.61865V12.0518C112.742 12.016 112.6 12.016 112.6 12.016ZM90.3437 14.3406C92.127 12.5525 94.16 11.5869 96.621 11.5869C102.221 11.5869 105.11 16.0929 105.11 21.3142V30.1116C105.11 31.0772 104.432 31.7567 103.469 31.7567H101.686C100.723 31.7567 100.045 31.0772 100.045 30.1116V21.3499C100.045 18.489 98.547 16.2717 95.4083 16.2717C92.4123 16.2717 90.4863 18.7393 90.4863 21.6003V30.1116C90.4863 31.0772 89.8087 31.7567 88.8457 31.7567H87.0623C86.0993 31.7567 85.4217 31.0772 85.4217 30.1116V13.518C85.4217 12.5525 86.0993 11.873 87.0623 11.873H88.5603C89.5233 11.873 90.0583 12.6955 90.201 13.518L90.3437 14.3406ZM145.27 14.3406C147.054 12.5525 149.087 11.5869 151.548 11.5869C157.147 11.5869 160.036 16.0929 160.036 21.3142V30.1116C160.036 31.0772 159.359 31.7567 158.396 31.7567H156.612C155.649 31.7567 154.972 31.0772 154.972 30.1116V21.3499C154.972 18.489 153.474 16.2717 150.335 16.2717C147.339 16.2717 145.413 18.7393 145.413 21.6003V30.1116C145.413 31.0772 144.735 31.7567 143.772 31.7567H141.989C141.026 31.7567 140.348 31.0772 140.348 30.1116V13.518C140.348 12.5525 141.026 11.873 141.989 11.873H143.487C144.45 11.873 144.985 12.6955 145.128 13.518L145.27 14.3406ZM73.509 11.4796C67.4813 11.4796 63.2727 15.8783 63.2727 21.8864C63.2727 27.8944 67.517 32.2931 73.509 32.2931C79.6437 32.2931 83.888 28.0374 83.888 21.8864C83.888 15.8426 79.5367 11.4796 73.509 11.4796ZM123.549 23.6745C123.942 26.4281 126.688 27.644 129.292 27.644C130.504 27.644 131.895 27.3579 132.965 26.8215C133.108 26.6785 133.358 26.6785 133.5 26.5354C134.178 26.142 134.713 25.999 135.284 26.5354L136.247 27.501L137.067 28.3235C137.887 29.4321 137.352 29.6825 136.389 30.2547C134.356 31.6136 131.753 32.2931 129.292 32.2931C122.729 32.2931 118.342 28.3235 118.342 21.7433C118.342 15.4492 122.729 11.3366 128.864 11.3366C135.284 11.3366 138.85 15.02 138.993 21.493C138.993 23.2811 139.136 23.8175 137.352 23.8175H123.549C123.549 23.8175 123.549 23.6745 123.549 23.6745ZM73.509 16.1287C76.6477 16.1287 78.7163 18.8823 78.7163 21.8864C78.7163 25.0334 76.7903 27.501 73.509 27.501C70.2277 27.501 68.3017 25.0334 68.3017 21.8864C68.3017 18.7393 70.3703 16.1287 73.509 16.1287ZM123.656 19.4188H133.893C133.5 16.8082 131.432 15.8426 128.971 15.8426C126.403 15.8426 124.37 17.0942 123.656 19.4188Z" fill="white"/>
</svg>
