<svg width="300" height="75" viewBox="0 0 300 75" fill="none" xmlns="http://www.w3.org/2000/svg">
<g clip-path="url(#clip0_1045_895)">
<path d="M165 9.375H124.688H82.0313C73.5938 9.375 67.9688 14.0625 67.0313 20.625C66.5625 22.9688 66.5625 25.3125 66.5625 25.3125H176.719C176.719 25.3125 176.719 23.9063 177.187 22.5C178.594 15.4688 175.781 9.375 165 9.375Z" fill="white"/>
<path d="M176.719 31.4062C176.719 31.4062 176.25 33.75 176.25 36.0938C175.781 40.7812 172.031 44.5313 165.469 44.5313H142.031L138.75 65.625H120L124.219 31.4062H176.719Z" fill="white"/>
<path d="M15 9.375H65.1562L63.2812 25.3125H13.125L15 9.375Z" fill="white"/>
<path d="M12.1875 31.4062L7.96875 65.625H58.125L60 50.625H28.5937L29.5313 44.0625H60.9375L62.3438 31.4062H12.1875Z" fill="white"/>
<path d="M182.813 9.375H223.594C230.156 9.375 236.719 12.1875 235.313 22.5C234.844 24.375 234.844 24.8438 234.844 24.8438H180.938L182.813 9.375Z" fill="white"/>
<path d="M176.25 65.625H195L199.219 31.4062L180.469 30.9375L176.25 65.625Z" fill="white"/>
<path d="M211.406 65.625H230.156L234.844 31.4062L216.094 30.9375L211.406 65.625Z" fill="white"/>
<path d="M107.344 31.4062C104.062 31.4062 72.6563 31.4062 66.0938 31.4062C64.6875 40.3125 69.375 44.5313 75.4688 44.5313C78.75 44.5313 100.781 44.5313 100.781 44.5313L99.8437 51.0937H63.2813L61.875 65.625C61.875 65.625 101.719 65.625 103.125 65.625C104.531 65.625 113.906 65.1563 116.719 57.6563C117.656 55.3125 118.594 46.4063 119.062 44.5313C120.469 33.75 112.969 31.4062 107.344 31.4062Z" fill="white"/>
<path d="M277.969 30.4688L279.844 16.4062H264.844L262.969 30.4688H248.906L247.5 44.5312H261.562L259.688 58.5938H274.219L276.094 44.5312H290.156L292.031 30.4688H277.969Z" fill="white"/>
</g>
<defs>
<clipPath id="clip0_1045_895">
<rect width="300" height="75" fill="white"/>
</clipPath>
</defs>
</svg>
