<svg width="114" height="32" viewBox="0 0 114 32" fill="none" xmlns="http://www.w3.org/2000/svg">
<path d="M14.8051 10.3339C15.0606 9.95729 15.3403 9.9094 15.5672 9.9094C15.7941 9.9094 16.1721 9.95729 16.4277 10.3339C18.4417 13.1002 21.7661 18.6108 24.2184 22.6757C25.8176 25.3266 27.0459 27.3626 27.2979 27.6217C28.2439 28.5944 29.5413 27.9882 30.2952 26.8849C31.0374 25.7987 31.2434 25.036 31.2434 24.2223C31.2434 23.6681 20.4907 3.67005 19.4078 2.00546C18.3664 0.404406 18.0272 0 16.2448 0H14.911C13.1339 0 12.8771 0.404406 11.8356 2.00546C10.7528 3.67005 0 23.6681 0 24.2223C0 25.036 0.206045 25.7987 0.948261 26.8849C1.70216 27.9882 2.99955 28.5944 3.94552 27.6217C4.19755 27.3626 5.42585 25.3266 7.02507 22.6757C9.47733 18.6108 12.7911 13.1002 14.8051 10.3339Z" fill="white"/>
<path d="M38.7183 1.7677V26.3183H53.678V21.338H43.8792V16.1473H52.597V11.1671H43.8792V6.74796H53.678V1.7677H38.7183Z" fill="white"/>
<path d="M73.6393 26.3183L67.4323 17.4099L73.2209 9.09781H67.3625L64.5031 13.1662L61.6785 9.09781H55.7504L61.539 17.445L55.3669 26.3183H61.2252L64.4682 21.6537L67.7112 26.3183H73.6393Z" fill="white"/>
<path d="M86.1153 8.74709C83.7441 8.74709 81.8959 9.72912 80.7103 11.5178V9.09782H75.7935V32H80.7103V23.8983C81.8959 25.687 83.7441 26.669 86.1153 26.669C90.544 26.669 94.0659 22.6357 94.0659 17.6905C94.0659 12.7453 90.544 8.74709 86.1153 8.74709ZM84.9995 21.9343C82.5933 21.9343 80.7103 20.1105 80.7103 17.6905C80.7103 15.3056 82.5933 13.4468 84.9995 13.4468C87.3707 13.4468 89.2886 15.3407 89.2886 17.6905C89.2886 20.0754 87.3707 21.9343 84.9995 21.9343Z" fill="white"/>
<path d="M104.791 8.74709C99.7345 8.74709 95.8986 12.605 95.8986 17.7256C95.8986 22.8461 99.7345 26.669 104.791 26.669C109.812 26.669 113.683 22.8461 113.683 17.7256C113.683 12.605 109.812 8.74709 104.791 8.74709ZM104.791 13.4818C107.092 13.4818 108.871 15.2705 108.871 17.7256C108.871 20.1105 107.092 21.9343 104.791 21.9343C102.454 21.9343 100.711 20.1105 100.711 17.7256C100.711 15.2705 102.454 13.4818 104.791 13.4818Z" fill="white"/>
</svg>
