<svg width="143" height="47" viewBox="0 0 143 47" fill="none" xmlns="http://www.w3.org/2000/svg">
<path d="M87.6281 47H99.0204V0H87.6281V47ZM67.6253 33.5997C67.6253 35.25 66.2344 36.6362 64.5785 36.6362H57.9551C56.2992 36.6362 54.9083 35.25 54.9083 33.5997V14.6545H43.516V34.5239C43.516 42.6433 48.7485 46.934 56.4317 46.934H67.5591C74.6461 46.934 78.9514 41.8511 78.9514 34.5239V14.6545H67.5591C67.6253 14.6545 67.6253 33.0056 67.6253 33.5997ZM131.674 14.6545V33.5997C131.674 35.25 130.283 36.6362 128.627 36.6362H122.004C120.348 36.6362 118.957 35.25 118.957 33.5997V14.6545H107.565V34.5239C107.565 42.6433 112.797 46.934 120.48 46.934H131.608C138.695 46.934 143 41.8511 143 34.5239V14.6545H131.674V14.6545ZM22.5197 14.6545H15.2339C12.6508 14.6545 11.3923 15.3146 11.3923 15.3146V0H0V46.934H11.3261V28.0548C11.3261 26.4045 12.717 25.0183 14.3729 25.0183H20.9963C22.6522 25.0183 24.0431 26.4045 24.0431 28.0548V47H35.4354V26.5365C35.4354 17.9551 29.673 14.6545 22.5197 14.6545V14.6545Z" fill="white"/>
</svg>
