<svg width="105" height="37" viewBox="0 0 105 37" fill="none" xmlns="http://www.w3.org/2000/svg">
<path d="M36.2356 0.000868931H30.8136C29.9823 0.000868931 29.3066 0.680824 29.3066 1.5162V35.484C29.3066 36.3209 29.9823 36.9994 30.8136 36.9994H36.2356C37.0669 36.9994 37.7411 36.3209 37.7411 35.484V1.5162C37.7411 0.680824 37.0669 0.000868931 36.2356 0.000868931Z" fill="white"/>
<path d="M73.5549 0.000868931H68.133C67.3017 0.000868931 66.6274 0.680824 66.6274 1.5162V21.6967L51.1928 0.674846C51.1572 0.621048 51.1172 0.570237 51.0757 0.520922L51.0654 0.511954C51.0357 0.477583 51.0061 0.447695 50.975 0.417807C50.9661 0.408841 50.9572 0.401368 50.9468 0.392402C50.9216 0.368492 50.8949 0.346075 50.8668 0.325154C50.8549 0.313198 50.8416 0.304232 50.8283 0.293771C50.8016 0.275838 50.7764 0.256412 50.7497 0.239974C50.7349 0.229513 50.7201 0.220547 50.7038 0.213075C50.6771 0.196636 50.6504 0.180198 50.6238 0.166748C50.6075 0.159276 50.5927 0.150311 50.5764 0.144333C50.5482 0.130883 50.52 0.117431 50.4904 0.10697C50.4726 0.100993 50.4578 0.0950165 50.4415 0.0890389C50.4119 0.0785781 50.3822 0.0681186 50.3511 0.0606465C50.3348 0.0546689 50.317 0.0516798 50.2993 0.0457021C50.2696 0.0397245 50.2415 0.0322518 50.2133 0.0262741C50.1926 0.0232853 50.1703 0.0202949 50.1496 0.0188005C50.1229 0.0128229 50.0962 0.0113285 50.0696 0.00833971C50.0444 0.0053509 50.0192 0.00535336 49.9925 0.00385895C49.9733 0.00385895 49.9584 0.000868931 49.9392 0.000868931H44.5187C43.6874 0.000868931 43.0117 0.680824 43.0117 1.5162V35.484C43.0117 36.3209 43.6874 36.9994 44.5187 36.9994H49.9392C50.772 36.9994 51.4462 36.3209 51.4462 35.484V15.3096L66.9001 36.3583C67.0068 36.5107 67.1387 36.6347 67.2824 36.7334C67.2868 36.7364 67.2928 36.7408 67.2972 36.7453C67.3283 36.7648 67.3595 36.7842 67.3906 36.8021C67.4054 36.8111 67.4187 36.8171 67.4335 36.8245C67.4558 36.838 67.481 36.8499 67.5047 36.8604C67.5299 36.8709 67.5521 36.8813 67.5788 36.8918C67.5936 36.8978 67.6084 36.9037 67.6232 36.9082C67.6588 36.9217 67.6914 36.9321 67.7255 36.9426C67.7329 36.9426 67.7403 36.9456 67.7477 36.9471C67.8707 36.9799 67.9996 36.9994 68.133 36.9994H73.5549C74.3877 36.9994 75.0605 36.3209 75.0605 35.484V1.5162C75.0605 0.680824 74.3877 0.000868931 73.5549 0.000868931Z" fill="white"/>
<path d="M23.1653 28.4938H8.43304V1.51832C8.43304 0.679954 7.75881 9.56299e-07 6.92899 9.56299e-07H1.50553C0.67423 9.56299e-07 0 0.679954 0 1.51832V35.4802V35.4832C0 35.8912 0.161519 36.2603 0.420838 36.5323C0.426765 36.5397 0.432692 36.5472 0.441583 36.5547C0.448992 36.5621 0.456402 36.5681 0.463811 36.5756C0.734984 36.8386 1.09951 37 1.50405 37H1.50553H23.1653C23.9966 37 24.6679 36.3186 24.6679 35.4802V30.0122C24.6679 29.1738 23.9966 28.4938 23.1653 28.4938Z" fill="white"/>
<path d="M103.497 8.50616C104.329 8.50616 105 7.8277 105 6.98784V1.51981C105 0.681448 104.329 9.56299e-07 103.497 9.56299e-07H81.8377H81.8347C81.4287 9.56299e-07 81.0627 0.164384 80.7915 0.428894C80.7856 0.434871 80.7782 0.439357 80.7737 0.445334C80.7648 0.454301 80.7574 0.463267 80.75 0.472233C80.4922 0.744215 80.3322 1.11184 80.3322 1.51832V1.51981V35.4817V35.4832C80.3322 35.8912 80.4937 36.2603 80.753 36.5323C80.7589 36.5397 80.7663 36.5487 80.7737 36.5547C80.7797 36.5621 80.7886 36.5696 80.796 36.5756C81.0657 36.8371 81.4317 37 81.8347 37H81.8377H103.497C104.329 37 105 36.3186 105 35.4817V30.0122C105 29.1753 104.329 28.4938 103.497 28.4938H88.7667V22.7523H103.497C104.329 22.7523 105 22.0724 105 21.234V15.766C105 14.9276 104.329 14.2462 103.497 14.2462H88.7667V8.50616H103.497Z" fill="white"/>
</svg>
