<svg width="200" height="43" viewBox="0 0 200 43" fill="none" xmlns="http://www.w3.org/2000/svg">
<g clip-path="url(#clip0_1045_872)">
<path d="M70.596 24.7667L69.404 28.1667H69.3047C69.106 27.4 68.7417 26.2333 68.1457 24.8333L61.755 8.66668H55.4967V34.4333H59.6358V18.5333C59.6358 17.5333 59.6358 16.4 59.6027 15C59.5695 14.3 59.5033 13.7667 59.4702 13.3667H59.5695C59.7682 14.3667 60 15.1 60.1656 15.5667L67.8477 34.3667H70.7616L78.3775 15.4C78.5431 14.9667 78.7086 14.1 78.8742 13.3667H78.9735C78.8742 15.2667 78.808 16.9667 78.7748 18V34.3333H83.1788V8.60001H77.1523L70.596 24.7667V24.7667ZM87.351 15.8667H91.6556V34.3333H87.351V15.8667ZM89.5364 8.06668C88.808 8.06668 88.2119 8.33335 87.7152 8.80001C87.2186 9.26668 86.9537 9.86668 86.9537 10.6C86.9537 11.3 87.2186 11.9 87.7152 12.3667C88.2119 12.8333 88.808 13.0667 89.5364 13.0667C90.2649 13.0667 90.8941 12.8 91.3576 12.3667C91.8543 11.9 92.1192 11.3 92.1192 10.6C92.1192 9.90001 91.8543 9.30001 91.3576 8.80001C90.9272 8.33335 90.298 8.06668 89.5364 8.06668V8.06668ZM106.921 15.7C106.126 15.5333 105.298 15.4333 104.503 15.4333C102.55 15.4333 100.762 15.8667 99.2715 16.7333C97.7815 17.6 96.5894 18.8 95.8278 20.3C95.0331 21.8333 94.6358 23.6 94.6358 25.6333C94.6358 27.4 95.0331 28.9667 95.7947 30.4C96.5563 31.8 97.6159 32.9333 99.0398 33.7C100.397 34.4667 101.987 34.8667 103.775 34.8667C105.828 34.8667 107.583 34.4333 108.974 33.6333L109.007 33.6V29.6L108.841 29.7333C108.212 30.2 107.483 30.6 106.755 30.8333C105.993 31.1 105.298 31.2333 104.702 31.2333C102.98 31.2333 101.623 30.7333 100.662 29.6333C99.6689 28.5667 99.1722 27.1 99.1722 25.2667C99.1722 23.3667 99.6689 21.8667 100.695 20.7667C101.722 19.6667 103.079 19.1 104.735 19.1C106.126 19.1 107.55 19.5667 108.841 20.5L109.007 20.6333V16.4L108.974 16.3667C108.411 16.1333 107.781 15.8667 106.921 15.7V15.7ZM121.126 15.5667C120.066 15.5667 119.073 15.9 118.212 16.6C117.483 17.2 116.987 18.0667 116.556 19.1H116.523V15.8667H112.219V34.3333H116.523V24.9C116.523 23.3 116.854 21.9667 117.583 21C118.311 20 119.238 19.5 120.364 19.5C120.762 19.5 121.159 19.6 121.656 19.6667C122.119 19.8 122.45 19.9333 122.682 20.1L122.848 20.2333V15.9L122.748 15.8667C122.45 15.6667 121.854 15.5667 121.126 15.5667V15.5667ZM132.848 15.4667C129.834 15.4667 127.417 16.3667 125.728 18.1333C124.007 19.9 123.179 22.3333 123.179 25.4C123.179 28.2667 124.04 30.6 125.695 32.3C127.351 33.9667 129.603 34.8333 132.417 34.8333C135.364 34.8333 137.715 33.9333 139.404 32.1333C141.126 30.3333 141.954 27.9333 141.954 24.9667C141.954 22.0333 141.159 19.7 139.536 18C137.98 16.3 135.695 15.4667 132.848 15.4667V15.4667ZM136.291 29.6667C135.497 30.7 134.238 31.2 132.682 31.2C131.126 31.2 129.868 30.7 128.974 29.6C128.079 28.5667 127.649 27.0667 127.649 25.1667C127.649 23.2 128.113 21.7 128.974 20.6333C129.868 19.5667 131.093 19.0333 132.649 19.0333C134.172 19.0333 135.364 19.5333 136.225 20.5667C137.086 21.6 137.55 23.1 137.55 25.0667C137.483 27.0667 137.119 28.6333 136.291 29.6667V29.6667ZM151.556 23.5333C150.199 22.9667 149.338 22.5333 148.94 22.1667C148.609 21.8333 148.444 21.3667 148.444 20.7667C148.444 20.2667 148.642 19.7667 149.139 19.4333C149.636 19.1 150.199 18.9333 151.027 18.9333C151.755 18.9333 152.517 19.0667 153.245 19.2667C153.974 19.4667 154.636 19.7667 155.166 20.1667L155.331 20.3V16.2333L155.232 16.2C154.735 16 154.073 15.8 153.278 15.6333C152.483 15.5 151.755 15.4333 151.159 15.4333C149.106 15.4333 147.417 15.9333 146.093 17.0333C144.768 18.0667 144.139 19.4667 144.139 21.1C144.139 21.9667 144.272 22.7333 144.57 23.3667C144.868 24 145.298 24.6 145.894 25.1C146.49 25.5667 147.351 26.1 148.543 26.6C149.536 27.0333 150.298 27.3667 150.762 27.6333C151.225 27.9 151.523 28.2 151.755 28.4333C151.921 28.7 152.02 29.0333 152.02 29.4667C152.02 30.7 151.093 31.3 149.205 31.3C148.477 31.3 147.715 31.1667 146.821 30.8667C145.927 30.5667 145.099 30.1333 144.404 29.6333L144.238 29.5V33.7333L144.338 33.7667C144.967 34.0667 145.728 34.2667 146.656 34.5C147.583 34.6667 148.411 34.8 149.139 34.8C151.358 34.8 153.179 34.3 154.47 33.2C155.795 32.1333 156.49 30.7667 156.49 29C156.49 27.7667 156.159 26.6667 155.43 25.8333C154.47 25.0333 153.278 24.2 151.556 23.5333V23.5333ZM167.848 15.4667C164.834 15.4667 162.417 16.3667 160.728 18.1333C159.04 19.9 158.179 22.3333 158.179 25.4C158.179 28.2667 159.04 30.6 160.695 32.3C162.351 33.9667 164.603 34.8333 167.417 34.8333C170.364 34.8333 172.715 33.9333 174.404 32.1333C176.126 30.3333 176.954 27.9333 176.954 24.9667C176.954 22.0333 176.159 19.7 174.536 18C172.98 16.3 170.695 15.4667 167.848 15.4667V15.4667ZM171.258 29.6667C170.464 30.7 169.205 31.2 167.649 31.2C166.06 31.2 164.834 30.7 163.94 29.6C163.046 28.5667 162.616 27.0667 162.616 25.1667C162.616 23.2 163.079 21.7 163.94 20.6333C164.834 19.5667 166.06 19.0333 167.616 19.0333C169.106 19.0333 170.331 19.5333 171.192 20.5667C172.053 21.6 172.517 23.1 172.517 25.0667C172.517 27.0667 172.086 28.6333 171.258 29.6667V29.6667ZM199.967 19.4333V15.8667H195.629V10.4L195.497 10.4333L191.391 11.6667L191.291 11.7V15.8667H184.801V13.5333C184.801 12.4667 185.066 11.6333 185.53 11.1C185.993 10.5667 186.689 10.3 187.55 10.3C188.146 10.3 188.775 10.4333 189.47 10.7333L189.636 10.8333V7.06668L189.536 7.03335C188.94 6.83335 188.146 6.70001 187.119 6.70001C185.828 6.70001 184.702 7.00001 183.676 7.50001C182.649 8.06668 181.887 8.83335 181.325 9.86668C180.762 10.8667 180.464 12 180.464 13.3V15.8667H177.45V19.4H180.464V34.3333H184.801V19.4333H191.291V28.9333C191.291 32.8333 193.113 34.8 196.755 34.8C197.351 34.8 197.98 34.7 198.576 34.6C199.205 34.4667 199.669 34.3 199.934 34.1667L199.967 34.1333V30.5667L199.801 30.7C199.536 30.8667 199.305 31 198.907 31.1C198.576 31.2 198.278 31.2333 198.046 31.2333C197.185 31.2333 196.589 31.0333 196.159 30.5333C195.762 30.0667 195.563 29.3 195.563 28.1667V19.4333H199.967V19.4333Z" fill="white"/>
<path d="M0 0H20.298V20.4333H0V0Z" fill="white"/>
<path d="M22.4172 0H42.7152V20.4333H22.4172V0Z" fill="white"/>
<path d="M0 22.5667H20.298V43H0V22.5667Z" fill="white"/>
<path d="M22.4172 22.5667H42.7152V43H22.4172V22.5667Z" fill="white"/>
</g>
<defs>
<clipPath id="clip0_1045_872">
<rect width="200" height="43" fill="white"/>
</clipPath>
</defs>
</svg>
