<svg width="134" height="40" viewBox="0 0 134 40" fill="none" xmlns="http://www.w3.org/2000/svg">
<path fill-rule="evenodd" clip-rule="evenodd" d="M134 0H121.408L108.815 19.99L121.408 39.98H133.989L121.408 20L134 0Z" fill="white"/>
<path fill-rule="evenodd" clip-rule="evenodd" d="M94.9207 0H107.513L121.408 20L107.513 40H94.9207L108.816 20L94.9207 0Z" fill="#CCCCCC"/>
<path fill-rule="evenodd" clip-rule="evenodd" d="M90.5761 39.98H65.5184V0H90.5761V6.94601H74.7441V15.7241H89.4752V22.6699H74.7441V32.9793H90.5761V39.98ZM34.3589 39.98V0H43.5661V32.9793H61.1785V39.98H34.3589Z" fill="white"/>
<path fill-rule="evenodd" clip-rule="evenodd" d="M25.6167 22.3418C22.6958 24.6209 18.5428 25.7601 13.1573 25.7601H9.20717V39.98H0V18.8041L12.5924 18.8185C20.3025 18.7358 20.7055 14.3879 20.7055 12.8816C20.7055 11.4831 20.7055 7.01429 13.8516 6.94453L0 6.94465V0H13.87C19.1368 0 23.1413 1.04376 25.8839 3.13123C28.6261 5.21875 29.9974 8.33151 29.9974 12.4698C29.9974 16.7727 28.5371 20.0632 25.6167 22.3418V22.3418Z" fill="white"/>
<path fill-rule="evenodd" clip-rule="evenodd" d="M0 4.3978H9.21416V21.5492H0V4.3978Z" fill="white"/>
</svg>
