<svg width="182" height="52" viewBox="0 0 182 52" fill="none" xmlns="http://www.w3.org/2000/svg">
<g clip-path="url(#clip0_1045_766)">
<path d="M39.2577 9.78009C39.2224 9.52359 38.9984 9.3813 38.8124 9.3658C38.6278 9.35031 35.0121 9.29537 35.0121 9.29537C35.0121 9.29537 31.9881 6.35878 31.6893 6.06005C31.3907 5.76132 30.8073 5.8515 30.5804 5.91914C30.5776 5.92055 30.0126 6.09528 29.0614 6.38978C28.9022 5.87405 28.6682 5.23995 28.3343 4.60303C27.2578 2.54856 25.681 1.46214 23.7758 1.45933C23.773 1.45933 23.7716 1.45933 23.7688 1.45933C23.6363 1.45933 23.5053 1.47201 23.3729 1.48327C23.3165 1.41564 23.2601 1.34942 23.2009 1.28459C22.3709 0.396857 21.3071 -0.0357381 20.0319 0.00230769C17.5715 0.072763 15.1212 1.84965 13.1343 5.00604C11.7365 7.22679 10.6726 10.0169 10.371 12.177C7.54576 13.052 5.57019 13.6635 5.52651 13.6777C4.10049 14.1257 4.05541 14.1694 3.8694 15.5138C3.73131 16.5297 0 45.3826 0 45.3826L31.2695 50.7907L44.8222 47.4215C44.8222 47.4215 39.2929 10.0366 39.2577 9.78009ZM27.4959 6.87451C26.7758 7.09715 25.9571 7.35079 25.0694 7.62557C25.0511 6.37992 24.9031 4.64672 24.3226 3.14884C26.1896 3.50253 27.1083 5.61478 27.4959 6.87451ZM23.4334 8.13284C21.7946 8.64009 20.0065 9.19388 18.2127 9.74911C18.7171 7.8172 19.6739 5.89378 20.8492 4.63263C21.286 4.1634 21.8975 3.64062 22.6218 3.34188C23.3023 4.76226 23.4503 6.77306 23.4334 8.13284ZM20.0811 1.63968C20.6589 1.627 21.145 1.75383 21.5607 2.02719C20.8956 2.37243 20.253 2.86843 19.65 3.51521C18.0872 5.19205 16.8895 7.79466 16.4118 10.3057C14.9224 10.7664 13.4654 11.2188 12.1239 11.6331C12.9708 7.68053 16.2836 1.7496 20.0811 1.63968Z" fill="#CCCCCC"/>
<path d="M38.8137 9.36724C38.6292 9.35175 35.0134 9.29681 35.0134 9.29681C35.0134 9.29681 31.9895 6.36021 31.6908 6.06149C31.5795 5.95016 31.4287 5.89239 31.2708 5.86844L31.2723 50.7893L44.8236 47.4216C44.8236 47.4216 39.2943 10.038 39.2591 9.78152C39.2238 9.52503 38.9984 9.38273 38.8137 9.36724Z" fill="#999999"/>
<path d="M23.7589 16.3353L22.185 22.2239C22.185 22.2239 20.4292 21.425 18.348 21.556C15.2958 21.7491 15.2634 23.6739 15.2944 24.1572C15.4607 26.7908 22.3892 27.3658 22.7782 33.5348C23.084 38.3878 20.2037 41.7076 16.0539 41.9697C11.0727 42.2839 8.3306 39.346 8.3306 39.346L9.38604 34.8566C9.38604 34.8566 12.1464 36.9392 14.3559 36.7997C15.7989 36.7081 16.3146 35.5344 16.2624 34.7044C16.0455 31.269 10.4034 31.4719 10.0469 25.827C9.74673 21.077 12.8666 16.2634 19.75 15.8294C22.4019 15.6589 23.7589 16.3353 23.7589 16.3353Z" fill="white"/>
<path d="M62.6691 28.666C61.1108 27.8204 60.3099 27.1077 60.3099 26.1279C60.3099 24.8813 61.4224 24.0804 63.1597 24.0804C65.182 24.0804 66.9877 24.926 66.9877 24.926L68.4118 20.5626C68.4118 20.5626 67.1023 19.5382 63.2477 19.5382C57.8836 19.5382 54.166 22.6101 54.166 26.9287C54.166 29.3773 55.9018 31.2474 58.2176 32.5821C60.0877 33.6499 60.7557 34.4074 60.7557 35.5199C60.7557 36.6772 59.8208 37.6121 58.0849 37.6121C55.4979 37.6121 53.0549 36.276 53.0549 36.276L51.5413 40.6393C51.5413 40.6393 53.7984 42.153 57.5957 42.153C63.1163 42.153 67.0786 39.4374 67.0786 34.5401C67.0772 31.9154 65.0744 30.0454 62.6691 28.666Z" fill="white"/>
<path d="M84.6622 19.4948C81.9464 19.4948 79.8095 20.7863 78.1631 22.7443L78.0736 22.6995L80.4327 10.3684H74.2888L68.3238 41.7532H74.4677L76.5153 31.0252C77.3161 26.9735 79.4083 24.4815 81.3678 24.4815C82.7472 24.4815 83.2825 25.4165 83.2825 26.7526C83.2825 27.5982 83.193 28.6227 83.0155 29.4682L80.7011 41.7547H86.8453L89.2486 29.0671C89.5161 27.731 89.6947 26.1294 89.6947 25.0601C89.6921 21.5871 87.8671 19.4948 84.6622 19.4948Z" fill="white"/>
<path d="M103.582 19.4948C96.1908 19.4948 91.2954 26.1727 91.2954 33.6066C91.2954 38.3697 94.2328 42.1978 99.7538 42.1978C107.01 42.1978 111.907 35.6988 111.907 28.086C111.907 23.6793 109.324 19.4948 103.582 19.4948ZM100.555 37.4807C98.462 37.4807 97.5715 35.7002 97.5715 33.4738C97.5715 29.9574 99.3974 24.2146 102.736 24.2146C104.917 24.2146 105.629 26.0846 105.629 27.9099C105.629 31.6932 103.805 37.4807 100.555 37.4807Z" fill="white"/>
<path d="M127.622 19.4948C123.475 19.4948 121.121 23.1454 121.121 23.1454H121.033L121.39 19.8512H115.959C115.692 22.0776 115.201 25.4598 114.712 27.9979L110.438 50.4786H116.582L118.273 41.3969H118.408C118.408 41.3969 119.668 42.1977 122.014 42.1977C129.225 42.1977 133.944 34.8085 133.944 27.3285C133.944 23.1902 132.118 19.4948 127.622 19.4948ZM121.745 37.5688C120.15 37.5688 119.207 36.6785 119.207 36.6785L120.231 30.9358C120.944 27.1077 122.946 24.5696 125.084 24.5696C126.954 24.5696 127.532 26.3054 127.532 27.9532C127.532 31.9154 125.173 37.5688 121.745 37.5688Z" fill="white"/>
<path d="M142.713 10.6801C140.755 10.6801 139.197 12.2384 139.197 14.2412C139.197 16.0665 140.354 17.3132 142.09 17.3132H142.179C144.094 17.3132 145.741 16.0217 145.785 13.7521C145.785 11.9714 144.583 10.6801 142.713 10.6801Z" fill="white"/>
<path d="M134.122 41.7533H140.264L144.45 19.9854H138.262L134.122 41.7533Z" fill="white"/>
<path d="M160.076 19.9407H155.802L156.024 18.9162C156.38 16.824 157.627 14.954 159.675 14.954C160.768 14.954 161.633 15.2656 161.633 15.2656L162.835 10.4579C162.835 10.4579 161.767 9.92398 159.495 9.92398C157.314 9.92398 155.134 10.5473 153.486 11.9714C151.394 13.7521 150.414 16.3334 149.925 18.9162L149.748 19.9407H146.898L146.007 24.571H148.857L145.608 41.7547H151.752L155.001 24.571H159.231L160.076 19.9407Z" fill="white"/>
<path d="M174.855 19.9854C174.855 19.9854 171.015 29.6611 169.29 34.9427H169.201C169.084 33.2418 167.687 19.9854 167.687 19.9854H161.232L164.928 39.9727C165.018 40.4172 164.973 40.6855 164.795 40.9971C164.081 42.3766 162.88 43.7127 161.455 44.6925C160.298 45.538 159.007 46.0719 157.984 46.4283L159.675 51.6372C160.922 51.3703 163.503 50.3458 165.684 48.2983C168.49 45.6722 171.071 41.6205 173.741 36.0999L181.265 19.984H174.855V19.9854Z" fill="white"/>
</g>
<defs>
<clipPath id="clip0_1045_766">
<rect width="182" height="51.6372" fill="white"/>
</clipPath>
</defs>
</svg>
