<svg width="211" height="45" viewBox="0 0 211 45" fill="none" xmlns="http://www.w3.org/2000/svg">
<g clip-path="url(#clip0_1045_647)">
<path d="M209.814 30.0696C209.159 30.0696 208.628 30.6025 208.628 31.2587C208.628 31.9149 209.159 32.4478 209.814 32.4478C210.468 32.4478 211 31.9149 211 31.2587C211 30.6025 210.468 30.0696 209.814 30.0696ZM209.814 32.2592C209.262 32.2592 208.816 31.8092 208.816 31.2587C208.816 30.7056 209.265 30.2581 209.814 30.2581C210.366 30.2581 210.814 30.7081 210.814 31.2587C210.814 31.8092 210.366 32.2592 209.814 32.2592ZM210.2 31.055C210.2 30.8388 210.047 30.7106 209.821 30.7106H209.443V31.7941H209.628V31.402H209.831L210.027 31.7941H210.227L210.012 31.3618C210.127 31.309 210.2 31.2033 210.2 31.055ZM209.814 31.2335H209.631V30.8741H209.814C209.939 30.8741 210.014 30.9369 210.014 31.0526C210.014 31.1707 209.937 31.2335 209.814 31.2335ZM66.903 18.0352V15.1592H62.5049V32.2693H66.903V22.0098C66.903 20.152 68.0916 19.2394 69.9447 19.2394H72.3519V15.1593H70.2957C68.6859 15.1592 67.2867 16.0014 66.903 18.0352ZM76.4717 8.39162C74.9672 8.39162 73.8138 9.58326 73.8138 11.0916C73.8138 12.5648 74.9672 13.7565 76.4717 13.7565C77.9762 13.7565 79.1297 12.5648 79.1297 11.0916C79.1297 9.58319 77.9762 8.39162 76.4717 8.39162ZM74.2776 32.2693H78.6658V15.1592H74.2776V32.2693ZM99.5684 23.7142C99.5684 28.5988 95.6191 32.5584 90.747 32.5584C88.781 32.5584 86.9982 31.9123 85.5689 30.8212V37.2923H81.1808V15.1592H85.5689V16.6072C86.9982 15.5162 88.781 14.8701 90.747 14.8701C95.6191 14.8701 99.5684 18.8296 99.5684 23.7142ZM95.1527 23.7142C95.1527 21.062 93.0063 18.91 90.3608 18.91C87.7154 18.91 85.569 21.062 85.569 23.7142C85.569 26.3665 87.7154 28.5184 90.3608 28.5184C93.0063 28.5184 95.1527 26.369 95.1527 23.7142ZM175.837 22.2134L173.277 21.5095C171.592 21.0695 170.937 20.5517 170.937 19.6592C170.937 18.7894 171.86 18.181 173.179 18.181C174.435 18.181 175.421 19.0056 175.421 20.0614V20.1594H179.465V20.0614C179.465 16.9566 176.94 14.87 173.179 14.87C169.456 14.87 166.75 16.9541 166.75 19.8275C166.75 22.0625 168.227 23.7468 170.804 24.4457L173.257 25.117C175.12 25.6348 175.812 26.2081 175.812 27.2363C175.812 28.3198 174.812 29.0489 173.322 29.0489C171.77 29.0489 170.724 28.0633 170.724 26.6002V26.5022H166.431V26.6002C166.431 30.1097 169.25 32.5633 173.287 32.5633C177.176 32.5633 180 30.1676 180 26.8692C180 25.2502 179.277 23.1335 175.837 22.2134ZM115.135 15.1592H119.523V32.2693H115.135V30.8212C113.706 31.9123 111.923 32.5584 109.957 32.5584C105.085 32.5584 101.136 28.5988 101.136 23.7142C101.136 18.8295 105.085 14.87 109.957 14.87C111.923 14.87 113.706 15.5161 115.135 16.6071V15.1592ZM115.135 23.7142C115.135 21.0595 112.989 18.91 110.343 18.91C107.698 18.91 105.551 21.062 105.551 23.7142C105.551 26.3665 107.698 28.5184 110.343 28.5184C112.991 28.5184 115.135 26.369 115.135 23.7142ZM135.368 9.07037H139.756V32.2718H135.368V30.8237C133.939 31.9148 132.156 32.5609 130.19 32.5609C125.318 32.5609 121.369 28.6014 121.369 23.7167C121.369 18.832 125.318 14.8725 130.19 14.8725C132.156 14.8725 133.939 15.5186 135.368 16.6097V9.07037ZM135.368 23.7142C135.368 21.062 133.222 18.91 130.576 18.91C127.931 18.91 125.785 21.062 125.785 23.7142C125.785 26.3665 127.928 28.5184 130.576 28.5184C133.222 28.5184 135.368 26.369 135.368 23.7142ZM160.13 32.2693H164.518V15.1592H160.13V32.2693ZM162.324 8.39162C160.82 8.39162 159.666 9.58326 159.666 11.0916C159.666 12.5648 160.82 13.7565 162.324 13.7565C163.829 13.7565 164.982 12.5648 164.982 11.0916C164.982 9.58319 163.829 8.39162 162.324 8.39162ZM198.966 23.7142C198.966 28.5988 195.017 32.5584 190.145 32.5584C185.273 32.5584 181.323 28.5989 181.323 23.7142C181.323 18.8295 185.273 14.8701 190.145 14.8701C195.017 14.8701 198.966 18.8296 198.966 23.7142ZM194.937 23.7142C194.937 21.062 192.79 18.91 190.145 18.91C187.499 18.91 185.353 21.062 185.353 23.7142C185.353 26.3665 187.497 28.5184 190.145 28.5184C192.79 28.5184 194.937 26.369 194.937 23.7142ZM64.6562 9.07037H47.8233V12.9947H54.0545V32.2693H58.4276V12.9947H64.6588V9.07037H64.6562ZM149.784 27.5832L145.88 15.1593H141.271L147.126 32.2693H152.407L158.297 15.1593H153.688L149.784 27.5832ZM205.396 18.0352V15.1592H200.997V32.2693H205.396V22.0098C205.396 20.152 206.584 19.2394 208.437 19.2394H210.844V15.1593H208.788C207.178 15.1592 205.782 16.0014 205.396 18.0352Z" fill="white"/>
<path d="M22.4425 45C34.837 45 44.8848 34.9264 44.8848 22.5C44.8848 10.0736 34.837 0 22.4425 0C10.048 0 0.000213623 10.0736 0.000213623 22.5C0.000213623 34.9264 10.048 45 22.4425 45Z" fill="#999999"/>
<path d="M36.3038 18.1106L39.0119 15.1567H33.0064C29.9999 13.0977 26.369 11.8985 22.4422 11.8985C18.5204 11.8985 14.8997 13.1003 11.8981 15.1567H5.87759L8.58572 18.1106C6.92577 19.629 5.88514 21.8162 5.88514 24.2447C5.88514 28.8277 9.5913 32.5433 14.1625 32.5433C16.334 32.5433 18.3124 31.7036 19.7894 30.331L22.4423 33.2271L25.0953 30.3335C26.5722 31.7062 28.5481 32.5433 30.7196 32.5433C35.2908 32.5433 39.0019 28.8277 39.0019 24.2447C39.0044 21.8137 37.9638 19.6265 36.3038 18.1106ZM14.165 29.8609C11.0706 29.8609 8.56319 27.347 8.56319 24.2447C8.56319 21.1424 11.0707 18.6285 14.165 18.6285C17.2592 18.6285 19.7667 21.1424 19.7667 24.2447C19.7667 27.347 17.2592 29.8609 14.165 29.8609ZM22.4448 24.0813C22.4448 20.3857 19.7643 17.2131 16.2261 15.8581C18.1393 15.0561 20.2381 14.6111 22.4422 14.6111C24.6463 14.6111 26.7476 15.0561 28.6609 15.8581C25.1253 17.2156 22.4448 20.3858 22.4448 24.0813ZM30.7221 29.8609C27.6278 29.8609 25.1203 27.347 25.1203 24.2447C25.1203 21.1424 27.6278 18.6285 30.7221 18.6285C33.8164 18.6285 36.3239 21.1424 36.3239 24.2447C36.3239 27.347 33.8164 29.8609 30.7221 29.8609ZM30.7221 21.2983C29.0997 21.2983 27.7858 22.6156 27.7858 24.2422C27.7858 25.8687 29.0997 27.186 30.7221 27.186C32.3444 27.186 33.6584 25.8687 33.6584 24.2422C33.6583 22.6181 32.3444 21.2983 30.7221 21.2983ZM17.1012 24.2447C17.1012 25.8712 15.7873 27.1885 14.165 27.1885C12.5426 27.1885 11.2287 25.8712 11.2287 24.2447C11.2287 22.6181 12.5426 21.3008 14.165 21.3008C15.7873 21.2983 17.1012 22.6181 17.1012 24.2447Z" fill="white"/>
</g>
<defs>
<clipPath id="clip0_1045_647">
<rect width="211" height="45" fill="white"/>
</clipPath>
</defs>
</svg>
