<svg width="177" height="54" viewBox="0 0 177 54" fill="none" xmlns="http://www.w3.org/2000/svg">
<g clip-path="url(#clip0_1045_669)">
<path d="M25.488 20.001C25.488 23.01 23.01 25.488 20.001 25.488C16.992 25.488 14.514 23.01 14.514 20.001C14.514 16.992 16.992 14.514 20.001 14.514C23.01 14.514 25.488 16.992 25.488 20.001V20.001ZM20.001 27.612C16.992 27.612 14.514 30.09 14.514 33.099C14.514 36.108 16.992 38.586 20.001 38.586C23.01 38.586 25.488 36.108 25.488 33.099C25.488 30.09 23.01 27.612 20.001 27.612V27.612ZM53.1 26.55C53.1 41.241 41.241 53.1 26.55 53.1C11.859 53.1 0 41.241 0 26.55C0 11.859 11.859 0 26.55 0C41.241 0 53.1 11.859 53.1 26.55ZM46.02 26.55C46.02 15.753 37.347 7.08 26.55 7.08C15.753 7.08 7.08 15.753 7.08 26.55C7.08 37.347 15.753 46.02 26.55 46.02C37.347 46.02 46.02 37.347 46.02 26.55ZM33.099 27.612C30.09 27.612 27.612 30.09 27.612 33.099C27.612 36.108 30.09 38.586 33.099 38.586C36.108 38.586 38.586 36.108 38.586 33.099C38.586 30.09 36.108 27.612 33.099 27.612ZM33.099 14.514C30.09 14.514 27.612 16.992 27.612 20.001C27.612 23.01 30.09 25.488 33.099 25.488C36.108 25.488 38.586 23.01 38.586 20.001C38.586 16.992 36.108 14.514 33.099 14.514ZM124.431 10.443C124.608 10.443 124.785 10.62 124.962 10.797V16.461C124.962 16.815 124.608 16.992 124.431 16.992H115.05C114.696 16.992 114.519 16.638 114.519 16.461V10.974C114.519 10.62 114.873 10.443 115.05 10.443H124.431V10.443ZM124.254 18.408H106.2C106.023 18.408 105.669 18.585 105.669 18.939L103.368 27.789L103.191 28.32L100.359 18.939C100.359 18.762 100.005 18.408 99.828 18.408H92.748C92.571 18.408 92.217 18.585 92.217 18.939L89.562 27.789L89.385 28.32L89.208 27.789L88.146 23.364L87.084 18.939C87.084 18.762 86.73 18.408 86.553 18.408H72.393V10.797C72.393 10.62 72.039 10.266 71.685 10.443L62.835 13.275C62.481 13.275 62.304 13.452 62.304 13.806V18.585H60.003C59.826 18.585 59.472 18.762 59.472 19.116V25.842C59.472 26.019 59.649 26.373 60.003 26.373H62.304V34.692C62.304 40.533 65.49 43.188 71.331 43.188C73.809 43.188 76.11 42.657 77.703 41.772V34.692C77.703 34.338 77.349 34.161 77.172 34.338C76.287 34.692 75.402 34.869 74.694 34.869C73.101 34.869 72.216 34.161 72.216 32.391V26.373H77.349C77.526 26.373 77.88 26.196 77.88 25.842V20.178L84.606 42.48C84.606 42.657 84.96 43.011 85.137 43.011H92.571C92.748 43.011 93.102 42.834 93.102 42.48L96.288 32.568L97.881 37.701L99.297 42.48C99.297 42.657 99.651 43.011 99.828 43.011H107.262C107.439 43.011 107.793 42.834 107.793 42.48L114.519 20.178V42.48C114.519 42.657 114.696 43.011 115.05 43.011H124.077C124.254 43.011 124.608 42.834 124.608 42.48V18.939C124.608 18.762 124.431 18.408 124.254 18.408V18.408ZM136.113 10.443H127.086C126.909 10.443 126.555 10.62 126.555 10.974V42.303C126.555 42.48 126.732 42.834 127.086 42.834H136.113C136.29 42.834 136.644 42.657 136.644 42.303V10.797C136.644 10.62 136.467 10.443 136.113 10.443V10.443ZM148.149 10.443H138.768C138.591 10.443 138.237 10.62 138.237 10.974V16.461C138.237 16.638 138.414 16.992 138.768 16.992H148.149C148.326 16.992 148.68 16.815 148.68 16.461V10.797C148.68 10.62 148.503 10.443 148.149 10.443V10.443ZM147.972 18.408H138.945C138.768 18.408 138.414 18.585 138.414 18.939V42.126C138.414 42.303 138.591 42.657 138.945 42.657H147.972C148.149 42.657 148.503 42.48 148.503 42.126V18.939C148.503 18.762 148.326 18.408 147.972 18.408ZM176.469 30.444C176.469 37.17 170.805 43.011 162.84 43.011C155.052 43.011 149.388 37.17 149.388 30.444C149.388 23.718 155.052 17.877 163.017 17.877C170.805 17.877 176.469 23.718 176.469 30.444V30.444ZM166.911 30.621C166.911 28.143 165.141 26.196 163.017 26.373C160.716 26.373 159.123 28.32 159.123 30.621C159.123 32.922 160.893 34.869 163.017 34.869C165.318 34.869 166.911 32.922 166.911 30.621Z" fill="white"/>
</g>
<defs>
<clipPath id="clip0_1045_669">
<rect width="177" height="53.1" fill="white"/>
</clipPath>
</defs>
</svg>
