<svg width="65" height="65" viewBox="0 0 65 65" fill="none" xmlns="http://www.w3.org/2000/svg">
<g clip-path="url(#clip0_1045_658)">
<path d="M63.8293 1.30571L49.0221 1.26089L48.7978 2.29286C48.7978 2.29286 52.2977 3.99798 53.2848 4.89533C54.272 5.79275 54.4482 5.96368 54.4482 5.96368L49.7507 10.5681C51.5112 11.9936 53.0898 13.5934 54.5107 15.3443L58.9833 10.6836L62.9319 15.9783H63.8293V1.30571Z" fill="white"/>
<path d="M59.4424 14.2423L56.0818 17.572L56.0805 17.5728C58.7698 21.8099 60.3505 26.8238 60.4055 32.2111C60.5628 47.6123 48.2052 60.225 32.804 60.3824C17.4027 60.5397 4.79001 48.1821 4.63267 32.7808C4.47533 17.3796 16.833 4.76687 32.2342 4.60959C37.8843 4.55184 43.1579 6.18008 47.5802 9.02342L51.0296 5.75062C45.631 1.99853 39.2283 -0.0231253 32.5249 -0.0231253C32.4127 -0.0231253 32.2994 -0.0226617 32.1868 -0.0213973C23.5011 0.0673342 15.3699 3.53312 9.2909 9.73752C3.212 15.9421 -0.0870497 24.1423 0.00174692 32.8282C0.0898117 41.4551 3.51582 49.547 9.64862 55.6138C15.7769 61.6763 23.897 65.015 32.5132 65.015C32.6254 65.015 32.7387 65.0145 32.8513 65.0133C50.7815 64.8301 65.2198 50.094 65.0366 32.1639C64.9703 25.6763 63.0158 19.4912 59.4424 14.2423Z" fill="white"/>
<path d="M15.0459 30.2034H16.1941L14.274 33.754L12.3279 30.2042L13.7235 30.2034L13.7232 29.3202H7.95481L7.95367 30.2042H9.27389L11.9566 35.0782L15.063 35.0806L17.6999 30.2034L19.0217 30.2042V29.3202H15.0459V30.2034Z" fill="white"/>
<path d="M34.5474 34.1864H33.3176V30.2028H34.6439V29.3209L29.3183 29.3202L29.3189 30.2028H30.6592L30.661 34.1877H29.3184V35.0806L37.3126 35.08V32.4125H36.434C36.434 33.4339 35.687 34.1864 34.5474 34.1864Z" fill="white"/>
<path d="M23.7594 29.2051C21.115 29.2051 19.7104 30.5243 19.7104 32.1797C19.7104 33.858 21.0628 35.1959 23.7747 35.1959C26.4857 35.1959 27.8237 33.858 27.8237 32.1797C27.8237 30.5243 26.4043 29.2051 23.7594 29.2051ZM23.7301 34.2898C22.7644 34.2723 22.3399 33.205 22.3584 32.1444C22.3776 31.0461 22.9032 30.0883 23.8078 30.104C24.7124 30.1199 25.1901 31.096 25.1706 32.1938C25.1523 33.2296 24.7247 34.3078 23.7301 34.2898Z" fill="white"/>
<path d="M44.1525 30.2034H45.3008L43.3807 33.754L41.4347 30.2042L42.8303 30.2034L42.8299 29.3202H37.0615L37.0603 30.2042H38.3806L41.0633 35.0782L44.1696 35.0806L46.8066 30.2034L48.1283 30.2042V29.3202H44.1525V30.2034Z" fill="white"/>
<path d="M52.8513 29.1787C50.1852 29.1787 48.7692 30.5087 48.7692 32.1777C48.7692 33.8697 50.1327 35.2186 52.8667 35.2186C55.6001 35.2186 56.949 33.8697 56.949 32.1777C56.949 30.5087 55.5179 29.1787 52.8513 29.1787ZM52.8217 34.3051C51.8482 34.2874 51.4203 33.2114 51.4388 32.1421C51.4582 31.0347 51.9881 30.0692 52.9001 30.085C53.8122 30.1011 54.2936 31.0851 54.274 32.1919C54.2555 33.2362 53.8246 34.3233 52.8217 34.3051Z" fill="white"/>
</g>
<defs>
<clipPath id="clip0_1045_658">
<rect width="65" height="65" fill="white"/>
</clipPath>
</defs>
</svg>
