<svg width="280" height="40" viewBox="0 0 280 40" fill="none" xmlns="http://www.w3.org/2000/svg">
<path d="M16.0477 12.6289V26.5394C18.0936 25.5244 19.5262 23.7572 20.2217 21.7644L20.3856 21.84C19.935 26.8028 16.2521 31.765 10.5227 31.765C4.75215 31.765 0.495911 27.8178 0.495911 21.5011C0.495911 16.7644 3.85168 13.7939 8.14904 11.1244C7.52113 10.9731 6.87449 10.8973 6.22533 10.8989C3.27837 10.8989 1.55967 12.7411 1.55967 14.6211H1.31414C1.27302 14.3578 1.27302 14.095 1.27302 13.8317C1.27302 10.4856 3.19673 6.425 7.86239 6.425C10.8499 6.425 13.1419 8.94389 16.6204 8.94389C18.0119 8.94389 19.7306 8.34222 20.4261 6.95111H20.5489C20.5084 9.39555 19.6901 11.9144 16.0477 12.6289V12.6289ZM18.2575 26.8778C16.211 28.87 14.0012 30.5622 11.1365 30.5622C5.81652 30.5622 1.72416 26.7272 1.72416 21.1628C1.72416 17.8922 3.19734 16.1256 4.8344 14.0572H4.67051C3.64727 14.9972 0.946451 17.3656 0.946451 21.3883C0.946451 27.5544 5.16157 31.3517 10.6866 31.3517C14.5334 31.3517 17.1526 28.9083 18.3397 26.9156L18.2575 26.8778V26.8778ZM19.8939 8.64388C19.1985 9.84666 17.7253 11.3878 14.7378 11.3878C11.7503 11.3878 9.0084 9.50777 6.59362 9.50777C4.38325 9.50777 2.86956 10.8617 2.29626 11.8767L2.33738 11.9522C3.11509 11.2378 4.30161 10.5233 6.22533 10.5233C9.41721 10.5233 11.4637 12.3283 14.6967 12.3283C18.1347 12.3283 19.6895 10.26 19.9762 8.68166L19.8939 8.64388V8.64388ZM8.51673 11.2378C6.42973 13.2306 4.50602 15.4111 4.50602 19.6594C4.50602 21.99 5.36537 24.3961 7.28909 25.9L8.47561 25.3356V15.2606L7.37073 15.7867L7.16632 15.4106L12.8957 12.5528C11.3409 12.2528 9.94939 11.6139 8.51673 11.2378V11.2378ZM15.5972 12.7039C15.3105 12.7411 15.0245 12.7411 14.6967 12.7411C14.124 12.7411 13.5918 12.7039 13.0596 12.5906V23.5683L7.6985 26.2389C8.80338 26.9906 10.1538 27.4417 11.8725 27.4417C13.264 27.4417 14.4917 27.1783 15.5966 26.7272V12.7039H15.5972V12.7039ZM9.70386 14.6217L8.92615 15.035V25.1111L9.70386 24.735V14.6217V14.6217ZM33.236 16.05V29.0583C33.236 32.6672 29.7574 35.1117 25.8695 35.8256L25.7878 35.675C27.7116 34.81 28.8164 33.0433 28.8164 31.1633V17.7039L26.6067 15.8622L25.7473 16.7267V27.2161L26.975 28.2311V28.3067L23.6603 31.615L19.8546 28.4194V28.2689L21.3278 26.84V10.2228L25.6657 5.975L25.7473 6.01222V16.0878L29.3081 12.5539L33.0322 15.6372L33.7276 14.96L34.0554 15.2239L33.236 16.05V16.05ZM21.7771 28.3439V28.2689L22.6365 27.4789V9.58333L21.7771 10.4111V27.1033L20.4672 28.3067V28.3817L23.6591 31.0133L24.2318 30.4117L21.7771 28.3439V28.3439ZM30.1257 17.1022L27.4654 14.9972L26.8927 15.5611L29.2664 17.5167V31.0511C29.2664 31.9533 29.062 32.8928 28.6937 33.4194L28.7348 33.4572C29.758 32.78 30.1263 31.765 30.1263 30.4494V17.1022H30.1257V17.1022ZM39.7431 23.6067V25.5239L43.7127 28.3811L46.0047 26.1256L46.3325 26.4261L41.0125 31.6517L35.6102 27.6667L34.792 28.4561L34.4642 28.1556L35.4058 27.2533V17.7417L43.1406 12.5533L47.1924 18.5689L39.7431 23.6067V23.6067ZM36.7145 26.9156V17.3656L35.8551 17.93V27.2917L40.9302 31.0889L41.5852 30.45L36.7145 26.9156V26.9156ZM39.8253 15.3356L39.7431 15.3733V23.0806L43.3855 20.6367L39.8253 15.3356ZM40.8891 14.5839L40.1525 15.0722L43.7544 20.3733L44.491 19.8844L40.8891 14.5839V14.5839ZM73.8686 31.6144L68.1797 27.1028L63.8418 31.6144L57.9485 26.9522V19.5839H56.8025C55.7793 19.5839 55.2477 20.1856 55.0016 20.8994H54.8788C54.7482 20.4326 54.6796 19.9531 54.6744 19.4711C54.6744 18.4933 54.9611 15.9372 57.9485 15.9372V9.47055C57.9485 8.23 56.3526 7.74111 56.3526 6.08666C56.3526 3.94444 58.5624 1.83888 62.6142 0.522217L62.7781 0.634995C61.3049 1.42499 60.5272 2.17666 60.5272 3.79333C60.5272 6.275 63.1464 5.63555 63.1464 9.54555V11.0494L67.9348 6.425L72.9687 10.9739L77.7161 6.425L82.2995 10.5606V24.4711L73.8686 31.6144V31.6144ZM59.2584 26.3511V18.4189H56.9664C55.7793 18.4189 55.2477 19.1328 55.1655 19.7722L55.206 19.81C55.6154 19.3967 56.0248 19.1711 56.9658 19.1711H58.3979V26.7656L63.8001 31.0517L64.4139 30.3744L59.2584 26.3511V26.3511ZM59.2584 9.09444C59.2584 7.55333 57.7853 7.02666 57.7853 6.04944C57.7853 4.69555 58.3579 3.56833 59.2584 2.51555L59.1768 2.47833C57.9491 3.34333 56.8031 4.73444 56.8031 6.08722C56.8031 7.44111 58.3991 8.08 58.3991 9.28333V15.9378H59.2584V9.09444ZM67.8937 12.8544L64.7834 10.0722L63.1464 11.6133V24.9222L66.8704 27.8172L67.8937 26.7644V12.8544ZM69.203 26.2761V12.3283L65.7244 9.17L65.0695 9.77166L68.3436 12.6661V26.6894L73.8686 31.0883L74.5236 30.5239L69.203 26.2761ZM77.1427 12.3656L74.5647 10.1094L73.0915 11.5006V24.885L77.1022 28.1178L77.1427 28.0806V12.3656V12.3656ZM78.452 11.8394L75.4646 9.17L74.8507 9.77166L77.5927 12.1778V27.8928L78.452 27.1406V11.8394V11.8394ZM95.8417 31.6144L91.9537 28.3811L88.4752 31.6144L84.2189 28.1556L83.6456 28.7194L83.3185 28.4189L84.0551 27.7044V17.6294L91.7493 12.5161L96.1694 15.6744L96.9472 14.9222L97.2749 15.2233L96.3745 16.0878V26.5022L98.5431 28.3439L99.2392 27.6672L99.5663 27.9306L95.8417 31.6144V31.6144ZM85.3649 27.4417V17.2906L84.5056 17.8544V27.8178L88.4347 31.0511L89.0896 30.4494L85.3649 27.4417V27.4417ZM91.9537 17.5539L88.598 15.1478L88.4752 15.2233V26.1633L91.2582 28.3811L91.9537 27.7422V17.5539V17.5539ZM93.2636 27.78V16.99L89.7851 14.3956L88.9669 14.9217L92.4043 17.4033V28.1556L95.8423 31.0128L96.4561 30.4111L93.2636 27.78V27.78ZM107.751 19.3583H111.966V27.4039L105.459 31.6144C104.6 30.7122 103.371 30.0733 101.858 30.0733C100.63 30.0733 99.6474 30.4494 98.3381 31.4644L98.1337 31.3889L103.7 23.945H100.262V16.9522L107.097 12.5911C107.915 13.1928 108.529 13.5306 109.593 13.5306C110.412 13.5306 111.598 13.38 112.499 12.7039L112.663 12.7789L107.751 19.3583V19.3583ZM103.168 28.9828C101.981 28.9828 101.04 29.3589 100.221 29.885V29.9606C100.876 29.6972 101.531 29.6222 102.144 29.6222C103.085 29.6222 104.559 30.0361 105.541 31.0889L106.483 30.45C105.705 29.6222 104.764 28.9828 103.168 28.9828V28.9828ZM107.546 22.6667H105.254L100.466 29.0211L100.507 29.0961C101.693 28.3067 102.839 27.7806 104.231 27.7806C105.458 27.7806 106.727 28.3067 107.505 29.2089L107.546 29.1717V22.6667ZM101.571 22.6667V16.6144L100.712 17.1783V23.4944H104.026L104.681 22.6672H101.571V22.6667ZM110.125 15.2978C109.265 15.8622 108.774 16.1628 107.342 16.1628C106.523 16.1628 105.541 15.8244 104.764 15.0722L104.682 15.11V20.5989H106.237L110.166 15.335L110.125 15.2978V15.2978ZM108.16 14.9594C107.424 14.9594 106.483 14.6217 105.868 13.8694L104.845 14.5083C105.623 15.3733 106.36 15.7489 107.505 15.7489C108.241 15.7489 109.306 15.5606 110.411 14.6956L110.451 14.5833C109.756 14.8472 108.897 14.9594 108.16 14.9594V14.9594ZM108.856 21.4267H106.196L105.582 22.2161H107.997V29.5094L108.856 28.9456V21.4267ZM126.085 16.05V29.0583C126.085 32.6672 122.607 35.1117 118.719 35.8256L118.637 35.675C120.561 34.81 121.666 33.0433 121.666 31.1633V17.7039L119.456 15.8622L118.597 16.7267V27.2161L119.824 28.2311V28.3067L116.51 31.615L112.704 28.4194V28.2689L114.177 26.84V10.2228L118.515 5.975L118.597 6.01222V16.0878L122.157 12.5539L125.882 15.6372L126.577 14.96L126.905 15.2239L126.085 16.05V16.05ZM114.626 28.3439V28.2689L115.486 27.4789V9.58333L114.626 10.4106V27.1028L113.317 28.3061V28.3811L116.508 31.0128L117.081 30.4111L114.626 28.3439V28.3439ZM122.975 17.1022L120.315 14.9972L119.742 15.5611L122.116 17.5167V31.0511C122.116 31.9533 121.911 32.8928 121.543 33.4194L121.584 33.4572C122.607 32.78 122.976 31.765 122.976 30.4494V17.1022H122.975ZM133.534 31.6144L130.014 28.6444L129.196 29.4339L128.868 29.1328L129.809 28.1933V17.3283L128.091 15.8244L127.436 16.5017L127.108 16.2006L130.791 12.5161L134.065 15.2233L134.884 14.3961L135.252 14.6594L134.229 15.6744V26.6528L136.194 28.3444L137.094 27.4794L137.421 27.7806L133.534 31.6144V31.6144ZM131.119 27.9306V16.7267L128.991 14.9222L128.418 15.5239L130.26 17.1406V28.3067L133.534 31.0133L134.148 30.4117L131.119 27.9306V27.9306ZM132.347 12.2156L128.991 9.39611L132.061 6.38833L135.417 9.20777L132.347 12.2156ZM130.26 8.79389L129.646 9.35777L132.306 11.6511L132.92 11.0122L130.26 8.79389V8.79389ZM150.839 31.6144L147.278 28.6444V17.6667L145.109 15.8622L143.963 16.99V27.1406L145.232 28.2306V28.3811L141.876 31.6144L138.07 28.4189V28.3061L139.543 26.8778V17.4033L137.62 15.7867L136.842 16.5761L136.515 16.2756L140.239 12.5533L143.963 15.5989V16.3506L147.851 12.5533L151.493 15.5611L152.312 14.7717L152.68 15.0722L151.698 16.0122V26.7644L153.539 28.3433L154.44 27.4411L154.767 27.7417L150.839 31.6144V31.6144ZM140.035 28.3439V28.2689C140.035 28.3439 140.853 27.5167 140.853 27.5167V16.8389L138.52 14.8839L137.947 15.4478L139.993 17.1772V27.1022L138.725 28.3056V28.3806L141.876 31.0122L142.53 30.3733L140.035 28.3439V28.3439ZM148.588 28.0433V17.0278L146.051 14.9222L145.396 15.5611L147.728 17.4783V28.4189L150.797 31.0506L151.452 30.4111L148.588 28.0433V28.0433ZM162.379 38.3817C161.03 37.0283 160.088 36.4644 158.819 36.4644C157.469 36.4644 155.913 36.9533 154.318 37.7428L154.195 37.6306L159.843 31.615L155.832 28.6828L155.054 29.435L154.727 29.1717L155.627 28.2694V17.6294L163.403 12.5161L167.741 15.6744L168.478 14.9222L168.805 15.2233L167.946 16.0878V28.9461C167.946 30.9011 169.132 30.8261 169.132 32.2917C169.132 33.9833 166.472 35.5622 162.379 38.3817ZM156.937 27.9678V17.3283L156.077 17.8928V28.3067L160.129 31.3144L160.743 30.6372L156.937 27.9678V27.9678ZM159.801 35.4872C158.451 35.4872 157.223 35.8633 156.077 36.5772V36.6528C156.814 36.3894 157.632 36.0511 159.024 36.0511C160.292 36.0511 161.356 36.69 162.421 37.8183L163.239 37.2167C162.216 36.1267 160.988 35.4872 159.801 35.4872ZM164.794 31.8778C163.772 31.2761 163.525 30.6372 163.525 29.0206V28.3433L156.732 35.5617L156.773 35.5989C158.082 34.885 159.269 34.3589 161.193 34.3589C162.83 34.3589 163.935 34.96 165.204 35.9378C165.981 35.3361 166.513 34.735 166.513 33.795C166.513 33.0433 165.817 32.4794 164.794 31.8778V31.8778ZM163.525 17.5539L160.129 15.1106L160.046 15.1856V26.7272L162.666 28.6072L163.525 27.705V17.5539V17.5539ZM166.022 31.3517C164.958 30.5994 164.835 29.9606 164.835 28.3439V16.915L161.397 14.3583L160.62 14.8472L163.975 17.2906V28.87C163.975 30.4867 164.058 30.9383 165.163 31.6144C166.145 32.2161 166.922 32.855 166.922 33.72C166.922 33.945 166.881 34.3211 166.881 34.3211L166.922 34.3589C167.127 34.1706 167.372 33.87 167.372 33.3811C167.373 32.5544 166.922 31.9906 166.022 31.3517V31.3517ZM175.844 31.6144L172.079 28.9078L171.301 29.6972L170.974 29.3961L171.874 28.4939V15.3356H169.5L169.418 15.2606L170.851 13.305H171.873V10.7867L176.212 6.53833L176.294 6.61388V13.3056H179.568L179.65 13.3811L178.217 15.3361H176.294V26.7278L178.545 28.3072L179.404 27.4422L179.732 27.7428L175.844 31.6144V31.6144ZM173.184 10.1472L172.325 11.0122V13.3056H173.184V10.1472ZM173.184 28.1183V15.3356H172.325V28.5694L175.803 31.0511L176.417 30.4494L173.184 28.1183V28.1183ZM193.114 16.4261V26.9528L186.198 31.6522L181 28.0433L180.386 28.6822L180.059 28.3811L180.795 27.6294V17.3283L188.04 12.5533L192.869 16.0128L193.646 15.2606L193.974 15.5611L193.114 16.4261V16.4261ZM182.106 27.2539V16.99L181.246 17.5539V27.6672L186.157 31.1261L186.935 30.6L182.106 27.2539V27.2539ZM188.695 17.6667L185.257 15.185L185.216 15.2228V26.4261L188.695 28.8322V17.6667ZM190.005 16.99L186.198 14.2828L185.421 14.8089L189.145 17.4406V29.1333L190.005 28.5322V16.99ZM208.748 31.6144L205.187 28.6444V17.6667L203.018 15.8622L201.872 16.99V27.1406L203.141 28.2306V28.3811L199.785 31.6144L195.979 28.4189V28.3061L197.453 26.8778V17.4033L195.529 15.7867L194.751 16.5761L194.424 16.2756L198.148 12.5533L201.872 15.5989V16.3506L205.76 12.5533L209.403 15.5611L210.221 14.7717L210.589 15.0722L209.607 16.0122V26.7644L211.448 28.3433L212.349 27.4411L212.676 27.7417L208.748 31.6144V31.6144ZM197.943 28.3439V28.2689C197.943 28.3439 198.762 27.5167 198.762 27.5167V16.8389L196.429 14.8839L195.857 15.4478L197.903 17.1772V27.1022L196.634 28.3056V28.3806L199.786 31.0122L200.441 30.3733L197.943 28.3439V28.3439ZM206.497 28.0433V17.0278L203.96 14.9222L203.305 15.5611L205.637 17.4783V28.4189L208.706 31.0506L209.361 30.4111L206.497 28.0433V28.0433ZM234.03 31.6144C232.884 30.4867 232.476 30.1106 231.125 29.7722V37.1411L231.042 37.1783L229.405 35.8244L224.658 39.8472L224.576 39.81V29.6972C223.144 29.9978 221.629 30.675 220.156 32.0278L220.074 31.9906C220.361 29.0956 221.915 26.9528 224.575 26.1256V18.7944H223.716C222.529 18.7944 221.874 19.3583 221.302 20.3733H221.179C221.056 20.0356 220.974 19.5083 220.974 18.6444C220.974 17.065 222.243 15.4111 224.33 15.4111H224.575V11.3506L222.898 9.95944L222.079 10.7117L221.792 10.4483L225.926 6.42555L229.772 9.65888V13.08L230.673 12.1778V7.85388H231.123V11.8017L236.566 6.425L241.19 10.2978V26.6522L234.03 31.6144V31.6144ZM224.577 28.3061C222.899 28.6067 221.713 29.5467 220.935 30.7872L220.976 30.8628C222.122 29.9606 223.185 29.5472 224.577 29.2461V28.3061V28.3061ZM225.887 17.5167H223.636C222.081 17.5167 221.467 18.4189 221.426 19.4717L221.467 19.5089C221.958 18.7567 222.449 18.4939 223.431 18.3817H225.028V38.8711L225.887 38.1189V17.5167V17.5167ZM225.887 10.7489L223.84 9.02L223.185 9.65888L225.028 11.1622V15.4106H225.887V10.7489V10.7489ZM230.675 12.8917L229.775 13.7567V35.525L230.675 36.2772V12.8917V12.8917ZM236.036 12.0272L233.622 9.99722L231.125 12.4789V25.7122C233.253 25.9006 234.727 26.4644 235.995 27.7422L236.036 27.705V12.0272V12.0272ZM231.125 28.3061V29.2839C232.517 29.5844 233.089 29.9606 234.072 31.0128L235.013 30.3361C234.03 29.2083 233.048 28.5322 231.125 28.3061V28.3061ZM237.346 11.4261L234.563 9.05722L233.908 9.69611L236.486 11.8767V29.3589L237.346 28.7572V11.4261V11.4261ZM255.476 16.4261V26.9528L248.558 31.6522L243.361 28.0433L242.747 28.6822L242.42 28.3811L243.156 27.6294V17.3283L250.4 12.5533L255.229 16.0128L256.007 15.2606L256.334 15.5611L255.476 16.4261V16.4261ZM244.467 27.2539V16.99L243.607 17.5539V27.6672L248.518 31.1261L249.296 30.6L244.467 27.2539V27.2539ZM251.055 17.6667L247.618 15.185L247.577 15.2228V26.4261L251.055 28.8322V17.6667ZM252.365 16.99L248.559 14.2828L247.782 14.8089L251.506 17.4406V29.1333L252.365 28.5322V16.99ZM264.97 19.3583H269.185V27.4039L262.678 31.6144C261.819 30.7122 260.591 30.0733 259.077 30.0733C257.849 30.0733 256.867 30.4494 255.557 31.4644L255.353 31.3889L260.918 23.945H257.48V16.9522L264.315 12.5911C265.134 13.1928 265.747 13.5306 266.812 13.5306C267.63 13.5306 268.816 13.38 269.717 12.7039L269.881 12.7789L264.97 19.3583ZM260.386 28.9828C259.2 28.9828 258.258 29.3589 257.44 29.885V29.9606C258.095 29.6972 258.749 29.6222 259.364 29.6222C260.305 29.6222 261.778 30.0361 262.76 31.0889L263.701 30.45C262.924 29.6222 261.983 28.9828 260.386 28.9828V28.9828ZM264.766 22.6667H262.474L257.686 29.0211L257.726 29.0961C258.913 28.3067 260.059 27.7806 261.45 27.7806C262.678 27.7806 263.947 28.3067 264.725 29.2089L264.765 29.1717V22.6667H264.766ZM258.791 22.6667V16.6144L257.931 17.1783V23.4944H261.245L261.9 22.6672H258.791V22.6667ZM267.344 15.2978C266.484 15.8622 265.993 16.1628 264.56 16.1628C263.741 16.1628 262.759 15.8244 261.982 15.0722L261.9 15.11V20.5989H263.455L267.384 15.335L267.344 15.2978V15.2978ZM265.379 14.9594C264.642 14.9594 263.701 14.6217 263.088 13.8694L262.064 14.5083C262.842 15.3733 263.579 15.7489 264.725 15.7489C265.461 15.7489 266.526 15.5606 267.63 14.6956L267.671 14.5833C266.976 14.8472 266.116 14.9594 265.379 14.9594V14.9594ZM266.075 21.4267H263.415L262.802 22.2161H265.216V29.5094L266.075 28.9456V21.4267ZM275.979 31.6144L272.214 28.9078L271.436 29.6972L271.109 29.3961L272.009 28.4939V15.3356H269.635L269.554 15.2606L270.986 13.305H272.008V10.7867L276.347 6.53833L276.429 6.61388V13.3056H279.703L279.785 13.3811L278.352 15.3361H276.429V26.7278L278.68 28.3072L279.539 27.4422L279.866 27.7428L275.979 31.6144V31.6144ZM273.319 10.1472L272.459 11.0122V13.3056H273.319V10.1472ZM273.319 28.1183V15.3356H272.459V28.5694L275.938 31.0511L276.552 30.4494L273.319 28.1183Z" fill="white"/>
</svg>
