<svg width="243" height="56" viewBox="0 0 243 56" fill="none" xmlns="http://www.w3.org/2000/svg">
<path fill-rule="evenodd" clip-rule="evenodd" d="M12.0441 4.49245H76.464C77.4322 4.49245 78.391 4.68294 79.2855 5.05306C80.18 5.42317 80.9927 5.96565 81.6772 6.6495C82.3617 7.33335 82.9046 8.14518 83.2748 9.0386C83.645 9.93202 83.8354 10.8895 83.835 11.8564V36.4C83.835 37.3665 83.6443 38.3235 83.2738 39.2164C82.9034 40.1093 82.3604 40.9206 81.6759 41.6038C80.9914 42.2871 80.1788 42.829 79.2845 43.1986C78.3902 43.5682 77.4318 43.7582 76.464 43.7578H53.3603L56.5224 51.52L42.5655 43.7578H12.0347C10.082 43.7553 8.21 42.9791 6.82978 41.5996C5.44956 40.2201 4.67389 38.3501 4.67307 36.4V11.8564C4.67307 9.90393 5.44955 8.03134 6.83179 6.65041C8.21403 5.26948 10.0889 4.49327 12.0441 4.49245V4.49245Z" fill="#CCCCCC"/>
<path d="M8.65765 11.1596C8.90145 10.8553 9.20916 10.6081 9.55905 10.4356C9.90895 10.263 10.2925 10.1693 10.6826 10.1609C12.3255 10.0468 13.2684 10.8204 13.5114 12.4818C14.525 19.2204 15.6101 24.9407 16.767 29.6427L23.8576 16.1778C24.4994 14.9624 25.3104 14.3194 26.2907 14.2489C27.7113 14.1493 28.5992 15.0526 28.9544 16.9587C29.6217 20.7279 30.6471 24.425 32.0168 28C32.8683 19.7991 34.29 13.8704 36.2818 10.2138C36.4739 9.80367 36.7745 9.45367 37.1511 9.2015C37.5277 8.94932 37.966 8.80451 38.4189 8.78267C39.1563 8.72215 39.8882 8.95092 40.4595 9.42045C40.751 9.64029 40.9906 9.92146 41.1613 10.244C41.332 10.5666 41.4295 10.9227 41.4471 11.2871C41.4992 11.825 41.3908 12.3662 41.1355 12.8427C39.8728 15.1822 38.8343 19.0722 38.0201 24.5124C37.2164 29.764 36.9194 33.8717 37.1291 36.8356C37.2028 37.562 37.0722 38.2946 36.7522 38.9511C36.5968 39.2825 36.3548 39.5658 36.0515 39.7712C35.7483 39.9765 35.3951 40.0963 35.0294 40.1178C34.1758 40.18 33.3253 39.7787 32.4685 38.92C29.4611 35.84 27.0727 31.2573 25.3031 25.172C23.2262 29.3202 21.6685 32.423 20.6301 34.4804C18.7297 38.1308 17.1014 40.0027 15.7451 40.096C14.8645 40.1582 14.1148 39.4199 13.4958 37.8809C11.8343 33.656 10.0523 25.4821 8.14984 13.3591C8.07465 12.9774 8.08102 12.5842 8.16853 12.2052C8.25603 11.8261 8.42271 11.4698 8.65765 11.1596V11.1596Z" fill="white"/>
<path d="M78.1962 16.2369C77.6617 15.2735 76.9212 14.4395 76.0273 13.7943C75.1335 13.149 74.1083 12.7083 73.0246 12.5036C72.4469 12.3816 71.8581 12.319 71.2676 12.3169C68.1688 12.3169 65.637 13.9274 63.6722 17.1484C61.9991 19.8876 61.1281 23.0401 61.1581 26.2485C61.1581 28.7373 61.6774 30.8705 62.7158 32.648C63.2498 33.6125 63.9905 34.4472 64.8851 35.0926C65.7796 35.7379 66.8059 36.178 67.8905 36.3813C68.4668 36.506 69.0547 36.5696 69.6444 36.5711C72.7744 36.5711 75.3051 34.9606 77.2366 31.7396C78.9096 28.9808 79.7812 25.8117 79.7539 22.5867C79.7539 20.0978 79.2346 17.9812 78.1962 16.2369ZM74.115 25.2C73.6726 27.3156 72.8522 28.9095 71.6539 29.9818C70.7047 30.8342 69.8345 31.1816 69.0432 31.024C68.2519 30.8664 67.6174 30.1695 67.1397 28.9333C66.7736 27.9957 66.5805 26.9997 66.5695 25.9933C66.5665 25.1971 66.6459 24.4026 66.8063 23.6227C67.1147 22.2425 67.6951 20.9375 68.5136 19.7836C69.5894 18.2052 70.713 17.5425 71.8844 17.7956C72.6757 17.9553 73.3092 18.6501 73.7848 19.88C74.1496 20.8168 74.3417 21.8118 74.3518 22.8169C74.3558 23.6173 74.2765 24.416 74.115 25.2V25.2Z" fill="white"/>
<path d="M57.9212 16.2369C57.3867 15.2735 56.6462 14.4395 55.7524 13.7943C54.8586 13.149 53.8334 12.7083 52.7497 12.5036C52.1719 12.3816 51.5831 12.319 50.9926 12.3169C47.8918 12.3169 45.361 13.9274 43.4004 17.1484C41.725 19.8867 40.8528 23.0396 40.8832 26.2485C40.8832 28.7373 41.4024 30.8705 42.4409 32.648C42.974 33.6131 43.7145 34.4484 44.6092 35.0939C45.5038 35.7394 46.5305 36.1791 47.6155 36.3813C48.1919 36.506 48.7798 36.5696 49.3695 36.5711C52.5015 36.5711 55.0333 34.9606 56.9648 31.7396C58.6436 28.9823 59.5226 25.8136 59.5038 22.5867C59.5038 20.0978 58.9846 17.9812 57.9461 16.2369H57.9212ZM53.8401 25.2C53.3977 27.3197 52.5752 28.9157 51.3727 29.988C50.4215 30.8405 49.5512 31.1879 48.762 31.0302C47.9728 30.8726 47.3403 30.1736 46.8647 28.9333C46.4987 27.9957 46.3056 26.9997 46.2946 25.9933C46.2916 25.1971 46.3709 24.4026 46.5314 23.6227C46.8425 22.2434 47.4226 20.9389 48.2386 19.7836C49.3103 18.2093 50.4339 17.5487 51.6095 17.8018C52.4008 17.9615 53.0332 18.6563 53.5067 19.8862C53.8724 20.8229 54.0656 21.8178 54.0768 22.8231C54.08 23.6194 54.0007 24.4138 53.8401 25.1938V25.2Z" fill="white"/>
<path d="M92.0191 15.96C89.8653 18.0984 88.7885 20.8081 88.7885 24.0893C88.7885 27.6298 89.856 30.4889 91.9911 32.6667C94.1261 34.8444 96.9186 35.9292 100.368 35.9209C101.511 35.8931 102.645 35.7163 103.742 35.3951V30.1778C102.788 30.4795 101.796 30.6461 100.795 30.6724C99.0817 30.6724 97.7109 30.0979 96.6828 28.9489C95.6548 27.7998 95.1418 26.2391 95.1438 24.2667C95.1438 22.4353 95.6537 20.9253 96.6735 19.7369C97.1393 19.1693 97.7276 18.7144 98.3945 18.4063C99.0614 18.0981 99.7894 17.9446 100.524 17.9573C101.613 17.9651 102.696 18.1221 103.742 18.424V13.1818C102.588 12.8884 101.401 12.7452 100.209 12.7556C96.9092 12.7556 94.1791 13.8237 92.0191 15.96ZM114.475 12.7556C111.49 12.7556 109.159 13.747 107.481 15.7298C105.803 17.7126 104.972 20.4773 104.988 24.024C104.988 27.8693 105.819 30.8104 107.481 32.8471C109.142 34.8838 111.558 35.9033 114.727 35.9053C117.791 35.9053 120.15 34.8859 121.805 32.8471C123.461 30.8083 124.293 27.9481 124.304 24.2667C124.304 20.5769 123.463 17.7375 121.78 15.7484C120.098 13.7594 117.663 12.7618 114.475 12.7556ZM117.039 29.5556C116.771 29.9904 116.393 30.3464 115.943 30.587C115.492 30.8276 114.985 30.944 114.475 30.9244C113.992 30.9388 113.514 30.8182 113.096 30.5764C112.678 30.3346 112.335 29.9811 112.107 29.5556C111.565 28.6471 111.294 26.8292 111.294 24.1018C111.294 19.8561 112.367 17.7333 114.512 17.7333C116.797 17.7333 117.939 19.881 117.939 24.1764C117.933 26.8437 117.633 28.6367 117.039 29.5556ZM140.308 13.3778L139.149 18.3182C138.847 19.5834 138.566 20.8797 138.304 22.2071L137.656 25.6293C137.033 22.2133 136.189 18.1326 135.124 13.3871H127.6L124.774 35.3827H130.41L131.943 20.2253L135.79 35.3827H139.818L143.488 20.2222L145.08 35.3484H150.972L147.981 13.3778H140.308ZM167.262 13.3778L166.103 18.3182C165.802 19.5834 165.52 20.8797 165.259 22.2071L164.611 25.6293C163.988 22.2133 163.142 18.1326 162.075 13.3871H154.554L151.719 35.3609H157.355L158.885 20.2036L162.735 35.3609H166.76L170.443 20.2222L172.035 35.3484H177.926L174.941 13.3778H167.262ZM185.552 26.6622H190.848V22.0889H185.552V18.0444H191.64V13.3778H179.602V35.3733H191.68V30.6662H185.552V26.6622ZM208.441 23.1933C209.248 21.9128 209.541 20.3748 209.26 18.8878C208.979 17.4008 208.146 16.0749 206.927 15.176C205.305 13.9772 203.093 13.3778 200.291 13.3778H193.356V35.3733H199.31V25.3431H199.406L204.217 35.3609H210.503L205.749 25.4427C206.86 24.992 207.801 24.2054 208.441 23.1933V23.1933ZM199.31 22.8387V17.6151C200.72 17.6483 201.73 17.8847 202.341 18.3244C202.952 18.7641 203.257 19.4901 203.257 20.5022C203.257 22.0163 201.941 22.7951 199.31 22.8387V22.8387ZM212.887 15.96C210.727 18.0984 209.647 20.8081 209.647 24.0893C209.647 27.6298 210.716 30.4837 212.856 32.6511C214.995 34.8185 217.787 35.9033 221.233 35.9053C222.379 35.8837 223.518 35.7121 224.619 35.3951V30.1778C223.665 30.4795 222.673 30.6461 221.672 30.6724C219.957 30.6724 218.585 30.0979 217.557 28.9489C216.529 27.7998 216.012 26.2391 216.008 24.2667C216.008 22.4353 216.519 20.9253 217.541 19.7369C218.007 19.1693 218.595 18.7144 219.262 18.4063C219.929 18.0981 220.657 17.9446 221.392 17.9573C222.484 17.9644 223.57 18.1214 224.619 18.424V13.1818C223.462 12.8876 222.271 12.7444 221.077 12.7556C217.777 12.7556 215.047 13.8237 212.887 15.96ZM232.202 30.6662V26.6622H237.498V22.0889H232.202V18.0444H238.29V13.3778H226.249V35.3733H238.327V30.6662H232.202Z" fill="white"/>
</svg>
