<svg width="232" height="74" viewBox="0 0 232 74" fill="none" xmlns="http://www.w3.org/2000/svg">
<path d="M122.706 23.249V24.8793C122.706 31.613 117.213 37.0709 110.435 37.0709C103.658 37.0709 98.1648 31.613 98.1648 24.8793V23.249H92.6002V24.8793C92.6002 31.8257 96.6667 38.0632 102.945 40.9694C96.6667 43.8755 92.6002 50.113 92.6002 57.0594V58.6897H98.1648V57.0594C98.1648 50.3257 103.658 44.7969 110.435 44.7969C117.213 44.7969 122.706 50.3257 122.706 57.0594V58.6897H128.271V57.0594C128.271 50.113 124.204 43.8755 117.926 40.9694C124.204 38.0632 128.271 31.8257 128.271 24.8793V23.249H122.706ZM165.938 40.9694C165.938 31.046 157.877 23.249 148.032 23.249C141.683 23.249 135.69 26.6513 132.48 32.3927C128.556 39.4809 129.911 48.341 135.833 53.8697C139.257 57.0594 143.609 58.6897 148.032 58.6897C151.385 58.6897 154.667 57.7682 157.592 55.9253V48.6954C155.166 51.6015 151.67 53.1609 148.103 53.1609C146.034 53.1609 143.966 52.6648 142.039 51.6015C136.831 48.6954 134.549 42.4579 136.546 36.8582C138.544 31.2586 144.322 27.9272 150.172 28.9195C156.093 29.9828 160.374 35.0153 160.374 40.9694V58.6897H165.938V40.9694ZM187.035 28.8487V23.3199H174.765V3.54407H169.2V40.9694C169.2 50.751 177.19 58.6897 187.035 58.6897V53.1609C180.258 53.1609 174.765 47.7031 174.765 40.9694V28.8487H187.035ZM226.132 40.9694C226.132 31.046 218.071 23.249 208.226 23.249C201.877 23.249 195.884 26.6513 192.674 32.3927C188.75 39.4809 190.106 48.341 196.027 53.8697C199.452 57.0594 203.803 58.6897 208.226 58.6897C211.579 58.6897 214.861 57.7682 217.786 55.9253V48.6954C215.36 51.6015 211.865 53.1609 208.298 53.1609C206.229 53.1609 204.16 52.6648 202.234 51.6015C197.026 48.6954 194.743 42.4579 196.741 36.8582C198.738 31.2586 204.517 27.9272 210.367 28.9195C216.288 29.9828 220.568 35.0153 220.568 40.9694V58.6897H226.132V40.9694Z" fill="white"/>
<path d="M62.6982 70.5426C67.2987 65.9823 70.3768 60.2805 71.2553 54.6914C72.1337 49.1021 70.7407 44.0833 67.3827 40.7391L50.0367 57.9331L62.6982 70.5426Z" fill="white"/>
<path d="M17.3461 70.6411C12.7456 66.0809 9.66752 60.379 8.78902 54.7898C7.91052 49.2007 9.3035 44.1818 12.6616 40.8375L30.0076 58.0316L17.3461 70.6411Z" fill="white"/>
<path d="M7.22988 21.8575C7.23749 28.3141 9.82626 34.5031 14.4267 39.0632L14.4271 39.0628L31.771 56.2546C36.3607 51.6838 38.9348 45.4887 38.9272 39.0322C38.9196 32.5756 36.3308 26.3865 31.7304 21.8263L31.7299 21.8267L14.3861 4.63496C9.79647 9.20578 7.22228 15.4009 7.22988 21.8575Z" fill="white"/>
<path d="M72.8142 21.7588C72.8066 28.2154 70.2178 34.4046 65.6173 38.9647L65.6169 38.9641L48.2731 56.1559C43.6835 51.5851 41.1092 45.3899 41.1168 38.9333C41.1245 32.4769 43.7132 26.2877 48.3136 21.7276L48.3142 21.7281L65.658 4.53639C70.2476 9.10721 72.8217 15.3023 72.8142 21.7588Z" fill="white"/>
</svg>
