<svg width="960" height="720" viewBox="0 0 960 720" xmlns="http://www.w3.org/2000/svg">
<polyline fill="none" opacity="1" stroke="#2196F3" stroke-width="4" points="110,617 222,578 364,488 929,59 "/>
<polyline fill="none" opacity="1" stroke="#00BCD4" stroke-width="4" points="110,621 222,600 364,560 929,245 "/>
<polyline fill="none" opacity="1" stroke="#4CAF50" stroke-width="4" points="110,623 222,623 364,623 929,621 "/>
<polyline fill="none" opacity="1" stroke="#F44336" stroke-width="4" points="110,628 222,628 364,628 929,628 "/>
<line opacity="0.1" stroke="#FFFFFF" stroke-width="1" x1="110" y1="629" x2="929" y2="629"/>
<line opacity="0.1" stroke="#FFFFFF" stroke-width="1" x1="110" y1="623" x2="929" y2="623"/>
<line opacity="0.1" stroke="#FFFFFF" stroke-width="1" x1="110" y1="617" x2="929" y2="617"/>
<line opacity="0.1" stroke="#FFFFFF" stroke-width="1" x1="110" y1="611" x2="929" y2="611"/>
<line opacity="0.1" stroke="#FFFFFF" stroke-width="1" x1="110" y1="605" x2="929" y2="605"/>
<line opacity="0.1" stroke="#FFFFFF" stroke-width="1" x1="110" y1="599" x2="929" y2="599"/>
<line opacity="0.1" stroke="#FFFFFF" stroke-width="1" x1="110" y1="593" x2="929" y2="593"/>
<line opacity="0.1" stroke="#FFFFFF" stroke-width="1" x1="110" y1="587" x2="929" y2="587"/>
<line opacity="0.1" stroke="#FFFFFF" stroke-width="1" x1="110" y1="581" x2="929" y2="581"/>
<line opacity="0.1" stroke="#FFFFFF" stroke-width="1" x1="110" y1="575" x2="929" y2="575"/>
<line opacity="0.1" stroke="#FFFFFF" stroke-width="1" x1="110" y1="569" x2="929" y2="569"/>
<line opacity="0.1" stroke="#FFFFFF" stroke-width="1" x1="110" y1="563" x2="929" y2="563"/>
<line opacity="0.1" stroke="#FFFFFF" stroke-width="1" x1="110" y1="557" x2="929" y2="557"/>
<line opacity="0.1" stroke="#FFFFFF" stroke-width="1" x1="110" y1="551" x2="929" y2="551"/>
<line opacity="0.1" stroke="#FFFFFF" stroke-width="1" x1="110" y1="545" x2="929" y2="545"/>
<line opacity="0.1" stroke="#FFFFFF" stroke-width="1" x1="110" y1="539" x2="929" y2="539"/>
<line opacity="0.1" stroke="#FFFFFF" stroke-width="1" x1="110" y1="533" x2="929" y2="533"/>
<line opacity="0.1" stroke="#FFFFFF" stroke-width="1" x1="110" y1="527" x2="929" y2="527"/>
<line opacity="0.1" stroke="#FFFFFF" stroke-width="1" x1="110" y1="521" x2="929" y2="521"/>
<line opacity="0.1" stroke="#FFFFFF" stroke-width="1" x1="110" y1="515" x2="929" y2="515"/>
<line opacity="0.1" stroke="#FFFFFF" stroke-width="1" x1="110" y1="509" x2="929" y2="509"/>
<line opacity="0.1" stroke="#FFFFFF" stroke-width="1" x1="110" y1="503" x2="929" y2="503"/>
<line opacity="0.1" stroke="#FFFFFF" stroke-width="1" x1="110" y1="497" x2="929" y2="497"/>
<line opacity="0.1" stroke="#FFFFFF" stroke-width="1" x1="110" y1="491" x2="929" y2="491"/>
<line opacity="0.1" stroke="#FFFFFF" stroke-width="1" x1="110" y1="485" x2="929" y2="485"/>
<line opacity="0.1" stroke="#FFFFFF" stroke-width="1" x1="110" y1="479" x2="929" y2="479"/>
<line opacity="0.1" stroke="#FFFFFF" stroke-width="1" x1="110" y1="473" x2="929" y2="473"/>
<line opacity="0.1" stroke="#FFFFFF" stroke-width="1" x1="110" y1="467" x2="929" y2="467"/>
<line opacity="0.1" stroke="#FFFFFF" stroke-width="1" x1="110" y1="461" x2="929" y2="461"/>
<line opacity="0.1" stroke="#FFFFFF" stroke-width="1" x1="110" y1="455" x2="929" y2="455"/>
<line opacity="0.1" stroke="#FFFFFF" stroke-width="1" x1="110" y1="449" x2="929" y2="449"/>
<line opacity="0.1" stroke="#FFFFFF" stroke-width="1" x1="110" y1="443" x2="929" y2="443"/>
<line opacity="0.1" stroke="#FFFFFF" stroke-width="1" x1="110" y1="437" x2="929" y2="437"/>
<line opacity="0.1" stroke="#FFFFFF" stroke-width="1" x1="110" y1="431" x2="929" y2="431"/>
<line opacity="0.1" stroke="#FFFFFF" stroke-width="1" x1="110" y1="425" x2="929" y2="425"/>
<line opacity="0.1" stroke="#FFFFFF" stroke-width="1" x1="110" y1="419" x2="929" y2="419"/>
<line opacity="0.1" stroke="#FFFFFF" stroke-width="1" x1="110" y1="413" x2="929" y2="413"/>
<line opacity="0.1" stroke="#FFFFFF" stroke-width="1" x1="110" y1="407" x2="929" y2="407"/>
<line opacity="0.1" stroke="#FFFFFF" stroke-width="1" x1="110" y1="401" x2="929" y2="401"/>
<line opacity="0.1" stroke="#FFFFFF" stroke-width="1" x1="110" y1="395" x2="929" y2="395"/>
<line opacity="0.1" stroke="#FFFFFF" stroke-width="1" x1="110" y1="389" x2="929" y2="389"/>
<line opacity="0.1" stroke="#FFFFFF" stroke-width="1" x1="110" y1="383" x2="929" y2="383"/>
<line opacity="0.1" stroke="#FFFFFF" stroke-width="1" x1="110" y1="377" x2="929" y2="377"/>
<line opacity="0.1" stroke="#FFFFFF" stroke-width="1" x1="110" y1="371" x2="929" y2="371"/>
<line opacity="0.1" stroke="#FFFFFF" stroke-width="1" x1="110" y1="365" x2="929" y2="365"/>
<line opacity="0.1" stroke="#FFFFFF" stroke-width="1" x1="110" y1="359" x2="929" y2="359"/>
<line opacity="0.1" stroke="#FFFFFF" stroke-width="1" x1="110" y1="353" x2="929" y2="353"/>
<line opacity="0.1" stroke="#FFFFFF" stroke-width="1" x1="110" y1="347" x2="929" y2="347"/>
<line opacity="0.1" stroke="#FFFFFF" stroke-width="1" x1="110" y1="341" x2="929" y2="341"/>
<line opacity="0.1" stroke="#FFFFFF" stroke-width="1" x1="110" y1="335" x2="929" y2="335"/>
<line opacity="0.1" stroke="#FFFFFF" stroke-width="1" x1="110" y1="329" x2="929" y2="329"/>
<line opacity="0.1" stroke="#FFFFFF" stroke-width="1" x1="110" y1="323" x2="929" y2="323"/>
<line opacity="0.1" stroke="#FFFFFF" stroke-width="1" x1="110" y1="317" x2="929" y2="317"/>
<line opacity="0.1" stroke="#FFFFFF" stroke-width="1" x1="110" y1="311" x2="929" y2="311"/>
<line opacity="0.1" stroke="#FFFFFF" stroke-width="1" x1="110" y1="305" x2="929" y2="305"/>
<line opacity="0.1" stroke="#FFFFFF" stroke-width="1" x1="110" y1="299" x2="929" y2="299"/>
<line opacity="0.1" stroke="#FFFFFF" stroke-width="1" x1="110" y1="293" x2="929" y2="293"/>
<line opacity="0.1" stroke="#FFFFFF" stroke-width="1" x1="110" y1="287" x2="929" y2="287"/>
<line opacity="0.1" stroke="#FFFFFF" stroke-width="1" x1="110" y1="281" x2="929" y2="281"/>
<line opacity="0.1" stroke="#FFFFFF" stroke-width="1" x1="110" y1="275" x2="929" y2="275"/>
<line opacity="0.1" stroke="#FFFFFF" stroke-width="1" x1="110" y1="269" x2="929" y2="269"/>
<line opacity="0.1" stroke="#FFFFFF" stroke-width="1" x1="110" y1="263" x2="929" y2="263"/>
<line opacity="0.1" stroke="#FFFFFF" stroke-width="1" x1="110" y1="257" x2="929" y2="257"/>
<line opacity="0.1" stroke="#FFFFFF" stroke-width="1" x1="110" y1="251" x2="929" y2="251"/>
<line opacity="0.1" stroke="#FFFFFF" stroke-width="1" x1="110" y1="245" x2="929" y2="245"/>
<line opacity="0.1" stroke="#FFFFFF" stroke-width="1" x1="110" y1="239" x2="929" y2="239"/>
<line opacity="0.1" stroke="#FFFFFF" stroke-width="1" x1="110" y1="233" x2="929" y2="233"/>
<line opacity="0.1" stroke="#FFFFFF" stroke-width="1" x1="110" y1="227" x2="929" y2="227"/>
<line opacity="0.1" stroke="#FFFFFF" stroke-width="1" x1="110" y1="221" x2="929" y2="221"/>
<line opacity="0.1" stroke="#FFFFFF" stroke-width="1" x1="110" y1="215" x2="929" y2="215"/>
<line opacity="0.1" stroke="#FFFFFF" stroke-width="1" x1="110" y1="209" x2="929" y2="209"/>
<line opacity="0.1" stroke="#FFFFFF" stroke-width="1" x1="110" y1="203" x2="929" y2="203"/>
<line opacity="0.1" stroke="#FFFFFF" stroke-width="1" x1="110" y1="197" x2="929" y2="197"/>
<line opacity="0.1" stroke="#FFFFFF" stroke-width="1" x1="110" y1="191" x2="929" y2="191"/>
<line opacity="0.1" stroke="#FFFFFF" stroke-width="1" x1="110" y1="185" x2="929" y2="185"/>
<line opacity="0.1" stroke="#FFFFFF" stroke-width="1" x1="110" y1="179" x2="929" y2="179"/>
<line opacity="0.1" stroke="#FFFFFF" stroke-width="1" x1="110" y1="173" x2="929" y2="173"/>
<line opacity="0.1" stroke="#FFFFFF" stroke-width="1" x1="110" y1="167" x2="929" y2="167"/>
<line opacity="0.1" stroke="#FFFFFF" stroke-width="1" x1="110" y1="161" x2="929" y2="161"/>
<line opacity="0.1" stroke="#FFFFFF" stroke-width="1" x1="110" y1="155" x2="929" y2="155"/>
<line opacity="0.1" stroke="#FFFFFF" stroke-width="1" x1="110" y1="149" x2="929" y2="149"/>
<line opacity="0.1" stroke="#FFFFFF" stroke-width="1" x1="110" y1="143" x2="929" y2="143"/>
<line opacity="0.1" stroke="#FFFFFF" stroke-width="1" x1="110" y1="137" x2="929" y2="137"/>
<line opacity="0.1" stroke="#FFFFFF" stroke-width="1" x1="110" y1="131" x2="929" y2="131"/>
<line opacity="0.1" stroke="#FFFFFF" stroke-width="1" x1="110" y1="125" x2="929" y2="125"/>
<line opacity="0.1" stroke="#FFFFFF" stroke-width="1" x1="110" y1="119" x2="929" y2="119"/>
<line opacity="0.1" stroke="#FFFFFF" stroke-width="1" x1="110" y1="113" x2="929" y2="113"/>
<line opacity="0.1" stroke="#FFFFFF" stroke-width="1" x1="110" y1="107" x2="929" y2="107"/>
<line opacity="0.1" stroke="#FFFFFF" stroke-width="1" x1="110" y1="101" x2="929" y2="101"/>
<line opacity="0.1" stroke="#FFFFFF" stroke-width="1" x1="110" y1="95" x2="929" y2="95"/>
<line opacity="0.1" stroke="#FFFFFF" stroke-width="1" x1="110" y1="89" x2="929" y2="89"/>
<line opacity="0.1" stroke="#FFFFFF" stroke-width="1" x1="110" y1="83" x2="929" y2="83"/>
<line opacity="0.1" stroke="#FFFFFF" stroke-width="1" x1="110" y1="77" x2="929" y2="77"/>
<line opacity="0.1" stroke="#FFFFFF" stroke-width="1" x1="110" y1="71" x2="929" y2="71"/>
<line opacity="0.1" stroke="#FFFFFF" stroke-width="1" x1="110" y1="65" x2="929" y2="65"/>
<line opacity="0.1" stroke="#FFFFFF" stroke-width="1" x1="110" y1="59" x2="929" y2="59"/>
<line opacity="0.1" stroke="#FFFFFF" stroke-width="1" x1="110" y1="53" x2="929" y2="53"/>
<line opacity="0.1" stroke="#FFFFFF" stroke-width="1" x1="110" y1="47" x2="929" y2="47"/>
<line opacity="0.1" stroke="#FFFFFF" stroke-width="1" x1="110" y1="41" x2="929" y2="41"/>
<line opacity="0.1" stroke="#FFFFFF" stroke-width="1" x1="110" y1="35" x2="929" y2="35"/>
<text x="30" y="330" dy="0.76em" text-anchor="middle" font-family="ui-sans-serif, system-ui, -apple-system, BlinkMacSystemFont, &quot;Segoe UI&quot;, Roboto, &quot;Helvetica Neue&quot;, Arial, &quot;Noto Sans&quot;, sans-serif, &quot;Apple Color Emoji&quot;, &quot;Segoe UI Emoji&quot;, &quot;Segoe UI Symbol&quot;, &quot;Noto Color Emoji&quot;" font-size="19.35483870967742" opacity="1" fill="#FFFFFF" transform="rotate(270, 30, 330)">
Mean time — lower is better
</text>
<text x="520" y="690" dy="-0.5ex" text-anchor="middle" font-family="ui-sans-serif, system-ui, -apple-system, BlinkMacSystemFont, &quot;Segoe UI&quot;, Roboto, &quot;Helvetica Neue&quot;, Arial, &quot;Noto Sans&quot;, sans-serif, &quot;Apple Color Emoji&quot;, &quot;Segoe UI Emoji&quot;, &quot;Segoe UI Symbol&quot;, &quot;Noto Color Emoji&quot;" font-size="19.35483870967742" opacity="1" fill="#FFFFFF">
Number of modules
</text>
<line opacity="0.2" stroke="#FFFFFF" stroke-width="1" x1="364" y1="629" x2="364" y2="30"/>
<line opacity="0.2" stroke="#FFFFFF" stroke-width="1" x1="929" y1="629" x2="929" y2="30"/>
<line opacity="0.2" stroke="#FFFFFF" stroke-width="1" x1="110" y1="629" x2="110" y2="30"/>
<line opacity="0.2" stroke="#FFFFFF" stroke-width="1" x1="222" y1="629" x2="222" y2="30"/>
<line opacity="0.2" stroke="#FFFFFF" stroke-width="1" x1="110" y1="629" x2="929" y2="629"/>
<line opacity="0.2" stroke="#FFFFFF" stroke-width="1" x1="110" y1="569" x2="929" y2="569"/>
<line opacity="0.2" stroke="#FFFFFF" stroke-width="1" x1="110" y1="509" x2="929" y2="509"/>
<line opacity="0.2" stroke="#FFFFFF" stroke-width="1" x1="110" y1="449" x2="929" y2="449"/>
<line opacity="0.2" stroke="#FFFFFF" stroke-width="1" x1="110" y1="389" x2="929" y2="389"/>
<line opacity="0.2" stroke="#FFFFFF" stroke-width="1" x1="110" y1="329" x2="929" y2="329"/>
<line opacity="0.2" stroke="#FFFFFF" stroke-width="1" x1="110" y1="269" x2="929" y2="269"/>
<line opacity="0.2" stroke="#FFFFFF" stroke-width="1" x1="110" y1="209" x2="929" y2="209"/>
<line opacity="0.2" stroke="#FFFFFF" stroke-width="1" x1="110" y1="149" x2="929" y2="149"/>
<line opacity="0.2" stroke="#FFFFFF" stroke-width="1" x1="110" y1="89" x2="929" y2="89"/>
<polyline fill="none" opacity="1" stroke="#FFFFFF" stroke-width="1" points="109,30 109,629 "/>
<text x="100" y="629" dy="0.5ex" text-anchor="end" font-family="ui-sans-serif, system-ui, -apple-system, BlinkMacSystemFont, &quot;Segoe UI&quot;, Roboto, &quot;Helvetica Neue&quot;, Arial, &quot;Noto Sans&quot;, sans-serif, &quot;Apple Color Emoji&quot;, &quot;Segoe UI Emoji&quot;, &quot;Segoe UI Symbol&quot;, &quot;Noto Color Emoji&quot;" font-size="16.129032258064516" opacity="0.75" fill="#FFFFFF">
0s
</text>
<polyline fill="none" opacity="1" stroke="#FFFFFF" stroke-width="1" points="104,629 109,629 "/>
<text x="100" y="569" dy="0.5ex" text-anchor="end" font-family="ui-sans-serif, system-ui, -apple-system, BlinkMacSystemFont, &quot;Segoe UI&quot;, Roboto, &quot;Helvetica Neue&quot;, Arial, &quot;Noto Sans&quot;, sans-serif, &quot;Apple Color Emoji&quot;, &quot;Segoe UI Emoji&quot;, &quot;Segoe UI Symbol&quot;, &quot;Noto Color Emoji&quot;" font-size="16.129032258064516" opacity="0.75" fill="#FFFFFF">
1s
</text>
<polyline fill="none" opacity="1" stroke="#FFFFFF" stroke-width="1" points="104,569 109,569 "/>
<text x="100" y="509" dy="0.5ex" text-anchor="end" font-family="ui-sans-serif, system-ui, -apple-system, BlinkMacSystemFont, &quot;Segoe UI&quot;, Roboto, &quot;Helvetica Neue&quot;, Arial, &quot;Noto Sans&quot;, sans-serif, &quot;Apple Color Emoji&quot;, &quot;Segoe UI Emoji&quot;, &quot;Segoe UI Symbol&quot;, &quot;Noto Color Emoji&quot;" font-size="16.129032258064516" opacity="0.75" fill="#FFFFFF">
2s
</text>
<polyline fill="none" opacity="1" stroke="#FFFFFF" stroke-width="1" points="104,509 109,509 "/>
<text x="100" y="449" dy="0.5ex" text-anchor="end" font-family="ui-sans-serif, system-ui, -apple-system, BlinkMacSystemFont, &quot;Segoe UI&quot;, Roboto, &quot;Helvetica Neue&quot;, Arial, &quot;Noto Sans&quot;, sans-serif, &quot;Apple Color Emoji&quot;, &quot;Segoe UI Emoji&quot;, &quot;Segoe UI Symbol&quot;, &quot;Noto Color Emoji&quot;" font-size="16.129032258064516" opacity="0.75" fill="#FFFFFF">
3s
</text>
<polyline fill="none" opacity="1" stroke="#FFFFFF" stroke-width="1" points="104,449 109,449 "/>
<text x="100" y="389" dy="0.5ex" text-anchor="end" font-family="ui-sans-serif, system-ui, -apple-system, BlinkMacSystemFont, &quot;Segoe UI&quot;, Roboto, &quot;Helvetica Neue&quot;, Arial, &quot;Noto Sans&quot;, sans-serif, &quot;Apple Color Emoji&quot;, &quot;Segoe UI Emoji&quot;, &quot;Segoe UI Symbol&quot;, &quot;Noto Color Emoji&quot;" font-size="16.129032258064516" opacity="0.75" fill="#FFFFFF">
4s
</text>
<polyline fill="none" opacity="1" stroke="#FFFFFF" stroke-width="1" points="104,389 109,389 "/>
<text x="100" y="329" dy="0.5ex" text-anchor="end" font-family="ui-sans-serif, system-ui, -apple-system, BlinkMacSystemFont, &quot;Segoe UI&quot;, Roboto, &quot;Helvetica Neue&quot;, Arial, &quot;Noto Sans&quot;, sans-serif, &quot;Apple Color Emoji&quot;, &quot;Segoe UI Emoji&quot;, &quot;Segoe UI Symbol&quot;, &quot;Noto Color Emoji&quot;" font-size="16.129032258064516" opacity="0.75" fill="#FFFFFF">
5s
</text>
<polyline fill="none" opacity="1" stroke="#FFFFFF" stroke-width="1" points="104,329 109,329 "/>
<text x="100" y="269" dy="0.5ex" text-anchor="end" font-family="ui-sans-serif, system-ui, -apple-system, BlinkMacSystemFont, &quot;Segoe UI&quot;, Roboto, &quot;Helvetica Neue&quot;, Arial, &quot;Noto Sans&quot;, sans-serif, &quot;Apple Color Emoji&quot;, &quot;Segoe UI Emoji&quot;, &quot;Segoe UI Symbol&quot;, &quot;Noto Color Emoji&quot;" font-size="16.129032258064516" opacity="0.75" fill="#FFFFFF">
6s
</text>
<polyline fill="none" opacity="1" stroke="#FFFFFF" stroke-width="1" points="104,269 109,269 "/>
<text x="100" y="209" dy="0.5ex" text-anchor="end" font-family="ui-sans-serif, system-ui, -apple-system, BlinkMacSystemFont, &quot;Segoe UI&quot;, Roboto, &quot;Helvetica Neue&quot;, Arial, &quot;Noto Sans&quot;, sans-serif, &quot;Apple Color Emoji&quot;, &quot;Segoe UI Emoji&quot;, &quot;Segoe UI Symbol&quot;, &quot;Noto Color Emoji&quot;" font-size="16.129032258064516" opacity="0.75" fill="#FFFFFF">
7s
</text>
<polyline fill="none" opacity="1" stroke="#FFFFFF" stroke-width="1" points="104,209 109,209 "/>
<text x="100" y="149" dy="0.5ex" text-anchor="end" font-family="ui-sans-serif, system-ui, -apple-system, BlinkMacSystemFont, &quot;Segoe UI&quot;, Roboto, &quot;Helvetica Neue&quot;, Arial, &quot;Noto Sans&quot;, sans-serif, &quot;Apple Color Emoji&quot;, &quot;Segoe UI Emoji&quot;, &quot;Segoe UI Symbol&quot;, &quot;Noto Color Emoji&quot;" font-size="16.129032258064516" opacity="0.75" fill="#FFFFFF">
8s
</text>
<polyline fill="none" opacity="1" stroke="#FFFFFF" stroke-width="1" points="104,149 109,149 "/>
<text x="100" y="89" dy="0.5ex" text-anchor="end" font-family="ui-sans-serif, system-ui, -apple-system, BlinkMacSystemFont, &quot;Segoe UI&quot;, Roboto, &quot;Helvetica Neue&quot;, Arial, &quot;Noto Sans&quot;, sans-serif, &quot;Apple Color Emoji&quot;, &quot;Segoe UI Emoji&quot;, &quot;Segoe UI Symbol&quot;, &quot;Noto Color Emoji&quot;" font-size="16.129032258064516" opacity="0.75" fill="#FFFFFF">
9s
</text>
<polyline fill="none" opacity="1" stroke="#FFFFFF" stroke-width="1" points="104,89 109,89 "/>
<polyline fill="none" opacity="1" stroke="#FFFFFF" stroke-width="1" points="110,630 929,630 "/>
<text x="364" y="640" dy="0.76em" text-anchor="middle" font-family="ui-sans-serif, system-ui, -apple-system, BlinkMacSystemFont, &quot;Segoe UI&quot;, Roboto, &quot;Helvetica Neue&quot;, Arial, &quot;Noto Sans&quot;, sans-serif, &quot;Apple Color Emoji&quot;, &quot;Segoe UI Emoji&quot;, &quot;Segoe UI Symbol&quot;, &quot;Noto Color Emoji&quot;" font-size="16.129032258064516" opacity="0.75" fill="#FFFFFF">
10,000
</text>
<polyline fill="none" opacity="1" stroke="#FFFFFF" stroke-width="1" points="364,630 364,635 "/>
<text x="929" y="640" dy="0.76em" text-anchor="middle" font-family="ui-sans-serif, system-ui, -apple-system, BlinkMacSystemFont, &quot;Segoe UI&quot;, Roboto, &quot;Helvetica Neue&quot;, Arial, &quot;Noto Sans&quot;, sans-serif, &quot;Apple Color Emoji&quot;, &quot;Segoe UI Emoji&quot;, &quot;Segoe UI Symbol&quot;, &quot;Noto Color Emoji&quot;" font-size="16.129032258064516" opacity="0.75" fill="#FFFFFF">
30,000
</text>
<polyline fill="none" opacity="1" stroke="#FFFFFF" stroke-width="1" points="929,630 929,635 "/>
<text x="110" y="640" dy="0.76em" text-anchor="middle" font-family="ui-sans-serif, system-ui, -apple-system, BlinkMacSystemFont, &quot;Segoe UI&quot;, Roboto, &quot;Helvetica Neue&quot;, Arial, &quot;Noto Sans&quot;, sans-serif, &quot;Apple Color Emoji&quot;, &quot;Segoe UI Emoji&quot;, &quot;Segoe UI Symbol&quot;, &quot;Noto Color Emoji&quot;" font-size="16.129032258064516" opacity="0.75" fill="#FFFFFF">
1,000
</text>
<polyline fill="none" opacity="1" stroke="#FFFFFF" stroke-width="1" points="110,630 110,635 "/>
<text x="222" y="640" dy="0.76em" text-anchor="middle" font-family="ui-sans-serif, system-ui, -apple-system, BlinkMacSystemFont, &quot;Segoe UI&quot;, Roboto, &quot;Helvetica Neue&quot;, Arial, &quot;Noto Sans&quot;, sans-serif, &quot;Apple Color Emoji&quot;, &quot;Segoe UI Emoji&quot;, &quot;Segoe UI Symbol&quot;, &quot;Noto Color Emoji&quot;" font-size="16.129032258064516" opacity="0.75" fill="#FFFFFF">
5,000
</text>
<polyline fill="none" opacity="1" stroke="#FFFFFF" stroke-width="1" points="222,630 222,635 "/>
<rect x="115" y="35" width="175" height="123" opacity="1" fill="#222222" stroke="none"/>
<rect x="115" y="35" width="175" height="123" opacity="0.2" fill="none" stroke="#FFFFFF"/>
<text x="161" y="51" dy="0.76em" text-anchor="start" font-family="ui-sans-serif, system-ui, -apple-system, BlinkMacSystemFont, &quot;Segoe UI&quot;, Roboto, &quot;Helvetica Neue&quot;, Arial, &quot;Noto Sans&quot;, sans-serif, &quot;Apple Color Emoji&quot;, &quot;Segoe UI Emoji&quot;, &quot;Segoe UI Symbol&quot;, &quot;Noto Color Emoji&quot;" font-size="16.129032258064516" opacity="1" fill="#FFFFFF">
Next.js 11 SSR
</text>
<text x="161" y="76" dy="0.76em" text-anchor="start" font-family="ui-sans-serif, system-ui, -apple-system, BlinkMacSystemFont, &quot;Segoe UI&quot;, Roboto, &quot;Helvetica Neue&quot;, Arial, &quot;Noto Sans&quot;, sans-serif, &quot;Apple Color Emoji&quot;, &quot;Segoe UI Emoji&quot;, &quot;Segoe UI Symbol&quot;, &quot;Noto Color Emoji&quot;" font-size="16.129032258064516" opacity="1" fill="#FFFFFF">
Next.js 12 SSR
</text>
<text x="161" y="101" dy="0.76em" text-anchor="start" font-family="ui-sans-serif, system-ui, -apple-system, BlinkMacSystemFont, &quot;Segoe UI&quot;, Roboto, &quot;Helvetica Neue&quot;, Arial, &quot;Noto Sans&quot;, sans-serif, &quot;Apple Color Emoji&quot;, &quot;Segoe UI Emoji&quot;, &quot;Segoe UI Symbol&quot;, &quot;Noto Color Emoji&quot;" font-size="16.129032258064516" opacity="1" fill="#FFFFFF">
Vite SWC CSR
</text>
<text x="161" y="126" dy="0.76em" text-anchor="start" font-family="ui-sans-serif, system-ui, -apple-system, BlinkMacSystemFont, &quot;Segoe UI&quot;, Roboto, &quot;Helvetica Neue&quot;, Arial, &quot;Noto Sans&quot;, sans-serif, &quot;Apple Color Emoji&quot;, &quot;Segoe UI Emoji&quot;, &quot;Segoe UI Symbol&quot;, &quot;Noto Color Emoji&quot;" font-size="16.129032258064516" opacity="1" fill="#FFFFFF">
Turbopack SSR
</text>
<polyline fill="none" opacity="1" stroke="#2196F3" stroke-width="4" points="131,59 151,59 "/>
<polyline fill="none" opacity="1" stroke="#00BCD4" stroke-width="4" points="131,84 151,84 "/>
<polyline fill="none" opacity="1" stroke="#4CAF50" stroke-width="4" points="131,109 151,109 "/>
<polyline fill="none" opacity="1" stroke="#F44336" stroke-width="4" points="131,134 151,134 "/>
</svg>
