<svg width="960" height="720" viewBox="0 0 960 720" xmlns="http://www.w3.org/2000/svg">
<polyline fill="none" opacity="1" stroke="#4CAF50" stroke-width="4" points="110,181 222,160 364,146 929,59 "/>
<polyline fill="none" opacity="1" stroke="#F44336" stroke-width="4" points="110,549 222,528 364,531 929,533 "/>
<line opacity="0.1" stroke="#FFFFFF" stroke-width="1" x1="110" y1="629" x2="929" y2="629"/>
<line opacity="0.1" stroke="#FFFFFF" stroke-width="1" x1="110" y1="621" x2="929" y2="621"/>
<line opacity="0.1" stroke="#FFFFFF" stroke-width="1" x1="110" y1="612" x2="929" y2="612"/>
<line opacity="0.1" stroke="#FFFFFF" stroke-width="1" x1="110" y1="604" x2="929" y2="604"/>
<line opacity="0.1" stroke="#FFFFFF" stroke-width="1" x1="110" y1="595" x2="929" y2="595"/>
<line opacity="0.1" stroke="#FFFFFF" stroke-width="1" x1="110" y1="587" x2="929" y2="587"/>
<line opacity="0.1" stroke="#FFFFFF" stroke-width="1" x1="110" y1="578" x2="929" y2="578"/>
<line opacity="0.1" stroke="#FFFFFF" stroke-width="1" x1="110" y1="570" x2="929" y2="570"/>
<line opacity="0.1" stroke="#FFFFFF" stroke-width="1" x1="110" y1="561" x2="929" y2="561"/>
<line opacity="0.1" stroke="#FFFFFF" stroke-width="1" x1="110" y1="552" x2="929" y2="552"/>
<line opacity="0.1" stroke="#FFFFFF" stroke-width="1" x1="110" y1="544" x2="929" y2="544"/>
<line opacity="0.1" stroke="#FFFFFF" stroke-width="1" x1="110" y1="535" x2="929" y2="535"/>
<line opacity="0.1" stroke="#FFFFFF" stroke-width="1" x1="110" y1="527" x2="929" y2="527"/>
<line opacity="0.1" stroke="#FFFFFF" stroke-width="1" x1="110" y1="518" x2="929" y2="518"/>
<line opacity="0.1" stroke="#FFFFFF" stroke-width="1" x1="110" y1="510" x2="929" y2="510"/>
<line opacity="0.1" stroke="#FFFFFF" stroke-width="1" x1="110" y1="501" x2="929" y2="501"/>
<line opacity="0.1" stroke="#FFFFFF" stroke-width="1" x1="110" y1="493" x2="929" y2="493"/>
<line opacity="0.1" stroke="#FFFFFF" stroke-width="1" x1="110" y1="484" x2="929" y2="484"/>
<line opacity="0.1" stroke="#FFFFFF" stroke-width="1" x1="110" y1="475" x2="929" y2="475"/>
<line opacity="0.1" stroke="#FFFFFF" stroke-width="1" x1="110" y1="467" x2="929" y2="467"/>
<line opacity="0.1" stroke="#FFFFFF" stroke-width="1" x1="110" y1="458" x2="929" y2="458"/>
<line opacity="0.1" stroke="#FFFFFF" stroke-width="1" x1="110" y1="450" x2="929" y2="450"/>
<line opacity="0.1" stroke="#FFFFFF" stroke-width="1" x1="110" y1="441" x2="929" y2="441"/>
<line opacity="0.1" stroke="#FFFFFF" stroke-width="1" x1="110" y1="433" x2="929" y2="433"/>
<line opacity="0.1" stroke="#FFFFFF" stroke-width="1" x1="110" y1="424" x2="929" y2="424"/>
<line opacity="0.1" stroke="#FFFFFF" stroke-width="1" x1="110" y1="415" x2="929" y2="415"/>
<line opacity="0.1" stroke="#FFFFFF" stroke-width="1" x1="110" y1="407" x2="929" y2="407"/>
<line opacity="0.1" stroke="#FFFFFF" stroke-width="1" x1="110" y1="398" x2="929" y2="398"/>
<line opacity="0.1" stroke="#FFFFFF" stroke-width="1" x1="110" y1="390" x2="929" y2="390"/>
<line opacity="0.1" stroke="#FFFFFF" stroke-width="1" x1="110" y1="381" x2="929" y2="381"/>
<line opacity="0.1" stroke="#FFFFFF" stroke-width="1" x1="110" y1="373" x2="929" y2="373"/>
<line opacity="0.1" stroke="#FFFFFF" stroke-width="1" x1="110" y1="364" x2="929" y2="364"/>
<line opacity="0.1" stroke="#FFFFFF" stroke-width="1" x1="110" y1="356" x2="929" y2="356"/>
<line opacity="0.1" stroke="#FFFFFF" stroke-width="1" x1="110" y1="347" x2="929" y2="347"/>
<line opacity="0.1" stroke="#FFFFFF" stroke-width="1" x1="110" y1="338" x2="929" y2="338"/>
<line opacity="0.1" stroke="#FFFFFF" stroke-width="1" x1="110" y1="330" x2="929" y2="330"/>
<line opacity="0.1" stroke="#FFFFFF" stroke-width="1" x1="110" y1="321" x2="929" y2="321"/>
<line opacity="0.1" stroke="#FFFFFF" stroke-width="1" x1="110" y1="313" x2="929" y2="313"/>
<line opacity="0.1" stroke="#FFFFFF" stroke-width="1" x1="110" y1="304" x2="929" y2="304"/>
<line opacity="0.1" stroke="#FFFFFF" stroke-width="1" x1="110" y1="296" x2="929" y2="296"/>
<line opacity="0.1" stroke="#FFFFFF" stroke-width="1" x1="110" y1="287" x2="929" y2="287"/>
<line opacity="0.1" stroke="#FFFFFF" stroke-width="1" x1="110" y1="279" x2="929" y2="279"/>
<line opacity="0.1" stroke="#FFFFFF" stroke-width="1" x1="110" y1="270" x2="929" y2="270"/>
<line opacity="0.1" stroke="#FFFFFF" stroke-width="1" x1="110" y1="261" x2="929" y2="261"/>
<line opacity="0.1" stroke="#FFFFFF" stroke-width="1" x1="110" y1="253" x2="929" y2="253"/>
<line opacity="0.1" stroke="#FFFFFF" stroke-width="1" x1="110" y1="244" x2="929" y2="244"/>
<line opacity="0.1" stroke="#FFFFFF" stroke-width="1" x1="110" y1="236" x2="929" y2="236"/>
<line opacity="0.1" stroke="#FFFFFF" stroke-width="1" x1="110" y1="227" x2="929" y2="227"/>
<line opacity="0.1" stroke="#FFFFFF" stroke-width="1" x1="110" y1="219" x2="929" y2="219"/>
<line opacity="0.1" stroke="#FFFFFF" stroke-width="1" x1="110" y1="210" x2="929" y2="210"/>
<line opacity="0.1" stroke="#FFFFFF" stroke-width="1" x1="110" y1="201" x2="929" y2="201"/>
<line opacity="0.1" stroke="#FFFFFF" stroke-width="1" x1="110" y1="193" x2="929" y2="193"/>
<line opacity="0.1" stroke="#FFFFFF" stroke-width="1" x1="110" y1="184" x2="929" y2="184"/>
<line opacity="0.1" stroke="#FFFFFF" stroke-width="1" x1="110" y1="176" x2="929" y2="176"/>
<line opacity="0.1" stroke="#FFFFFF" stroke-width="1" x1="110" y1="167" x2="929" y2="167"/>
<line opacity="0.1" stroke="#FFFFFF" stroke-width="1" x1="110" y1="159" x2="929" y2="159"/>
<line opacity="0.1" stroke="#FFFFFF" stroke-width="1" x1="110" y1="150" x2="929" y2="150"/>
<line opacity="0.1" stroke="#FFFFFF" stroke-width="1" x1="110" y1="142" x2="929" y2="142"/>
<line opacity="0.1" stroke="#FFFFFF" stroke-width="1" x1="110" y1="133" x2="929" y2="133"/>
<line opacity="0.1" stroke="#FFFFFF" stroke-width="1" x1="110" y1="124" x2="929" y2="124"/>
<line opacity="0.1" stroke="#FFFFFF" stroke-width="1" x1="110" y1="116" x2="929" y2="116"/>
<line opacity="0.1" stroke="#FFFFFF" stroke-width="1" x1="110" y1="107" x2="929" y2="107"/>
<line opacity="0.1" stroke="#FFFFFF" stroke-width="1" x1="110" y1="99" x2="929" y2="99"/>
<line opacity="0.1" stroke="#FFFFFF" stroke-width="1" x1="110" y1="90" x2="929" y2="90"/>
<line opacity="0.1" stroke="#FFFFFF" stroke-width="1" x1="110" y1="82" x2="929" y2="82"/>
<line opacity="0.1" stroke="#FFFFFF" stroke-width="1" x1="110" y1="73" x2="929" y2="73"/>
<line opacity="0.1" stroke="#FFFFFF" stroke-width="1" x1="110" y1="65" x2="929" y2="65"/>
<line opacity="0.1" stroke="#FFFFFF" stroke-width="1" x1="110" y1="56" x2="929" y2="56"/>
<line opacity="0.1" stroke="#FFFFFF" stroke-width="1" x1="110" y1="47" x2="929" y2="47"/>
<line opacity="0.1" stroke="#FFFFFF" stroke-width="1" x1="110" y1="39" x2="929" y2="39"/>
<text x="30" y="330" dy="0.76em" text-anchor="middle" font-family="ui-sans-serif, system-ui, -apple-system, BlinkMacSystemFont, &quot;Segoe UI&quot;, Roboto, &quot;Helvetica Neue&quot;, Arial, &quot;Noto Sans&quot;, sans-serif, &quot;Apple Color Emoji&quot;, &quot;Segoe UI Emoji&quot;, &quot;Segoe UI Symbol&quot;, &quot;Noto Color Emoji&quot;" font-size="19.35483870967742" opacity="1" fill="#FFFFFF" transform="rotate(270, 30, 330)">
Mean time — lower is better
</text>
<text x="520" y="690" dy="-0.5ex" text-anchor="middle" font-family="ui-sans-serif, system-ui, -apple-system, BlinkMacSystemFont, &quot;Segoe UI&quot;, Roboto, &quot;Helvetica Neue&quot;, Arial, &quot;Noto Sans&quot;, sans-serif, &quot;Apple Color Emoji&quot;, &quot;Segoe UI Emoji&quot;, &quot;Segoe UI Symbol&quot;, &quot;Noto Color Emoji&quot;" font-size="19.35483870967742" opacity="1" fill="#FFFFFF">
Number of modules
</text>
<line opacity="0.2" stroke="#FFFFFF" stroke-width="1" x1="929" y1="629" x2="929" y2="30"/>
<line opacity="0.2" stroke="#FFFFFF" stroke-width="1" x1="364" y1="629" x2="364" y2="30"/>
<line opacity="0.2" stroke="#FFFFFF" stroke-width="1" x1="222" y1="629" x2="222" y2="30"/>
<line opacity="0.2" stroke="#FFFFFF" stroke-width="1" x1="110" y1="629" x2="110" y2="30"/>
<line opacity="0.2" stroke="#FFFFFF" stroke-width="1" x1="110" y1="629" x2="929" y2="629"/>
<line opacity="0.2" stroke="#FFFFFF" stroke-width="1" x1="110" y1="544" x2="929" y2="544"/>
<line opacity="0.2" stroke="#FFFFFF" stroke-width="1" x1="110" y1="458" x2="929" y2="458"/>
<line opacity="0.2" stroke="#FFFFFF" stroke-width="1" x1="110" y1="373" x2="929" y2="373"/>
<line opacity="0.2" stroke="#FFFFFF" stroke-width="1" x1="110" y1="287" x2="929" y2="287"/>
<line opacity="0.2" stroke="#FFFFFF" stroke-width="1" x1="110" y1="201" x2="929" y2="201"/>
<line opacity="0.2" stroke="#FFFFFF" stroke-width="1" x1="110" y1="116" x2="929" y2="116"/>
<polyline fill="none" opacity="1" stroke="#FFFFFF" stroke-width="1" points="109,30 109,629 "/>
<text x="100" y="629" dy="0.5ex" text-anchor="end" font-family="ui-sans-serif, system-ui, -apple-system, BlinkMacSystemFont, &quot;Segoe UI&quot;, Roboto, &quot;Helvetica Neue&quot;, Arial, &quot;Noto Sans&quot;, sans-serif, &quot;Apple Color Emoji&quot;, &quot;Segoe UI Emoji&quot;, &quot;Segoe UI Symbol&quot;, &quot;Noto Color Emoji&quot;" font-size="16.129032258064516" opacity="0.75" fill="#FFFFFF">
0ms
</text>
<polyline fill="none" opacity="1" stroke="#FFFFFF" stroke-width="1" points="104,629 109,629 "/>
<text x="100" y="544" dy="0.5ex" text-anchor="end" font-family="ui-sans-serif, system-ui, -apple-system, BlinkMacSystemFont, &quot;Segoe UI&quot;, Roboto, &quot;Helvetica Neue&quot;, Arial, &quot;Noto Sans&quot;, sans-serif, &quot;Apple Color Emoji&quot;, &quot;Segoe UI Emoji&quot;, &quot;Segoe UI Symbol&quot;, &quot;Noto Color Emoji&quot;" font-size="16.129032258064516" opacity="0.75" fill="#FFFFFF">
20ms
</text>
<polyline fill="none" opacity="1" stroke="#FFFFFF" stroke-width="1" points="104,544 109,544 "/>
<text x="100" y="458" dy="0.5ex" text-anchor="end" font-family="ui-sans-serif, system-ui, -apple-system, BlinkMacSystemFont, &quot;Segoe UI&quot;, Roboto, &quot;Helvetica Neue&quot;, Arial, &quot;Noto Sans&quot;, sans-serif, &quot;Apple Color Emoji&quot;, &quot;Segoe UI Emoji&quot;, &quot;Segoe UI Symbol&quot;, &quot;Noto Color Emoji&quot;" font-size="16.129032258064516" opacity="0.75" fill="#FFFFFF">
40ms
</text>
<polyline fill="none" opacity="1" stroke="#FFFFFF" stroke-width="1" points="104,458 109,458 "/>
<text x="100" y="373" dy="0.5ex" text-anchor="end" font-family="ui-sans-serif, system-ui, -apple-system, BlinkMacSystemFont, &quot;Segoe UI&quot;, Roboto, &quot;Helvetica Neue&quot;, Arial, &quot;Noto Sans&quot;, sans-serif, &quot;Apple Color Emoji&quot;, &quot;Segoe UI Emoji&quot;, &quot;Segoe UI Symbol&quot;, &quot;Noto Color Emoji&quot;" font-size="16.129032258064516" opacity="0.75" fill="#FFFFFF">
60ms
</text>
<polyline fill="none" opacity="1" stroke="#FFFFFF" stroke-width="1" points="104,373 109,373 "/>
<text x="100" y="287" dy="0.5ex" text-anchor="end" font-family="ui-sans-serif, system-ui, -apple-system, BlinkMacSystemFont, &quot;Segoe UI&quot;, Roboto, &quot;Helvetica Neue&quot;, Arial, &quot;Noto Sans&quot;, sans-serif, &quot;Apple Color Emoji&quot;, &quot;Segoe UI Emoji&quot;, &quot;Segoe UI Symbol&quot;, &quot;Noto Color Emoji&quot;" font-size="16.129032258064516" opacity="0.75" fill="#FFFFFF">
80ms
</text>
<polyline fill="none" opacity="1" stroke="#FFFFFF" stroke-width="1" points="104,287 109,287 "/>
<text x="100" y="201" dy="0.5ex" text-anchor="end" font-family="ui-sans-serif, system-ui, -apple-system, BlinkMacSystemFont, &quot;Segoe UI&quot;, Roboto, &quot;Helvetica Neue&quot;, Arial, &quot;Noto Sans&quot;, sans-serif, &quot;Apple Color Emoji&quot;, &quot;Segoe UI Emoji&quot;, &quot;Segoe UI Symbol&quot;, &quot;Noto Color Emoji&quot;" font-size="16.129032258064516" opacity="0.75" fill="#FFFFFF">
100ms
</text>
<polyline fill="none" opacity="1" stroke="#FFFFFF" stroke-width="1" points="104,201 109,201 "/>
<text x="100" y="116" dy="0.5ex" text-anchor="end" font-family="ui-sans-serif, system-ui, -apple-system, BlinkMacSystemFont, &quot;Segoe UI&quot;, Roboto, &quot;Helvetica Neue&quot;, Arial, &quot;Noto Sans&quot;, sans-serif, &quot;Apple Color Emoji&quot;, &quot;Segoe UI Emoji&quot;, &quot;Segoe UI Symbol&quot;, &quot;Noto Color Emoji&quot;" font-size="16.129032258064516" opacity="0.75" fill="#FFFFFF">
120ms
</text>
<polyline fill="none" opacity="1" stroke="#FFFFFF" stroke-width="1" points="104,116 109,116 "/>
<polyline fill="none" opacity="1" stroke="#FFFFFF" stroke-width="1" points="110,630 929,630 "/>
<text x="929" y="640" dy="0.76em" text-anchor="middle" font-family="ui-sans-serif, system-ui, -apple-system, BlinkMacSystemFont, &quot;Segoe UI&quot;, Roboto, &quot;Helvetica Neue&quot;, Arial, &quot;Noto Sans&quot;, sans-serif, &quot;Apple Color Emoji&quot;, &quot;Segoe UI Emoji&quot;, &quot;Segoe UI Symbol&quot;, &quot;Noto Color Emoji&quot;" font-size="16.129032258064516" opacity="0.75" fill="#FFFFFF">
30,000
</text>
<polyline fill="none" opacity="1" stroke="#FFFFFF" stroke-width="1" points="929,630 929,635 "/>
<text x="364" y="640" dy="0.76em" text-anchor="middle" font-family="ui-sans-serif, system-ui, -apple-system, BlinkMacSystemFont, &quot;Segoe UI&quot;, Roboto, &quot;Helvetica Neue&quot;, Arial, &quot;Noto Sans&quot;, sans-serif, &quot;Apple Color Emoji&quot;, &quot;Segoe UI Emoji&quot;, &quot;Segoe UI Symbol&quot;, &quot;Noto Color Emoji&quot;" font-size="16.129032258064516" opacity="0.75" fill="#FFFFFF">
10,000
</text>
<polyline fill="none" opacity="1" stroke="#FFFFFF" stroke-width="1" points="364,630 364,635 "/>
<text x="222" y="640" dy="0.76em" text-anchor="middle" font-family="ui-sans-serif, system-ui, -apple-system, BlinkMacSystemFont, &quot;Segoe UI&quot;, Roboto, &quot;Helvetica Neue&quot;, Arial, &quot;Noto Sans&quot;, sans-serif, &quot;Apple Color Emoji&quot;, &quot;Segoe UI Emoji&quot;, &quot;Segoe UI Symbol&quot;, &quot;Noto Color Emoji&quot;" font-size="16.129032258064516" opacity="0.75" fill="#FFFFFF">
5,000
</text>
<polyline fill="none" opacity="1" stroke="#FFFFFF" stroke-width="1" points="222,630 222,635 "/>
<text x="110" y="640" dy="0.76em" text-anchor="middle" font-family="ui-sans-serif, system-ui, -apple-system, BlinkMacSystemFont, &quot;Segoe UI&quot;, Roboto, &quot;Helvetica Neue&quot;, Arial, &quot;Noto Sans&quot;, sans-serif, &quot;Apple Color Emoji&quot;, &quot;Segoe UI Emoji&quot;, &quot;Segoe UI Symbol&quot;, &quot;Noto Color Emoji&quot;" font-size="16.129032258064516" opacity="0.75" fill="#FFFFFF">
1,000
</text>
<polyline fill="none" opacity="1" stroke="#FFFFFF" stroke-width="1" points="110,630 110,635 "/>
<rect x="115" y="35" width="175" height="73" opacity="1" fill="#222222" stroke="none"/>
<rect x="115" y="35" width="175" height="73" opacity="0.2" fill="none" stroke="#FFFFFF"/>
<text x="161" y="51" dy="0.76em" text-anchor="start" font-family="ui-sans-serif, system-ui, -apple-system, BlinkMacSystemFont, &quot;Segoe UI&quot;, Roboto, &quot;Helvetica Neue&quot;, Arial, &quot;Noto Sans&quot;, sans-serif, &quot;Apple Color Emoji&quot;, &quot;Segoe UI Emoji&quot;, &quot;Segoe UI Symbol&quot;, &quot;Noto Color Emoji&quot;" font-size="16.129032258064516" opacity="1" fill="#FFFFFF">
Vite SWC CSR
</text>
<text x="161" y="76" dy="0.76em" text-anchor="start" font-family="ui-sans-serif, system-ui, -apple-system, BlinkMacSystemFont, &quot;Segoe UI&quot;, Roboto, &quot;Helvetica Neue&quot;, Arial, &quot;Noto Sans&quot;, sans-serif, &quot;Apple Color Emoji&quot;, &quot;Segoe UI Emoji&quot;, &quot;Segoe UI Symbol&quot;, &quot;Noto Color Emoji&quot;" font-size="16.129032258064516" opacity="1" fill="#FFFFFF">
Turbopack SSR
</text>
<polyline fill="none" opacity="1" stroke="#4CAF50" stroke-width="4" points="131,59 151,59 "/>
<polyline fill="none" opacity="1" stroke="#F44336" stroke-width="4" points="131,84 151,84 "/>
</svg>
