<svg width="251" height="39" viewBox="0 0 251 39" fill="none" xmlns="http://www.w3.org/2000/svg">
<g clip-path="url(#clip0_1062_1062)">
<path d="M69.1223 18.4388H63.3491L72.2582 1.19797H78.6499L87.1509 18.4388H80.7378L79.4426 15.3308H70.5106L69.1223 18.4388ZM77.8914 11.5777L75.1395 5.30467L72.224 11.5777H77.8914Z" fill="#FF6600"/>
<path d="M88.4497 1.19756H93.9903V18.4377H88.4497V1.19756Z" fill="#FF6600"/>
<path d="M96.8174 1.19756H102.358V4.71506H96.8174V1.19756ZM96.8174 6.41603H102.358V18.4187H96.8174V6.41603Z" fill="#FF6600"/>
<path d="M105.382 1.19769H110.922V8.14315C111.582 7.46315 112.319 6.9533 113.135 6.61298C113.951 6.27456 114.844 6.10313 115.814 6.10313C117.702 6.10313 119.219 6.70758 120.364 7.91648C121.509 9.12475 122.082 10.7267 122.082 12.7229C122.082 14.5394 121.517 15.994 120.387 17.0899C119.257 18.1845 117.758 18.7318 115.885 18.7318C114.853 18.7318 113.916 18.5439 113.076 18.1661C112.239 17.7883 111.521 17.2321 110.922 16.5007C110.922 16.8981 110.908 17.2594 110.876 17.587C110.845 17.9147 110.794 18.1972 110.723 18.4385H105.184C105.246 18.2137 105.294 17.9305 105.329 17.5934C105.365 17.2543 105.382 16.8677 105.382 16.4308V1.19769ZM116.482 12.4816C116.482 11.4213 116.233 10.5863 115.735 9.97428C115.239 9.36157 114.563 9.05617 113.709 9.05617C112.792 9.05617 112.09 9.35078 111.605 9.93936C111.12 10.5279 110.876 11.3813 110.876 12.5045C110.876 13.5648 111.121 14.3883 111.61 14.9769C112.1 15.5635 112.783 15.8575 113.662 15.8575C114.525 15.8575 115.21 15.5546 115.719 14.947C116.228 14.3388 116.482 13.5172 116.482 12.4816Z" fill="#FF6600"/>
<path d="M134.72 16.5126C134.194 17.2072 133.507 17.7208 132.668 18.0554C131.828 18.39 130.812 18.5583 129.615 18.5583C127.91 18.5583 126.601 18.2542 125.684 17.6472C124.767 17.0395 124.309 16.1792 124.309 15.0656C124.309 13.5468 125.099 12.4503 126.68 11.7754C128.263 11.103 130.911 10.75 134.628 10.7189C134.628 10.696 134.631 10.6509 134.639 10.5849C134.647 10.5189 134.651 10.4706 134.651 10.4395C134.651 9.82552 134.466 9.36646 134.098 9.06297C133.728 8.76075 133.175 8.60836 132.436 8.60836C131.769 8.60836 131.255 8.71947 130.898 8.94106C130.542 9.16202 130.328 9.49535 130.259 9.9379H125.145C125.17 8.60582 125.798 7.61407 127.036 6.96454C128.273 6.31374 130.157 5.98866 132.692 5.98866C135.127 5.98866 136.94 6.36771 138.13 7.12708C139.317 7.88518 139.914 9.04202 139.914 10.5919V16.7126C139.914 17.0916 139.933 17.3989 139.967 17.6319C140.002 17.8656 140.061 18.0815 140.147 18.284H135.014C134.911 17.9976 134.839 17.7081 134.791 17.418C134.745 17.1265 134.72 16.8243 134.72 16.5126ZM134.604 13.084C132.812 13.084 131.591 13.2014 130.941 13.4344C130.29 13.6681 129.965 14.0763 129.965 14.6598C129.965 15.056 130.123 15.3652 130.438 15.5862C130.754 15.8078 131.2 15.9189 131.777 15.9189C132.72 15.9189 133.426 15.6986 133.896 15.2598C134.368 14.8205 134.604 14.1576 134.604 13.2719V13.084Z" fill="#FF6600"/>
<path d="M142.435 1.19769H147.976V8.14315C148.635 7.46315 149.373 6.9533 150.189 6.61298C151.004 6.27456 151.899 6.10313 152.868 6.10313C154.754 6.10313 156.271 6.70758 157.418 7.91648C158.562 9.12475 159.135 10.7267 159.135 12.7229C159.135 14.5394 158.57 15.994 157.439 17.0899C156.31 18.1845 154.81 18.7318 152.937 18.7318C151.904 18.7318 150.969 18.5439 150.131 18.1661C149.292 17.7883 148.574 17.2321 147.976 16.5007C147.976 16.8981 147.96 17.2594 147.929 17.587C147.898 17.9147 147.848 18.1972 147.777 18.4385H142.237C142.298 18.2137 142.348 17.9305 142.382 17.5934C142.419 17.2543 142.435 16.8677 142.435 16.4308V1.19769ZM153.535 12.4816C153.535 11.4213 153.286 10.5863 152.789 9.97428C152.292 9.36157 151.616 9.05617 150.761 9.05617C149.845 9.05617 149.143 9.35078 148.658 9.93936C148.173 10.5279 147.929 11.3813 147.929 12.5045C147.929 13.5648 148.173 14.3883 148.663 14.9769C149.154 15.5635 149.837 15.8575 150.716 15.8575C151.578 15.8575 152.262 15.5546 152.772 14.947C153.281 14.3388 153.535 13.5172 153.535 12.4816Z" fill="#FF6600"/>
<path d="M171.773 16.5126C171.245 17.2072 170.562 17.7208 169.722 18.0554C168.881 18.39 167.865 18.5583 166.667 18.5583C164.965 18.5583 163.652 18.2542 162.737 17.6472C161.821 17.0395 161.362 16.1792 161.362 15.0656C161.362 13.5468 162.152 12.4503 163.733 11.7754C165.316 11.103 167.965 10.75 171.681 10.7189C171.681 10.696 171.687 10.6509 171.694 10.5849C171.7 10.5189 171.703 10.4706 171.703 10.4395C171.703 9.82552 171.519 9.36646 171.151 9.06297C170.783 8.76075 170.228 8.60836 169.491 8.60836C168.822 8.60836 168.309 8.71947 167.952 8.94106C167.596 9.16202 167.383 9.49535 167.312 9.9379H162.2C162.224 8.60582 162.852 7.61407 164.089 6.96454C165.325 6.31374 167.213 5.98866 169.747 5.98866C172.181 5.98866 173.992 6.36771 175.184 7.12708C176.374 7.88518 176.968 9.04202 176.968 10.5919V16.7126C176.968 17.0916 176.985 17.3989 177.021 17.6319C177.055 17.8656 177.117 18.0815 177.201 18.284H172.067C171.965 17.9976 171.891 17.7081 171.844 17.418C171.799 17.1265 171.773 16.8243 171.773 16.5126ZM171.657 13.084C169.866 13.084 168.645 13.2014 167.993 13.4344C167.343 13.6681 167.018 14.0763 167.018 14.6598C167.018 15.056 167.177 15.3652 167.492 15.5862C167.809 15.8078 168.253 15.9189 168.831 15.9189C169.772 15.9189 170.479 15.6986 170.952 15.2598C171.422 14.8205 171.657 14.1576 171.657 13.2719V13.084Z" fill="#FF6600"/>
<path d="M193.832 11.9089V9.89623H201.07V16.2379C199.958 17.1236 198.813 17.7903 197.632 18.2379C196.452 18.6836 195.238 18.9071 193.995 18.9071C192.317 18.9071 190.793 18.5477 189.421 17.8265C188.05 17.1065 187.017 16.0652 186.315 14.7026C185.615 13.3375 185.267 11.8169 185.267 10.1343C185.267 8.46892 185.614 6.91272 186.311 5.46699C187.004 4.0219 188.005 2.94951 189.312 2.24855C190.616 1.54759 192.12 1.19775 193.819 1.19775C195.055 1.19775 196.173 1.39838 197.17 1.79966C198.168 2.2022 198.953 2.76094 199.52 3.47904C200.087 4.1965 200.517 5.13111 200.811 6.28541L198.764 6.84478C198.508 5.97303 198.19 5.2854 197.81 4.78571C197.431 4.28412 196.889 3.88348 196.18 3.58317C195.474 3.28158 194.694 3.13237 193.832 3.13237C192.799 3.13237 191.91 3.28983 191.156 3.60602C190.403 3.92285 189.798 4.33936 189.336 4.85492C188.874 5.36921 188.516 5.93557 188.259 6.55208C187.825 7.61368 187.609 8.7667 187.609 10.0067C187.609 11.5388 187.869 12.8182 188.394 13.8493C188.917 14.8798 189.677 15.6449 190.681 16.1445C191.678 16.6442 192.743 16.8944 193.865 16.8944C194.843 16.8944 195.796 16.7052 196.729 16.3249C197.657 15.9464 198.365 15.5407 198.846 15.1109V11.9089H193.832Z" fill="#FF6600"/>
<path d="M204.391 18.6736V6.26078H206.284V8.14524C206.769 7.2665 207.215 6.68809 207.626 6.40745C208.035 6.12808 208.486 5.9884 208.978 5.9884C209.687 5.9884 210.409 6.21126 211.142 6.65824L210.409 8.6081C209.895 8.30778 209.382 8.15794 208.869 8.15794C208.41 8.15794 207.999 8.29508 207.631 8.57128C207.267 8.84874 207.007 9.2335 206.85 9.72303C206.616 10.4716 206.499 11.2888 206.499 12.177V18.6736H204.391Z" fill="#FF6600"/>
<path d="M211.563 12.4682C211.563 10.1717 212.202 8.47069 213.478 7.36465C214.542 6.44655 215.841 5.98813 217.373 5.98813C219.077 5.98813 220.47 6.5456 221.551 7.66243C222.63 8.77927 223.171 10.3234 223.171 12.2929C223.171 13.8892 222.932 15.1444 222.454 16.0581C221.976 16.973 221.28 17.6828 220.366 18.1895C219.453 18.6936 218.453 18.9482 217.373 18.9482C215.638 18.9482 214.237 18.3908 213.168 17.2778C212.097 16.1647 211.563 14.5622 211.563 12.4682ZM213.729 12.4714C213.729 14.0612 214.075 15.2498 214.765 16.0409C215.456 16.8327 216.325 17.2282 217.373 17.2282C218.413 17.2282 219.28 16.8295 219.968 16.0358C220.66 15.2415 221.004 14.0288 221.004 12.4022C221.004 10.8669 220.659 9.70435 219.963 8.91324C219.269 8.12339 218.406 7.72593 217.373 7.72593C216.325 7.72593 215.456 8.12085 214.765 8.90752C214.075 9.6942 213.729 10.8821 213.729 12.4714Z" fill="#FF6600"/>
<path d="M234.063 18.401V16.5648C233.098 17.9705 231.79 18.6753 230.136 18.6753C229.403 18.6753 228.724 18.5349 228.091 18.2537C227.457 17.9743 226.987 17.6219 226.681 17.1965C226.374 16.7718 226.159 16.2524 226.034 15.6378C225.949 15.2257 225.906 14.5711 225.906 13.6752V5.98817H228.014V12.8644C228.014 13.9622 228.056 14.7013 228.142 15.0822C228.273 15.6352 228.554 16.0689 228.979 16.3844C229.406 16.6987 229.936 16.8581 230.563 16.8581C231.193 16.8581 231.781 16.6956 232.335 16.3711C232.885 16.0505 233.274 15.6098 233.502 15.0536C233.731 14.4974 233.848 13.6905 233.848 12.6289V5.98817H235.953V18.401H234.063Z" fill="#FF6600"/>
<path d="M240.25 23.4242V6.26087H242.159V7.87486C242.61 7.24501 243.121 6.77326 243.689 6.45897C244.256 6.14405 244.945 5.98849 245.751 5.98849C246.808 5.98849 247.742 6.25833 248.55 6.80373C249.359 7.34914 249.968 8.11803 250.38 9.11042C250.793 10.1028 251 11.1911 251 12.3733C251 13.6419 250.771 14.7848 250.316 15.8006C249.863 16.8165 249.201 17.5956 248.337 18.1359C247.471 18.6769 246.56 18.948 245.608 18.948C244.907 18.948 244.281 18.8007 243.724 18.5067C243.169 18.2121 242.712 17.8394 242.357 17.3899V23.4242H240.25ZM242.142 12.539C242.142 14.1371 242.463 15.3175 243.109 16.0813C243.752 16.8464 244.529 17.228 245.447 17.228C246.376 17.228 247.173 16.8324 247.837 16.04C248.503 15.2502 248.832 14.0247 248.832 12.3638C248.832 10.7822 248.51 9.59741 247.86 8.8101C247.214 8.02406 246.44 7.6285 245.54 7.6285C244.646 7.6285 243.858 8.04882 243.171 8.88566C242.486 9.72439 242.142 10.9415 242.142 12.539Z" fill="#FF6600"/>
<path d="M8.25423 33.5444C7.94691 33.5088 7.4666 33.2352 7.1257 32.9609C3.88141 29.7767 8.04703 26.1151 12.8659 23.9932V17.9354C13.9926 18.6547 14.6085 18.6877 14.6414 18.7906L18.3305 15.129L17.1006 11.9785C27.8961 8.24765 32.2335 6.80954 41.0133 5.33905L39.4393 3.86539L42.0037 2.39554C47.9125 4.34793 53.4829 4.85968 52.5242 9.8229C52.7644 6.46859 48.5962 5.16699 42.2426 3.38793L41.0133 4.13968L43.3692 6.09144C32.8494 7.90543 26.3925 9.96004 18.7063 12.6293L19.7645 15.3683L15.9056 19.1671C16.5557 19.3385 23.2844 21.597 30.2856 16.703C30.2856 16.703 30.4238 16.5995 30.4238 16.5658C30.2204 16.2236 29.74 15.8458 29.1603 15.3341C31.2101 15.4712 32.5401 17.2846 32.3019 19.1671H31.3457C31.4135 18.5506 31.2766 17.9004 31.0732 17.456C25.6416 21.4268 19.3558 22.009 13.9926 20.1258V24.8148C11.3965 25.7392 6.74931 28.6123 6.78479 31.3875C6.95525 32.7215 7.63896 33.2002 8.25423 33.5444Z" fill="black"/>
<path d="M30.44 31.9719C24.6287 34.9154 19.0634 37.2773 10.4888 37.6196C-0.681148 37.3789 -2.42305 29.9503 2.8711 22.182C7.85856 14.3438 15.7843 7.25677 28.3895 2.84086C32.0431 1.5437 37.4069 0.0700417 42.5991 0.00146866C50.0464 -0.0677376 57.2896 2.26054 56.8099 9.41488C56.5362 14.8918 48.6473 22.6264 44.4778 28.1725C42.7011 30.6011 42.3931 32.177 45.4328 32.0405C56.469 31.3198 66.4769 27.4881 75.7681 23.5166C69.4842 27.7954 36.9957 43.9161 36.8614 32.9306C36.8943 31.5255 37.5425 30.0544 38.6014 28.4804C39.6279 26.9052 41.0618 25.262 42.5306 23.5852C44.7509 21.0524 50.2504 14.994 52.0949 11.3647C55.203 4.48532 48.2354 4.14246 42.2227 2.02117L39.6589 3.49102L41.2329 4.96469C32.4531 6.43581 28.1157 7.87328 17.3202 11.6047L18.5501 14.7546L14.861 18.4162C14.759 18.314 14.2122 18.281 13.0849 17.561V23.6188C8.26663 25.7414 4.10038 29.403 7.34467 32.5865C7.6862 32.8608 8.16651 33.1345 8.47383 33.17C14.3826 36.5243 30.471 31.9719 30.44 31.9719Z" fill="#FF6600"/>
<path d="M65.1889 35.9126H65.9537C66.1165 35.9126 66.2401 35.8948 66.3313 35.8669C66.4277 35.832 66.4961 35.7729 66.5417 35.7044C66.5873 35.6263 66.6146 35.5513 66.6146 35.4644C66.6146 35.3367 66.5658 35.2307 66.4758 35.1494C66.3833 35.0694 66.2401 35.0288 66.0424 35.0288H65.1889V35.9126ZM64.8296 37.4377V34.7253H66.0266C66.2648 34.7253 66.4505 34.7501 66.5721 34.7939C66.6982 34.8472 66.7945 34.9285 66.8687 35.0574C66.9472 35.1786 66.9827 35.3139 66.9827 35.4644C66.9827 35.6561 66.9194 35.8206 66.7996 35.9526C66.6735 36.0802 66.4847 36.1641 66.2255 36.2041C66.3212 36.2472 66.3922 36.291 66.4416 36.338C66.5417 36.4377 66.6444 36.5539 66.7337 36.6987L67.2045 37.4377H66.7559L66.4036 36.879C66.2984 36.7095 66.2071 36.5895 66.1444 36.4993C66.0753 36.4142 66.0164 36.3533 65.9613 36.3177C65.9062 36.2847 65.8567 36.2568 65.801 36.2434C65.7592 36.2396 65.6952 36.2333 65.6014 36.2333H65.1889V37.4377H64.8296Z" fill="#FF6600"/>
<path d="M65.9203 38.6929C67.3416 38.6929 68.4955 37.5341 68.4955 36.1163C68.4955 34.6916 67.3416 33.5347 65.9203 33.5347C64.5029 33.5347 63.3496 34.6916 63.3496 36.1163C63.3496 37.5341 64.5029 38.6929 65.9203 38.6929ZM63.7482 36.1163C63.7482 34.9144 64.7208 33.9392 65.9203 33.9392C67.1186 33.9392 68.0931 34.9144 68.0931 36.1163C68.0931 37.3119 67.1186 38.2891 65.9203 38.2891C64.7208 38.2891 63.7482 37.3119 63.7482 36.1163Z" fill="#FF6600"/>
<path d="M88.4502 23.9536V38.5664C89.4634 38.5664 90.5951 37.6464 90.5951 36.6305V35.8648H91.8098C92.6228 35.8223 93.5587 34.6807 93.5587 34.1105V30.859C93.5587 30.2476 92.8693 29.8051 92.5429 29.5606C92.8693 29.2743 93.5587 28.7879 93.5587 28.1758V23.9536H88.4502ZM91.4518 28.7879C91.4518 29.0305 91.2503 29.4393 91.0051 29.6825C90.9671 29.7257 90.8441 29.8463 90.8441 29.8463C90.8251 29.8628 90.8036 29.8863 90.7618 29.8863H91.4518V34.1105H90.6002V25.7403H91.4518V28.7879ZM99.56 33.4184V26.8761H94.4109V35.8184H96.9652C97.372 35.7778 97.8605 35.6134 98.2616 35.3302C98.5088 35.167 98.7115 35.0064 98.9137 34.8013C99.2786 34.3949 99.56 33.9086 99.56 33.4184ZM96.4399 28.5847H97.5336V34.1499H96.4399V28.5847ZM93.8825 23.9536V25.7403H100.058V38.5664C100.748 38.5664 102.24 37.8991 102.24 36.5099V25.7403C102.685 25.7403 103.051 24.4399 103.051 23.9536H93.8825Z" fill="#FF6600"/>
<path d="M112.355 36.8818V35.5161H116.685C117.311 35.5161 117.877 34.4456 118.211 33.8665H112.355V32.7097H115.611C116.536 32.7097 118.042 31.4265 118.085 30.7662V23.9534H104.152V32.7097H109.756V33.8665H104.152V35.5161H109.756V36.8818H103.988V38.5739H117.055C117.592 38.5739 118.085 37.5028 118.498 36.8818H112.355ZM112.355 29.1573H113.468C113.632 29.1573 113.798 29.1148 113.961 28.9897C114.168 28.8665 115.158 27.6271 115.282 27.5008H112.355V25.603H115.529V31.0576H112.355V29.1573ZM106.665 29.1573H109.756V31.057H106.665V29.1573ZM106.665 25.603H109.756V27.5008H106.665V25.603Z" fill="#FF6600"/>
<path d="M122.157 36.6794V32.5619H131.064C131.868 32.5619 133.316 31.2266 133.354 30.5581V23.9536H119.527V36.5321C119.527 37.5372 120.131 38.5804 121.259 38.5804H131.813C132.609 38.5804 133.565 37.308 133.73 36.6794H122.157ZM127.809 25.8323H130.748V30.6812H127.809V25.8323ZM122.177 25.8323H125.265V30.6812H122.177V25.8323Z" fill="#FF6600"/>
<path d="M138.883 36.6794V32.5619H147.793C148.6 32.5619 150.045 31.2266 150.088 30.5581V23.9536H136.261V36.5321C136.261 37.5372 136.865 38.5804 137.991 38.5804H148.543C149.339 38.5804 150.295 37.308 150.464 36.6794H138.883ZM144.541 25.8323H147.48V30.6812H144.541V25.8323ZM138.909 25.8323H141.992V30.6812H138.909V25.8323Z" fill="#FF6600"/>
<path d="M159.281 33.9931V33.5347H160.317V33.929H166.598C166.598 33.929 166.445 34.7766 165.074 34.7766H160.384V37.0503C160.384 38.7747 159.281 38.9811 159.281 38.9811V34.8414H151.8V33.9931H159.281Z" fill="#FF6600"/>
<path d="M154.191 35.9304H155.309C155.309 35.9304 154.145 37.4326 153.794 37.8275C153.444 38.2174 152.978 38.8428 152.302 38.8428C151.924 38.8428 151.8 38.8517 151.8 38.8517L154.191 35.9304Z" fill="#FF6600"/>
<path d="M164.87 35.9304H163.752C163.752 35.9304 164.918 37.4326 165.266 37.8275C165.617 38.2174 166.084 38.8428 166.758 38.8428C167.135 38.8428 167.26 38.8517 167.26 38.8517L164.87 35.9304Z" fill="#FF6600"/>
<path d="M165.008 25.3932C166.344 25.3932 166.598 24.543 166.598 24.543H160.333L160.789 23.9538H159.76L159.235 24.609H155.023L155.542 23.9538H154.468L151.799 27.4306H152.941V32.1837C152.941 32.1837 153.058 32.1989 153.211 32.1837C154.868 32.1837 155.007 31.9659 155.007 31.9659H165.008C166.337 31.9659 166.466 31.1703 166.466 31.1703H160.245V29.7805H165.008C166.319 29.7805 166.532 28.9379 166.532 28.9379H160.245V27.5684H165.008C166.319 27.5684 166.532 26.71 166.532 26.71H160.245V25.3932H165.008ZM153.908 29.8446H159.214V31.1691H153.908V29.8446ZM153.908 27.6998H159.214V29.0046H153.908V27.6998ZM159.216 26.7735H153.908L153.903 26.3011L154.174 25.9157L154.53 25.4586H159.216V26.7735Z" fill="#FF6600"/>
<path d="M169.729 23.9536V38.7162H182.125C183.057 38.7162 183.412 37.8293 183.367 36.9112V23.9536H169.729ZM182.364 36.8039C182.364 37.3385 182.246 37.7569 181.545 37.7569H170.654V24.8107H182.364V36.8039Z" fill="#FF6600"/>
<path d="M175.253 29.9419L172.119 35.6036C172.119 35.6036 173.17 35.8017 173.649 34.8036L176.313 29.9553L175.253 29.9419Z" fill="#FF6600"/>
<path d="M179.168 34.5486C179.168 34.8559 179.058 35.0082 178.839 35.0082H177.793V35.84H179.123C179.943 35.84 180.214 35.5403 180.171 34.6222C180.171 34.6222 180.163 29.1053 180.171 29.1053C181.203 29.1053 181.267 28.2399 181.267 28.2399L180.171 28.2507V26.3491H179.168V28.2507H172.119V29.1688H179.168V34.5486Z" fill="#FF6600"/>
</g>
<defs>
<clipPath id="clip0_1062_1062">
<rect width="251" height="38.9811" fill="white"/>
</clipPath>
</defs>
</svg>
