<svg width="212" height="47" viewBox="0 0 212 47" fill="none" xmlns="http://www.w3.org/2000/svg">
<path d="M21.1123 43.5589C9.07014 43.5589 0 34.0576 0 22.3274C0 10.5583 8.60699 0.97876 21.1123 0.97876C27.7508 0.97876 32.3436 3.01196 35.9332 7.6649L30.1437 12.4742C27.7122 9.89361 24.7788 8.60331 21.1123 8.60331C12.9684 8.60331 8.49119 14.8202 8.49119 22.3274C8.49119 29.8348 13.3929 35.9343 21.1123 35.9343C24.7402 35.9343 27.828 34.6441 30.2595 32.0635L35.9718 37.0682C32.5368 41.5256 27.828 43.5589 21.1123 43.5589Z" fill="#292929"/>
<path d="M60.9052 12.3163H68.7015V42.8144H60.9052V38.357C59.2841 41.5242 56.5823 43.6355 51.4105 43.6355C43.1509 43.6355 36.5508 36.4803 36.5508 27.6827C36.5508 18.8851 43.1509 11.7297 51.4105 11.7297C56.5439 11.7297 59.2841 13.8412 60.9052 17.0083V12.3163ZM61.1367 27.6827C61.1367 22.9125 57.8559 18.9633 52.6842 18.9633C47.7051 18.9633 44.463 22.9514 44.463 27.6827C44.463 32.2964 47.7051 36.402 52.6842 36.402C57.8175 36.402 61.1367 32.4138 61.1367 27.6827Z" fill="#292929"/>
<path d="M74.2207 0H82.017V42.7757H74.2207V0Z" fill="#292929"/>
<path d="M85.4907 38.7488C85.4907 36.2464 87.4978 34.1349 90.2381 34.1349C92.9785 34.1349 94.9084 36.2464 94.9084 38.7488C94.9084 41.3294 92.9399 43.4407 90.2381 43.4407C87.5364 43.4407 85.4907 41.3294 85.4907 38.7488Z" fill="#292929"/>
<path d="M124.743 37.8879C121.849 41.4068 117.449 43.6355 112.238 43.6355C102.936 43.6355 96.105 36.4803 96.105 27.6827C96.105 18.8851 102.936 11.7297 112.238 11.7297C117.256 11.7297 121.617 13.8412 124.512 17.1647L118.491 22.2086C116.986 20.3318 115.017 18.9242 112.238 18.9242C107.259 18.9242 104.017 22.9125 104.017 27.6436C104.017 32.3746 107.259 36.3629 112.238 36.3629C115.249 36.3629 117.333 34.799 118.877 32.6875L124.743 37.8879Z" fill="#292929"/>
<path d="M125.399 27.6827C125.399 18.8851 132.231 11.7297 141.533 11.7297C150.834 11.7297 157.666 18.8851 157.666 27.6827C157.666 36.4803 150.834 43.6355 141.533 43.6355C132.231 43.5963 125.399 36.4803 125.399 27.6827ZM149.754 27.6827C149.754 22.9125 146.511 18.9633 141.533 18.9633C136.554 18.9242 133.312 22.9125 133.312 27.6827C133.312 32.4138 136.554 36.402 141.533 36.402C146.511 36.402 149.754 32.4138 149.754 27.6827Z" fill="#292929"/>
<path d="M210.388 24.1642V42.7759H202.592V26.0801C202.592 20.8016 200.122 18.5338 196.417 18.5338C192.943 18.5338 190.473 20.2542 190.473 26.0801V42.7759H182.677V26.0801C182.677 20.8016 180.168 18.5338 176.501 18.5338C173.028 18.5338 169.978 20.2542 169.978 26.0801V42.7759H162.182V12.2778H169.978V16.5006C171.6 13.2162 174.533 11.574 179.049 11.574C183.333 11.574 186.922 13.6854 188.891 17.2435C190.859 13.6072 193.754 11.574 199.003 11.574C205.41 11.6131 210.388 16.4615 210.388 24.1642Z" fill="#292929"/>
</svg>
