<svg width="219" height="45" viewBox="0 0 219 45" fill="none" xmlns="http://www.w3.org/2000/svg">
<path d="M13.578 31.2178C11.2055 28.9853 9.782 25.9111 9.782 22.3977C9.782 18.8844 11.169 15.8102 13.432 13.5777C15.403 11.6014 15.403 8.52726 13.432 6.55099C11.461 4.57472 8.395 4.57472 6.424 6.55099C2.5185 10.6133 0 16.2127 0 22.3977C0 28.5827 2.5185 34.1822 6.57 38.2445C8.541 40.2208 11.607 40.2208 13.578 38.2445C15.3665 36.2682 15.3665 33.194 13.578 31.2178Z" fill="#FFD85F"/>
<path d="M13.578 13.5777C15.8045 11.1989 18.907 9.80816 22.3745 9.80816C25.842 9.80816 28.9445 11.1989 31.171 13.4679C33.142 15.4442 36.208 15.4442 38.179 13.4679C40.15 11.4916 40.15 8.41745 38.179 6.44118C34.1275 2.52524 28.543 0 22.3745 0C16.206 0 10.6215 2.52523 6.57005 6.58757C4.59905 8.56384 4.59905 11.638 6.57005 13.6143C8.54105 15.371 11.607 15.371 13.578 13.5777Z" fill="#3BB4E7"/>
<path d="M31.171 31.2178C28.9445 33.5966 25.842 34.9873 22.3745 34.9873C18.907 34.9873 15.8045 33.5966 13.578 31.3275C11.607 29.3513 8.54105 29.3513 6.57005 31.3275C4.59905 33.3038 4.59905 36.378 6.57005 38.3543C10.6215 42.2702 16.206 44.7955 22.3745 44.7955C28.543 44.7955 34.1275 42.2702 38.179 38.2079C40.15 36.2316 40.15 33.1574 38.179 31.1812C36.208 29.4245 33.142 29.4245 31.171 31.2178Z" fill="#ED5C68"/>
<path d="M10.0741 14.9684C12.7753 14.9684 14.9651 12.7728 14.9651 10.0644C14.9651 7.35591 12.7753 5.16028 10.0741 5.16028C7.37288 5.16028 5.18311 7.35591 5.18311 10.0644C5.18311 12.7728 7.37288 14.9684 10.0741 14.9684Z" fill="#308BC5"/>
<path d="M10.0741 39.6352C12.7753 39.6352 14.9651 37.4396 14.9651 34.7311C14.9651 32.0227 12.7753 29.827 10.0741 29.827C7.37288 29.827 5.18311 32.0227 5.18311 34.7311C5.18311 37.4396 7.37288 39.6352 10.0741 39.6352Z" fill="#D5465F"/>
<path d="M60.1519 27.009C61.5389 25.8745 61.8309 26.6064 62.9624 27.7044C63.5099 28.2533 65.1889 29.3879 64.0939 30.2296C61.8674 32.0595 59.8964 32.9012 56.9764 32.9012C50.5524 32.9012 45.9169 27.9972 46.2089 21.6658C46.3549 18.738 47.4499 16.0663 49.7129 14.2365C51.7934 12.553 54.3119 11.7112 56.9764 11.8576C58.3634 11.8576 59.4949 12.1504 60.7359 12.553C61.5754 12.8458 62.4149 13.2483 63.1084 13.7973C64.4954 14.9318 63.8019 15.4808 62.8164 16.6153C62.5244 16.9081 62.4149 17.1643 62.1229 17.3107C61.5754 17.8596 61.1374 18.2988 60.4439 17.7132C59.0569 16.7251 57.0859 16.1761 55.4069 16.5787C49.8224 17.9694 50.0779 27.924 56.9399 27.924C58.0349 28.1435 59.3124 27.741 60.1519 27.009ZM215.496 32.4987C214.51 32.4987 213.817 31.8033 213.817 30.8152V8.78342C213.817 7.79528 214.51 7.09994 215.496 7.09994H217.321C218.306 7.09994 219 7.79528 219 8.78342V30.8152C219 31.8033 218.306 32.4987 217.321 32.4987H215.496ZM205.86 29.9734C203.889 31.8033 201.954 32.7914 199.144 32.7914C193.413 32.7914 190.749 28.0338 190.749 22.8369V13.8705C190.749 12.8824 191.442 12.187 192.428 12.187H194.253C195.238 12.187 195.932 12.8824 195.932 13.8705V22.8369C195.932 25.7647 197.465 28.0337 200.677 28.0337C203.743 28.0337 205.714 25.3621 205.714 22.5807V13.8705C205.714 12.8824 206.407 12.187 207.393 12.187H209.218C210.203 12.187 210.897 12.8824 210.897 13.8705V30.8152C210.897 31.8033 210.203 32.4987 209.218 32.4987H207.685C206.699 32.4987 206.152 31.6569 206.006 30.8152L205.86 29.9734ZM184.033 12.2968H187.537C188.522 12.2968 189.216 13.1385 189.216 13.9803V15.1148C189.216 16.1029 188.522 16.7983 187.537 16.7983H184.033V30.8152C184.033 31.8033 183.339 32.4987 182.354 32.4987H180.529C179.543 32.4987 178.85 31.8033 178.85 30.8152V11.6014C178.85 7.39272 181.222 4.02574 185.566 3.62317H188.23C189.216 3.62317 189.909 4.4649 189.909 5.30665V6.44118C189.909 7.42931 189.216 8.12467 188.23 8.12467H186.843C184.763 8.12467 183.923 9.66177 183.923 11.638V12.3334H184.033V12.2968ZM171.294 12.2968H175.2C176.185 12.2968 176.879 12.9921 176.879 13.9803V15.1148C176.879 16.1029 176.185 16.7983 175.2 16.7983H171.294V25.3255C171.294 27.009 172.134 27.8508 173.813 27.8508H174.652C175.638 27.8508 176.331 28.5461 176.331 29.5343V30.7786C176.331 31.7667 175.638 32.4621 174.652 32.4621H172.28C168.082 32.1693 166.257 29.5343 166.257 25.3255V8.78342C166.257 7.79528 166.951 7.09994 167.936 7.09994H169.761C170.747 7.09994 171.44 7.79528 171.44 8.78342V12.2968H171.294ZM115.23 12.2968H119.136C120.121 12.2968 120.815 12.9921 120.815 13.9803V15.1148C120.815 16.1029 120.121 16.7983 119.136 16.7983H115.23V25.3255C115.23 27.009 116.07 27.9971 117.749 27.9971H118.588C119.574 27.9971 120.267 28.6925 120.267 29.6806V30.8152C120.267 31.8033 119.574 32.4987 118.588 32.4987H117.457C112.858 32.4987 110.193 30.5224 110.193 25.3621V8.82002C110.193 7.83188 110.887 7.13653 111.872 7.13653H113.697C114.683 7.13653 115.376 7.83188 115.376 8.82002V12.3334C115.376 12.2968 115.23 12.2968 115.23 12.2968ZM92.4544 14.6756C94.2794 12.8458 96.3599 11.8576 98.8784 11.8576C104.609 11.8576 107.565 16.4689 107.565 21.8122V30.8152C107.565 31.8033 106.872 32.4987 105.886 32.4987H104.061C103.076 32.4987 102.382 31.8033 102.382 30.8152V21.8488C102.382 18.921 100.849 16.6519 97.6374 16.6519C94.5714 16.6519 92.6004 19.1771 92.6004 22.1049V30.8152C92.6004 31.8033 91.9069 32.4987 90.9214 32.4987H89.0964C88.1109 32.4987 87.4174 31.8033 87.4174 30.8152V13.8339C87.4174 12.8458 88.1109 12.1504 89.0964 12.1504H90.6294C91.6149 12.1504 92.1624 12.9921 92.3084 13.8339L92.4544 14.6756ZM148.664 14.6756C150.489 12.8458 152.57 11.8576 155.088 11.8576C160.819 11.8576 163.775 16.4689 163.775 21.8122V30.8152C163.775 31.8033 163.082 32.4987 162.096 32.4987H160.271C159.286 32.4987 158.592 31.8033 158.592 30.8152V21.8488C158.592 18.921 157.059 16.6519 153.847 16.6519C150.781 16.6519 148.81 19.1771 148.81 22.1049V30.8152C148.81 31.8033 148.117 32.4987 147.131 32.4987H145.306C144.321 32.4987 143.627 31.8033 143.627 30.8152V13.8339C143.627 12.8458 144.321 12.1504 145.306 12.1504H146.839C147.825 12.1504 148.372 12.9921 148.518 13.8339L148.664 14.6756ZM75.2264 11.7478C69.0579 11.7478 64.7509 16.2493 64.7509 22.3977C64.7509 28.5461 69.0944 33.0476 75.2264 33.0476C81.5044 33.0476 85.8479 28.6925 85.8479 22.3977C85.8479 16.2127 81.3949 11.7478 75.2264 11.7478ZM126.436 24.2276C126.837 27.0456 129.648 28.2899 132.312 28.2899C133.553 28.2899 134.977 27.9971 136.072 27.4482C136.218 27.3018 136.473 27.3018 136.619 27.1554C137.313 26.7528 137.86 26.6064 138.444 27.1554L139.43 28.1435L140.269 28.9853C141.109 30.1198 140.561 30.376 139.576 30.9616C137.495 32.3523 134.831 33.0476 132.312 33.0476C125.596 33.0476 121.107 28.9853 121.107 22.2513C121.107 15.8102 125.596 11.6014 131.874 11.6014C138.444 11.6014 142.094 15.371 142.24 21.9951C142.24 23.825 142.386 24.374 140.561 24.374H126.436V24.2276ZM75.2264 16.5055C78.4384 16.5055 80.5554 19.3235 80.5554 22.3977C80.5554 25.6183 78.5844 28.1435 75.2264 28.1435C71.8684 28.1435 69.8974 25.6183 69.8974 22.3977C69.8974 19.1771 72.0144 16.5055 75.2264 16.5055ZM126.545 19.8725H137.021C136.619 17.2009 134.502 16.2127 131.984 16.2127C129.356 16.2127 127.275 17.4936 126.545 19.8725Z" fill="#2A3039"/>
</svg>
