<svg width="153" height="65" viewBox="0 0 153 65" fill="none" xmlns="http://www.w3.org/2000/svg">
<path d="M131.619 28.068C129.062 28.6573 122.309 28.9846 122.309 28.9846L121.479 31.6474C121.479 31.6474 124.822 31.3637 127.27 31.6037C127.27 31.6037 128.057 31.5383 128.144 32.4768C128.188 33.4371 128.079 34.4411 128.079 34.4411C128.079 34.4411 128.013 35.0304 127.205 35.1832C126.265 35.3359 119.927 35.6197 119.927 35.6197L118.9 39.0681C118.9 39.0681 118.528 39.8539 119.38 39.6356C120.167 39.4174 126.811 38.1515 127.686 38.3261C128.603 38.5443 129.652 39.8102 129.347 40.9452C128.997 42.3202 122.353 46.5544 118.331 46.2707C118.331 46.2707 116.211 46.4016 114.441 43.5424C112.736 40.8142 115.031 35.6852 115.031 35.6852C115.031 35.6852 114.004 33.2843 114.769 32.4113C114.769 32.4113 115.206 32.0403 116.517 31.9311L118.157 28.57C118.157 28.57 116.299 28.6791 115.206 27.3259C114.201 26.0163 114.113 25.4489 114.9 25.0997C115.731 24.6631 123.424 23.2881 128.713 23.4627C128.713 23.4627 130.57 23.2445 132.21 26.4529C132.21 26.4529 132.953 27.7624 131.641 28.068H131.619ZM111.687 40.9888C111.032 42.5821 109.218 44.2627 107.032 43.2369C104.803 42.1892 101.284 35.0304 101.284 35.0304C101.284 35.0304 99.9728 32.3676 99.7105 32.4549C99.7105 32.4549 99.4264 31.9311 99.2734 34.8558C99.0548 37.7586 99.3171 43.4115 98.1151 44.3063C97.0223 45.1794 95.711 44.8083 94.9679 43.7825C94.3559 42.7567 94.0937 40.2904 94.4433 35.9907C94.8367 31.691 95.8202 27.1076 97.066 25.6889C98.3773 24.2484 99.4264 25.2961 99.8198 25.6889C99.8198 25.6889 101.503 27.2168 104.344 31.7347L104.825 32.5641C104.825 32.5641 107.404 36.8637 107.666 36.8419C107.666 36.8419 107.884 37.0602 108.059 36.8856C108.322 36.8201 108.234 35.4232 108.234 35.4232C108.234 35.4232 107.753 30.7744 105.349 22.9171C105.349 22.9171 105 21.9131 105.24 20.9528C105.458 20.0797 106.398 20.5162 106.398 20.5162C106.398 20.5162 110.026 22.2623 111.797 28.1553C113.545 34.0482 112.365 39.3955 111.709 40.9888H111.687ZM93.897 25.8636C93.5473 26.4747 93.3943 27.3259 91.8863 27.566C91.8863 27.566 77.2431 28.5918 76.5219 29.6176C76.5219 29.6176 76.041 30.2287 76.8278 30.3815C77.6583 30.5561 80.9804 30.9926 82.554 31.0799C84.2587 31.0799 89.9848 31.1236 92.083 33.699C92.083 33.699 93.285 34.9213 93.2413 37.6931C93.1976 40.5305 92.6949 41.5345 91.5803 42.5603C90.4219 43.5206 80.4996 47.9731 74.0959 41.1634C74.0959 41.1634 71.1673 37.8896 75.1231 35.4014C75.1231 35.4014 77.9643 33.6554 85.2422 35.6852C85.2422 35.6852 87.4277 36.4709 87.3403 37.2784C87.2092 38.1515 85.5263 39.0245 83.0785 38.9808C80.7181 38.9154 78.9697 37.7804 79.3194 37.9769C79.6472 38.086 76.7623 36.58 75.8662 37.6058C74.992 38.5662 75.2105 39.1336 76.0848 39.7229C78.2703 40.9888 86.8595 40.5305 89.4166 37.6713C89.4166 37.6713 90.4438 36.5145 88.8921 35.576C87.3622 34.703 82.9037 34.1573 81.1771 34.0919C79.5379 34.0046 73.3965 34.0919 72.4786 32.4986C72.4786 32.4986 71.6044 31.3637 72.566 28.2644C73.5714 24.9905 80.7181 23.7246 83.8216 23.4627C83.8216 23.4627 92.3452 23.1135 93.9407 24.8596C93.9407 24.8596 94.1592 25.2524 93.897 25.8417V25.8636ZM69.7248 45.0484C68.6976 45.8123 66.5121 45.4849 65.8783 44.6119C65.2663 43.848 65.0477 40.836 65.157 36.0998C65.31 31.2545 65.3756 25.3179 66.4684 24.3576C67.5611 23.4191 68.2168 24.2484 68.6539 24.8814C69.091 25.5362 69.6592 26.2564 69.7467 27.7624C69.8778 29.2902 70.2493 37.1475 70.2493 37.1475C70.2493 37.1475 70.7302 44.3063 69.7467 45.0484H69.7248ZM71.9104 19.5123C68.8943 20.5381 66.8399 20.2107 65.0915 19.4468C64.3265 20.8218 63.8676 21.2365 63.2993 21.3238C62.4251 21.4111 61.6601 20.0142 61.5509 19.5777C61.376 19.2503 60.9608 18.6611 61.4635 17.3297C59.7587 15.8019 59.6276 13.7503 59.9336 12.3752C60.327 10.7601 63.2119 4.69255 71.9541 3.9723C71.9541 3.9723 76.2377 3.66674 76.9808 5.93662H77.112C77.112 5.93662 81.2645 5.93662 81.1771 9.64701C81.1771 13.3574 76.5874 17.9844 71.9104 19.5777V19.5123ZM75.8006 8.94858C73.0468 9.3851 68.8069 13.0518 66.7743 16.0856C69.8997 16.6531 75.3635 16.4348 77.8113 11.5022C77.8113 11.5022 78.9697 8.40294 75.8006 8.94858ZM63.7146 11.3494C62.8403 12.7681 62.7966 13.6193 63.2119 14.1868C64.2391 12.659 66.0531 10.2581 68.785 8.38111C66.6869 8.59937 64.9166 9.4724 63.7146 11.3494ZM138.176 44.8956C136.165 49.8283 134.461 54.8264 133.477 62.3126C133.477 62.3126 133.259 63.7749 132.057 63.2948C130.855 62.8582 128.888 60.8939 128.45 58.1221C128.013 54.499 129.631 48.3878 132.931 41.3599C131.969 39.8321 131.292 37.5622 131.838 34.3756C131.838 34.3756 132.712 28.4826 138.613 23.1572C138.613 23.1572 139.313 22.5679 139.706 22.7643C140.187 22.9826 139.99 24.8596 139.597 25.8199C139.247 26.7366 136.624 31.2763 136.624 31.2763C136.624 31.2763 134.985 34.3756 135.444 36.7983C138.548 32.0403 145.607 22.3933 149.978 25.4489C152.754 27.4132 152.754 33.7427 150.677 37.4094C149.038 40.3122 144.405 46.3143 138.22 44.9175L138.176 44.8956ZM147.312 30.0759C145.694 31.822 142.809 35.1395 140.537 39.6356C142.941 39.3737 145.279 38.0423 146 37.3657C147.159 36.3399 149.825 33.5681 149.41 29.9013C149.41 29.9013 149.148 27.9807 147.312 30.0759ZM49.3992 47.4711C41.6624 49.8283 34.3627 48.737 30.385 47.6893C30.2757 49.3044 30.1009 49.981 29.8386 50.2429C29.5326 50.5922 26.9974 52.0327 25.5986 49.981C24.9867 48.9989 24.6807 47.231 24.5059 45.6159C15.5451 41.5563 11.3926 35.576 11.2614 35.3578C11.0429 35.1395 9.01033 33.0224 11.0429 30.4033C12.9443 28.0461 19.2387 25.6671 24.8774 24.7286C25.096 19.9269 25.6205 16.2166 26.298 14.5796C27.1067 12.6153 28.1339 14.3614 29.0518 15.6709C29.7949 16.6531 30.2538 20.8655 30.2976 24.2266C33.9693 24.052 36.1985 24.3139 40.2855 25.0997C45.6619 26.0163 49.2462 28.7664 48.9621 31.8656C48.6999 34.9213 45.9024 36.1871 44.8096 36.2744C43.7168 36.3618 41.9684 35.5542 41.9684 35.5542C40.7445 34.9867 41.8591 34.4629 43.2797 33.8518C44.8533 33.0879 44.5036 32.324 44.5036 32.324C43.9354 30.5779 36.9635 29.4212 30.0353 29.4212C30.0353 33.2407 30.1883 39.5701 30.2976 43.2587C35.1495 44.1754 38.7775 43.979 38.7775 43.979C38.7775 43.979 56.4804 43.477 56.9831 32.193C57.5295 20.8873 39.2802 10.0617 25.839 6.65687C12.4198 3.14292 4.81409 5.63106 4.15842 5.95845C3.43719 6.30766 4.09286 6.43862 4.09286 6.43862C4.09286 6.43862 4.81409 6.54775 6.12541 6.98426C7.43674 7.42078 6.38768 8.07555 6.38768 8.07555C4.09286 8.86128 1.53577 8.40294 1.03309 7.3553C0.530414 6.32949 1.36092 5.39098 2.34442 4.01596C3.26235 2.59728 4.31141 2.64093 4.31141 2.64093C20.9216 -3.1429 41.2034 7.22434 41.2034 7.22434C60.174 16.784 63.4086 28.0243 63.0589 32.3895C62.7529 36.6891 61.0919 43.9571 49.3992 47.4929V47.4711ZM12.9006 31.8656C11.021 32.7387 12.3324 34.1355 12.3324 34.1355C15.873 37.9114 20.2003 40.2904 24.3529 41.7745C24.8337 35.2268 24.79 32.8915 24.79 29.5958C18.3645 30.0323 14.649 31.0799 12.9006 31.8656Z" fill="black"/>
</svg>
