<svg width="221" height="45" viewBox="0 0 221 45" fill="none" xmlns="http://www.w3.org/2000/svg">
<g clip-path="url(#clip0_1062_810)">
<path d="M79.7272 32.3649C82.0807 32.3649 84.4343 31.8097 86.6114 30.3108V25.2035H80.0214V20.6513H92.2599V32.698C89.4356 35.3071 85.3757 37.4167 79.7272 37.4167C69.548 37.4167 63.0757 30.6439 63.0757 22.2057C63.0757 13.7676 69.548 6.99481 79.2565 6.99481C83.9636 6.99481 88.1412 8.66024 90.9655 11.7135L86.8467 15.544C85.0227 13.379 82.3749 12.1021 79.1976 12.1021C73.2549 12.1021 68.8419 16.7653 68.8419 22.1502C68.8419 27.7572 73.3137 32.3649 79.7272 32.3649Z" fill="black"/>
<path d="M107.499 37.4167C100.733 37.4167 95.3784 32.3649 95.3784 26.1473C95.3784 19.9297 100.733 14.8779 107.499 14.8779C114.266 14.8779 119.62 19.9297 119.62 26.1473C119.62 32.3649 114.266 37.4167 107.499 37.4167ZM107.499 32.5314C111.383 32.5314 114.207 29.5337 114.207 26.1473C114.207 22.7609 111.383 19.7631 107.499 19.7631C103.616 19.7631 100.792 22.7609 100.792 26.1473C100.792 29.5337 103.616 32.5314 107.499 32.5314Z" fill="black"/>
<path d="M133.624 37.4167C126.857 37.4167 121.503 32.3649 121.503 26.1473C121.503 19.9297 126.857 14.8779 133.624 14.8779C140.39 14.8779 145.745 19.9297 145.745 26.1473C145.745 32.3649 140.39 37.4167 133.624 37.4167ZM133.624 32.5314C137.507 32.5314 140.331 29.5337 140.331 26.1473C140.331 22.7609 137.507 19.7631 133.624 19.7631C129.74 19.7631 126.916 22.7609 126.916 26.1473C126.916 29.5337 129.799 32.5314 133.624 32.5314Z" fill="black"/>
<path d="M166.515 7.4389H171.928V37.028H166.515V34.8075C164.809 36.4729 162.337 37.4722 159.454 37.4722C152.864 37.4722 147.687 32.2538 147.687 26.2028C147.687 20.1517 152.923 14.9333 159.454 14.9333C162.279 14.9333 164.809 15.9326 166.515 17.598V7.4389ZM159.807 19.7631C155.924 19.7631 153.1 22.7609 153.1 26.1472C153.1 29.5336 155.924 32.5314 159.807 32.5314C163.691 32.5314 166.515 29.5336 166.515 26.1472C166.515 22.7609 163.691 19.7631 159.807 19.7631Z" fill="black"/>
<path d="M194.522 36.9725L187.226 25.259H181.048V36.9725H177.224V7.4389H186.991C194.522 7.4389 197.876 11.3804 197.876 16.2657C197.876 20.3737 195.64 23.7046 191.286 24.8149L198.876 36.9725H194.522ZM181.048 22.3168H187.167C191.816 22.3168 194.052 20.0407 194.052 16.5433C194.052 13.0459 191.757 10.7698 187.167 10.7698H181.048V22.3168Z" fill="black"/>
<path d="M208.056 25.7587L200.053 15.3775H204.349L210.233 23.0385L216.117 15.3775H220.412L212.41 25.8142L221.059 36.9726H216.705L210.174 28.5899L203.76 36.9726H199.406L208.056 25.7587Z" fill="black"/>
<path d="M39.0693 13.6565H32.597V7.54995C32.597 3.38638 29.0078 0 24.5949 0C20.182 0 16.5928 3.38638 16.5928 7.54995V28.7564H39.0693C43.4823 28.7564 47.0715 25.3701 47.0715 21.2065C47.0715 17.0429 43.4823 13.6565 39.0693 13.6565Z" fill="#FFDB00"/>
<path d="M16.5928 30.6995V36.8616C16.5928 41.0251 20.182 44.4115 24.5949 44.4115C29.0078 44.4115 32.597 41.0251 32.597 36.8616V30.6995H16.5928Z" fill="#FFDB00"/>
<path d="M14.4744 13.6566H8.00213C3.58919 13.6566 0 17.0429 0 21.2065C0 25.3701 3.58919 28.7565 8.00213 28.7565H14.4744V13.6566Z" fill="#FFDB00"/>
</g>
<defs>
<clipPath id="clip0_1062_810">
<rect width="221" height="44.4115" fill="white"/>
</clipPath>
</defs>
</svg>
