<svg width="275" height="36" viewBox="0 0 275 36" fill="none" xmlns="http://www.w3.org/2000/svg">
<path d="M0.962891 1.46362H13.2387V12.4946H18.9784V1.46362H31.2543V34.1405H18.9784V21.9314H13.2387V34.1405H0.962891" fill="#4E75A0"/>
<path d="M53.8931 1.46362H78.282V9.85238H66.2049V13.3973H77.4261V21.7922H66.2049V25.6492H78.6905V34.1405H53.8931" fill="#4E75A0"/>
<path d="M117.666 20.9883H111.881L114.878 8.08301L117.666 20.9883ZM96.4023 34.1964H108.769L109.972 28.9624H119.444L120.574 34.1964H134.019L123.744 1.46448H107.178" fill="#4E75A0"/>
<path d="M164.122 14.9474V8.77858C164.648 8.72675 165.114 8.72671 165.518 8.72671C168.277 8.72671 169.494 9.59574 169.494 11.6291C169.494 13.7174 167.962 14.9766 165.022 14.9766C164.748 14.9766 164.426 14.9766 164.122 14.9459V14.9474ZM151.845 34.1392H164.122V22.2973C164.518 22.2622 164.925 22.2622 165.249 22.2622C168.187 22.2622 168.599 23.656 169.092 27.1765L169.408 29.6029C169.597 31.0671 169.951 32.5573 170.36 34.1408H182.806C182.266 31.7204 181.856 29.7804 181.673 28.3254L181.266 24.831C180.683 20.1264 179.636 18.1252 175.251 17.3816C179.506 16.2464 181.673 13.7174 181.673 9.76703C181.673 3.23411 177.468 1.46393 168.507 1.46393H151.845" fill="#4E75A0"/>
<path d="M212.428 23.6562V23.918C212.428 26.1563 213.42 27.1768 215.539 27.1768C217.45 27.1768 218.584 26.2343 218.584 24.8314C218.584 23.7848 218.127 22.9801 217.304 22.5701C215.635 21.7515 212.691 21.288 208.851 20.0625C203.598 18.3856 201.143 15.8046 201.143 11.2239C201.143 4.82712 206.316 0.965515 215.818 0.965515C224.457 0.965515 229.024 4.17993 229.024 9.94638V10.6257H218.21C218.074 8.67342 217.181 7.72793 215.365 7.72793C213.694 7.72793 212.652 8.67493 212.652 9.90503C212.652 12.1816 214.913 12.0898 219.033 13.2312C226.601 15.2508 230.212 17.3406 230.212 23.2784C230.212 30.1908 224.693 34.6827 215.27 34.6827C205.722 34.6827 200.648 31.0675 200.648 24.8314C200.648 24.4716 200.648 24.0801 200.705 23.6563" fill="#4E75A0"/>
<path d="M274.037 10.1808H266.201V34.1399H253.629V10.1808H245.744V1.46307H274.037" fill="#4E75A0"/>
</svg>
