<svg width="173" height="57" viewBox="0 0 173 57" fill="none" xmlns="http://www.w3.org/2000/svg">
<path d="M106.012 56.8601H119.794V0H106.012V56.8601ZM81.8124 40.6486C81.8124 42.6451 80.1297 44.3222 78.1264 44.3222H70.1135C68.1102 44.3222 66.4275 42.6451 66.4275 40.6486V17.7289H52.6452V41.7666C52.6452 51.5894 58.9754 56.7803 68.2705 56.7803H81.7323C90.3062 56.7803 95.5146 50.6311 95.5146 41.7666V17.7289H81.7323C81.8124 17.7289 81.8124 39.9299 81.8124 40.6486ZM159.298 17.7289V40.6486C159.298 42.6451 157.615 44.3222 155.612 44.3222H147.599C145.596 44.3222 143.913 42.6451 143.913 40.6486V17.7289H130.131V41.7666C130.131 51.5894 136.461 56.7803 145.756 56.7803H159.218C167.792 56.7803 173 50.6311 173 41.7666V17.7289H159.298ZM27.2441 17.7289H18.4298C15.3048 17.7289 13.7823 18.5275 13.7823 18.5275V0H0V56.7803H13.7022V33.9404C13.7022 31.9439 15.3849 30.2668 17.3881 30.2668H25.4011C27.4044 30.2668 29.0871 31.9439 29.0871 33.9404V56.8601H42.8694V32.1036C42.8694 21.7218 35.8981 17.7289 27.2441 17.7289Z" fill="#1CE783"/>
</svg>
