<svg width="213" height="46" viewBox="0 0 213 46" fill="none" xmlns="http://www.w3.org/2000/svg">
<g clip-path="url(#clip0_1062_1016)">
<path d="M75.1848 26.3765L73.9153 29.9975H73.8095C73.5979 29.181 73.21 27.9385 72.5752 26.4475L65.7691 9.23H59.104V36.6715H63.5121V19.738C63.5121 18.673 63.5121 17.466 63.4768 15.975C63.4416 15.2295 63.3711 14.6615 63.3358 14.2355H63.4416C63.6532 15.3005 63.9 16.0815 64.0764 16.5785L72.2578 36.6005H75.3611L83.472 16.401C83.6484 15.9395 83.8247 15.0165 84.001 14.2355H84.1068C84.001 16.259 83.9305 18.0695 83.8952 19.17V36.565H88.5855V9.159H82.1672L75.1848 26.3765ZM93.0288 16.898H97.6133V36.565H93.0288V16.898ZM95.3563 8.591C94.5805 8.591 93.9457 8.875 93.4167 9.372C92.8878 9.869 92.6057 10.508 92.6057 11.289C92.6057 12.0345 92.8878 12.6735 93.4167 13.1705C93.9457 13.6675 94.5805 13.916 95.3563 13.916C96.1321 13.916 96.8022 13.632 97.2959 13.1705C97.8249 12.6735 98.107 12.0345 98.107 11.289C98.107 10.5435 97.8249 9.9045 97.2959 9.372C96.8374 8.875 96.1674 8.591 95.3563 8.591ZM113.87 16.7205C113.024 16.543 112.142 16.4365 111.296 16.4365C109.215 16.4365 107.311 16.898 105.724 17.821C104.137 18.744 102.868 20.022 102.057 21.6195C101.21 23.2525 100.787 25.134 100.787 27.2995C100.787 29.181 101.21 30.8495 102.021 32.376C102.832 33.867 103.961 35.074 105.477 35.8905C106.923 36.707 108.616 37.133 110.52 37.133C112.707 37.133 114.576 36.6715 116.057 35.8195L116.092 35.784V31.524L115.916 31.666C115.246 32.163 114.47 32.589 113.694 32.8375C112.883 33.1215 112.142 33.2635 111.508 33.2635C109.674 33.2635 108.228 32.731 107.205 31.5595C106.147 30.4235 105.618 28.8615 105.618 26.909C105.618 24.8855 106.147 23.288 107.241 22.1165C108.334 20.945 109.78 20.3415 111.543 20.3415C113.024 20.3415 114.54 20.8385 115.916 21.8325L116.092 21.9745V17.466L116.057 17.4305C115.457 17.182 114.787 16.898 113.87 16.7205ZM128.999 16.5785C127.871 16.5785 126.813 16.9335 125.896 17.679C125.12 18.318 124.591 19.241 124.132 20.3415H124.097V16.898H119.513V36.565H124.097V26.5185C124.097 24.8145 124.45 23.3945 125.226 22.365C126.002 21.3 126.989 20.7675 128.188 20.7675C128.611 20.7675 129.034 20.874 129.563 20.945C130.057 21.087 130.41 21.229 130.656 21.4065L130.833 21.5485V16.9335L130.727 16.898C130.41 16.685 129.775 16.5785 128.999 16.5785ZM141.483 16.472C138.274 16.472 135.699 17.4305 133.901 19.312C132.067 21.1935 131.185 23.785 131.185 27.051C131.185 30.104 132.102 32.589 133.866 34.3995C135.629 36.1745 138.027 37.0975 141.024 37.0975C144.163 37.0975 146.667 36.139 148.465 34.222C150.299 32.305 151.181 29.749 151.181 26.5895C151.181 23.4655 150.334 20.9805 148.606 19.17C146.949 17.3595 144.516 16.472 141.483 16.472ZM145.15 31.595C144.304 32.6955 142.964 33.228 141.306 33.228C139.649 33.228 138.309 32.6955 137.357 31.524C136.405 30.4235 135.946 28.826 135.946 26.8025C135.946 24.708 136.44 23.1105 137.357 21.9745C138.309 20.8385 139.614 20.2705 141.271 20.2705C142.893 20.2705 144.163 20.803 145.08 21.9035C145.997 23.004 146.49 24.6015 146.49 26.696C146.42 28.826 146.032 30.4945 145.15 31.595ZM161.407 25.063C159.962 24.4595 159.045 23.998 158.622 23.6075C158.269 23.2525 158.093 22.7555 158.093 22.1165C158.093 21.584 158.304 21.0515 158.833 20.6965C159.362 20.3415 159.962 20.164 160.843 20.164C161.619 20.164 162.43 20.306 163.206 20.519C163.982 20.732 164.687 21.0515 165.251 21.4775L165.428 21.6195V17.2885L165.322 17.253C164.793 17.04 164.088 16.827 163.241 16.6495C162.395 16.5075 161.619 16.4365 160.984 16.4365C158.798 16.4365 156.999 16.969 155.589 18.1405C154.178 19.241 153.508 20.732 153.508 22.4715C153.508 23.3945 153.649 24.211 153.967 24.8855C154.284 25.56 154.742 26.199 155.377 26.7315C156.012 27.2285 156.929 27.7965 158.198 28.329C159.256 28.7905 160.067 29.1455 160.561 29.4295C161.055 29.7135 161.372 30.033 161.619 30.2815C161.795 30.5655 161.901 30.9205 161.901 31.382C161.901 32.6955 160.914 33.3345 158.904 33.3345C158.128 33.3345 157.317 33.1925 156.365 32.873C155.412 32.5535 154.531 32.092 153.79 31.5595L153.614 31.4175V35.926L153.72 35.9615C154.39 36.281 155.201 36.494 156.188 36.7425C157.176 36.92 158.057 37.062 158.833 37.062C161.196 37.062 163.135 36.5295 164.511 35.358C165.921 34.222 166.662 32.7665 166.662 30.885C166.662 29.5715 166.309 28.4 165.533 27.5125C164.511 26.6605 163.241 25.773 161.407 25.063ZM178.758 16.472C175.549 16.472 172.974 17.4305 171.176 19.312C169.377 21.1935 168.46 23.785 168.46 27.051C168.46 30.104 169.377 32.589 171.141 34.3995C172.904 36.1745 175.302 37.0975 178.299 37.0975C181.438 37.0975 183.942 36.139 185.74 34.222C187.574 32.305 188.456 29.749 188.456 26.5895C188.456 23.4655 187.609 20.9805 185.881 19.17C184.224 17.3595 181.791 16.472 178.758 16.472ZM182.39 31.595C181.544 32.6955 180.204 33.228 178.546 33.228C176.854 33.228 175.549 32.6955 174.597 31.524C173.644 30.4235 173.186 28.826 173.186 26.8025C173.186 24.708 173.68 23.1105 174.597 21.9745C175.549 20.8385 176.854 20.2705 178.511 20.2705C180.098 20.2705 181.403 20.803 182.32 21.9035C183.236 23.004 183.73 24.6015 183.73 26.696C183.73 28.826 183.272 30.4945 182.39 31.595ZM212.965 20.6965V16.898H208.345V11.076L208.204 11.1115L203.831 12.425L203.725 12.4605V16.898H196.813V14.413C196.813 13.277 197.096 12.3895 197.589 11.8215C198.083 11.2535 198.824 10.9695 199.74 10.9695C200.375 10.9695 201.045 11.1115 201.786 11.431L201.962 11.5375V7.526L201.856 7.4905C201.222 7.2775 200.375 7.1355 199.282 7.1355C197.907 7.1355 196.708 7.455 195.614 7.9875C194.521 8.591 193.71 9.4075 193.111 10.508C192.511 11.573 192.194 12.78 192.194 14.1645V16.898H188.985V20.661H192.194V36.565H196.813V20.6965H203.725V30.814C203.725 34.9675 205.665 37.062 209.544 37.062C210.179 37.062 210.849 36.9555 211.484 36.849C212.154 36.707 212.647 36.5295 212.929 36.3875L212.965 36.352V32.5535L212.788 32.6955C212.506 32.873 212.259 33.015 211.836 33.1215C211.484 33.228 211.166 33.2635 210.919 33.2635C210.003 33.2635 209.368 33.0505 208.909 32.518C208.486 32.021 208.275 31.2045 208.275 29.9975V20.6965H212.965Z" fill="#737373"/>
<path d="M0 0H21.6174V21.7615H0V0Z" fill="#F25022"/>
<path d="M23.8745 0H45.4919V21.7615H23.8745V0Z" fill="#7FBA00"/>
<path d="M0 24.0335H21.6174V45.795H0V24.0335Z" fill="#00A4EF"/>
<path d="M23.8745 24.0335H45.4919V45.795H23.8745V24.0335Z" fill="#FFB900"/>
</g>
<defs>
<clipPath id="clip0_1062_1016">
<rect width="213" height="45.795" fill="white"/>
</clipPath>
</defs>
</svg>
