<svg width="100" height="75" viewBox="0 0 46 32" fill="none" xmlns="http://www.w3.org/2000/svg">
  <path d="M40.649 12.795C38.541 12.795 37.034 13.77 36.273 15.214C36.273 11.803 37.463 8.831 40.288 8.831C42.084 8.831 42.797 9.865 43.177 11.559L45.793 11.036C45.178 8.11 43.319 6.689 40.306 6.689C36.521 6.689 33.689 9.595 33.689 16.109C33.689 21.892 36.05 24.75 40.119 24.75C43.482 24.75 46 22.454 46 18.67C46 15.714 44.424 12.795 40.649 12.795V12.795ZM40.126 22.613C38.039 22.613 36.595 20.693 36.344 18.15C36.978 15.978 38.384 14.897 40.045 14.897C42.181 14.897 43.387 16.474 43.387 18.717C43.387 21.124 42.014 22.613 40.126 22.613V22.613ZM26.211 18.975C25.364 19.822 23.455 21.351 22.123 22.271H30.114V24.563H18.355V22.47C19.718 21.497 22.548 19.384 24.319 17.612C26.014 15.917 27.124 14.368 27.124 12.094C27.124 9.857 25.895 8.927 24.234 8.927C22.532 8.927 21.172 9.911 21.172 11.966C21.172 12.414 21.222 12.912 21.346 13.485L18.675 13.226C18.5591 12.7701 18.5007 12.3014 18.501 11.831C18.501 9.088 20.425 6.689 24.322 6.689C27.537 6.689 29.915 8.358 29.915 12.007C29.915 15.325 27.492 17.712 26.402 18.786L26.211 18.975V18.975ZM0 0H14.251V2.292H0V0ZM11.579 6.875V18.975H11.578C11.578 20.046 11.603 20.694 11.653 21.317H11.603C11.341 20.604 11.032 19.979 10.572 19.165L3.416 6.875H0.146V24.563H2.694V12.463H2.696C2.696 11.391 2.671 10.744 2.621 10.121H2.671C2.932 10.834 3.241 11.459 3.701 12.272L10.857 24.563H14.094V6.875H11.579V6.875ZM0 29.146H14.251V31.426H0V29.146Z" fill="black" />
</svg>