<svg width="192" height="52" viewBox="0 0 192 52" fill="none" xmlns="http://www.w3.org/2000/svg">
<path d="M71.5526 10.4501H60.9632C60.6126 10.4499 60.2735 10.5748 60.0069 10.8025C59.7403 11.0302 59.5639 11.3456 59.5092 11.6919L55.2264 38.8459C55.2067 38.9719 55.2146 39.1007 55.2494 39.2234C55.2843 39.3461 55.3453 39.4597 55.4283 39.5566C55.5113 39.6534 55.6143 39.7311 55.7302 39.7843C55.8461 39.8375 55.9722 39.865 56.0997 39.8648H61.1552C61.506 39.8649 61.8453 39.7397 62.1119 39.5118C62.3785 39.2838 62.5548 38.968 62.6091 38.6214L63.7642 31.2976C63.8184 30.9513 63.9946 30.6357 64.2609 30.4077C64.5271 30.1798 64.8661 30.0544 65.2166 30.0542H68.5689C75.5443 30.0542 79.5701 26.6787 80.6215 19.9897C81.0953 17.0632 80.6416 14.7639 79.2713 13.1536C77.7663 11.3853 75.0969 10.4501 71.5526 10.4501ZM72.7743 20.3675C72.1952 24.1672 69.292 24.1672 66.4847 24.1672H64.8868L66.0078 17.071C66.0406 16.8634 66.1465 16.6743 66.3063 16.5378C66.4661 16.4012 66.6694 16.3262 66.8796 16.3262H67.612C69.5242 16.3262 71.3281 16.3262 72.2602 17.4163C72.8161 18.0666 72.9864 19.0328 72.7743 20.3675ZM103.206 20.2452H98.1353C97.9251 20.2452 97.7218 20.3202 97.562 20.4567C97.4022 20.5933 97.2964 20.7823 97.2636 20.9899L97.0391 22.4083L96.6845 21.8942C95.5867 20.3009 93.1387 19.7683 90.6953 19.7683C85.0917 19.7683 80.3056 24.0124 79.3735 29.9659C78.8889 32.9358 79.5779 35.7755 81.2625 37.7559C82.8078 39.5768 85.0189 40.3355 87.6496 40.3355C92.1647 40.3355 94.6685 37.4323 94.6685 37.4323L94.4424 38.8413C94.4223 38.9673 94.4297 39.0961 94.4641 39.219C94.4986 39.3418 94.5592 39.4557 94.6419 39.5528C94.7247 39.65 94.8274 39.728 94.9432 39.7816C95.059 39.8352 95.185 39.863 95.3126 39.8632H99.8803C100.231 39.8634 100.57 39.7382 100.837 39.5102C101.104 39.2822 101.28 38.9664 101.334 38.6199L104.075 21.264C104.095 21.1383 104.088 21.0097 104.053 20.8872C104.019 20.7646 103.958 20.6509 103.876 20.5541C103.793 20.4572 103.691 20.3794 103.575 20.3261C103.459 20.2727 103.334 20.2451 103.206 20.2452ZM96.1379 30.1146C95.6486 33.0116 93.3492 34.9564 90.4166 34.9564C88.9441 34.9564 87.7673 34.4841 87.0117 33.5892C86.2623 32.7004 85.9774 31.4354 86.2158 30.0263C86.6726 27.1541 89.0107 25.1458 91.8984 25.1458C93.3384 25.1458 94.509 25.6243 95.2801 26.527C96.0527 27.439 96.3593 28.7118 96.1379 30.1146ZM130.213 20.2452H125.118C124.877 20.2456 124.641 20.3046 124.428 20.4171C124.216 20.5296 124.034 20.6922 123.899 20.8908L116.871 31.2434L113.892 21.295C113.8 20.9916 113.614 20.7256 113.359 20.5366C113.105 20.3475 112.796 20.2453 112.48 20.2452H107.472C107.332 20.2448 107.193 20.278 107.068 20.342C106.943 20.406 106.835 20.499 106.753 20.6132C106.671 20.7274 106.617 20.8596 106.597 20.9986C106.576 21.1377 106.589 21.2796 106.634 21.4127L112.247 37.8844L106.97 45.3337C106.877 45.4658 106.821 45.6211 106.81 45.7827C106.798 45.9443 106.832 46.1059 106.906 46.2498C106.98 46.3937 107.093 46.5144 107.231 46.5986C107.37 46.6828 107.528 46.7273 107.69 46.7272H112.78C113.018 46.7276 113.252 46.6703 113.462 46.5602C113.673 46.4502 113.854 46.2907 113.989 46.0955L130.938 21.631C131.03 21.4986 131.084 21.3436 131.094 21.1828C131.104 21.022 131.07 20.8616 130.995 20.7188C130.92 20.576 130.808 20.4564 130.67 20.3729C130.532 20.2894 130.374 20.2452 130.213 20.2452Z" fill="#253B80"/>
<path d="M147.084 10.4501H136.493C136.143 10.4502 135.804 10.5754 135.538 10.803C135.272 11.0307 135.095 11.3458 135.041 11.6919L130.758 38.8459C130.738 38.9717 130.746 39.1003 130.78 39.2229C130.815 39.3455 130.875 39.4591 130.958 39.5559C131.041 39.6528 131.144 39.7305 131.259 39.7838C131.375 39.8372 131.501 39.8648 131.628 39.8648H137.063C137.308 39.8644 137.545 39.7766 137.731 39.6171C137.918 39.4575 138.041 39.2368 138.079 38.9946L139.294 31.2975C139.348 30.9512 139.525 30.6357 139.791 30.4077C140.057 30.1798 140.396 30.0544 140.747 30.0542H144.097C151.074 30.0542 155.099 26.6787 156.151 19.9897C156.627 17.0632 156.17 14.7639 154.8 13.1535C153.296 11.3853 150.628 10.4501 147.084 10.4501ZM148.306 20.3675C147.728 24.1672 144.825 24.1672 142.016 24.1672H140.42L141.542 17.071C141.575 16.8634 141.68 16.6741 141.84 16.5375C141.999 16.4009 142.203 16.3259 142.413 16.3262H143.145C145.056 16.3262 146.861 16.3262 147.793 17.4163C148.349 18.0666 148.518 19.0328 148.306 20.3675ZM178.736 20.2452H173.668C173.458 20.2446 173.255 20.3194 173.095 20.4561C172.935 20.5928 172.83 20.7822 172.798 20.9899L172.574 22.4083L172.218 21.8942C171.12 20.3009 168.673 19.7683 166.23 19.7683C160.626 19.7683 155.842 24.0124 154.91 29.9659C154.427 32.9357 155.112 35.7755 156.797 37.7559C158.346 39.5768 160.554 40.3355 163.184 40.3355C167.699 40.3355 170.203 37.4323 170.203 37.4323L169.977 38.8413C169.957 38.9675 169.964 39.0966 169.999 39.2197C170.034 39.3428 170.094 39.4568 170.178 39.554C170.261 39.6512 170.364 39.7292 170.48 39.7826C170.596 39.836 170.722 39.8635 170.85 39.8632H175.416C175.767 39.863 176.106 39.7376 176.372 39.5097C176.639 39.2817 176.815 38.9662 176.869 38.6199L179.611 21.264C179.631 21.1379 179.622 21.0091 179.587 20.8864C179.552 20.7638 179.491 20.6501 179.408 20.5533C179.325 20.4565 179.222 20.3789 179.106 20.3257C178.99 20.2725 178.864 20.245 178.736 20.2452ZM171.668 30.1146C171.182 33.0116 168.879 34.9564 165.947 34.9564C164.477 34.9564 163.297 34.4841 162.542 33.5892C161.792 32.7004 161.51 31.4354 161.746 30.0263C162.206 27.1541 164.541 25.1458 167.428 25.1458C168.868 25.1458 170.039 25.6243 170.81 26.527C171.586 27.439 171.892 28.7117 171.668 30.1146ZM184.715 11.1948L180.368 38.8459C180.348 38.9717 180.356 39.1003 180.39 39.2229C180.425 39.3455 180.486 39.4591 180.568 39.5559C180.651 39.6528 180.754 39.7305 180.87 39.7838C180.985 39.8372 181.111 39.8648 181.238 39.8648H185.608C186.334 39.8648 186.95 39.3383 187.062 38.6214L191.348 11.4689C191.368 11.343 191.36 11.2144 191.326 11.0917C191.291 10.9691 191.23 10.8554 191.148 10.7584C191.065 10.6614 190.962 10.5835 190.847 10.53C190.731 10.4766 190.605 10.4487 190.478 10.4485H185.585C185.375 10.4493 185.172 10.5248 185.012 10.6615C184.853 10.7983 184.747 10.9873 184.715 11.1948Z" fill="#179BD7"/>
<path d="M11.2503 45.1417L12.0601 39.9979L10.2563 39.9561H1.64258L7.62864 2.00052C7.64646 1.88454 7.70537 1.77884 7.79461 1.70267C7.88386 1.62649 7.99751 1.58493 8.11484 1.58555H22.6387C27.4604 1.58555 30.7879 2.5889 32.5252 4.56929C33.3396 5.49832 33.8583 6.46916 34.1092 7.53755C34.3724 8.65858 34.377 9.99793 34.12 11.6315L34.1014 11.7507V12.7974L34.9159 13.2588C35.5376 13.5738 36.0965 14 36.5649 14.5161C37.2617 15.3104 37.7123 16.32 37.9027 17.5169C38.0994 18.7479 38.0343 20.2126 37.7123 21.871C37.3406 23.7786 36.7399 25.44 35.9285 26.7995C35.2126 28.0174 34.2501 29.0722 33.1027 29.8963C32.025 30.6612 30.7445 31.2418 29.2968 31.6134C27.8939 31.9788 26.2945 32.1631 24.5401 32.1631H23.4098C22.6015 32.1631 21.8165 32.4542 21.2003 32.976C20.5849 33.5034 20.1766 34.232 20.0483 35.0323L19.9631 35.4952L18.5324 44.561L18.4674 44.8939C18.4503 44.9992 18.4209 45.0519 18.3775 45.0875C18.3356 45.1218 18.2832 45.1409 18.2289 45.1417H11.2503Z" fill="#253B80"/>
<path d="M35.6873 11.8715C35.6439 12.1487 35.5944 12.432 35.5386 12.7231C33.6233 22.5569 27.0705 25.9541 18.7015 25.9541H14.4403C13.4168 25.9541 12.5544 26.6973 12.3949 27.7068L10.2132 41.5432L9.59542 45.4653C9.57081 45.6209 9.58021 45.7799 9.62296 45.9315C9.66572 46.0831 9.74082 46.2236 9.84309 46.3434C9.94537 46.4632 10.0724 46.5594 10.2154 46.6254C10.3584 46.6914 10.514 46.7256 10.6715 46.7257H18.2292C19.1242 46.7257 19.8844 46.0754 20.0254 45.1928L20.0997 44.8088L21.5226 35.7786L21.614 35.2831C21.7534 34.3974 22.5152 33.7471 23.4101 33.7471H24.5404C31.8628 33.7471 37.5949 30.7742 39.2703 22.1714C39.9701 18.5776 39.6078 15.5768 37.7559 13.4663C37.169 12.8135 36.468 12.273 35.6873 11.8715Z" fill="#179BD7"/>
<path d="M33.6833 11.0725C33.0717 10.8956 32.4496 10.7575 31.8206 10.6591C30.5777 10.4681 29.3216 10.3765 28.0642 10.385H16.6805C16.2472 10.3847 15.8282 10.5394 15.499 10.8211C15.1699 11.1028 14.9524 11.493 14.8859 11.921L12.4642 27.2594L12.3945 27.7068C12.47 27.2186 12.7177 26.7734 13.0929 26.4519C13.468 26.1304 13.9459 25.9538 14.44 25.9541H18.7011C27.0701 25.9541 33.6229 22.5554 35.5383 12.7231C35.5956 12.432 35.6436 12.1487 35.6869 11.8715C35.1815 11.6065 34.6548 11.3843 34.1122 11.2072C33.97 11.16 33.827 11.1151 33.6833 11.0725Z" fill="#222D65"/>
<path d="M14.8861 11.921C14.952 11.4928 15.1694 11.1025 15.4987 10.8209C15.828 10.5393 16.2474 10.3852 16.6806 10.3866H28.0644C29.413 10.3866 30.6719 10.4748 31.8208 10.6606C32.5982 10.7828 33.3649 10.9656 34.1139 11.2072C34.6791 11.3946 35.204 11.616 35.6886 11.8715C36.2584 8.23742 35.684 5.7631 33.7191 3.52258C31.5529 1.056 27.6432 0 22.6404 0H8.11651C7.09457 0 6.22283 0.743226 6.06489 1.75432L0.0153441 40.1001C-0.0128337 40.2782 -0.00211303 40.4602 0.0467687 40.6337C0.0956504 40.8072 0.181533 40.968 0.298509 41.1051C0.415485 41.2423 0.560778 41.3524 0.724393 41.4281C0.888009 41.5037 1.06606 41.543 1.24631 41.5432H10.213L12.4644 27.2594L14.8861 11.921Z" fill="#253B80"/>
</svg>
