<svg width="186" height="53" viewBox="0 0 186 53" fill="none" xmlns="http://www.w3.org/2000/svg">
<g clip-path="url(#clip0_1062_939)">
<path d="M40.1205 9.99503C40.0845 9.7329 39.8555 9.58748 39.6654 9.57165C39.4768 9.55581 35.7816 9.49967 35.7816 9.49967C35.7816 9.49967 32.6911 6.49854 32.3858 6.19324C32.0806 5.88795 31.4843 5.98011 31.2525 6.04923C31.2496 6.05068 30.6722 6.22924 29.7001 6.53022C29.5374 6.00315 29.2983 5.35511 28.957 4.7042C27.8568 2.60457 26.2454 1.49427 24.2983 1.4914C24.2955 1.4914 24.294 1.4914 24.2912 1.4914C24.1558 1.4914 24.0219 1.50436 23.8866 1.51587C23.8289 1.44675 23.7713 1.37907 23.7108 1.31282C22.8626 0.40558 21.7754 -0.0365236 20.4721 0.00235841C17.9577 0.0743622 15.4535 1.8903 13.423 5.11606C11.9944 7.38562 10.9071 10.237 10.599 12.4446C7.7116 13.3389 5.69261 13.9638 5.64797 13.9783C4.19061 14.4362 4.14454 14.4808 3.95445 15.8547C3.81332 16.893 0 46.38 0 46.38L31.9567 51.907L45.8073 48.4637C45.8073 48.4637 40.1564 10.2572 40.1205 9.99503ZM28.1002 7.0256C27.3643 7.25313 26.5276 7.51235 25.6203 7.79317C25.6016 6.52014 25.4504 4.74885 24.8571 3.21804C26.7652 3.57951 27.7041 5.73818 28.1002 7.0256ZM23.9484 8.31159C22.2736 8.82998 20.4462 9.39594 18.613 9.96337C19.1285 7.98901 20.1063 6.02331 21.3074 4.73444C21.7538 4.2549 22.3787 3.72063 23.1189 3.41533C23.8145 4.86693 23.9657 6.92192 23.9484 8.31159ZM20.5225 1.67572C21.1129 1.66276 21.6097 1.79237 22.0346 2.07175C21.3549 2.42457 20.6982 2.93147 20.0819 3.59246C18.4848 5.30616 17.2607 7.96597 16.7725 10.5322C15.2504 11.0031 13.7613 11.4654 12.3904 11.8888C13.2559 7.84933 16.6415 1.78805 20.5225 1.67572Z" fill="#95BF47"/>
<path d="M39.6667 9.5731C39.4781 9.55727 35.7829 9.50113 35.7829 9.50113C35.7829 9.50113 32.6925 6.49999 32.3872 6.1947C32.2734 6.08092 32.1194 6.02188 31.958 5.99741L31.9595 51.9056L45.8087 48.4638C45.8087 48.4638 40.1578 10.2586 40.1219 9.99649C40.0858 9.73436 39.8554 9.58894 39.6667 9.5731Z" fill="#5E8E3E"/>
<path d="M24.281 16.6943L22.6725 22.7123C22.6725 22.7123 20.8782 21.8958 18.7512 22.0298C15.6319 22.2271 15.5988 24.1942 15.6306 24.6882C15.8005 27.3796 22.8813 27.9672 23.2788 34.2718C23.5913 39.2315 20.6477 42.6243 16.4067 42.8921C11.3161 43.2133 8.51367 40.2107 8.51367 40.2107L9.59231 35.6226C9.59231 35.6226 12.4134 37.7511 14.6714 37.6085C16.1461 37.5149 16.6731 36.3153 16.6198 35.4671C16.3981 31.9562 10.632 32.1636 10.2677 26.3946C9.96093 21.5402 13.1493 16.6209 20.184 16.1773C22.8943 16.0031 24.281 16.6943 24.281 16.6943Z" fill="white"/>
<path d="M64.0462 29.2961C62.4536 28.4319 61.6351 27.7035 61.6351 26.7022C61.6351 25.4281 62.7721 24.6096 64.5475 24.6096C66.6143 24.6096 68.4597 25.4738 68.4597 25.4738L69.9152 21.0146C69.9152 21.0146 68.5768 19.9676 64.6375 19.9676C59.1555 19.9676 55.3562 23.107 55.3562 27.5206C55.3562 30.023 57.1302 31.9341 59.4969 33.2982C61.408 34.3894 62.0908 35.1636 62.0908 36.3006C62.0908 37.4833 61.1353 38.4388 59.3613 38.4388C56.7174 38.4388 54.2207 37.0733 54.2207 37.0733L52.6738 41.5325C52.6738 41.5325 54.9806 43.0794 58.8613 43.0794C64.5033 43.0794 68.5526 40.3041 68.5526 35.2993C68.5511 32.6169 66.5044 30.7058 64.0462 29.2961Z" fill="black"/>
<path d="M86.5226 19.9233C83.7472 19.9233 81.5633 21.2431 79.8807 23.2442L79.7893 23.1984L82.2003 10.5963H75.9213L69.8252 42.6709H76.1041L78.1967 31.707C79.0151 27.5663 81.1533 25.0196 83.1559 25.0196C84.5656 25.0196 85.1127 25.9751 85.1127 27.3406C85.1127 28.2048 85.0212 29.2517 84.8398 30.1159L82.4745 42.6724H88.7538L91.2098 29.7059C91.4832 28.3404 91.6658 26.7036 91.6658 25.6109C91.6632 22.0615 89.798 19.9233 86.5226 19.9233Z" fill="black"/>
<path d="M105.858 19.9233C98.3047 19.9233 93.3018 26.7479 93.3018 34.3452C93.3018 39.213 96.3037 43.1252 101.946 43.1252C109.362 43.1252 114.366 36.4834 114.366 28.7033C114.366 24.1997 111.727 19.9233 105.858 19.9233ZM102.764 38.3045C100.626 38.3045 99.7157 36.4848 99.7157 34.2095C99.7157 30.6158 101.582 24.7468 104.994 24.7468C107.223 24.7468 107.95 26.6579 107.95 28.5233C107.95 32.3898 106.086 38.3045 102.764 38.3045Z" fill="black"/>
<path d="M130.426 19.9233C126.188 19.9233 123.783 23.6541 123.783 23.6541H123.693L124.057 20.2875H118.507C118.234 22.5628 117.732 26.0194 117.233 28.6133L112.865 51.588H119.144L120.872 42.3067H121.009C121.009 42.3067 122.298 43.1252 124.695 43.1252C132.065 43.1252 136.887 35.5736 136.887 27.9291C136.887 23.6999 135.021 19.9233 130.426 19.9233ZM124.421 38.3945C122.791 38.3945 121.826 37.4846 121.826 37.4846L122.873 31.6157C123.601 27.7034 125.648 25.1096 127.833 25.1096C129.744 25.1096 130.335 26.8836 130.335 28.5676C130.335 32.6169 127.923 38.3945 124.421 38.3945Z" fill="black"/>
<path d="M145.85 10.9148C143.849 10.9148 142.256 12.5074 142.256 14.5542C142.256 16.4196 143.438 17.6937 145.213 17.6937H145.304C147.261 17.6937 148.943 16.3739 148.989 14.0543C148.989 12.2346 147.761 10.9148 145.85 10.9148Z" fill="black"/>
<path d="M137.07 42.6709H143.348L147.626 20.4246H141.301L137.07 42.6709Z" fill="black"/>
<path d="M163.594 20.3789H159.226L159.453 19.332C159.817 17.1937 161.091 15.2826 163.184 15.2826C164.301 15.2826 165.185 15.6011 165.185 15.6011L166.414 10.6877C166.414 10.6877 165.322 10.1421 163.001 10.1421C160.771 10.1421 158.544 10.7791 156.859 12.2345C154.721 14.0543 153.72 16.6924 153.22 19.332L153.039 20.3789H150.126L149.216 25.111H152.129L148.808 42.6724H155.087L158.408 25.111H162.73L163.594 20.3789Z" fill="black"/>
<path d="M178.699 20.4247C178.699 20.4247 174.774 30.313 173.011 35.7107H172.92C172.8 33.9724 171.373 20.4247 171.373 20.4247H164.776L168.553 40.8512C168.645 41.3055 168.599 41.5797 168.417 41.8982C167.687 43.308 166.46 44.6735 165.004 45.6747C163.821 46.5388 162.502 47.0845 161.456 47.4487L163.185 52.7721C164.459 52.4993 167.097 51.4523 169.326 49.3598C172.193 46.6759 174.831 42.5352 177.56 36.8933L185.249 20.4232H178.699V20.4247Z" fill="black"/>
</g>
<defs>
<clipPath id="clip0_1062_939">
<rect width="186" height="52.7721" fill="white"/>
</clipPath>
</defs>
</svg>
