<svg width="214" height="46" viewBox="0 0 214 46" fill="none" xmlns="http://www.w3.org/2000/svg">
<g clip-path="url(#clip0_1062_824)">
<path d="M212.797 30.4971C212.133 30.4971 211.594 31.0376 211.594 31.7031C211.594 32.3686 212.133 32.9091 212.797 32.9091C213.46 32.9091 214 32.3686 214 31.7031C214 31.0376 213.46 30.4971 212.797 30.4971ZM212.797 32.7179C212.237 32.7179 211.785 32.2614 211.785 31.7031C211.785 31.1421 212.24 30.6884 212.797 30.6884C213.356 30.6884 213.811 31.1448 213.811 31.7031C213.811 32.2615 213.356 32.7179 212.797 32.7179ZM213.188 31.4966C213.188 31.2773 213.033 31.1473 212.804 31.1473H212.42V32.2462H212.608V31.8485H212.814L213.013 32.2462H213.216L212.997 31.8077C213.115 31.7541 213.188 31.647 213.188 31.4966ZM212.797 31.6776H212.611V31.3131H212.797C212.924 31.3131 213 31.3768 213 31.4941C213 31.6139 212.921 31.6776 212.797 31.6776ZM67.8539 18.2916V15.3747H63.3932V32.7281H67.8539V22.3228C67.8539 20.4385 69.0594 19.5129 70.9388 19.5129H73.3803V15.3748H71.2948C69.6621 15.3747 68.243 16.2289 67.8539 18.2916ZM77.5587 8.51093C76.0328 8.51093 74.8629 9.71951 74.8629 11.2493C74.8629 12.7435 76.0328 13.952 77.5587 13.952C79.0846 13.952 80.2545 12.7435 80.2545 11.2493C80.2544 9.71944 79.0846 8.51093 77.5587 8.51093ZM75.3334 32.7281H79.784V15.3747H75.3334V32.7281ZM100.984 24.0514C100.984 29.0055 96.9783 33.0213 92.0369 33.0213C90.043 33.0213 88.2348 32.3661 86.7852 31.2594V37.8225H82.3347V15.3747H86.7852V16.8433C88.2348 15.7368 90.043 15.0815 92.0369 15.0815C96.9783 15.0815 100.984 19.0973 100.984 24.0514ZM96.5053 24.0514C96.5053 21.3615 94.3284 19.1789 91.6453 19.1789C88.9622 19.1789 86.7853 21.3615 86.7853 24.0514C86.7853 26.7414 88.9623 28.9239 91.6453 28.9239C94.3284 28.9239 96.5053 26.7439 96.5053 24.0514ZM178.337 22.5292L175.74 21.8153C174.031 21.3691 173.367 20.8439 173.367 19.9387C173.367 19.0565 174.303 18.4395 175.641 18.4395C176.915 18.4395 177.915 19.2758 177.915 20.3466V20.446H182.017V20.3466C182.017 17.1977 179.456 15.0814 175.641 15.0814C171.865 15.0814 169.12 17.1951 169.12 20.1095C169.12 22.3762 170.618 24.0845 173.233 24.7933L175.72 25.4741C177.609 25.9993 178.311 26.5807 178.311 27.6235C178.311 28.7225 177.297 29.4619 175.786 29.4619C174.212 29.4619 173.151 28.4623 173.151 26.9784V26.879H168.797V26.9784C168.797 30.5378 171.656 33.0263 175.75 33.0263C179.695 33.0263 182.559 30.5965 182.559 27.2512C182.558 25.6092 181.826 23.4624 178.337 22.5292ZM116.772 15.3747H121.222V32.7281H116.772V31.2594C115.322 32.366 113.514 33.0213 111.52 33.0213C106.579 33.0213 102.573 29.0055 102.573 24.0513C102.573 19.0972 106.579 15.0814 111.52 15.0814C113.514 15.0814 115.322 15.7367 116.772 16.8433V15.3747ZM116.772 24.0514C116.772 21.3589 114.595 19.1789 111.912 19.1789C109.229 19.1789 107.052 21.3615 107.052 24.0514C107.052 26.7414 109.229 28.9239 111.912 28.9239C114.597 28.9239 116.772 26.7439 116.772 24.0514ZM137.293 9.19933H141.743V32.7306H137.293V31.2619C135.843 32.3686 134.035 33.0238 132.041 33.0238C127.1 33.0238 123.094 29.008 123.094 24.0539C123.094 19.0997 127.1 15.084 132.041 15.084C134.035 15.084 135.843 15.7393 137.293 16.8458V9.19933ZM137.293 24.0514C137.293 21.3615 135.116 19.1789 132.433 19.1789C129.75 19.1789 127.573 21.3615 127.573 24.0514C127.573 26.7414 129.747 28.9239 132.433 28.9239C135.116 28.9239 137.293 26.7439 137.293 24.0514ZM162.406 32.7281H166.857V15.3747H162.406V32.7281ZM164.632 8.51093C163.106 8.51093 161.936 9.71951 161.936 11.2493C161.936 12.7435 163.106 13.952 164.632 13.952C166.158 13.952 167.327 12.7435 167.327 11.2493C167.327 9.71944 166.158 8.51093 164.632 8.51093ZM201.795 24.0514C201.795 29.0055 197.79 33.0213 192.848 33.0213C187.907 33.0213 183.901 29.0055 183.901 24.0514C183.901 19.0972 187.907 15.0815 192.848 15.0815C197.79 15.0815 201.795 19.0973 201.795 24.0514ZM197.708 24.0514C197.708 21.3615 195.531 19.1789 192.848 19.1789C190.165 19.1789 187.988 21.3615 187.988 24.0514C187.988 26.7414 190.163 28.9239 192.848 28.9239C195.531 28.9239 197.708 26.7439 197.708 24.0514ZM65.5752 9.19933H48.5029V13.1795H54.8227V32.7281H59.258V13.1795H65.5778V9.19933H65.5752ZM151.913 27.9754L147.954 15.3748H143.279L149.218 32.7281H154.573L160.547 15.3748H155.873L151.913 27.9754ZM208.316 18.2916V15.3747H203.855V32.7281H208.316V22.3228C208.316 20.4385 209.521 19.5129 211.4 19.5129H213.842V15.3748H211.757C210.124 15.3747 208.707 16.2289 208.316 18.2916Z" fill="black"/>
<path d="M22.7614 45.6398C35.3321 45.6398 45.5227 35.423 45.5227 22.8199C45.5227 10.2168 35.3321 0 22.7614 0C10.1906 0 0 10.2168 0 22.8199C0 35.423 10.1906 45.6398 22.7614 45.6398Z" fill="#34E0A1"/>
<path d="M36.8197 18.3681L39.5664 15.3722H33.4755C30.4262 13.2839 26.7437 12.0677 22.7611 12.0677C18.7835 12.0677 15.1113 13.2866 12.0671 15.3722H5.96094L8.70756 18.3681C7.02401 19.9081 5.96859 22.1264 5.96859 24.5894C5.96859 29.2376 9.72744 33.006 14.3636 33.006C16.566 33.006 18.5725 32.1544 20.0705 30.7623L22.7612 33.6996L25.4518 30.7648C26.9498 32.157 28.9538 33.006 31.1561 33.006C35.7923 33.006 39.5562 29.2376 39.5562 24.5894C39.5587 22.1239 38.5034 19.9056 36.8197 18.3681ZM14.3661 30.2855C11.2278 30.2855 8.68472 27.7358 8.68472 24.5894C8.68472 21.4431 11.2279 18.8934 14.3661 18.8934C17.5044 18.8934 20.0475 21.4431 20.0475 24.5894C20.0475 27.7358 17.5044 30.2855 14.3661 30.2855ZM22.7637 24.4237C22.7637 20.6756 20.045 17.4579 16.4566 16.0836C18.397 15.2702 20.5257 14.8189 22.7611 14.8189C24.9965 14.8189 27.1277 15.2702 29.0682 16.0836C25.4823 17.4604 22.7637 20.6757 22.7637 24.4237ZM31.1587 30.2855C28.0204 30.2855 25.4772 27.7358 25.4772 24.5894C25.4772 21.4431 28.0204 18.8934 31.1587 18.8934C34.297 18.8934 36.8401 21.4431 36.8401 24.5894C36.8401 27.7358 34.2969 30.2855 31.1587 30.2855ZM31.1587 21.6011C29.5132 21.6011 28.1806 22.9372 28.1806 24.5869C28.1806 26.2365 29.5132 27.5726 31.1587 27.5726C32.8041 27.5726 34.1367 26.2365 34.1367 24.5869C34.1367 22.9397 32.8041 21.6011 31.1587 21.6011ZM17.3442 24.5894C17.3442 26.2391 16.0115 27.5751 14.3661 27.5751C12.7207 27.5751 11.3881 26.2391 11.3881 24.5894C11.3881 22.9397 12.7207 21.6037 14.3661 21.6037C16.0115 21.6011 17.3442 22.9397 17.3442 24.5894Z" fill="black"/>
</g>
<defs>
<clipPath id="clip0_1062_824">
<rect width="214" height="45.6398" fill="white"/>
</clipPath>
</defs>
</svg>
