<svg width="150" height="50" viewBox="0 0 150 50" fill="none" xmlns="http://www.w3.org/2000/svg">
<path d="M22.3684 22.3697H13.1579V25H22.3684V35.5276H7.89475L2.63159 30.2645V2.63159H13.1579V11.8421H22.3684V22.3697Z" fill="white"/>
<path d="M61.8421 35.5276H30.2632L25 30.2645V11.8421H35.5263V25H38.1579V11.8421H48.6842V25H51.3158V11.8421H61.8421V35.5276Z" fill="white"/>
<path d="M74.9999 11.8421H64.4736V35.5263H74.9999V11.8421Z" fill="white"/>
<path d="M74.9999 2.63159H64.4736V9.21054H74.9999V2.63159Z" fill="white"/>
<path d="M97.3684 22.3697H88.1579V25H97.3684V35.5276H82.8947L77.6316 30.2645V2.63159H88.1579V11.8421H97.3684V22.3697Z" fill="white"/>
<path d="M121.053 22.3697H110.526V25H121.053V35.5276H105.263L100 30.2645V17.1066L105.263 11.8421H121.053V22.3697Z" fill="white"/>
<path d="M147.369 35.5276H136.842V22.3697H134.211V35.5276H123.684V2.63159H134.211V11.8421H142.105L147.369 17.1066V35.5276Z" fill="white"/>
<path d="M143.421 9.21053H136.842V0H122.396L115.753 9.21053H103.947L100 13.1579V9.21053H90.7895V0H61.8421V9.21053H21.1184L14.4737 0H0V31.5789L18.4211 50H36.8421V44.7368L42.1053 50H77.6316V44.7368L82.8947 50H100V44.7368L105.263 50H138.158L150 38.1579V15.7895L143.421 9.21053ZM22.3684 22.3684H13.1579V25H22.3684V35.5263H7.89474L2.63158 30.2632V2.63158H13.1579V11.8421H22.3684V22.3684ZM61.8421 35.5263H30.2632L25 30.2632V11.8421H35.5263V25H38.1579V11.8421H48.6842V25H51.3158V11.8421H61.8421V35.5263ZM75 35.5263H64.4737V11.8421H75V35.5263ZM75 9.21053H64.4737V2.63158H75V9.21053ZM97.3684 22.3684H88.1579V25H97.3684V35.5263H82.8947L77.6316 30.2632V2.63158H88.1579V11.8421H97.3684V22.3684ZM121.053 22.3684H110.526V25H121.053V35.5263H105.263L100 30.2632V17.1053L105.263 11.8421H121.053V22.3684ZM147.368 35.5263H136.842V22.3684H134.211V35.5263H123.684V2.63158H134.211V11.8421H142.105L147.368 17.1053V35.5263Z" fill="#9146FF"/>
</svg>
