<svg width="99" height="99" viewBox="0 0 99 99" fill="none" xmlns="http://www.w3.org/2000/svg">
<g clip-path="url(#clip0_1062_834)">
<path d="M97.2169 1.98872L74.6645 1.92044L74.3228 3.49222C74.3228 3.49222 79.6533 6.08924 81.1568 7.45598C82.6604 8.82282 82.9288 9.08316 82.9288 9.08316L75.7741 16.096C78.4555 18.2672 80.8599 20.7037 83.024 23.3706L89.8361 16.272L95.8501 24.3362H97.2169V1.98872Z" fill="#010101"/>
<path d="M90.5354 21.6922L85.4169 26.7635L85.4149 26.7648C89.5109 33.2182 91.9184 40.8547 92.0022 49.06C92.2419 72.5172 73.4202 91.7274 49.963 91.967C26.5057 92.2066 7.29555 73.385 7.05591 49.9277C6.81627 26.4705 25.6379 7.26033 49.0952 7.02078C57.7007 6.93282 65.7329 9.41277 72.4682 13.7434L77.7219 8.75866C69.4995 3.04395 59.7478 -0.035202 49.5379 -0.035202C49.3671 -0.035202 49.1945 -0.0344925 49.0229 -0.0325699C35.7941 0.102577 23.4095 5.38123 14.1508 14.831C4.89212 24.281 -0.132583 36.7707 0.00266069 49.9999C0.13679 63.1393 5.35487 75.4639 14.6956 84.7041C24.0295 93.9378 36.397 99.0229 49.5201 99.0229C49.6909 99.0229 49.8635 99.0221 50.035 99.0203C77.3442 98.7412 99.3348 76.297 99.0557 48.9881C98.9547 39.1069 95.9779 29.6867 90.5354 21.6922Z" fill="#010101"/>
<path d="M22.9163 46.0021H24.6651L21.7406 51.4099L18.7766 46.0032L20.9021 46.0021L20.9016 44.6569H12.116L12.1143 46.0032H14.1251L18.2111 53.4268L22.9423 53.4305L26.9586 46.0021L28.9717 46.0032V44.6569H22.9163V46.0021Z" fill="#010101"/>
<path d="M52.6181 52.0685H50.745V46.0012H52.7652V44.658L44.6538 44.6569L44.6547 46.0012H46.6962L46.6988 52.0704H44.6539V53.4305L56.8297 53.4295V49.3668H55.4916C55.4916 50.9223 54.3538 52.0685 52.6181 52.0685Z" fill="#010101"/>
<path d="M36.1874 44.4816C32.1597 44.4816 30.0205 46.4909 30.0205 49.0121C30.0205 51.5683 32.0803 53.606 36.2107 53.606C40.3397 53.606 42.3776 51.5683 42.3776 49.0121C42.3776 46.4909 40.2158 44.4816 36.1874 44.4816ZM36.1428 52.226C34.6719 52.1993 34.0254 50.5738 34.0536 48.9584C34.0828 47.2856 34.8833 45.8268 36.2611 45.8508C37.6389 45.8749 38.3664 47.3616 38.3368 49.0336C38.3088 50.6112 37.6576 52.2535 36.1428 52.226Z" fill="#010101"/>
<path d="M67.2477 46.0021H68.9968L66.0723 51.4099L63.1083 46.0032L65.2339 46.0021L65.2334 44.6569H56.4476L56.4458 46.0032H58.4567L62.5426 53.4268L67.2738 53.4305L71.2901 46.0021L73.3032 46.0032V44.6569H67.2477V46.0021Z" fill="#010101"/>
<path d="M80.4966 44.4414C76.4359 44.4414 74.2793 46.4672 74.2793 49.0091C74.2793 51.5861 76.3559 53.6406 80.5201 53.6406C84.6832 53.6406 86.7377 51.5861 86.7377 49.0091C86.7377 46.4672 84.5581 44.4414 80.4966 44.4414ZM80.4516 52.2493C78.9688 52.2224 78.317 50.5835 78.3453 48.9549C78.3749 47.2683 79.1818 45.7976 80.5709 45.8218C81.9602 45.8463 82.6934 47.345 82.6635 49.0308C82.6354 50.6213 81.979 52.2771 80.4516 52.2493Z" fill="#010101"/>
</g>
<defs>
<clipPath id="clip0_1062_834">
<rect width="99" height="99" fill="white"/>
</clipPath>
</defs>
</svg>
