<svg width="250" height="52" viewBox="0 0 250 52" fill="none" xmlns="http://www.w3.org/2000/svg">
<path d="M100.84 38.8199C96.9138 38.8199 93.8469 36.6067 93.8469 32.4224C93.8469 27.844 97.5273 26.0854 101.545 26.0854H104.827C106.851 26.0854 107.771 25.2971 107.771 23.9023C107.771 22.0831 106.084 21.2038 103.906 21.2038C101.3 21.2038 99.6436 22.4469 99.4902 24.6603H94.6445C94.9509 20.3548 97.7727 17.5653 103.845 17.5653C109.918 17.5653 112.402 20.4761 112.402 24.5087V33.0896C112.402 34.0598 112.77 34.4236 113.752 34.4236H114.518V38.1834H111.359C109.151 38.1834 107.924 37.0917 107.924 35.212V34.454H107.863C106.575 37.4255 103.968 38.8199 100.84 38.8199ZM102.281 35.1209C105.041 35.1209 107.771 33.423 107.771 29.2691V27.4195H107.709C107.096 28.6627 105.9 29.2691 103.814 29.3601L102.312 29.4207C99.8889 29.4813 98.846 30.6942 98.846 32.2709C98.846 33.8475 99.8889 35.1512 102.312 35.1512L102.281 35.1209Z" fill="#0B2471"/>
<path d="M117.677 32.7862V21.9618H113.782V18.202H117.677V12.7443H122.339V18.202H128.442V21.9618H122.339V32.1193C122.339 33.8172 123.228 34.484 124.762 34.484H128.534V38.2439H123.167C119.548 38.2439 117.647 36.4549 117.647 32.8166L117.677 32.7862Z" fill="#0B2471"/>
<path d="M129.667 28.2077C129.667 21.5675 133.838 17.5955 139.665 17.5955C145.493 17.5955 149.388 21.0217 149.388 27.4497V29.5115H134.605C134.758 32.9377 136.691 35.1816 139.788 35.1816C142.027 35.1816 143.714 33.9687 144.358 32.0586H149.142C148.253 36.0607 144.726 38.8199 139.727 38.8199C133.746 38.8199 129.698 34.8175 129.698 28.2077H129.667ZM144.726 26.2066C144.726 23.2958 142.947 21.234 139.788 21.234C136.629 21.234 134.942 23.4171 134.636 26.2066H144.726Z" fill="#0B2471"/>
<path d="M152.578 18.2016H157.148V21.3549H157.209C158.16 19.3538 159.448 18.2016 162.147 18.2016H164.11V21.9614H161.319C158.528 21.9614 157.24 23.4471 157.24 26.7217V38.2132H152.609V18.2016H152.578Z" fill="#0B2471"/>
<path d="M165.214 31.5733H169.998C170.121 34.0899 171.716 35.1816 174.108 35.1816C176.5 35.1816 177.972 34.0291 177.972 32.2405C177.972 30.6637 176.991 29.7237 174.476 29.7237H172.268C168.036 29.7237 165.582 27.4194 165.582 24.0538C165.582 20.2334 168.71 17.5955 174.016 17.5955C179.322 17.5955 182.45 20.4456 182.573 24.6905H177.819C177.696 22.4468 176.47 21.234 173.985 21.234C171.777 21.234 170.428 22.2649 170.428 23.9022C170.428 25.3879 171.563 26.1156 173.433 26.1156H175.856C180.702 26.1156 182.91 28.8141 182.91 32.0886C182.91 36.0607 179.751 38.8503 174.108 38.8503C168.465 38.8503 165.306 36 165.183 31.6037L165.214 31.5733Z" fill="#0B2471"/>
<path d="M186.132 12.8047H190.763V17.9592C190.763 18.8689 190.763 19.5662 190.701 21.2642H190.763C191.836 19.0811 193.922 17.5954 196.835 17.5954C200.976 17.5954 203.828 20.4455 203.828 25.2968V38.2135H199.197V26.2064C199.197 22.6286 197.663 21.2642 195.363 21.2642C193.063 21.2642 190.763 22.7499 190.763 26.7522V38.2135H186.132V12.8047Z" fill="#0B2471"/>
<path d="M206.985 28.2077C206.985 21.5675 211.126 17.5955 216.984 17.5955C222.841 17.5955 226.706 21.0217 226.706 27.4497V29.5115H211.923C212.077 32.9377 214.009 35.1816 217.107 35.1816C219.345 35.1816 221.032 33.9687 221.676 32.0586H226.461C225.571 36.0607 222.044 38.8199 217.045 38.8199C211.034 38.8199 207.016 34.8175 207.016 28.2077H206.985ZM222.044 26.2066C222.044 23.2958 220.265 21.234 217.107 21.234C213.948 21.234 212.261 23.4171 211.954 26.2066H222.044Z" fill="#0B2471"/>
<path d="M229.007 28.2076C229.007 21.2642 233.3 17.5954 238.023 17.5954C241.121 17.5954 243.575 19.172 244.801 21.719H244.863C244.801 21.0216 244.801 20.4152 244.801 19.6875V12.8047H249.432V38.2135H244.832V36.8794C244.832 36.1515 244.832 35.4847 244.863 34.7267H244.801C243.575 37.2736 241.121 38.8503 238.023 38.8503C233.3 38.8503 229.007 35.1813 229.007 28.2379V28.2076ZM239.404 35.1813C242.777 35.1813 244.801 32.4221 244.801 28.2076C244.801 23.993 242.777 21.2339 239.404 21.2339C236.03 21.2339 233.975 23.993 233.975 28.2076C233.975 32.4221 235.999 35.1813 239.404 35.1813Z" fill="#0B2471"/>
<path fill-rule="evenodd" clip-rule="evenodd" d="M76.9077 28.6812L81.1801 38.0316H84.9832L96.5761 12.5926H91.2396L83.1123 31.543H83.0203L74.9544 12.5926H69.5565L74.6154 23.6644L70.7832 32.5739H70.7219L62.6252 12.5926H57.2581L68.8817 38.0316H72.6541L76.9077 28.6812Z" fill="#0B2471"/>
<path fill-rule="evenodd" clip-rule="evenodd" d="M4.60612 23.6456C4.54545 24.2918 4.51443 24.9464 4.51443 25.6083C4.51443 33.8537 9.32765 40.9788 16.3067 44.3442C16.0192 43.861 15.7482 43.3623 15.4939 42.8525C13.2428 38.338 11.9134 32.2549 11.9134 25.655C11.9134 23.5724 12.0458 21.5412 12.2977 19.5946C10.4017 19.536 9.13005 19.9145 8.21689 20.3866C7.01272 21.009 6.27146 21.8254 5.37815 22.8094C5.13606 23.076 4.88281 23.3549 4.60612 23.6456ZM6.74864 16.2344C8.46348 15.4674 10.5251 15.0796 13.089 15.2524C13.6882 12.7426 14.5015 10.4475 15.4939 8.45739C15.7712 7.90135 16.0685 7.35862 16.3854 6.83479C12.2248 8.81951 8.82689 12.1379 6.74864 16.2344ZM23.1882 5.68197C21.9224 6.50844 20.6116 8.02669 19.425 10.4063C18.6283 12.0039 17.9486 13.8857 17.4288 15.9831C19.7892 16.6186 21.6532 17.6685 23.1882 18.9275V5.68197ZM23.1882 25.3768C21.4832 23.0337 19.6194 21.2073 16.6321 20.3082C16.4185 22.0093 16.3036 23.8003 16.3036 25.655C16.3036 31.7261 17.5354 37.1144 19.425 40.9037C20.6116 43.2831 21.9224 44.8015 23.1882 45.6279L23.1882 25.3768ZM27.5784 45.8298L27.5784 31.8015C29.044 33.661 30.8517 35.416 33.3275 36.5997C32.8643 38.1905 32.3057 39.6365 31.6738 40.9037C30.3831 43.4923 28.9453 45.0614 27.5784 45.8298ZM34.3051 32.1546C31.9471 30.7064 30.4508 28.4037 28.627 25.5973C28.4824 25.3748 28.3358 25.1491 28.1864 24.9205C27.9884 24.6172 27.7862 24.3103 27.5784 24.0018L27.5784 5.48019C28.9454 6.24847 30.3831 7.81776 31.6738 10.4063C33.5634 14.1956 34.7953 19.5839 34.7953 25.655C34.7953 27.9338 34.6217 30.1165 34.3051 32.1546ZM38.4919 33.7356C38.9438 31.1902 39.1855 28.4696 39.1855 25.655C39.1855 19.055 37.856 12.9718 35.6051 8.45739C35.3683 7.98295 35.1171 7.51819 34.8517 7.06657C41.6186 10.5065 46.252 17.5183 46.252 25.6083C46.252 27.2415 46.0634 28.8308 45.706 30.3557C45.6471 30.341 45.6474 30.3406 45.6474 30.3402L45.6481 30.3377L45.649 30.3333L45.6508 30.3264L45.6523 30.3209C45.6523 30.3208 45.6505 30.3276 45.6465 30.3407C45.6388 30.3671 45.6232 30.4182 45.5987 30.4895C45.5484 30.633 45.4634 30.8522 45.3333 31.1117C45.0695 31.639 44.6496 32.2773 44.0192 32.8089C43.1465 33.5448 41.5223 34.3696 38.4919 33.7356ZM37.4922 37.9954C36.9695 39.7558 36.3358 41.3868 35.6051 42.8525C35.3916 43.2807 35.1662 43.7006 34.9293 44.1104C37.6858 42.6945 40.0852 40.6847 41.9569 38.2503C40.6419 38.4141 39.1576 38.3521 37.4922 37.9954ZM25.7686 50.7837C39.5404 50.5785 50.6422 39.3862 50.6422 25.6083C50.6422 11.7021 39.3327 0.429962 25.3833 0.429962C11.4338 0.429962 0.124268 11.7021 0.124268 25.6083C0.124268 39.5144 11.4338 50.7865 25.3833 50.7865C25.4181 50.7865 25.4528 50.7865 25.4876 50.7865C25.5082 50.7865 25.5288 50.7865 25.5495 50.7865C25.6228 50.7865 25.6958 50.7856 25.7686 50.7837Z" fill="#265CFF"/>
</svg>
