<svg width="234" height="74" viewBox="0 0 234 74" fill="none" xmlns="http://www.w3.org/2000/svg">
<g clip-path="url(#clip0_1045_974)">
<path d="M32.54 21.2C32.2753 21.1402 32.0316 21.0103 31.8345 20.8237C31.6374 20.6372 31.4942 20.401 31.42 20.14C31.279 19.5821 31.279 18.9979 31.42 18.44C31.94 15.54 32.42 12.63 33.09 9.75998C33.5584 7.4006 34.4897 5.15744 35.83 3.16C36.8438 1.70718 38.3269 0.647781 40.03 0.160005C42.95 -0.569995 44.16 2.27998 43.15 4.69998C42.29 6.69998 40.23 7.77999 38.71 9.23999C35.93 11.92 35.06 16.45 34.26 20.06C34.2243 20.249 34.1511 20.4289 34.0447 20.5892C33.9383 20.7494 33.8009 20.8867 33.6406 20.993C33.4802 21.0992 33.3002 21.1723 33.1112 21.2079C32.9222 21.2434 32.728 21.2407 32.54 21.2V21.2Z" fill="white"/>
<path d="M27.16 17.5C26.1154 17.5162 25.0835 17.2685 24.16 16.78C23.28 16.27 22.11 15.37 21.01 15.78C19.91 16.19 19.34 17.87 18.41 18.69C17.0315 19.7096 15.5619 20.6 14.02 21.35C12.7361 22.1056 11.5095 22.9546 10.35 23.89C5.2182 28.0695 1.71358 33.9154 0.44553 40.4112C-0.822516 46.907 0.226233 53.6418 3.40943 59.4445C6.59262 65.2472 11.7089 69.7506 17.8686 72.1717C24.0282 74.5929 30.8417 74.7785 37.1241 72.6965C43.4065 70.6144 48.7604 66.3963 52.2549 60.7756C55.7494 55.1549 57.1634 48.4873 56.2511 41.932C55.3387 35.3768 52.1576 29.3487 47.2611 24.8959C42.3645 20.4431 36.0622 17.8474 29.45 17.56C28.71 17.5 27.93 17.53 27.16 17.5Z" fill="#CCCCCC"/>
<path d="M7.73 6.95998C7.95799 6.18524 8.40198 5.49149 9.01 4.95998C9.57608 4.50059 10.3 4.28195 11.0257 4.35116C11.7515 4.42036 12.421 4.77187 12.89 5.32998C15.2 8.08998 13.45 12.33 13.36 15.5C13.4034 18.2124 14.0525 20.8808 15.26 23.31C15.5384 23.7594 15.7474 24.2482 15.88 24.76C15.9454 25.148 15.8834 25.5467 15.7031 25.8965C15.5228 26.2463 15.234 26.5282 14.88 26.7C13.73 27.27 12.99 26.06 12.52 25.2C11.4405 23.1781 10.4659 21.1021 9.6 18.98C8.65061 16.8395 7.95909 14.5937 7.54 12.29C7.47334 11.8766 7.41669 11.46 7.37002 11.04C7.32335 10.62 7.29667 10.24 7.29 9.89998C7.26346 8.90178 7.41239 7.90667 7.73 6.95998V6.95998Z" fill="white"/>
<path d="M54.47 42.09C53.56 31.54 45.14 23.01 35.68 23.02C26.22 23.03 19.37 31.55 20.27 42.02C21.17 52.49 29.53 61.02 38.96 61.1C48.39 61.18 55.38 52.64 54.47 42.09ZM49.54 54.09C48.3641 55.4218 46.9278 56.4985 45.3197 57.2535C43.7115 58.0086 41.9657 58.426 40.19 58.48C38.1028 58.4997 36.0333 58.096 34.1066 57.2934C32.1798 56.4907 30.4358 55.3057 28.98 53.81C25.7488 50.652 23.7341 46.4562 23.29 41.96C23.0119 39.7055 23.2051 37.4178 23.8576 35.242C24.51 33.0661 25.6073 31.0495 27.08 29.32C28.259 27.9876 29.6989 26.9114 31.3106 26.158C32.9224 25.4046 34.6716 24.9901 36.45 24.94H36.87C38.9347 24.9827 40.9703 25.4353 42.8586 26.2713C44.747 27.1073 46.4504 28.3102 47.87 29.81C50.9932 32.979 52.9256 37.1299 53.34 41.56C53.5922 43.7894 53.3853 46.047 52.7317 48.1933C52.0782 50.3397 50.9919 52.3295 49.54 54.04V54.09Z" fill="white"/>
<path d="M157.29 36.08C158.34 37.83 161.19 41.33 167.62 42.56L168.16 39.75C165.398 39.3342 162.841 38.0486 160.86 36.08H168.25V33.29H155.82V31.85H167.31V29.19H156.31V27.96H166.52V25.37H156.35V23.96H166.56V21.37H156.35V19.96H167.35V17.3H156.75C157.387 16.9071 157.933 16.3819 158.35 15.76C158.68 15.24 158.86 14.92 158.87 14.89L156.24 13.46C155.938 13.9962 155.604 14.5138 155.24 15.01C154.768 15.7952 154.082 16.429 153.261 16.8366C152.441 17.2441 151.521 17.4084 150.61 17.31H147.3C147.869 16.556 148.397 15.7715 148.88 14.96L146.25 13.53C144.27 16.8115 141.756 19.7386 138.81 22.19L140.73 24.48C141.23 24.06 141.73 23.64 142.15 23.22V29.06C142.15 30.98 143.06 31.89 144.98 31.89H152.82V33.33H140.39V36.12H147.78C145.799 38.0886 143.242 39.3742 140.48 39.79L141.02 42.6C147.45 41.37 150.3 37.88 151.35 36.12H152.82V42.89H155.82V36.12L157.29 36.08ZM153.35 25.32H145.08V23.96H153.35V25.32ZM153.35 19.99V21.33H145.08V20.16L145.22 19.99H153.35ZM145.08 28.62V27.96H153.35V29.23H145.64C145.16 29.18 145.09 29.11 145.09 28.62H145.08Z" fill="white"/>
<path d="M101.84 38.12C102.47 36.4 102.56 32.53 102.56 28.92V27.62H98.56L99.37 15.32H86.31V18.11H96.17L95.55 27.62H90.44L91.01 19.62H88.14L87.36 30.41H99.55C99.55 33.98 99.34 36.09 99.02 36.95C98.57 38.17 97.79 39.54 94.79 39.54H90.11V42.4H94.98C98.58 42.41 100.77 41.05 101.84 38.12Z" fill="white"/>
<path d="M85.98 39.96V36.4H96.32V33.4H85.98V36.35H82.98V39.27H80.6V34.27H81.98C82.4354 34.2994 82.8919 34.2313 83.3189 34.0703C83.7459 33.9094 84.1337 33.6592 84.4565 33.3365C84.7792 33.0138 85.0293 32.626 85.1903 32.1989C85.3513 31.7719 85.4194 31.3154 85.39 30.86V18.22H80.61V14.22H77.61V18.22H72.98V34.22H77.63V39.22H72.92V42.35H83.56C83.8816 42.3751 84.2048 42.3306 84.5078 42.2198C84.8107 42.109 85.0863 41.9343 85.3158 41.7077C85.5453 41.481 85.7234 41.2076 85.838 40.9061C85.9526 40.6046 86.001 40.2819 85.98 39.96ZM82.39 21.13V30.96C82.39 31.0714 82.3457 31.1782 82.267 31.257C82.1882 31.3358 82.0814 31.38 81.97 31.38H80.6V21.14L82.39 21.13ZM75.98 31.34V21.14H77.63V31.33L75.98 31.34Z" fill="white"/>
<path d="M200.98 37.51V14.96H173.88V42.86H195.63C199.14 42.86 200.98 40.96 200.98 37.51ZM197.98 37.51C198.009 37.8272 197.968 38.147 197.86 38.4466C197.752 38.7462 197.579 39.0183 197.354 39.2436C197.128 39.4688 196.856 39.6417 196.557 39.75C196.257 39.8582 195.937 39.8992 195.62 39.87H176.9V17.96H197.98V37.51Z" fill="white"/>
<path d="M178.59 32.74L179.59 35.55C183.963 33.8999 187.797 31.0765 190.67 27.39V33.06C190.647 33.64 190.395 34.1873 189.97 34.5826C189.544 34.9778 188.98 35.1889 188.4 35.17H185.71V38.03H188.71C189.362 38.0645 190.014 37.9642 190.626 37.7353C191.238 37.5063 191.795 37.1538 192.265 36.6996C192.734 36.2453 193.104 35.6992 193.353 35.0954C193.602 34.4915 193.723 33.8429 193.71 33.19V25.75H195.88V22.89H193.71V19.82H190.71V22.89H179.11V25.75H188.37C185.76 28.8768 182.393 31.2833 178.59 32.74V32.74Z" fill="white"/>
<path d="M136.85 40.65C134.319 38.5907 131.948 36.3408 129.76 33.92C130.784 32.5697 131.69 31.1345 132.47 29.63C134.47 25.69 134.67 21.48 134.67 17.51H131.54C131.54 21.1 131.4 24.89 129.69 28.2C129.12 29.3047 128.471 30.3674 127.75 31.38C127.029 30.3674 126.38 29.3047 125.81 28.2C124.1 24.89 123.96 21.1 123.96 17.51H120.83C120.83 21.31 121 25.7 123.03 29.63C123.81 31.1344 124.716 32.5696 125.74 33.92C123.853 36.023 121.818 37.9881 119.65 39.8V36.36H116.65V39.28H114.27V34.28H115.64C116.095 34.3094 116.552 34.2413 116.979 34.0803C117.406 33.9193 117.794 33.6692 118.116 33.3465C118.439 33.0238 118.689 32.636 118.85 32.2089C119.011 31.7819 119.079 31.3254 119.05 30.87V18.22H114.27V14.22H111.27V18.22H106.62V34.22H111.27V39.22H106.56V42.35H117.2C117.602 42.3796 118.006 42.3027 118.369 42.1272C118.732 41.9516 119.043 41.6836 119.27 41.35L120.65 42.99C123.17 40.9327 125.543 38.7005 127.75 36.31C129.957 38.7006 132.329 40.9328 134.85 42.99L136.85 40.65ZM116.05 21.14V30.96C116.05 31.0714 116.006 31.1782 115.927 31.257C115.848 31.3358 115.741 31.38 115.63 31.38H114.26V21.14H116.05ZM109.62 31.33V21.14H111.27V31.33H109.62Z" fill="white"/>
<path d="M126.69 23.06L129.15 22.75C129.109 19.8296 128.892 16.9142 128.5 14.02L125.5 14.45V14.78C126.055 17.5149 126.452 20.2795 126.69 23.06V23.06Z" fill="white"/>
<path d="M227.16 49.07H218.58V68.3C219.136 68.4173 219.702 68.4742 220.27 68.47C220.838 68.4729 221.404 68.4159 221.96 68.3V62.08H227.28C231.28 62.08 233.97 59.5 233.97 55.5C233.97 51.5 231.31 49.07 227.16 49.07ZM226.6 59.07H221.98V52.07H226.62C229.52 52.07 230.77 53.07 230.77 55.59C230.77 58.11 229.19 59.07 226.6 59.07Z" fill="white"/>
<path d="M169.36 61.59C168.36 60.79 167.46 60.59 167.48 60.44C167.5 60.29 167.98 60.35 168.82 60.09C170.014 59.8177 171.079 59.1438 171.836 58.181C172.593 57.2182 172.997 56.0248 172.98 54.8C172.98 50.27 169.85 49.04 165.32 49.04H156.98V68.3C157.532 68.4173 158.095 68.4743 158.66 68.47C159.224 68.4728 159.788 68.4158 160.34 68.3V60.96H162.5C163.735 60.8472 164.974 61.1385 166.03 61.79C167.048 62.6522 167.904 63.6883 168.56 64.85C169.11 65.7 170.47 68.27 170.47 68.27C171.13 68.3889 171.799 68.4458 172.47 68.44C173.119 68.4493 173.766 68.3616 174.39 68.18C174.39 68.18 172.39 64.93 171.5 63.82C170.876 62.9955 170.158 62.247 169.36 61.59V61.59ZM164.79 58.13H160.38V51.88H165.38C168.28 51.88 169.63 52.45 169.63 54.81C169.63 57.17 167.69 58.13 164.79 58.13Z" fill="white"/>
<path d="M211.3 49.07V60.5C211.3 63.6 209.47 65.5599 206.44 65.5599C203.41 65.5599 201.58 63.56 201.58 60.5V49.07C201.024 48.9526 200.458 48.8957 199.89 48.9C199.322 48.897 198.756 48.954 198.2 49.07V49.07V60.61C198.2 66.24 201.81 68.7 206.43 68.7C211.05 68.7 214.66 66.24 214.66 60.61V49.07C214.104 48.9526 213.538 48.8957 212.97 48.9C212.409 48.8984 211.849 48.9554 211.3 49.07V49.07Z" fill="white"/>
<path d="M144.34 51.78C145.607 51.7317 146.865 52.0121 147.992 52.5938C149.119 53.1756 150.076 54.0389 150.77 55.1L153.25 53.27C151.02 50.2 148.6 48.7 144.07 48.7C142.763 48.6872 141.466 48.9387 140.258 49.4393C139.05 49.9399 137.956 50.6794 137.041 51.6132C136.125 52.5471 135.408 53.6561 134.932 54.8739C134.456 56.0917 134.231 57.393 134.27 58.7C134.27 64.51 138.37 68.7 143.45 68.7C144.762 68.7002 146.061 68.4384 147.27 67.9299C148.046 67.6337 148.784 67.2478 149.47 66.78C149.74 66.6 150.05 66.38 150.25 66.46C150.45 66.54 150.43 66.71 150.43 66.92C150.43 67.53 150.43 68.2599 150.43 68.2599C150.847 68.3763 151.277 68.4335 151.71 68.4299C152.149 68.4342 152.585 68.3632 153 68.22V68.22V57.96H144.37V60.7H150.04C150.04 62.76 148.16 65.6299 143.91 65.6299C139.91 65.6299 137.55 62.4399 137.55 58.7499C137.531 57.8447 137.693 56.9447 138.025 56.1025C138.358 55.2602 138.854 54.4925 139.486 53.8439C140.118 53.1953 140.873 52.6789 141.706 52.3245C142.539 51.9702 143.435 51.7851 144.34 51.78V51.78Z" fill="white"/>
<path d="M185.36 48.7C183.382 48.7 181.449 49.2865 179.804 50.3853C178.16 51.4841 176.878 53.0459 176.121 54.8731C175.364 56.7004 175.166 58.7111 175.552 60.6509C175.938 62.5907 176.89 64.3726 178.289 65.7711C179.687 67.1696 181.469 68.122 183.409 68.5078C185.349 68.8937 187.36 68.6957 189.187 67.9388C191.014 67.1819 192.576 65.9002 193.675 64.2557C194.774 62.6112 195.36 60.6778 195.36 58.7C195.36 56.0478 194.306 53.5043 192.431 51.6289C190.556 49.7536 188.012 48.7 185.36 48.7ZM185.36 65.36C184.043 65.36 182.755 64.9694 181.66 64.2376C180.565 63.5058 179.711 62.4656 179.207 61.2487C178.703 60.0317 178.571 58.6926 178.828 57.4007C179.085 56.1088 179.719 54.922 180.651 53.9906C181.582 53.0592 182.769 52.4249 184.061 52.1679C185.353 51.911 186.692 52.0429 187.909 52.547C189.126 53.051 190.166 53.9047 190.898 54.9999C191.629 56.0951 192.02 57.3828 192.02 58.7C192.02 60.4646 191.32 62.1571 190.073 63.4058C188.826 64.6545 187.135 65.3574 185.37 65.36H185.36Z" fill="white"/>
<path d="M111.22 52.14H118.22V68.29C118.809 68.4074 119.409 68.4644 120.01 68.46C120.611 68.4632 121.21 68.4063 121.8 68.29V52.14H128.8V49.03H111.22V52.14Z" fill="white"/>
<path d="M105.06 49.02V63.02C102.111 58.1294 98.8227 53.4513 95.22 49.02V49.02C94.6746 48.9027 94.1179 48.8457 93.56 48.85C93.0022 48.8468 92.4456 48.9038 91.9 49.02V68.29C92.4421 68.4073 92.9954 68.4643 93.55 68.46C94.1045 68.463 94.6578 68.406 95.2 68.29V53.36C98.72 58.21 102.03 63.21 105 68.29C105.549 68.407 106.109 68.464 106.67 68.46C107.231 68.4626 107.791 68.4057 108.34 68.29V68.29V49.02C107.798 48.9026 107.245 48.8456 106.69 48.85C106.142 48.8484 105.596 48.9053 105.06 49.02V49.02Z" fill="white"/>
<path d="M89.43 68.15L89.31 67.73L89.19 67.32L88.69 65.67L88.44 64.84L88.17 64.02L87.63 62.38C87.45 61.83 87.25 61.29 87.06 60.75L86.78 59.94C86.69 59.67 86.58 59.4 86.48 59.13L85.88 57.51C85.05 55.36 84.17 53.23 83.22 51.13C82.98 50.6 82.74 50.08 82.49 49.56L82.21 48.98H77.68L77.39 49.59C77.14 50.11 76.91 50.59 76.67 51.16C75.73 53.26 74.85 55.39 74.03 57.54L73.43 59.16C73.33 59.43 73.23 59.7 73.13 59.97L72.84 60.78C72.65 61.32 72.46 61.86 72.27 62.41L71.73 64.05L71.46 64.87L71.2 65.69L70.69 67.34C70.6 67.61 70.52 67.89 70.44 68.17V68.31C71.0025 68.4265 71.5756 68.4835 72.15 68.48C72.7277 68.4824 73.304 68.4254 73.87 68.31V68.31L74.35 66.69L74.59 65.88L74.85 65.08L75.52 63.08C76.9939 62.8737 78.4851 62.8201 79.97 62.92C81.3981 63.0392 82.8039 63.3486 84.15 63.84C84.58 64.04 84.78 64.15 84.92 64.48L85.11 65.07L85.36 65.87L85.6 66.68L86.07 68.3V68.35C86.6317 68.4711 87.2054 68.5282 87.78 68.52C88.351 68.5212 88.9206 68.4643 89.48 68.35V68.35L89.43 68.15ZM79.98 60.41C78.7068 60.4308 77.4422 60.6225 76.22 60.98C76.28 60.82 76.4 60.39 76.45 60.24L77.02 58.66C77.81 56.56 78.63 54.47 79.53 52.42L79.68 52.07C79.77 51.85 79.87 51.79 79.97 51.79C80.07 51.79 80.16 51.85 80.24 52.03L80.41 52.4C81.31 54.4 82.14 56.53 82.93 58.64L83.5 60.22L83.68 60.72C82.4602 60.4933 81.2206 60.3894 79.98 60.41V60.41Z" fill="white"/>
</g>
<defs>
<clipPath id="clip0_1045_974">
<rect width="233.97" height="73.92" fill="white"/>
</clipPath>
</defs>
</svg>
