<svg width="175" height="74" viewBox="0 0 175 74" fill="none" xmlns="http://www.w3.org/2000/svg">
<path d="M150.545 32.1038C147.62 32.7779 139.896 33.1523 139.896 33.1523L138.946 36.198C138.946 36.198 142.771 35.8734 145.571 36.148C145.571 36.148 146.47 36.0731 146.57 37.1466C146.62 38.245 146.495 39.3934 146.495 39.3934C146.495 39.3934 146.42 40.0674 145.496 40.2422C144.421 40.4169 137.171 40.7414 137.171 40.7414L135.996 44.6858C135.996 44.6858 135.571 45.5845 136.546 45.3348C137.446 45.0852 145.046 43.6373 146.045 43.837C147.095 44.0866 148.295 45.5345 147.945 46.8327C147.545 48.4054 139.946 53.2485 135.346 52.9239C135.346 52.9239 132.921 53.0737 130.897 49.8034C128.947 46.6829 131.572 40.8163 131.572 40.8163C131.572 40.8163 130.397 38.0703 131.272 37.0717C131.272 37.0717 131.772 36.6473 133.271 36.5225L135.146 32.678C135.146 32.678 133.021 32.8028 131.772 31.2551C130.622 29.7572 130.522 29.1082 131.422 28.7087C132.372 28.2094 141.171 26.6367 147.22 26.8364C147.22 26.8364 149.345 26.5868 151.22 30.2565C151.22 30.2565 152.07 31.7544 150.57 32.1038H150.545ZM127.747 46.8826C126.997 48.705 124.922 50.6272 122.422 49.4539C119.872 48.2556 115.848 40.0674 115.848 40.0674C115.848 40.0674 114.348 37.0218 114.048 37.1216C114.048 37.1216 113.723 36.5225 113.548 39.8677C113.298 43.1879 113.598 49.6536 112.223 50.6772C110.973 51.6757 109.473 51.2513 108.623 50.078C107.923 48.9047 107.623 46.0838 108.023 41.1658C108.473 36.2479 109.598 31.0054 111.023 29.3828C112.523 27.7351 113.723 28.9334 114.173 29.3828C114.173 29.3828 116.098 31.1302 119.348 36.2978L119.897 37.2465C119.897 37.2465 122.847 42.1644 123.147 42.1394C123.147 42.1394 123.397 42.3891 123.597 42.1894C123.897 42.1145 123.797 40.5168 123.797 40.5168C123.797 40.5168 123.247 35.1994 120.497 26.2123C120.497 26.2123 120.097 25.064 120.372 23.9655C120.622 22.967 121.697 23.4663 121.697 23.4663C121.697 23.4663 125.847 25.4634 127.872 32.2037C129.872 38.944 128.522 45.0602 127.772 46.8826H127.747ZM107.398 29.5825C106.998 30.2815 106.823 31.2551 105.099 31.5297C105.099 31.5297 88.3499 32.703 87.525 33.8763C87.525 33.8763 86.975 34.5753 87.8749 34.75C88.8249 34.9498 92.6246 35.449 94.4244 35.5489C96.3743 35.5489 102.924 35.5988 105.324 38.5446C105.324 38.5446 106.699 39.9426 106.649 43.113C106.599 46.3584 106.024 47.5067 104.749 48.68C103.424 49.7784 92.0746 54.8711 84.7502 47.0823C84.7502 47.0823 81.4004 43.3377 85.9251 40.4918C85.9251 40.4918 89.1748 38.4947 97.4992 40.8163C97.4992 40.8163 99.999 41.715 99.899 42.6387C99.749 43.6373 97.8242 44.6358 95.0244 44.5859C92.3246 44.511 90.3248 43.2129 90.7247 43.4376C91.0997 43.5624 87.8 41.8399 86.775 43.0132C85.7751 44.1116 86.0251 44.7607 87.025 45.4347C89.5248 46.8826 99.3491 46.3584 102.274 43.0881C102.274 43.0881 103.449 41.765 101.674 40.6915C99.924 39.6929 94.8244 39.0688 92.8496 38.9939C90.9747 38.8941 83.9503 38.9939 82.9003 37.1716C82.9003 37.1716 81.9004 35.8734 83.0003 32.3285C84.1502 28.5839 92.3246 27.136 95.8743 26.8364C95.8743 26.8364 105.624 26.437 107.448 28.4341C107.448 28.4341 107.698 28.8835 107.398 29.5575V29.5825ZM79.7506 51.5259C78.5757 52.3997 76.0759 52.0252 75.3509 51.0266C74.651 50.1529 74.401 46.7079 74.526 41.2906C74.701 35.7486 74.776 28.9584 76.0259 27.8599C77.2758 26.7865 78.0257 27.7351 78.5257 28.4591C79.0256 29.208 79.6756 30.0318 79.7756 31.7543C79.9256 33.5018 80.3505 42.4889 80.3505 42.4889C80.3505 42.4889 80.9005 50.6772 79.7756 51.5259H79.7506ZM82.2504 22.3179C78.8006 23.4912 76.4508 23.1168 74.451 22.243C73.576 23.8158 73.0511 24.2901 72.4011 24.3899C71.4012 24.4898 70.5263 22.8921 70.4013 22.3928C70.2013 22.0183 69.7263 21.3443 70.3013 19.8215C68.3515 18.074 68.2015 15.7274 68.5514 14.1546C69.0014 12.3073 72.3011 5.36728 82.3004 4.54346C82.3004 4.54346 87.2 4.19396 88.0499 6.79023H88.1999C88.1999 6.79023 92.9496 6.79023 92.8496 11.0341C92.8496 15.278 87.6 20.5704 82.2504 22.3928V22.3179ZM86.7 10.2353C83.5503 10.7346 78.7007 14.9285 76.3758 18.3985C79.9506 19.0476 86.2001 18.798 88.9999 13.1561C88.9999 13.1561 90.3248 9.61118 86.7 10.2353ZM72.8761 12.9813C71.8762 14.604 71.8262 15.5776 72.3011 16.2267C73.4761 14.4792 75.5509 11.7331 78.6757 9.58621C76.2758 9.83585 74.251 10.8344 72.8761 12.9813ZM158.045 51.3512C155.745 56.9931 153.795 62.7099 152.67 71.2726C152.67 71.2726 152.42 72.9452 151.045 72.3959C149.67 71.8967 147.42 69.6499 146.92 66.4794C146.42 62.3354 148.27 55.3454 152.045 47.307C150.945 45.5595 150.17 42.9632 150.795 39.3185C150.795 39.3185 151.795 32.5782 158.545 26.4869C158.545 26.4869 159.344 25.8129 159.794 26.0376C160.344 26.2872 160.119 28.4341 159.669 29.5325C159.269 30.581 156.27 35.7736 156.27 35.7736C156.27 35.7736 154.395 39.3185 154.92 42.0895C158.47 36.6473 166.544 25.6132 171.544 29.1082C174.718 31.3549 174.718 38.5945 172.343 42.7885C170.469 46.1087 165.169 52.9739 158.095 51.3761L158.045 51.3512ZM168.494 34.4005C166.644 36.3977 163.344 40.1922 160.744 45.3348C163.494 45.0353 166.169 43.5125 166.994 42.7386C168.319 41.5652 171.369 38.3948 170.894 34.2008C170.894 34.2008 170.594 32.004 168.494 34.4005V34.4005ZM56.5024 54.297C47.653 56.9931 39.3037 55.7449 34.754 54.5466C34.629 56.3939 34.4291 57.1678 34.1291 57.4674C33.7791 57.8668 30.8793 59.5145 29.2794 57.1678C28.5795 56.0444 28.2295 54.0223 28.0295 52.175C17.7803 47.5317 13.0307 40.6915 12.8807 40.4419C12.6307 40.1922 10.3059 37.7707 12.6307 34.775C14.8056 32.0789 22.005 29.3578 28.4545 28.2843C28.7045 22.7922 29.3044 18.5483 30.0794 16.676C31.0043 14.4293 32.1792 16.4264 33.2291 17.9242C34.0791 19.0476 34.604 23.8657 34.654 27.7102C38.8537 27.5104 41.4035 27.81 46.0782 28.7087C52.2277 29.7572 56.3274 32.9027 56.0024 36.4476C55.7024 39.9426 52.5027 41.3905 51.2528 41.4904C50.0029 41.5902 48.003 40.6665 48.003 40.6665C46.6031 40.0175 47.878 39.4183 49.5029 38.7193C51.3028 37.8456 50.9028 36.9719 50.9028 36.9719C50.2528 34.9747 42.2784 33.6516 34.3541 33.6516C34.3541 38.0203 34.529 45.2599 34.654 49.4789C40.2036 50.5274 44.3533 50.3027 44.3533 50.3027C44.3533 50.3027 64.6017 49.7285 65.1767 36.8221C65.8016 23.8907 44.9282 11.5084 29.5544 7.61405C14.2056 3.59482 5.50628 6.44073 4.75633 6.81519C3.9314 7.21462 4.68134 7.3644 4.68134 7.3644C4.68134 7.3644 5.50628 7.48923 7.00616 7.98851C8.50605 8.48779 7.30614 9.23671 7.30614 9.23671C4.68134 10.1354 1.75656 9.61118 1.18161 8.4129C0.606653 7.23958 1.55658 6.16613 2.68149 4.59339C3.73141 2.97072 4.93132 3.02065 4.93132 3.02065C23.9299 -3.59484 47.1281 8.26311 47.1281 8.26311C68.8264 19.1974 72.5261 32.0539 72.1262 37.0467C71.7762 41.9647 69.8763 50.2777 56.5024 54.3219V54.297ZM14.7556 36.4476C12.6057 37.4462 14.1056 39.0439 14.1056 39.0439C18.1553 43.3627 23.1049 46.0838 27.8546 47.7813C28.4045 40.2921 28.3545 37.6209 28.3545 33.8513C21.0051 34.3506 16.7554 35.5489 14.7556 36.4476Z" fill="white"/>
</svg>
