<svg width="298" height="61" viewBox="0 0 298 61" fill="none" xmlns="http://www.w3.org/2000/svg">
<path fill-rule="evenodd" clip-rule="evenodd" d="M177.49 7.06221C179.633 6.3425 180.586 6.8215 180.586 8.65862V52.2174C180.586 55.5704 183.761 56.369 183.761 58.285V58.5249C183.761 59.4032 183.126 59.8822 182.173 59.8822H172.331C171.22 59.8822 170.506 59.1641 170.506 58.1256L170.347 56.369C167.966 59.1641 164.078 60.6809 160.03 60.6809C150.346 60.6809 141.378 53.4942 141.378 40.6392C141.378 28.8219 149.949 20.7577 160.108 20.7577C163.998 20.7577 167.014 21.8751 169.395 23.8716V18.2403C169.395 14.5669 165.426 14.327 165.426 12.3321V12.0922C165.426 11.2935 166.062 10.5746 167.093 10.2558L177.49 7.06221ZM239.902 20.739C250.176 20.739 257.13 26.9959 258.237 36.976L259.976 51.6277C260.608 57.0927 264.085 55.5869 264.085 57.7265C264.085 59.5476 260.292 60.0226 256.498 60.0226C251.993 60.0226 249.939 59.1513 249.464 55.7465C247.725 58.3595 244.406 60.3395 238.952 60.3395C230.418 60.3395 224.094 56.3001 224.094 48.3802C224.016 40.4602 230.654 36.3414 238.4 36.3414C242.035 36.3414 244.959 37.2921 247.013 38.7177L246.934 37.7678C245.988 28.5009 244.723 24.0652 239.902 24.0652C236.74 24.0652 235.613 26.5997 234.536 29.1343L234.396 29.4647C233.366 31.8844 232.304 34.2034 229.469 34.2034C226.623 34.2034 224.728 32.4601 224.728 29.7677C224.728 24.0652 231.681 20.739 239.902 20.739ZM203.744 20.3976C210.619 20.3976 216.576 24.6787 219.58 30.9535C220.17 32.1833 220.51 35.1737 217.819 35.1737H198.978C198.436 35.1737 197.987 35.6189 198.006 36.1505C198.367 46.1099 202.646 52.1188 209.144 52.1188C214.829 52.1188 216.046 49.2701 217.671 48.4558C218.819 47.8802 219.701 48.8626 219.45 49.7201C218.127 54.2294 212.798 59.9981 203.744 59.9981C193.84 59.9981 185.812 51.1332 185.812 40.1979C185.812 29.2625 193.84 20.3976 203.744 20.3976ZM74.2 20.3976C81.0764 20.3976 87.0332 24.6787 90.0376 30.9535C90.627 32.1833 90.9677 35.1737 88.276 35.1737H69.4347C68.8935 35.1737 68.4437 35.6189 68.4629 36.1505C68.8246 46.1099 73.1031 52.1188 79.6011 52.1188C85.286 52.1188 86.5032 49.2701 88.1285 48.4558C89.2759 47.8802 90.1587 48.8626 89.9069 49.7201C88.5847 54.2294 83.255 59.9981 74.2 59.9981C64.2967 59.9981 56.2688 51.1332 56.2688 40.1979C56.2688 29.2625 64.2967 20.3976 74.2 20.3976ZM276.97 21.0722C278.794 20.1989 279.506 21.1522 279.506 22.6595V28.6149C281.251 23.5336 284.977 20.7552 290.288 20.7552C294.965 20.7552 297.581 23.9306 297.581 27.9801C297.581 31.314 296.313 34.2517 292.508 34.2517C289.45 34.2517 288.583 32.5821 287.97 30.894L287.89 30.669C287.863 30.5941 287.837 30.5192 287.811 30.4446L287.734 30.2218C287.219 28.7431 286.7 27.4238 284.819 27.4238C281.726 27.4238 280.617 31.7903 280.617 36.1568V52.0355C280.617 55.3694 284.58 56.005 284.58 57.9893V58.3071C284.58 59.1804 283.867 59.6567 282.837 59.6567H268.172C267.061 59.6567 266.348 59.1804 266.348 58.3071V57.9893C266.348 56.005 269.44 55.3694 269.44 52.0355V33.4577C269.44 29.9637 265.794 29.7259 265.794 27.7408V27.4238C265.794 26.6298 266.427 25.995 267.458 25.5187L276.97 21.0722ZM105.237 20.7535C107.064 19.7951 107.936 20.9138 107.936 22.4312V26.9045C110.079 22.8315 114.284 20.4346 119.68 20.4346C126.9 20.4346 133.881 24.7476 134.835 37.449L135.787 51.8289C136.024 55.3429 138.643 55.9824 138.643 57.979V58.2988C138.643 59.0977 137.929 59.6567 136.818 59.6567H123.091C121.981 59.6567 121.265 59.0977 121.265 58.2988V57.979C121.265 55.9824 124.282 55.3429 124.123 51.8289L123.329 37.0495C122.932 28.5024 120.631 24.9868 116.426 24.9868C112.141 24.9868 109.682 28.5822 109.682 33.7747V51.9086C109.682 55.3429 113.093 55.9824 113.093 57.979V58.2988C113.093 59.0977 112.379 59.6567 111.269 59.6567H96.5098C95.3983 59.6567 94.6851 59.0977 94.6851 58.2988V57.979C94.6851 55.9824 98.0968 55.3429 98.0968 51.9086V33.2954C98.0968 29.7001 94.2089 29.3811 94.2089 27.3837V27.0639C94.2089 26.2658 94.8433 25.8663 95.7958 25.3871L105.237 20.7535ZM241.561 39.9059C238.242 39.9059 235.791 42.5196 235.791 46.559C235.791 52.0248 238.4 56.8552 242.431 56.8552C246.065 56.8552 248.278 53.2908 248.041 49.7263L247.805 46.9553C247.331 42.2814 244.802 39.9059 241.561 39.9059ZM170.98 35.5078C167.517 27.7793 160.833 23.3991 156.051 25.724C151.267 28.0498 150.197 36.2001 153.661 43.9278C157.123 51.6563 163.808 56.0365 168.589 53.7115C173.372 51.3866 174.442 43.2363 170.98 35.5078ZM203.946 23.7108C200.91 23.6731 198.098 26.0607 197.947 31.3106C197.934 31.775 198.331 32.1593 198.822 32.1593H204.406C206.533 32.1593 207.352 31.2601 207.352 27.465C207.352 25.3817 206.14 23.738 203.946 23.7108ZM74.4028 23.7108C71.3671 23.6731 68.5551 26.0607 68.4044 31.3106C68.3908 31.775 68.7885 32.1593 69.2792 32.1593H74.8631C76.9903 32.1593 77.809 31.2601 77.809 27.465C77.809 25.3817 76.5974 23.738 74.4028 23.7108Z" fill="white"/>
<path fill-rule="evenodd" clip-rule="evenodd" d="M24.0831 0C10.782 0 0 10.7665 0 24.0476C0 37.3287 10.782 48.0952 24.0831 48.0952C37.3838 48.0952 48.1662 37.3287 48.1662 24.0476C48.1662 10.7665 37.3838 0 24.0831 0Z" fill="#999999"/>
<path fill-rule="evenodd" clip-rule="evenodd" d="M37.3624 17.4177L24.083 24.0476V30.6776L37.3624 24.0476V30.6776L24.083 37.3075V30.6776L10.8035 37.3075V30.6776L24.083 24.0476V17.4177L10.8035 24.0476V17.4177L24.083 10.7877V17.4177L37.3624 10.7877V17.4177Z" fill="white"/>
</svg>
