<svg width="1263" height="400" viewBox="0 0 1263 400" fill="none" xmlns="http://www.w3.org/2000/svg">
<path d="M144.979 199.328C144.979 145.859 185.341 101.816 237.259 96.0057C219.556 63.9208 185.396 42.1875 146.16 42.1875C88.9343 42.1875 42.5062 88.4197 42.1891 145.571L42.1875 145.57V254.859L146.751 357.06L144.979 248.952V199.328Z" fill="white"/>
<path d="M248.952 254.269L249.543 146.16C306.368 146.16 352.547 191.748 353.501 248.346L353.516 248.361V356.469L248.952 254.269Z" fill="white"/>
<path d="M596.946 213.17C595.486 208.093 593.434 203.608 590.792 199.713C588.149 195.749 584.915 192.411 581.09 189.699C577.335 186.917 573.023 184.796 568.155 183.336C563.357 181.876 558.037 181.145 552.195 181.145C541.277 181.145 531.68 183.858 523.404 189.282C515.198 194.706 508.8 202.599 504.21 212.961C499.62 223.254 497.326 235.841 497.326 250.723C497.326 265.605 499.586 278.262 504.106 288.694C508.626 299.125 515.024 307.088 523.3 312.582C531.576 318.006 541.346 320.718 552.612 320.718C562.835 320.718 571.563 318.91 578.795 315.294C586.097 311.608 591.661 306.427 595.486 299.751C599.38 293.075 601.327 285.182 601.327 276.072L610.507 277.428H555.429V243.421H644.826V270.334C644.826 289.111 640.862 305.245 632.935 318.736C625.007 332.158 614.088 342.52 600.18 349.822C586.271 357.055 570.346 360.671 552.404 360.671C532.375 360.671 514.781 356.255 499.62 347.423C484.46 338.521 472.638 325.899 464.154 309.557C455.739 293.144 451.531 273.672 451.531 251.14C451.531 233.824 454.035 218.386 459.042 204.825C464.119 191.194 471.212 179.65 480.322 170.192C489.432 160.734 500.038 153.537 512.138 148.599C524.239 143.662 537.348 141.193 551.465 141.193C563.565 141.193 574.831 142.966 585.263 146.513C595.694 149.99 604.943 154.928 613.01 161.326C621.147 167.724 627.788 175.338 632.935 184.17C638.081 192.933 641.384 202.599 642.844 213.17H596.946Z" fill="white"/>
<path d="M677.92 357.75V197.523H721.002V225.479H722.671C725.592 215.534 730.495 208.024 737.38 202.947C744.264 197.801 752.192 195.228 761.163 195.228C763.389 195.228 765.788 195.367 768.361 195.645C770.934 195.923 773.194 196.306 775.141 196.793V236.223C773.055 235.598 770.169 235.041 766.483 234.554C762.798 234.068 759.425 233.824 756.365 233.824C749.828 233.824 743.986 235.25 738.84 238.101C733.763 240.883 729.73 244.777 726.74 249.784C723.819 254.791 722.358 260.564 722.358 267.101V357.75H677.92Z" fill="white"/>
<path d="M798.117 357.75V197.523H842.555V357.75H798.117ZM820.44 176.868C813.834 176.868 808.166 174.678 803.437 170.297C798.777 165.846 796.448 160.526 796.448 154.336C796.448 148.217 798.777 142.966 803.437 138.585C808.166 134.134 813.834 131.909 820.44 131.909C827.047 131.909 832.68 134.134 837.339 138.585C842.068 142.966 844.432 148.217 844.432 154.336C844.432 160.526 842.068 165.846 837.339 170.297C832.68 174.678 827.047 176.868 820.44 176.868Z" fill="white"/>
<path d="M937.194 360.358C925.024 360.358 914.002 357.228 904.127 350.97C894.321 344.641 886.532 335.357 880.76 323.118C875.058 310.808 872.206 295.718 872.206 277.845C872.206 259.486 875.162 244.221 881.073 232.051C886.984 219.811 894.842 210.666 904.648 204.616C914.523 198.496 925.337 195.436 937.09 195.436C946.061 195.436 953.537 196.966 959.518 200.026C965.568 203.017 970.436 206.772 974.122 211.292C977.877 215.743 980.728 220.124 982.675 224.436H984.032V144.114H1028.37V357.75H984.553V332.089H982.675C980.589 336.539 977.634 340.955 973.809 345.337C970.053 349.648 965.151 353.23 959.1 356.081C953.12 358.932 945.818 360.358 937.194 360.358ZM951.277 324.995C958.44 324.995 964.49 323.048 969.427 319.154C974.435 315.19 978.259 309.661 980.902 302.568C983.614 295.474 984.97 287.164 984.97 277.636C984.97 268.109 983.649 259.833 981.006 252.809C978.364 245.786 974.539 240.361 969.532 236.536C964.525 232.712 958.44 230.799 951.277 230.799C943.975 230.799 937.82 232.781 932.813 236.745C927.806 240.709 924.016 246.203 921.443 253.227C918.87 260.251 917.583 268.387 917.583 277.636C917.583 286.955 918.87 295.196 921.443 302.359C924.085 309.452 927.875 315.016 932.813 319.049C937.82 323.013 943.975 324.995 951.277 324.995Z" fill="white"/>
<path d="M1110.59 360.775C1100.37 360.775 1091.26 359.002 1083.26 355.455C1075.26 351.839 1068.93 346.519 1064.28 339.495C1059.69 332.402 1057.39 323.57 1057.39 312.999C1057.39 304.098 1059.03 296.622 1062.29 290.571C1065.56 284.521 1070.01 279.653 1075.65 275.967C1081.28 272.282 1087.68 269.5 1094.84 267.622C1102.07 265.745 1109.65 264.423 1117.58 263.658C1126.9 262.685 1134.41 261.781 1140.11 260.946C1145.81 260.042 1149.95 258.721 1152.53 256.982C1155.1 255.243 1156.39 252.67 1156.39 249.263V248.637C1156.39 242.03 1154.3 236.919 1150.13 233.303C1146.02 229.686 1140.18 227.878 1132.6 227.878C1124.6 227.878 1118.24 229.652 1113.51 233.198C1108.78 236.675 1105.65 241.057 1104.12 246.342L1063.02 243.004C1065.11 233.268 1069.21 224.853 1075.33 217.76C1081.45 210.597 1089.35 205.103 1099.01 201.278C1108.75 197.384 1120.01 195.436 1132.81 195.436C1141.71 195.436 1150.23 196.48 1158.37 198.566C1166.57 200.652 1173.84 203.886 1180.17 208.267C1186.57 212.648 1191.61 218.281 1195.29 225.166C1198.98 231.981 1200.82 240.153 1200.82 249.68V357.75H1158.68V335.531H1157.43C1154.86 340.538 1151.41 344.954 1147.1 348.779C1142.79 352.534 1137.61 355.49 1131.56 357.646C1125.51 359.732 1118.52 360.775 1110.59 360.775ZM1123.32 330.107C1129.85 330.107 1135.63 328.82 1140.63 326.247C1145.64 323.604 1149.57 320.058 1152.42 315.607C1155.27 311.156 1156.7 306.114 1156.7 300.481V283.478C1155.31 284.382 1153.4 285.217 1150.96 285.982C1148.6 286.677 1145.92 287.338 1142.93 287.964C1139.94 288.52 1136.95 289.041 1133.96 289.528C1130.97 289.945 1128.26 290.328 1125.82 290.676C1120.61 291.441 1116.05 292.658 1112.16 294.327C1108.26 295.996 1105.24 298.256 1103.08 301.107C1100.92 303.889 1099.85 307.366 1099.85 311.539C1099.85 317.589 1102.04 322.214 1106.42 325.412C1110.87 328.542 1116.5 330.107 1123.32 330.107Z" fill="white"/>
</svg>
