<svg width="175" height="23" viewBox="0 0 175 23" fill="none" xmlns="http://www.w3.org/2000/svg">
<g clip-path="url(#clip0_1045_672)">
<path d="M0.612671 0.931396H8.42457V7.95114H12.0771V0.931396H19.889V21.7258H12.0771V13.9564H8.42457V21.7258H0.612671" fill="white"/>
<path d="M34.2955 0.931396H49.8158V6.26969H42.1303V8.52556H49.2711V13.8677H42.1303V16.3222H50.0757V21.7258H34.2955" fill="white"/>
<path d="M74.8784 13.3561H71.197L73.1039 5.14371L74.8784 13.3561ZM61.3467 21.7613H69.2164L69.9822 18.4306H76.0096L76.7286 21.7613H85.2843L78.746 0.931915H68.2037" fill="white"/>
<path d="M104.441 9.51194V5.58636C104.776 5.55338 105.073 5.55335 105.33 5.55335C107.085 5.55335 107.86 6.10637 107.86 7.40031C107.86 8.72927 106.885 9.53058 105.014 9.53058C104.84 9.53058 104.635 9.53057 104.441 9.511V9.51194ZM96.6285 21.7249H104.441V14.1892C104.693 14.1668 104.952 14.1668 105.158 14.1668C107.028 14.1668 107.29 15.0538 107.604 17.2941L107.805 18.8382C107.926 19.7699 108.151 20.7183 108.411 21.726H116.331C115.988 20.1857 115.727 18.9512 115.61 18.0253L115.351 15.8015C114.98 12.8077 114.314 11.5342 111.523 11.061C114.231 10.3386 115.61 8.72924 115.61 6.21537C115.61 2.05806 112.935 0.93158 107.232 0.93158H96.6286" fill="white"/>
<path d="M135.182 15.0539V15.2205C135.182 16.6449 135.813 17.2943 137.161 17.2943C138.377 17.2943 139.099 16.6946 139.099 15.8018C139.099 15.1358 138.808 14.6237 138.285 14.3628C137.222 13.8419 135.349 13.5469 132.905 12.767C129.562 11.6999 128 10.0575 128 7.14246C128 3.07179 131.292 0.61441 137.339 0.61441C142.836 0.61441 145.743 2.65994 145.743 6.3295V6.76178H138.861C138.774 5.51944 138.206 4.91777 137.051 4.91777C135.987 4.91777 135.324 5.5204 135.324 6.30319C135.324 7.75191 136.763 7.69352 139.385 8.41986C144.2 9.70502 146.499 11.0349 146.499 14.8135C146.499 19.2123 142.987 22.0708 136.99 22.0708C130.914 22.0708 127.685 19.7702 127.685 15.8018C127.685 15.5729 127.685 15.3237 127.721 15.054" fill="white"/>
<path d="M174.387 6.47868H169.4V21.7254H161.4V6.47868H156.383V0.931061H174.387" fill="white"/>
</g>
<defs>
<clipPath id="clip0_1045_672">
<rect width="175" height="22.6852" fill="white"/>
</clipPath>
</defs>
</svg>
