<svg width="211" height="45" viewBox="0 0 211 45" fill="none" xmlns="http://www.w3.org/2000/svg">
<path d="M88.1444 7.40935H83.143V36.8176H101.468V32.3764H88.1444V7.40935Z" fill="white"/>
<path d="M112.148 16.2518C106.667 16.2518 102.946 20.6532 102.946 26.7347C102.946 32.7765 106.667 37.2177 112.148 37.2177C115.189 37.2177 117.23 35.9774 118.35 34.457L118.59 36.8176H122.911V16.6519H118.59L118.35 19.0126C117.23 17.4922 115.189 16.2518 112.148 16.2518ZM113.188 20.493C115.589 20.493 117.029 21.7733 118.11 23.4938V29.9758C117.029 31.6961 115.589 32.9766 113.188 32.9766C110.067 32.9766 107.827 30.5358 107.827 26.7347C107.827 22.9337 110.067 20.493 113.188 20.493Z" fill="white"/>
<path d="M134.859 9.89005H130.058V16.6519H126.256V20.7331H130.058V29.6957C130.058 34.5769 132.978 37.2177 137.58 37.2177C139.58 37.2177 141.061 36.6575 142.061 36.0174L140.781 32.2563C140.18 32.6165 139.3 32.8966 138.02 32.8966C136.139 32.8966 134.859 31.6961 134.859 29.6555V20.7331H140.941V16.6519H134.859V9.89005Z" fill="white"/>
<path d="M151.27 9.89005H146.468V16.6519H142.667V20.7331H146.468V29.6957C146.468 34.5769 149.389 37.2177 153.991 37.2177C155.991 37.2177 157.472 36.6575 158.472 36.0174L157.191 32.2563C156.591 32.6165 155.711 32.8966 154.431 32.8966C152.55 32.8966 151.27 31.6961 151.27 29.6555V20.7331H157.352V16.6519H151.27V9.89005Z" fill="white"/>
<path d="M166.36 16.652H161.559V36.8176H166.36V16.652ZM163.96 7.2493C162.279 7.2493 160.999 8.48965 160.999 10.2101C160.999 11.9306 162.279 13.171 163.96 13.171C165.68 13.171 166.96 11.9306 166.96 10.2101C166.96 8.48965 165.68 7.2493 163.96 7.2493Z" fill="white"/>
<path d="M180.71 16.2518C174.507 16.2518 170.386 20.6532 170.386 26.7347C170.386 32.7765 174.548 37.2177 180.749 37.2177C184.39 37.2177 187.152 35.5773 188.952 32.7765L185.51 30.0957C184.55 31.6961 182.99 33.0166 180.79 33.0166C177.228 33.0166 175.268 30.2557 175.268 26.7347C175.268 23.1738 177.148 20.453 180.749 20.453C182.99 20.453 184.47 21.7333 185.391 23.3339L188.872 20.6931C187.072 17.8923 184.39 16.2518 180.71 16.2518Z" fill="white"/>
<path d="M200.549 16.2518C194.746 16.2518 190.666 20.6931 190.666 26.7749C190.666 32.8165 194.666 37.2177 200.908 37.2177C204.629 37.2177 207.27 35.9774 209.271 33.5767L205.95 30.856C205.029 32.1363 203.309 33.1767 200.949 33.1767C197.588 33.1767 195.667 31.416 195.548 28.2151H209.79V26.5348C209.79 20.8931 206.749 16.2518 200.549 16.2518ZM200.469 20.093C203.35 20.093 204.949 22.0134 205.07 24.7743H195.548C195.708 21.9734 197.627 20.093 200.469 20.093Z" fill="white"/>
<path fill-rule="evenodd" clip-rule="evenodd" d="M16.4636 31.3762L7.15159 21.9673C5.56928 20.3687 3.00386 20.3687 1.42104 21.9673C-0.161271 23.5662 -0.161271 26.1582 1.42104 27.7576L13.5983 40.0616C15.1807 41.6603 17.7466 41.6603 19.329 40.0616L30.7905 28.4802L25.0605 22.69L16.4636 31.3762Z" fill="white"/>
<path fill-rule="evenodd" clip-rule="evenodd" d="M51.5624 13.284L33.656 31.3766L15.7477 13.2819C14.1649 11.6826 11.5995 11.6826 10.0172 13.2819C8.43487 14.8807 8.43487 17.4728 10.0172 19.072L30.7909 40.0618C32.3732 41.6606 34.9385 41.6606 36.5214 40.0618L57.293 19.0741C58.8753 17.4749 58.8753 14.8827 57.293 13.284C55.7101 11.6852 53.1448 11.6852 51.5624 13.284Z" fill="white"/>
<path fill-rule="evenodd" clip-rule="evenodd" d="M65.8907 27.7598L53.7155 40.0618C52.1332 41.6604 49.5678 41.6604 47.9855 40.0618L18.615 10.3857C17.0326 8.78693 17.0326 6.19481 18.615 4.59604C20.1978 2.99676 22.7632 2.99676 24.3455 4.59604L50.8502 31.3764L60.1602 21.9695C61.743 20.3709 64.3086 20.3709 65.8907 21.9695C67.473 23.5689 67.473 26.1609 65.8907 27.7598Z" fill="white"/>
<path fill-rule="evenodd" clip-rule="evenodd" d="M48.6974 4.59815C47.1151 2.99938 44.5498 2.99938 42.9669 4.59815L25.0605 22.6908L30.7912 28.4809L48.6974 10.3883C50.2798 8.78903 50.2798 6.19691 48.6974 4.59815Z" fill="white"/>
</svg>
