<svg width="210" height="35" viewBox="0 0 210 35" fill="none" xmlns="http://www.w3.org/2000/svg">
<g clip-path="url(#clip0_1045_805)">
<path fill-rule="evenodd" clip-rule="evenodd" d="M29.6867 8.82944C29.5669 8.70709 29.4211 8.6133 29.26 8.55504C29.099 8.49678 28.9269 8.47554 28.7566 8.4929H24.8137C24.5427 8.49038 24.2748 8.55084 24.0311 8.66951C23.7875 8.78819 23.5747 8.96182 23.4096 9.17674L15.1079 19.8921L10.6185 9.22117C10.5112 8.97003 10.3232 8.76188 10.0842 8.62971C9.84524 8.49754 9.56899 8.44892 9.29925 8.49155H5.57578C5.40701 8.47667 5.23698 8.49608 5.0759 8.54864C4.91483 8.60119 4.76606 8.68578 4.63853 8.79733C4.51101 8.90889 4.40736 9.04509 4.33385 9.19774C4.26034 9.35039 4.21849 9.51634 4.21079 9.68559L0.0511623 33.3779C0.00395929 33.5311 -0.00844246 33.6929 0.0148464 33.8515C0.0381352 34.0101 0.0965354 34.1615 0.185786 34.2946C0.305723 34.4168 0.451576 34.5105 0.61258 34.5688C0.773584 34.627 0.945616 34.6483 1.11597 34.6312H5.05886C5.39592 34.645 5.72542 34.5288 5.97922 34.3066C6.23302 34.0843 6.39172 33.7731 6.42251 33.4371L8.88464 19.3846L12.7225 28.3917V28.4012C12.803 28.5829 12.9354 28.7368 13.103 28.8436C13.2707 28.9504 13.4661 29.0053 13.6648 29.0016C13.8734 29.0069 14.0796 28.9566 14.2623 28.8559C14.4449 28.7551 14.5974 28.6074 14.7041 28.4281L21.7189 19.4304L19.2904 33.3752C19.2419 33.5284 19.2288 33.6907 19.2522 33.8497C19.2755 34.0088 19.3346 34.1604 19.425 34.2933C19.545 34.4154 19.6909 34.509 19.8519 34.5673C20.0129 34.6255 20.1849 34.6469 20.3552 34.6298H24.2981C24.6351 34.6433 24.9644 34.527 25.2181 34.3048C25.4718 34.0827 25.6306 33.7716 25.6618 33.4358L29.8214 9.74347C29.869 9.59079 29.8817 9.42933 29.8584 9.27109C29.8351 9.11285 29.7764 8.9619 29.6867 8.82944V8.82944ZM47.6768 9.60617C47.6325 9.28275 47.4674 8.9881 47.2146 8.78154C46.9618 8.57498 46.6402 8.47184 46.3144 8.4929H41.199C40.8561 8.47115 40.5152 8.55934 40.2258 8.74463C39.9649 8.96734 39.7613 9.2494 39.6321 9.56713L27.3673 33.1504C27.2631 33.302 27.1985 33.4771 27.1792 33.66C27.1599 33.8429 27.1866 34.0278 27.2569 34.1977C27.3454 34.3463 27.4749 34.4663 27.6299 34.5432C27.7849 34.62 27.9587 34.6506 28.1306 34.6312H32.5837C32.918 34.6276 33.2433 34.5228 33.5168 34.3305C33.7903 34.1383 33.9991 33.8676 34.1156 33.5542L36.0783 29.6935H44.3114L44.909 33.4991C44.9155 33.6629 44.9558 33.8236 45.0275 33.971C45.0991 34.1185 45.2006 34.2495 45.3255 34.3557C45.4503 34.462 45.5958 34.5412 45.7529 34.5884C45.9099 34.6356 46.075 34.6497 46.2377 34.6298H50.4808C50.6582 34.6424 50.836 34.6112 50.9986 34.5392C51.1612 34.4672 51.3037 34.3564 51.4137 34.2166C51.5139 34.0691 51.584 33.9033 51.6201 33.7286C51.6561 33.554 51.6573 33.374 51.6237 33.1989L47.6768 9.60617ZM38.325 24.1446L42.7781 15.26L43.9762 24.1446H38.3223H38.325ZM66.9227 20.716L77.8643 10.119C78.0117 9.98861 78.1229 9.82226 78.187 9.63615C78.2512 9.45005 78.2661 9.25052 78.2304 9.05694C78.1838 8.87461 78.071 8.71614 77.914 8.61239C77.757 8.50863 77.567 8.467 77.381 8.49559H72.4877C72.1361 8.52995 71.7954 8.63652 71.4868 8.80862C71.1783 8.98072 70.9086 9.21466 70.6946 9.49578L62.6177 17.2658L63.9544 9.75155C64.0028 9.5983 64.0159 9.43607 63.9925 9.27706C63.9692 9.11804 63.9102 8.96639 63.8198 8.83348C63.6999 8.71121 63.5541 8.61747 63.3931 8.55922C63.232 8.50096 63.06 8.47968 62.8896 8.49694H58.765C58.5963 8.48186 58.4262 8.50115 58.2652 8.55364C58.1041 8.60613 57.9553 8.69073 57.8278 8.80234C57.7004 8.91394 57.5969 9.05023 57.5236 9.20297C57.4503 9.35571 57.4087 9.52172 57.4014 9.69098L53.2404 33.3833C53.1919 33.5365 53.1788 33.6988 53.2022 33.8578C53.2255 34.0168 53.2846 34.1685 53.375 34.3014C53.4948 34.4237 53.6407 34.5175 53.8017 34.5758C53.9628 34.634 54.1348 34.6553 54.3052 34.6379H58.4298C58.5985 34.6528 58.7685 34.6334 58.9295 34.5808C59.0905 34.5282 59.2392 34.4436 59.3666 34.332C59.494 34.2205 59.5975 34.0843 59.6709 33.9316C59.7443 33.779 59.786 33.6131 59.7935 33.4439L61.5058 23.7852L67.1919 33.5596C67.3135 33.8772 67.5287 34.1502 67.809 34.3426C68.0894 34.5349 68.4216 34.6374 68.7616 34.6366H73.1056C73.2973 34.6516 73.4891 34.6096 73.6568 34.5156C73.8245 34.4217 73.9606 34.2802 74.0479 34.1089C74.1326 33.9405 74.1701 33.7525 74.1566 33.5645C74.1431 33.3766 74.079 33.1958 73.9712 33.0414L66.9227 20.716ZM94.6198 18.966C94.5084 18.857 94.3749 18.7731 94.2284 18.72C94.0819 18.6668 93.9258 18.6456 93.7704 18.6577H84.871L85.6558 14.1185H95.1946C95.3658 14.1315 95.5378 14.1096 95.7002 14.0542C95.8627 13.9987 96.0122 13.9109 96.1397 13.796C96.2672 13.6811 96.37 13.5415 96.442 13.3857C96.5139 13.2298 96.5535 13.061 96.5583 12.8894L97.1425 9.73675C97.1783 9.57884 97.1793 9.41502 97.1453 9.25671C97.1114 9.09839 97.0434 8.94937 96.946 8.82001C96.8267 8.70253 96.6833 8.61241 96.5257 8.55592C96.3681 8.49943 96.2 8.47793 96.0333 8.4929H81.2848C81.1185 8.48065 80.9514 8.50216 80.7937 8.55613C80.6359 8.6101 80.4906 8.69542 80.3666 8.80695C80.2426 8.91848 80.1425 9.05393 80.0722 9.20515C80.0019 9.35638 79.9629 9.52025 79.9575 9.68694L75.7966 33.3792C75.7495 33.5328 75.7378 33.695 75.7623 33.8538C75.7868 34.0125 75.8468 34.1637 75.9379 34.296C76.0577 34.4184 76.2035 34.5122 76.3645 34.5705C76.5256 34.6288 76.6977 34.65 76.8681 34.6325H91.7619C92.1069 34.6399 92.4422 34.5176 92.7014 34.2898C92.9606 34.062 93.1249 33.7452 93.1619 33.4021L93.7112 30.2871C93.7466 30.1293 93.7472 29.9657 93.713 29.8076C93.6789 29.6496 93.6107 29.5008 93.5133 29.3717C93.3944 29.2541 93.2512 29.1639 93.0938 29.1074C92.9364 29.0509 92.7685 29.0295 92.602 29.0446H83.0106L83.9031 24.0289H92.9304C93.2693 24.051 93.6031 23.9379 93.8588 23.7144C94.1144 23.4908 94.2709 23.175 94.2941 22.8362L94.8433 19.8975C94.8746 19.7351 94.8709 19.5678 94.8323 19.4069C94.7938 19.246 94.7214 19.0953 94.6198 18.9646V18.966ZM116.262 9.56713C113.939 8.46143 111.379 7.94939 108.81 8.07694C106.027 7.94301 103.273 8.6896 100.939 10.2106C99.9361 10.9689 99.138 11.9649 98.6165 13.1087C98.095 14.2525 97.8665 15.5081 97.9516 16.7623C97.9099 17.5863 98.0462 18.4095 98.3512 19.1761C98.6562 19.9427 99.1227 20.6345 99.7191 21.2046C101.121 22.4076 102.737 23.3368 104.482 23.9441C105.528 24.3061 106.533 24.7786 107.48 25.3535C107.748 25.4993 107.973 25.7127 108.133 25.9724C108.293 26.2322 108.382 26.5293 108.392 26.8342C108.398 27.2824 108.256 27.72 107.989 28.0796C107.721 28.4392 107.343 28.7007 106.912 28.8239C105.796 29.2561 104.608 29.4696 103.412 29.4525C101.584 29.4864 99.7723 29.1159 98.105 28.3675C97.9512 28.2979 97.7847 28.2606 97.6159 28.2581C97.447 28.2556 97.2795 28.2879 97.1237 28.3529C96.9679 28.4179 96.8271 28.5143 96.7101 28.6361C96.5932 28.7579 96.5026 28.9025 96.4439 29.0608L94.9079 31.8473C94.8213 31.9738 94.7642 32.1182 94.7409 32.2697C94.7176 32.4213 94.7287 32.5761 94.7733 32.7228C94.8179 32.8695 94.8948 33.0043 94.9985 33.1172C95.1022 33.2301 95.23 33.3183 95.3723 33.3752C96.4829 33.9464 97.6754 34.3415 98.9073 34.5464C100.524 34.8604 102.167 35.0146 103.814 35.0067C106.671 35.116 109.49 34.3177 111.865 32.7264C112.92 31.9619 113.766 30.9453 114.326 29.7695C114.886 28.5936 115.143 27.2961 115.072 25.9956C115.088 25.1034 114.909 24.2184 114.547 23.4029C114.175 22.623 113.621 21.9439 112.932 21.4227C112.293 20.9192 111.614 20.469 110.902 20.0766C110.261 19.7306 109.409 19.3348 108.369 18.9C107.353 18.5007 106.373 18.0161 105.439 17.4516C105.193 17.3096 104.989 17.1053 104.847 16.8592C104.705 16.6132 104.631 16.3342 104.631 16.0502C104.631 14.4604 106 13.6877 108.815 13.6877C110.418 13.661 112.013 13.9166 113.527 14.4429C113.684 14.5201 113.855 14.5628 114.03 14.5681C114.205 14.5735 114.379 14.5413 114.54 14.4739C114.702 14.4064 114.847 14.3052 114.966 14.1771C115.085 14.0489 115.175 13.8967 115.231 13.7308L116.693 11.0937C116.777 10.9684 116.833 10.8262 116.857 10.6771C116.881 10.5279 116.872 10.3753 116.831 10.23C116.79 10.0846 116.718 9.94984 116.62 9.83515C116.521 9.72045 116.399 9.62853 116.262 9.56578V9.56713ZM153.237 8.4902H148.893C148.552 8.47295 148.215 8.57064 147.936 8.76762C147.658 8.9646 147.453 9.24946 147.355 9.57655L142.792 20.4804L140.482 26.3658L140.144 20.4912L139.305 9.59405C139.297 9.42521 139.253 9.26012 139.175 9.10998C139.097 8.95984 138.988 8.82815 138.855 8.72384C138.722 8.61954 138.568 8.54505 138.404 8.50544C138.24 8.46582 138.069 8.46201 137.903 8.49424H134.212C133.872 8.4779 133.536 8.57095 133.253 8.75971C132.97 8.94848 132.756 9.22299 132.641 9.5429L127.929 20.4467L125.554 26.3604L125.327 20.5262L124.597 9.62232C124.589 9.45591 124.546 9.29309 124.471 9.14416C124.396 8.99523 124.292 8.86344 124.163 8.75714C124.035 8.65084 123.886 8.57235 123.726 8.52663C123.565 8.48091 123.397 8.46897 123.232 8.49155H119.034C118.885 8.48273 118.737 8.50513 118.598 8.55731C118.459 8.60948 118.332 8.69026 118.226 8.79444C118.1 8.95639 118.009 9.14215 117.957 9.34046C117.906 9.53876 117.895 9.74549 117.926 9.94809L120.263 33.4977C120.269 33.6615 120.309 33.8223 120.38 33.9699C120.452 34.1174 120.553 34.2485 120.678 34.3548C120.803 34.4611 120.948 34.5404 121.105 34.5875C121.262 34.6346 121.427 34.6485 121.59 34.6285H126.153C126.495 34.6366 126.831 34.537 127.112 34.3437C127.394 34.1504 127.608 33.8732 127.723 33.5516L132.471 23.1256L134.525 18.1892L134.864 23.0798L135.959 33.495C135.96 33.6608 135.997 33.8245 136.066 33.9748C136.136 34.1252 136.238 34.2588 136.364 34.3666C136.49 34.4743 136.637 34.5537 136.797 34.5994C136.956 34.645 137.124 34.6559 137.287 34.6312H141.816C142.16 34.6293 142.496 34.5262 142.781 34.3347C143.067 34.1431 143.29 33.8717 143.422 33.5542L154.047 9.99655C154.14 9.83173 154.195 9.64782 154.206 9.45884C154.217 9.26987 154.185 9.08083 154.112 8.90617C154.02 8.76138 153.889 8.64565 153.734 8.57248C153.579 8.4993 153.407 8.4717 153.237 8.4929V8.4902ZM187.888 8.4902H173.285C173.116 8.47551 172.946 8.49507 172.786 8.54771C172.625 8.60035 172.476 8.68498 172.349 8.79651C172.221 8.90804 172.118 9.04418 172.044 9.19673C171.971 9.34929 171.929 9.51511 171.921 9.68424L167.76 33.3766C167.713 33.5297 167.701 33.6915 167.724 33.8501C167.747 34.0087 167.806 34.1601 167.895 34.2933C168.015 34.4154 168.16 34.509 168.321 34.5672C168.482 34.6255 168.654 34.6469 168.824 34.6298H172.913C173.251 34.6437 173.58 34.5275 173.834 34.3052C174.088 34.083 174.246 33.7717 174.277 33.4358L175.787 24.7208H184.778C185.112 24.7462 185.442 24.639 185.698 24.4226C185.953 24.2061 186.113 23.8978 186.142 23.5644L186.69 20.4912C186.731 20.3347 186.738 20.1712 186.708 20.012C186.679 19.8529 186.616 19.7021 186.522 19.5704C186.405 19.4525 186.263 19.362 186.107 19.3055C185.951 19.2489 185.784 19.2277 185.618 19.2433H176.763L177.692 14.0808H187.086C187.255 14.0959 187.425 14.0766 187.586 14.0241C187.747 13.9716 187.896 13.887 188.023 13.7754C188.15 13.6638 188.254 13.5275 188.327 13.3748C188.401 13.222 188.442 13.056 188.449 12.8867L188.997 9.73675C189.033 9.57893 189.034 9.41519 189.001 9.25689C188.967 9.0986 188.899 8.94952 188.802 8.82001C188.683 8.70242 188.539 8.61225 188.381 8.55576C188.223 8.49927 188.055 8.47782 187.888 8.4929V8.4902ZM209.808 8.82674C209.688 8.70439 209.542 8.61061 209.381 8.55235C209.22 8.49408 209.048 8.47284 208.877 8.4902H191.793C191.627 8.47796 191.459 8.49955 191.301 8.55367C191.143 8.60778 190.998 8.69332 190.874 8.80512C190.75 8.91692 190.649 9.05268 190.579 9.20422C190.509 9.35577 190.47 9.51996 190.465 9.68694L189.845 13.1223C189.803 13.285 189.797 13.4549 189.827 13.6203C189.857 13.7856 189.923 13.9423 190.02 14.0794C190.137 14.1966 190.277 14.2867 190.432 14.3433C190.587 14.3998 190.753 14.4214 190.917 14.4066H196.092L192.769 33.3752C192.722 33.5288 192.711 33.691 192.735 33.8497C192.759 34.0085 192.819 34.1596 192.911 34.2919C193.03 34.4142 193.176 34.5079 193.337 34.5662C193.497 34.6244 193.669 34.6457 193.839 34.6285H197.965C198.302 34.6423 198.632 34.5261 198.886 34.3039C199.14 34.0816 199.298 33.7704 199.329 33.4344L202.661 14.4039H207.966C208.313 14.419 208.652 14.2994 208.913 14.0701C209.174 13.8408 209.336 13.5196 209.366 13.1735L209.949 9.74213C209.994 9.58904 210.005 9.42772 209.981 9.26986C209.957 9.112 209.897 8.96156 209.808 8.82944V8.82674ZM157.145 14.3702H159.776L157.386 23.3491C157.36 23.4458 157.356 23.5472 157.376 23.6454C157.395 23.7437 157.437 23.8362 157.498 23.9157C157.559 23.9952 157.637 24.0596 157.727 24.104C157.817 24.1484 157.915 24.1715 158.016 24.1716H159.227C159.396 24.1715 159.562 24.1278 159.709 24.0448C159.856 23.9618 159.979 23.8422 160.066 23.6977L168.339 9.97636C168.427 9.82795 168.475 9.65887 168.477 9.48622C168.479 9.31358 168.435 9.1435 168.35 8.99321C168.265 8.84292 168.142 8.71774 167.993 8.63036C167.844 8.54298 167.675 8.49649 167.502 8.49559H164.488L169.183 1.53059C169.283 1.38348 169.341 1.21209 169.35 1.03473C169.36 0.857376 169.321 0.680722 169.238 0.523661C169.155 0.366601 169.031 0.23504 168.879 0.143043C168.727 0.0510451 168.553 0.00207101 168.376 0.00135803H160.779C160.493 0.0013928 160.215 0.0956568 159.987 0.269604C159.76 0.443551 159.596 0.687515 159.521 0.963858L156.206 13.1385C156.167 13.283 156.162 13.4346 156.191 13.5815C156.22 13.7284 156.282 13.8668 156.373 13.986C156.463 14.1051 156.58 14.202 156.714 14.2691C156.848 14.3361 156.995 14.3717 157.145 14.3729V14.3702ZM160.479 28.0929H156.22C155.931 28.0931 155.65 28.1892 155.422 28.3661C155.193 28.5429 155.03 28.7906 154.957 29.0702L153.832 33.3994C153.794 33.5439 153.79 33.6951 153.819 33.8414C153.849 33.9878 153.912 34.1254 154.003 34.2438C154.093 34.3623 154.21 34.4584 154.344 34.5248C154.478 34.5912 154.625 34.6262 154.774 34.6271H159.024C159.313 34.6279 159.594 34.5328 159.823 34.3567C160.052 34.1805 160.216 33.9333 160.289 33.6539L161.425 29.3233C161.463 29.1785 161.467 29.027 161.438 28.8803C161.408 28.7337 161.345 28.5958 161.253 28.4773C161.162 28.3588 161.045 28.2627 160.911 28.1966C160.776 28.1304 160.629 28.0959 160.479 28.0956V28.0929Z" fill="white"/>
</g>
<defs>
<clipPath id="clip0_1045_805">
<rect width="210" height="35" fill="white"/>
</clipPath>
</defs>
</svg>
