<svg width="174" height="54" viewBox="0 0 174 54" fill="none" xmlns="http://www.w3.org/2000/svg">
<g clip-path="url(#clip0_1045_607)">
<path d="M45.24 0H8.7C3.89512 0 0 3.89512 0 8.7V45.24C0 50.045 3.89512 53.94 8.7 53.94H45.24C50.045 53.94 53.94 50.045 53.94 45.24V8.7C53.94 3.89512 50.045 0 45.24 0Z" fill="#CCCCCC"/>
<path fill-rule="evenodd" clip-rule="evenodd" d="M36.54 8.7H31.32L35.67 16.53L26.1 8.7H20.88L25.665 18.27L15.66 8.7H10.44L15.66 20.88L10.44 45.24H15.66L25.665 19.14L20.88 45.24H26.1L35.67 17.4L31.32 45.24H36.54L46.11 14.79L36.54 8.7Z" fill="white"/>
<path fill-rule="evenodd" clip-rule="evenodd" d="M160.08 12.18C168.78 12.18 174 18.6743 174 26.97C174 35.235 168.78 41.76 160.08 41.76C151.38 41.76 146.16 35.2657 146.16 26.97C146.16 18.6743 151.38 12.18 160.08 12.18ZM120.93 13.92V40.89H114.84V27.84V21.315V14.79L120.93 13.92ZM143.55 13.05V19.14L140.07 19.575C137.025 20.01 134.85 21.75 134.85 25.2125V40.89H128.76V25.2125C128.76 17.7654 133.11 14.355 140.07 13.485L143.55 13.05ZM82.65 13.05C85.26 13.05 87.9587 14.1286 89.61 16.53C91.2673 14.3432 93.96 13.05 97.44 13.05C101.79 13.05 107.01 15.66 107.01 24.36V40.89H100.92V24.36C100.92 21.315 99.0234 19.14 96.135 19.14C93.2466 19.14 91.35 21.315 91.35 24.36V40.89H85.26V24.36C85.26 21.315 83.363 19.14 80.475 19.14C77.5353 19.14 75.69 21.315 75.69 24.36V40.89H69.6V24.36V14.79L75.69 13.92V16.53C77.3917 14.4379 79.17 13.05 82.65 13.05ZM160.08 18.27C154.86 18.27 152.25 22.166 152.25 26.97C152.25 31.7741 154.86 35.67 160.08 35.67C165.3 35.67 167.91 31.755 167.91 26.97C167.91 22.172 165.3 18.27 160.08 18.27ZM117.885 2.61C120.06 2.61 121.8 3.915 121.8 6.525C121.8 9.135 120.06 10.44 117.885 10.44C115.71 10.44 113.97 9.135 113.97 6.525C113.97 3.91499 115.71 2.61 117.885 2.61Z" fill="white"/>
</g>
<defs>
<clipPath id="clip0_1045_607">
<rect width="174" height="53.94" fill="white"/>
</clipPath>
</defs>
</svg>
