<svg width="187" height="50" viewBox="0 0 187 50" fill="none" xmlns="http://www.w3.org/2000/svg">
<path d="M69.6892 10.1779H59.3755C59.0341 10.1777 58.7038 10.2994 58.4442 10.5212C58.1845 10.7429 58.0126 11.0501 57.9594 11.3874L53.7881 37.8343C53.769 37.957 53.7766 38.0825 53.8106 38.2019C53.8445 38.3214 53.9039 38.4321 53.9848 38.5264C54.0656 38.6208 54.1659 38.6964 54.2788 38.7482C54.3917 38.8001 54.5145 38.8268 54.6387 38.8266H59.5625C59.9042 38.8268 60.2346 38.7048 60.4943 38.4828C60.754 38.2607 60.9257 37.9532 60.9786 37.6156L62.1036 30.4825C62.1564 30.1452 62.328 29.8379 62.5873 29.6159C62.8467 29.3938 63.1768 29.2717 63.5182 29.2715H66.7831C73.577 29.2715 77.4979 25.9839 78.5219 19.4691C78.9834 16.6189 78.5415 14.3794 77.2069 12.811C75.741 11.0888 73.1411 10.1779 69.6892 10.1779V10.1779ZM70.879 19.8371C70.315 23.5379 67.4874 23.5379 64.7533 23.5379H63.197L64.2888 16.6264C64.3208 16.4242 64.4238 16.24 64.5795 16.1071C64.7351 15.9741 64.9331 15.901 65.1378 15.901H65.8511C67.7136 15.901 69.4705 15.901 70.3784 16.9627C70.9198 17.5961 71.0856 18.5371 70.879 19.8371V19.8371ZM100.519 19.7179H95.5796C95.3749 19.7179 95.1769 19.791 95.0213 19.924C94.8656 20.057 94.7626 20.2411 94.7306 20.4433L94.5119 21.8247L94.1666 21.324C93.0974 19.7722 90.7131 19.2535 88.3334 19.2535C82.8757 19.2535 78.2143 23.3871 77.3064 29.1856C76.8344 32.078 77.5055 34.8438 79.1462 36.7726C80.6513 38.5461 82.8048 39.2851 85.367 39.2851C89.7645 39.2851 92.2031 36.4574 92.2031 36.4574L91.9829 37.8298C91.9633 37.9525 91.9705 38.078 92.004 38.1976C92.0376 38.3173 92.0967 38.4282 92.1772 38.5228C92.2578 38.6174 92.3579 38.6934 92.4707 38.7456C92.5834 38.7978 92.7062 38.8249 92.8304 38.8251H97.2792C97.6209 38.8253 97.9513 38.7033 98.211 38.4813C98.4707 38.2592 98.6424 37.9517 98.6953 37.6141L101.365 20.7102C101.384 20.5878 101.377 20.4626 101.344 20.3432C101.31 20.2238 101.251 20.1131 101.171 20.0188C101.09 19.9244 100.99 19.8487 100.878 19.7967C100.765 19.7448 100.643 19.7179 100.519 19.7179V19.7179ZM93.6342 29.3303C93.1577 32.1519 90.9182 34.0461 88.0619 34.0461C86.6278 34.0461 85.4816 33.5861 84.7457 32.7144C84.0158 31.8488 83.7383 30.6167 83.9705 29.2444C84.4154 26.4469 86.6926 24.491 89.5051 24.491C90.9076 24.491 92.0477 24.957 92.7988 25.8362C93.5513 26.7244 93.8499 27.964 93.6342 29.3303V29.3303ZM126.822 19.7179H121.859C121.625 19.7183 121.395 19.7758 121.188 19.8854C120.981 19.9949 120.804 20.1533 120.672 20.3468L113.827 30.4297L110.926 20.7404C110.837 20.4449 110.655 20.1859 110.407 20.0017C110.159 19.8176 109.859 19.7181 109.55 19.7179H104.673C104.536 19.7176 104.401 19.7499 104.279 19.8123C104.158 19.8746 104.052 19.9652 103.973 20.0764C103.893 20.1876 103.841 20.3163 103.821 20.4518C103.801 20.5872 103.813 20.7254 103.857 20.855L109.324 36.8978L104.185 44.1531C104.093 44.2817 104.039 44.433 104.028 44.5904C104.017 44.7478 104.049 44.9052 104.122 45.0453C104.194 45.1855 104.304 45.303 104.439 45.3851C104.573 45.4671 104.728 45.5104 104.886 45.5104H109.843C110.074 45.5107 110.302 45.4549 110.508 45.3477C110.713 45.2405 110.889 45.0852 111.021 44.8951L127.528 21.0677C127.617 20.9387 127.67 20.7878 127.68 20.6312C127.69 20.4746 127.656 20.3183 127.584 20.1792C127.511 20.0402 127.401 19.9237 127.267 19.8423C127.133 19.761 126.979 19.718 126.822 19.7179V19.7179Z" fill="white"/>
<path d="M143.254 10.1779H132.939C132.598 10.1781 132.268 10.3 132.008 10.5217C131.749 10.7434 131.577 11.0504 131.524 11.3874L127.353 37.8343C127.334 37.9568 127.341 38.0821 127.375 38.2015C127.408 38.3209 127.467 38.4315 127.548 38.5258C127.629 38.6202 127.729 38.6959 127.841 38.7478C127.954 38.7997 128.077 38.8266 128.201 38.8266H133.494C133.733 38.8263 133.963 38.7407 134.145 38.5854C134.326 38.43 134.446 38.215 134.483 37.9791L135.667 30.4825C135.72 30.1452 135.891 29.8379 136.151 29.6159C136.41 29.3938 136.74 29.2717 137.082 29.2715H140.345C147.14 29.2715 151.06 25.984 152.085 19.4691C152.548 16.6189 152.103 14.3794 150.769 12.811C149.304 11.0888 146.706 10.1779 143.254 10.1779V10.1779ZM144.444 19.8371C143.881 23.5379 141.054 23.5379 138.318 23.5379H136.763L137.857 16.6264C137.888 16.4242 137.991 16.2399 138.146 16.1068C138.302 15.9738 138.5 15.9008 138.704 15.901H139.418C141.278 15.901 143.037 15.901 143.945 16.9627C144.486 17.5961 144.651 18.5371 144.444 19.8371V19.8371ZM174.082 19.7179H169.146C168.941 19.7174 168.743 19.7903 168.588 19.9234C168.432 20.0565 168.33 20.241 168.298 20.4433L168.08 21.8247L167.733 21.324C166.664 19.7722 164.281 19.2535 161.901 19.2535C156.444 19.2535 151.784 23.3871 150.876 29.1856C150.405 32.078 151.073 34.8438 152.714 36.7727C154.222 38.5461 156.373 39.2851 158.935 39.2851C163.332 39.2851 165.771 36.4575 165.771 36.4575L165.551 37.8298C165.531 37.9527 165.538 38.0785 165.572 38.1984C165.606 38.3182 165.665 38.4293 165.746 38.524C165.827 38.6186 165.927 38.6946 166.041 38.7466C166.154 38.7986 166.277 38.8254 166.401 38.8251H170.849C171.19 38.8249 171.52 38.7028 171.779 38.4808C172.039 38.2588 172.21 37.9514 172.263 37.6141L174.934 20.7103C174.953 20.5874 174.945 20.462 174.911 20.3425C174.877 20.223 174.817 20.1124 174.736 20.0181C174.655 19.9238 174.555 19.8482 174.442 19.7964C174.329 19.7446 174.206 19.7178 174.082 19.7179V19.7179ZM167.198 29.3303C166.724 32.1519 164.482 34.0461 161.625 34.0461C160.194 34.0461 159.045 33.5861 158.309 32.7144C157.579 31.8488 157.305 30.6167 157.534 29.2444C157.982 26.4469 160.256 24.491 163.068 24.491C164.471 24.491 165.611 24.957 166.362 25.8362C167.118 26.7244 167.416 27.964 167.198 29.3303V29.3303ZM179.905 10.9033L175.671 37.8343C175.652 37.9568 175.659 38.0821 175.693 38.2015C175.727 38.3209 175.786 38.4315 175.866 38.5258C175.947 38.6202 176.047 38.6959 176.16 38.7478C176.272 38.7997 176.395 38.8266 176.519 38.8266H180.775C181.482 38.8266 182.082 38.3139 182.191 37.6157L186.365 11.1702C186.384 11.0477 186.377 10.9223 186.343 10.8029C186.31 10.6834 186.251 10.5727 186.17 10.4782C186.09 10.3838 185.99 10.3079 185.877 10.2558C185.764 10.2037 185.642 10.1766 185.518 10.1764H180.752C180.547 10.1771 180.35 10.2507 180.195 10.3839C180.039 10.5171 179.936 10.7012 179.905 10.9033Z" fill="#CCCCCC"/>
<path d="M10.9576 43.9661L11.7463 38.9563L9.98943 38.9156H1.60007L7.43025 1.94842C7.4476 1.83547 7.50497 1.73251 7.59189 1.65833C7.67882 1.58414 7.7895 1.54365 7.90378 1.54426H22.0494C26.7455 1.54426 29.9864 2.52148 31.6784 4.4503C32.4717 5.35514 32.9769 6.30069 33.2212 7.34126C33.4775 8.4331 33.4821 9.73757 33.2317 11.3286L33.2136 11.4447V12.4642L34.0069 12.9136C34.6124 13.2204 35.1568 13.6354 35.613 14.1381C36.2916 14.9117 36.7304 15.895 36.9159 17.0607C37.1075 18.2596 37.0441 19.6863 36.7304 21.3014C36.3685 23.1593 35.7834 24.7775 34.9931 26.1016C34.2959 27.2877 33.3585 28.3151 32.2409 29.1177C31.1913 29.8627 29.9441 30.4282 28.5341 30.7901C27.1678 31.1461 25.61 31.3255 23.9013 31.3255H22.8004C22.0132 31.3255 21.2486 31.609 20.6484 32.1172C20.0491 32.6309 19.6515 33.3406 19.5264 34.12L19.4435 34.5709L18.05 43.4006L17.9867 43.7248C17.9701 43.8274 17.9415 43.8786 17.8992 43.9133C17.8583 43.9468 17.8073 43.9654 17.7545 43.9661H10.9576Z" fill="white"/>
<path d="M34.7579 11.5623C34.7156 11.8323 34.6674 12.1082 34.6131 12.3918C32.7476 21.9695 26.3655 25.2782 18.2144 25.2782H14.0642C13.0674 25.2782 12.2274 26.002 12.072 26.9853L9.94719 40.4614L9.34547 44.2813C9.3215 44.4328 9.33065 44.5877 9.37229 44.7354C9.41394 44.883 9.48708 45.0199 9.58669 45.1366C9.6863 45.2532 9.81001 45.3469 9.94931 45.4112C10.0886 45.4755 10.2402 45.5088 10.3936 45.5089H17.7544C18.6261 45.5089 19.3666 44.8755 19.5038 44.0159L19.5762 43.6419L20.9621 34.8468L21.0511 34.3643C21.1868 33.5016 21.9288 32.8683 22.8004 32.8683H23.9013C31.0329 32.8683 36.6158 29.9728 38.2475 21.594C38.9292 18.0937 38.5763 15.1711 36.7726 13.1156C36.201 12.4798 35.5182 11.9534 34.7579 11.5623V11.5623Z" fill="#CCCCCC"/>
<path d="M32.8064 10.7842C32.2108 10.6119 31.6048 10.4774 30.9922 10.3815C29.7817 10.1955 28.5583 10.1062 27.3337 10.1146H16.2464C15.8244 10.1143 15.4163 10.2649 15.0957 10.5393C14.7752 10.8136 14.5633 11.1936 14.4985 11.6106L12.1399 26.5495L12.0721 26.9853C12.1455 26.5097 12.3868 26.0762 12.7522 25.7631C13.1176 25.4499 13.583 25.2779 14.0642 25.2782H18.2144C26.3655 25.2782 32.7476 21.968 34.6131 12.3918C34.6689 12.1082 34.7156 11.8323 34.7579 11.5623C34.2656 11.3042 33.7526 11.0878 33.2242 10.9154C33.0856 10.8694 32.9464 10.8257 32.8064 10.7842V10.7842Z" fill="white"/>
<path d="M14.4986 11.6106C14.5629 11.1935 14.7746 10.8133 15.0953 10.5391C15.4161 10.2649 15.8245 10.1148 16.2465 10.1161H27.3338C28.6473 10.1161 29.8734 10.2021 30.9923 10.383C31.7496 10.502 32.4963 10.68 33.2258 10.9154C33.7762 11.0978 34.2875 11.3135 34.7595 11.5623C35.3145 8.0229 34.755 5.61302 32.8412 3.43085C30.7314 1.0285 26.9236 0 22.051 0H7.90538C6.91006 0 6.06102 0.723871 5.9072 1.70864L0.0151886 39.0559C-0.0122554 39.2293 -0.00181386 39.4065 0.0457949 39.5755C0.0934036 39.7445 0.17705 39.9011 0.290979 40.0347C0.404909 40.1683 0.546418 40.2756 0.705773 40.3492C0.865128 40.4229 1.03855 40.4611 1.2141 40.4614H9.9473L12.14 26.5495L14.4986 11.6106V11.6106Z" fill="white"/>
</svg>
