<svg width="300" height="65" viewBox="0 0 300 65" fill="none" xmlns="http://www.w3.org/2000/svg">
<g clip-path="url(#clip0_1045_994)">
<path d="M57.1949 21.5402H23.67C23.0304 21.5402 22.512 22.0625 22.512 22.7068V26.6387C22.512 27.283 23.0304 27.8053 23.67 27.8053H57.1949C57.8345 27.8053 58.3529 27.283 58.3529 26.6387V22.7068C58.3529 22.0625 57.8345 21.5402 57.1949 21.5402Z" fill="white"/>
<path d="M35.019 37.1947H1.49405C0.854509 37.1947 0.33606 37.717 0.33606 38.3613V42.2932C0.33606 42.9375 0.854509 43.4598 1.49405 43.4598H35.019C35.6586 43.4598 36.177 42.9375 36.177 42.2932V38.3613C36.177 37.717 35.6586 37.1947 35.019 37.1947Z" fill="white"/>
<path fill-rule="evenodd" clip-rule="evenodd" d="M4.63599 25.8271C4.93009 25.9036 5.24224 25.861 5.5056 25.7086C5.76896 25.5561 5.96258 25.3058 6.04501 25.0113C7.90138 19.1576 11.8617 14.2139 17.1492 11.1495C22.4367 8.08518 28.6699 7.12141 34.6263 8.44723C34.9145 8.50706 35.2145 8.45329 35.4646 8.29698C35.7147 8.14067 35.8957 7.89373 35.9705 7.60699L36.9827 3.80146C37.0223 3.64868 37.0308 3.48942 37.0077 3.33326C36.9846 3.17709 36.9304 3.02724 36.8483 2.89273C36.7662 2.75822 36.658 2.64183 36.5301 2.55056C36.4022 2.45929 36.2573 2.39503 36.1041 2.36163C28.5771 0.654836 20.688 1.86817 14.0093 5.75979C7.33073 9.65142 2.35316 15.9355 0.0688168 23.3594C0.0258079 23.5083 0.0127028 23.6643 0.030268 23.8184C0.0478332 23.9725 0.0957162 24.1215 0.171116 24.2567C0.246517 24.3919 0.347921 24.5106 0.469398 24.6058C0.590875 24.7011 0.729988 24.771 0.878599 24.8114L4.63599 25.8271Z" fill="white"/>
<path fill-rule="evenodd" clip-rule="evenodd" d="M54.0611 39.1566C53.7648 39.0763 53.449 39.117 53.1822 39.2697C52.9154 39.4224 52.7191 39.6749 52.6359 39.9724C50.7835 45.8298 46.8249 50.7783 41.5369 53.8467C36.249 56.915 30.0136 57.8817 24.0546 56.5568C23.7663 56.496 23.4658 56.5493 23.2154 56.7058C22.9651 56.8622 22.7842 57.1098 22.7104 57.3971L21.7184 61.1822C21.6782 61.3353 21.6692 61.4949 21.692 61.6516C21.7148 61.8082 21.7689 61.9586 21.851 62.0935C21.9331 62.2285 22.0416 62.3453 22.1698 62.4369C22.298 62.5284 22.4434 62.5928 22.597 62.6261C30.1243 64.3288 38.0121 63.1132 44.6899 59.2213C51.3677 55.3294 56.3455 49.0468 58.6323 41.6243C58.6758 41.4757 58.6893 41.3198 58.672 41.1658C58.6546 41.0118 58.6068 40.8629 58.5313 40.7279C58.4558 40.5928 58.3541 40.4745 58.2324 40.3797C58.1106 40.285 57.9713 40.2158 57.8225 40.1763L54.0611 39.1566Z" fill="white"/>
<path d="M47.0645 14.6633C48.9474 14.6633 50.4737 13.1257 50.4737 11.229C50.4737 9.33223 48.9474 7.79462 47.0645 7.79462C45.1817 7.79462 43.6553 9.33223 43.6553 11.229C43.6553 13.1257 45.1817 14.6633 47.0645 14.6633Z" fill="white"/>
<path d="M11.6325 57.2013C13.5154 57.2013 15.0417 55.6637 15.0417 53.7669C15.0417 51.8702 13.5154 50.3326 11.6325 50.3326C9.74967 50.3326 8.22333 51.8702 8.22333 53.7669C8.22333 55.6637 9.74967 57.2013 11.6325 57.2013Z" fill="white"/>
<path fill-rule="evenodd" clip-rule="evenodd" d="M141.845 26.2717C143.089 24.8964 144.607 23.8028 146.301 23.0631C147.995 22.3234 149.826 21.9545 151.672 21.9807C155.26 21.9807 158.053 23.0983 159.819 25.2438V23.4654C159.83 23.2196 159.932 22.9869 160.104 22.8121C160.276 22.6374 160.506 22.533 160.75 22.5191H165.479C165.723 22.5339 165.952 22.6385 166.124 22.8131C166.296 22.9877 166.398 23.2199 166.41 23.4654V49.9165C166.557 53.649 165.412 57.3169 163.171 60.2931C160.62 63.4174 156.75 65 151.664 65C144.595 65 139.015 60.4929 138.096 54.0565C138.074 53.8243 138.133 53.5916 138.263 53.3987C138.393 53.2057 138.586 53.0647 138.809 53.0001L143.429 51.907C143.453 51.9051 143.477 51.9051 143.501 51.907C143.622 51.8885 143.745 51.8943 143.863 51.9239C143.982 51.9535 144.093 52.0065 144.191 52.0797C144.289 52.1528 144.371 52.2448 144.433 52.3503C144.496 52.4558 144.537 52.5727 144.554 52.6942C144.76 54.4357 145.604 56.0369 146.921 57.1843C148.238 58.3318 149.932 58.943 151.672 58.8981C157.195 58.8981 159.77 56.0429 159.77 50.0756V47.7588C158.757 48.9028 157.506 49.8085 156.107 50.4119C154.707 51.0152 153.193 51.3014 151.672 51.2503C143.813 51.2503 138.112 45.1035 138.112 36.6441C138.043 32.8408 139.372 29.1461 141.845 26.2717V26.2717ZM233.549 21.6177H233.796C242.246 21.7319 247.482 27.6584 247.482 37.1417C247.481 37.6445 247.454 38.1469 247.401 38.6468C247.374 38.8707 247.267 39.0771 247.1 39.2273C246.933 39.3775 246.718 39.4612 246.494 39.4625H226.407C226.467 41.5052 227.323 43.442 228.789 44.8546C230.255 46.2672 232.213 47.0422 234.242 47.0124C235.83 47.1124 237.406 46.6672 238.711 45.7494C240.016 44.8316 240.974 43.4954 241.428 41.9588C241.513 41.734 241.679 41.5506 241.894 41.4465C242.109 41.3425 242.356 41.3258 242.582 41.4L246.579 42.8276C246.694 42.8655 246.8 42.9277 246.89 43.0099C246.98 43.0922 247.052 43.1927 247.101 43.3048C247.156 43.4131 247.188 43.5314 247.197 43.6526C247.205 43.7739 247.189 43.8955 247.15 44.0104C246.243 46.7157 244.498 49.0561 242.171 50.6864C239.844 52.3167 237.059 53.1507 234.225 53.0654C232.338 53.0839 230.465 52.725 228.715 52.0095C226.966 51.294 225.375 50.236 224.034 48.8968C222.571 47.3468 221.43 45.5178 220.679 43.5173C219.927 41.5169 219.58 39.3853 219.657 37.2477C219.657 27.4586 226.719 21.5973 233.541 21.5973L233.549 21.6177ZM119.904 21.6177C128.504 21.6177 133.849 27.5687 133.849 37.1458C133.848 37.6485 133.821 38.1509 133.768 38.6509C133.744 38.8758 133.638 39.0838 133.47 39.2345C133.303 39.3852 133.086 39.4679 132.861 39.4666H112.774C112.831 41.5208 113.691 43.4691 115.168 44.8866C116.645 46.3041 118.618 47.0756 120.658 47.0328C122.246 47.1343 123.822 46.6897 125.128 45.7717C126.433 44.8537 127.391 43.5166 127.844 41.9792C127.926 41.7525 128.092 41.5671 128.308 41.4626C128.524 41.3581 128.772 41.343 128.998 41.4204L133.011 42.8439C133.127 42.8814 133.233 42.9434 133.323 43.0257C133.413 43.108 133.485 43.2087 133.533 43.3211C133.579 43.433 133.603 43.5528 133.603 43.6739C133.603 43.795 133.579 43.9149 133.533 44.0267C132.627 46.7307 130.883 49.07 128.558 50.7002C126.232 52.3304 123.449 53.1652 120.617 53.0817C118.726 53.1023 116.849 52.7444 115.096 52.0288C113.344 51.3132 111.749 50.2542 110.406 48.9132C108.945 47.3612 107.806 45.5319 107.055 43.5319C106.303 41.5319 105.954 39.4012 106.029 37.2641C106.029 27.4749 113.09 21.6136 119.917 21.6136L119.904 21.6177ZM89.4809 21.6177C93.3395 21.6177 96.4612 22.5599 98.7732 24.4239C100.334 25.6784 101.492 27.37 102.101 29.2859C102.121 29.3673 102.123 29.4518 102.11 29.5344C102.096 29.617 102.067 29.696 102.023 29.767C101.979 29.8379 101.921 29.8994 101.853 29.9477C101.785 29.9961 101.709 30.0304 101.628 30.0486L96.8378 31.6434C96.6252 31.725 96.3904 31.725 96.1778 31.6434C96.0874 31.6014 96.0071 31.5403 95.9421 31.4643C95.8772 31.3883 95.8291 31.2992 95.8013 31.2029C95.3964 29.6408 94.0036 27.0181 89.4728 27.0181C86.3106 27.0181 84.4157 28.8454 84.4157 30.6156C84.4157 31.7903 85.019 33.3035 87.8695 33.8501L93.133 34.8453C99.0161 36.0404 102.385 39.2831 102.385 43.7983V43.7208C102.385 48.2075 98.1011 53.0001 90.1409 53.0001C80.9094 53.0001 77.2816 47.7385 76.6135 44.6345C76.5914 44.4724 76.629 44.3077 76.7193 44.1716C76.8096 44.0356 76.9462 43.9376 77.1034 43.8962L82.0431 42.3463C82.1314 42.3299 82.222 42.3299 82.3103 42.3463C82.4513 42.3437 82.5907 42.3774 82.7152 42.4442C82.8048 42.4876 82.8839 42.5502 82.9468 42.6278C83.0098 42.7053 83.0551 42.7958 83.0796 42.8928C83.7031 45.8785 86.3795 47.6569 90.23 47.6569C93.8133 47.6569 95.445 45.7684 95.445 44.0553C95.445 42.3422 93.9914 41.0818 91.4932 40.5761L85.9543 39.4911C80.7879 38.5081 77.569 35.2736 77.569 31.0643C77.569 25.9413 83.031 21.6177 89.4809 21.6177ZM292.959 13.3173C293.21 13.3329 293.446 13.4446 293.619 13.6296C293.791 13.8146 293.887 14.0589 293.886 14.3126V22.4702H299.081C299.33 22.4887 299.564 22.6016 299.734 22.7861C299.905 22.9707 300 23.2133 300 23.4654V27.8134C300.001 28.0608 299.905 28.2987 299.733 28.4751C299.561 28.6516 299.326 28.7524 299.081 28.7556H293.886V43.2721C293.886 45.6787 294.834 46.6739 297.271 46.6739C297.827 46.6645 298.381 46.6182 298.931 46.5352C299.064 46.5123 299.2 46.5191 299.331 46.555C299.461 46.591 299.581 46.6552 299.684 46.7432C299.782 46.835 299.861 46.946 299.915 47.0695C299.97 47.1929 299.998 47.3261 300 47.4611V51.5399C300.001 51.7429 299.938 51.9409 299.818 52.1041C299.698 52.2674 299.529 52.3872 299.336 52.4454C298.15 52.7802 296.923 52.941 295.692 52.9226C290.485 52.9226 287.258 49.5494 287.258 44.1083V28.8168H282.764C282.521 28.802 282.291 28.6972 282.12 28.5226C281.949 28.3479 281.848 28.1157 281.837 27.8705V23.5144C281.835 23.2604 281.931 23.0156 282.103 22.8304C282.276 22.6452 282.512 22.5338 282.764 22.5191H283.93C285.343 22.5191 287.724 22.0215 287.724 18.6279V14.3126C287.722 14.0586 287.818 13.8137 287.99 13.6286C288.163 13.4434 288.399 13.332 288.651 13.3173H292.959ZM195.461 26.4797C196.477 24.9161 197.879 23.6457 199.529 22.7933C201.18 21.9408 203.022 21.5357 204.875 21.6177V21.6177C210.009 21.6177 215.196 25.2601 215.196 33.2179V51.6378C215.183 51.8833 215.081 52.1155 214.909 52.2901C214.738 52.4647 214.508 52.5694 214.264 52.5841H209.531C209.288 52.5684 209.06 52.4633 208.889 52.2888C208.718 52.1143 208.616 51.8826 208.604 51.6378V33.8093C208.604 31.5537 207.903 27.7523 203.162 27.7523C199.696 27.7523 197.235 30.4973 197.235 34.4782V51.6378C197.223 51.8829 197.122 52.1151 196.951 52.2898C196.78 52.4645 196.551 52.5693 196.307 52.5841H191.513C191.27 52.5694 191.04 52.4647 190.868 52.2901C190.697 52.1155 190.595 51.8833 190.582 51.6378V33.8093C190.59 31.5537 189.894 27.7359 185.149 27.7359C181.545 27.7359 179.116 30.4606 179.116 34.519V51.6378C179.103 51.8826 179.002 52.1143 178.831 52.2888C178.66 52.4633 178.431 52.5684 178.189 52.5841H173.459C173.218 52.5673 172.99 52.4617 172.821 52.2872C172.652 52.1128 172.552 51.8816 172.54 51.6378V23.4042C172.553 23.1607 172.653 22.9301 172.822 22.7558C172.991 22.5815 173.218 22.4756 173.459 22.458H178.01C178.253 22.4736 178.482 22.5787 178.653 22.7532C178.824 22.9277 178.925 23.1594 178.938 23.4042V25.1051C179.951 23.9879 181.188 23.0996 182.567 22.4985C183.946 21.8974 185.436 21.5973 186.938 21.6177C188.664 21.5668 190.371 21.9931 191.873 22.8501C193.376 23.7072 194.617 24.9625 195.461 26.4797V26.4797ZM267.576 21.6177C269.09 21.5525 270.599 21.8348 271.988 22.4432C273.378 23.0516 274.612 23.9702 275.597 25.1296C277.435 27.5673 278.371 30.5754 278.241 33.6339V51.6378C278.231 51.8813 278.132 52.1123 277.963 52.2869C277.794 52.4615 277.567 52.5673 277.326 52.5841H272.536C272.293 52.5685 272.064 52.4635 271.892 52.2891C271.721 52.1147 271.618 51.883 271.605 51.6378V34.5965C271.605 30.1384 269.524 27.8705 265.572 27.8705C264.712 27.8426 263.857 28.0189 263.077 28.3853C262.297 28.7516 261.614 29.2976 261.082 29.9793C260.011 31.5316 259.469 33.3925 259.539 35.2818V51.6378C259.527 51.8826 259.425 52.1143 259.255 52.2888C259.084 52.4633 258.855 52.5684 258.612 52.5841H253.83C253.587 52.5684 253.359 52.4633 253.188 52.2888C253.017 52.1143 252.915 51.8826 252.903 51.6378V23.3838C252.913 23.1377 253.013 22.904 253.184 22.7283C253.356 22.5526 253.586 22.4475 253.83 22.4335H258.503C258.744 22.4493 258.971 22.5541 259.141 22.7279C259.31 22.9017 259.41 23.1323 259.422 23.3757V25.3662C260.412 24.1621 261.66 23.1995 263.073 22.5503C264.485 21.9012 266.024 21.5823 267.576 21.6177ZM152.494 27.9317C147.83 27.9317 144.87 31.2723 144.87 36.6441C144.87 42.0159 147.793 45.3523 152.494 45.3523C156.976 45.3523 159.997 41.8486 159.997 36.6441C159.997 31.4395 156.976 27.9317 152.494 27.9317ZM119.953 27.6625C118.232 27.6326 116.562 28.2507 115.269 29.3958C113.977 30.541 113.155 32.1308 112.965 33.8542H127.014C126.678 30.0323 123.982 27.6625 119.953 27.6625V27.6625ZM233.626 27.6625C231.907 27.6356 230.239 28.2549 228.949 29.3997C227.658 30.5445 226.837 32.1326 226.646 33.8542H240.7C240.351 30.0323 237.671 27.6625 233.622 27.6625H233.626Z" fill="white"/>
<path d="M84.5372 2.52479V12.0121H81.869V2.52479H78.1804V0.224335H88.2663V2.52479H84.5372Z" fill="white"/>
<path d="M104.919 12.0529H102.146L99.6032 3.36502L97.0159 12.0529H94.2991L90.8575 0.224335H93.6918L95.8741 8.74498L98.3359 0.224335H101.17L103.599 8.74498L105.713 0.224335H108.32L104.919 12.0529Z" fill="white"/>
<path d="M111.993 12.0121V0.224335H114.621V12.0121H111.993Z" fill="white"/>
<path d="M119.35 12.0121V0.224335H122.018V9.69127H126.585V12.0121H119.35Z" fill="white"/>
<path d="M130.561 12.0121V0.224335H133.209V12.0121H130.561Z" fill="white"/>
<path d="M143.117 12.2364C139.878 12.2364 137.286 9.89521 137.286 6.13862C137.286 2.38203 139.914 0.0203934 143.137 0.0203934C146.36 0.0203934 148.963 2.36163 148.963 6.13862C148.963 9.9156 146.356 12.2364 143.117 12.2364ZM143.117 2.17809C141.092 2.17809 139.914 3.85856 139.914 6.11822C139.914 8.37789 141.129 10.0788 143.117 10.0788C145.105 10.0788 146.275 8.35749 146.275 6.13862C146.275 3.91974 145.093 2.17809 143.137 2.17809H143.117Z" fill="white"/>
</g>
<defs>
<clipPath id="clip0_1045_994">
<rect width="300" height="65" fill="white"/>
</clipPath>
</defs>
</svg>
