<svg width="200" height="50" viewBox="0 0 200 50" fill="none" xmlns="http://www.w3.org/2000/svg">
<path fill-rule="evenodd" clip-rule="evenodd" d="M0.58651 35.4921C0.555049 32.3371 0.283139 28.6899 0.00673464 25.9011C-0.0231675 25.6069 0.0611542 25.3124 0.242261 25.0786C0.423368 24.8448 0.687405 24.6895 0.979768 24.6449L1.02471 24.6382C1.30909 24.5943 1.59966 24.6572 1.84035 24.8149C2.08104 24.9726 2.2548 25.2139 2.32808 25.4921C2.66718 26.8966 3.23018 28.2374 3.9955 29.4629C4.68763 30.5506 7.11011 34.3056 12.1977 34.3056C15.9056 34.3056 18.6247 31.6854 18.6247 28.373C18.6247 25.3124 16.1528 24.0764 11.3101 22.2472C9.87864 21.6539 8.3955 21.1124 6.96179 20.4697C4.98426 19.5281 0.337072 17.355 0.337072 11.3236C0.337072 4.60673 5.72584 0.651674 12.5955 0.651674C14.2629 0.651674 16.6359 0.885382 19.0135 1.97752C19.5393 2.21797 20.1595 2.03145 20.4697 1.54606L20.8629 0.925832C20.9645 0.764899 21.1041 0.63149 21.2695 0.537417C21.4349 0.443344 21.621 0.39151 21.8112 0.386506C22.1102 0.379329 22.4005 0.48726 22.6221 0.688001C22.8438 0.888742 22.9799 1.16695 23.0022 1.46516C23.2206 4.27867 23.5339 7.08402 23.9416 9.87639C24.0046 10.0303 24.034 10.196 24.0276 10.3623C24.0213 10.5285 23.9793 10.6915 23.9047 10.8401C23.83 10.9888 23.7243 11.1197 23.5948 11.2241C23.4653 11.3285 23.3148 11.4039 23.1537 11.4453C22.9925 11.4866 22.8244 11.4929 22.6606 11.4638C22.4968 11.4347 22.3412 11.3708 22.2041 11.2764C22.0671 11.182 21.9519 11.0594 21.8663 10.9167C21.7807 10.7741 21.7267 10.6147 21.7079 10.4494C21.0876 8.81123 20.7371 8.04493 20.0562 7.02471C18.427 4.80224 16.2517 3.2719 13.5348 3.2719C10.0247 3.2719 7.95055 6.13482 7.95055 8.45842C7.95055 11.1258 10.3213 12.2629 11.3595 12.7573C13.4854 13.7955 15.7079 14.4876 17.9326 15.3775C21.4899 16.7618 26.382 18.8876 26.382 25.4112C26.382 31.8337 21.2427 37.2202 13.0899 37.2202C9.0382 37.2202 6.39775 35.9393 4.86516 34.9663C4.73516 34.8845 4.59015 34.8295 4.43863 34.8045C4.2871 34.7794 4.1321 34.7848 3.9827 34.8204C3.8333 34.856 3.69249 34.921 3.56851 35.0116C3.44453 35.1023 3.33988 35.2167 3.26067 35.3483L2.82246 36.0719C2.72633 36.2289 2.59433 36.3609 2.43729 36.457C2.28025 36.5531 2.10266 36.6106 1.91909 36.6247L1.83595 36.6315C1.67783 36.6444 1.51874 36.6247 1.3686 36.5735C1.21845 36.5222 1.08046 36.4406 0.963232 36.3338C0.846007 36.2269 0.752059 36.097 0.687244 35.9522C0.62243 35.8074 0.588139 35.6508 0.58651 35.4921ZM27.4674 35.209C27.4674 34.7168 27.8202 34.2989 28.3011 34.218C29.0472 34.0944 29.9506 33.773 30.0876 32.8247C30.2359 31.6854 30.2359 28.7213 30.2359 27.9798C30.2359 26.2494 30.1865 23.4337 30.1865 21.7034C30.1865 19.2225 29.355 18.5416 28.1865 18.2112C27.9783 18.1503 27.7955 18.0233 27.6658 17.8494C27.5361 17.6755 27.4665 17.4641 27.4674 17.2472V17.1303C27.4674 16.6382 27.8225 16.2247 28.3056 16.1416C30.7663 15.7101 34.4876 14.6584 36.4404 13.9843C36.5662 13.9407 36.6995 13.9226 36.8323 13.931C36.9652 13.9395 37.095 13.9744 37.2143 14.0336C37.3335 14.0928 37.4398 14.1751 37.5268 14.2759C37.6139 14.3766 37.68 14.4937 37.7213 14.6202C37.7618 14.7506 37.8 14.8741 37.8337 15.0022C37.8761 15.1504 37.9521 15.2868 38.0557 15.4009C38.1593 15.515 38.2878 15.6037 38.4312 15.6602C38.5746 15.7167 38.729 15.7394 38.8826 15.7266C39.0362 15.7138 39.1848 15.6659 39.3168 15.5865C41.182 14.5034 42.9506 13.6989 45.555 13.6989C47.4337 13.6989 49.3124 14.1932 50.8449 15.2786C53.2517 16.9506 53.6539 19.5034 53.8562 22.2067V26.5461C53.8562 27.2876 53.7595 31.1416 53.7595 31.9843C53.7595 33.2337 54.0989 33.9955 55.7326 34.2989C55.9589 34.3454 56.1619 34.4693 56.3067 34.6494C56.4515 34.8294 56.529 35.0544 56.5258 35.2854C56.5261 35.4227 56.4982 35.5586 56.4438 35.6846C56.3894 35.8106 56.3097 35.9242 56.2096 36.0182C56.1095 36.1121 55.9912 36.1845 55.862 36.2309C55.7328 36.2772 55.5954 36.2966 55.4584 36.2876C54.0584 36.1933 51.9438 36.1326 48.4697 36.1326C46.5101 36.1326 45.4292 36.1865 44.4247 36.2742C44.2858 36.2866 44.1459 36.2701 44.0137 36.2255C43.8816 36.1809 43.7602 36.1093 43.6572 36.0152C43.5543 35.9212 43.4721 35.8067 43.4158 35.6791C43.3595 35.5515 43.3304 35.4136 43.3303 35.2741V35.0629C43.3303 34.6112 43.6337 34.2112 44.0719 34.0966C45.5168 33.7056 45.6966 33.0157 45.6539 30.0067L45.555 22.2966C45.5056 19.9258 45.4067 17.2067 42.1932 17.2067C40.8562 17.2067 39.8202 17.6966 38.8225 18.4494C38.691 18.5459 38.5848 18.6727 38.5128 18.819C38.4408 18.9653 38.4052 19.1269 38.409 19.2899C38.4876 21.7663 38.4876 28.7955 38.4876 30.9932C38.4876 33.2607 38.8809 33.8876 40.0876 34.2067C40.5191 34.3191 40.8112 34.7236 40.8112 35.1708V35.3011C40.8115 35.4385 40.7836 35.5745 40.7292 35.7006C40.6748 35.8268 40.5952 35.9405 40.4951 36.0346C40.3951 36.1288 40.2768 36.2014 40.1476 36.248C40.0183 36.2946 39.8809 36.3142 39.7438 36.3056C38.0652 36.2 35.9079 36.1326 31.8652 36.1326C30.3101 36.1326 29.4067 36.182 28.564 36.2629C28.4247 36.2761 28.2842 36.26 28.1515 36.2155C28.0187 36.1711 27.8968 36.0994 27.7935 36.0049C27.6902 35.9105 27.6078 35.7955 27.5516 35.6673C27.4955 35.5391 27.4668 35.4006 27.4674 35.2607V35.209ZM70.5146 26.9798C70.5137 26.8267 70.4779 26.6758 70.4099 26.5387C70.3418 26.4016 70.2433 26.2819 70.1219 26.1886C70.0005 26.0954 69.8594 26.0311 69.7093 26.0008C69.5593 25.9704 69.4043 25.9748 69.2562 26.0135C67.5888 26.4359 65.3753 27.409 65.3753 30.0067C65.3753 31.3416 66.0674 32.8225 67.9461 32.8225C68.9034 32.8225 69.4742 32.5326 70.0742 32.1371C70.2103 32.0454 70.3217 31.9216 70.3985 31.7765C70.4754 31.6315 70.5152 31.4697 70.5146 31.3056V26.9798ZM81.9348 32.6966C82.0439 32.7842 82.1336 32.8935 82.198 33.0177C82.2624 33.1419 82.3001 33.2782 82.3088 33.4178C82.3174 33.5575 82.2969 33.6973 82.2483 33.8286C82.1998 33.9598 82.1244 34.0794 82.027 34.1798C79.6517 36.5843 77.2966 37.0741 76 37.0741C74.6662 37.0581 73.3707 36.626 72.2944 35.8382C71.9511 35.5624 71.6432 35.2454 71.3775 34.8944C71.226 34.6935 71.0035 34.5579 70.7555 34.5153C70.5075 34.4728 70.2526 34.5263 70.0427 34.6652C68.6831 35.5483 65.8764 37.1213 62.7573 37.1213C58.209 37.1213 57.1236 34.0584 57.1236 32.2315C57.1236 26.5843 65.8135 24.2225 69.7483 23.5168C69.9776 23.4748 70.185 23.3538 70.3344 23.1749C70.4839 22.9959 70.5659 22.7702 70.5663 22.5371C70.5708 21.009 70.573 19.2112 70.3663 18.591C69.773 16.8607 67.7977 16.8607 67.5506 16.8607C65.9191 16.8607 65.0292 17.8494 64.7326 18.9371C64.5843 19.5798 64.5843 20.2719 64.4359 20.9146C64.0404 22.5933 62.6562 23.2359 61.4225 23.2359C59.8899 23.2359 58.4562 22.2472 58.4562 20.4202C58.4562 16.7618 65.227 13.7955 71.355 13.7955C75.6045 13.7955 78.7168 15.1798 78.7168 19.2831L78.6202 30.3034C78.5708 31.1438 78.5191 33.0674 79.8045 33.0674C80.1236 33.0674 80.4247 32.9011 80.7079 32.6809C80.8847 32.5461 81.1017 32.4744 81.324 32.4772C81.5464 32.4801 81.7615 32.5573 81.9348 32.6966Z" fill="white"/>
<path fill-rule="evenodd" clip-rule="evenodd" d="M95.8427 33.7123C99.4989 33.7123 100.831 28.6224 100.831 25.2629C100.831 21.7033 99.3483 16.9595 95.6944 16.9595C92.382 16.9595 92.382 20.3708 92.382 21.4067C92.382 22.5438 92.4337 28.0786 92.4337 29.3146C92.4337 30.8966 92.4337 33.7123 95.8427 33.7123ZM84.2292 22C84.3191 18.2247 83.7798 17.3348 82.0944 16.8696C81.8954 16.8105 81.721 16.6882 81.5977 16.5211C81.4745 16.3541 81.409 16.1514 81.4112 15.9438V15.6966C81.4103 15.4643 81.495 15.2398 81.6493 15.066C81.8035 14.8923 82.0164 14.7816 82.2472 14.755C85.5843 14.3977 89.1146 13.4876 90.8517 13.0157C90.9758 12.9814 91.1056 12.973 91.2331 12.9911C91.3605 13.0092 91.4829 13.0534 91.5925 13.1208C91.7022 13.1883 91.7967 13.2776 91.8703 13.3833C91.9439 13.4889 91.9949 13.6086 92.0202 13.7348C92.0719 13.964 92.1236 14.2449 92.1865 14.5977C92.2124 14.7505 92.2754 14.8945 92.37 15.0172C92.4646 15.1399 92.5879 15.2375 92.729 15.3014C92.8702 15.3653 93.0248 15.3936 93.1794 15.3837C93.334 15.3739 93.4839 15.3262 93.6157 15.2449C95.5551 14.0022 97.4674 13.3528 99.8944 13.3528C105.874 13.3528 109.58 18.4921 109.58 23.9281C109.58 31.3887 104.292 36.5798 98.1169 36.5798C96.2225 36.5798 94.8427 36.0966 93.8876 35.582C93.7436 35.5029 93.5814 35.4627 93.4171 35.4652C93.2528 35.4677 93.0919 35.5128 92.9503 35.5962C92.8087 35.6796 92.6912 35.7983 92.6093 35.9408C92.5274 36.0833 92.4839 36.2446 92.4832 36.409V42.1123C92.4832 44.0247 92.6 45.4988 94.645 45.8449C94.8594 45.8875 95.0522 46.0039 95.1897 46.1738C95.3273 46.3438 95.4009 46.5566 95.3978 46.7753C95.3978 46.9017 95.3725 47.0269 95.3235 47.1434C95.2744 47.26 95.2026 47.3655 95.1121 47.4539C95.0217 47.5422 94.9145 47.6116 94.7968 47.6579C94.6791 47.7043 94.5534 47.7266 94.427 47.7236C91.9841 47.6559 89.5405 47.6147 87.0966 47.6C85.2382 47.6 84.036 47.6337 82.4539 47.7011C82.3261 47.7072 82.1983 47.6873 82.0783 47.6426C81.9583 47.598 81.8486 47.5295 81.7558 47.4413C81.663 47.3531 81.589 47.247 81.5382 47.1295C81.4875 47.0119 81.4611 46.8853 81.4607 46.7573V46.6337C81.4607 46.1753 81.7798 45.764 82.2337 45.6876C84.0719 45.373 84.2292 44.3618 84.2292 42.9528C84.2787 42.0135 84.2787 39.0989 84.2787 38.0112L84.2292 22ZM135.443 36.2831C133.436 36.1348 132.124 36.1348 126.867 36.1348C123.991 36.1348 122.843 36.1685 121.16 36.2876C120.873 36.3013 120.592 36.2052 120.373 36.0189C120.155 35.8325 120.016 35.57 119.984 35.2846C119.953 34.9993 120.031 34.7128 120.204 34.4833C120.376 34.2538 120.63 34.0986 120.912 34.0494C123.683 33.6607 123.802 32.6606 123.802 26.3977V10.6831C123.753 6.92807 123.706 5.79099 123.357 5.09885C122.984 4.22245 122.398 4.01571 120.888 3.76402C120.625 3.7204 120.387 3.58513 120.215 3.38227C120.043 3.17941 119.948 2.92212 119.948 2.65616C119.948 1.96402 120.47 1.4584 121.103 1.47638C123.881 1.55054 126.661 1.58874 129.436 1.58874C132.222 1.58874 134.009 1.52807 135.542 1.47638C135.839 1.45194 136.133 1.54653 136.361 1.73934C136.588 1.93214 136.73 2.20737 136.754 2.50447C136.778 2.80157 136.684 3.09621 136.491 3.32357C136.298 3.55094 136.023 3.69239 135.726 3.71683C132.798 4.08312 132.798 4.97076 132.798 11.5236L132.847 26.8427C132.946 32.0337 132.996 32.3303 133.589 33.1191C134.011 33.618 134.674 33.8809 135.69 34.018C135.957 34.0568 136.201 34.1907 136.378 34.3949C136.555 34.5992 136.652 34.8603 136.652 35.1303C136.655 35.2874 136.625 35.4434 136.565 35.5885C136.505 35.7335 136.415 35.8644 136.301 35.9728C136.187 36.0812 136.052 36.1648 135.904 36.2182C135.757 36.2717 135.599 36.2938 135.443 36.2831ZM137.011 35.209C137.011 34.7168 137.364 34.2989 137.845 34.218C138.591 34.0944 139.494 33.773 139.631 32.8247C139.78 31.6854 139.78 28.7213 139.78 27.9798C139.78 26.2494 139.73 23.4337 139.73 21.7033C139.73 19.2224 138.899 18.5415 137.73 18.2112C137.522 18.1503 137.339 18.0233 137.21 17.8494C137.08 17.6755 137.01 17.4641 137.011 17.2472V17.1303C137.011 16.6382 137.364 16.2247 137.849 16.1415C140.31 15.7101 144.029 14.6584 145.984 13.9842C146.11 13.9407 146.243 13.9226 146.376 13.931C146.509 13.9395 146.639 13.9744 146.758 14.0336C146.877 14.0928 146.984 14.1751 147.071 14.2759C147.158 14.3766 147.224 14.4936 147.265 14.6202C147.306 14.7505 147.344 14.8741 147.378 15.0022C147.42 15.15 147.496 15.2861 147.599 15.4C147.703 15.5138 147.831 15.6024 147.974 15.6588C148.117 15.7153 148.271 15.7381 148.425 15.7256C148.578 15.713 148.726 15.6654 148.858 15.5865C150.724 14.5033 152.492 13.6989 155.099 13.6989C156.975 13.6989 158.854 14.1932 160.387 15.2786C162.796 16.9505 163.2 19.5033 163.398 22.2067C163.402 22.2337 163.402 22.2607 163.402 22.2876V26.546C163.402 27.2876 163.303 31.1415 163.303 31.9842C163.303 33.2337 163.64 33.9955 165.276 34.2989C165.503 34.3454 165.706 34.4693 165.851 34.6494C165.995 34.8294 166.073 35.0543 166.07 35.2854C166.07 35.4229 166.042 35.5589 165.987 35.6851C165.933 35.8114 165.853 35.925 165.753 36.019C165.652 36.113 165.534 36.1854 165.404 36.2316C165.275 36.2778 165.137 36.2969 165 36.2876C163.602 36.1932 161.485 36.1326 158.013 36.1326C156.052 36.1326 154.973 36.1865 153.969 36.2741C153.83 36.2866 153.69 36.27 153.558 36.2255C153.425 36.1809 153.304 36.1093 153.201 36.0152C153.098 35.9211 153.016 35.8067 152.96 35.6791C152.903 35.5515 152.874 35.4136 152.874 35.2741V35.0629C152.874 34.6112 153.178 34.2112 153.616 34.0966C155.061 33.7056 155.24 33.0157 155.198 30.0067L155.099 22.2966C155.047 19.9258 154.951 17.2067 151.737 17.2067C150.4 17.2067 149.362 17.6966 148.364 18.4494C148.233 18.5462 148.127 18.673 148.056 18.8193C147.984 18.9656 147.949 19.127 147.953 19.2899C148.031 21.7663 148.031 28.7955 148.031 30.9932C148.031 33.2606 148.422 33.8876 149.631 34.2067C150.063 34.3191 150.355 34.7236 150.355 35.1708V35.3011C150.355 35.4385 150.327 35.5745 150.273 35.7006C150.219 35.8268 150.139 35.9404 150.039 36.0346C149.939 36.1287 149.821 36.2014 149.691 36.248C149.562 36.2946 149.425 36.3142 149.288 36.3056C147.609 36.2 145.452 36.1326 141.409 36.1326C139.854 36.1326 138.951 36.182 138.108 36.2629C137.969 36.2761 137.828 36.2599 137.695 36.2155C137.563 36.1711 137.441 36.0993 137.337 36.0049C137.234 35.9105 137.152 35.7955 137.095 35.6673C137.039 35.5391 137.011 35.4006 137.011 35.2607V35.209ZM188.42 30.9078C189.04 31.3573 189.126 32.2651 188.582 32.8045C185.857 35.5104 182.182 37.0428 178.342 37.0741C171.274 37.0741 166.085 32.1798 166.085 25.4584C166.085 18.3932 172.115 13.8472 179.479 13.8472C184.321 13.8472 188.917 15.9708 188.917 19.5303C188.917 21.209 187.485 22.6427 185.804 22.6427C185.063 22.6427 184.173 22.2966 183.629 21.7528C183.184 21.3573 183.085 21.1101 182.146 18.9865C181.701 18.0472 180.712 16.3663 179.182 16.3663C176.315 16.3663 175.524 21.2584 175.524 23.6809C175.524 29.2651 178.688 33.0202 182.146 33.0202C183.984 33.0202 185.506 32.1753 186.856 30.9887C187.069 30.7998 187.34 30.6888 187.624 30.6741C187.908 30.6594 188.189 30.7418 188.42 30.9078ZM195.245 28.1775C197.667 28.1775 199.739 30.1056 199.739 32.6741C199.739 35.1955 197.667 37.1236 195.294 37.1236C194.128 37.1356 193.004 36.6842 192.17 35.8686C191.336 35.0529 190.859 33.9396 190.845 32.773C190.845 29.7101 193.218 28.1775 195.245 28.1775Z" fill="white"/>
</svg>
