<svg width="250" height="52" viewBox="0 0 250 52" fill="none" xmlns="http://www.w3.org/2000/svg">
<path d="M100.84 38.8199C96.9138 38.8199 93.8469 36.6067 93.8469 32.4224C93.8469 27.844 97.5273 26.0854 101.545 26.0854H104.827C106.851 26.0854 107.771 25.2971 107.771 23.9023C107.771 22.0831 106.084 21.2038 103.906 21.2038C101.3 21.2038 99.6436 22.4469 99.4902 24.6603H94.6445C94.9509 20.3548 97.7727 17.5653 103.845 17.5653C109.918 17.5653 112.402 20.4761 112.402 24.5087V33.0896C112.402 34.0598 112.77 34.4236 113.752 34.4236H114.518V38.1834H111.359C109.151 38.1834 107.924 37.0917 107.924 35.212V34.454H107.863C106.575 37.4255 103.968 38.8199 100.84 38.8199ZM102.281 35.1209C105.041 35.1209 107.771 33.423 107.771 29.2691V27.4195H107.709C107.096 28.6627 105.9 29.2691 103.814 29.36L102.312 29.4207C99.8889 29.4813 98.846 30.6942 98.846 32.2709C98.846 33.8475 99.8889 35.1512 102.312 35.1512L102.281 35.1209Z" fill="white"/>
<path d="M117.677 32.7862V21.9618H113.782V18.202H117.677V12.7443H122.339V18.202H128.442V21.9618H122.339V32.1194C122.339 33.8172 123.228 34.4841 124.762 34.4841H128.534V38.2439H123.167C119.548 38.2439 117.647 36.4549 117.647 32.8166L117.677 32.7862Z" fill="white"/>
<path d="M129.667 28.2077C129.667 21.5675 133.838 17.5955 139.666 17.5955C145.493 17.5955 149.388 21.0217 149.388 27.4497V29.5115H134.605C134.759 32.9378 136.691 35.1816 139.788 35.1816C142.027 35.1816 143.714 33.9687 144.358 32.0583H149.142C148.253 36.0608 144.726 38.82 139.727 38.82C133.746 38.82 129.698 34.8175 129.698 28.2077H129.667ZM144.726 26.2066C144.726 23.2958 142.947 21.234 139.788 21.234C136.629 21.234 134.942 23.4171 134.636 26.2066H144.726Z" fill="white"/>
<path d="M152.578 18.2016H157.148V21.3549H157.21C158.16 19.3538 159.448 18.2016 162.147 18.2016H164.11V21.9614H161.319C158.528 21.9614 157.24 23.4471 157.24 26.7217V38.2132H152.609V18.2016H152.578Z" fill="white"/>
<path d="M165.214 31.5733H169.999C170.121 34.0899 171.716 35.1816 174.108 35.1816C176.5 35.1816 177.972 34.0292 177.972 32.2405C177.972 30.6637 176.991 29.7238 174.476 29.7238H172.268C168.036 29.7238 165.582 27.4194 165.582 24.0538C165.582 20.2334 168.71 17.5955 174.016 17.5955C179.322 17.5955 182.45 20.4457 182.573 24.6905H177.819C177.696 22.4468 176.47 21.234 173.985 21.234C171.777 21.234 170.428 22.2649 170.428 23.9022C170.428 25.3879 171.563 26.1156 173.433 26.1156H175.856C180.702 26.1156 182.91 28.8142 182.91 32.0887C182.91 36.0608 179.751 38.8503 174.108 38.8503C168.465 38.8503 165.306 36 165.183 31.6037L165.214 31.5733Z" fill="white"/>
<path d="M186.132 12.8047H190.763V17.9592C190.763 18.8688 190.763 19.5662 190.701 21.2642H190.763C191.836 19.0811 193.922 17.5954 196.835 17.5954C200.976 17.5954 203.828 20.4455 203.828 25.2968V38.2135H199.197V26.2064C199.197 22.6286 197.663 21.2642 195.363 21.2642C193.063 21.2642 190.763 22.7499 190.763 26.7522V38.2135H186.132V12.8047Z" fill="white"/>
<path d="M206.986 28.2077C206.986 21.5675 211.126 17.5955 216.984 17.5955C222.842 17.5955 226.706 21.0217 226.706 27.4497V29.5115H211.924C212.077 32.9378 214.009 35.1816 217.107 35.1816C219.345 35.1816 221.033 33.9687 221.676 32.0583H226.461C225.571 36.0608 222.044 38.82 217.045 38.82C211.034 38.82 207.016 34.8175 207.016 28.2077H206.986ZM222.044 26.2066C222.044 23.2958 220.266 21.234 217.107 21.234C213.948 21.234 212.261 23.4171 211.954 26.2066H222.044Z" fill="white"/>
<path d="M229.007 28.2076C229.007 21.2642 233.3 17.5954 238.024 17.5954C241.121 17.5954 243.575 19.172 244.802 21.719H244.863C244.802 21.0216 244.802 20.4152 244.802 19.6875V12.8047H249.433V38.2135H244.832V36.8794C244.832 36.1515 244.832 35.4847 244.863 34.7264H244.802C243.575 37.2733 241.121 38.85 238.024 38.85C233.3 38.85 229.007 35.1813 229.007 28.2379V28.2076ZM239.404 35.1813C242.777 35.1813 244.802 32.4221 244.802 28.2076C244.802 23.993 242.777 21.2338 239.404 21.2338C236.03 21.2338 233.975 23.993 233.975 28.2076C233.975 32.4221 235.999 35.1813 239.404 35.1813Z" fill="white"/>
<path fill-rule="evenodd" clip-rule="evenodd" d="M76.908 28.6812L81.1804 38.0316H84.9834L96.5764 12.5926H91.2399L83.1126 31.543H83.0206L74.9546 12.5926H69.5568L74.6157 23.6643L70.7835 32.5739H70.7221L62.6255 12.5926H57.2583L68.8819 38.0316H72.6543L76.908 28.6812Z" fill="white"/>
<path fill-rule="evenodd" clip-rule="evenodd" d="M4.60624 23.6457C4.54557 24.2918 4.51456 24.9464 4.51456 25.6083C4.51456 33.8537 9.32778 40.9789 16.3069 44.3442C16.0193 43.8611 15.7483 43.3623 15.4941 42.8525C13.2429 38.3381 11.9135 32.2549 11.9135 25.655C11.9135 23.5724 12.0459 21.5413 12.2978 19.5946C10.4018 19.5361 9.13017 19.9146 8.21701 20.3866C7.01284 21.0091 6.27158 21.8255 5.37827 22.8094C5.13618 23.076 4.88293 23.355 4.60624 23.6457ZM6.74876 16.2344C8.46361 15.4674 10.5252 15.0796 13.0892 15.2524C13.6884 12.7426 14.5016 10.4476 15.4941 8.45742C15.7713 7.90137 16.0686 7.35864 16.3855 6.83481C12.2249 8.81953 8.82701 12.1379 6.74876 16.2344ZM23.1884 5.68199C21.9226 6.50846 20.6118 8.02671 19.4251 10.4063C18.6285 12.0039 17.9487 13.8858 17.4289 15.9832C19.7893 16.6186 21.6533 17.6686 23.1884 18.9275V5.68199ZM23.1883 25.3768C21.4833 23.0337 19.6195 21.2074 16.6322 20.3083C16.4187 22.0094 16.3037 23.8003 16.3037 25.655C16.3037 31.7261 17.5355 37.1144 19.4251 40.9037C20.6117 43.2832 21.9225 44.8016 23.1883 45.6279L23.1883 25.3768ZM27.5785 45.8298L27.5785 31.8016C29.0442 33.6611 30.8519 35.416 33.3276 36.5997C32.8644 38.1905 32.3058 39.6365 31.6739 40.9037C30.3832 43.4924 28.9454 45.0617 27.5785 45.8298ZM34.3052 32.1546C31.9473 30.7065 30.4509 28.4037 28.6272 25.5974C28.4825 25.3748 28.3359 25.1492 28.1865 24.9205C27.9885 24.6172 27.7864 24.3104 27.5785 24.0019L27.5785 5.48021C28.9455 6.24849 30.3832 7.81778 31.6739 10.4063C33.5635 14.1957 34.7954 19.5839 34.7954 25.655C34.7954 27.9339 34.6218 30.1165 34.3052 32.1546ZM38.492 33.7356C38.9439 31.1905 39.1856 28.4697 39.1856 25.655C39.1856 19.0551 37.8561 12.9718 35.6052 8.45742C35.3684 7.98297 35.1172 7.51821 34.8519 7.06662C41.6187 10.5065 46.2522 17.5183 46.2522 25.6083C46.2522 27.2416 46.0635 28.8309 45.7061 30.3557C45.6473 30.341 45.6476 30.3406 45.6476 30.3402L45.6482 30.3377L45.6491 30.3333L45.6509 30.3265L45.6525 30.3209C45.6525 30.3208 45.6506 30.3276 45.6466 30.3408C45.639 30.3671 45.6233 30.4182 45.5988 30.4895C45.5485 30.6331 45.4635 30.8522 45.3335 31.1117C45.0696 31.639 44.6497 32.2773 44.0193 32.8089C43.1466 33.5448 41.5224 34.3697 38.492 33.7356ZM37.4923 37.9954C36.9696 39.7559 36.3359 41.3868 35.6052 42.8525C35.3917 43.2807 35.1663 43.7006 34.9295 44.1105C37.6859 42.6945 40.0853 40.6847 41.9571 38.2503C40.642 38.4141 39.1577 38.3522 37.4923 37.9954ZM25.7688 50.7838C39.5405 50.5786 50.6423 39.3862 50.6423 25.6083C50.6423 11.7021 39.3328 0.429993 25.3834 0.429993C11.4339 0.429993 0.12439 11.7021 0.12439 25.6083C0.12439 39.5144 11.4339 50.7865 25.3834 50.7865C25.4182 50.7865 25.453 50.7865 25.4877 50.7865C25.5083 50.7865 25.5289 50.7868 25.5496 50.7868C25.6229 50.7868 25.696 50.7856 25.7688 50.7838Z" fill="white"/>
</svg>
