<?xml version="1.0" encoding="UTF-8"?>
<svg width="145px" height="33px" viewBox="0 0 145 33" version="1.1" xmlns="http://www.w3.org/2000/svg" xmlns:xlink="http://www.w3.org/1999/xlink">
    <!-- Generator: Sketch 63.1 (92452) - https://sketch.com -->
    <title>logo / website / wide dark</title>
    <desc>Created with Sketch.</desc>
    <defs>
        <linearGradient x1="0%" y1="100%" x2="0%" y2="0%" id="linearGradient-1">
            <stop stop-color="#40C4FF" offset="0%"></stop>
            <stop stop-color="#2979FF" offset="100%"></stop>
        </linearGradient>
        <linearGradient x1="15.2430461%" y1="100%" x2="84.7569539%" y2="50%" id="linearGradient-2">
            <stop stop-color="#40C4FF" offset="0%"></stop>
            <stop stop-color="#80D8FF" offset="100%"></stop>
        </linearGradient>
        <linearGradient x1="0%" y1="0%" x2="0%" y2="100%" id="linearGradient-3">
            <stop stop-color="#2979FF" offset="0%"></stop>
            <stop stop-color="#304FFE" offset="100%"></stop>
        </linearGradient>
        <linearGradient x1="100%" y1="100%" x2="100%" y2="0%" id="linearGradient-4">
            <stop stop-color="#2979FF" offset="0%"></stop>
            <stop stop-color="#304FFE" offset="100%"></stop>
        </linearGradient>
        <linearGradient x1="100%" y1="100%" x2="100%" y2="0%" id="linearGradient-5">
            <stop stop-color="#2979FF" offset="0%"></stop>
            <stop stop-color="#40C4FF" offset="100%"></stop>
        </linearGradient>
        <linearGradient x1="84.7561389%" y1="100%" x2="15.2438611%" y2="50%" id="linearGradient-6">
            <stop stop-color="#2979FF" offset="0%"></stop>
            <stop stop-color="#40C4FF" offset="100%"></stop>
        </linearGradient>
    </defs>
    <g id="logo-/-website-/-wide-dark" stroke="none" stroke-width="1" fill="none" fill-rule="evenodd">
        <g id="Group-9-Copy-6">
            <polygon id="Path-13" fill="#40C4FF" points="25 9 30 6 30 18 25 21"></polygon>
            <polygon id="Path-13" fill="#80D8FF" points="25 9 30 6 20 0 15 3"></polygon>
            <polygon id="Path-13" fill="#304FFE" points="15 33 15 27 5 21 5 27"></polygon>
            <polygon id="Path-13" fill="#40C4FF" points="15 33 15 27 25 21 25 27"></polygon>
            <polygon id="Path-13" fill="url(#linearGradient-1)" points="21.6700001 7 15 11 15 3"></polygon>
            <polygon id="Path-13" fill="url(#linearGradient-2)" points="11.6700001 17 5 21 5 13"></polygon>
            <polygon id="Path-13" fill="url(#linearGradient-3)" points="25 21 18.3300781 25 18.3300781 17"></polygon>
            <polygon id="Path-13" fill="url(#linearGradient-4)" points="8.33007812 7 15 11 15 3"></polygon>
            <polygon id="Path-13" fill="url(#linearGradient-5)" points="5 21 11.6700001 25 11.6700001 17"></polygon>
            <polygon id="Path-13" fill="url(#linearGradient-6)" points="18.3300781 17 25 21 25 13"></polygon>
            <polygon id="Path-13" fill="#80D8FF" points="5 9 0 6 10 0 15 3"></polygon>
            <polygon id="Path-13" fill="#304FFE" points="5 9 0 6 0 18 5 21"></polygon>
            <path d="M41.6913227,21.7632712 L41.6913227,16.9497848 L38,11.2367288 L40.4823742,11.2367288 L42.787436,14.8981349 L45.0924977,11.2367288 L47.5748719,11.2367288 L43.7868334,16.9497848 L43.7868334,21.7632712 L41.6913227,21.7632712 Z M55.4612459,11 C58.8486787,11 61.2037511,13.3041607 61.2037511,16.507891 C61.2037511,19.7116212 58.8486787,22 55.4612459,22 C52.073813,22 49.7187406,19.7116212 49.7187406,16.507891 C49.7187406,13.3041607 52.073813,11 55.4612459,11 Z M55.4410967,20.1377331 C57.5649251,20.1377331 59.0679422,18.6384505 59.0679422,16.507891 C59.0679422,14.3773314 57.5649251,12.8622669 55.4410967,12.8622669 C53.3172683,12.8622669 51.8142513,14.3773314 51.8142513,16.507891 C51.8142513,18.6384505 53.3172683,20.1377331 55.4410967,20.1377331 Z M65.032088,11.2367288 L67.0845938,11.2367288 L67.0845938,17.8493544 C67.0845938,18.6542324 67.3529984,19.143472 67.589826,19.4117647 C67.8898076,19.7747489 68.4424053,20.1377331 69.2634077,20.1377331 C70.08441,20.1377331 70.6370077,19.7747489 70.9369893,19.4117647 C71.1738169,19.143472 71.4422215,18.6542324 71.4422215,17.8493544 L71.4422215,11.2367288 L73.4947273,11.2367288 L73.4947273,17.6757532 C73.4947273,18.6700143 73.3368423,19.6800574 72.705302,20.4849354 C71.9474537,21.4791966 70.6212192,22 69.2634077,22 C67.9055961,22 66.5793616,21.4791966 65.8215133,20.4849354 C65.189973,19.6800574 65.032088,18.6700143 65.032088,17.6757532 L65.032088,11.2367288 Z M80.0230491,11.2367288 L80.0230491,15.3084648 L84.6976499,15.3084648 L84.6976499,11.2367288 L86.7931606,11.2367288 L86.7931606,21.7632712 L84.6976499,21.7632712 L84.6976499,17.0760402 L80.0230491,17.0760402 L80.0230491,21.7632712 L77.9275384,21.7632712 L77.9275384,11.2367288 L80.0230491,11.2367288 Z M96.1625113,11 C99.5499442,11 101.905017,13.3041607 101.905017,16.507891 C101.905017,19.7116212 99.5499442,22 96.1625113,22 C92.7750784,22 90.420006,19.7116212 90.420006,16.507891 C90.420006,13.3041607 92.7750784,11 96.1625113,11 Z M96.1826604,20.1377331 C98.3064888,20.1377331 99.8095059,18.6384505 99.8095059,16.507891 C99.8095059,14.3773314 98.3064888,12.8622669 96.1826604,12.8622669 C94.058832,12.8622669 92.555815,14.3773314 92.555815,16.507891 C92.555815,18.6384505 94.058832,20.1377331 96.1826604,20.1377331 Z M105.330371,11.2367288 L108.135131,11.2367288 C109.634227,11.2367288 110.939892,11.3945481 112.132721,12.2625538 C113.438385,13.2252511 114.195993,14.7560976 114.195993,16.507891 C114.195993,18.2596844 113.454504,19.7747489 112.036005,20.7532281 C110.778698,21.6212339 109.601989,21.7632712 108.102892,21.7632712 L105.330371,21.7632712 L105.330371,11.2367288 Z M107.425881,13.0043042 L107.425881,19.9956958 L108.070654,19.9956958 C108.602591,19.9956958 109.763182,19.964132 110.698102,19.3012912 C111.552425,18.7015782 112.036005,17.6284075 112.036005,16.507891 C112.036005,15.4031564 111.568545,14.3299857 110.714221,13.6987088 C109.843778,13.0674319 108.779904,13.0043042 108.070654,13.0043042 L107.425881,13.0043042 Z M118.225821,11.2367288 L120.321332,11.2367288 L120.321332,19.9956958 L123.867581,19.9956958 L123.867581,21.7632712 L118.225821,21.7632712 L118.225821,11.2367288 Z M133.136186,11.2367288 L133.136186,13.0043042 L129.186954,13.0043042 L129.186954,15.3558106 L132.934694,15.3558106 L132.934694,17.1233859 L129.186954,17.1233859 L129.186954,19.9956958 L133.136186,19.9956958 L133.136186,21.7632712 L127.091443,21.7632712 L127.091443,11.2367288 L133.136186,11.2367288 Z M137.166014,11.2367288 L140.277041,11.2367288 C141.760018,11.2367288 142.517626,11.615495 143.017324,12.025825 C143.839409,12.7044476 144.081199,13.6040172 144.081199,14.3931133 C144.081199,15.4189383 143.662097,16.3185079 142.823893,16.8708752 C142.549864,17.0602582 142.163001,17.2338594 141.647183,17.3285509 L145,21.7632712 L142.388671,21.7632712 L139.519434,17.5337159 L139.261525,17.5337159 L139.261525,21.7632712 L137.166014,21.7632712 L137.166014,11.2367288 Z M139.180928,12.9096126 L139.180928,16.0817791 L139.813489,16.0817791 C140.240895,16.0817791 142.001808,16.0344333 142.001808,14.4878049 C142.001808,12.9253945 140.257991,12.9096126 139.847681,12.9096126 L139.180928,12.9096126 Z" id="YOUHODLER-Copy" fill="white" fill-rule="nonzero"></path>
        </g>
    </g>
</svg>