<svg width="1440" height="830" viewBox="0 0 1440 830" fill="none" xmlns="http://www.w3.org/2000/svg">
<g opacity="0.25" clip-path="url(#clip0_214_3618)">
<g filter="url(#filter0_f_214_3618)">
<ellipse cx="110" cy="713" rx="491" ry="211" fill="url(#paint0_linear_214_3618)"/>
</g>
<g filter="url(#filter1_f_214_3618)">
<ellipse cx="-22" cy="566" rx="148" ry="450" fill="url(#paint1_linear_214_3618)"/>
</g>
</g>
<g opacity="0.25" clip-path="url(#clip1_214_3618)">
<g filter="url(#filter2_f_214_3618)">
<ellipse rx="491" ry="211" transform="matrix(-1 -8.74228e-08 -8.74228e-08 1 1330 713)" fill="url(#paint2_linear_214_3618)"/>
</g>
<g filter="url(#filter3_f_214_3618)">
<ellipse rx="148" ry="450" transform="matrix(-1 -8.74228e-08 -8.74228e-08 1 1462 566)" fill="url(#paint3_linear_214_3618)"/>
</g>
</g>
<g style="mix-blend-mode:overlay">
<line y1="-1" x2="911.35" y2="-1" transform="matrix(0.54548 0.835827 -0.901598 0.436792 713.866 159.635)" stroke="url(#paint4_linear_214_3618)" stroke-width="2"/>
</g>
<g style="mix-blend-mode:overlay">
<line y1="-1" x2="911.35" y2="-1" transform="matrix(0.54548 0.835827 -0.901598 0.436792 713.866 159.635)" stroke="url(#paint5_linear_214_3618)" stroke-width="2"/>
</g>
<g opacity="0.5">
<g style="mix-blend-mode:overlay">
<line y1="-1" x2="908.272" y2="-1" transform="matrix(0.779416 0.628831 -0.720864 0.691066 765.719 198.078)" stroke="url(#paint6_linear_214_3618)" stroke-width="2"/>
</g>
<g style="mix-blend-mode:overlay">
<line y1="-1" x2="908.272" y2="-1" transform="matrix(0.779416 0.628831 -0.720864 0.691066 765.719 198.078)" stroke="url(#paint7_linear_214_3618)" stroke-width="2"/>
</g>
</g>
<g style="mix-blend-mode:overlay">
<line y1="-1" x2="909.596" y2="-1" transform="matrix(-0.686959 0.726696 0.80779 0.589471 720.855 169)" stroke="url(#paint8_linear_214_3618)" stroke-width="2"/>
</g>
<g style="mix-blend-mode:overlay">
<line y1="-1" x2="909.596" y2="-1" transform="matrix(-0.686959 0.726696 0.80779 0.589471 720.855 169)" stroke="url(#paint9_linear_214_3618)" stroke-width="2"/>
</g>
<g opacity="0.25">
<g style="mix-blend-mode:overlay">
<line y1="-1" x2="907.136" y2="-1" transform="matrix(-0.852473 0.527939 0.629714 0.773488 708.31 176.04)" stroke="url(#paint10_linear_214_3618)" stroke-width="2"/>
</g>
<g style="mix-blend-mode:overlay">
<line y1="-1" x2="907.136" y2="-1" transform="matrix(-0.852473 0.527939 0.629714 0.773488 708.31 176.04)" stroke="url(#paint11_linear_214_3618)" stroke-width="2"/>
</g>
</g>
<g opacity="0.5">
<g style="mix-blend-mode:overlay">
<line y1="-1" x2="912.856" y2="-1" transform="matrix(-0.391185 0.91643 0.965555 0.27294 785.642 13.9999)" stroke="url(#paint12_linear_214_3618)" stroke-width="2"/>
</g>
<g style="mix-blend-mode:overlay">
<line y1="-1" x2="912.856" y2="-1" transform="matrix(-0.391185 0.91643 0.965555 0.27294 785.642 13.9999)" stroke="url(#paint13_linear_214_3618)" stroke-width="2"/>
</g>
</g>
<g style="mix-blend-mode:overlay" opacity="0.75" filter="url(#filter4_f_214_3618)">
<ellipse cx="210" cy="828.5" rx="410" ry="127.5" fill="url(#paint14_linear_214_3618)"/>
</g>
<g style="mix-blend-mode:overlay" opacity="0.75" filter="url(#filter5_f_214_3618)">
<ellipse cx="1230" cy="828.5" rx="410" ry="127.5" fill="url(#paint15_linear_214_3618)"/>
</g>
<g style="mix-blend-mode:overlay" opacity="0.5">
<mask id="mask0_214_3618" style="mask-type:alpha" maskUnits="userSpaceOnUse" x="0" y="510" width="1439" height="320">
<rect y="510" width="1439" height="320" fill="url(#paint16_linear_214_3618)"/>
</mask>
<g mask="url(#mask0_214_3618)">
<line y1="703.5" x2="1440" y2="703.5" stroke="white"/>
<line y1="650.5" x2="1440" y2="650.5" stroke="white"/>
<line y1="603.5" x2="1440" y2="603.5" stroke="white"/>
<line y1="566.5" x2="1440" y2="566.5" stroke="white"/>
<line y1="541.5" x2="1440" y2="541.5" stroke="white"/>
<line y1="524.5" x2="1440" y2="524.5" stroke="white"/>
<line y1="515.5" x2="1440" y2="515.5" stroke="white"/>
<line y1="510.5" x2="1440" y2="510.5" stroke="white"/>
<line y1="764.5" x2="1440" y2="764.5" stroke="white"/>
<line x1="720.498" y1="168.959" x2="774.498" y2="829.959" stroke="white"/>
<line x1="720.485" y1="168.88" x2="884.485" y2="829.88" stroke="white"/>
<line x1="720.459" y1="168.802" x2="1005.46" y2="829.802" stroke="white"/>
<line y1="-0.5" x2="789.302" y2="-0.5" transform="matrix(0.546516 0.837449 -0.893077 0.449904 720 169)" stroke="white"/>
<line y1="-0.5" x2="909.596" y2="-0.5" transform="matrix(0.686959 0.726696 -0.80779 0.589471 720 169)" stroke="white"/>
<line x1="720.31" y1="168.608" x2="1440.31" y2="738.608" stroke="white"/>
<line x1="720.262" y1="168.574" x2="1440.26" y2="611.574" stroke="white"/>
<line x1="720.225" y1="168.553" x2="1440.22" y2="530.553" stroke="white"/>
<line x1="720.498" y1="169.041" x2="666.498" y2="830.041" stroke="white"/>
<line x1="720.485" y1="169.12" x2="556.485" y2="830.12" stroke="white"/>
<line x1="720.459" y1="169.198" x2="435.459" y2="830.198" stroke="white"/>
<line y1="-0.5" x2="789.302" y2="-0.5" transform="matrix(-0.546516 0.837449 0.893077 0.449904 720 169)" stroke="white"/>
<line y1="-0.5" x2="909.596" y2="-0.5" transform="matrix(-0.686959 0.726696 0.80779 0.589471 720 169)" stroke="white"/>
<line x1="720.31" y1="169.392" x2="0.310315" y2="739.392" stroke="white"/>
<line x1="720.262" y1="169.426" x2="0.262019" y2="612.426" stroke="white"/>
<line y1="-0.5" x2="805.881" y2="-0.5" transform="matrix(-0.893432 0.449198 0.449198 0.893432 720 169)" stroke="white"/>
</g>
</g>
<defs>
<filter id="filter0_f_214_3618" x="-631" y="252" width="1482" height="922" filterUnits="userSpaceOnUse" color-interpolation-filters="sRGB">
<feFlood flood-opacity="0" result="BackgroundImageFix"/>
<feBlend mode="normal" in="SourceGraphic" in2="BackgroundImageFix" result="shape"/>
<feGaussianBlur stdDeviation="125" result="effect1_foregroundBlur_214_3618"/>
</filter>
<filter id="filter1_f_214_3618" x="-420" y="-134" width="796" height="1400" filterUnits="userSpaceOnUse" color-interpolation-filters="sRGB">
<feFlood flood-opacity="0" result="BackgroundImageFix"/>
<feBlend mode="normal" in="SourceGraphic" in2="BackgroundImageFix" result="shape"/>
<feGaussianBlur stdDeviation="125" result="effect1_foregroundBlur_214_3618"/>
</filter>
<filter id="filter2_f_214_3618" x="589" y="252" width="1482" height="922" filterUnits="userSpaceOnUse" color-interpolation-filters="sRGB">
<feFlood flood-opacity="0" result="BackgroundImageFix"/>
<feBlend mode="normal" in="SourceGraphic" in2="BackgroundImageFix" result="shape"/>
<feGaussianBlur stdDeviation="125" result="effect1_foregroundBlur_214_3618"/>
</filter>
<filter id="filter3_f_214_3618" x="1064" y="-134" width="796" height="1400" filterUnits="userSpaceOnUse" color-interpolation-filters="sRGB">
<feFlood flood-opacity="0" result="BackgroundImageFix"/>
<feBlend mode="normal" in="SourceGraphic" in2="BackgroundImageFix" result="shape"/>
<feGaussianBlur stdDeviation="125" result="effect1_foregroundBlur_214_3618"/>
</filter>
<filter id="filter4_f_214_3618" x="-350" y="551" width="1120" height="555" filterUnits="userSpaceOnUse" color-interpolation-filters="sRGB">
<feFlood flood-opacity="0" result="BackgroundImageFix"/>
<feBlend mode="normal" in="SourceGraphic" in2="BackgroundImageFix" result="shape"/>
<feGaussianBlur stdDeviation="75" result="effect1_foregroundBlur_214_3618"/>
</filter>
<filter id="filter5_f_214_3618" x="670" y="551" width="1120" height="555" filterUnits="userSpaceOnUse" color-interpolation-filters="sRGB">
<feFlood flood-opacity="0" result="BackgroundImageFix"/>
<feBlend mode="normal" in="SourceGraphic" in2="BackgroundImageFix" result="shape"/>
<feGaussianBlur stdDeviation="75" result="effect1_foregroundBlur_214_3618"/>
</filter>
<linearGradient id="paint0_linear_214_3618" x1="110" y1="502" x2="110" y2="924" gradientUnits="userSpaceOnUse">
<stop stop-color="#77B8FF"/>
<stop offset="1" stop-color="#77B8FF" stop-opacity="0.4"/>
</linearGradient>
<linearGradient id="paint1_linear_214_3618" x1="-22" y1="116" x2="-22" y2="1016" gradientUnits="userSpaceOnUse">
<stop stop-color="#77B8FF"/>
<stop offset="1" stop-color="#77B8FF" stop-opacity="0.4"/>
</linearGradient>
<linearGradient id="paint2_linear_214_3618" x1="491" y1="0" x2="491" y2="422" gradientUnits="userSpaceOnUse">
<stop stop-color="#EC97CF"/>
<stop offset="1" stop-color="#EC97CF" stop-opacity="0.4"/>
</linearGradient>
<linearGradient id="paint3_linear_214_3618" x1="148" y1="0" x2="148" y2="900" gradientUnits="userSpaceOnUse">
<stop stop-color="#EC97CF"/>
<stop offset="1" stop-color="#EC97CF" stop-opacity="0.4"/>
</linearGradient>
<linearGradient id="paint4_linear_214_3618" x1="565.867" y1="-6.65479" x2="781.362" y2="-57.6142" gradientUnits="userSpaceOnUse">
<stop stop-color="white" stop-opacity="0"/>
<stop offset="0.494792" stop-color="white"/>
<stop offset="1" stop-color="white" stop-opacity="0"/>
</linearGradient>
<linearGradient id="paint5_linear_214_3618" x1="565.867" y1="-6.65479" x2="781.362" y2="-57.6142" gradientUnits="userSpaceOnUse">
<stop stop-color="white" stop-opacity="0"/>
<stop offset="0.494792" stop-color="white"/>
<stop offset="1" stop-color="white" stop-opacity="0"/>
</linearGradient>
<linearGradient id="paint6_linear_214_3618" x1="563.956" y1="-6.65479" x2="778.8" y2="-57.2887" gradientUnits="userSpaceOnUse">
<stop stop-color="white" stop-opacity="0"/>
<stop offset="0.494792" stop-color="white"/>
<stop offset="1" stop-color="white" stop-opacity="0"/>
</linearGradient>
<linearGradient id="paint7_linear_214_3618" x1="563.956" y1="-6.65479" x2="778.8" y2="-57.2887" gradientUnits="userSpaceOnUse">
<stop stop-color="white" stop-opacity="0"/>
<stop offset="0.494792" stop-color="white"/>
<stop offset="1" stop-color="white" stop-opacity="0"/>
</linearGradient>
<linearGradient id="paint8_linear_214_3618" x1="564.778" y1="-6.65479" x2="779.902" y2="-57.4286" gradientUnits="userSpaceOnUse">
<stop stop-color="white" stop-opacity="0"/>
<stop offset="0.494792" stop-color="white"/>
<stop offset="1" stop-color="white" stop-opacity="0"/>
</linearGradient>
<linearGradient id="paint9_linear_214_3618" x1="564.778" y1="-6.65479" x2="779.902" y2="-57.4286" gradientUnits="userSpaceOnUse">
<stop stop-color="white" stop-opacity="0"/>
<stop offset="0.494792" stop-color="white"/>
<stop offset="1" stop-color="white" stop-opacity="0"/>
</linearGradient>
<linearGradient id="paint10_linear_214_3618" x1="563.251" y1="-6.65479" x2="777.854" y2="-57.1688" gradientUnits="userSpaceOnUse">
<stop stop-color="white" stop-opacity="0"/>
<stop offset="0.494792" stop-color="white"/>
<stop offset="1" stop-color="white" stop-opacity="0"/>
</linearGradient>
<linearGradient id="paint11_linear_214_3618" x1="563.251" y1="-6.65479" x2="777.854" y2="-57.1688" gradientUnits="userSpaceOnUse">
<stop stop-color="white" stop-opacity="0"/>
<stop offset="0.494792" stop-color="white"/>
<stop offset="1" stop-color="white" stop-opacity="0"/>
</linearGradient>
<linearGradient id="paint12_linear_214_3618" x1="566.803" y1="-6.65479" x2="782.615" y2="-57.7739" gradientUnits="userSpaceOnUse">
<stop stop-color="white" stop-opacity="0"/>
<stop offset="0.494792" stop-color="white"/>
<stop offset="1" stop-color="white" stop-opacity="0"/>
</linearGradient>
<linearGradient id="paint13_linear_214_3618" x1="566.803" y1="-6.65479" x2="782.615" y2="-57.7739" gradientUnits="userSpaceOnUse">
<stop stop-color="white" stop-opacity="0"/>
<stop offset="0.494792" stop-color="white"/>
<stop offset="1" stop-color="white" stop-opacity="0"/>
</linearGradient>
<linearGradient id="paint14_linear_214_3618" x1="210" y1="701" x2="210" y2="956" gradientUnits="userSpaceOnUse">
<stop stop-color="#58A5FF"/>
<stop offset="1" stop-color="#A67AF4"/>
</linearGradient>
<linearGradient id="paint15_linear_214_3618" x1="1230" y1="701" x2="1230" y2="956" gradientUnits="userSpaceOnUse">
<stop stop-color="#FF3358"/>
<stop offset="1" stop-color="#FF4FD8"/>
</linearGradient>
<linearGradient id="paint16_linear_214_3618" x1="719.5" y1="510" x2="719.5" y2="830" gradientUnits="userSpaceOnUse">
<stop stop-opacity="0"/>
<stop offset="0.203125"/>
</linearGradient>
<clipPath id="clip0_214_3618">
<rect width="720" height="830" fill="white"/>
</clipPath>
<clipPath id="clip1_214_3618">
<rect width="720" height="830" fill="white" transform="matrix(-1 -8.74228e-08 -8.74228e-08 1 1440 6.10352e-05)"/>
</clipPath>
</defs>
</svg>
