<svg width="1440" height="320" viewBox="0 0 1440 320" fill="none" xmlns="http://www.w3.org/2000/svg">
<g style="mix-blend-mode:overlay" opacity="0.5">
<mask id="mask0_214_3646" style="mask-type:alpha" maskUnits="userSpaceOnUse" x="0" y="0" width="1439" height="320">
<rect width="1439" height="320" fill="url(#paint0_linear_214_3646)"/>
</mask>
<g mask="url(#mask0_214_3646)">
<line y1="193.5" x2="1440" y2="193.5" stroke="white"/>
<line y1="140.5" x2="1440" y2="140.5" stroke="white"/>
<line y1="93.5" x2="1440" y2="93.5" stroke="white"/>
<line y1="56.5" x2="1440" y2="56.5" stroke="white"/>
<line y1="31.5" x2="1440" y2="31.5" stroke="white"/>
<line y1="14.5" x2="1440" y2="14.5" stroke="white"/>
<line y1="5.5" x2="1440" y2="5.5" stroke="white"/>
<line y1="0.5" x2="1440" y2="0.5" stroke="white"/>
<line y1="254.5" x2="1440" y2="254.5" stroke="white"/>
<line x1="720.498" y1="-341.041" x2="774.498" y2="319.959" stroke="white"/>
<line x1="720.485" y1="-341.12" x2="884.485" y2="319.88" stroke="white"/>
<line x1="720.459" y1="-341.198" x2="1005.46" y2="319.802" stroke="white"/>
<line y1="-0.5" x2="789.302" y2="-0.5" transform="matrix(0.546516 0.837449 -0.893077 0.449904 720 -341)" stroke="white"/>
<line y1="-0.5" x2="909.596" y2="-0.5" transform="matrix(0.686959 0.726696 -0.80779 0.589471 720 -341)" stroke="white"/>
<line x1="720.31" y1="-341.392" x2="1440.31" y2="228.608" stroke="white"/>
<line x1="720.262" y1="-341.426" x2="1440.26" y2="101.574" stroke="white"/>
<line x1="720.225" y1="-341.447" x2="1440.22" y2="20.5533" stroke="white"/>
<line x1="720.498" y1="-340.959" x2="666.498" y2="320.041" stroke="white"/>
<line x1="720.485" y1="-340.88" x2="556.485" y2="320.12" stroke="white"/>
<line x1="720.459" y1="-340.802" x2="435.459" y2="320.198" stroke="white"/>
<line y1="-0.5" x2="789.302" y2="-0.5" transform="matrix(-0.546516 0.837449 0.893077 0.449904 720 -341)" stroke="white"/>
<line y1="-0.5" x2="909.596" y2="-0.5" transform="matrix(-0.686959 0.726696 0.80779 0.589471 720 -341)" stroke="white"/>
<line x1="720.31" y1="-340.608" x2="0.310315" y2="229.392" stroke="white"/>
<line x1="720.262" y1="-340.574" x2="0.262019" y2="102.426" stroke="white"/>
<line y1="-0.5" x2="805.881" y2="-0.5" transform="matrix(-0.893432 0.449198 0.449198 0.893432 720 -341)" stroke="white"/>
</g>
</g>
<defs>
<linearGradient id="paint0_linear_214_3646" x1="719.5" y1="0" x2="719.5" y2="320" gradientUnits="userSpaceOnUse">
<stop stop-opacity="0"/>
<stop offset="0.203125"/>
</linearGradient>
</defs>
</svg>
