<svg width="176" height="56" viewBox="0 0 176 56" fill="none" xmlns="http://www.w3.org/2000/svg">
<g clip-path="url(#clip0_1062_1118)">
<path d="M24.4777 15.9473C24.2786 15.9024 24.0952 15.8046 23.947 15.6643C23.7987 15.524 23.691 15.3463 23.6352 15.15C23.5292 14.7303 23.5292 14.2908 23.6352 13.8712C24.0263 11.6897 24.3874 9.50068 24.8914 7.34177C25.2438 5.56697 25.9443 3.87959 26.9525 2.37705C27.7151 1.28419 28.8308 0.487276 30.1119 0.120355C32.3084 -0.428775 33.2186 1.71507 32.4589 3.53548C31.812 5.03994 30.2624 5.85236 29.119 6.95062C27.0278 8.96661 26.3733 12.3742 25.7715 15.0898C25.7447 15.232 25.6896 15.3673 25.6096 15.4879C25.5295 15.6084 25.4262 15.7117 25.3056 15.7916C25.185 15.8715 25.0496 15.9265 24.9074 15.9532C24.7652 15.98 24.6191 15.978 24.4777 15.9473Z" fill="url(#paint0_linear_1062_1118)"/>
<path d="M20.4308 13.1641C19.645 13.1763 18.8688 12.99 18.1742 12.6225C17.5122 12.2389 16.6321 11.5618 15.8046 11.8703C14.9772 12.1787 14.5484 13.4424 13.8488 14.0593C12.8118 14.8262 11.7064 15.496 10.5465 16.0602C9.58073 16.6286 8.658 17.2672 7.78581 17.9709C3.9255 21.1148 1.2892 25.5123 0.335334 30.3987C-0.618532 35.2851 0.170371 40.3512 2.56488 44.7161C4.95938 49.0811 8.80801 52.4687 13.4415 54.29C18.075 56.1113 23.2003 56.2509 27.9261 54.6847C32.652 53.1185 36.6794 49.9455 39.3081 45.7175C41.9368 41.4894 43.0004 36.4738 42.3141 31.5427C41.6278 26.6116 39.2349 22.0771 35.5515 18.7276C31.8682 15.378 27.1274 13.4254 22.1535 13.2092C21.5968 13.1641 21.0101 13.1867 20.4308 13.1641Z" fill="url(#paint1_linear_1062_1118)"/>
<path d="M5.8147 5.23554C5.98619 4.65275 6.32018 4.13089 6.77756 3.73107C7.20338 3.3855 7.74792 3.22103 8.29384 3.27309C8.83977 3.32515 9.34339 3.58957 9.69622 4.00939C11.4339 6.08556 10.1175 9.27503 10.0498 11.6596C10.0824 13.7 10.5707 15.7072 11.479 17.5346C11.6884 17.8726 11.8456 18.2403 11.9454 18.6253C11.9946 18.9171 11.9479 19.2171 11.8123 19.4802C11.6767 19.7433 11.4594 19.9554 11.1932 20.0846C10.3281 20.5134 9.77145 19.6032 9.4179 18.9563C8.60589 17.4354 7.87273 15.8737 7.22137 14.2774C6.50721 12.6672 5.98702 10.9779 5.67177 9.24493C5.62162 8.93401 5.57901 8.62058 5.5439 8.30464C5.5088 7.9887 5.48873 7.70286 5.48371 7.4471C5.46374 6.69622 5.57577 5.94767 5.8147 5.23554Z" fill="url(#paint2_linear_1062_1118)"/>
<path d="M40.9741 31.6615C40.2896 23.7254 33.9558 17.3089 26.8396 17.3164C19.7235 17.3239 14.5707 23.733 15.2477 31.6088C15.9247 39.4847 22.2134 45.9013 29.307 45.9615C36.4005 46.0216 41.6586 39.5976 40.9741 31.6615ZM37.2656 40.6883C36.3811 41.6901 35.3007 42.5 34.091 43.068C32.8813 43.636 31.568 43.95 30.2322 43.9906C28.6622 44.0054 27.1054 43.7018 25.6561 43.098C24.2067 42.4942 22.8948 41.6028 21.7997 40.4777C19.3691 38.1021 17.8535 34.9459 17.5195 31.5637C17.3103 29.8678 17.4557 28.147 17.9464 26.5102C18.4372 24.8734 19.2626 23.3565 20.3704 22.0555C21.2573 21.0532 22.3405 20.2437 23.5529 19.6769C24.7653 19.1102 26.0811 18.7984 27.4189 18.7607H27.7348C29.2879 18.7929 30.8192 19.1333 32.2397 19.7621C33.6601 20.391 34.9415 21.2958 36.0094 22.4241C38.3588 24.8079 39.8123 27.9303 40.1241 31.2628C40.3139 32.9399 40.1581 34.6381 39.6665 36.2526C39.1749 37.8672 38.3578 39.364 37.2656 40.6507V40.6883Z" fill="white"/>
<path d="M118.319 27.1406C119.109 28.457 121.252 31.0898 126.089 32.015L126.496 29.9013C124.418 29.5885 122.494 28.6214 121.004 27.1406H126.563V25.0418H117.213V23.9586H125.856V21.9577H117.582V21.0324H125.262V19.0842H117.612V18.0235H125.292V16.0752H117.612V15.0146H125.886V13.0136H117.913C118.392 12.7181 118.802 12.323 119.116 11.8552C119.364 11.464 119.5 11.2233 119.507 11.2007L117.529 10.1251C117.302 10.5284 117.051 10.9178 116.777 11.291C116.422 11.8817 115.905 12.3585 115.288 12.665C114.671 12.9716 113.979 13.0952 113.294 13.0212H110.804C111.232 12.454 111.629 11.8639 111.992 11.2534L110.014 10.1777C108.525 12.6462 106.633 14.848 104.417 16.6921L105.862 18.4147C106.238 18.0987 106.614 17.7828 106.93 17.4669V21.8599C106.93 23.3042 107.614 23.9887 109.059 23.9887H114.956V25.0719H105.606V27.1707H111.165C109.675 28.6515 107.751 29.6186 105.674 29.9314L106.08 32.0451C110.917 31.1199 113.061 28.4946 113.85 27.1707H114.956V32.2633H117.213V27.1707L118.319 27.1406ZM115.355 19.0465H109.134V18.0235H115.355V19.0465ZM115.355 15.0371V16.0451H109.134V15.165L109.239 15.0371H115.355ZM109.134 21.5289V21.0324H115.355V21.9878H109.555C109.194 21.9502 109.141 21.8975 109.141 21.5289H109.134Z" fill="black"/>
<path d="M76.6075 28.6751C77.0814 27.3813 77.1491 24.4701 77.1491 21.7546V20.7767H74.1402L74.7495 11.5242H64.9253V13.6229H72.3423L71.8759 20.7767H68.032L68.4608 14.7588H66.3019L65.7152 22.8754H74.8849C74.8849 25.5609 74.7269 27.1481 74.4862 27.795C74.1477 28.7127 73.5609 29.7433 71.3042 29.7433H67.7838V31.8947H71.4472C74.1552 31.9022 75.8026 30.8792 76.6075 28.6751Z" fill="black"/>
<path d="M64.6772 30.0593V27.3813H72.4553V25.1246H64.6772V27.3437H62.4205V29.5402H60.6302V25.779H61.6683C62.0108 25.8011 62.3542 25.75 62.6754 25.6289C62.9967 25.5078 63.2884 25.3196 63.5311 25.0768C63.7739 24.8341 63.9621 24.5423 64.0832 24.2211C64.2043 23.8999 64.2555 23.5565 64.2334 23.2139V13.7057H60.6377V10.6968H58.381V13.7057H54.8982V25.7414H58.396V29.5026H54.853V31.8571H62.8568C63.0987 31.876 63.3419 31.8425 63.5698 31.7592C63.7976 31.6758 64.0049 31.5444 64.1776 31.3739C64.3502 31.2034 64.4842 30.9978 64.5704 30.7709C64.6566 30.5441 64.693 30.3014 64.6772 30.0593ZM61.9767 15.8947V23.2892C61.9767 23.3729 61.9434 23.4533 61.8841 23.5126C61.8249 23.5718 61.7445 23.6051 61.6607 23.6051H60.6302V15.9022L61.9767 15.8947ZM57.1549 23.575V15.9022H58.396V23.5675L57.1549 23.575Z" fill="black"/>
<path d="M151.184 28.2163V11.2534H130.798V32.2407H147.159C149.8 32.2407 151.184 30.8115 151.184 28.2163ZM148.927 28.2163C148.949 28.4549 148.918 28.6955 148.837 28.9208C148.755 29.1462 148.625 29.3509 148.456 29.5203C148.286 29.6898 148.082 29.8198 147.856 29.9013C147.631 29.9827 147.391 30.0135 147.152 29.9915H133.07V13.5101H148.927V28.2163Z" fill="black"/>
<path d="M134.341 24.6281L135.094 26.7419C138.383 25.5006 141.267 23.3768 143.428 20.6037V24.8688C143.411 25.3052 143.221 25.7168 142.901 26.0141C142.582 26.3114 142.157 26.4703 141.721 26.456H139.697V28.6074H141.954C142.444 28.6334 142.935 28.5579 143.395 28.3857C143.855 28.2135 144.275 27.9483 144.628 27.6066C144.981 27.2649 145.26 26.8542 145.447 26.3999C145.634 25.9457 145.725 25.4578 145.715 24.9666V19.37H147.347V17.2186H145.715V14.9092H143.458V17.2186H134.732V19.37H141.698C139.735 21.7221 137.202 23.5323 134.341 24.6281Z" fill="black"/>
<path d="M102.943 30.5783C101.039 29.0292 99.2562 27.3368 97.61 25.5158C98.3801 24.5 99.0621 23.4204 99.6486 22.2887C101.153 19.3249 101.303 16.158 101.303 13.1716H98.949C98.949 15.8721 98.8437 18.7231 97.5574 21.213C97.1284 22.044 96.6407 22.8434 96.098 23.6051C95.5555 22.8434 95.0678 22.044 94.6387 21.213C93.3524 18.7231 93.2471 15.8721 93.2471 13.1716H90.8926C90.8926 16.0301 91.0205 19.3324 92.5475 22.2887C93.134 23.4204 93.8161 24.5 94.5861 25.5158C93.1667 27.0977 91.6357 28.5759 90.0049 29.9389V27.3512H87.7483V29.5477H85.9579V25.7866H86.9885C87.3311 25.8087 87.6744 25.7575 87.9957 25.6364C88.3169 25.5153 88.6086 25.3271 88.8514 25.0843C89.0941 24.8416 89.2823 24.5499 89.4034 24.2286C89.5245 23.9074 89.5757 23.564 89.5536 23.2215V13.7057H85.9579V10.6968H83.7012V13.7057H80.2034V25.7414H83.7012V29.5026H80.1582V31.8571H88.162C88.4647 31.8793 88.768 31.8215 89.0413 31.6895C89.3146 31.5574 89.5483 31.3558 89.7191 31.1049L90.7572 32.3385C92.6531 30.7909 94.4379 29.1118 96.098 27.3136C97.7582 29.1119 99.5429 30.791 101.439 32.3385L102.943 30.5783ZM87.2969 15.9022V23.2892C87.2969 23.3729 87.2636 23.4533 87.2044 23.5126C87.1451 23.5718 87.0648 23.6051 86.981 23.6051H85.9504V15.9022H87.2969ZM82.4601 23.5675V15.9022H83.7012V23.5675H82.4601Z" fill="black"/>
<path d="M95.3004 17.3465L97.1509 17.1133C97.1204 14.9164 96.9572 12.7234 96.662 10.5463L94.4053 10.8697V11.118C94.8227 13.1753 95.1215 15.2549 95.3004 17.3465Z" fill="black"/>
<path d="M170.878 36.912H164.423V51.3775C164.841 51.4657 165.267 51.5086 165.695 51.5054C166.122 51.5075 166.548 51.4647 166.966 51.3775V46.6986H170.968C173.977 46.6986 176 44.7578 176 41.7489C176 38.74 173.999 36.912 170.878 36.912ZM170.456 44.4344H166.981V39.1687H170.471C172.653 39.1687 173.593 39.921 173.593 41.8166C173.593 43.7123 172.405 44.4344 170.456 44.4344Z" fill="black"/>
<path d="M127.398 46.33C126.646 45.7283 125.969 45.5778 125.984 45.465C125.999 45.3521 126.36 45.3973 126.992 45.2017C127.89 44.9968 128.691 44.4899 129.261 43.7657C129.83 43.0414 130.134 42.1437 130.121 41.2224C130.121 37.8148 127.767 36.8895 124.359 36.8895H118.085V51.3775C118.501 51.4658 118.925 51.5086 119.349 51.5054C119.774 51.5075 120.197 51.4646 120.613 51.3775V45.8561H122.238C123.167 45.7713 124.099 45.9904 124.893 46.4805C125.659 47.1291 126.303 47.9085 126.796 48.7823C127.21 49.4217 128.233 51.355 128.233 51.355C128.729 51.4444 129.233 51.4872 129.738 51.4828C130.226 51.4898 130.713 51.4239 131.182 51.2872C131.182 51.2872 129.677 48.8425 129.008 48.0075C128.539 47.3873 127.998 46.8243 127.398 46.33ZM123.96 43.7273H120.643V39.0258H124.404C126.586 39.0258 127.601 39.4546 127.601 41.2299C127.601 43.0052 126.142 43.7273 123.96 43.7273Z" fill="black"/>
<path d="M158.947 36.912V45.5101C158.947 47.842 157.57 49.3164 155.291 49.3164C153.012 49.3164 151.635 47.8119 151.635 45.5101V36.912C151.217 36.8238 150.791 36.7809 150.364 36.7842C149.937 36.782 149.511 36.8248 149.093 36.912V45.5928C149.093 49.8279 151.808 51.6784 155.284 51.6784C158.759 51.6784 161.475 49.8279 161.475 45.5928V36.912C161.057 36.8238 160.63 36.7809 160.203 36.7842C159.781 36.783 159.36 36.8259 158.947 36.912Z" fill="black"/>
<path d="M108.577 38.9506C109.53 38.9143 110.477 39.1252 111.324 39.5628C112.172 40.0004 112.892 40.6499 113.414 41.448L115.28 40.0714C113.602 37.7621 111.782 36.6337 108.374 36.6337C107.391 36.6242 106.415 36.8133 105.507 37.1899C104.598 37.5665 103.775 38.1227 103.086 38.8252C102.398 39.5276 101.859 40.3619 101.5 41.278C101.142 42.194 100.973 43.1729 101.002 44.156C101.002 48.5265 104.086 51.6784 107.908 51.6784C108.895 51.6786 109.872 51.4816 110.781 51.0991C111.365 50.8763 111.92 50.586 112.436 50.2341C112.639 50.0987 112.873 49.9332 113.023 49.9934C113.173 50.0536 113.158 50.1814 113.158 50.3394C113.158 50.7983 113.158 51.3474 113.158 51.3474C113.472 51.4349 113.796 51.4779 114.121 51.4753C114.451 51.4784 114.78 51.425 115.092 51.3173V43.5994H108.6V45.6605H112.865C112.865 47.2101 111.451 49.369 108.254 49.369C105.245 49.369 103.47 46.9694 103.47 44.1936C103.456 43.5127 103.577 42.8357 103.827 42.2021C104.077 41.5686 104.451 40.991 104.926 40.5031C105.401 40.0152 105.969 39.6268 106.596 39.3602C107.223 39.0937 107.896 38.9544 108.577 38.9506Z" fill="black"/>
<path d="M139.434 36.6337C137.946 36.6337 136.492 37.0749 135.255 37.9015C134.018 38.728 133.054 39.9029 132.484 41.2774C131.915 42.6519 131.766 44.1644 132.056 45.6236C132.346 47.0828 133.063 48.4232 134.115 49.4752C135.167 50.5272 136.507 51.2436 137.966 51.5339C139.426 51.8241 140.938 51.6752 142.313 51.1058C143.687 50.5365 144.862 49.5723 145.689 48.3353C146.515 47.0982 146.956 45.6438 146.956 44.1561C146.956 42.161 146.164 40.2477 144.753 38.837C143.342 37.4263 141.429 36.6337 139.434 36.6337ZM139.434 49.166C138.443 49.166 137.475 48.8721 136.651 48.3216C135.827 47.7711 135.185 46.9887 134.805 46.0733C134.426 45.1578 134.327 44.1505 134.52 43.1787C134.714 42.2069 135.191 41.3142 135.891 40.6135C136.592 39.9129 137.485 39.4357 138.457 39.2424C139.428 39.0491 140.436 39.1484 141.351 39.5276C142.267 39.9067 143.049 40.5489 143.6 41.3727C144.15 42.1966 144.444 43.1652 144.444 44.1561C144.444 45.4835 143.917 46.7566 142.979 47.6959C142.041 48.6352 140.769 49.164 139.441 49.166H139.434Z" fill="black"/>
<path d="M83.6636 39.2215H88.9292V51.37C89.3725 51.4584 89.8237 51.5012 90.2757 51.4979C90.7277 51.5003 91.1788 51.4575 91.6222 51.37V39.2215H96.8878V36.882H83.6636V39.2215Z" fill="black"/>
<path d="M79.0297 36.8744V47.4057C76.8112 43.7269 74.3378 40.2078 71.6278 36.8744C71.2175 36.7862 70.7987 36.7434 70.3791 36.7466C69.9594 36.7442 69.5408 36.7871 69.1304 36.8744V51.37C69.5381 51.4583 69.9544 51.5011 70.3716 51.4979C70.7887 51.5001 71.2048 51.4572 71.6127 51.37V40.1392C74.2606 43.7875 76.7505 47.5487 78.9846 51.37C79.3975 51.458 79.8187 51.5009 80.2408 51.4979C80.6629 51.4999 81.084 51.457 81.4971 51.37V36.8744C81.0893 36.7861 80.6731 36.7432 80.2559 36.7466C79.8438 36.7454 79.4327 36.7882 79.0297 36.8744Z" fill="black"/>
<path d="M67.2722 51.2647L67.1819 50.9488L67.0917 50.6404L66.7156 49.3992L66.5275 48.7748L66.3244 48.158L65.9182 46.9243C65.7828 46.5106 65.6323 46.1044 65.4894 45.6982L65.2788 45.0889C65.2111 44.8858 65.1284 44.6827 65.0531 44.4796L64.6018 43.2609C63.9774 41.6436 63.3155 40.0414 62.6008 38.4617C62.4203 38.063 62.2398 37.6718 62.0517 37.2807L61.8411 36.8444H58.4335L58.2153 37.3033C58.0273 37.6944 57.8543 38.0555 57.6737 38.4843C56.9666 40.064 56.3047 41.6662 55.6878 43.2835L55.2365 44.5022C55.1613 44.7053 55.086 44.9084 55.0108 45.1115L54.7927 45.7208C54.6497 46.127 54.5068 46.5332 54.3639 46.9469L53.9577 48.1806L53.7546 48.7974L53.559 49.4142L53.1754 50.6554C53.1077 50.8585 53.0475 51.0692 52.9873 51.2798V51.3851C53.4104 51.4727 53.8416 51.5156 54.2736 51.513C54.7082 51.5148 55.1417 51.4719 55.5675 51.3851L55.9285 50.1664L56.1091 49.5571L56.3047 48.9554L56.8087 47.4509C57.9174 47.2957 59.0391 47.2554 60.1561 47.3306C61.2303 47.4202 62.2878 47.6529 63.3004 48.0226C63.6239 48.173 63.7743 48.2558 63.8796 48.504L64.0226 48.9478L64.2106 49.5496L64.3912 50.1589L64.7447 51.3776V51.4152C65.1673 51.5063 65.5988 51.5492 66.031 51.543C66.4605 51.544 66.889 51.5012 67.3098 51.4152L67.2722 51.2647ZM60.1636 45.4424C59.2059 45.4581 58.2546 45.6023 57.3352 45.8712C57.3803 45.7509 57.4706 45.4274 57.5082 45.3146L57.937 44.126C58.5313 42.5463 59.1481 40.9742 59.8251 39.4321L59.938 39.1688C60.0057 39.0033 60.0809 38.9582 60.1561 38.9582C60.2313 38.9582 60.299 39.0033 60.3592 39.1387L60.4871 39.417C61.1641 40.9215 61.7884 42.5238 62.3827 44.111L62.8115 45.2995L62.9469 45.6756C62.0293 45.5051 61.0968 45.4269 60.1636 45.4424Z" fill="black"/>
</g>
<defs>
<linearGradient id="paint0_linear_1062_1118" x1="23.0936" y1="15.2628" x2="31.2177" y2="-0.0225781" gradientUnits="userSpaceOnUse">
<stop stop-color="#0066FF"/>
<stop offset="0.2" stop-color="#1677FF"/>
<stop offset="1" stop-color="#04A6FF"/>
</linearGradient>
<linearGradient id="paint1_linear_1062_1118" x1="0.970585" y1="40.8087" x2="40.9217" y2="26.268" gradientUnits="userSpaceOnUse">
<stop stop-color="#0066FF"/>
<stop offset="0.2" stop-color="#1677FF"/>
<stop offset="1" stop-color="#04A6FF"/>
</linearGradient>
<linearGradient id="paint2_linear_1062_1118" x1="11.4264" y1="20.0696" x2="6.98819" y2="3.49788" gradientUnits="userSpaceOnUse">
<stop stop-color="#0066FF"/>
<stop offset="0.2" stop-color="#1677FF"/>
<stop offset="1" stop-color="#04A6FF"/>
</linearGradient>
<clipPath id="clip0_1062_1118">
<rect width="176" height="55.6051" fill="white"/>
</clipPath>
</defs>
</svg>
