<svg width="128" height="77" viewBox="0 0 128 77" fill="none" xmlns="http://www.w3.org/2000/svg">
<g clip-path="url(#clip0_1062_931)">
<path d="M36.196 27.6305C36.196 29.1937 36.3655 30.4612 36.6622 31.3907C37.0012 32.3201 37.4251 33.3341 38.0185 34.4325C38.2304 34.7705 38.3152 35.1085 38.3152 35.4043C38.3152 35.8268 38.0609 36.2492 37.5099 36.6717L34.8397 38.4462C34.4582 38.6997 34.0767 38.8264 33.7377 38.8264C33.3138 38.8264 32.89 38.6152 32.4662 38.2349C31.8728 37.6012 31.3642 36.9252 30.9403 36.2492C30.5165 35.531 30.0926 34.7283 29.6264 33.7566C26.3205 37.6434 22.1668 39.5869 17.1655 39.5869C13.6052 39.5869 10.7655 38.5729 8.68867 36.545C6.61185 34.517 5.55225 31.8131 5.55225 28.4333C5.55225 24.8421 6.82377 21.927 9.4092 19.7301C11.9946 17.5331 15.4277 16.4347 19.7933 16.4347C21.2344 16.4347 22.7178 16.5614 24.286 16.7727C25.8542 16.9839 27.4648 17.3219 29.1602 17.7021V14.618C29.1602 11.4071 28.482 9.16792 27.1681 7.85822C25.8118 6.54851 23.5231 5.91478 20.2595 5.91478C18.7761 5.91478 17.2503 6.08378 15.682 6.46402C14.1138 6.84425 12.588 7.30899 11.1046 7.90047C10.4264 8.19621 9.91781 8.3652 9.62112 8.4497C9.32443 8.53419 9.11251 8.57644 8.94297 8.57644C8.3496 8.57644 8.05291 8.15396 8.05291 7.26674V5.19656C8.05291 4.52058 8.13768 4.0136 8.3496 3.71786C8.56152 3.42212 8.94297 3.12638 9.53635 2.83064C11.0198 2.07017 12.7999 1.43644 14.8767 0.929456C16.9536 0.380225 19.1575 0.126733 21.4887 0.126733C26.5324 0.126733 30.2198 1.26744 32.5933 3.54887C34.9244 5.83029 36.1112 9.29467 36.1112 13.942V27.6305H36.196ZM18.988 34.0523C20.3867 34.0523 21.8277 33.7988 23.3536 33.2918C24.8794 32.7849 26.2357 31.8554 27.3801 30.5879C28.0582 29.7852 28.5668 28.898 28.8211 27.884C29.0754 26.8701 29.245 25.6449 29.245 24.2084V22.434C28.0158 22.1382 26.7019 21.8847 25.3456 21.7157C23.9893 21.5467 22.6754 21.4622 21.3615 21.4622C18.5218 21.4622 16.445 22.0115 15.0463 23.1522C13.6476 24.2929 12.9695 25.8983 12.9695 28.0108C12.9695 29.9965 13.4781 31.4752 14.5377 32.4891C15.5549 33.5453 17.0383 34.0523 18.988 34.0523ZM53.0224 38.6152C52.2595 38.6152 51.7509 38.4884 51.4118 38.1927C51.0728 37.9392 50.7761 37.3477 50.5218 36.545L40.5615 3.88685C40.3072 3.04188 40.1801 2.49265 40.1801 2.19691C40.1801 1.52094 40.5191 1.1407 41.1973 1.1407H45.3509C46.1562 1.1407 46.7072 1.26744 47.0039 1.56318C47.343 1.81668 47.5973 2.40815 47.8516 3.21088L54.9721 31.1794L61.584 3.21088C61.796 2.36591 62.0503 1.81668 62.3893 1.56318C62.7284 1.30969 63.3218 1.1407 64.0847 1.1407H67.4754C68.2807 1.1407 68.8317 1.26744 69.1708 1.56318C69.5099 1.81668 69.8065 2.40815 69.9761 3.21088L76.6728 31.5174L84.0052 3.21088C84.2595 2.36591 84.5562 1.81668 84.8529 1.56318C85.192 1.30969 85.743 1.1407 86.5059 1.1407H90.4476C91.1258 1.1407 91.5072 1.47869 91.5072 2.19691C91.5072 2.40815 91.4648 2.6194 91.4224 2.87289C91.3801 3.12638 91.2953 3.46437 91.1258 3.9291L80.9112 36.5872C80.6569 37.4322 80.3602 37.9814 80.0211 38.2349C79.682 38.4884 79.1311 38.6574 78.4105 38.6574H74.7655C73.9602 38.6574 73.4092 38.5307 73.0701 38.2349C72.7311 37.9392 72.4344 37.3899 72.2648 36.545L65.6953 9.29467L59.1681 36.5027C58.9562 37.3477 58.7019 37.8969 58.3628 38.1927C58.0238 38.4884 57.4304 38.6152 56.6675 38.6152H53.0224ZM107.486 39.7559C105.282 39.7559 103.078 39.5024 100.959 38.9954C98.8397 38.4884 97.1867 37.9392 96.0847 37.3055C95.4065 36.9252 94.9403 36.5027 94.7708 36.1225C94.6012 35.7423 94.5165 35.3198 94.5165 34.9395V32.7849C94.5165 31.8976 94.8556 31.4752 95.4913 31.4752C95.7456 31.4752 95.9999 31.5174 96.2542 31.6019C96.5085 31.6864 96.89 31.8554 97.3138 32.0244C98.7549 32.6581 100.323 33.1651 101.976 33.5031C103.671 33.8411 105.324 34.0101 107.02 34.0101C109.69 34.0101 111.767 33.5453 113.208 32.6159C114.649 31.6864 115.412 30.3344 115.412 28.6023C115.412 27.4193 115.03 26.4476 114.267 25.6449C113.505 24.8421 112.063 24.1239 109.987 23.4479L103.841 21.5467C100.747 20.575 98.4582 19.1386 97.0595 17.2374C95.6609 15.3785 94.9403 13.3083 94.9403 11.1114C94.9403 9.33692 95.3218 7.77372 96.0847 6.42177C96.8476 5.06981 97.8648 3.88685 99.1363 2.95739C100.408 1.98567 101.849 1.26744 103.544 0.760462C105.24 0.253479 107.02 0.0422363 108.885 0.0422363C109.817 0.0422363 110.792 0.0844849 111.724 0.211231C112.699 0.337976 113.589 0.50697 114.479 0.675965C115.327 0.887207 116.132 1.09845 116.895 1.35194C117.658 1.60543 118.252 1.85892 118.675 2.11241C119.269 2.4504 119.693 2.78839 119.947 3.16863C120.201 3.50662 120.328 3.97135 120.328 4.56283V6.54851C120.328 7.43573 119.989 7.90047 119.354 7.90047C119.014 7.90047 118.464 7.73147 117.743 7.39348C115.327 6.29502 112.614 5.74579 109.605 5.74579C107.189 5.74579 105.282 6.12603 103.968 6.92875C102.654 7.73147 101.976 8.95668 101.976 10.6889C101.976 11.8718 102.4 12.8858 103.248 13.6885C104.095 14.4912 105.664 15.294 107.91 16.0122L113.928 17.9134C116.98 18.8851 119.184 20.237 120.498 21.9692C121.812 23.7014 122.448 25.6871 122.448 27.884C122.448 29.7007 122.066 31.3484 121.346 32.7849C120.583 34.2213 119.565 35.4888 118.252 36.5027C116.938 37.5589 115.369 38.3194 113.547 38.8686C111.64 39.4601 109.648 39.7559 107.486 39.7559Z" fill="#252F3E"/>
<path d="M115.497 60.2887C101.552 70.5551 81.2928 76.0051 63.8729 76.0051C39.4597 76.0051 17.4623 67.0062 0.847767 52.0502C-0.466141 50.8672 0.720614 49.2618 2.28883 50.1912C20.2597 60.5844 42.4266 66.8794 65.3564 66.8794C80.8266 66.8794 97.8226 63.6685 113.462 57.0778C115.793 56.0215 117.786 58.5987 115.497 60.2887ZM121.303 53.6979C119.523 51.4165 109.521 52.5994 104.986 53.1486C103.629 53.3176 103.417 52.1347 104.646 51.2475C112.615 45.6707 125.711 47.2761 127.237 49.135C128.763 51.0362 126.813 64.091 119.354 70.3438C118.209 71.3155 117.107 70.8085 117.616 69.5411C119.311 65.3585 123.084 55.937 121.303 53.6979Z" fill="#FF9900"/>
</g>
<defs>
<clipPath id="clip0_1062_931">
<rect width="128" height="76.2553" fill="white"/>
</clipPath>
</defs>
</svg>
