<svg width="265" height="38" viewBox="0 0 265 38" fill="none" xmlns="http://www.w3.org/2000/svg">
<g clip-path="url(#clip0_1062_1152)">
<path fill-rule="evenodd" clip-rule="evenodd" d="M0 37.0629H37.4318V0H0V37.0629ZM33.6035 33.2724V3.79053H3.82825V33.2724H33.6035Z" fill="black"/>
<path d="M76.2119 21.7942H72.1799C71.5942 25.4108 69.1475 27.4922 65.7706 27.4922C61.2907 27.4922 58.3617 24.0462 58.3617 18.5529C58.3617 13.1278 61.1873 9.61315 65.5294 9.61315C69.0442 9.61315 71.353 11.6605 72.0077 15.3453H76.0392C75.2468 9.9543 70.8707 6.44006 65.3916 6.44006C58.8096 6.44006 54.2607 11.831 54.2607 18.5529C54.2607 25.479 58.9129 30.6653 65.495 30.6653C70.974 30.6653 75.3846 27.1852 76.2119 21.7942Z" fill="black"/>
<path fill-rule="evenodd" clip-rule="evenodd" d="M94.7122 21.7942C94.7122 17.1879 91.5071 12.9227 86.2692 12.9227C81.0318 12.9227 77.8267 17.1879 77.8267 21.7942C77.8267 26.4002 81.0318 30.6653 86.2692 30.6653C91.5071 30.6653 94.7122 26.4002 94.7122 21.7942ZM81.7897 21.7942C81.7897 18.1431 83.4091 15.6864 86.2692 15.6864C89.1642 15.6864 90.7836 18.1431 90.7836 21.7942C90.7836 25.4108 89.1642 27.9016 86.2692 27.9016C83.4091 27.9016 81.7897 25.4108 81.7897 21.7942Z" fill="black"/>
<path fill-rule="evenodd" clip-rule="evenodd" d="M109.37 26.7418H109.266C108.439 29.0957 106.441 30.6654 103.822 30.6654C99.135 30.6654 96.585 26.5708 96.585 21.7943C96.585 17.0174 99.2384 12.9227 103.822 12.9227C106.441 12.9227 108.439 14.4583 109.266 16.8127H109.37V6.78125H113.057V30.3242H109.37V26.7418ZM105.028 15.6865C102.167 15.6865 100.548 18.1431 100.548 21.7943C100.548 25.4109 102.167 27.9017 105.028 27.9017C107.923 27.9017 109.507 25.4109 109.507 21.7943C109.507 18.1431 107.923 15.6865 105.028 15.6865Z" fill="black"/>
<path fill-rule="evenodd" clip-rule="evenodd" d="M131.595 25.0356H127.839C127.425 26.4002 126.46 27.9016 124.22 27.9016C121.601 27.9016 119.775 26.0931 119.603 22.9883H131.905C132.422 17.0515 129.045 12.9227 123.91 12.9227C118.776 12.9227 115.847 17.0856 115.847 21.7942C115.847 26.5025 118.845 30.6653 123.979 30.6653C128.183 30.6653 130.871 28.4134 131.595 25.0356ZM123.91 15.6864C126.426 15.6864 127.908 17.4608 128.149 20.2246H119.637C119.879 17.4608 121.395 15.6864 123.91 15.6864Z" fill="black"/>
<path d="M146.445 16.7785C150.925 17.802 153.165 20.1222 153.165 23.8411C153.165 27.7652 149.305 30.6653 143.792 30.6653C137.486 30.6653 134.074 26.2978 133.695 22.033H137.727C137.968 25.1038 140.484 27.4922 143.826 27.4922C146.858 27.4922 149.098 26.1955 149.098 24.0121C149.098 22.1013 147.651 21.0774 144.584 20.361L141.138 19.5763C136.486 18.4843 134.178 16.335 134.178 13.0592C134.178 9.10144 138.106 6.44006 142.896 6.44006C148.961 6.44006 152.062 9.7155 152.475 13.776H148.444C148.134 10.9782 145.756 9.61315 142.965 9.61315C140.242 9.61315 138.278 10.7735 138.278 12.7862C138.278 14.3901 139.484 15.1406 142.999 15.9598L146.445 16.7785Z" fill="black"/>
<path fill-rule="evenodd" clip-rule="evenodd" d="M167.659 26.7417H167.763V30.3242H171.45V13.2643H167.763V16.8127H167.659C166.832 14.4583 164.833 12.9227 162.214 12.9227C157.631 12.9227 154.978 17.0173 154.978 21.7942C154.978 26.5707 157.528 30.6653 162.214 30.6653C164.833 30.6653 166.832 29.0957 167.659 26.7417ZM158.941 21.7942C158.941 18.1431 160.595 15.6864 163.386 15.6864C166.177 15.6864 167.901 18.1431 167.901 21.7942C167.901 25.4108 166.177 27.9016 163.386 27.9016C160.629 27.9016 158.941 25.4108 158.941 21.7942Z" fill="black"/>
<path d="M178.961 20.0881V30.3242H175.205V13.2643H178.857V16.608H178.926C179.65 14.2195 181.442 12.9227 183.957 12.9227C187.748 12.9227 189.609 15.4818 189.609 19.2352V30.3242H185.853V20.3269C185.853 17.1538 184.716 15.7206 182.407 15.7206C180.098 15.7206 178.961 17.2903 178.961 20.0881Z" fill="black"/>
<path fill-rule="evenodd" clip-rule="evenodd" d="M204.973 26.7418H205.076V30.3242H208.763V6.78125H205.076V16.8127H204.973C204.146 14.4583 202.147 12.9227 199.528 12.9227C194.945 12.9227 192.292 17.0174 192.292 21.7943C192.292 26.5708 194.842 30.6654 199.528 30.6654C202.147 30.6654 204.146 29.0957 204.973 26.7418ZM196.255 21.7943C196.255 18.1431 197.874 15.6865 200.734 15.6865C203.629 15.6865 205.214 18.1431 205.214 21.7943C205.214 25.4109 203.629 27.9017 200.734 27.9017C197.874 27.9017 196.255 25.4109 196.255 21.7943Z" fill="black"/>
<path fill-rule="evenodd" clip-rule="evenodd" d="M221.753 12.9227C226.336 12.9227 228.99 17.0174 228.99 21.7943C228.99 26.5708 226.44 30.6654 221.753 30.6654C219.134 30.6654 217.135 29.0957 216.308 26.7418H216.205V30.3242H212.518V6.78125H216.205V16.8127H216.308C217.135 14.4583 219.134 12.9227 221.753 12.9227ZM220.547 15.6865C217.653 15.6865 216.067 18.1431 216.067 21.7943C216.067 25.4109 217.653 27.9017 220.547 27.9017C223.407 27.9017 225.027 25.4109 225.027 21.7943C225.027 18.1431 223.407 15.6865 220.547 15.6865Z" fill="black"/>
<path fill-rule="evenodd" clip-rule="evenodd" d="M247.768 21.7942C247.768 17.1879 244.563 12.9227 239.325 12.9227C234.087 12.9227 230.883 17.1879 230.883 21.7942C230.883 26.4002 234.087 30.6653 239.325 30.6653C244.563 30.6653 247.768 26.4002 247.768 21.7942ZM234.846 21.7942C234.846 18.1431 236.465 15.6864 239.325 15.6864C242.22 15.6864 243.84 18.1431 243.84 21.7942C243.84 25.4108 242.22 27.9016 239.325 27.9016C236.465 27.9016 234.846 25.4108 234.846 21.7942Z" fill="black"/>
<path d="M256.178 23.7047L251.594 30.3242H247.356L253.972 21.1456L248.217 13.2643H252.456L256.178 18.587L259.899 13.2643H264.103L258.383 21.1115L264.965 30.3242H260.76L256.178 23.7047Z" fill="black"/>
</g>
<defs>
<clipPath id="clip0_1062_1152">
<rect width="265" height="37.0629" fill="white"/>
</clipPath>
</defs>
</svg>
