<svg width="230" height="43" viewBox="0 0 230 43" fill="none" xmlns="http://www.w3.org/2000/svg">
<path fill-rule="evenodd" clip-rule="evenodd" d="M36.5877 20.9218V20.5144L33.1311 17.5448H32.7282C31.7777 18.593 30.3099 19.3786 28.668 19.3786C26.1048 19.3786 24.088 17.428 24.088 14.7503C24.088 12.0725 26.1048 10.1219 28.668 10.1219C30.3099 10.1219 31.7777 10.9075 32.7282 11.9557H33.1311L36.5877 8.9861V8.57873C34.773 6.36675 31.9226 4.94031 28.6959 4.94031C22.7638 4.94031 18.2715 9.13206 18.2715 14.7503C18.2715 14.9679 18.3207 15.1682 18.3353 15.3819C20.7629 17.0299 22.9061 18.3489 24.7514 19.5564C27.4117 21.2363 29.5588 22.7821 31.327 24.2192C33.5313 23.6632 35.3181 22.457 36.5877 20.9218ZM20.4345 20.8169C21.8199 22.5154 23.7755 23.7335 26.0822 24.2537C24.524 23.3792 23.0151 22.5207 21.6098 21.5706C21.1977 21.3159 20.8307 21.0691 20.4345 20.8169Z" fill="#040404"/>
<path fill-rule="evenodd" clip-rule="evenodd" d="M56.596 23.3102L55.7319 19.5842L55.4155 19.3799C55.2426 19.4674 55.099 19.5842 54.667 19.5842C54.0035 19.5842 53.6007 18.8849 53.2551 18.3329C52.6794 17.4585 52.2181 16.9927 51.8152 16.7897C53.9171 15.8582 55.329 14.112 55.329 11.6081C55.329 7.73611 52.6794 5.29059 47.755 5.29059H39.1719V24.2125H44.874V17.5752H45.3925C46.6595 17.5752 48.2735 20.3114 49.022 21.5348C50.5775 24.0095 51.8152 24.5615 54.0328 24.5615C55.0698 24.5615 55.934 24.1833 56.4525 23.7176L56.596 23.3102ZM49.5112 11.9279C49.5112 13.1805 48.5899 13.7909 47.5237 13.7909H44.874V9.94809H47.5237C48.5899 9.94809 49.5112 10.6474 49.5112 11.9279Z" fill="#040404"/>
<path fill-rule="evenodd" clip-rule="evenodd" d="M78.6255 14.7569C78.6255 9.13871 74.1332 4.94696 68.1718 4.94696C62.2091 4.94696 57.7168 9.13871 57.7168 14.7569C57.7168 20.3751 62.2091 24.5668 68.1718 24.5668C74.1332 24.5668 78.6255 20.3459 78.6255 14.7569ZM72.8077 14.7569C72.8077 17.4638 70.7337 19.3852 68.1718 19.3852C65.6086 19.3852 63.5346 17.4638 63.5346 14.7569C63.5346 12.05 65.6086 10.1286 68.1718 10.1286C70.7337 10.1286 72.8077 12.05 72.8077 14.7569Z" fill="#040404"/>
<path fill-rule="evenodd" clip-rule="evenodd" d="M91.3355 5.29596L87.7858 15.711L84.4222 5.29596H78.9714L78.7188 5.73252L85.6852 24.2166H89.1419L93.0638 13.9064L96.9991 24.2166H100.456L107.436 5.73252L107.17 5.29596H101.732L98.3552 15.7773L94.7922 5.29596H91.3355Z" fill="#040404"/>
<path fill-rule="evenodd" clip-rule="evenodd" d="M128.308 14.729C128.308 9.08163 124.535 5.29724 118.401 5.29724H109.674V24.2192H118.401C124.535 24.2192 128.308 20.4348 128.308 14.729ZM122.49 14.7582C122.49 17.8433 120.675 19.5617 118.171 19.5617H115.376V9.95474H118.171C120.675 9.95474 122.49 11.6731 122.49 14.7582Z" fill="#040404"/>
<path fill-rule="evenodd" clip-rule="evenodd" d="M147.174 9.95346H152.758V24.2166H158.474V9.95346H164.191V5.29596H147.174V9.95346Z" fill="#040404"/>
<path fill-rule="evenodd" clip-rule="evenodd" d="M182.404 11.6121C182.404 7.74014 179.755 5.29462 174.83 5.29462H166.247V24.2165H171.951V17.5793H173.304L176.846 24.2165H182.52L182.779 23.78L178.977 16.7645C181.022 15.8038 182.404 14.0868 182.404 11.6121ZM176.586 11.9319C176.586 13.1845 175.665 13.7949 174.599 13.7949H171.951V9.95212H174.599C175.665 9.95212 176.586 10.6514 176.586 11.9319Z" fill="#040404"/>
<path fill-rule="evenodd" clip-rule="evenodd" d="M185.861 24.2166H191.578V5.29596H185.861V24.2166Z" fill="#040404"/>
<path fill-rule="evenodd" clip-rule="evenodd" d="M200.885 12.0208V5.29596H195.168V24.2166H200.885V18.3914L201.948 17.1706L206.734 24.2166H212.717L212.983 23.7787L206.07 13.7604L212.451 5.73252L212.318 5.29596H206.203L200.885 12.0208Z" fill="#040404"/>
<path fill-rule="evenodd" clip-rule="evenodd" d="M220.295 19.559V16.945H226.809V12.5728H220.295V9.95344H228.804V5.29462H214.578V24.2165H228.937V19.559H220.295Z" fill="#040404"/>
<path fill-rule="evenodd" clip-rule="evenodd" d="M138 24.4377C142.177 24.4377 145.803 22.4009 145.803 18.4732C145.803 14.1926 142.148 13.0859 138.923 12.1544C137.654 11.7762 136.357 11.3383 136.357 10.4068C136.357 9.73675 137.077 9.32938 138.173 9.32938C140.046 9.32938 141.629 10.4944 142.435 11.2521H142.838L145.516 8.05023V7.64286C144.105 6.04259 141.227 4.8205 138.057 4.8205C133.622 4.8205 130.543 7.2063 130.543 10.6696C130.543 14.3969 133.938 16.0277 136.818 16.8424C138.691 17.3666 139.961 17.4541 139.961 18.4732C139.961 19.2017 139.066 19.6382 137.682 19.6382C135.925 19.6382 133.795 18.5024 132.759 17.4833H132.356L129.708 20.802V21.2093C131.406 23.1002 134.457 24.4377 138 24.4377Z" fill="#040404"/>
<path fill-rule="evenodd" clip-rule="evenodd" d="M39.6454 41.8337C38.264 38.6783 35.4894 34.6299 24.6223 28.8484C19.6101 26.0672 11.0483 21.7852 3.35059 13.6419C4.04856 16.5797 7.62486 23.0352 23.0003 31.0909C27.2599 33.417 34.4631 35.5985 39.6454 41.8231" fill="#FC0000"/>
<path fill-rule="evenodd" clip-rule="evenodd" d="M38.9538 36.4331C37.6429 32.7045 35.2764 27.9302 24.0503 20.8418C18.5848 17.267 10.5561 12.7781 0 1.336C0.755144 4.42109 4.09214 12.4437 20.9127 22.8587C26.438 26.5953 33.5694 28.9002 38.9538 36.4331Z" fill="#FC0000"/>
</svg>
