<svg width="187" height="53" viewBox="0 0 187 53" fill="none" xmlns="http://www.w3.org/2000/svg">
<g clip-path="url(#clip0_1062_991)">
<path d="M24.2855 16.9512C24.7046 16.3335 25.1634 16.2549 25.5356 16.2549C25.9078 16.2549 26.5279 16.3335 26.9472 16.9512C30.2508 21.4889 35.704 30.5282 39.7266 37.1961C42.3499 41.5445 44.3647 44.8843 44.7781 45.3093C46.3299 46.9048 48.4581 45.9105 49.6947 44.1007C50.9122 42.3189 51.2501 41.0678 51.2501 39.7331C51.2501 38.824 33.6119 6.02017 31.8356 3.28966C30.1273 0.663368 29.5709 0 26.6471 0H24.4592C21.5442 0 21.1229 0.663368 19.4145 3.28966C17.6383 6.02017 0 38.824 0 39.7331C0 41.0678 0.337987 42.3189 1.55548 44.1007C2.79213 45.9105 4.92031 46.9048 6.47203 45.3093C6.88545 44.8843 8.90029 41.5445 11.5236 37.1961C15.5461 30.5282 20.9819 21.4889 24.2855 16.9512Z" fill="black"/>
<path d="M63.5117 2.89966V43.1713H88.0509V35.0018H71.9774V26.4872H86.2777V18.318H71.9774V11.069H88.0509V2.89966H63.5117Z" fill="black"/>
<path d="M120.794 43.1712L110.613 28.5583L120.108 14.9236H110.498L105.808 21.5972L101.175 14.9236H91.4504L100.946 28.6159L90.8213 43.1712H100.431L105.751 35.5196L111.07 43.1712H120.794Z" fill="black"/>
<path d="M141.259 14.3483C137.37 14.3483 134.338 15.9591 132.393 18.8932V14.9236H124.328V52.4912H132.393V39.2016C134.338 42.1357 137.37 43.7465 141.259 43.7465C148.524 43.7465 154.301 37.1305 154.301 29.0186C154.301 20.9068 148.524 14.3483 141.259 14.3483ZM139.429 35.9799C135.482 35.9799 132.393 32.9883 132.393 29.0186C132.393 25.1065 135.482 22.0575 139.429 22.0575C143.319 22.0575 146.465 25.1641 146.465 29.0186C146.465 32.9307 143.319 35.9799 139.429 35.9799Z" fill="black"/>
<path d="M171.894 14.3483C163.599 14.3483 157.307 20.6766 157.307 29.0762C157.307 37.4756 163.599 43.7465 171.894 43.7465C180.13 43.7465 186.48 37.4756 186.48 29.0762C186.48 20.6766 180.13 14.3483 171.894 14.3483ZM171.894 22.1149C175.668 22.1149 178.586 25.049 178.586 29.0762C178.586 32.9883 175.668 35.9799 171.894 35.9799C168.06 35.9799 165.201 32.9883 165.201 29.0762C165.201 25.049 168.06 22.1149 171.894 22.1149Z" fill="black"/>
</g>
<defs>
<clipPath id="clip0_1062_991">
<rect width="187" height="52.4912" fill="white"/>
</clipPath>
</defs>
</svg>
