<svg width="216" height="46" viewBox="0 0 216 46" fill="none" xmlns="http://www.w3.org/2000/svg">
<path d="M90.2332 7.5849H85.1133V37.6901H103.873V33.1436H90.2332V7.5849Z" fill="#2A2C2E"/>
<path d="M114.805 16.637C109.194 16.637 105.385 21.1426 105.385 27.3683C105.385 33.5532 109.194 38.0996 114.805 38.0996C117.918 38.0996 120.007 36.8299 121.154 35.2735L121.4 37.6901H125.823V17.0466H121.4L121.154 19.4632C120.007 17.9068 117.918 16.637 114.805 16.637ZM115.87 20.9787C118.328 20.9787 119.802 22.2893 120.908 24.0506V30.6861C119.802 32.4472 118.328 33.758 115.87 33.758C112.675 33.758 110.382 31.2594 110.382 27.3683C110.382 23.4771 112.675 20.9787 115.87 20.9787Z" fill="#2A2C2E"/>
<path d="M138.054 10.1244H133.139V17.0465H129.248V21.2244H133.139V30.3994C133.139 35.3963 136.129 38.0996 140.84 38.0996C142.888 38.0996 144.403 37.5261 145.427 36.8708L144.116 33.0206C143.502 33.3894 142.601 33.6761 141.29 33.6761C139.365 33.6761 138.054 32.4472 138.054 30.3583V21.2244H144.28V17.0465H138.054V10.1244Z" fill="#2A2C2E"/>
<path d="M154.854 10.1244H149.939V17.0465H146.048V21.2244H149.939V30.3994C149.939 35.3963 152.929 38.0996 157.639 38.0996C159.687 38.0996 161.203 37.5261 162.227 36.8708L160.916 33.0206C160.302 33.3894 159.401 33.6761 158.09 33.6761C156.165 33.6761 154.854 32.4472 154.854 30.3583V21.2244H161.08V17.0465H154.854V10.1244Z" fill="#2A2C2E"/>
<path d="M170.302 17.0465H165.387V37.6901H170.302V17.0465ZM167.845 7.42108C166.125 7.42108 164.814 8.69083 164.814 10.4521C164.814 12.2133 166.125 13.4831 167.845 13.4831C169.606 13.4831 170.917 12.2133 170.917 10.4521C170.917 8.69083 169.606 7.42108 167.845 7.42108Z" fill="#2A2C2E"/>
<path d="M184.992 16.637C178.642 16.637 174.423 21.1426 174.423 27.3683C174.423 33.5532 178.684 38.0996 185.032 38.0996C188.759 38.0996 191.587 36.4204 193.43 33.5532L189.906 30.8089C188.923 32.4472 187.326 33.799 185.074 33.799C181.428 33.799 179.421 30.9727 179.421 27.3683C179.421 23.7229 181.346 20.9377 185.032 20.9377C187.326 20.9377 188.841 22.2484 189.784 23.8868L193.348 21.1835C191.505 18.3163 188.759 16.637 184.992 16.637Z" fill="#2A2C2E"/>
<path d="M205.301 16.637C199.361 16.637 195.184 21.1835 195.184 27.4094C195.184 33.5941 199.279 38.0996 205.669 38.0996C209.478 38.0996 212.182 36.8299 214.23 34.3724L210.83 31.5872C209.888 32.8979 208.127 33.9629 205.711 33.9629C202.27 33.9629 200.304 32.1605 200.182 28.8837H214.762V27.1636C214.762 21.3882 211.649 16.637 205.301 16.637ZM205.219 20.5691C208.168 20.5691 209.806 22.5351 209.93 25.3614H200.182C200.345 22.4942 202.31 20.5691 205.219 20.5691Z" fill="#2A2C2E"/>
<path fill-rule="evenodd" clip-rule="evenodd" d="M16.8536 32.1197L7.32095 22.4878C5.70114 20.8513 3.07493 20.8513 1.4546 22.4878C-0.165205 24.1246 -0.165205 26.7781 1.4546 28.4153L13.9205 41.0109C15.5403 42.6474 18.1671 42.6474 19.7869 41.0109L31.52 29.1551L25.6542 23.2276L16.8536 32.1197Z" fill="#1BAC94"/>
<path fill-rule="evenodd" clip-rule="evenodd" d="M52.7842 13.5988L34.4534 32.1201L16.1208 13.5967C14.5004 11.9595 11.8742 11.9595 10.2544 13.5967C8.6346 15.2333 8.6346 17.8869 10.2544 19.524L31.5204 41.0111C33.1402 42.6478 35.7663 42.6478 37.3867 41.0111L58.6505 19.5261C60.2703 17.889 60.2703 15.2354 58.6505 13.5988C57.0301 11.9621 54.404 11.9621 52.7842 13.5988Z" fill="#F1AE21"/>
<path fill-rule="evenodd" clip-rule="evenodd" d="M67.4522 28.4176L54.9885 41.0111C53.3687 42.6476 50.7425 42.6476 49.1227 41.0111L19.0562 10.6318C17.4364 8.99513 17.4364 6.34159 19.0562 4.70493C20.6765 3.06776 23.3027 3.06776 24.9225 4.70493L52.0552 32.1199L61.5859 22.4901C63.2062 20.8536 65.8326 20.8536 67.4522 22.4901C69.072 24.1274 69.072 26.7808 67.4522 28.4176Z" fill="#E76450"/>
<path fill-rule="evenodd" clip-rule="evenodd" d="M49.8513 4.7071C48.2315 3.07045 45.6054 3.07045 43.985 4.7071L25.6543 23.2285L31.5208 29.1558L49.8513 10.6345C51.4712 8.9973 51.4712 6.34376 49.8513 4.7071Z" fill="#1BAC94"/>
</svg>
