<svg width="127" height="45" viewBox="0 0 127 45" fill="none" xmlns="http://www.w3.org/2000/svg">
<path d="M43.8276 0.00102234H37.2695C36.2641 0.00102234 35.4468 0.827995 35.4468 1.84399V43.1562C35.4468 44.1741 36.2641 44.9992 37.2695 44.9992H43.8276C44.833 44.9992 45.6485 44.1741 45.6485 43.1562V1.84399C45.6485 0.827995 44.833 0.00102234 43.8276 0.00102234Z" fill="#00B900"/>
<path d="M88.9663 0.00102234H82.4083C81.4028 0.00102234 80.5873 0.827995 80.5873 1.84399V26.3878L61.9187 0.820724C61.8757 0.755295 61.8273 0.693497 61.7771 0.633518L61.7646 0.622612C61.7287 0.580811 61.6929 0.54446 61.6552 0.50811C61.6445 0.497204 61.6337 0.488117 61.6212 0.477211C61.5907 0.448132 61.5585 0.420868 61.5244 0.395424C61.5101 0.380882 61.4939 0.36998 61.4778 0.357254C61.4455 0.335445 61.4151 0.311821 61.3828 0.291828C61.3649 0.279102 61.347 0.2682 61.3273 0.259113C61.295 0.23912 61.2627 0.219128 61.2305 0.202766C61.2108 0.19368 61.1928 0.182777 61.1731 0.175507C61.1391 0.159149 61.105 0.142788 61.0692 0.130066C61.0477 0.122795 61.0297 0.115528 61.01 0.108257C60.9742 0.0955353 60.9383 0.0828133 60.9007 0.0737267C60.881 0.0664558 60.8595 0.0628204 60.838 0.0555496C60.8021 0.0482788 60.7681 0.0391922 60.734 0.0319214C60.7089 0.028286 60.682 0.0246506 60.6569 0.022831C60.6247 0.0155602 60.5924 0.0137444 60.5601 0.0101089C60.5297 0.00647354 60.4992 0.00647736 60.467 0.00466156C60.4437 0.00466156 60.4257 0.00102234 60.4024 0.00102234H53.8462C52.8407 0.00102234 52.0234 0.827995 52.0234 1.84399V43.1562C52.0234 44.1741 52.8407 44.9992 53.8462 44.9992H60.4024C61.4097 44.9992 62.2252 44.1741 62.2252 43.1562V18.6197L80.9171 44.2195C81.0461 44.4049 81.2056 44.5557 81.3795 44.6757C81.3849 44.6793 81.392 44.6848 81.3974 44.6902C81.435 44.7139 81.4727 44.7375 81.5103 44.7593C81.5282 44.7702 81.5444 44.7775 81.5623 44.7866C81.5892 44.8029 81.6196 44.8175 81.6483 44.8302C81.6788 44.8429 81.7057 44.8556 81.7379 44.8683C81.7559 44.8756 81.7738 44.8829 81.7917 44.8883C81.8347 44.9047 81.8742 44.9174 81.9154 44.9301C81.9243 44.9301 81.9333 44.9338 81.9423 44.9356C82.091 44.9756 82.2469 44.9992 82.4083 44.9992H88.9663C89.9735 44.9992 90.7872 44.1741 90.7872 43.1562V1.84399C90.7872 0.827995 89.9735 0.00102234 88.9663 0.00102234Z" fill="#00B900"/>
<path d="M28.019 34.6547H10.2V1.8466C10.2 0.826969 9.38447 0 8.38078 0H1.82098C0.815497 0 0 0.826969 0 1.8466V43.1516V43.1552C0 43.6514 0.195361 44.1003 0.509013 44.4311C0.516182 44.4402 0.523351 44.4493 0.534105 44.4584C0.543067 44.4675 0.552029 44.4747 0.56099 44.4838C0.888981 44.8037 1.32989 45 1.81918 45H1.82098H28.019C29.0245 45 29.8364 44.1712 29.8364 43.1516V36.5013C29.8364 35.4816 29.0245 34.6547 28.019 34.6547Z" fill="#00B900"/>
<path d="M125.183 10.3453C126.188 10.3453 127 9.52017 127 8.49873V1.84842C127 0.828785 126.188 0 125.183 0H98.9845H98.981C98.4899 0 98.0472 0.199924 97.7192 0.521626C97.712 0.528896 97.7031 0.534351 97.6977 0.541622C97.6869 0.552528 97.678 0.563431 97.669 0.574337C97.3571 0.905125 97.1636 1.35223 97.1636 1.8466V1.84842V43.1534V43.1552C97.1636 43.6514 97.3589 44.1003 97.6726 44.4311C97.6798 44.4402 97.6887 44.4511 97.6977 44.4584C97.7048 44.4675 97.7156 44.4766 97.7246 44.4838C98.0508 44.8019 98.4935 45 98.981 45H98.9845H125.183C126.188 45 127 44.1712 127 43.1534V36.5013C127 35.4835 126.188 34.6547 125.183 34.6547H107.365V27.6718H125.183C126.188 27.6718 127 26.8448 127 25.8252V19.1748C127 18.1552 126.188 17.3264 125.183 17.3264H107.365V10.3453H125.183Z" fill="#00B900"/>
</svg>
