<svg width="178" height="56" viewBox="0 0 178 56" fill="none" xmlns="http://www.w3.org/2000/svg">
<g clip-path="url(#clip0_1062_784)">
<path d="M46.28 0H8.9C3.98466 0 0 3.98466 0 8.9V46.28C0 51.1955 3.98466 55.18 8.9 55.18H46.28C51.1955 55.18 55.18 51.1955 55.18 46.28V8.9C55.18 3.98466 51.1955 0 46.28 0Z" fill="#FFD02F"/>
<path fill-rule="evenodd" clip-rule="evenodd" d="M37.3802 8.90002H32.0402L36.4902 16.91L26.7002 8.90002H21.3602L26.2552 18.69L16.0202 8.90002H10.6802L16.0202 21.36L10.6802 46.28H16.0202L26.2552 19.58L21.3602 46.28H26.7002L36.4902 17.8L32.0402 46.28H37.3802L47.1702 15.13L37.3802 8.90002Z" fill="#050038"/>
<path fill-rule="evenodd" clip-rule="evenodd" d="M163.76 12.46C172.66 12.46 178 19.1036 178 27.59C178 36.045 172.66 42.72 163.76 42.72C154.86 42.72 149.52 36.0764 149.52 27.59C149.52 19.1036 154.86 12.46 163.76 12.46ZM123.71 14.24V41.83H117.48V28.48V21.805V15.13L123.71 14.24ZM146.85 13.35V19.58L143.29 20.025C140.175 20.47 137.95 22.25 137.95 25.7921V41.83H131.72V25.7921C131.72 18.1738 136.17 14.685 143.29 13.795L146.85 13.35ZM84.5502 13.35C87.2202 13.35 89.981 14.4534 91.6702 16.91C93.3656 14.6729 96.1202 13.35 99.6802 13.35C104.13 13.35 109.47 16.02 109.47 24.92V41.83H103.24V24.92C103.24 21.805 101.3 19.58 98.3452 19.58C95.3904 19.58 93.4502 21.805 93.4502 24.92V41.83H87.2202V24.92C87.2202 21.805 85.2796 19.58 82.3252 19.58C79.3179 19.58 77.4302 21.805 77.4302 24.92V41.83H71.2002V24.92V15.13L77.4302 14.24V16.91C79.171 14.7698 80.9902 13.35 84.5502 13.35ZM163.76 18.69C158.42 18.69 155.75 22.6755 155.75 27.59C155.75 32.5045 158.42 36.49 163.76 36.49C169.1 36.49 171.77 32.485 171.77 27.59C171.77 22.6816 169.1 18.69 163.76 18.69ZM120.595 2.66998C122.82 2.66998 124.6 4.00498 124.6 6.67498C124.6 9.34498 122.82 10.68 120.595 10.68C118.37 10.68 116.59 9.34498 116.59 6.67498C116.59 4.00497 118.37 2.66998 120.595 2.66998Z" fill="#050038"/>
</g>
<defs>
<clipPath id="clip0_1062_784">
<rect width="178" height="55.18" fill="white"/>
</clipPath>
</defs>
</svg>
