<svg width="190" height="52" viewBox="0 0 190 52" fill="none" xmlns="http://www.w3.org/2000/svg">
<g clip-path="url(#clip0_1062_937)">
<path d="M26.1256 48.0836C23.2674 48.586 20.3589 48.7366 17.3503 49.1378L8.17352 22.2351V50.2924C5.31536 50.5934 2.70787 50.995 0 51.3965V0H7.62227L18.0522 29.1619V0H26.1256V48.0836ZM41.9213 18.822C45.0306 18.822 49.7943 18.6713 52.6525 18.6713V26.7019C49.092 26.7019 44.9302 26.7019 41.9213 26.8525V38.7984C46.6352 38.4973 51.3488 38.0954 56.1123 37.9448V45.6739L33.8979 47.431V0H56.1123V8.03071H41.9213V18.822ZM85.9486 8.0309H77.6246V44.9721C74.9168 44.9721 72.2089 44.9721 69.6018 45.0722V8.0309H61.2778V0H85.949L85.9486 8.0309ZM98.9863 18.27H109.968V26.3005H98.9863V44.5204H91.113V0H113.529V8.03071H98.9863V18.27ZM126.566 37.4933C131.13 37.5934 135.743 37.9454 140.206 38.1959V46.1263C133.035 45.6743 125.864 45.2232 118.543 45.0722V0H126.566V37.4933ZM146.975 46.6785C149.533 46.8293 152.24 46.9799 154.848 47.2806V0H146.975V46.6785ZM190 0L179.82 24.4435L190 51.3965C186.991 50.995 183.982 50.4428 180.974 49.9408L175.207 35.0843L169.341 48.7366C166.432 48.2342 163.624 48.0836 160.716 47.6821L171.045 24.1421L161.718 0H170.343L175.608 13.5016L181.225 0H190V0Z" fill="#D81F26"/>
</g>
<defs>
<clipPath id="clip0_1062_937">
<rect width="190" height="51.3965" fill="white"/>
</clipPath>
</defs>
</svg>
