<svg width="157" height="47" viewBox="0 0 157 47" fill="none" xmlns="http://www.w3.org/2000/svg">
<path fill-rule="evenodd" clip-rule="evenodd" d="M157 0H142.246L127.493 23.4883L142.246 46.9765H156.987L142.246 23.5L157 0Z" fill="black"/>
<path fill-rule="evenodd" clip-rule="evenodd" d="M111.213 0H125.967L142.247 23.5L125.967 47H111.213L127.493 23.5L111.213 0Z" fill="url(#paint0_radial_1062_803)"/>
<path fill-rule="evenodd" clip-rule="evenodd" d="M106.123 46.9765H76.7642V0H106.123V8.16156H87.5734V18.4759H104.833V26.6371H87.5734V38.7507H106.123V46.9765ZM40.2563 46.9765V0H51.0439V38.7507H71.6793V46.9765H40.2563Z" fill="black"/>
<path fill-rule="evenodd" clip-rule="evenodd" d="M30.0136 26.2516C26.5913 28.9296 21.7255 30.2681 15.4156 30.2681H10.7875V46.9765H0V22.0948L14.7538 22.1118C23.7873 22.0145 24.2594 16.9058 24.2594 15.1358C24.2594 13.4926 24.2594 8.24179 16.2292 8.15982L0 8.15996V0H16.2507C22.4215 0 27.1134 1.22642 30.3266 3.6792C33.5396 6.13203 35.1462 9.78953 35.1462 14.6521C35.1462 19.7079 33.4352 23.5742 30.0136 26.2516Z" fill="black"/>
<path fill-rule="evenodd" clip-rule="evenodd" d="M0 5.16742H10.7957V25.3203H0V5.16742Z" fill="black"/>
<defs>
<radialGradient id="paint0_radial_1062_803" cx="0" cy="0" r="1" gradientUnits="userSpaceOnUse" gradientTransform="translate(138.916 23.3872) scale(28.7063 43.475)">
<stop stop-color="#F9BE03"/>
<stop offset="1" stop-color="#CC7C19"/>
</radialGradient>
</defs>
</svg>
