<svg width="141" height="70" viewBox="0 0 141 70" fill="none" xmlns="http://www.w3.org/2000/svg">
<g clip-path="url(#clip0_1062_962)">
<path d="M0 69.7926H71.1898L141 0H0V69.7926Z" fill="#014185"/>
<path fill-rule="evenodd" clip-rule="evenodd" d="M83.6068 13.1173L69.8103 13.1146V46.1273L57.6694 13.1146H45.8044L35.3191 40.7236C34.2154 33.7689 27.0412 31.3651 21.2467 29.5657C17.6596 28.3569 13.5207 26.5796 13.7966 24.6367C13.7966 23.025 15.7281 21.5458 19.8671 21.7666C22.6264 21.9073 25.1097 22.1364 30.0765 24.5043L35.0432 16.0952C30.3524 13.8211 24.2819 12.3832 19.3152 12.3777C13.2447 12.3777 8.27802 14.2875 5.24279 17.453C3.31129 19.6553 1.93164 22.451 1.93164 25.5502C1.93164 29.8141 3.58722 32.8389 6.62244 35.2482C9.65767 37.2766 12.9688 38.5986 16.28 39.5673C20.143 40.7622 23.1782 41.7972 23.1782 44.0161C23.1782 44.8357 22.9023 45.5809 22.3504 46.1797C21.2467 47.1705 19.8671 47.5458 17.6596 47.5928C13.7966 47.6645 11.0373 47.0491 6.34651 44.3086L1.93164 52.8226C6.62244 55.4609 12.141 57.0119 17.6596 57.0119L18.4874 57.0064C23.1782 56.9181 27.3172 55.5244 30.3524 52.9909C30.6283 52.8419 30.6283 52.7039 30.9042 52.5659L29.5246 56.2723H42.2173L44.1489 49.8475C46.3563 50.5871 48.8397 51.0177 51.5989 51.0177C54.3582 51.0177 56.5657 50.6009 58.7731 49.8999L60.9805 56.2723H81.3993V42.9453H86.0901C96.8514 42.9453 103.198 37.4229 103.198 28.161C103.198 17.8504 97.1273 13.1173 83.6068 13.1173ZM51.5989 41.3804C49.9434 41.3804 48.5637 41.0934 47.1841 40.5911L51.5989 26.7038L56.0138 40.6353C54.6342 41.11 53.2545 41.3804 51.5989 41.3804ZM84.4346 33.3936H81.3993V22.1971H84.4346C88.5735 22.1971 91.8847 23.5521 91.8847 27.7388C91.8847 32.044 88.5735 33.3936 84.4346 33.3936Z" fill="white"/>
<path d="M88.5734 65.3328C88.5734 63.1994 90.229 61.5739 92.1605 61.5739C94.0921 61.5739 95.7476 63.1994 95.7476 65.3328C95.7476 67.5461 94.0921 69.1413 92.1605 69.1413C90.229 69.1413 88.5734 67.5461 88.5734 65.3328ZM92.1605 69.8975C94.6439 69.8975 96.8514 67.9628 96.8514 65.3328C96.8514 62.7413 94.6439 60.837 92.1605 60.837C89.6772 60.837 87.4697 62.7413 87.4697 65.3328C87.4697 67.9628 89.6772 69.8975 92.1605 69.8975ZM91.3328 65.7108H92.1605L93.5402 67.9628H94.368L92.9883 65.6667C93.5402 65.5729 94.368 65.1672 94.368 64.2399C94.368 63.1994 93.5402 62.7413 92.4365 62.7413H90.505V67.9628H91.3328V65.7108ZM91.3328 65.0375V63.4064H92.4365C92.7124 63.4064 93.5402 63.5334 93.5402 64.193C93.5402 64.985 92.7124 65.0375 92.1605 65.0375H91.3328Z" fill="#014185"/>
</g>
<defs>
<clipPath id="clip0_1062_962">
<rect width="141" height="69.8974" fill="white"/>
</clipPath>
</defs>
</svg>
