<svg width="200" height="35" viewBox="0 0 200 35" fill="none" xmlns="http://www.w3.org/2000/svg">
<g clip-path="url(#clip0_1183_2052)">
<path d="M20.2631 34.0789C18.421 34.4079 16.6447 33.2237 16.3158 31.3816L11.3158 4.07895C10.9868 2.23685 12.171 0.46053 14.0131 0.131582C15.8552 -0.197365 17.6316 0.986846 17.9605 2.82895L22.9605 30.1316C23.2895 31.9737 22.0395 33.75 20.2631 34.0789V34.0789Z" fill="#FF5543"/>
<path d="M7.17098 29.4079C5.98676 29.6053 4.80255 29.2105 3.94729 28.2895C2.76308 26.8421 2.89466 24.7368 4.34203 23.5526L25.4604 5.59211C26.9078 4.4079 29.0131 4.53948 30.1973 5.98685C31.3815 7.43422 31.2499 9.53948 29.8026 10.7237L8.74992 28.6842C8.2894 29.079 7.69729 29.3421 7.17098 29.4079V29.4079Z" fill="#A112FF"/>
<path d="M30.7894 25.0658C30.1973 25.1974 29.6052 25.1316 29.0789 24.9342L2.89471 15.6579C1.11839 15 0.197338 13.0921 0.855233 11.3158C1.51313 9.53947 3.42102 8.61842 5.19734 9.27631L31.3158 18.5526C33.0921 19.2105 34.0131 21.1184 33.3552 22.8947C32.9605 24.0789 31.9079 24.8684 30.7894 25.0658V25.0658Z" fill="#00CBEC"/>
<path d="M52.6316 21.7763C52.6316 21.1184 52.3684 20.5921 51.9079 20.1974C51.4474 19.8026 50.8552 19.4079 50.1316 19.079C49.4079 18.75 48.6184 18.4211 47.7631 18.0263C46.9079 17.6974 46.1184 17.2368 45.3947 16.7105C44.671 16.1842 44.0789 15.5263 43.6184 14.7368C43.1579 13.9474 42.8947 12.9605 42.8947 11.7763C42.8947 10.7237 43.0921 9.80264 43.421 9.07895C43.75 8.28948 44.2763 7.69737 44.9342 7.17106C45.5921 6.64474 46.3158 6.31579 47.2368 6.05263C48.0921 5.78948 49.0789 5.6579 50.1974 5.6579C51.4474 5.6579 52.6316 5.78948 53.6842 5.98685C54.7368 6.18421 55.7237 6.51316 56.3816 6.9079L55.0658 10.3947C54.6052 10.1316 53.9474 9.86842 53.0263 9.67106C52.1052 9.4079 51.1842 9.34211 50.1316 9.34211C49.1447 9.34211 48.421 9.53948 47.8947 9.93421C47.3684 10.329 47.1052 10.8553 47.1052 11.5132C47.1052 12.1053 47.3684 12.6316 47.8289 13.0263C48.2895 13.4211 48.8816 13.8158 49.6053 14.1447C50.3289 14.4737 51.1184 14.8684 51.9737 15.1974C52.8289 15.5921 53.6184 15.9868 54.3421 16.5132C55.0658 17.0395 55.6579 17.6974 56.1184 18.4211C56.5789 19.2105 56.8421 20.1316 56.8421 21.25C56.8421 22.3684 56.6447 23.3553 56.25 24.2105C55.8552 25.0658 55.3289 25.7237 54.671 26.25C54.0131 26.7763 53.1579 27.2368 52.171 27.5C51.1842 27.7632 50.1316 27.8947 48.9474 27.8947C47.4342 27.8947 46.0526 27.7632 44.9342 27.4342C43.75 27.1711 42.8947 26.8421 42.3684 26.579L43.6842 23.0263C43.8816 23.1579 44.2105 23.2895 44.5395 23.4211C44.8684 23.5526 45.3289 23.6842 45.7237 23.8158C46.1842 23.9474 46.6447 24.0132 47.171 24.1447C47.6974 24.2105 48.1579 24.2763 48.6842 24.2763C49.9342 24.2763 50.8553 24.079 51.5131 23.6184C52.3026 23.2237 52.6316 22.6316 52.6316 21.7763V21.7763ZM58.6184 19.8684C58.6184 17.3026 59.2763 15.2632 60.5263 13.8816C61.7763 12.5 63.5526 11.7763 65.8552 11.7763C67.1052 11.7763 68.1579 11.9737 69.0131 12.3684C69.9342 12.7632 70.6579 13.2895 71.25 14.0132C71.8421 14.7368 72.3026 15.5921 72.5658 16.579C72.8289 17.5658 73.0263 18.6842 73.0263 19.8684C73.0263 22.4342 72.3684 24.4737 71.1184 25.8553C69.8684 27.2368 68.0921 27.9605 65.7895 27.9605C64.5395 27.9605 63.4868 27.7632 62.6316 27.3684C61.7105 26.9737 60.9868 26.4474 60.3947 25.7237C59.8026 25 59.3421 24.1447 59.0789 23.1579C58.75 22.1711 58.6184 21.0526 58.6184 19.8684V19.8684ZM62.6974 19.8684C62.6974 20.5263 62.7631 21.1842 62.8947 21.7105C63.0263 22.3026 63.2237 22.7632 63.421 23.2237C63.6842 23.6842 64.0131 24.0132 64.4079 24.2105C64.8026 24.4737 65.2631 24.5395 65.8552 24.5395C66.9079 24.5395 67.6974 24.1447 68.1579 23.4211C68.6842 22.6974 68.9474 21.4474 68.9474 19.8684C68.9474 18.4868 68.6842 17.3026 68.2237 16.4474C67.7631 15.5921 66.9737 15.1316 65.8552 15.1316C64.8684 15.1316 64.0789 15.5263 63.5526 16.25C62.9605 16.9737 62.6974 18.1579 62.6974 19.8684V19.8684ZM79.0131 12.2368V20.9211C79.0131 22.1711 79.1447 23.0921 79.4737 23.6184C79.7368 24.1447 80.3289 24.4737 81.1842 24.4737C81.9079 24.4737 82.5658 24.2763 83.0921 23.8158C83.6184 23.3553 83.9474 22.829 84.2105 22.1711V12.3026H88.1579V22.9605C88.1579 23.8158 88.2237 24.6053 88.2895 25.3947C88.3552 26.1842 88.4868 26.9079 88.6842 27.5658H85.6579L84.9342 25.329H84.8026C84.3421 26.1184 83.6842 26.7763 82.8289 27.2368C81.9737 27.7632 80.9868 28.0263 79.8684 28.0263C79.0789 28.0263 78.421 27.8947 77.7631 27.6974C77.171 27.5 76.6447 27.1711 76.25 26.7105C75.8552 26.25 75.5263 25.5921 75.3289 24.8026C75.1316 24.0132 75 22.9605 75 21.7105V12.2368H79.0131ZM99.671 15.9211C99.0131 15.7237 98.4868 15.5921 97.9605 15.5921C97.2368 15.5921 96.6447 15.7895 96.1842 16.1842C95.7237 16.579 95.3947 17.0395 95.1974 17.6316V27.5H91.25V12.2368H94.3421L94.8026 14.2763H94.9342C95.2631 13.5526 95.7237 12.9605 96.3158 12.5C96.9079 12.0395 97.6316 11.9079 98.421 11.9079C98.9474 11.9079 100.066 12.1711 100.658 12.4342L99.671 15.9211V15.9211ZM112.566 26.579C111.974 27.0395 111.184 27.3684 110.329 27.6316C109.474 27.8947 108.553 27.9605 107.632 27.9605C106.382 27.9605 105.395 27.7632 104.539 27.3684C103.684 26.9737 103.026 26.4474 102.5 25.7237C101.974 25 101.579 24.1447 101.382 23.1579C101.118 22.1711 101.053 21.0526 101.053 19.8684C101.053 17.3026 101.645 15.2632 102.829 13.8816C104.013 12.5 105.658 11.7763 107.895 11.7763C109.013 11.7763 109.934 11.8421 110.592 12.0395C111.25 12.2368 111.908 12.4342 112.434 12.7632L111.513 15.9868C111.053 15.7895 110.592 15.5921 110.132 15.4605C109.671 15.329 109.145 15.2632 108.553 15.2632C107.434 15.2632 106.645 15.6579 106.053 16.3816C105.461 17.1053 105.197 18.2895 105.197 19.8684C105.197 20.5263 105.263 21.1184 105.395 21.6447C105.526 22.1711 105.724 22.6974 106.053 23.0921C106.316 23.4868 106.711 23.8158 107.171 24.079C107.632 24.3421 108.158 24.4079 108.75 24.4079C109.408 24.4079 110 24.3421 110.461 24.1447C110.921 23.9474 111.316 23.75 111.711 23.4868L112.566 26.579V26.579ZM126.579 26.1842C125.987 26.6447 125.132 27.1053 124.079 27.4342C123.026 27.7632 121.908 27.9605 120.724 27.9605C118.224 27.9605 116.447 27.2368 115.329 25.7895C114.211 24.3421 113.618 22.3684 113.618 19.8684C113.618 17.1711 114.276 15.1316 115.526 13.8158C116.776 12.5 118.618 11.7763 120.921 11.7763C121.711 11.7763 122.434 11.9079 123.158 12.1053C123.882 12.3026 124.539 12.6316 125.132 13.0921C125.724 13.5526 126.184 14.2105 126.513 15C126.842 15.7895 127.039 16.7763 127.039 17.9605C127.039 18.4211 127.039 18.8158 126.974 19.3421C126.908 19.8026 126.842 20.329 126.776 20.8553H117.566C117.632 22.1711 117.961 23.0921 118.553 23.75C119.145 24.4079 120.132 24.7368 121.447 24.7368C122.303 24.7368 123.026 24.6053 123.684 24.3421C124.342 24.079 124.868 23.8158 125.197 23.5526L126.579 26.1842V26.1842ZM120.855 14.9342C119.803 14.9342 119.013 15.2632 118.553 15.8553C118.026 16.4474 117.763 17.3026 117.632 18.3553H123.289C123.355 17.2368 123.224 16.3816 122.763 15.7895C122.434 15.2632 121.776 14.9342 120.855 14.9342V14.9342ZM142.5 27.5C142.5 29.7368 141.908 31.3816 140.724 32.4342C139.539 33.4868 137.829 34.0132 135.658 34.0132C134.211 34.0132 133.026 33.8816 132.171 33.6842C131.316 33.4868 130.658 33.2895 130.263 33.0263L131.118 29.8684C131.579 30.0658 132.105 30.2632 132.763 30.3947C133.421 30.5263 134.145 30.6579 135.066 30.6579C136.447 30.6579 137.368 30.329 137.895 29.7368C138.421 29.1447 138.618 28.2895 138.618 27.2368V26.3158H138.487C137.763 27.3026 136.513 27.7632 134.671 27.7632C132.697 27.7632 131.25 27.1711 130.263 25.9211C129.276 24.6711 128.816 22.7632 128.816 20.1974C128.816 17.4342 129.474 15.3947 130.789 14.0132C132.105 12.6316 134.013 11.9079 136.447 11.9079C137.763 11.9079 138.947 11.9737 139.934 12.1711C140.921 12.3684 141.776 12.5658 142.434 12.829V27.5H142.5V27.5ZM135.789 24.5395C136.579 24.5395 137.171 24.3421 137.566 24.0132C137.961 23.6842 138.289 23.1579 138.553 22.4342V15.5921C137.895 15.329 137.105 15.1974 136.184 15.1974C135.132 15.1974 134.342 15.5921 133.816 16.3158C133.224 17.1053 132.961 18.2895 132.961 20C132.961 21.5132 133.224 22.6316 133.684 23.4211C134.145 24.2105 134.868 24.5395 135.789 24.5395V24.5395ZM154.013 15.9211C153.355 15.7237 152.829 15.5921 152.303 15.5921C151.579 15.5921 150.987 15.7895 150.526 16.1842C150.066 16.579 149.737 17.0395 149.539 17.6316V27.5H145.592V12.2368H148.684L149.145 14.2763H149.276C149.605 13.5526 150.066 12.9605 150.658 12.5C151.25 12.0395 151.974 11.9079 152.763 11.9079C153.289 11.9079 153.882 12.0395 154.539 12.2368L154.013 15.9211V15.9211ZM155.921 12.9605C156.711 12.5658 157.303 12.4342 158.421 12.2368C159.539 12.0395 160.724 11.9079 161.908 11.9079C162.961 11.9079 163.882 12.0395 164.539 12.3026C165.197 12.5658 165.789 12.8947 166.25 13.4211C166.645 13.8816 166.974 14.4737 167.105 15.1316C167.303 15.7895 167.368 16.5132 167.368 17.3026C167.368 18.2237 167.368 19.079 167.303 20C167.237 20.9211 167.237 21.7763 167.171 22.6974C167.171 23.5526 167.171 24.4079 167.237 25.2632C167.303 26.1184 167.434 26.8421 167.697 27.6316H164.474L163.816 25.5263C163.421 26.1842 162.829 26.7105 162.105 27.1711C161.382 27.6316 160.461 27.829 159.276 27.829C158.553 27.829 157.895 27.6974 157.368 27.5C156.776 27.3026 156.316 26.9737 155.921 26.579C155.526 26.1842 155.197 25.7237 155 25.1974C154.803 24.6711 154.671 24.079 154.671 23.3553C154.671 22.4342 154.868 21.6447 155.329 20.9868C155.789 20.329 156.316 19.8026 157.105 19.4079C157.895 19.0132 158.816 18.75 159.934 18.5526C161.053 18.3553 162.237 18.3553 163.618 18.4211C163.75 17.3026 163.684 16.4474 163.355 15.9868C163.026 15.4605 162.368 15.2632 161.316 15.2632C160.526 15.2632 159.671 15.329 158.816 15.5263C157.961 15.7237 157.566 15.7895 157.039 16.0526L155.921 12.9605ZM160.592 24.4737C161.382 24.4737 162.039 24.2763 162.5 23.9474C162.961 23.6184 163.289 23.2237 163.553 22.829V20.8553C162.895 20.7895 162.303 20.7895 161.711 20.8553C161.118 20.9211 160.592 20.9868 160.197 21.1184C159.803 21.25 159.408 21.4474 159.145 21.7105C158.882 21.9737 158.75 22.3026 158.75 22.6974C158.75 23.2895 158.947 23.6842 159.276 24.0132C159.539 24.3421 160 24.4737 160.592 24.4737ZM170.461 12.2368H173.355L173.816 14.079H173.947C174.474 13.2895 175.132 12.7632 175.855 12.3684C176.579 11.9737 177.434 11.8421 178.487 11.8421C180.395 11.8421 181.842 12.4342 182.829 13.6842C183.816 14.9342 184.276 16.8421 184.276 19.5395C184.276 20.8553 184.145 22.0395 183.816 23.0921C183.487 24.1447 183.026 25.0658 182.434 25.7895C181.842 26.5132 181.118 27.1053 180.263 27.5C179.408 27.8947 178.421 28.0921 177.303 28.0921C176.645 28.0921 176.118 28.0263 175.724 27.9605C175.329 27.8947 174.934 27.6974 174.474 27.5V33.75H170.526V12.2368H170.461V12.2368ZM177.237 15.1316C176.447 15.1316 175.855 15.329 175.395 15.7237C174.934 16.1184 174.605 16.7105 174.342 17.5V23.8816C174.605 24.079 174.934 24.2763 175.263 24.4079C175.592 24.5395 176.053 24.6053 176.579 24.6053C177.697 24.6053 178.553 24.2105 179.145 23.4211C179.737 22.6316 180 21.3158 180 19.4079C180 18.0921 179.803 17.0395 179.342 16.3158C178.947 15.5263 178.224 15.1316 177.237 15.1316V15.1316ZM195.789 27.5V18.8158C195.789 17.5658 195.592 16.6447 195.263 16.1184C194.934 15.5921 194.276 15.2632 193.355 15.2632C192.697 15.2632 192.039 15.4605 191.513 15.9211C190.921 16.3816 190.592 16.9737 190.395 17.6974V27.4342H186.447V6.11842H190.395V13.9474H190.526C190.987 13.2895 191.645 12.7632 192.303 12.3684C193.026 11.9737 193.947 11.7763 195 11.7763C195.789 11.7763 196.447 11.9079 197.039 12.1053C197.632 12.3026 198.158 12.6316 198.553 13.0921C198.947 13.5526 199.276 14.2105 199.408 15C199.539 15.7895 199.671 16.7763 199.671 17.9605V27.5H195.789V27.5Z" fill="black"/>
</g>
<defs>
<clipPath id="clip0_1183_2052">
<rect width="200" height="34.2105" fill="white"/>
</clipPath>
</defs>
</svg>
