<svg width="223" height="49" viewBox="0 0 223 49" fill="none" xmlns="http://www.w3.org/2000/svg">
<path d="M78.2647 11.8893H68.4477C67.5607 11.8911 66.8318 12.6221 66.8309 13.5103V15.7074C66.8486 16.2879 67.3307 16.7556 67.9105 16.7542H69.529C69.5774 16.7545 69.6228 16.7783 69.6508 16.818C69.6683 16.8426 69.6799 16.871 69.6847 16.9008C69.6894 16.9306 69.6872 16.9612 69.6781 16.99L65.8321 28.537C65.8145 28.5721 65.7872 28.6013 65.7534 28.6212C65.7196 28.6411 65.6808 28.6507 65.6417 28.6489C65.6078 28.6508 65.5744 28.6405 65.5474 28.62C65.5203 28.5996 65.5014 28.5701 65.494 28.537L59.7531 12.9172V12.9086C59.676 12.7199 59.5477 12.5566 59.3827 12.4372C59.2177 12.3178 59.0225 12.2472 58.8195 12.2332H55.3526C55.1489 12.2465 54.9531 12.3169 54.7874 12.4363C54.6218 12.5558 54.4929 12.7194 54.4156 12.9086V12.9172L48.6644 28.537C48.6581 28.5721 48.6394 28.6038 48.6117 28.6263C48.5839 28.6487 48.549 28.6603 48.5134 28.659C48.4743 28.6609 48.4354 28.6513 48.4016 28.6315C48.3678 28.6117 48.3404 28.5824 48.3228 28.5474L44.4785 16.9915C44.4696 16.9625 44.4677 16.9317 44.4731 16.9018C44.4785 16.8719 44.4909 16.8437 44.5093 16.8196C44.5225 16.7998 44.5404 16.7837 44.5613 16.7726C44.5823 16.7615 44.6057 16.7558 44.6294 16.756H46.2497C46.829 16.7573 47.3107 16.2894 47.3275 15.7091V13.5103C47.3275 12.6217 46.5979 11.8902 45.7107 11.8893H35.8936C35.7226 11.8892 35.554 11.9302 35.402 12.0089C35.25 12.0875 35.119 12.2016 35.0202 12.3414C34.9255 12.4695 34.8622 12.618 34.8353 12.7751C34.8085 12.9322 34.8189 13.0934 34.8657 13.2457C35.0047 13.6463 35.1678 14.131 35.3359 14.621C35.5041 15.111 35.6621 15.5853 35.8112 16.0151C35.8799 16.2259 36.0126 16.4099 36.1908 16.5415C36.3689 16.6731 36.5837 16.7457 36.805 16.7492H38.4577C38.4997 16.7487 38.5409 16.7611 38.5756 16.7848C38.6103 16.8085 38.6369 16.8423 38.6518 16.8816L46.2667 39.3673C46.3344 39.5788 46.4668 39.7637 46.6451 39.8958C46.8234 40.0278 47.0387 40.1004 47.2605 40.1032H49.622C49.8371 40.102 50.0467 40.0357 50.2234 39.913C50.4002 39.7903 50.5357 39.6169 50.6123 39.4156C52.7147 33.335 56.7256 21.7432 56.8836 21.3479C56.895 21.3052 56.9203 21.2675 56.9554 21.2408C56.9905 21.214 57.0334 21.1997 57.0775 21.2C57.1194 21.1991 57.1605 21.2115 57.1947 21.2357C57.229 21.2598 57.2546 21.2942 57.2679 21.334C57.4292 21.7432 61.4419 33.335 63.5408 39.4086C63.6159 39.6121 63.751 39.788 63.9282 39.913C64.1053 40.0379 64.3162 40.106 64.5328 40.1083H66.8944C67.1165 40.1052 67.3321 40.0324 67.5107 39.9001C67.6893 39.7678 67.822 39.5827 67.89 39.3708L75.5032 16.8953C75.5771 16.7629 75.661 16.7629 75.6989 16.7629H77.3498C77.5697 16.7601 77.7832 16.6888 77.9607 16.5588C78.1382 16.4288 78.2708 16.2466 78.3401 16.0376C78.5005 15.5735 78.659 15.1087 78.8156 14.6433C78.9752 14.1687 79.1504 13.6582 79.2876 13.268C79.3362 13.1151 79.3476 12.9529 79.321 12.7947C79.2945 12.6366 79.2306 12.4871 79.1347 12.3586C79.0382 12.216 78.9086 12.0988 78.7572 12.0171C78.6057 11.9354 78.4368 11.8916 78.2647 11.8893V11.8893ZM193.182 35.5733H191.394C191.26 35.5702 191.134 35.5157 191.04 35.4212C190.946 35.3267 190.892 35.1995 190.889 35.0661V12.9036C190.885 12.7144 190.807 12.5343 190.673 12.4016C190.538 12.2689 190.357 12.1942 190.168 12.1933L190.146 12.1935H184.952C184.843 12.1953 184.736 12.2202 184.637 12.2668C184.538 12.3133 184.45 12.3803 184.379 12.4634L182.22 15.1659C182.118 15.2949 182.063 15.4545 182.063 15.6189C182.064 15.8066 182.136 15.9869 182.266 16.1226C182.395 16.2584 182.572 16.3392 182.759 16.3486H183.433C183.568 16.3561 183.694 16.4129 183.789 16.508C183.884 16.6032 183.941 16.73 183.948 16.8644V34.9975C183.941 35.1424 183.895 35.2826 183.814 35.4032C183.24 36.1474 181.992 37.7015 181.386 38.4787C181.269 38.6123 181.204 38.7841 181.204 38.9618C181.205 39.154 181.281 39.3381 181.416 39.4749C181.55 39.6117 181.733 39.6903 181.925 39.694H191.023C191.118 39.7013 191.214 39.6868 191.303 39.6517C191.393 39.6165 191.473 39.5617 191.538 39.4911L193.662 36.8231C194.126 36.2816 193.789 35.5733 193.182 35.5733V35.5733Z" fill="#7F187F"/>
<path d="M187.381 9.22126C189.542 9.22126 191.294 7.46641 191.294 5.3017C191.294 3.13699 189.542 1.38214 187.381 1.38214C185.22 1.38214 183.468 3.13699 183.468 5.3017C183.468 7.46641 185.22 9.22126 187.381 9.22126Z" fill="#7F187F"/>
<path d="M221.817 14.4903C221.817 14.1191 221.614 13.7476 221.108 13.7476H220.198V16.1458H220.542V15.2673H220.845L221.453 16.1458H221.856L221.216 15.2346C221.648 15.2004 221.817 14.8289 221.817 14.4903ZM220.535 14.9305V14.052H221.142C221.196 14.0544 221.249 14.068 221.297 14.0917C221.345 14.1155 221.388 14.149 221.423 14.1902C221.458 14.2313 221.484 14.2792 221.499 14.3309C221.515 14.3825 221.519 14.4368 221.513 14.4903C221.519 14.5457 221.513 14.6017 221.496 14.6547C221.478 14.7076 221.45 14.7564 221.413 14.7979C221.376 14.8394 221.331 14.8726 221.28 14.8954C221.229 14.9182 221.174 14.9302 221.119 14.9305H221.108H220.535Z" fill="#7F187F"/>
<path d="M220.94 12.8691C219.81 12.8691 218.88 13.8003 218.88 14.9322C218.88 16.0638 219.81 16.9951 220.94 16.9951C222.069 16.9951 222.999 16.0638 222.999 14.9322C222.999 13.8003 222.069 12.8691 220.94 12.8691ZM220.94 16.6874H220.927C219.972 16.6874 219.186 15.8996 219.186 14.9426V14.9304C219.185 14.9176 219.185 14.9048 219.185 14.8922C219.185 13.9491 219.96 13.1731 220.901 13.1731L220.94 13.1735C221.902 13.1735 222.694 13.9665 222.694 14.9304C222.694 15.8941 221.902 16.6874 220.94 16.6874V16.6874ZM103.895 35.6749C102.378 35.7417 101.635 35.0319 101.635 33.3092V20.8766C101.635 15.4374 97.0816 11.9907 91.955 11.9907C83.9951 11.9907 81.1289 15.7727 80.7993 19.9984C80.7942 20.0982 80.8094 20.198 80.8439 20.2918C80.8785 20.3856 80.9316 20.4714 81.0002 20.544C81.0688 20.6166 81.1513 20.6746 81.2429 20.7143C81.3344 20.7541 81.4331 20.7748 81.5328 20.7753H85.4539C85.6343 20.7697 85.8063 20.6977 85.9371 20.5731C86.0679 20.4485 86.1482 20.2799 86.1627 20.0997C86.3652 17.9027 87.848 16.2817 90.3109 16.2817C93.0431 16.2817 94.696 17.6671 94.696 20.808V23.5121H93.2782C88.3886 23.5121 85.0162 24.1535 82.7558 25.5751C80.4956 26.9968 79.3491 29.6304 79.3491 32.7042C79.3491 34.9681 80.1248 36.8299 81.6763 38.3118C83.2278 39.7937 85.0488 40.4418 87.4448 40.4418C88.8717 40.4437 90.2804 40.1198 91.5637 39.4947C92.8279 38.9303 93.9992 38.1768 95.0373 37.2599C95.0951 37.205 95.1649 37.1643 95.241 37.141C95.3172 37.1177 95.3977 37.1124 95.4762 37.1256C95.5548 37.1387 95.6292 37.17 95.6936 37.2168C95.7581 37.2637 95.8108 37.3249 95.8476 37.3956C96.9613 39.3554 98.1748 39.9966 100.502 39.9966C102.594 39.9966 103.605 38.0368 104.516 36.8542C104.839 36.3829 104.468 35.6404 103.895 35.6749V35.6749ZM94.72 33.6807H94.6874C94.6874 33.8526 94.4179 34.0863 94.3166 34.1877C93.6784 34.724 92.9756 35.178 92.2245 35.5389C91.5428 35.8296 90.806 35.968 90.0655 35.9446C88.9877 35.9446 87.9082 35.5389 87.1993 34.762C86.4808 33.968 86.0943 32.9279 86.1198 31.8566C86.1198 30.2339 86.7273 29.1541 87.9408 28.3427C89.1541 27.5314 91.145 27.1619 93.5391 27.1619H94.7183L94.72 33.6807ZM178.509 35.6749C176.992 35.7417 176.249 35.0319 176.249 33.3092V20.8766C176.249 15.4374 171.696 11.9907 166.569 11.9907C158.609 11.9907 155.743 15.7727 155.414 19.9984C155.409 20.0982 155.424 20.198 155.458 20.2918C155.493 20.3856 155.546 20.4714 155.614 20.544C155.683 20.6166 155.766 20.6746 155.857 20.7143C155.949 20.7541 156.047 20.7748 156.147 20.7753H160.068C160.249 20.7698 160.421 20.6978 160.551 20.5732C160.682 20.4485 160.762 20.28 160.777 20.0997C160.979 17.9027 162.464 16.2817 164.925 16.2817C167.658 16.2817 169.31 17.6671 169.31 20.808V23.5121H167.894C163.003 23.5121 159.63 24.1535 157.37 25.5751C155.11 26.9968 153.951 29.6269 153.951 32.7007C153.951 34.9648 154.727 36.8266 156.279 38.3085C157.83 39.7902 159.651 40.4385 162.047 40.4385C163.474 40.4402 164.883 40.1162 166.166 39.4911C167.43 38.927 168.602 38.1734 169.64 37.2563C169.698 37.2017 169.767 37.1612 169.843 37.138C169.92 37.1148 170 37.1096 170.078 37.1227C170.157 37.1359 170.231 37.167 170.296 37.2138C170.36 37.2605 170.413 37.3215 170.45 37.3921C171.564 39.3519 172.777 39.993 175.104 39.993C177.196 39.993 178.207 38.0333 179.119 36.8506C179.453 36.3829 179.083 35.6404 178.509 35.6749V35.6749ZM169.336 33.6807H169.302C169.302 33.8526 169.032 34.0863 168.931 34.1877C168.293 34.7241 167.59 35.178 166.839 35.5389C166.158 35.8296 165.421 35.968 164.681 35.9446C163.602 35.9446 162.522 35.5389 161.813 34.762C161.095 33.9679 160.709 32.9279 160.734 31.8566C160.734 30.2339 161.342 29.1541 162.555 28.3427C163.768 27.5314 165.759 27.1601 168.155 27.1601H169.336V33.6807ZM215.496 12.0973C215.134 11.9048 214.225 11.8172 213.437 11.8172C212.158 11.8172 211.152 11.9891 210.272 12.3672L210.202 12.3981C209.87 12.5476 209.553 12.7295 209.256 12.9413C208.148 13.631 207.155 14.4895 206.311 15.4858C205.467 16.4819 205.932 15.7709 205.867 15.2913V12.8263C205.864 12.6338 205.786 12.4499 205.65 12.3138C205.515 12.1776 205.331 12.0999 205.139 12.0973H199.913C199.81 12.0971 199.708 12.1202 199.615 12.1649C199.522 12.2096 199.44 12.2746 199.376 12.3553C199.245 12.5184 197.737 14.4095 197.198 15.1057C196.878 15.5149 197.072 16.2918 197.771 16.2918H198.423C198.559 16.2947 198.688 16.35 198.784 16.4461C198.88 16.5422 198.935 16.6718 198.938 16.8077V35.0301C198.939 35.1743 198.897 35.3155 198.818 35.4358C198.303 36.0684 196.997 37.717 196.358 38.5301C196.259 38.6586 196.205 38.8165 196.205 38.9791C196.206 39.1699 196.281 39.353 196.414 39.4896C196.547 39.6262 196.727 39.7056 196.918 39.7112H208.185C208.378 39.7103 208.562 39.6332 208.699 39.4967C208.835 39.3602 208.912 39.1754 208.913 38.9824V36.273C208.912 36.08 208.835 35.8951 208.699 35.7586C208.562 35.6221 208.378 35.5451 208.185 35.5442H206.397C206.26 35.5436 206.13 35.489 206.033 35.3924C205.937 35.2958 205.883 35.165 205.882 35.0284V24.4232C206.086 19.3777 209.091 17.8391 210.535 17.3886L210.742 17.3268L210.799 17.3131C211.191 17.2106 211.595 17.1569 212 17.1531C213.717 17.1531 214.355 17.4093 215.289 17.6499C215.677 17.7497 216.016 17.3233 216.016 16.9211V12.7952C216.006 12.4771 215.75 12.2315 215.496 12.0973V12.0973ZM154.169 12.1935H145.995C145.86 12.1907 145.732 12.1352 145.637 12.0389C145.542 11.9425 145.489 11.813 145.488 11.6779V7.63274C145.488 5.67296 146.501 3.71318 148.591 3.71318C150.953 3.71318 151.324 5.7074 151.425 7.22706C151.438 7.41118 151.517 7.58449 151.647 7.715C151.777 7.8455 151.95 7.9244 152.134 7.93712H155.506C155.69 7.92877 155.863 7.84934 155.989 7.71559C156.115 7.58184 156.185 7.40422 156.183 7.22022C156.114 2.15909 152.91 0 147.749 0C144.612 0 142.556 0.979779 141.004 2.87268C139.452 4.76536 138.677 6.85581 138.677 10.6396V11.6538C138.674 11.7869 138.619 11.9135 138.525 12.0076C138.431 12.1017 138.305 12.156 138.172 12.1593L124.222 12.1935L124.2 12.1933C124.011 12.1941 123.83 12.2688 123.695 12.4015C123.561 12.5342 123.483 12.7144 123.479 12.9036V15.6438C123.482 15.8401 123.562 16.0275 123.7 16.1661C123.839 16.3048 124.026 16.3839 124.222 16.3865H125.719C125.854 16.3884 125.984 16.4435 126.079 16.5399C126.175 16.6364 126.228 16.7664 126.229 16.9021C126.229 16.9688 126.216 17.0348 126.191 17.0964C126.166 17.1582 122.346 26.0495 120.795 29.6304C120.755 29.7224 120.689 29.8006 120.605 29.8556C120.521 29.9106 120.423 29.94 120.323 29.9401C120.223 29.94 120.125 29.9107 120.041 29.8557C119.957 29.8007 119.891 29.7224 119.851 29.6304C118.265 26.0203 114.387 17.0964 114.387 17.0964C114.361 17.0347 114.349 16.9687 114.349 16.9021C114.349 16.7664 114.403 16.6364 114.498 16.5399C114.594 16.4435 114.723 16.3884 114.859 16.3865H115.904C116.1 16.3839 116.287 16.3048 116.426 16.1661C116.564 16.0275 116.644 15.8401 116.647 15.6438V12.9036C116.643 12.7144 116.565 12.5342 116.431 12.4015C116.296 12.2688 116.115 12.1941 115.926 12.1933L115.904 12.1935H103.287C103.094 12.1973 102.91 12.2766 102.775 12.4143C102.639 12.5521 102.563 12.7375 102.562 12.9309C102.562 13.0508 102.592 13.1689 102.647 13.2748C103.018 13.9504 103.861 15.539 104.097 16.0117C104.16 16.1196 104.248 16.2101 104.354 16.2749C104.46 16.3398 104.581 16.3769 104.705 16.383H107.134C107.337 16.3821 107.522 16.5017 107.606 16.6874C107.689 16.873 116.576 36.8712 116.914 37.5795C117.259 38.4812 117.255 39.479 116.904 40.3782C116.494 42.0252 113.729 44.9785 112.209 44.4525C111.155 44.0881 111.019 42.1883 109.771 41.9444C109.54 41.9047 109.301 41.9328 109.085 42.0252C108.867 42.1111 106.828 44.7361 106.38 45.1968C106.269 45.3353 106.208 45.5079 106.208 45.6859C106.208 45.8638 106.269 46.0364 106.38 46.175C107.499 47.3252 109.373 48.8793 112.07 48.9806C115.392 49.1148 118.681 48.6694 121.706 42.8916C121.706 42.8916 131.369 19.2435 132.519 16.6874C132.567 16.6049 132.636 16.5365 132.719 16.4892C132.802 16.4418 132.895 16.417 132.991 16.4174H138.09C138.224 16.418 138.353 16.4711 138.45 16.5655C138.546 16.6599 138.601 16.7881 138.605 16.9229V35.0988C138.607 35.2453 138.56 35.3884 138.471 35.5045C137.863 36.2816 136.648 37.8031 136.042 38.58C135.937 38.7092 135.88 38.8708 135.88 39.0375C135.881 39.2292 135.957 39.4128 136.092 39.5483C136.228 39.6838 136.411 39.7604 136.602 39.7613L136.616 39.7611H148.015C148.211 39.7588 148.398 39.6799 148.537 39.5412C148.676 39.4024 148.755 39.2148 148.758 39.0183V36.3161C148.755 36.1196 148.676 35.932 148.537 35.7932C148.398 35.6545 148.211 35.5756 148.015 35.5733H146.057C145.923 35.5701 145.797 35.5156 145.703 35.4211C145.609 35.3266 145.555 35.1995 145.552 35.0661V16.8902C145.555 16.7569 145.609 16.6297 145.703 16.5352C145.797 16.4407 145.923 16.3862 146.057 16.383H152.074C152.183 16.381 152.29 16.356 152.389 16.3094C152.488 16.2629 152.576 16.196 152.647 16.1131C153.162 15.4374 154.192 14.0864 154.739 13.3763C154.838 13.2479 154.892 13.0898 154.892 12.9276C154.891 12.7349 154.815 12.5503 154.68 12.4131C154.545 12.2759 154.362 12.1971 154.169 12.1935V12.1935Z" fill="#7F187F"/>
<path d="M31.1633 20.9386L29.1965 13.5034C29.1643 13.3793 29.0997 13.2661 29.0092 13.1754C28.9187 13.0848 28.8056 13.02 28.6817 12.9878L21.2588 11.0177C21.1381 10.9864 21.0114 10.9871 20.8911 11.0197C20.7708 11.0522 20.661 11.1155 20.5724 11.2033L15.5952 16.1887L26.0042 26.6151L30.9813 21.6297C31.0689 21.5402 31.1317 21.4294 31.1636 21.3083C31.1955 21.1871 31.1954 21.0598 31.1633 20.9386V20.9386Z" fill="#82D170"/>
<path d="M0.0237723 32.295L1.99221 39.7284C2.02438 39.8526 2.08909 39.9658 2.17962 40.0565C2.27016 40.1472 2.38325 40.212 2.50718 40.2442L9.93163 42.2159C10.0525 42.2468 10.1793 42.2458 10.2996 42.213C10.42 42.1801 10.5298 42.1166 10.6183 42.0285L15.5954 37.0431L5.18803 26.6152L0.210854 31.6006C0.121842 31.6899 0.0577331 31.801 0.02491 31.9228C-0.00791309 32.0446 -0.00830533 32.173 0.0237723 32.295V32.295Z" fill="#F8CF1C"/>
<path d="M9.9249 11.0177L2.50222 12.9894C2.37828 13.0216 2.2652 13.0864 2.17466 13.1771C2.08412 13.2678 2.01942 13.3811 1.98725 13.5052L0.0238772 20.9351C-0.00697634 21.0562 -0.00595836 21.1832 0.0268317 21.3037C0.0596217 21.4243 0.123063 21.5342 0.210959 21.6229L5.18813 26.6083L15.5955 16.1837L10.6184 11.1982C10.5285 11.1103 10.4172 11.0473 10.2956 11.0157C10.174 10.984 10.0462 10.9847 9.9249 11.0177Z" fill="#C6D636"/>
<path d="M30.9075 31.53L26.0042 26.6169L15.5952 37.0398L20.5003 41.9546C20.6108 42.0648 20.7481 42.1442 20.8986 42.1849C21.0491 42.2257 21.2076 42.2263 21.3584 42.1868L28.5856 40.2683C28.7379 40.2275 28.8768 40.1472 28.9883 40.0356C29.0997 39.9239 29.1798 39.7847 29.2205 39.6322L31.1376 32.393C31.1779 32.2415 31.1779 32.0822 31.1375 31.9307C31.0972 31.7793 31.0179 31.6411 30.9075 31.53V31.53Z" fill="#D57DEA"/>
<path d="M15.5936 16.1923L5.18799 26.6134L15.5954 37.0398L26.0043 26.617L15.5936 16.1923Z" fill="#7F187F"/>
<path d="M31.1633 20.9386L29.1965 13.5034C29.1643 13.3793 29.0997 13.2661 29.0092 13.1754C28.9187 13.0848 28.8056 13.02 28.6817 12.9878L21.2588 11.0177C21.1381 10.9864 21.0114 10.9871 20.8911 11.0197C20.7708 11.0522 20.661 11.1155 20.5724 11.2033L15.5952 16.1887L26.0042 26.6151L30.9813 21.6297C31.0689 21.5402 31.1317 21.4294 31.1636 21.3083C31.1955 21.1871 31.1954 21.0598 31.1633 20.9386V20.9386Z" fill="#82D170"/>
<path d="M0.0237723 32.295L1.99221 39.7284C2.02438 39.8526 2.08909 39.9658 2.17962 40.0565C2.27016 40.1472 2.38325 40.212 2.50718 40.2442L9.93163 42.2159C10.0525 42.2468 10.1793 42.2458 10.2996 42.213C10.42 42.1801 10.5298 42.1166 10.6183 42.0285L15.5954 37.0431L5.18803 26.6152L0.210854 31.6006C0.121842 31.6899 0.0577331 31.801 0.02491 31.9228C-0.00791309 32.0446 -0.00830533 32.173 0.0237723 32.295V32.295Z" fill="#F8CF1C"/>
<path d="M9.9249 11.0177L2.50222 12.9894C2.37828 13.0216 2.2652 13.0864 2.17466 13.1771C2.08412 13.2678 2.01942 13.3811 1.98725 13.5052L0.0238772 20.9351C-0.00697634 21.0562 -0.00595836 21.1832 0.0268317 21.3037C0.0596217 21.4243 0.123063 21.5342 0.210959 21.6229L5.18813 26.6083L15.5955 16.1837L10.6184 11.1982C10.5285 11.1103 10.4172 11.0473 10.2956 11.0157C10.174 10.984 10.0462 10.9847 9.9249 11.0177Z" fill="#C6D636"/>
<path d="M30.9075 31.53L26.0042 26.6169L15.5952 37.0398L20.5003 41.9546C20.6108 42.0648 20.7481 42.1442 20.8986 42.1849C21.0491 42.2257 21.2076 42.2263 21.3584 42.1868L28.5856 40.2683C28.7379 40.2275 28.8768 40.1472 28.9883 40.0356C29.0997 39.9239 29.1798 39.7847 29.2205 39.6322L31.1376 32.393C31.1779 32.2415 31.1779 32.0822 31.1375 31.9307C31.0972 31.7793 31.0179 31.6411 30.9075 31.53V31.53Z" fill="#D57DEA"/>
<path d="M15.5936 16.1923L5.18799 26.6134L15.5954 37.0398L26.0043 26.617L15.5936 16.1923Z" fill="#7F187F"/>
</svg>
