<svg width="473" height="76" viewBox="0 0 473 76" fill="none" xmlns="http://www.w3.org/2000/svg">
<path d="M130.998 30.6566V22.3773H91.0977V30.6566H106.16V58.1876H115.935V30.6566H130.998Z" fill="white"/>
<path d="M153.542 58.7362C165.811 58.7362 172.544 52.5018 172.544 42.2276V22.3773H162.768V41.2799C162.768 47.0156 159.776 50.2574 153.542 50.2574C147.307 50.2574 144.315 47.0156 144.315 41.2799V22.3773H134.539V42.2276C134.539 52.5018 141.272 58.7362 153.542 58.7362Z" fill="white"/>
<path d="M187.508 46.3173H197.234L204.914 58.1876H216.136L207.458 45.2699C212.346 43.5243 215.338 39.6341 215.338 34.3473C215.338 26.6666 209.603 22.3773 200.874 22.3773H177.732V58.1876H187.508V46.3173ZM187.508 38.5867V30.5568H200.376C203.817 30.5568 205.712 32.0531 205.712 34.5967C205.712 36.9907 203.817 38.5867 200.376 38.5867H187.508Z" fill="white"/>
<path d="M219.887 58.1876H245.472C253.452 58.1876 258.041 54.3971 258.041 48.0629C258.041 43.8236 255.348 40.9308 252.156 39.6341C254.35 38.5867 257.043 36.0929 257.043 32.1528C257.043 25.8187 252.555 22.3773 244.625 22.3773H219.887V58.1876ZM229.263 36.3922V30.3074H243.627C246.32 30.3074 247.817 31.3548 247.817 33.3498C247.817 35.3448 246.32 36.3922 243.627 36.3922H229.263ZM229.263 43.7238H244.525C247.168 43.7238 248.615 45.0206 248.615 46.9657C248.615 48.9108 247.168 50.2076 244.525 50.2076H229.263V43.7238Z" fill="white"/>
<path d="M281.942 21.7788C269.423 21.7788 260.396 29.6092 260.396 40.2824C260.396 50.9557 269.423 58.7861 281.942 58.7861C294.461 58.7861 303.438 50.9557 303.438 40.2824C303.438 29.6092 294.461 21.7788 281.942 21.7788ZM281.942 30.2576C288.525 30.2576 293.463 34.1478 293.463 40.2824C293.463 46.4171 288.525 50.3073 281.942 50.3073C275.359 50.3073 270.421 46.4171 270.421 40.2824C270.421 34.1478 275.359 30.2576 281.942 30.2576Z" fill="white"/>
<path d="M317.526 46.3173H327.251L334.932 58.1876H346.154L337.476 45.2699C342.364 43.5243 345.356 39.6341 345.356 34.3473C345.356 26.6666 339.62 22.3773 330.892 22.3773H307.75V58.1876H317.526V46.3173ZM317.526 38.5867V30.5568H330.394C333.835 30.5568 335.73 32.0531 335.73 34.5967C335.73 36.9907 333.835 38.5867 330.394 38.5867H317.526Z" fill="white"/>
<path d="M349.904 22.3773V58.1876H384.717V49.9083H359.48V44.0729H381.874V35.9932H359.48V30.6566H384.717V22.3773H349.904Z" fill="white"/>
<path d="M399.204 46.7662H412.221C420.95 46.7662 426.685 42.5767 426.685 34.5967C426.685 26.5668 420.95 22.3773 412.221 22.3773H389.428V58.1876H399.204V46.7662ZM399.204 38.6366V30.5568H411.673C415.164 30.5568 417.059 32.0531 417.059 34.5967C417.059 37.0904 415.164 38.6366 411.673 38.6366H399.204Z" fill="white"/>
<path d="M450.948 21.7788C438.43 21.7788 429.402 29.6092 429.402 40.2824C429.402 50.9557 438.43 58.7861 450.948 58.7861C463.467 58.7861 472.444 50.9557 472.444 40.2824C472.444 29.6092 463.467 21.7788 450.948 21.7788ZM450.948 30.2576C457.532 30.2576 462.469 34.1478 462.469 40.2824C462.469 46.4171 457.532 50.3073 450.948 50.3073C444.365 50.3073 439.427 46.4171 439.427 40.2824C439.427 34.1478 444.365 30.2576 450.948 30.2576Z" fill="white"/>
<path d="M38.5017 18.0956C27.2499 18.0956 18.0957 27.2498 18.0957 38.5016C18.0957 49.7534 27.2499 58.9076 38.5017 58.9076C49.7535 58.9076 58.9077 49.7534 58.9077 38.5016C58.9077 27.2498 49.7535 18.0956 38.5017 18.0956ZM38.5017 49.0618C32.6687 49.0618 27.9415 44.3346 27.9415 38.5016C27.9415 32.6686 32.6687 27.9414 38.5017 27.9414C44.3347 27.9414 49.0619 32.6686 49.0619 38.5016C49.0619 44.3346 44.3347 49.0618 38.5017 49.0618Z" fill="white"/>
<path fill-rule="evenodd" clip-rule="evenodd" d="M40.2115 14.744V7.125C56.7719 8.0104 69.9275 21.7208 69.9275 38.5016C69.9275 55.2824 56.7719 68.989 40.2115 69.8782V62.2592C52.5539 61.3776 62.3275 51.0644 62.3275 38.5016C62.3275 25.9388 52.5539 15.6256 40.2115 14.744ZM20.5048 54.0815C17.233 50.3043 15.124 45.4935 14.7478 40.2115H7.125C7.5202 47.6025 10.4766 54.3095 15.1088 59.4737L20.501 54.0815H20.5048ZM36.7916 69.8782V62.2592C31.5058 61.883 26.695 59.7778 22.9178 56.5022L17.5256 61.8944C22.6936 66.5304 29.4006 69.483 36.7878 69.8782H36.7916Z" fill="url(#paint0_linear_2028_477)"/>
<defs>
<linearGradient id="paint0_linear_2028_477" x1="41.443" y1="11.5372" x2="10.5567" y2="42.4236" gradientUnits="userSpaceOnUse">
<stop stop-color="#0096FF"/>
<stop offset="1" stop-color="#FF1E56"/>
</linearGradient>
</defs>
</svg>
