<?xml version="1.0" encoding="utf-8"?>
<!-- Generator: Adobe Illustrator 26.5.0, SVG Export Plug-In . SVG Version: 6.00 Build 0)  -->
<svg version="1.1" id="Layer_1" xmlns="http://www.w3.org/2000/svg" xmlns:xlink="http://www.w3.org/1999/xlink" x="0px"
	y="0px" viewBox="0 0 474 542" style="enable-background:new 0 0 474 542;" xml:space="preserve">
	<style type="text/css">
		.st0 {
			opacity: 0.1;
		}

		.st1 {
			fill: none;
			stroke: #FFFFFF;
			stroke-width: 0.7751;
		}

		.st2 {
			fill: url(#SVGID_1_);
			fill-opacity: 0.55;
			stroke: #FFFFFF;
			stroke-width: 0.7751;
		}

		.st3 {
			fill: url(#SVGID_00000129183353329651144900000001457513616223651223_);
			fill-opacity: 0.55;
			stroke: #FFFFFF;
			stroke-width: 0.7751;
		}

		.st4 {
			fill: url(#SVGID_00000087403919448851744750000016448319596967478179_);
			fill-opacity: 0.55;
			stroke: #FFFFFF;
			stroke-width: 0.7751;
		}
	</style>
	<g class="st0">
		<path class="st1" d="M0.4,102V79.4V56.8V34.3" />
		<path class="st1" d="M59.6,0.4L0.4,34.3v22.6v22.6V102l59.2,33.8l59.2-33.8V79.4V56.8V34.3L59.6,0.4z" />
		<path class="st1" d="M0.4,237.3l59.2-33.8v-22.6v-22.6v-22.6L0.4,101.9" />
		<path class="st1" d="M178,0.4l-59.2,33.8v22.6v22.6V102l59.2,33.8l59.2-33.8V79.4V56.8V34.3L178,0.4z" />
		<path class="st1" d="M296.5,0.4l-59.2,33.8v22.6v22.6V102l59.2,33.8l59.2-33.8V79.4V56.8V34.3L296.5,0.4z" />
		<path class="st1" d="M414.9,0.4l-59.2,33.8v22.6v22.6V102l59.2,33.8l59.2-33.8V79.4V56.8V34.3L414.9,0.4z" />

		<linearGradient id="SVGID_1_" gradientUnits="userSpaceOnUse" x1="237.2501" y1="440.9574" x2="237.2501"
			y2="305.6034" gradientTransform="matrix(1 0 0 -1 0 542.8928)">
			<stop offset="0" style="stop-color:#3286F1" />
			<stop offset="1" style="stop-color:#C43AC4" />
		</linearGradient>
		<path class="st2"
			d="M237.2,101.9L178,135.8v22.6v22.6v22.6l59.2,33.8l59.2-33.8v-22.6v-22.6v-22.6L237.2,101.9z" />
		<path class="st1"
			d="M355.7,237.3l59.2-33.8v-22.6v-22.6v-22.6l-59.2-33.8l-59.2,33.8v22.6v22.6v22.6L355.7,237.3z" />
		<path class="st1" d="M59.6,338.8l59.2-33.8v-22.6v-22.6v-22.6l-59.2-33.8L0.4,237.3v22.6v22.6v22.6L59.6,338.8z" />
		<path class="st1" d="M0.4,304.9v-22.6v-22.6v-22.6" />
		<path class="st1" d="M0.4,440.3l59.2-33.8v-22.6v-22.6v-22.6L0.4,304.9" />

		<linearGradient id="SVGID_00000082336052230827650000000017378782140045855114_" gradientUnits="userSpaceOnUse"
			x1="268.8444" y1="161.0618" x2="195.3693" y2="182.4888" gradientTransform="matrix(1 0 0 -1 0 542.8928)">
			<stop offset="0" style="stop-color:#FF1E56" />
			<stop offset="1" style="stop-color:#9C51A1" />
		</linearGradient>

		<path
			style="fill:url(#SVGID_00000082336052230827650000000017378782140045855114_);fill-opacity:0.55;stroke:#FFFFFF;stroke-width:0.7751;"
			d="
		M237.2,304.9L178,338.8v22.6v22.6v22.6l59.2,33.8l59.2-33.8v-22.6v-22.6v-22.6L237.2,304.9z" />
		<path class="st1"
			d="M296.5,541.8l59.2-33.8v-22.6v-22.6v-22.6l-59.2-33.8l-59.2,33.8v22.6v22.6V508L296.5,541.8z" />
		<path class="st1"
			d="M355.7,440.3l59.2-33.8v-22.6v-22.6v-22.6l-59.2-33.8l-59.2,33.8v22.6v22.6v22.6L355.7,440.3z" />

		<linearGradient id="SVGID_00000062167455118290566010000013498963697107449013_" gradientUnits="userSpaceOnUse"
			x1="59.6051" y1="136.4534" x2="59.6051" y2="1.1074" gradientTransform="matrix(1 0 0 -1 0 542.8928)">
			<stop offset="0" style="stop-color:#3286F1" />
			<stop offset="1" style="stop-color:#C43AC4" />
		</linearGradient>

		<path
			style="fill:url(#SVGID_00000062167455118290566010000013498963697107449013_);fill-opacity:0.55;stroke:#FFFFFF;stroke-width:0.7751;"
			d="
		M59.6,541.8l59.2-33.8v-22.6v-22.6v-22.6l-59.2-33.8L0.4,440.3v22.6v22.6V508L59.6,541.8z" />
		<path class="st1"
			d="M118.8,440.3l59.2-33.8v-22.6v-22.6v-22.6l-59.2-33.8l-59.2,33.8v22.6v22.6v22.6L118.8,440.3z" />
		<path class="st1" d="M0.4,508v-22.6v-22.6v-22.6" />
	</g>
</svg>