<svg width="209" height="127" viewBox="0 0 209 127" fill="none" xmlns="http://www.w3.org/2000/svg">
	<g filter="url(#filter0_d_926_5906)">
		<path
			d="M22.9771 89.5707C20.645 95.7965 18.9078 102.411 18.4563 91.4144C17.8265 76.0722 17.4184 61.1119 20.2563 46.0462C22.0915 36.3037 26.8921 13.0283 37.6279 14.0314C40.9661 14.3433 42.1027 21.1726 42.7347 24.0884C45.6389 37.4874 47.2986 51.7384 47.8415 65.6573C48.4554 81.3975 43.9602 88.9204 37.3348 100.577C29.8561 113.736 35.7162 93.7886 37.7953 89.1237C41.7555 80.2378 48.1052 68.2353 56.2971 66.0485C60.2404 64.9958 56.6722 91.0326 61.3202 89.1237C63.3135 88.305 67.4526 85.0674 69.5246 86.6653C71.3045 88.038 71.1513 93.8844 73.3756 91.3027C85.4888 77.2434 103.059 71.8017 118.667 72.4738C126.81 72.8244 135.048 72.1284 143.239 72.362C159.259 72.8189 175.129 75.86 191 78.508"
			stroke="url(#paint0_linear_926_5906)" stroke-width="3" stroke-linecap="round" />
	</g>
	<defs>
		<filter id="filter0_d_926_5906" x="0.5" y="0.499756" width="208" height="126.001" filterUnits="userSpaceOnUse"
			color-interpolation-filters="sRGB">
			<feFlood flood-opacity="0" result="BackgroundImageFix" />
			<feColorMatrix in="SourceAlpha" type="matrix" values="0 0 0 0 0 0 0 0 0 0 0 0 0 0 0 0 0 0 127 0"
				result="hardAlpha" />
			<feOffset dy="4" />
			<feGaussianBlur stdDeviation="8" />
			<feComposite in2="hardAlpha" operator="out" />
			<feColorMatrix type="matrix" values="0 0 0 0 0.941176 0 0 0 0 0.14902 0 0 0 0 0.384314 0 0 0 1 0" />
			<feBlend mode="normal" in2="BackgroundImageFix" result="effect1_dropShadow_926_5906" />
			<feBlend mode="normal" in="SourceGraphic" in2="effect1_dropShadow_926_5906" result="shape" />
		</filter>
		<linearGradient id="paint0_linear_926_5906" x1="104.5" y1="21.185" x2="104.431" y2="98.9426"
			gradientUnits="userSpaceOnUse">
			<stop stop-color="#0096FF" />
			<stop offset="1" stop-color="#FF1E56" />
		</linearGradient>
	</defs>
</svg>