<?xml version="1.0" encoding="utf-8"?>
<!-- Generator: Adobe Illustrator 26.5.0, SVG Export Plug-In . SVG Version: 6.00 Build 0)  -->
<svg version="1.1" id="Layer_1" xmlns="http://www.w3.org/2000/svg" xmlns:xlink="http://www.w3.org/1999/xlink" x="0px" y="0px"
	 viewBox="0 0 176 94" style="enable-background:new 0 0 176 94;" xml:space="preserve">
<style type="text/css">
	.st0{fill:none;stroke:url(#SVGID_1_);stroke-width:3;stroke-linecap:round;}
</style>
<g>
	
		<linearGradient id="SVGID_1_" gradientUnits="userSpaceOnUse" x1="88.0487" y1="94.315" x2="87.9797" y2="16.5574" gradientTransform="matrix(1 0 0 -1 0 103.0001)">
		<stop  offset="0" style="stop-color:#0096FF"/>
		<stop  offset="1" style="stop-color:#FF1E56"/>
	</linearGradient>
	<path shape-rendering="crispEdges" class="st0" d="M6.5,77.1C4.1,83.3,2.4,89.9,2,78.9c-0.6-15.3-1-30.3,1.8-45.4
		c1.8-9.7,6.6-33,17.4-32c3.3,0.3,4.5,7.1,5.1,10.1c2.9,13.4,4.6,27.7,5.1,41.6c0.6,15.7-3.9,23.3-10.5,34.9
		c-7.5,13.2-1.6-6.8,0.5-11.5c4-8.9,10.3-20.9,18.5-23.1c3.9-1.1,0.4,25,5,23.1c2-0.8,6.1-4.1,8.2-2.5c1.8,1.4,1.6,7.2,3.9,4.6
		C69,64.7,86.6,59.3,102.2,60c8.1,0.4,16.4-0.3,24.6-0.1c16,0.5,31.9,3.5,47.8,6.1"/>
</g>
</svg>
