<?xml version="1.0" encoding="utf-8"?>
<!-- Generator: Adobe Illustrator 26.5.0, SVG Export Plug-In . SVG Version: 6.00 Build 0)  -->
<svg version="1.1" id="Layer_1" xmlns="http://www.w3.org/2000/svg" xmlns:xlink="http://www.w3.org/1999/xlink" x="0px"
    y="0px" viewBox="0 0 25.6 29.3" style="enable-background:new 0 0 25.6 29.3;" xml:space="preserve">
    <style type="text/css">
        .st0 {
            fill-rule: evenodd;
            clip-rule: evenodd;
            fill: url(#SVGID_1_);
        }

        .st1 {
            fill: #FFFFFF;
        }
    </style>
    <g>

        <linearGradient id="SVGID_1_" gradientUnits="userSpaceOnUse" x1="12.8238" y1="48.6899" x2="12.7754" y2="23.69"
            gradientTransform="matrix(1 0 0 -1 0 51)">
            <stop offset="0" style="stop-color:#0096FF" />
            <stop offset="1" style="stop-color:#FF1E56" />
        </linearGradient>
        <path class="st0" d="M12.8,0L4.6,4.7l0,3.7l8.2-4.7l9.6,5.5l3.2,1.8V7.3L12.8,0z M11.4,24.7l-8.2-4.7V9.2l0,0l0-3.7L0,7.3v4.9v4.9
		v4.9l8.2,4.7L11.4,24.7z M22.4,20.1v-9.3l3.2,1.8v4.4v4.9l-12.8,7.3l-3.2-1.8l3.2-1.9v0L22.4,20.1z" />
        <path class="st1" d="M4.6,10.8v8.4l8.2,4.7v-8.4L4.6,10.8z" />
        <path class="st1" d="M12.8,5.3L5.4,9.6l8.2,4.7L21,10L12.8,5.3z" />
    </g>
</svg>