<svg width="104" height="118" viewBox="0 0 104 118" fill="none" xmlns="http://www.w3.org/2000/svg">
    <path
        d="M46 2.4641C49.7128 0.320508 54.2872 0.320508 58 2.4641L97.9615 25.5359C101.674 27.6795 103.962 31.641 103.962 35.9282V82.0718C103.962 86.359 101.674 90.3205 97.9615 92.4641L58 115.536C54.2872 117.679 49.7128 117.679 46 115.536L6.03848 92.4641C2.32566 90.3205 0.038475 86.359 0.038475 82.0718V35.9282C0.038475 31.641 2.32566 27.6795 6.03848 25.5359L46 2.4641Z"
        fill="black" fill-opacity="0.64" />
    <path
        d="M46 2.4641C49.7128 0.320508 54.2872 0.320508 58 2.4641L97.9615 25.5359C101.674 27.6795 103.962 31.641 103.962 35.9282V82.0718C103.962 86.359 101.674 90.3205 97.9615 92.4641L58 115.536C54.2872 117.679 49.7128 117.679 46 115.536L6.03848 92.4641C2.32566 90.3205 0.038475 86.359 0.038475 82.0718V35.9282C0.038475 31.641 2.32566 27.6795 6.03848 25.5359L46 2.4641Z"
        fill="url(#paint0_linear_214_3611)" fill-opacity="0.15" />
    <g clip-path="url(#clip0_214_3611)">
        <g clip-path="url(#clip1_214_3611)">
            <path fill-rule="evenodd" clip-rule="evenodd"
                d="M51.675 35.4375L38.376 43.0373L38.402 49.0095L51.675 41.4253L67.275 50.3407L72.475 53.3125V47.3221L51.675 35.4375ZM49.335 75.6543L36.075 68.0779V50.3537L36.0698 50.3511L36.0412 44.3711L30.875 47.3221V55.2469V63.1717V71.0939L44.148 78.6781L49.335 75.6543ZM67.275 68.0779V53.0369L72.475 56.0087V63.1717V71.0939L51.675 82.9811L46.4932 80.0197L51.675 76.9985V76.9907L67.275 68.0779Z"
                fill="url(#paint1_linear_214_3611)" />
            <path d="M38.415 53.0473V66.7181L51.675 74.2971V60.6237L38.415 53.0473Z" fill="white" />
            <path d="M51.675 44.1215L39.5928 51.0245L52.8554 58.6035L64.935 51.6979L51.675 44.1215Z" fill="white" />
        </g>
    </g>
    <defs>
        <linearGradient id="paint0_linear_214_3611" x1="52" y1="-1" x2="52" y2="119" gradientUnits="userSpaceOnUse">
            <stop stop-color="#3286F1" />
            <stop offset="1" stop-color="#C43AC4" />
        </linearGradient>
        <linearGradient id="paint1_linear_214_3611" x1="51.6751" y1="39.1914" x2="51.5964" y2="79.8163"
            gradientUnits="userSpaceOnUse">
            <stop stop-color="#0096FF" />
            <stop offset="1" stop-color="#FF1E56" />
        </linearGradient>
        <clipPath id="clip0_214_3611">
            <rect width="52" height="52" fill="white" transform="translate(26 33)" />
        </clipPath>
        <clipPath id="clip1_214_3611">
            <rect width="41.6" height="47.5436" fill="white" transform="translate(30.875 35.4375)" />
        </clipPath>
    </defs>
</svg>