<?xml version="1.0" encoding="UTF-8"?><svg id="Layer_1" xmlns="http://www.w3.org/2000/svg"
	xmlns:xlink="http://www.w3.org/1999/xlink" viewBox="0 0 389.71 446.29" width="614" height="614">
	<defs>
		<radialGradient id="radial-gradient" cx="-109.76" cy="629.05" fx="-109.76" fy="629.05" r="1"
			gradientTransform="translate(-81581.82 14491.9) rotate(90) scale(130 -130)" gradientUnits="userSpaceOnUse">
			<stop offset="0" stop-color="#fff" />
			<stop offset="1" stop-color="#fff" stop-opacity="0" />
		</radialGradient>
	</defs>
	<path
		d="M188.86,96.61c3.71-2.14,8.29-2.14,12,0l100.58,58.07c3.71,2.14,6,6.11,6,10.39v116.14c0,4.29-2.29,8.25-6,10.39l-100.58,58.07c-3.71,2.14-8.29,2.14-12,0l-100.58-58.07c-3.71-2.14-6-6.1-6-10.39v-116.14c0-4.29,2.29-8.25,6-10.39l100.58-58.07Z"
		style="fill:url(#radial-gradient); fill-opacity:.1;">
		<animate attributeName="opacity" values="1;0.5;0.5;1" dur="3s" repeatCount="indefinite" />
	</path>
	<path
		d="M189.11,97.04c3.56-2.05,7.94-2.05,11.5,0l100.58,58.07c3.56,2.05,5.75,5.85,5.75,9.96v116.14c0,4.11-2.19,7.9-5.75,9.96l-100.58,58.07c-3.56,2.05-7.94,2.05-11.5,0l-100.58-58.07c-3.56-2.05-5.75-5.85-5.75-9.96v-116.14c0-4.11,2.19-7.9,5.75-9.96l100.58-58.07Z"
		style="fill:none; stroke:rgba(255,255,255,.1);">
		<animate attributeName="opacity" values="1;0.1;0.1;1" dur="3s" begin="0.2s" repeatCount="indefinite" />
	</path>
	<path
		d="M189.11,2.04c3.56-2.05,7.94-2.05,11.5,0l182.86,105.57c3.56,2.05,5.75,5.85,5.75,9.96v211.14c0,4.11-2.19,7.9-5.75,9.96l-182.86,105.57c-3.56,2.05-7.94,2.05-11.5,0L6.25,338.67c-3.56-2.05-5.75-5.85-5.75-9.96V117.57c0-4.11,2.19-7.9,5.75-9.96L189.11,2.04Z"
		style="fill:none; stroke:rgba(255,255,255,.05);">
		<animate attributeName="opacity" values="1;0.1;0.1;1" dur="3s" begin="0.4s" repeatCount="indefinite" />
	</path>
</svg>