<svg width="104" height="118" viewBox="0 0 104 118" fill="none" xmlns="http://www.w3.org/2000/svg">
    <path
        d="M46 2.4641C49.7128 0.320508 54.2872 0.320508 58 2.4641L97.9615 25.5359C101.674 27.6795 103.962 31.641 103.962 35.9282V82.0718C103.962 86.359 101.674 90.3205 97.9615 92.4641L58 115.536C54.2872 117.679 49.7128 117.679 46 115.536L6.03848 92.4641C2.32566 90.3205 0.038475 86.359 0.038475 82.0718V35.9282C0.038475 31.641 2.32566 27.6795 6.03848 25.5359L46 2.4641Z"
        fill="white" />
    <path
        d="M46.25 2.89711C49.8081 0.842837 54.1919 0.842837 57.75 2.89711L97.7115 25.9689C101.27 28.0232 103.462 31.8196 103.462 35.9282V82.0718C103.462 86.1804 101.27 89.9768 97.7115 92.0311L57.75 115.103C54.1919 117.157 49.8081 117.157 46.25 115.103L6.28848 92.0311C2.73036 89.9768 0.538475 86.1804 0.538475 82.0718V35.9282C0.538475 31.8196 2.73036 28.0232 6.28848 25.9689L46.25 2.89711Z"
        stroke="url(#paint0_radial_926_5684)" stroke-opacity="0.15" />
    <path
        d="M46.25 2.89711C49.8081 0.842837 54.1919 0.842837 57.75 2.89711L97.7115 25.9689C101.27 28.0232 103.462 31.8196 103.462 35.9282V82.0718C103.462 86.1804 101.27 89.9768 97.7115 92.0311L57.75 115.103C54.1919 117.157 49.8081 117.157 46.25 115.103L6.28848 92.0311C2.73036 89.9768 0.538475 86.1804 0.538475 82.0718V35.9282C0.538475 31.8196 2.73036 28.0232 6.28848 25.9689L46.25 2.89711Z"
        stroke="url(#paint1_linear_926_5684)" stroke-opacity="0.5" />
    <g clip-path="url(#clip0_926_5684)">
        <g clip-path="url(#clip1_926_5684)">
            <path fill-rule="evenodd" clip-rule="evenodd"
                d="M51.675 35.4375L38.376 43.0373L38.402 49.0095L51.675 41.4253L67.275 50.3407L72.475 53.3125V47.3221L51.675 35.4375ZM49.335 75.6543L36.075 68.0779V50.3537L36.0698 50.3511L36.0412 44.3711L30.875 47.3221V55.2469V63.1717V71.0939L44.148 78.6781L49.335 75.6543ZM67.275 68.0779V53.0369L72.475 56.0087V63.1717V71.0939L51.675 82.9811L46.4932 80.0197L51.675 76.9985V76.9907L67.275 68.0779Z"
                fill="url(#paint2_linear_926_5684)" />
            <path d="M38.415 53.0474V66.7182L51.675 74.2972V60.6238L38.415 53.0474Z" fill="black" />
            <path d="M51.675 44.1216L39.5928 51.0246L52.8554 58.6036L64.935 51.698L51.675 44.1216Z" fill="black" />
        </g>
    </g>
    <defs>
        <radialGradient id="paint0_radial_926_5684" cx="0" cy="0" r="1" gradientUnits="userSpaceOnUse"
            gradientTransform="translate(52 -1) rotate(90) scale(154.286)">
            <stop />
            <stop offset="1" />
        </radialGradient>
        <linearGradient id="paint1_linear_926_5684" x1="-8" y1="-1" x2="18.25" y2="47.75"
            gradientUnits="userSpaceOnUse">
            <stop />
            <stop offset="1" stop-opacity="0" />
        </linearGradient>
        <linearGradient id="paint2_linear_926_5684" x1="51.6751" y1="39.1914" x2="51.5964" y2="79.8163"
            gradientUnits="userSpaceOnUse">
            <stop stop-color="#0096FF" />
            <stop offset="1" stop-color="#FF1E56" />
        </linearGradient>
        <clipPath id="clip0_926_5684">
            <rect width="52" height="52" fill="white" transform="translate(26 33)" />
        </clipPath>
        <clipPath id="clip1_926_5684">
            <rect width="41.6" height="47.5436" fill="white" transform="translate(30.875 35.4375)" />
        </clipPath>
    </defs>
</svg>