<svg width="120" height="120" viewBox="0 0 120 120" fill="none" xmlns="http://www.w3.org/2000/svg">
  <path
    d="M7.89457 19.8946C7.89457 13.2672 13.2672 7.89457 19.8946 7.89457L99.6837 7.89457C106.311 7.89457 111.684 13.2672 111.684 19.8946V99.6837C111.684 106.311 106.311 111.684 99.6837 111.684L19.8946 111.684C13.2672 111.684 7.89457 106.311 7.89457 99.6837L7.89457 19.8946Z"
    fill="white" fill-opacity="0.64" />
  <path
    d="M7.89457 19.8946C7.89457 13.2672 13.2672 7.89457 19.8946 7.89457L99.6837 7.89457C106.311 7.89457 111.684 13.2672 111.684 19.8946V99.6837C111.684 106.311 106.311 111.684 99.6837 111.684L19.8946 111.684C13.2672 111.684 7.89457 106.311 7.89457 99.6837L7.89457 19.8946Z"
    fill="white" fill-opacity="0.5" />
  <path
    d="M19.8946 8.64457L99.6837 8.64457C105.897 8.64457 110.934 13.6814 110.934 19.8946L110.934 99.6837C110.934 105.897 105.897 110.934 99.6837 110.934L19.8946 110.934C13.6814 110.934 8.64457 105.897 8.64457 99.6837L8.64457 19.8946C8.64457 13.6814 13.6814 8.64457 19.8946 8.64457Z"
    stroke="url(#paint0_radial_6_91)" stroke-opacity="0.15" stroke-width="1.5" />
  <path
    d="M19.8946 8.64457L99.6837 8.64457C105.897 8.64457 110.934 13.6814 110.934 19.8946L110.934 99.6837C110.934 105.897 105.897 110.934 99.6837 110.934L19.8946 110.934C13.6814 110.934 8.64457 105.897 8.64457 99.6837L8.64457 19.8946C8.64457 13.6814 13.6814 8.64457 19.8946 8.64457Z"
    stroke="url(#paint1_linear_6_91)" stroke-opacity="0.5" stroke-width="1.5" />
  <path fill-rule="evenodd" clip-rule="evenodd"
    d="M53.5484 52.5484C52.9961 52.5484 52.5484 52.9961 52.5484 53.5484V67.4516C52.5484 68.0039 52.9961 68.4516 53.5484 68.4516H67.4516C68.0039 68.4516 68.4516 68.0039 68.4516 67.4516V53.5484C68.4516 52.9961 68.0039 52.5484 67.4516 52.5484H53.5484ZM46.916 46C46.4101 46 46 46.4101 46 46.916V74.084C46 74.5899 46.4101 75 46.916 75H74.084C74.5899 75 75 74.5899 75 74.084V46.916C75 46.4101 74.5899 46 74.084 46H46.916Z"
    fill="black" />
  <path fill-rule="evenodd" clip-rule="evenodd"
    d="M37 78V61H44V75C44 75.1502 44.0166 75.2966 44.048 75.4373L38.0678 81.4175C37.3946 80.4478 37 79.27 37 78ZM39.4651 82.8486C40.4565 83.5727 41.6783 84 43 84H60V77H46C45.7924 77 45.5923 76.9684 45.404 76.9097L39.4651 82.8486ZM62 77V84H78C81.3137 84 84 81.3137 84 78V43C84 39.6863 81.3137 37 78 37H61V44H75C76.1046 44 77 44.8954 77 46V75C77 76.1046 76.1046 77 75 77H62Z"
    fill="url(#paint2_linear_6_91)" />
  <defs>
    <radialGradient id="paint0_radial_6_91" cx="0" cy="0" r="1" gradientUnits="userSpaceOnUse"
      gradientTransform="translate(-92.4122 -19.9896) rotate(45) scale(188.717)">
      <stop />
      <stop offset="1" />
    </radialGradient>
    <linearGradient id="paint1_linear_6_91" x1="-144.307" y1="31.905" x2="-79.4386" y2="51.3655"
      gradientUnits="userSpaceOnUse">
      <stop />
      <stop offset="1" stop-opacity="0" />
    </linearGradient>
    <linearGradient id="paint2_linear_6_91" x1="62.8108" y1="40.3047" x2="39.6787" y2="63.28"
      gradientUnits="userSpaceOnUse">
      <stop stop-color="#0096FF" />
      <stop offset="1" stop-color="#FF1E56" />
    </linearGradient>
  </defs>
</svg>
