<?xml version="1.0" encoding="UTF-8"?><svg id="Layer_1" xmlns="http://www.w3.org/2000/svg"
	xmlns:xlink="http://www.w3.org/1999/xlink" viewBox="0 0 389.71 446.29" width="614" height="614">
	<path
		d="M189.11,97.04c3.56-2.05,7.94-2.05,11.5,0l100.58,58.07c3.56,2.05,5.75,5.85,5.75,9.96v116.14c0,4.11-2.19,7.9-5.75,9.96l-100.58,58.07c-3.56,2.05-7.94,2.05-11.5,0l-100.58-58.07c-3.56-2.05-5.75-5.85-5.75-9.96v-116.14c0-4.11,2.19-7.9,5.75-9.96l100.58-58.07Z"
		style="fill:none; stroke:rgba(0,0,0,0.1);">
		<animate attributeName="opacity" values="1;0.1;0.1;1" dur="3s" begin="0.2s" repeatCount="indefinite" />
	</path>
	<path
		d="M189.11,2.04c3.56-2.05,7.94-2.05,11.5,0l182.86,105.57c3.56,2.05,5.75,5.85,5.75,9.96v211.14c0,4.11-2.19,7.9-5.75,9.96l-182.86,105.57c-3.56,2.05-7.94,2.05-11.5,0L6.25,338.67c-3.56-2.05-5.75-5.85-5.75-9.96V117.57c0-4.11,2.19-7.9,5.75-9.96L189.11,2.04Z"
		style="fill:none; stroke:rgba(0,0,0,0.05);">
		<animate attributeName="opacity" values="1;0.1;0.1;1" dur="3s" begin="0.4s" repeatCount="indefinite" />
	</path>
</svg>