<svg width="104" height="103" viewBox="0 0 104 103" fill="none" xmlns="http://www.w3.org/2000/svg">
  <path fill-rule="evenodd" clip-rule="evenodd"
    d="M40.0497 37.699C38.888 37.699 37.9463 38.6407 37.9463 39.8024V63.1976C37.9463 64.3593 38.888 65.301 40.0497 65.301H63.4449C64.6066 65.301 65.5484 64.3593 65.5484 63.1976V39.8024C65.5484 38.6407 64.6066 37.699 63.4449 37.699H40.0497ZM23.1741 21C22.1099 21 21.2473 21.8626 21.2473 22.9267V80.0733C21.2473 81.1374 22.1099 82 23.1741 82H80.3206C81.3847 82 82.2473 81.1374 82.2473 80.0733V22.9267C82.2473 21.8626 81.3847 21 80.3206 21H23.1741Z"
    fill="white" />
  <path fill-rule="evenodd" clip-rule="evenodd"
    d="M0.308105 52.4562V89.6126C0.308105 92.1056 1.00373 94.4361 2.21148 96.4206L15.6078 83.0243V52.4562H0.308105ZM6.41669 100.701L19.6993 87.4181C19.7918 87.4239 19.8851 87.4269 19.9792 87.4269H49.2473V102.727H13.4221C10.846 102.727 8.44334 101.984 6.41669 100.701ZM55.2473 102.727H89.9207C97.1634 102.727 103.035 96.8553 103.035 89.6126V13.114C103.035 5.87136 97.1634 0 89.9207 0H52.7643V15.2997H83.3637C85.7779 15.2997 87.735 17.2568 87.735 19.6711V83.0556C87.735 85.4698 85.7779 87.4269 83.3637 87.4269H55.2473V102.727Z"
    fill="url(#paint0_linear_1924_5452)" />
  <defs>
    <linearGradient id="paint0_linear_1924_5452" x1="56.7222" y1="7.22297" x2="6.16287" y2="57.4394"
      gradientUnits="userSpaceOnUse">
      <stop stop-color="#0096FF" />
      <stop offset="1" stop-color="#FF1E56" />
    </linearGradient>
  </defs>
</svg>
