<svg width="64" height="64" viewBox="0 0 64 64" fill="none" xmlns="http://www.w3.org/2000/svg">
<rect x="8" y="8" width="48" height="48" rx="24" fill="white"/>
<path d="M25.3335 28.6666V25.3333M25.3335 25.3333H28.6668M25.3335 25.3333L29.5002 29.5M38.6668 28.6666V25.3333M38.6668 25.3333H35.3335M38.6668 25.3333L34.5002 29.5M25.3335 35.3333V38.6666M25.3335 38.6666H28.6668M25.3335 38.6666L29.5002 34.5M38.6668 38.6666L34.5002 34.5M38.6668 38.6666V35.3333M38.6668 38.6666H35.3335" stroke="url(#paint0_linear_1032_5056)" stroke-width="1.5" stroke-linecap="round" stroke-linejoin="round"/>
<rect x="8.5" y="8.5" width="47" height="47" rx="23.5" stroke="url(#paint1_radial_1032_5056)" stroke-opacity="0.15"/>
<rect x="8.5" y="8.5" width="47" height="47" rx="23.5" stroke="url(#paint2_linear_1032_5056)" stroke-opacity="0.5"/>
<rect x="0.5" y="0.5" width="63" height="63" rx="31.5" stroke="black" stroke-opacity="0.1"/>
<defs>
<linearGradient id="paint0_linear_1032_5056" x1="38.6058" y1="25.2468" x2="25.559" y2="40.3904" gradientUnits="userSpaceOnUse">
<stop stop-color="#FF1E56"/>
<stop offset="1" stop-color="#D67FDC"/>
</linearGradient>
<radialGradient id="paint1_radial_1032_5056" cx="0" cy="0" r="1" gradientUnits="userSpaceOnUse" gradientTransform="translate(32 8) rotate(90) scale(61.7143)">
<stop/>
<stop offset="1"/>
</radialGradient>
<linearGradient id="paint2_linear_1032_5056" x1="8" y1="8" x2="18.5" y2="27.5" gradientUnits="userSpaceOnUse">
<stop/>
<stop offset="1" stop-opacity="0"/>
</linearGradient>
</defs>
</svg>
