<svg width="64" height="64" viewBox="0 0 64 64" fill="none" xmlns="http://www.w3.org/2000/svg">
    <g clip-path="url(#clip0_926_5854)">
        <rect x="8" y="8" width="48" height="48" rx="24" fill="black" />
        <g filter="url(#filter0_d_926_5854)">
            <path fill-rule="evenodd" clip-rule="evenodd"
                d="M37 24.5835C37.4142 24.5835 37.75 24.9193 37.75 25.3335V38.6668C37.75 39.081 37.4142 39.4168 37 39.4168C36.5858 39.4168 36.25 39.081 36.25 38.6668V25.3335C36.25 24.9193 36.5858 24.5835 37 24.5835ZM32 29.5835C32.4142 29.5835 32.75 29.9193 32.75 30.3335V38.6668C32.75 39.081 32.4142 39.4168 32 39.4168C31.5858 39.4168 31.25 39.081 31.25 38.6668V30.3335C31.25 29.9193 31.5858 29.5835 32 29.5835ZM27.75 35.3335C27.75 34.9193 27.4142 34.5835 27 34.5835C26.5858 34.5835 26.25 34.9193 26.25 35.3335V38.6668C26.25 39.081 26.5858 39.4168 27 39.4168C27.4142 39.4168 27.75 39.081 27.75 38.6668V35.3335Z"
                fill="url(#paint0_linear_926_5854)" />
        </g>
    </g>
    <rect x="8.5" y="8.5" width="47" height="47" rx="23.5" stroke="url(#paint1_radial_926_5854)"
        stroke-opacity="0.15" />
    <rect x="8.5" y="8.5" width="47" height="47" rx="23.5" stroke="url(#paint2_linear_926_5854)" stroke-opacity="0.5" />
    <rect x="0.5" y="0.5" width="63" height="63" rx="31.5" stroke="white" stroke-opacity="0.1" />
    <defs>
        <filter id="filter0_d_926_5854" x="10.25" y="12.5835" width="43.5" height="46.8333" filterUnits="userSpaceOnUse"
            color-interpolation-filters="sRGB">
            <feFlood flood-opacity="0" result="BackgroundImageFix" />
            <feColorMatrix in="SourceAlpha" type="matrix" values="0 0 0 0 0 0 0 0 0 0 0 0 0 0 0 0 0 0 127 0"
                result="hardAlpha" />
            <feOffset dy="4" />
            <feGaussianBlur stdDeviation="8" />
            <feComposite in2="hardAlpha" operator="out" />
            <feColorMatrix type="matrix" values="0 0 0 0 0.941176 0 0 0 0 0.14902 0 0 0 0 0.384314 0 0 0 1 0" />
            <feBlend mode="normal" in2="BackgroundImageFix" result="effect1_dropShadow_926_5854" />
            <feBlend mode="normal" in="SourceGraphic" in2="effect1_dropShadow_926_5854" result="shape" />
        </filter>
        <linearGradient id="paint0_linear_926_5854" x1="36.4231" y1="27.7647" x2="29.1663" y2="25.8897"
            gradientUnits="userSpaceOnUse">
            <stop stop-color="#FF1E56" />
            <stop offset="1" stop-color="#9C51A1" />
        </linearGradient>
        <radialGradient id="paint1_radial_926_5854" cx="0" cy="0" r="1" gradientUnits="userSpaceOnUse"
            gradientTransform="translate(32 8) rotate(90) scale(61.7143)">
            <stop stop-color="white" />
            <stop offset="1" stop-color="white" />
        </radialGradient>
        <linearGradient id="paint2_linear_926_5854" x1="8" y1="8" x2="18.5" y2="27.5" gradientUnits="userSpaceOnUse">
            <stop stop-color="white" />
            <stop offset="1" stop-color="white" stop-opacity="0" />
        </linearGradient>
        <clipPath id="clip0_926_5854">
            <rect x="8" y="8" width="48" height="48" rx="24" fill="white" />
        </clipPath>
    </defs>
</svg>