<svg width="64" height="64" viewBox="0 0 64 64" fill="none" xmlns="http://www.w3.org/2000/svg">
    <rect x="8" y="8" width="48" height="48" rx="24" fill="black" />
    <path fill-rule="evenodd" clip-rule="evenodd"
        d="M33.132 22.9786C33.4374 23.1111 33.6188 23.4292 33.5776 23.7596L32.8496 29.5832H39.5C39.791 29.5832 40.0558 29.7516 40.1792 30.0151C40.3026 30.2786 40.2625 30.5898 40.0762 30.8134L31.7428 40.8134C31.5297 41.0691 31.1734 41.1538 30.868 41.0212C30.5626 40.8886 30.3812 40.5706 30.4225 40.2402L31.1504 34.4165H24.5C24.209 34.4165 23.9443 34.2482 23.8208 33.9847C23.6974 33.7211 23.7375 33.41 23.9238 33.1864L32.2572 23.1864C32.4703 22.9306 32.8266 22.846 33.132 22.9786ZM26.1013 32.9165H32C32.2151 32.9165 32.4199 33.0089 32.5623 33.1702C32.7046 33.3315 32.7709 33.5461 32.7442 33.7596L32.2282 37.8879L37.8987 31.0832H32C31.7849 31.0832 31.5801 30.9908 31.4378 30.8296C31.2954 30.6683 31.2291 30.4536 31.2558 30.2402L31.7718 26.1119L26.1013 32.9165Z"
        fill="url(#paint0_linear_926_5875)" />
    <rect x="8.5" y="8.5" width="47" height="47" rx="23.5" stroke="url(#paint1_radial_926_5875)"
        stroke-opacity="0.15" />
    <rect x="8.5" y="8.5" width="47" height="47" rx="23.5" stroke="url(#paint2_linear_926_5875)" stroke-opacity="0.5" />
    <rect x="0.5" y="0.5" width="63" height="63" rx="31.5" stroke="white" stroke-opacity="0.1" />
    <defs>
        <linearGradient id="paint0_linear_926_5875" x1="38.3461" y1="26.8127" x2="28.1714" y2="23.7328"
            gradientUnits="userSpaceOnUse">
            <stop stop-color="#FF1E56" />
            <stop offset="1" stop-color="#9C51A1" />
        </linearGradient>
        <radialGradient id="paint1_radial_926_5875" cx="0" cy="0" r="1" gradientUnits="userSpaceOnUse"
            gradientTransform="translate(32 8) rotate(90) scale(61.7143)">
            <stop stop-color="white" />
            <stop offset="1" stop-color="white" />
        </radialGradient>
        <linearGradient id="paint2_linear_926_5875" x1="8" y1="8" x2="18.5" y2="27.5" gradientUnits="userSpaceOnUse">
            <stop stop-color="white" />
            <stop offset="1" stop-color="white" stop-opacity="0" />
        </linearGradient>
    </defs>
</svg>