<svg width="64" height="64" viewBox="0 0 64 64" fill="none" xmlns="http://www.w3.org/2000/svg">
    <rect x="8" y="8" width="48" height="48" rx="24" fill="black" />
    <mask id="mask0_926_5903" style="mask-type:alpha" maskUnits="userSpaceOnUse" x="20" y="20" width="24" height="24">
        <circle cx="32" cy="32" r="12" fill="black" />
    </mask>
    <g mask="url(#mask0_926_5903)">
        <circle cx="32" cy="32" r="12" fill="black" />
        <path
            d="M39.9346 41.0027L29.2191 27.2H27.2002V36.7959H28.8153V29.2511L38.6667 41.9793C39.1112 41.6818 39.5347 41.3553 39.9346 41.0027Z"
            fill="url(#paint0_linear_926_5903)" />
        <rect x="35.3335" y="27.2" width="1.6" height="9.6" fill="url(#paint1_linear_926_5903)" />
    </g>
    <rect x="8.5" y="8.5" width="47" height="47" rx="23.5" stroke="url(#paint2_radial_926_5903)"
        stroke-opacity="0.15" />
    <rect x="8.5" y="8.5" width="47" height="47" rx="23.5" stroke="url(#paint3_linear_926_5903)" stroke-opacity="0.5" />
    <rect x="0.5" y="0.5" width="63" height="63" rx="31.5" stroke="white" stroke-opacity="0.1" />
    <defs>
        <linearGradient id="paint0_linear_926_5903" x1="34.5335" y1="35.5333" x2="39.2669" y2="41.4"
            gradientUnits="userSpaceOnUse">
            <stop stop-color="white" />
            <stop offset="1" stop-color="white" stop-opacity="0" />
        </linearGradient>
        <linearGradient id="paint1_linear_926_5903" x1="36.1335" y1="27.2" x2="36.1067" y2="34.25"
            gradientUnits="userSpaceOnUse">
            <stop stop-color="white" />
            <stop offset="1" stop-color="white" stop-opacity="0" />
        </linearGradient>
        <radialGradient id="paint2_radial_926_5903" cx="0" cy="0" r="1" gradientUnits="userSpaceOnUse"
            gradientTransform="translate(32 8) rotate(90) scale(61.7143)">
            <stop stop-color="white" />
            <stop offset="1" stop-color="white" />
        </radialGradient>
        <linearGradient id="paint3_linear_926_5903" x1="8" y1="8" x2="18.5" y2="27.5" gradientUnits="userSpaceOnUse">
            <stop stop-color="white" />
            <stop offset="1" stop-color="white" stop-opacity="0" />
        </linearGradient>
    </defs>
</svg>