<svg width="193" height="51" viewBox="0 0 193 51" fill="none" xmlns="http://www.w3.org/2000/svg">
<g clip-path="url(#clip0_1062_951)">
<path d="M21.2633 0.0183411H0V50.7712L21.2633 0.0183411Z" fill="#FA0C00"/>
<path d="M36.2236 0.0183411H57.4593V50.7712L36.2236 0.0183411Z" fill="#FA0C00"/>
<path d="M28.7437 18.724L42.2774 50.7712H33.398L29.3532 40.5681H19.4487L28.7437 18.724Z" fill="#FA0C00"/>
<path d="M92.1489 32.2939L94.6561 39.4692C94.7393 39.6489 94.8639 39.7319 95.0856 39.7319H99.9062C100.169 39.7319 100.211 39.6075 100.169 39.3448L90.2096 11.7356C90.168 11.5144 90.1264 11.4729 89.9048 11.4729H83.9206C83.7544 11.4729 83.6574 11.5973 83.6574 11.7771C83.5743 13.2287 83.4496 13.6711 83.2695 14.0997L74.3902 39.3033C74.3486 39.6075 74.4456 39.7319 74.6949 39.7319H79.003C79.2662 39.7319 79.3909 39.6489 79.4878 39.3862L81.8566 32.2939H92.1489ZM83.228 27.6071C84.5301 23.6807 86.2478 18.6483 86.9404 15.7726H86.982C87.8408 18.7865 89.8632 24.759 90.7775 27.6071H83.228Z" fill="#FA0C00"/>
<path d="M112.973 40.1605C115.564 40.1605 118.32 39.6904 121.118 38.4876C121.34 38.4046 121.382 38.3079 121.382 38.1005C121.298 37.3263 121.202 36.2064 121.202 35.3493V9.35762C121.202 9.19172 121.202 9.10876 120.994 9.10876H116.298C116.118 9.10876 116.035 9.19172 116.035 9.41292V18.2197C115.3 18.1367 114.788 18.0952 114.178 18.0952C106.601 18.0952 101.947 23.0862 101.947 29.3214C101.947 36.5521 106.726 40.1605 112.973 40.1605ZM116.035 35.3493C115.259 35.5981 114.4 35.6949 113.527 35.6949C110.092 35.6949 107.28 33.7593 107.28 29.0587C107.28 24.8973 110.175 22.4364 114.012 22.4364C114.788 22.4364 115.467 22.5193 116.035 22.7406V35.3493Z" fill="#FA0C00"/>
<path d="M136.363 18.0952C129.894 18.0952 125.891 23.0447 125.891 29.1555C125.891 34.6165 129.077 40.1605 136.266 40.1605C142.347 40.1605 146.614 35.6949 146.614 29.0173C146.614 23.1277 142.998 18.0952 136.363 18.0952ZM136.1 22.4364C139.757 22.4364 141.308 25.5748 141.308 29.1555C141.308 33.5796 139.023 35.7778 136.363 35.7778C133.08 35.7778 131.141 33.0266 131.141 29.0587C131.141 24.9803 133.205 22.4364 136.1 22.4364Z" fill="#FA0C00"/>
<path d="M151.468 9.10876C151.288 9.10876 151.164 9.19172 151.164 9.41292V38.8332C151.164 38.9577 151.288 39.1789 151.468 39.2204C153.532 39.8563 155.693 40.1605 157.924 40.1605C164.309 40.1605 170.515 36.2064 170.515 28.243C170.515 22.4779 166.554 18.0952 160.348 18.0952C158.921 18.0952 157.591 18.3164 156.427 18.7036L156.372 9.4544C156.372 9.15024 156.289 9.10876 155.984 9.10876H151.468ZM165.21 28.7684C165.21 33.5381 161.941 35.7778 158.408 35.7778C157.674 35.7778 157.023 35.7364 156.427 35.5566V23.0032C157.106 22.7405 157.924 22.5193 159.433 22.5193C162.841 22.5193 165.21 24.6761 165.21 28.7684Z" fill="#FA0C00"/>
<path d="M188.041 30.3168C190.146 30.3168 191.878 30.2754 192.474 30.1371C192.695 30.0956 192.778 30.0127 192.82 29.833C192.945 29.3629 193 28.3813 193 27.1785C193 23.0862 190.534 18.0952 184.162 18.0952C177.652 18.0952 174.036 23.3903 174.036 29.3629C174.036 34.658 176.834 40.1605 184.675 40.1605C187.611 40.1605 189.509 39.6904 191.144 38.9162C191.31 38.8332 191.393 38.695 191.393 38.4461V34.8654C191.393 34.658 191.268 34.6165 191.144 34.6995C189.509 35.3907 187.736 35.7364 185.797 35.7364C181.406 35.7364 179.411 33.3169 179.286 30.3168H188.041ZM179.286 26.6117C179.632 24.5102 180.962 22.229 183.941 22.229C187.224 22.229 188.082 24.9803 188.082 26.2245C188.082 26.266 188.082 26.4458 188.082 26.5702C187.902 26.6117 187.348 26.6117 185.714 26.6117H179.286Z" fill="#FA0C00"/>
</g>
<defs>
<clipPath id="clip0_1062_951">
<rect width="193" height="50.7895" fill="white"/>
</clipPath>
</defs>
</svg>
