<svg xmlns="http://www.w3.org/2000/svg" viewBox="0 0 300 47.98"><defs><style>.cls-1{fill:#33c152;}.cls-2{fill:#3e6833;}.cls-3{fill:#bdd02e;}</style></defs><g id="Capa_2" data-name="Capa 2"><g id="Capa_1-2" data-name="Capa 1"><path class="cls-1" d="M101,38.13l.06,0a.36.36,0,0,0,.14-.18,1.14,1.14,0,0,0,.07-.41v-23a1.14,1.14,0,0,0-.06-.39.71.71,0,0,0-.2-.24l-.06-.05a.3.3,0,0,0-.19-.1,2,2,0,0,0-.39-.05h-3a1.68,1.68,0,0,0-.48,0,.06.06,0,0,0,0,0,.85.85,0,0,0-.14.25l-.32.79-1,3.16-.79-1.15a8.92,8.92,0,0,0-1.19-1.36,7.07,7.07,0,0,0-1.5-1.08,8.61,8.61,0,0,0-4-1,12.57,12.57,0,0,0-8.94,3.67A13.08,13.08,0,0,0,75.65,29.5a12.54,12.54,0,0,0,8.79,8.86,12.94,12.94,0,0,0,3.38.44,7.48,7.48,0,0,0,1.84-.23,8.84,8.84,0,0,0,1.68-.63,8.35,8.35,0,0,0,1.45-.88A11,11,0,0,0,94,36l.82-.81.58,2,.22.61a1.27,1.27,0,0,0,.17.31.38.38,0,0,0,.16.11,1,1,0,0,0,.43.06h4a2,2,0,0,0,.39,0,.28.28,0,0,0,.18-.09Zm-6.67-9.26a6.85,6.85,0,0,1-1.51,2.25,7.27,7.27,0,0,1-2.25,1.5,7.11,7.11,0,0,1-2.81.55,6.46,6.46,0,0,1-2.7-.56A6.36,6.36,0,0,1,83,31.09a6.53,6.53,0,0,1-1.33-2.26,8.33,8.33,0,0,1,0-5.46A7,7,0,0,1,83,21.07a6.24,6.24,0,0,1,4.8-2.18,7,7,0,0,1,2.82.58A7.12,7.12,0,0,1,92.83,21a7.33,7.33,0,0,1,1.5,2.29,7.37,7.37,0,0,1,0,5.54"/><path class="cls-1" d="M128.05,40.69a13.92,13.92,0,0,0,1-5.41V14.52a.73.73,0,0,0-.07-.35.65.65,0,0,0-.19-.24,1.29,1.29,0,0,0-.33-.18,1,1,0,0,0-.34-.06h-3a1.19,1.19,0,0,0-.41.05.5.5,0,0,0-.14.1.87.87,0,0,0-.15.27l-.22.62-1,3-.8-1a16.11,16.11,0,0,0-1.26-1.36,8.23,8.23,0,0,0-1.46-1.08,7.3,7.3,0,0,0-1.74-.71,7.8,7.8,0,0,0-2.13-.27,11.83,11.83,0,0,0-4.82,1A11.6,11.6,0,0,0,107.15,17a12.15,12.15,0,0,0-2.53,4,13.44,13.44,0,0,0-.91,5,12.91,12.91,0,0,0,.9,4.9,11.22,11.22,0,0,0,2.52,3.8A11.5,11.5,0,0,0,111,37.18a12.94,12.94,0,0,0,4.84.89,6.49,6.49,0,0,0,2-.27,6.22,6.22,0,0,0,1.52-.69,8.1,8.1,0,0,0,1.24-1c.4-.4.8-.82,1.19-1.23l1.18-1.27v2.06a1,1,0,0,1,0,.26v.27c0,.37,0,.73,0,1.08a4.26,4.26,0,0,1-.21,1,4.47,4.47,0,0,1-1.07,1.86,7.18,7.18,0,0,1-1.69,1.3,8.39,8.39,0,0,1-2,.79,8.49,8.49,0,0,1-2.08.27c-.38,0-.81,0-1.28-.06a8.83,8.83,0,0,1-1.5-.24,7.61,7.61,0,0,1-1.48-.51,4.86,4.86,0,0,1-1.34-.88c-.44-.32-.64-.33-.68-.33a.28.28,0,0,0-.17,0,1.72,1.72,0,0,0-.36.31l-1.92,2.64a1.3,1.3,0,0,0-.25.68.72.72,0,0,0,.1.38,1.55,1.55,0,0,0,.35.37l0,0a9.05,9.05,0,0,0,1.93,1.3,14.67,14.67,0,0,0,2.32,1,18.82,18.82,0,0,0,2.42.56,15.45,15.45,0,0,0,2.26.18,15,15,0,0,0,5.07-.85,11.69,11.69,0,0,0,4-2.47,11.5,11.5,0,0,0,2.68-4M123.37,26.4a6.8,6.8,0,0,1-.65,2.65,7,7,0,0,1-1.52,2.12A6.77,6.77,0,0,1,119,32.58a7.22,7.22,0,0,1-2.71.51,6.49,6.49,0,0,1-2.7-.55A6.2,6.2,0,0,1,111.47,31a6.89,6.89,0,0,1-1.33-2.26,8.42,8.42,0,0,1,0-5.49A6.91,6.91,0,0,1,111.47,21a6.33,6.33,0,0,1,2.08-1.56,6.25,6.25,0,0,1,2.71-.59,6.8,6.8,0,0,1,2.73.56,7.19,7.19,0,0,1,2.22,1.48,7.47,7.47,0,0,1,1.52,2.16,6.91,6.91,0,0,1,.64,2.61v.74Z"/><path class="cls-1" d="M152.73,16.5c0-.2-.19-.41-.54-.62l-.06,0c-.59-.42-1.14-.8-1.63-1.11a7.85,7.85,0,0,0-1.43-.75,7.33,7.33,0,0,0-1.51-.44,10,10,0,0,0-1.84-.16,4.58,4.58,0,0,0-1.64.28,10.1,10.1,0,0,0-1.91,1.05,12.89,12.89,0,0,0-2.58,2.87s-1.05-2.83-1.17-3.11a1.91,1.91,0,0,0-.39-.57.4.4,0,0,0-.33-.11h-3.08a1.31,1.31,0,0,0-.38.06,1,1,0,0,0-.31.16.65.65,0,0,0-.19.24,1,1,0,0,0-.07.37V37.45c0,.67.22.88.91.88h4.59a1.13,1.13,0,0,0,.76-.18,1.06,1.06,0,0,0,.19-.7v-15l.1-.16c.3-.48.6-.92.89-1.32a6.33,6.33,0,0,1,1-1.09,4.5,4.5,0,0,1,1.29-.75,4.66,4.66,0,0,1,1.64-.27,5.54,5.54,0,0,1,2.35.48,7.17,7.17,0,0,1,1.88,1.32,1.56,1.56,0,0,0,.54.12.93.93,0,0,0,.79-.48l1.84-3.14a1.55,1.55,0,0,0,.26-.69"/><path class="cls-1" d="M174.68,35.12a12.67,12.67,0,0,0,2-2.57,13.36,13.36,0,0,0,1.28-3,12.78,12.78,0,0,0,.45-3.42,12.57,12.57,0,0,0-1-5,13,13,0,0,0-2.72-4,12.55,12.55,0,0,0-9-3.66,12.88,12.88,0,0,0-3.42.44,13.06,13.06,0,0,0-3,1.26,12.51,12.51,0,0,0-4.54,4.52,12.83,12.83,0,0,0-1.27,3,13,13,0,0,0-.46,3.43,12.78,12.78,0,0,0,.46,3.42,12.55,12.55,0,0,0,5.81,7.59,13.08,13.08,0,0,0,3,1.27,13.3,13.3,0,0,0,3.42.44,12.94,12.94,0,0,0,3.38-.44,13.3,13.3,0,0,0,3-1.27,12.64,12.64,0,0,0,2.56-2m-3-6.3a6.66,6.66,0,0,1-1.27,2.26,6.19,6.19,0,0,1-2,1.53,6.38,6.38,0,0,1-2.69.56,6.55,6.55,0,0,1-2.74-.56,6.22,6.22,0,0,1-2.08-1.52,6.87,6.87,0,0,1-1.32-2.26,8.33,8.33,0,0,1,0-5.46,7,7,0,0,1,1.31-2.3,6.2,6.2,0,0,1,4.83-2.18,6.15,6.15,0,0,1,2.7.59,6.25,6.25,0,0,1,2,1.6,7,7,0,0,1,1.26,2.3,8.35,8.35,0,0,1,.44,2.7,8.46,8.46,0,0,1-.44,2.74"/><path class="cls-1" d="M193.53,19.34a1.1,1.1,0,0,0,.2-.76V14.64a.91.91,0,0,0-.19-.67.81.81,0,0,0-.59-.2h-3.48l0-6.29a1.76,1.76,0,0,0-.16-.81s-.17-.1-.42-.1h-.2l-4.58,1.6a3.84,3.84,0,0,0-1,.5s-.15.11-.15.4l0,4.7h-2.78c-.68,0-.89.21-.89.87v3.94c0,.81.31,1,.89,1H183l0,17.9c0,.67.22.88.89.88h4.61a1.18,1.18,0,0,0,.79-.22.81.81,0,0,0,.22-.66l0-17.9H193a.75.75,0,0,0,.58-.21"/><path class="cls-1" d="M218.26,35.12a12.79,12.79,0,0,0,3.25-5.62,12.78,12.78,0,0,0,.45-3.42,12.57,12.57,0,0,0-1-5,12.93,12.93,0,0,0-2.71-4,12.66,12.66,0,0,0-9-3.67,13,13,0,0,0-6.48,1.71,12.79,12.79,0,0,0-2.56,2,12.72,12.72,0,0,0-3.25,5.6,13,13,0,0,0-.45,3.43A12.78,12.78,0,0,0,197,29.5a12.52,12.52,0,0,0,1.28,3,12.55,12.55,0,0,0,7.59,5.81,13.19,13.19,0,0,0,3.42.44,12.87,12.87,0,0,0,3.37-.44,12.52,12.52,0,0,0,3-1.27,13,13,0,0,0,2.57-2m-3-6.3A6.78,6.78,0,0,1,214,31.08a6,6,0,0,1-2,1.53,6.35,6.35,0,0,1-2.69.56,6.61,6.61,0,0,1-2.74-.56,6.22,6.22,0,0,1-2.08-1.52,6.87,6.87,0,0,1-1.32-2.26,8.51,8.51,0,0,1,0-5.46,7.33,7.33,0,0,1,1.31-2.3,6.2,6.2,0,0,1,4.83-2.18,6.11,6.11,0,0,1,2.7.59,6.05,6.05,0,0,1,2,1.6,7.05,7.05,0,0,1,1.27,2.3,8.35,8.35,0,0,1,.43,2.7,8.46,8.46,0,0,1-.43,2.74"/><path class="cls-1" d="M242.08,37.56a3.37,3.37,0,0,0,.56.67.29.29,0,0,0,.21.1h6.89A.27.27,0,0,0,250,38a1.14,1.14,0,0,0-.23-.32L238.87,23.57l8.77-9.26a2,2,0,0,0,.19-.26V14a.45.45,0,0,0,0-.12s-.09-.08-.42-.08h-6.27a1,1,0,0,0-.75.37l-8.54,9.48V6.76a1.11,1.11,0,0,0,0-.29.38.38,0,0,0-.08-.17.44.44,0,0,0-.18-.14.64.64,0,0,0-.32-.06h-4.88a2.1,2.1,0,0,0-.69.08.44.44,0,0,0-.16.08.31.31,0,0,0,0,.12c0,.18,0,.38,0,.59V37.6a1,1,0,0,0,0,.11,1.15,1.15,0,0,0,.16.31.8.8,0,0,0,.24.25.35.35,0,0,0,.23.06h5.12a.54.54,0,0,0,.3-.06.68.68,0,0,0,.22-.23,1,1,0,0,0,.12-.29,1.32,1.32,0,0,0,0-.3V30.58l3-3.14Z"/><path class="cls-1" d="M273.08,26.64c0-.43,0-1,0-1.7a10.28,10.28,0,0,0-.43-3,11.74,11.74,0,0,0-1.22-2.73,13,13,0,0,0-1.9-2.37A12,12,0,0,0,267.14,15a11.81,11.81,0,0,0-2.83-1.2,11.49,11.49,0,0,0-3.1-.43,12,12,0,0,0-6.27,1.76,11.42,11.42,0,0,0-2.44,2,12.63,12.63,0,0,0-3,5.56A12.87,12.87,0,0,0,249,26a12.27,12.27,0,0,0,1,5.05,13.09,13.09,0,0,0,12,7.69,11.56,11.56,0,0,0,4.49-.88,12.9,12.9,0,0,0,3.83-2.45l.06,0a1.57,1.57,0,0,0,.39-.38.43.43,0,0,0,.09-.29.6.6,0,0,0-.19-.47l-2.13-2.43a4.86,4.86,0,0,0-.51-.43.32.32,0,0,0-.16-.06.29.29,0,0,0-.16,0,3.91,3.91,0,0,0-.44.31,5.28,5.28,0,0,1-1.09.79,8.6,8.6,0,0,1-1.44.64,11.63,11.63,0,0,1-1.59.44,8.51,8.51,0,0,1-1.64.16,8.11,8.11,0,0,1-1.9-.24,6.65,6.65,0,0,1-1.94-.83A6.1,6.1,0,0,1,256.13,31a5.8,5.8,0,0,1-.94-2.47l-.13-.79h15.49a8.72,8.72,0,0,0,1.8-.14,1,1,0,0,0,.54-.28,1.31,1.31,0,0,0,.19-.71m-18-3.3.46-1a8.53,8.53,0,0,1,.92-1.5,8.06,8.06,0,0,1,1.29-1.32,6.54,6.54,0,0,1,1.56-.94,4.55,4.55,0,0,1,1.81-.37,6.75,6.75,0,0,1,2.15.32,5.74,5.74,0,0,1,1.67.91,6.81,6.81,0,0,1,1.26,1.31,11,11,0,0,1,1,1.55l.55,1Z"/><path class="cls-1" d="M293.82,38.22a1.45,1.45,0,0,0,.74.11h4.72a.76.76,0,0,0,.55-.15,1.22,1.22,0,0,0,.17-.73V24.08a13.68,13.68,0,0,0-.63-4.2,10.12,10.12,0,0,0-1.81-3.39,8.41,8.41,0,0,0-6.73-3.08,10.82,10.82,0,0,0-2.78.33,8.4,8.4,0,0,0-2.19.84,8,8,0,0,0-3.23,3.94l-.86-3.62c-.06-.18-.13-.35-.19-.52a1.19,1.19,0,0,0-.19-.33.84.84,0,0,0-.23-.18.73.73,0,0,0-.32-.06h-3.09a2.18,2.18,0,0,0-.42,0,.49.49,0,0,0-.24.12l0,0a.66.66,0,0,0-.23.24.86.86,0,0,0-.09.39V37.45a1,1,0,0,0,.21.68,1.07,1.07,0,0,0,.75.2h4.62a1.28,1.28,0,0,0,.36,0,.94.94,0,0,0,.3-.13.39.39,0,0,0,.13-.2,1.24,1.24,0,0,0,.09-.45V24.2a4.74,4.74,0,0,1,.59-2,6.15,6.15,0,0,1,1.22-1.54,5.68,5.68,0,0,1,1.6-1,4.6,4.6,0,0,1,3.71,0,5.62,5.62,0,0,1,1.68,1.08,5.47,5.47,0,0,1,1.2,1.58,4.33,4.33,0,0,1,.47,2V37.57a1.23,1.23,0,0,0,.1.65"/><path class="cls-2" d="M19.26,39.73a13.53,13.53,0,0,0,2.29-3.35l4.59-11.17L19.73,9.61H19a6.61,6.61,0,0,0-2.86.58,8.46,8.46,0,0,0-2.24,1.53,9.62,9.62,0,0,0-1.66,2.06A16.66,16.66,0,0,0,11.15,16c-.49,1.16-1,2.45-1.62,3.93s-1.18,2.88-1.84,4.46-1.34,3.17-2,4.66S4.43,32.1,3.83,33.52c-1.25,3-2.54,6-3.83,9.06H12a10.88,10.88,0,0,0,4.29-.75,9,9,0,0,0,3-2.1"/><path class="cls-3" d="M46.77,24.74A1.06,1.06,0,0,0,46.9,24a1,1,0,0,0-.46-.64,1,1,0,1,0,.33,1.43"/><path class="cls-3" d="M42,16.37a1,1,0,0,0,.13-.78,1,1,0,0,0-.45-.65A1,1,0,1,0,40.6,16.7,1,1,0,0,0,42,16.37"/><path class="cls-3" d="M40,27.23l-5.19-2a2.33,2.33,0,0,1-.91.71,2.28,2.28,0,0,1-1.76,0A2.3,2.3,0,1,1,35.26,24l4.09,1.59-3.51-8.71L32.4,15.24A2.29,2.29,0,1,1,32.86,13,2.36,2.36,0,0,1,33,14.1l2.19,1.07-2.41-6A2.23,2.23,0,0,1,31.59,9a2.29,2.29,0,1,1,2.32-.28l4.28,10.63,1.25-2a2.31,2.31,0,1,1,1.07.67l-1.74,2.76L42.09,29l2.08-3.32a2.42,2.42,0,0,1-.53-1,2.31,2.31,0,1,1,1.61,1.7l-2.58,4.09,3.14,7.81H58q-2.46-5.79-4.81-11.38L51.09,22c-.73-1.71-1.45-3.42-2.16-5.11s-1.39-3.33-2-4.9-1.24-3-1.78-4.32a19.11,19.11,0,0,0-1.32-2.57,11.84,11.84,0,0,0-2-2.49A10.35,10.35,0,0,0,39.08.74,8.3,8.3,0,0,0,35.5,0H14V.44a3.19,3.19,0,0,1,1.92.74A12,12,0,0,1,17.81,3a18.31,18.31,0,0,1,1.72,2.38c.53.86,1,1.63,1.4,2.32l9.52,23.17a16,16,0,0,0,2.71,4,11,11,0,0,0,3.66,2.54,13,13,0,0,0,5.12.9h2.51Z"/><path class="cls-3" d="M31.14,12.77a1,1,0,0,0-1.44,1.28,1,1,0,0,0,.53.59,1,1,0,0,0,1.39-.48,1,1,0,0,0-.48-1.39"/><path class="cls-3" d="M33.35,22.85a1,1,0,0,0-.79,0,1,1,0,0,0-.55.57,1,1,0,0,0,1.93.75,1,1,0,0,0-.59-1.34"/><path class="cls-3" d="M32.92,5.94a1.05,1.05,0,0,0-.8,0,1,1,0,1,0,1.35.58,1.09,1.09,0,0,0-.55-.57"/></g></g></svg>