<svg width="75" height="63" viewBox="0 0 75 63" fill="none" xmlns="http://www.w3.org/2000/svg">
<g clip-path="url(#clip0_8_216)">
<path fill-rule="evenodd" clip-rule="evenodd" d="M39.8516 2.83921C41.1641 2.83921 42.3952 3.01515 43.535 3.34145C42.419 0.740623 40.102 0 37.5234 0C34.9397 0 32.6187 0.743534 31.5053 3.35677C32.6367 3.01899 33.8625 2.83921 35.1705 2.83921H39.8516ZM34.8703 5.45034C28.6382 5.45034 25.0874 10.3531 25.0874 16.4009V22.6135C25.0874 23.2182 25.5926 23.6967 26.2158 23.6967H48.7841C49.4073 23.6967 49.9126 23.2182 49.9126 22.6135V16.4009C49.9126 10.3531 45.7835 5.45034 39.5514 5.45034H34.8703ZM37.4912 16.4546C39.6724 16.4546 41.4406 14.6864 41.4406 12.5051C41.4406 10.3239 39.6724 8.55569 37.4912 8.55569C35.3099 8.55569 33.5417 10.3239 33.5417 12.5051C33.5417 14.6864 35.3099 16.4546 37.4912 16.4546ZM25.0874 27.3484C25.0874 26.7436 25.5926 26.2533 26.2158 26.2533H48.7841C49.4073 26.2533 49.9126 26.7436 49.9126 27.3484V33.9187C49.9126 35.1282 48.9021 36.1088 47.6557 36.1088H27.3442C26.0978 36.1088 25.0874 35.1282 25.0874 33.9187V27.3484Z" fill="#E33E3F"/>
</g>
<path d="M0 58.9146V47.3293H4.87426C5.66858 47.3293 6.34943 47.4641 6.91681 47.7336C7.48418 48.0032 7.91745 48.3919 8.21661 48.8999C8.51577 49.3976 8.66535 50.004 8.66535 50.7194C8.66535 51.2274 8.52609 51.7146 8.24756 52.1811C7.96903 52.6373 7.50997 53.0209 6.87038 53.3319V52.15C7.47902 52.3885 7.9484 52.6736 8.2785 53.0053C8.60861 53.3371 8.83556 53.6999 8.95935 54.0939C9.08314 54.4775 9.14504 54.8818 9.14504 55.3068C9.14504 56.4472 8.76851 57.3336 8.01545 57.966C7.26239 58.5984 6.21533 58.9146 4.87426 58.9146H0ZM2.39844 56.8152H5.15279C5.63764 56.8152 6.02448 56.6753 6.31333 56.3954C6.60217 56.1155 6.74659 55.7526 6.74659 55.3068C6.74659 54.8507 6.60217 54.4826 6.31333 54.2027C6.02448 53.9228 5.63764 53.7829 5.15279 53.7829H2.39844V56.8152ZM2.39844 51.6835H5.04447C5.41584 51.6835 5.70985 51.5798 5.92648 51.3725C6.15343 51.1548 6.2669 50.8697 6.2669 50.5172C6.2669 50.1647 6.15343 49.8848 5.92648 49.6775C5.70985 49.4598 5.41584 49.3509 5.04447 49.3509H2.39844V51.6835Z" fill="white"/>
<path d="M13.1285 59.1012C12.5198 59.1012 11.9937 59.0027 11.5501 58.8057C11.1065 58.6088 10.7661 58.3289 10.5289 57.966C10.2916 57.5928 10.173 57.1522 10.173 56.6442C10.173 56.1673 10.2813 55.7474 10.4979 55.3846C10.7145 55.0114 11.0447 54.7003 11.4882 54.4515C11.9421 54.2027 12.5044 54.0265 13.1749 53.9228L15.759 53.5029V55.2135L13.5927 55.6023C13.2626 55.6645 13.0098 55.7733 12.8345 55.9289C12.6591 56.074 12.5714 56.2865 12.5714 56.5664C12.5714 56.8256 12.6694 57.0278 12.8654 57.1729C13.0614 57.3181 13.3038 57.3906 13.5927 57.3906C13.9744 57.3906 14.3096 57.3077 14.5985 57.1418C14.8873 56.9759 15.1091 56.753 15.2639 56.4731C15.4289 56.1829 15.5114 55.8667 15.5114 55.5245V53.3163C15.5114 52.995 15.3825 52.7254 15.1246 52.5077C14.877 52.29 14.5366 52.1811 14.1033 52.1811C13.6907 52.1811 13.3245 52.2952 13.0047 52.5232C12.6952 52.7513 12.4682 53.052 12.3238 53.4252L10.467 52.5388C10.632 52.0619 10.8951 51.6524 11.2561 51.3103C11.6172 50.9682 12.0505 50.7038 12.5559 50.5172C13.0614 50.3306 13.6133 50.2373 14.2116 50.2373C14.9234 50.2373 15.5527 50.3669 16.0994 50.6261C16.6462 50.8852 17.0691 51.2481 17.3683 51.7146C17.6778 52.1708 17.8325 52.7047 17.8325 53.3163V58.9146H15.6662V57.5461L16.1923 57.4528C15.9447 57.826 15.6713 58.1371 15.3722 58.3859C15.073 58.6243 14.7377 58.8006 14.3664 58.9146C13.995 59.039 13.5824 59.1012 13.1285 59.1012Z" fill="white"/>
<path d="M23.6817 59.1012C22.8358 59.1012 22.0725 58.9094 21.3916 58.5258C20.7211 58.1319 20.1847 57.598 19.7823 56.9241C19.3903 56.2502 19.1943 55.4934 19.1943 54.6537C19.1943 53.814 19.3903 53.0623 19.7823 52.3988C20.1743 51.725 20.7108 51.1963 21.3916 50.8127C22.0725 50.4291 22.8358 50.2373 23.6817 50.2373C24.311 50.2373 24.8939 50.3461 25.4303 50.5639C25.9667 50.7816 26.4258 51.0874 26.8075 51.4814C27.1891 51.8649 27.4625 52.3211 27.6276 52.8498L25.616 53.7207C25.4715 53.2956 25.224 52.9587 24.8732 52.7099C24.5328 52.461 24.1356 52.3366 23.6817 52.3366C23.2794 52.3366 22.9184 52.4351 22.5986 52.6321C22.2891 52.8291 22.0415 53.1038 21.8558 53.4563C21.6805 53.8088 21.5928 54.2131 21.5928 54.6692C21.5928 55.1254 21.6805 55.5297 21.8558 55.8822C22.0415 56.2347 22.2891 56.5094 22.5986 56.7064C22.9184 56.9034 23.2794 57.0019 23.6817 57.0019C24.146 57.0019 24.5483 56.8774 24.8887 56.6286C25.2291 56.3798 25.4715 56.0429 25.616 55.6178L27.6276 56.5042C27.4728 57.0019 27.2046 57.4476 26.8229 57.8416C26.4412 58.2355 25.9822 58.5466 25.4458 58.7746C24.9093 58.9923 24.3213 59.1012 23.6817 59.1012Z" fill="white"/>
<path d="M28.9943 58.9146V47.1427H31.3154V54.6848L30.4489 54.4049L34.1781 50.4239H37.0407L33.9769 53.8451L37.0253 58.9146H34.3947L31.8415 54.607L33.1878 54.2649L30.6036 57.0952L31.3154 55.7422V58.9146H28.9943Z" fill="white"/>
<path d="M38.061 62.0247V50.4239H40.2274V52.0412L40.0262 51.5747C40.3048 51.1496 40.6813 50.823 41.1558 50.595C41.6407 50.3565 42.1926 50.2373 42.8115 50.2373C43.6162 50.2373 44.3434 50.4343 44.9933 50.8282C45.6432 51.2222 46.159 51.7561 46.5407 52.4299C46.9224 53.0934 47.1132 53.8399 47.1132 54.6692C47.1132 55.4883 46.9224 56.2347 46.5407 56.9086C46.1693 57.5824 45.6587 58.1163 45.0088 58.5103C44.3589 58.9042 43.6213 59.1012 42.796 59.1012C42.2184 59.1012 41.6819 58.9975 41.1868 58.7902C40.7019 58.5725 40.3099 58.2563 40.0108 57.8416L40.3821 57.3595V62.0247H38.061ZM42.5175 57.0019C42.9508 57.0019 43.3325 56.9034 43.6626 56.7064C43.9927 56.5094 44.2506 56.2347 44.4363 55.8822C44.622 55.5297 44.7148 55.1254 44.7148 54.6692C44.7148 54.2131 44.622 53.814 44.4363 53.4718C44.2506 53.1194 43.9927 52.8446 43.6626 52.6477C43.3325 52.4403 42.9508 52.3366 42.5175 52.3366C42.1049 52.3366 41.7335 52.4351 41.4034 52.6321C41.0836 52.8291 40.8309 53.1038 40.6452 53.4563C40.4698 53.8088 40.3821 54.2131 40.3821 54.6692C40.3821 55.1254 40.4698 55.5297 40.6452 55.8822C40.8309 56.2347 41.0836 56.5094 41.4034 56.7064C41.7335 56.9034 42.1049 57.0019 42.5175 57.0019Z" fill="white"/>
<path d="M51.0877 59.1012C50.4791 59.1012 49.953 59.0027 49.5094 58.8057C49.0658 58.6088 48.7254 58.3289 48.4881 57.966C48.2509 57.5928 48.1322 57.1522 48.1322 56.6442C48.1322 56.1673 48.2405 55.7474 48.4572 55.3846C48.6738 55.0114 49.0039 54.7003 49.4475 54.4515C49.9014 54.2027 50.4636 54.0265 51.1341 53.9228L53.7183 53.5029V55.2135L51.5519 55.6023C51.2218 55.6645 50.9691 55.7733 50.7937 55.9289C50.6183 56.074 50.5307 56.2865 50.5307 56.5664C50.5307 56.8256 50.6287 57.0278 50.8247 57.1729C51.0207 57.3181 51.2631 57.3906 51.5519 57.3906C51.9336 57.3906 52.2689 57.3077 52.5577 57.1418C52.8466 56.9759 53.0684 56.753 53.2231 56.4731C53.3882 56.1829 53.4707 55.8667 53.4707 55.5245V53.3163C53.4707 52.995 53.3417 52.7254 53.0838 52.5077C52.8363 52.29 52.4958 52.1811 52.0626 52.1811C51.6499 52.1811 51.2837 52.2952 50.9639 52.5232C50.6545 52.7513 50.4275 53.052 50.2831 53.4252L48.4262 52.5388C48.5913 52.0619 48.8543 51.6524 49.2154 51.3103C49.5764 50.9682 50.0097 50.7038 50.5152 50.5172C51.0207 50.3306 51.5726 50.2373 52.1709 50.2373C52.8827 50.2373 53.512 50.3669 54.0587 50.6261C54.6054 50.8852 55.0284 51.2481 55.3276 51.7146C55.637 52.1708 55.7918 52.7047 55.7918 53.3163V58.9146H53.6254V57.5461L54.1515 57.4528C53.904 57.826 53.6306 58.1371 53.3314 58.3859C53.0323 58.6243 52.697 58.8006 52.3256 58.9146C51.9543 59.039 51.5416 59.1012 51.0877 59.1012Z" fill="white"/>
<path d="M61.641 59.1012C60.7951 59.1012 60.0317 58.9094 59.3509 58.5258C58.6803 58.1319 58.1439 57.598 57.7416 56.9241C57.3496 56.2502 57.1536 55.4934 57.1536 54.6537C57.1536 53.814 57.3496 53.0623 57.7416 52.3988C58.1336 51.725 58.67 51.1963 59.3509 50.8127C60.0317 50.4291 60.7951 50.2373 61.641 50.2373C62.2703 50.2373 62.8531 50.3461 63.3895 50.5639C63.926 50.7816 64.385 51.0874 64.7667 51.4814C65.1484 51.8649 65.4218 52.3211 65.5868 52.8498L63.5752 53.7207C63.4308 53.2956 63.1832 52.9587 62.8325 52.7099C62.4921 52.461 62.0949 52.3366 61.641 52.3366C61.2387 52.3366 60.8776 52.4351 60.5578 52.6321C60.2484 52.8291 60.0008 53.1038 59.8151 53.4563C59.6397 53.8088 59.552 54.2131 59.552 54.6692C59.552 55.1254 59.6397 55.5297 59.8151 55.8822C60.0008 56.2347 60.2484 56.5094 60.5578 56.7064C60.8776 56.9034 61.2387 57.0019 61.641 57.0019C62.1052 57.0019 62.5075 56.8774 62.848 56.6286C63.1884 56.3798 63.4308 56.0429 63.5752 55.6178L65.5868 56.5042C65.4321 57.0019 65.1639 57.4476 64.7822 57.8416C64.4005 58.2355 63.9414 58.5466 63.405 58.7746C62.8686 58.9923 62.2806 59.1012 61.641 59.1012Z" fill="white"/>
<path d="M66.9536 58.9146V47.1427H69.2747V54.6848L68.4081 54.4049L72.1373 50.4239H75L71.9362 53.8451L74.9845 58.9146H72.354L69.8008 54.607L71.147 54.2649L68.5629 57.0952L69.2747 55.7422V58.9146H66.9536Z" fill="white"/>
<defs>
<clipPath id="clip0_8_216">
<rect width="24.8252" height="36.1093" fill="white" transform="translate(25.0874)"/>
</clipPath>
</defs>
</svg>
