<svg width="109" height="90" viewBox="0 0 109 90" fill="none" xmlns="http://www.w3.org/2000/svg">
<g clip-path="url(#clip0_1_775)">
<path fill-rule="evenodd" clip-rule="evenodd" d="M57.7905 4.11726C59.6938 4.11726 61.479 4.37239 63.1319 4.84557C61.5137 1.07401 58.1537 0 54.4143 0C50.6675 0 47.3017 1.07823 45.6871 4.8678C47.3279 4.37797 49.1055 4.11726 51.0022 4.11726H57.7905ZM50.5669 7.90376C41.5295 7.90376 36.3803 15.0134 36.3803 23.7836V32.7927C36.3803 33.6697 37.1129 34.3636 38.0167 34.3636H70.7439C71.6477 34.3636 72.3803 33.6697 72.3803 32.7927V23.7836C72.3803 15.0134 66.3926 7.90376 57.3552 7.90376H50.5669ZM54.3675 23.8615C57.5306 23.8615 60.0948 21.2973 60.0948 18.1342C60.0948 14.9711 57.5306 12.407 54.3675 12.407C51.2044 12.407 48.6403 14.9711 48.6403 18.1342C48.6403 21.2973 51.2044 23.8615 54.3675 23.8615ZM36.3803 39.659C36.3803 38.782 37.1129 38.071 38.0167 38.071H70.7439C71.6477 38.071 72.3803 38.782 72.3803 39.659V49.1869C72.3803 50.9409 70.9151 52.3629 69.1076 52.3629H39.653C37.8456 52.3629 36.3803 50.9409 36.3803 49.1869V39.659Z" fill="#E33E3F"/>
</g>
<path d="M0 85.4346V68.6343H7.06837C8.22025 68.6343 9.20758 68.8297 10.0304 69.2206C10.8531 69.6115 11.4814 70.1752 11.9153 70.9119C12.3491 71.6335 12.566 72.513 12.566 73.5503C12.566 74.287 12.364 74.9936 11.9601 75.6701C11.5562 76.3316 10.8905 76.8878 9.96303 77.3388V75.625C10.8456 75.9708 11.5263 76.3842 12.005 76.8653C12.4837 77.3464 12.8128 77.8725 12.9923 78.4438C13.1718 79.0001 13.2616 79.5864 13.2616 80.2028C13.2616 81.8565 12.7156 83.1419 11.6235 84.059C10.5315 84.976 9.01311 85.4346 7.06837 85.4346H0ZM3.47809 82.3902H7.47228C8.17537 82.3902 8.73635 82.1873 9.15522 81.7813C9.57409 81.3754 9.78352 80.8492 9.78352 80.2028C9.78352 79.5413 9.57409 79.0076 9.15522 78.6017C8.73635 78.1958 8.17537 77.9928 7.47228 77.9928H3.47809V82.3902ZM3.47809 74.9485H7.3152C7.85374 74.9485 8.28009 74.7981 8.59424 74.4975C8.92335 74.1817 9.0879 73.7683 9.0879 73.2572C9.0879 72.746 8.92335 72.3401 8.59424 72.0394C8.28009 71.7237 7.85374 71.5659 7.3152 71.5659H3.47809V74.9485Z" fill="white"/>
<path d="M19.0381 85.7052C18.1555 85.7052 17.3926 85.5624 16.7493 85.2767C16.1061 84.9911 15.6124 84.5852 15.2683 84.059C14.9243 83.5178 14.7522 82.8788 14.7522 82.1422C14.7522 81.4506 14.9093 80.8417 15.2235 80.3155C15.5376 79.7743 16.0163 79.3233 16.6596 78.9625C17.3178 78.6017 18.1331 78.3461 19.1055 78.1958L22.8528 77.5869V80.0675L19.7113 80.6313C19.2326 80.7215 18.8661 80.8793 18.6118 81.1048C18.3575 81.3153 18.2303 81.6235 18.2303 82.0294C18.2303 82.4052 18.3724 82.6984 18.6567 82.9089C18.9409 83.1194 19.2924 83.2246 19.7113 83.2246C20.2648 83.2246 20.751 83.1043 21.1699 82.8638C21.5887 82.6232 21.9104 82.3 22.1348 81.8941C22.3741 81.4732 22.4938 81.0146 22.4938 80.5185V77.3163C22.4938 76.8502 22.3068 76.4594 21.9328 76.1437C21.5738 75.8279 21.0801 75.6701 20.4518 75.6701C19.8534 75.6701 19.3224 75.8355 18.8586 76.1662C18.4098 76.497 18.0807 76.9329 17.8713 77.4742L15.1786 76.1888C15.4179 75.4972 15.7994 74.9034 16.323 74.4072C16.8466 73.9111 17.4749 73.5278 18.2079 73.2572C18.9409 72.9866 19.7412 72.8512 20.6089 72.8512C21.6411 72.8512 22.5536 73.0392 23.3465 73.415C24.1393 73.7909 24.7527 74.317 25.1865 74.9936C25.6353 75.6551 25.8597 76.4293 25.8597 77.3163V85.4346H22.7182V83.4501L23.4811 83.3148C23.1221 83.856 22.7257 84.307 22.2918 84.6678C21.858 85.0136 21.3718 85.2692 20.8333 85.4346C20.2947 85.615 19.6964 85.7052 19.0381 85.7052Z" fill="white"/>
<path d="M34.3419 85.7052C33.1152 85.7052 32.0082 85.427 31.0209 84.8708C30.0485 84.2995 29.2706 83.5253 28.6872 82.5481C28.1187 81.5709 27.8345 80.4734 27.8345 79.2557C27.8345 78.0379 28.1187 76.948 28.6872 75.9858C29.2557 75.0086 30.0336 74.2419 31.0209 73.6856C32.0082 73.1294 33.1152 72.8512 34.3419 72.8512C35.2544 72.8512 36.0996 73.0091 36.8775 73.3248C37.6554 73.6405 38.3211 74.084 38.8746 74.6553C39.4281 75.2116 39.8246 75.873 40.0639 76.6398L37.1468 77.9026C36.9374 77.2862 36.5783 76.7976 36.0697 76.4368C35.5761 76.076 35.0001 75.8956 34.3419 75.8956C33.7585 75.8956 33.2349 76.0384 32.7711 76.3241C32.3224 76.6097 31.9633 77.0081 31.6941 77.5193C31.4397 78.0304 31.3126 78.6167 31.3126 79.2782C31.3126 79.9397 31.4397 80.526 31.6941 81.0372C31.9633 81.5483 32.3224 81.9467 32.7711 82.2324C33.2349 82.518 33.7585 82.6608 34.3419 82.6608C35.0151 82.6608 35.5985 82.4804 36.0922 82.1196C36.5858 81.7588 36.9374 81.2702 37.1468 80.6538L40.0639 81.9392C39.8395 82.6608 39.4506 83.3073 38.8971 83.8786C38.3436 84.4499 37.6779 84.9009 36.9 85.2316C36.1221 85.5473 35.2694 85.7052 34.3419 85.7052Z" fill="white"/>
<path d="M42.0459 85.4346V68.3636H45.4118V79.3008L44.1552 78.8948L49.5631 73.1219H53.7143L49.2714 78.083L53.6919 85.4346H49.8772L46.1747 79.188L48.127 78.6919L44.3796 82.7961L45.4118 80.8342V85.4346H42.0459Z" fill="white"/>
<path d="M55.1939 89.9447V73.1219H58.3354V75.4671L58.0437 74.7906C58.4476 74.1742 58.9936 73.7007 59.6818 73.3699C60.3849 73.0241 61.1852 72.8512 62.0828 72.8512C63.2496 72.8512 64.3043 73.1369 65.2467 73.7082C66.1892 74.2795 66.9371 75.0537 67.4906 76.0309C68.0442 76.9931 68.3209 78.0755 68.3209 79.2782C68.3209 80.4659 68.0442 81.5483 67.4906 82.5255C66.9521 83.5027 66.2116 84.277 65.2692 84.8482C64.3267 85.4195 63.2571 85.7052 62.0603 85.7052C61.2226 85.7052 60.4447 85.5548 59.7267 85.2542C59.0236 84.9385 58.4551 84.4799 58.0213 83.8786L58.5598 83.1795V89.9447H55.1939ZM61.6564 82.6608C62.2847 82.6608 62.8382 82.518 63.3169 82.2324C63.7957 81.9467 64.1696 81.5483 64.4389 81.0372C64.7082 80.526 64.8428 79.9397 64.8428 79.2782C64.8428 78.6167 64.7082 78.0379 64.4389 77.5418C64.1696 77.0307 63.7957 76.6323 63.3169 76.3466C62.8382 76.0459 62.2847 75.8956 61.6564 75.8956C61.0581 75.8956 60.5195 76.0384 60.0408 76.3241C59.5771 76.6097 59.2106 77.0081 58.9413 77.5193C58.687 78.0304 58.5598 78.6167 58.5598 79.2782C58.5598 79.9397 58.687 80.526 58.9413 81.0372C59.2106 81.5483 59.5771 81.9467 60.0408 82.2324C60.5195 82.518 61.0581 82.6608 61.6564 82.6608Z" fill="white"/>
<path d="M74.0845 85.7052C73.2019 85.7052 72.4389 85.5624 71.7957 85.2767C71.1524 84.9911 70.6587 84.5852 70.3147 84.059C69.9706 83.5178 69.7986 82.8788 69.7986 82.1422C69.7986 81.4506 69.9556 80.8417 70.2698 80.3155C70.5839 79.7743 71.0626 79.3233 71.7059 78.9625C72.3641 78.6017 73.1794 78.3461 74.1518 78.1958L77.8991 77.5869V80.0675L74.7576 80.6313C74.2789 80.7215 73.9124 80.8793 73.6581 81.1048C73.4038 81.3153 73.2766 81.6235 73.2766 82.0294C73.2766 82.4052 73.4188 82.6984 73.703 82.9089C73.9872 83.1194 74.3388 83.2246 74.7576 83.2246C75.3111 83.2246 75.7973 83.1043 76.2162 82.8638C76.6351 82.6232 76.9567 82.3 77.1811 81.8941C77.4204 81.4732 77.5401 81.0146 77.5401 80.5185V77.3163C77.5401 76.8502 77.3531 76.4594 76.9791 76.1437C76.6201 75.8279 76.1264 75.6701 75.4981 75.6701C74.8997 75.6701 74.3687 75.8355 73.9049 76.1662C73.4562 76.497 73.1271 76.9329 72.9176 77.4742L70.2249 76.1888C70.4643 75.4972 70.8457 74.9034 71.3693 74.4072C71.8929 73.9111 72.5212 73.5278 73.2542 73.2572C73.9872 72.9866 74.7876 72.8512 75.6552 72.8512C76.6874 72.8512 77.5999 73.0392 78.3928 73.415C79.1857 73.7909 79.799 74.317 80.2328 74.9936C80.6816 75.6551 80.906 76.4293 80.906 77.3163V85.4346H77.7645V83.4501L78.5274 83.3148C78.1684 83.856 77.772 84.307 77.3382 84.6678C76.9043 85.0136 76.4181 85.2692 75.8796 85.4346C75.3411 85.615 74.7427 85.7052 74.0845 85.7052Z" fill="white"/>
<path d="M89.3882 85.7052C88.1615 85.7052 87.0545 85.427 86.0672 84.8708C85.0948 84.2995 84.3169 83.5253 83.7335 82.5481C83.1651 81.5709 82.8808 80.4734 82.8808 79.2557C82.8808 78.0379 83.1651 76.948 83.7335 75.9858C84.302 75.0086 85.0799 74.2419 86.0672 73.6856C87.0545 73.1294 88.1615 72.8512 89.3882 72.8512C90.3007 72.8512 91.146 73.0091 91.9239 73.3248C92.7018 73.6405 93.3674 74.084 93.9209 74.6553C94.4744 75.2116 94.8709 75.873 95.1102 76.6398L92.1931 77.9026C91.9837 77.2862 91.6247 76.7976 91.116 76.4368C90.6224 76.076 90.0464 75.8956 89.3882 75.8956C88.8048 75.8956 88.2812 76.0384 87.8175 76.3241C87.3687 76.6097 87.0097 77.0081 86.7404 77.5193C86.4861 78.0304 86.3589 78.6167 86.3589 79.2782C86.3589 79.9397 86.4861 80.526 86.7404 81.0372C87.0097 81.5483 87.3687 81.9467 87.8175 82.2324C88.2812 82.518 88.8048 82.6608 89.3882 82.6608C90.0614 82.6608 90.6448 82.4804 91.1385 82.1196C91.6321 81.7588 91.9837 81.2702 92.1931 80.6538L95.1102 81.9392C94.8858 82.6608 94.4969 83.3073 93.9434 83.8786C93.3899 84.4499 92.7242 84.9009 91.9463 85.2316C91.1684 85.5473 90.3157 85.7052 89.3882 85.7052Z" fill="white"/>
<path d="M97.0922 85.4346V68.3636H100.458V79.3008L99.2015 78.8948L104.609 73.1219H108.761L104.318 78.083L108.738 85.4346H104.924L101.221 79.188L103.173 78.6919L99.4259 82.7961L100.458 80.8342V85.4346H97.0922Z" fill="white"/>
<defs>
<clipPath id="clip0_1_775">
<rect width="36" height="52.3636" fill="white" transform="translate(36.3803)"/>
</clipPath>
</defs>
</svg>
