<svg width="236" height="54" viewBox="0 0 236 54" fill="none" xmlns="http://www.w3.org/2000/svg">
<g clip-path="url(#clip0_1302_669)">
<path d="M64.9626 26.5106C68.5411 26.5106 70.943 28.1261 72.4136 30.1333V1.54306C72.4136 1.00454 71.7764 0.661851 71.3352 1.00454L35.992 26.8043H36.9234C40.5999 26.8043 42.4626 29.1542 42.4626 31.6999C42.4626 33.7071 41.4332 35.1758 40.0116 35.8122C39.7665 35.9101 39.7665 36.2528 40.0116 36.3507C41.6293 37.0361 42.8058 38.7496 42.8058 40.8057C42.8058 43.7431 40.894 46.044 37.2175 46.044H27.1685C26.9724 46.044 26.7763 45.8971 26.7763 45.6524V33.5113L0.452817 52.751C0.0116403 53.1426 0.207717 53.828 0.795953 53.828H71.7763C72.1195 53.828 72.3646 53.5832 72.3646 53.2405V43.4983C70.4528 45.2607 67.9528 46.3867 64.9136 46.3867C59.2273 46.3867 54.6195 42.4702 54.6195 36.4486C54.6685 30.3781 59.3254 26.5106 64.9626 26.5106ZM50.894 45.7013C50.894 45.8971 50.7469 46.044 50.5509 46.044H47.1685C46.9724 46.044 46.8254 45.8971 46.8254 45.7013V27.147C46.8254 26.9512 46.9724 26.8043 47.1685 26.8043H50.5509C50.7469 26.8043 50.894 26.9512 50.894 27.147V45.7013Z" fill="#34313F"/>
<path d="M31.2862 34.4414H36.0411C37.4137 34.4414 38.296 33.6582 38.296 32.4343C38.296 31.2593 37.4137 30.4271 36.0411 30.4271H31.0901C30.9921 30.4271 30.894 30.525 30.894 30.6229V34.0988C30.894 34.2946 31.0901 34.4414 31.2862 34.4414Z" fill="#34313F"/>
<path d="M31.2862 42.4702H36.2372C37.7568 42.4702 38.6882 41.638 38.6882 40.2672C38.6882 39.0433 37.8058 38.0642 36.2372 38.0642H31.2862C31.0901 38.0642 30.894 38.211 30.894 38.4558V42.0786C30.894 42.2744 31.0901 42.4702 31.2862 42.4702Z" fill="#34313F"/>
<path d="M69.3255 32.3363C68.3941 31.1124 66.8255 30.1333 64.9627 30.1333C61.4333 30.1333 58.8843 32.8259 58.8843 36.4486C58.8843 40.0714 61.4333 42.7639 64.9627 42.7639C66.5804 42.7639 68.1 42.0786 68.9333 41.3932C68.9823 41.3442 69.0313 41.2463 69.0313 41.1484V39.2881C69.0313 39.1412 68.8843 38.9943 68.7372 38.9943H64.3745C64.1294 38.9943 63.9823 38.7985 63.9823 38.6027V35.8612C63.9823 35.6164 64.1784 35.4695 64.3745 35.4695H72.4627V31.1124L69.8647 32.5322C69.6686 32.5811 69.4235 32.4832 69.3255 32.3363Z" fill="#34313F"/>
<path d="M75.4526 36.4486C75.4526 30.525 79.7173 26.5106 85.2075 26.5106C88.786 26.5106 91.0899 28.322 92.4624 30.525C92.5605 30.6718 92.5115 30.9166 92.3154 30.9656L90.1095 32.1405C89.9624 32.2384 89.7664 32.1895 89.7173 32.0426C88.786 30.5739 87.0703 29.4969 85.2075 29.4969C81.5311 29.4969 78.786 32.3853 78.786 36.4486C78.786 40.463 81.5311 43.4004 85.2075 43.4004C87.0703 43.4004 88.786 42.3234 89.7173 40.8547C89.8154 40.7078 89.9624 40.6589 90.1095 40.7568L92.3154 41.8827C92.5115 41.9807 92.5605 42.1765 92.4624 42.3723C91.0409 44.5753 88.7369 46.4357 85.2075 46.4357C79.7173 46.3867 75.4526 42.3234 75.4526 36.4486Z" fill="#34313F"/>
<path d="M94.3745 36.4486C94.3745 31.651 97.1196 27.9303 101.237 26.8533C108.247 24.9929 114.669 31.553 113.149 38.8475C112.218 43.3514 108.639 46.4356 103.884 46.4356C98.2961 46.3867 94.3745 42.1765 94.3745 36.4486ZM110.012 36.4486C110.012 32.4832 107.561 29.4969 103.835 29.4969C100.061 29.4969 97.6588 32.4832 97.6588 36.4486C97.6588 40.4141 100.061 43.4004 103.835 43.4004C107.61 43.4004 110.012 40.3651 110.012 36.4486Z" fill="#34313F"/>
<path d="M133.345 45.7992V31.1614L127.512 45.8971C127.512 45.9461 127.414 45.995 127.364 45.995H126.139C126.09 45.995 125.992 45.9461 125.992 45.8971L120.11 31.1614V45.7992C120.11 45.9461 120.012 46.044 119.864 46.044H116.923C116.776 46.044 116.678 45.9461 116.678 45.7992V27.0001C116.678 26.8533 116.776 26.7554 116.923 26.7554H121.139C121.335 26.7554 121.482 26.8533 121.58 27.0491L126.727 40.2672L131.825 27.0491C131.874 26.8533 132.07 26.7554 132.266 26.7554H136.482C136.629 26.7554 136.727 26.8533 136.727 27.0001V45.7992C136.727 45.9461 136.629 46.044 136.482 46.044H133.541C133.492 46.044 133.345 45.9461 133.345 45.7992Z" fill="#34313F"/>
<path d="M166.678 45.7013V27.147C166.678 26.9512 166.825 26.8043 167.021 26.8043H179.521C179.717 26.8043 179.864 26.9512 179.864 27.147V29.399C179.864 29.5948 179.717 29.7417 179.521 29.7417H170.404C170.208 29.7417 170.061 29.8885 170.061 30.0844V34.3435C170.061 34.5394 170.208 34.6862 170.404 34.6862H179.325C179.521 34.6862 179.668 34.8331 179.668 35.0289V37.2809C179.668 37.4767 179.521 37.6236 179.325 37.6236H170.404C170.208 37.6236 170.061 37.7704 170.061 37.9663V42.6171C170.061 42.8129 170.208 42.9598 170.404 42.9598H179.521C179.717 42.9598 179.864 43.1066 179.864 43.3025V45.5544C179.864 45.7503 179.717 45.8971 179.521 45.8971H167.021C166.825 46.044 166.678 45.8971 166.678 45.7013Z" fill="#34313F"/>
<path d="M195.551 45.8482L191.482 38.9943C191.433 38.8964 191.286 38.8475 191.188 38.8475H188.345C188.149 38.8475 188.002 38.9943 188.002 39.1902V45.7013C188.002 45.8971 187.855 46.044 187.659 46.044H185.012C184.816 46.044 184.668 45.8971 184.668 45.7013V27.147C184.668 26.9512 184.816 26.8043 185.012 26.8043H193.149C196.972 26.8043 199.472 29.2521 199.472 32.8259C199.472 36.008 197.512 37.8194 195.355 38.3579C195.11 38.4069 195.012 38.6517 195.11 38.8964C195.894 40.1693 198.345 44.0858 199.276 45.5055C199.423 45.7503 199.276 46.044 198.982 46.044H195.894C195.747 46.044 195.649 45.995 195.551 45.8482ZM195.992 32.7769C195.992 30.9166 194.619 29.7417 192.708 29.7417H188.394C188.198 29.7417 188.051 29.8885 188.051 30.0844V35.5185C188.051 35.7143 188.198 35.8612 188.394 35.8612H192.708C194.619 35.8612 195.992 34.6862 195.992 32.7769Z" fill="#34313F"/>
<path d="M222.315 45.7013V27.147C222.315 26.9512 222.462 26.8043 222.659 26.8043H235.208C235.404 26.8043 235.551 26.9512 235.551 27.147V29.4479C235.551 29.6438 235.404 29.7906 235.208 29.7906H226.041C225.845 29.7906 225.698 29.9375 225.698 30.1333V34.4414C225.698 34.6373 225.845 34.7841 226.041 34.7841H234.963C235.159 34.7841 235.306 34.931 235.306 35.1268V37.4278C235.306 37.6236 235.159 37.7704 234.963 37.7704H226.041C225.845 37.7704 225.698 37.9173 225.698 38.1131V42.8129C225.698 43.0087 225.845 43.1556 226.041 43.1556H235.208C235.404 43.1556 235.551 43.3025 235.551 43.4983V45.7992C235.551 45.995 235.404 46.1419 235.208 46.1419H222.659C222.462 46.044 222.315 45.8971 222.315 45.7013Z" fill="#34313F"/>
<path d="M201.923 36.3507C201.923 30.4271 206.188 26.4127 211.678 26.4127C215.257 26.4127 217.561 28.224 218.933 30.4271C219.031 30.5739 218.982 30.8187 218.786 30.8677L216.58 32.0426C216.433 32.1405 216.237 32.0916 216.188 31.9447C215.257 30.476 213.541 29.399 211.678 29.399C208.002 29.399 205.257 32.2874 205.257 36.3507C205.257 40.3651 208.002 43.3025 211.678 43.3025C213.541 43.3025 215.257 42.2254 216.188 40.7568C216.286 40.6099 216.433 40.5609 216.58 40.6588L218.786 41.7848C218.982 41.8827 219.031 42.0786 218.933 42.2744C217.512 44.4774 215.208 46.3377 211.678 46.3377C206.188 46.2888 201.923 42.2744 201.923 36.3507Z" fill="#34313F"/>
<path d="M158.345 45.7992V31.1614L152.512 45.8971C152.512 45.9461 152.414 45.995 152.364 45.995H151.139C151.09 45.995 150.992 45.9461 150.992 45.8971L145.11 31.1614V45.7992C145.11 45.9461 145.012 46.044 144.864 46.044H141.923C141.776 46.044 141.678 45.9461 141.678 45.7992V27.0001C141.678 26.8533 141.776 26.7554 141.923 26.7554H146.139C146.335 26.7554 146.482 26.8533 146.58 27.0491L151.727 40.2672L156.825 27.0491C156.874 26.8533 157.07 26.7554 157.266 26.7554H161.482C161.629 26.7554 161.727 26.8533 161.727 27.0001V45.7992C161.727 45.9461 161.629 46.044 161.482 46.044H158.541C158.443 46.044 158.345 45.9461 158.345 45.7992Z" fill="#34313F"/>
</g>
<defs>
<clipPath id="clip0_1302_669">
<rect width="236" height="54" fill="white"/>
</clipPath>
</defs>
</svg>
