<svg width="221" height="45" viewBox="0 0 221 45" fill="none" xmlns="http://www.w3.org/2000/svg">
<g clip-path="url(#clip0_1062_1026)">
<path d="M13.3475 18.6614L21.9454 10.0373L30.5477 18.6659L35.5506 13.6476L21.9454 0L8.34473 13.6431L13.3475 18.6614Z" fill="#F3BA2F"/>
<path d="M9.81474 22.2041L4.81201 17.1859L-0.190961 22.2044L4.81177 27.2226L9.81474 22.2041Z" fill="#F3BA2F"/>
<path d="M13.3476 25.7484L21.9454 34.3725L30.5474 25.7442L35.553 30.7597L35.5506 30.7625L21.9454 44.4098L8.3444 30.7671L8.3374 30.76L13.3476 25.7484Z" fill="#F3BA2F"/>
<path d="M39.0791 27.2249L44.082 22.2065L39.0793 17.1883L34.0763 22.2067L39.0791 27.2249Z" fill="#F3BA2F"/>
<path d="M27.0197 22.2023H27.0218L21.9453 17.11L18.1936 20.8733H18.1932L17.7624 21.3058L16.8732 22.1977L16.8662 22.2047L16.8732 22.2121L21.9453 27.2999L27.0218 22.2076L27.0243 22.2047L27.0197 22.2023Z" fill="#F3BA2F"/>
<path d="M51.8813 10.7609H62.7622C65.4628 10.7609 67.5049 11.4561 68.8889 12.8465C69.9599 13.9234 70.4953 15.258 70.4953 16.8501V16.9174C70.4953 17.5902 70.4124 18.1847 70.2456 18.7003C70.0792 19.2166 69.8568 19.6814 69.5788 20.0963C69.3015 20.5116 68.9791 20.8761 68.6126 21.1897C68.2458 21.5039 67.8517 21.7733 67.4297 21.9971C68.7871 22.5134 69.8557 23.2139 70.6348 24.0999C71.4135 24.9863 71.8034 26.2143 71.8034 27.7839V27.8509C71.8034 28.9277 71.5971 29.8695 71.1842 30.6773C70.7712 31.4844 70.1795 32.1575 69.4092 32.6959C68.6389 33.2343 67.7126 33.6377 66.63 33.9071C65.5474 34.1761 64.3476 34.3105 63.0311 34.3105H51.8813V10.7609ZM61.6744 20.2815C62.815 20.2815 63.7207 20.0858 64.391 19.693C65.0617 19.3005 65.397 18.6667 65.397 17.7922V17.7249C65.397 16.9402 65.1061 16.3404 64.5249 15.9251C63.9434 15.5102 63.1049 15.3025 62.0097 15.3025H56.9118V20.2815H61.6744ZM63.0496 29.7692C64.1899 29.7692 65.0837 29.5623 65.7327 29.147C66.381 28.732 66.7055 28.087 66.7055 27.2122V27.1452C66.7055 26.3602 66.4034 25.7379 65.7998 25.2777C65.196 24.8186 64.2235 24.5885 62.8818 24.5885H56.9118V29.7696H63.0496V29.7692Z" fill="#F3BA2F"/>
<path d="M78.2837 10.7609H83.4491V34.3112H78.2837V10.7609Z" fill="#F3BA2F"/>
<path d="M91.2725 10.7609H96.0343L107.035 25.2613V10.7609H112.133V34.3112H107.74L96.37 19.3401V34.3112H91.2725V10.7609Z" fill="#F3BA2F"/>
<path d="M127.771 10.5929H132.533L142.595 34.3111H137.195L135.048 29.0294H125.121L122.974 34.3111H117.708L127.771 10.5929ZM133.204 24.4534L130.084 16.8167L126.966 24.4534H133.204Z" fill="#F3BA2F"/>
<path d="M148.171 10.7609H152.934L163.934 25.2613V10.7609H169.032V34.3112H164.639L153.269 19.3401V34.3112H148.171V10.7609Z" fill="#F3BA2F"/>
<path d="M187.621 34.7145C185.898 34.7145 184.3 34.4002 182.824 33.7727C181.348 33.1452 180.074 32.2869 179.001 31.1989C177.927 30.1112 177.089 28.827 176.486 27.3468C175.882 25.8663 175.58 24.2851 175.58 22.6028V22.5358C175.58 20.8536 175.882 19.2784 176.486 17.809C177.089 16.3401 177.927 15.0503 179.001 13.9402C180.074 12.83 181.36 11.9549 182.858 11.3158C184.355 10.6767 186.011 10.3572 187.822 10.3572C188.917 10.3572 189.917 10.4473 190.823 10.6262C191.728 10.8061 192.55 11.0524 193.288 11.3663C194.027 11.6806 194.708 12.0619 195.335 12.5101C195.96 12.9591 196.541 13.4523 197.078 13.9907L193.792 17.7922C192.874 16.9627 191.941 16.3116 190.991 15.8409C190.04 15.3702 188.973 15.1345 187.788 15.1345C186.804 15.1345 185.893 15.3253 185.055 15.7066C184.216 16.0879 183.495 16.6147 182.891 17.2875C182.288 17.9602 181.818 18.7399 181.482 19.6256C181.148 20.512 180.98 21.4594 180.98 22.4685V22.5355C180.98 23.5446 181.148 24.4983 181.482 25.3949C181.818 26.2925 182.281 27.0771 182.875 27.7499C183.467 28.4226 184.182 28.9558 185.021 29.3483C185.86 29.7411 186.782 29.9368 187.788 29.9368C189.13 29.9368 190.264 29.6903 191.192 29.1967C192.12 28.7039 193.043 28.0308 193.959 27.1781L197.246 30.5089C196.642 31.1596 196.015 31.7429 195.368 32.2582C194.719 32.7745 194.009 33.2171 193.238 33.5875C192.467 33.9572 191.622 34.2382 190.706 34.4283C189.788 34.6188 188.76 34.7145 187.621 34.7145Z" fill="#F3BA2F"/>
<path d="M203.325 10.7609H221V15.3702H208.423V20.1476H219.491V24.7565H208.423V29.7022H221.169V34.3112H203.325V10.7609Z" fill="#F3BA2F"/>
</g>
<defs>
<clipPath id="clip0_1062_1026">
<rect width="221" height="44.4098" fill="white"/>
</clipPath>
</defs>
</svg>
