<svg width="782" height="140" viewBox="0 0 782 140" fill="none" xmlns="http://www.w3.org/2000/svg">
<path d="M92.844 70.2301C105.565 70.2301 115.878 80.462 115.878 93.0834C115.878 105.705 105.565 115.937 92.844 115.937L0.707768 115.937L0.707766 70.2301L92.844 70.2301Z" fill="#131415"/>
<path d="M31.4198 9.28802C44.1412 9.28802 54.4539 19.5198 54.454 32.1414C54.454 44.7628 44.1412 54.9947 31.4198 54.9947L0.707768 54.9947L0.707766 9.28802L31.4198 9.28802Z" fill="#131415"/>
<path d="M234.515 61.0755C240.681 60.0049 249.622 52.9687 249.622 39.9675C249.622 22.8362 237.751 11.5173 219.097 11.5173L168.222 11.5173L168.222 113.999L219.251 113.999C242.223 113.999 252.553 102.221 252.553 85.5487C252.553 71.0178 242.993 62.758 234.515 61.6875L234.515 61.0755ZM189.189 29.2604L216.785 29.2604C223.568 29.2604 229.273 34.002 229.273 41.191C229.273 49.1449 223.722 54.3454 215.397 54.3454L189.189 54.3454L189.189 29.2604ZM189.189 96.2557L189.189 70.8647L217.71 70.8647C225.572 70.8647 231.122 75.7595 231.122 83.5603C231.122 91.2081 226.342 96.2557 216.939 96.2557L189.189 96.2557Z" fill="#131415"/>
<path d="M338.641 37.6694L318.292 37.6694L318.292 71.473C318.292 90.1336 310.736 97.7816 299.175 97.7816C289.77 97.7816 283.603 90.5926 283.603 79.8856L283.603 37.6694L263.254 37.6694L263.254 84.1683C263.254 103.135 275.587 116.289 294.087 116.289C304.261 116.289 312.279 113.077 318.292 107.112L318.292 113.995L338.641 113.995L338.641 37.6694Z" fill="#131415"/>
<path d="M453.832 35.376C441.499 35.376 432.094 40.1177 425.773 47.9185C420.223 39.8118 410.82 35.376 400.49 35.376C390.47 35.376 382.916 38.5882 377.52 43.9417L377.52 37.6705L357.168 37.6705L357.168 113.996L377.52 113.996L377.52 77.2863C377.52 61.2259 384.303 53.884 395.093 53.884C403.574 53.884 410.203 60.1551 410.203 70.4034L410.203 113.996L430.553 113.996L430.553 77.2863C430.553 61.2259 437.644 53.884 448.436 53.884C456.915 53.884 463.544 60.1551 463.544 70.4034L463.544 113.996L483.741 113.996L483.741 66.2735C483.741 47.6126 469.865 35.376 453.832 35.376Z" fill="#131415"/>
<path d="M546.219 35.376C535.735 35.376 527.257 38.4351 520.782 43.7888L520.782 37.6705L500.43 37.6705L500.43 139.999L520.782 139.999L520.782 108.031C527.257 113.231 535.735 116.291 546.219 116.291C565.798 116.291 583.99 99.924 583.99 75.9099C583.99 51.8956 565.798 35.376 546.219 35.376ZM542.672 98.7004C531.726 98.7004 520.782 89.9819 520.782 75.9099C520.782 61.8377 531.726 52.9661 542.672 52.9661C555.006 52.9661 564.257 61.8377 564.257 75.9099C564.257 89.9819 555.006 98.7004 542.672 98.7004Z" fill="#131415"/>
<path d="M678.497 61.9544C676.857 59.8074 674.602 57.9671 671.732 56.4336C668.862 54.7978 665.736 53.9799 662.354 53.9799C659.382 53.9799 656.666 54.5933 654.206 55.8202C651.746 57.047 650.516 59.0917 650.516 61.9544C650.516 64.817 651.848 66.8617 654.513 68.0886C657.28 69.2132 661.278 70.3889 666.505 71.6158C669.272 72.2292 672.04 73.0471 674.807 74.0694C677.677 75.0918 680.239 76.472 682.494 78.21C684.851 79.8458 686.747 81.9417 688.182 84.4976C689.617 86.9513 690.335 89.9673 690.335 93.5456C690.335 98.044 689.463 101.878 687.721 105.047C686.081 108.114 683.826 110.619 680.956 112.562C678.189 114.504 674.909 115.884 671.117 116.702C667.427 117.622 663.584 118.082 659.587 118.082C653.847 118.082 648.261 117.06 642.829 115.015C637.397 112.868 632.887 109.852 629.3 105.967L641.445 94.6191C643.495 97.2772 646.16 99.4753 649.44 101.213C652.72 102.951 656.358 103.82 660.355 103.82C661.688 103.82 663.02 103.667 664.353 103.36C665.787 103.054 667.069 102.594 668.196 101.98C669.426 101.264 670.4 100.344 671.117 99.2197C671.835 98.0951 672.193 96.7149 672.193 95.0791C672.193 92.012 670.758 89.8139 667.889 88.4848C665.121 87.1558 660.919 85.8267 655.282 84.4976C652.515 83.8842 649.798 83.1174 647.134 82.1973C644.571 81.1749 642.265 79.8969 640.215 78.3634C638.165 76.7276 636.526 74.734 635.296 72.3825C634.066 70.0311 633.451 67.1173 633.451 63.6413C633.451 59.5518 634.271 56.0246 635.911 53.0598C637.653 50.0949 639.908 47.6923 642.675 45.8521C645.442 43.9096 648.569 42.4782 652.053 41.5581C655.538 40.638 659.125 40.1779 662.815 40.1779C668.145 40.1779 673.321 41.098 678.343 42.9383C683.467 44.7786 687.516 47.5901 690.488 51.3728L678.497 61.9544Z" fill="#131415"/>
<path fill-rule="evenodd" clip-rule="evenodd" d="M678.279 64.2276L677.263 62.8963C675.783 60.9587 673.714 59.2533 671.002 57.8039L670.983 57.7939L670.965 57.7833C668.336 56.2851 665.478 55.5346 662.36 55.5346C659.61 55.5346 657.136 56.1004 654.91 57.2106C653.904 57.7121 653.222 58.3411 652.782 59.0733C652.339 59.8095 652.082 60.7474 652.082 61.9535C652.082 63.1372 652.354 64.0575 652.829 64.7863C653.301 65.5105 654.04 66.148 655.142 66.6609C657.795 67.7354 661.686 68.8841 666.859 70.0985C669.692 70.727 672.521 71.5635 675.346 72.6067C678.343 73.6754 681.039 75.1228 683.423 76.9546C685.96 78.7223 688.002 80.9851 689.543 83.725C691.144 86.4685 691.9 89.7671 691.9 93.5447C691.9 98.2381 690.992 102.34 689.099 105.787C687.343 109.068 684.922 111.758 681.849 113.841C678.897 115.911 675.429 117.361 671.478 118.216C667.665 119.165 663.703 119.637 659.593 119.637C653.663 119.637 647.891 118.58 642.285 116.47L642.273 116.465L642.261 116.461C636.634 114.237 631.921 111.095 628.159 107.02L627.112 105.886L641.64 92.311L642.688 93.6698C644.588 96.1342 647.074 98.1939 650.178 99.8388C653.215 101.448 656.6 102.264 660.362 102.264C661.573 102.264 662.788 102.125 664.008 101.844L664.02 101.841L664.032 101.838C665.332 101.561 666.462 101.152 667.436 100.624C668.456 100.027 669.236 99.2799 669.808 98.3837C670.333 97.5601 670.64 96.4856 670.64 95.0783C670.64 93.794 670.343 92.7843 669.817 91.9782C669.289 91.1693 668.462 90.4617 667.238 89.8949L667.228 89.8903L667.218 89.8855C664.608 88.6316 660.54 87.3339 654.94 86.013C652.118 85.3872 649.348 84.605 646.63 83.6664L646.595 83.6544L646.561 83.6407C643.881 82.5715 641.454 81.2285 639.286 79.607L639.267 79.5924L639.248 79.5772C637.026 77.8047 635.248 75.6417 633.92 73.1012C632.543 70.4695 631.898 67.292 631.898 63.6404C631.898 59.3425 632.761 55.5457 634.552 52.3075L634.561 52.2897L634.572 52.2722C636.426 49.1174 638.837 46.5422 641.8 44.5678C644.724 42.5183 648.016 41.0159 651.661 40.0535C655.279 39.0982 659 38.6215 662.822 38.6215C668.334 38.6215 673.69 39.5736 678.882 41.4756C684.244 43.4017 688.547 46.3716 691.722 50.4124L692.629 51.566L678.279 64.2276ZM642.682 45.8512C639.914 47.6915 637.659 50.0941 635.917 53.0589C634.277 56.0238 633.457 59.551 633.457 63.6404C633.457 67.1165 634.072 70.0302 635.302 72.3817C636.532 74.7331 638.172 76.7268 640.222 78.3625C642.272 79.8961 644.578 81.1741 647.14 82.1964C649.805 83.1166 652.521 83.8833 655.288 84.4968C660.925 85.8258 665.128 87.1549 667.895 88.484C670.765 89.8131 672.2 92.0112 672.2 95.0783C672.2 96.7141 671.841 98.0943 671.123 99.2189C670.406 100.343 669.432 101.264 668.202 101.979C667.075 102.593 665.794 103.053 664.359 103.359C663.027 103.666 661.694 103.82 660.362 103.82C656.364 103.82 652.726 102.951 649.446 101.212C646.674 99.7434 644.341 97.9456 642.448 95.8192C642.101 95.4299 641.769 95.0295 641.452 94.6182L629.306 105.967C629.432 106.103 629.559 106.238 629.687 106.372C629.918 106.613 630.152 106.851 630.39 107.086C633.788 110.435 637.937 113.078 642.835 115.014C648.268 117.059 653.853 118.082 659.593 118.082C663.59 118.082 667.434 117.621 671.123 116.701C674.916 115.883 678.196 114.503 680.963 112.561C683.833 110.618 686.087 108.113 687.727 105.046C689.47 101.877 690.341 98.0431 690.341 93.5447C690.341 89.9664 689.624 86.9504 688.189 84.4968C686.754 81.9408 684.858 79.845 682.5 78.2092C680.245 76.4712 677.683 75.091 674.813 74.0686C672.046 73.0462 669.279 72.2283 666.511 71.6149C661.284 70.3881 657.287 69.2123 654.52 68.0877C651.855 66.8609 650.522 64.8162 650.522 61.9535C650.522 59.0909 651.752 57.0462 654.212 55.8193C656.672 54.5925 659.388 53.9791 662.36 53.9791C665.743 53.9791 668.869 54.7969 671.738 56.4327C674.062 57.6745 675.983 59.1174 677.5 60.7615C677.857 61.1477 678.191 61.5451 678.503 61.9535L690.495 51.372C687.522 47.5892 683.474 44.7777 678.349 42.9375C673.327 41.0972 668.151 40.1771 662.822 40.1771C659.132 40.1771 655.545 40.6371 652.06 41.5573C648.575 42.4774 645.449 43.9087 642.682 45.8512Z" fill="#131415"/>
<path d="M115.88 32.1414C115.88 44.7628 105.567 54.9947 92.846 54.9947C80.1246 54.9947 69.8118 44.7628 69.8118 32.1414C69.8118 19.5198 80.1245 9.28802 92.8459 9.28802C105.567 9.28802 115.88 19.5198 115.88 32.1414Z" fill="url(#paint0_linear_520_1921)"/>
<path d="M591.672 105.204C591.672 101.932 592.85 99.1205 595.208 96.769C597.667 94.4176 600.589 93.2419 603.971 93.2419C607.251 93.2419 610.12 94.3665 612.58 96.6157C615.04 98.8649 616.27 101.625 616.27 104.897C616.27 108.168 615.04 110.98 612.58 113.331C610.223 115.683 607.353 116.859 603.971 116.859C602.331 116.859 600.742 116.552 599.205 115.938C597.77 115.325 596.489 114.507 595.361 113.485C594.234 112.462 593.312 111.236 592.594 109.804C591.979 108.373 591.672 106.839 591.672 105.204Z" fill="#131415"/>
<path d="M707.898 115.937L728.251 115.937L728.251 79.2269C728.251 63.1664 735.342 55.8246 746.134 55.8246C754.613 55.8246 761.242 62.0957 761.242 72.3439L761.242 115.937L781.439 115.937L781.439 68.214C781.439 49.5532 767.563 37.3165 751.531 37.3165C741.976 37.3165 734.179 40.162 728.212 45.0707L728.212 -1.77594e-06L707.898 0L707.898 115.937Z" fill="#131415"/>
<defs>
<linearGradient id="paint0_linear_520_1921" x1="69.9485" y1="31.5672" x2="116.852" y2="31.5672" gradientUnits="userSpaceOnUse">
<stop stop-color="#19AEFF"/>
<stop offset="1" stop-color="#015CD5"/>
</linearGradient>
</defs>
</svg>
