<svg width="3014" height="837" viewBox="0 0 3014 837" fill="none" xmlns="http://www.w3.org/2000/svg">
<path d="M877.488 417.695C877.488 258.313 993.551 136 1154.14 136C1314.73 136 1388.66 236.209 1401.37 300.129H1302.78C1286.88 271.72 1245.55 219.65 1154.12 219.65C1035.67 219.65 964.914 315.91 964.914 417.695C964.914 519.481 1035.67 614.962 1154.12 614.962C1245.55 614.962 1290.86 562.891 1304.37 534.483H1401.35C1388.64 592.079 1310.73 699.391 1154.12 699.391C997.514 699.391 877.47 577.096 877.47 417.695H877.488ZM2543.75 700.967C2581.11 700.967 2616.09 689.915 2647.86 668.608C2662.99 658.354 2676.48 645.726 2687.62 632.319L2709.89 693.086H2800.51L2748.04 545.534V300.129H2667.75V340.369C2659.81 333.266 2650.27 326.961 2640.72 320.638C2611.3 301.705 2578.72 292.23 2543.75 292.23C2508.77 292.23 2473.78 301.705 2442.79 320.638C2412.58 338.792 2388.73 363.251 2370.45 394.812C2352.95 426.374 2344.22 460.308 2344.22 496.598C2344.22 532.888 2352.97 567.62 2370.45 598.384V599.181C2388.73 629.945 2412.58 654.422 2442.79 673.355H2443.57C2474.58 691.509 2507.97 700.967 2543.75 700.967ZM2543.75 616.538C2479.35 616.538 2430.06 561.297 2430.06 496.598C2430.06 431.9 2479.35 375.879 2543.75 375.879C2608.14 375.879 2663.79 428.747 2663.79 496.598C2663.79 564.449 2610.52 616.538 2543.75 616.538ZM2201.11 693.086H2286.97V300.129H2201.11V693.068V693.086ZM1769.44 693.086H1855.3V473.734C1855.3 454.801 1860.06 438.223 1868.81 424.816C1878.35 409.035 1890.27 397.983 1906.18 389.305C1922.09 380.626 1938.78 375.898 1957.06 375.898C1983.29 375.898 2002.37 384.576 2018.28 401.933V402.73C2034.19 420.087 2042.92 442.97 2042.92 473.752V693.104H2129.57V470.599C2129.57 438.241 2122.41 408.256 2108.11 380.644C2094.6 353.812 2074.73 331.726 2048.49 315.946C2022.26 300.165 1992.84 292.266 1960.24 292.266C1927.64 292.266 1897.43 301.741 1870.4 319.877C1863.24 324.606 1856.89 329.353 1850.53 334.861V300.147H1769.44V693.086ZM1611.25 693.086H1697.1V300.129H1611.25V693.068V693.086ZM1453.05 693.086H1538.91V136.018H1453.05V693.086Z" fill="#1F2D36"/>
<path d="M1651.19 255.903C1684.56 255.903 1711.62 229.062 1711.62 195.952C1711.62 162.841 1684.56 136 1651.19 136C1617.81 136 1590.76 162.841 1590.76 195.952C1590.76 229.062 1617.81 255.903 1651.19 255.903Z" fill="#1F2D36"/>
<path d="M2241.64 255.903C2275.01 255.903 2302.07 229.062 2302.07 195.952C2302.07 162.841 2275.01 136 2241.64 136C2208.26 136 2181.2 162.841 2181.2 195.952C2181.2 229.062 2208.26 255.903 2241.64 255.903Z" fill="#1F2D36"/>
<path fill-rule="evenodd" clip-rule="evenodd" d="M347.253 294.479V149.012C347.253 144.989 343.893 141.783 339.838 141.891C190.153 145.769 70 267.393 70 416.829C70 566.264 190.153 687.889 339.838 691.784C343.893 691.893 347.253 688.686 347.253 684.664V539.196C347.253 535.41 344.258 532.293 340.441 532.076C279.351 528.579 230.898 478.32 230.898 416.829C230.898 355.337 279.351 305.096 340.441 301.581C344.258 301.364 347.253 298.266 347.253 294.461V294.479Z" fill="#1F2D36"/>
<path d="M624.505 416.394C624.469 392.949 605.146 374.035 581.532 374.035H396.106L513.465 257.61C532.203 239.021 529.738 208.112 508.169 192.839C507.932 192.675 507.694 192.494 507.457 192.331C490.454 180.355 467.168 182.493 452.412 197.114L349.353 299.353C348.001 300.694 347.252 302.506 347.252 304.39V529.268C347.252 531.152 348.001 532.964 349.353 534.304L452.412 636.543C467.15 651.164 490.436 653.302 507.457 641.326C507.694 641.163 507.932 641 508.169 640.819C529.738 625.546 532.203 594.637 513.465 576.048L396.106 459.623H581.532C605.165 459.623 624.469 440.708 624.505 417.264C624.505 417.119 624.505 416.974 624.505 416.829C624.505 416.684 624.505 416.539 624.505 416.394Z" fill="#1F2D36"/>
<path d="M2863.34 693.023H2872.88V650.136H2889.34V642.054H2846.89V650.136H2863.34V693.023Z" fill="#1F2D36"/>
<path d="M2894.68 693.023H2903.28L2903.06 659.238C2902.99 655.961 2902.91 653.631 2902.77 651.447L2913.69 687.125H2923.81L2934.3 651.301C2934.15 653.704 2934.08 655.961 2934.08 658.874L2933.86 693.023H2942.45V642.054H2928.91L2920.02 672.199C2919.51 673.946 2919.15 675.694 2918.79 677.587C2918.42 675.694 2918.06 673.946 2917.55 672.199L2908.37 642.054H2894.68V693.023Z" fill="#1F2D36"/>
</svg>
