<svg width="246" height="40" viewBox="0 0 246 40" fill="none" xmlns="http://www.w3.org/2000/svg">
<g clip-path="url(#clip0_1062_1194)">
<path d="M32.3906 11.6643C36.4631 16.4193 38.1257 22.7815 36.9001 28.9211C43.2927 26.3713 45.7727 22.0961 46.5273 17.821C46.5273 17.821 48.7064 9.71951 52.0939 6.35193C45.4004 7.40243 44.7239 4.77618 32.3906 11.6709" fill="#4DBEA4"/>
<path d="M22.1503 19.9453C20.8121 15.8117 18.5046 12.0582 15.4202 8.99812C15.4202 8.99812 24.7283 11.4449 30.0871 28.818C25.0308 27.2921 22.8734 22.3022 22.1403 19.9453M33.6674 31.3146C33.817 30.4835 36.2837 22.0795 31.3969 15.2546C23.2141 6.18571 10.8809 4.91248 10.8809 4.91248C13.2877 9.56659 13.3641 13.9115 15.9937 22.771C19.18 31.9429 30.9365 32.5613 31.8075 32.5779C32.597 33.8245 34.4071 35.5033 38.5509 36.371L39.0096 34.1869C35.4343 33.4389 34.1262 32.0626 33.6774 31.3046" fill="#4DBEA4"/>
<path d="M12.2003 2.24273C6.99937 4.69279 4.91335 10.6733 4.91335 19.8153C4.91335 28.7911 6.99604 34.8082 12.2003 37.4345L11.6169 39.6784C3.62351 36.876 0 30.6461 0 19.8519C0 8.97457 3.62351 2.74138 11.6169 -0.0012207L12.2003 2.24273Z" fill="#29434B"/>
<path d="M50.7158 -0.000976562C58.7158 2.7383 62.331 8.97482 62.331 19.8488C62.331 30.653 58.7075 36.8762 50.7141 39.6554L50.0908 37.4148C55.2984 34.7985 57.3777 28.7714 57.3777 19.7956C57.3777 10.6536 55.2951 4.67973 50.0908 2.22967L50.7158 -0.000976562Z" fill="#29434B"/>
<path d="M86.1601 29.4329C83.7489 30.3588 81.1794 30.8026 78.5973 30.7394C72.2362 30.7394 69.1795 27.9835 70.1635 21.0223C71.071 14.4566 73.5809 11.7739 80.2362 11.7739C82.8509 11.7307 85.4509 12.1737 87.9037 13.0804L86.9995 17.1028L81.0739 17.0663C78.3829 17.0663 77.4737 17.9738 77.0365 21.235C76.5628 24.8253 77.1845 25.4769 79.8007 25.4769C81.7675 25.4886 83.7335 25.3921 85.6897 25.1877L86.1601 29.4329Z" fill="#29434B"/>
<path d="M96.7794 21.5642C96.2708 25.2642 96.5966 26.1319 98.9635 26.1319C101.254 26.1319 101.984 25.1545 102.564 21.0556C103.144 17.2857 102.747 16.4014 100.526 16.4014C98.1275 16.4014 97.3994 17.3057 96.7794 21.5542M109.394 21.5675C108.396 28.3492 105.65 30.7394 98.7275 30.7394C91.8046 30.7394 88.8875 28.1298 89.9031 21.0589C90.8538 14.2074 93.613 11.7739 100.634 11.7739C107.577 11.7739 110.414 14.46 109.397 21.5675" fill="#29434B"/>
<path d="M123.537 16.0091C120.773 16.0091 120.119 16.5875 119.572 20.7596C119.137 24.0241 119.064 25.3273 120.699 25.2209C122.232 25.0721 123.668 24.4076 124.773 23.336L125.752 16.0224L123.537 16.0091ZM130.406 30.3039H125.207L125.136 27.2587C123.293 29.2668 120.762 30.5091 118.047 30.7394C113.83 30.7394 111.94 27.7641 112.846 20.876C113.843 13.333 116.81 11.7738 120.699 11.7738C122.65 11.7732 124.598 11.949 126.517 12.2991C126.498 11.0607 126.584 9.82303 126.773 8.59907L127.39 4.94226H134L130.406 30.3039Z" fill="#29434B"/>
<path d="M145.896 19.5695C147.533 19.4233 148.403 19.1706 148.556 17.6115C148.665 16.4147 148.192 16.1953 146.372 16.2319C144.151 16.2684 143.424 16.92 142.844 19.8588L145.896 19.5695ZM153.133 29.29C150.493 30.3188 147.674 30.8115 144.841 30.7394C137.133 30.7394 135.034 27.3685 135.714 21.0589C136.545 13.5558 139.971 11.7772 146.476 11.7772C153.604 11.7772 155.477 14.1342 154.91 18.2597C154.4 21.634 152.109 22.598 147.334 22.9737L142.424 23.3361C142.5 25.2609 143.443 25.6232 145.481 25.6232C147.076 25.6232 150.48 25.4404 152.676 25.1877L153.133 29.29Z" fill="#29434B"/>
<path d="M169.13 7.18292C166.909 7.18292 166.004 7.69155 165.676 10.0086L165.277 12.6316H170.762L170.395 15.3343H164.91L162.51 32.3417C162.463 33.807 161.819 35.1893 160.728 36.168C159.636 37.1468 158.192 37.6368 156.73 37.5244C155.26 37.5143 153.792 37.4166 152.334 37.2319L152.881 34.6189H155.607C157.791 34.6189 158.697 34.1103 159.028 31.7932L161.355 15.3376H158.196L158.529 12.7978L161.765 12.6183L162.202 9.46012C162.246 7.99386 162.893 6.61066 163.99 5.63759C165.088 4.66452 166.539 4.18798 168 4.32064C169.736 4.29924 171.472 4.38361 173.197 4.5733L172.617 7.19955L169.13 7.18292Z" fill="#4DBEA4"/>
<path d="M185.71 15.4375H184.713C182.718 15.4375 180.787 16.7672 177.713 19.0278L176.149 30.304H172.621L175.127 12.6084H177.82L177.637 16.6708C180.463 13.7719 183.234 12.1364 185.637 12.1364H186.583L185.71 15.4375Z" fill="#4DBEA4"/>
<path d="M197.964 20.3675C200.146 20.2245 201.09 19.6095 201.379 17.575C201.712 15.1449 200.474 15.0817 197.636 15.0817C194.041 15.0817 192.803 16.0591 192.04 20.9193L197.964 20.3675ZM203.053 29.7256C200.684 30.449 198.216 30.7923 195.74 30.7428C189.59 30.7428 187.487 27.5847 188.356 20.9891C189.304 14.0977 191.737 12.1396 198.163 12.1396C203.981 12.1396 205.4 14.3171 204.89 17.8709C204.31 21.388 202.274 22.658 197.947 22.9837L191.797 23.5289C191.761 27.0827 193.433 27.8041 196.267 27.8041C198.233 27.8041 200.776 27.588 202.814 27.3686L203.053 29.7256Z" fill="#4DBEA4"/>
<path d="M212.793 21.5276C210.25 20.3309 209.05 18.9546 209.376 16.3749C209.777 13.004 212.213 12.0532 216.867 12.133C219.41 12.176 221.947 12.3825 224.463 12.7513L224.026 15.2446C221.774 15.1748 219.663 15.0983 216.974 15.0617C214.063 15.0617 212.973 15.1349 212.79 16.6209C212.611 17.9506 213.455 18.3263 214.903 18.9778L219.703 21.1553C222.464 22.4252 223.594 23.5489 223.227 26.2682C222.683 30.294 219.809 30.6929 214.826 30.6929C212.527 30.6978 210.23 30.5278 207.957 30.1843L208.357 27.5747C209.994 27.7176 212.283 27.7575 213.92 27.7575C218.393 27.7575 219.557 27.3951 219.773 25.9424C219.991 24.6392 219.108 24.4198 217.554 23.6951L212.793 21.5276Z" fill="#4DBEA4"/>
<path d="M234.032 11.8836C233.826 13.3499 233.535 14.8029 233.16 16.2352C236.243 13.5159 238.819 12.1329 241.369 12.1329C242.674 11.9639 243.976 12.4671 244.828 13.4699C245.68 14.4728 245.967 15.8389 245.589 17.0995L243.699 30.2973H240.209L241.918 17.9705C242.209 15.7565 241.808 15.1049 240.282 15.1049C238.098 15.1049 235.992 16.5909 232.949 18.9845L231.385 30.2873H227.849L231.448 4.90576H234.938L234.032 11.8836Z" fill="#4DBEA4"/>
</g>
<defs>
<clipPath id="clip0_1062_1194">
<rect width="246" height="39.8919" fill="white"/>
</clipPath>
</defs>
</svg>
