<svg width="300" height="76" viewBox="0 0 300 76" fill="none" xmlns="http://www.w3.org/2000/svg">
<g clip-path="url(#clip0_1302_643)">
<path fill-rule="evenodd" clip-rule="evenodd" d="M97.7653 54.104H83.749V21.8997H97.7653C107.861 21.8997 112.917 26.9753 112.917 37.1229C112.913 48.4412 107.861 54.104 97.7653 54.104ZM89.7378 48.9199H96.8583C103.567 48.9199 106.917 44.9888 106.917 37.1191C106.917 30.4202 103.563 27.0688 96.8583 27.0688H89.7378V48.9199Z" fill="#632CA6"/>
<path fill-rule="evenodd" clip-rule="evenodd" d="M119.191 54.104H113.037L126.765 21.8997H133.207L147.227 54.104H140.785L136.715 45.3217H126.36L128.417 40.1413H135.133L129.842 28.0451L119.191 54.104Z" fill="#632CA6"/>
<path fill-rule="evenodd" clip-rule="evenodd" d="M143.843 21.8997H168.375V27.0763H159.107V54.104H153.118V27.0763H143.843V21.8997Z" fill="#632CA6"/>
<path fill-rule="evenodd" clip-rule="evenodd" d="M171.455 54.104H165.302L179.029 21.8997H185.472L199.492 54.104H193.042L188.972 45.3217H178.617L180.675 40.1413H187.39L182.103 28.0451L171.455 54.104Z" fill="#632CA6"/>
<path fill-rule="evenodd" clip-rule="evenodd" d="M217.484 54.104H203.468V21.8997H217.484C227.588 21.8997 232.636 26.9753 232.636 37.1229C232.636 48.4412 227.588 54.104 217.484 54.104ZM209.46 48.9199H216.581C223.285 48.9199 226.647 44.9888 226.647 37.1191C226.647 30.4202 223.289 27.0688 216.581 27.0688H209.46V48.9199Z" fill="#632CA6"/>
<path fill-rule="evenodd" clip-rule="evenodd" d="M236.695 38.0467C236.695 27.1249 242.11 21.6678 252.933 21.6678C263.592 21.6678 268.913 27.1249 268.913 38.0467C268.913 48.905 263.588 54.3359 252.933 54.3359C242.59 54.3359 237.178 48.905 236.695 38.0467ZM252.933 49.1443C259.439 49.1443 262.696 45.4003 262.696 37.9046C262.696 30.5287 259.439 26.8369 252.933 26.8369C246.255 26.8369 242.916 30.5287 242.916 37.9046C242.916 45.4003 246.255 49.1443 252.933 49.1443Z" fill="#632CA6"/>
<path fill-rule="evenodd" clip-rule="evenodd" d="M293.914 41.0727V48.6132C292.531 48.9723 291.294 49.1518 290.204 49.1518C282.877 49.1518 279.219 45.2843 279.219 37.553C279.219 30.4127 283.102 26.8482 290.863 26.8482C294.105 26.8482 297.118 27.4504 299.906 28.651V23.2425C297.118 22.1952 293.951 21.6678 290.41 21.6678C278.803 21.6678 272.998 26.9604 272.998 37.553C272.998 48.7366 278.702 54.3359 290.114 54.3359C294.037 54.3359 297.298 53.7674 299.906 52.6229V35.7726H290.23L288.206 41.0689L293.914 41.0727Z" fill="#632CA6"/>
<path fill-rule="evenodd" clip-rule="evenodd" d="M59.5391 53.9208L53.2168 49.7615L47.9438 58.5513L41.8127 56.7634L36.4123 64.9884L36.6896 67.5768L66.045 62.1794L64.3398 43.8742L59.5391 53.9208ZM32.1625 46.0324L36.8733 45.3853C37.634 45.7257 38.1662 45.8566 39.0806 46.0885C40.5047 46.4588 42.15 46.8141 44.5897 45.5873C45.1556 45.3068 46.3398 44.2258 46.8158 43.6124L66.1125 40.1189L68.08 63.8963L35.0219 69.8434L32.1625 46.0324ZM68.0051 37.4633L66.1012 37.8261L62.4435 0.0935059L0.09375 7.30863L7.77645 69.5217L15.0731 68.4632C14.4923 67.6329 13.5816 66.6267 12.0338 65.34C9.88263 63.5596 10.6434 60.5299 11.9139 58.6186C13.5891 55.3907 22.2349 51.2838 21.744 46.1222C21.5678 44.2445 21.268 41.8021 19.5216 40.1264C19.4579 40.8221 19.5741 41.4916 19.5741 41.4916C19.5741 41.4916 18.8583 40.579 18.4985 39.3334C18.1425 38.8547 17.8651 38.7051 17.4866 38.0655C17.2168 38.8023 17.2543 39.6588 17.2543 39.6588C17.2543 39.6588 16.6696 38.2749 16.5722 37.1079C16.2237 37.6316 16.1375 38.6228 16.1375 38.6228C16.1375 38.6228 15.3767 36.4421 15.5491 35.2677C15.2006 34.2466 14.17 32.2193 14.4623 27.6112C16.3661 28.9428 20.556 28.6248 22.1862 26.2235C22.7296 25.4268 23.1006 23.2574 21.9164 18.9822C21.1556 16.2406 19.2743 12.1561 18.5397 10.6039L18.4535 10.6675C18.8395 11.9167 19.6378 14.5312 19.9451 15.8029C20.8708 19.6518 21.1181 20.9908 20.6834 22.7637C20.3124 24.3047 19.4279 25.3146 17.1793 26.4442C14.9307 27.5775 11.9476 24.8209 11.7565 24.6713C9.57158 22.9358 7.88138 20.1006 7.694 18.7241C7.49912 17.2168 8.56346 16.3116 9.10312 15.0811C8.33485 15.3017 7.47664 15.6907 7.47664 15.6907C7.47664 15.6907 8.49975 14.6322 9.76271 13.7196C10.2874 13.3755 10.5909 13.1548 11.1418 12.6985C10.3436 12.6872 9.69525 12.7059 9.69525 12.7059C9.69525 12.7059 11.0257 11.9878 12.4048 11.4679C11.3967 11.423 10.4298 11.4604 10.4298 11.4604C10.4298 11.4604 13.3979 10.1363 15.7402 9.16383C17.3517 8.50553 18.9257 8.70003 19.8102 9.97549C20.972 11.6474 22.1899 12.5563 24.7758 13.1211C26.3648 12.4179 26.8445 12.0589 28.8383 11.5165C30.5922 9.59023 31.9713 9.33963 31.9713 9.33963C31.9713 9.33963 31.2893 9.96427 31.1056 10.948C32.1025 10.1662 33.1931 9.51169 33.1931 9.51169C33.1931 9.51169 32.7696 10.0316 32.3761 10.8582L32.466 10.9929C33.6278 10.2972 34.9919 9.75107 34.9919 9.75107C34.9919 9.75107 34.6022 10.2448 34.145 10.8807C35.0219 10.8732 36.7983 10.9181 37.4841 10.9966C41.5541 11.0864 42.3973 6.65781 43.9601 6.10423C45.9164 5.40853 46.7896 4.98587 50.1212 8.25119C52.9807 11.0564 55.2143 16.0722 54.105 17.1981C53.1756 18.1294 51.3392 16.8353 49.308 14.3031C48.2324 12.964 47.4229 11.3819 47.0407 9.36955C46.7184 7.67144 45.4704 6.68773 45.4704 6.68773C45.4704 6.68773 46.1937 8.29982 46.1937 9.72115C46.1937 10.4991 46.2911 13.4016 47.5391 15.0287C47.4154 15.2681 47.3592 16.2069 47.2205 16.3864C45.7702 14.636 42.6521 13.3829 42.1462 13.0126C43.8664 14.419 47.8202 17.6507 49.338 20.7477C50.7733 23.6764 49.9264 26.3619 50.6534 27.0576C50.8595 27.2559 53.7415 30.8391 54.2961 32.642C55.263 35.7801 54.3523 39.0791 53.0894 41.1251L49.5553 41.6749C49.0382 41.5327 48.6896 41.4579 48.2249 41.1924C48.4798 40.7398 48.9894 39.614 48.9932 39.3821L48.7946 39.0342C47.6927 40.5902 45.8526 42.1013 44.3199 42.969C42.3149 44.1024 40.0063 43.9266 38.5035 43.4628C34.2349 42.1499 30.1987 39.2698 29.228 38.5143C29.228 38.5143 29.1981 39.1165 29.3817 39.2549C30.4573 40.4668 32.9232 42.6586 35.3067 44.1847L30.2287 44.742L32.6309 63.4025C31.5666 63.5559 31.4017 63.6307 30.2362 63.7953C29.2093 60.1746 27.2455 57.807 25.0981 56.4305C23.2056 55.2149 20.5934 54.9419 18.09 55.4356L17.9289 55.6226C19.6678 55.4431 21.7215 55.6937 23.8277 57.0252C25.8964 58.3306 27.5641 61.7044 28.1787 63.7354C28.9657 66.3312 29.5091 69.1066 27.3917 72.0502C25.8851 74.1411 21.4929 75.2968 17.9401 72.7983C18.8883 74.3206 20.17 75.5661 21.8939 75.798C24.4573 76.1459 26.8895 75.7008 28.561 73.9877C29.9888 72.5215 30.7496 69.4544 30.5472 66.2265L32.8071 65.9011L33.624 71.6949L71.0556 67.1952L68.0051 37.4633ZM45.2305 21.7239C45.1256 21.9633 44.9607 22.1166 45.208 22.8909L45.223 22.9358L45.2605 23.0368L45.3617 23.2687C45.8077 24.1738 46.2949 25.0304 47.1081 25.468C47.318 25.4343 47.5391 25.4081 47.764 25.3969C48.5285 25.3633 49.0119 25.4829 49.3192 25.6513C49.3455 25.4979 49.353 25.2772 49.3342 24.9481C49.2743 23.7998 49.5628 21.8473 47.3517 20.8187C46.516 20.4335 45.3467 20.5494 44.957 21.0357C45.0282 21.0432 45.0919 21.0581 45.1406 21.0768C45.7365 21.2788 45.3392 21.4808 45.2305 21.7239ZM51.4292 32.44C51.1406 32.2791 49.7839 32.3427 48.832 32.4549C47.0182 32.6681 45.0581 33.2965 44.6272 33.6294C43.8477 34.2316 44.1999 35.2826 44.7771 35.7128C46.3961 36.9172 47.8127 37.7288 49.308 37.5306C50.2262 37.4109 51.0357 35.9596 51.6091 34.6393C52.0063 33.7341 52.0063 32.7579 51.4292 32.44ZM35.363 23.1452C35.8764 22.659 32.8145 22.0231 30.4385 23.639C28.6884 24.8321 28.6322 27.3905 30.3074 28.838C30.476 28.9802 30.6147 29.0849 30.7421 29.1672C31.233 28.9353 31.7914 28.7034 32.4323 28.4977C33.5191 28.1461 34.4185 27.9628 35.1606 27.8693C35.5166 27.4728 35.9288 26.7771 35.8239 25.5166C35.6853 23.7998 34.3848 24.0728 35.363 23.1452Z" fill="#632CA6"/>
</g>
<defs>
<clipPath id="clip0_1302_643">
<rect width="300" height="76" fill="white"/>
</clipPath>
</defs>
</svg>
