<svg width="198" height="50" viewBox="0 0 198 50" fill="none" xmlns="http://www.w3.org/2000/svg">
<g clip-path="url(#clip0_1062_1039)">
<path d="M108.9 6.1875H82.2941H54.141C48.5723 6.1875 44.8598 9.28125 44.241 13.6125C43.9316 15.1594 43.9316 16.7063 43.9316 16.7063H116.635C116.635 16.7063 116.635 15.7781 116.944 14.85C117.872 10.2094 116.016 6.1875 108.9 6.1875Z" fill="#1D1D1B"/>
<path d="M116.635 20.7281C116.635 20.7281 116.325 22.275 116.325 23.8219C116.016 26.9156 113.541 29.3906 109.21 29.3906H93.7408L91.5752 43.3125H79.2002L81.9846 20.7281H116.635Z" fill="#1D1D1B"/>
<path d="M9.90059 6.1875H43.0037L41.7662 16.7063H8.66309L9.90059 6.1875Z" fill="#1D1D1B"/>
<path d="M8.04414 20.7281L5.25977 43.3125H38.3629L39.6004 33.4125H18.8723L19.491 29.0812H40.2191L41.1473 20.7281H8.04414Z" fill="#1D1D1B"/>
<path d="M120.656 6.1875H147.572C151.903 6.1875 156.235 8.04375 155.306 14.85C154.997 16.0875 154.997 16.3969 154.997 16.3969H119.419L120.656 6.1875Z" fill="#1D1D1B"/>
<path d="M116.325 43.3125H128.7L131.485 20.7281L119.11 20.4188L116.325 43.3125Z" fill="#1D1D1B"/>
<path d="M139.528 43.3125H151.903L154.997 20.7281L142.622 20.4188L139.528 43.3125Z" fill="#1D1D1B"/>
<path d="M70.8473 20.7281C68.6816 20.7281 47.9535 20.7281 43.6223 20.7281C42.6941 26.6062 45.7879 29.3906 49.8098 29.3906C51.9754 29.3906 66.516 29.3906 66.516 29.3906L65.8973 33.7219H41.766L40.8379 43.3125C40.8379 43.3125 67.1348 43.3125 68.0629 43.3125C68.991 43.3125 75.1785 43.0031 77.0348 38.0531C77.6535 36.5062 78.2723 30.6281 78.5816 29.3906C79.5098 22.275 74.5598 20.7281 70.8473 20.7281Z" fill="#1D1D1B"/>
<path d="M183.46 20.1094L184.697 10.8281H174.797L173.56 20.1094H164.279L163.351 29.3906H172.632L171.394 38.6719H180.985L182.222 29.3906H191.504L192.741 20.1094H183.46Z" fill="#F9B300"/>
</g>
<defs>
<clipPath id="clip0_1062_1039">
<rect width="198" height="49.5" fill="white"/>
</clipPath>
</defs>
</svg>
