<svg width="198" height="50" viewBox="0 0 198 50" fill="none" xmlns="http://www.w3.org/2000/svg">
<g clip-path="url(#clip0_1062_1171)">
<path d="M153.535 23.0465L130.808 0.246873C130.691 0.129287 130.541 0.0488668 130.379 0.0161862C130.216 -0.0161741 130.047 0.000166213 129.894 0.0636052C129.741 0.127044 129.61 0.234378 129.517 0.37247C129.424 0.510562 129.375 0.673324 129.374 0.839611V20.0123L122.49 13.1109C122.373 12.993 122.223 12.9129 122.06 12.8802C121.897 12.8475 121.728 12.8642 121.575 12.9283C121.422 12.992 121.29 13.1 121.198 13.2384C121.106 13.3771 121.057 13.5402 121.057 13.7068V33.5043C121.055 34.1242 121.176 34.7384 121.412 35.3116C121.648 35.8845 121.995 36.4048 122.433 36.8428L131.389 45.814C132.271 46.6951 133.465 47.1901 134.71 47.1917H141.265C142.509 47.1911 143.702 46.6957 144.582 45.814L153.539 36.8428C153.974 36.4058 154.32 35.8871 154.556 35.3158C154.792 34.7445 154.912 34.1323 154.912 33.5139V26.3786C154.912 25.7596 154.791 25.1467 154.555 24.5748C154.319 24.0028 153.972 23.4835 153.535 23.0465Z" fill="#FA005A"/>
<path d="M146.705 31.3754C146.704 31.747 146.554 32.1033 146.288 32.3666L138.988 39.5951C138.856 39.7267 138.698 39.8309 138.525 39.9023C138.352 39.9734 138.166 40.0104 137.978 40.0104C137.791 40.0104 137.605 39.9734 137.432 39.9023C137.258 39.8309 137.101 39.7267 136.969 39.5951L129.685 32.357C129.42 32.0966 129.269 31.7441 129.265 31.3754V28.6153C129.265 28.4304 129.302 28.2475 129.374 28.0767C129.446 27.9061 129.552 27.7512 129.685 27.6209L132.308 25.0329C132.575 24.7696 132.938 24.6218 133.315 24.6218C133.693 24.6218 134.056 24.7696 134.323 25.0329L137.99 28.6535L141.65 25.0329C141.917 24.7696 142.28 24.6218 142.657 24.6218C143.035 24.6218 143.398 24.7696 143.665 25.0329L146.285 27.6209C146.418 27.7512 146.524 27.9061 146.596 28.0767C146.668 28.2475 146.705 28.4304 146.705 28.6153V31.3754Z" fill="#FFC500"/>
<path d="M187.981 18.1208C186.117 18.1214 184.309 18.7451 182.85 19.8909L181.686 20.8426C181.509 20.9781 181.292 21.052 181.068 21.052C180.845 21.052 180.628 20.9781 180.451 20.8426L179.284 19.8909C177.824 18.7451 176.016 18.1214 174.152 18.1208H173.938C171.132 18.1208 168.669 19.6371 167.299 22.2448C167.272 22.2981 167.227 22.3409 167.173 22.3663C167.118 22.3917 167.056 22.398 166.998 22.3844C166.939 22.3708 166.887 22.3381 166.849 22.2914C166.811 22.2448 166.79 22.1871 166.789 22.1274V19.2057C166.789 18.9725 166.696 18.7489 166.529 18.5842C166.362 18.4193 166.137 18.327 165.901 18.327H159.734C159.497 18.3279 159.271 18.4215 159.104 18.5871C158.937 18.7533 158.843 18.9779 158.843 19.2121V43.2902C158.843 43.5265 158.937 43.7533 159.106 43.9205C159.275 44.0877 159.505 44.1816 159.744 44.1816H165.888C166.127 44.1816 166.356 44.0877 166.525 43.9205C166.694 43.7533 166.789 43.5265 166.789 43.2902V28.9258C166.789 28.5308 166.867 28.1394 167.02 27.7742C167.173 27.4094 167.396 27.0776 167.679 26.7984C167.961 26.5192 168.297 26.2972 168.666 26.1465C169.034 25.9955 169.43 25.9181 169.829 25.9184H171.385C171.784 25.9181 172.18 25.9955 172.549 26.1465C172.918 26.2975 173.254 26.5189 173.537 26.7981C173.819 27.0773 174.043 27.4091 174.197 27.7742C174.35 28.139 174.428 28.5305 174.428 28.9258L174.447 43.2934C174.447 43.4104 174.471 43.5259 174.516 43.6341C174.561 43.7419 174.628 43.8399 174.712 43.9224C174.795 44.0052 174.895 44.0706 175.004 44.115C175.113 44.1594 175.231 44.1819 175.349 44.1816H181.493C181.732 44.1816 181.961 44.0877 182.13 43.9205C182.299 43.7533 182.394 43.5265 182.394 43.2902V28.9258C182.394 28.1283 182.715 27.3634 183.285 26.7994C183.855 26.2353 184.628 25.9184 185.434 25.9184H186.993C187.392 25.9181 187.788 25.9955 188.157 26.1465C188.526 26.2975 188.861 26.5189 189.144 26.7984C189.426 27.0776 189.65 27.4094 189.803 27.7745C189.955 28.1394 190.033 28.5308 190.033 28.9258L190.056 43.2934C190.056 43.5291 190.15 43.7549 190.319 43.9215C190.487 44.088 190.715 44.1816 190.954 44.1816H197.101C197.22 44.1816 197.337 44.1584 197.446 44.1137C197.555 44.069 197.654 44.003 197.738 43.9202C197.821 43.8374 197.887 43.7391 197.932 43.6312C197.977 43.523 197.999 43.4072 197.999 43.2902V28.1803C198.016 26.8669 197.77 25.5637 197.274 24.3455C196.779 23.1274 196.044 22.018 195.112 21.0825C194.18 20.1469 193.07 19.4037 191.846 18.8951C190.622 18.3869 189.308 18.1236 187.981 18.1208ZM115.45 8.98123L109.741 3.33445C109.619 3.21231 109.463 3.12888 109.292 3.09494C109.122 3.06067 108.945 3.0778 108.785 3.14347C108.624 3.20914 108.487 3.32049 108.39 3.46356C108.294 3.60632 108.243 3.77477 108.244 3.94671V19.3263C108.243 19.4183 108.218 19.509 108.169 19.5877C108.121 19.667 108.052 19.731 107.97 19.7742C107.888 19.8173 107.795 19.8373 107.702 19.8322C107.609 19.8269 107.519 19.797 107.442 19.745C106.025 18.7933 104.344 18.3003 102.631 18.3333H99.0429C97.7117 18.333 96.3936 18.5919 95.1638 19.0953C93.9339 19.5991 92.8163 20.3373 91.8751 21.2684C90.9338 22.1991 90.1869 23.3044 89.6774 24.521C89.1681 25.7373 88.9058 27.0411 88.9058 28.3579V34.1887C88.9058 35.5056 89.1681 36.8097 89.6774 38.0263C90.1869 39.2429 90.9335 40.3481 91.8748 41.2795C92.8163 42.2106 93.9336 42.9492 95.1635 43.4532C96.3933 43.957 97.7117 44.2165 99.0429 44.2165H101.038C103.844 44.2165 106.307 42.7001 107.676 40.0925C107.703 40.0392 107.748 39.9963 107.802 39.971C107.857 39.9459 107.919 39.9392 107.977 39.9529C108.036 39.9665 108.089 39.9992 108.127 40.0458C108.164 40.0924 108.185 40.1502 108.186 40.2098V43.3314C108.186 43.4469 108.209 43.5611 108.254 43.6677C108.298 43.7743 108.364 43.871 108.446 43.9529C108.529 44.0344 108.626 44.0991 108.734 44.1432C108.842 44.1873 108.957 44.2102 109.074 44.2102H115.241C115.477 44.2092 115.704 44.1163 115.871 43.951C116.038 43.7857 116.132 43.5617 116.133 43.3282V10.6086C116.132 9.99828 115.886 9.41267 115.45 8.98123ZM96.8205 33.7255V28.8148C96.8214 28.0175 97.1418 27.253 97.712 26.6893C98.2819 26.1252 99.0548 25.8083 99.8607 25.8074H104.969C105.776 25.8074 106.549 26.1243 107.119 26.6883C107.689 27.2524 108.009 28.0172 108.009 28.8148V33.7255C108.01 34.1208 107.932 34.5123 107.779 34.8774C107.626 35.2426 107.402 35.5744 107.12 35.8542C106.838 36.1337 106.503 36.3554 106.133 36.5067C105.764 36.6581 105.369 36.7361 104.969 36.7361H99.8607C99.0548 36.7352 98.2819 36.4182 97.712 35.8542C97.1418 35.2905 96.8214 34.5259 96.8205 33.7287V33.7255ZM52.087 18.346H45.9233C45.6876 18.346 45.4618 18.4386 45.295 18.6033C45.1286 18.7682 45.0349 18.9916 45.0349 19.2247V22.3432C45.0343 22.4028 45.0135 22.4605 44.9756 22.5072C44.9381 22.5538 44.8855 22.5865 44.8265 22.6001C44.7678 22.6138 44.7062 22.6071 44.6514 22.582C44.5969 22.5567 44.5523 22.5138 44.525 22.4605C43.1557 19.8592 40.6767 18.3365 37.8867 18.3365H35.8888C33.201 18.3365 30.6236 19.3929 28.7232 21.2725C26.8225 23.1527 25.7549 25.7024 25.7549 28.3611V34.1919C25.7545 35.5087 26.0162 36.8126 26.5255 38.0292C27.0344 39.2458 27.781 40.3513 28.7219 41.2824C29.6628 42.2135 30.7801 42.9523 32.01 43.4564C33.2395 43.9602 34.5576 44.2197 35.8888 44.2197H37.8867C40.6896 44.2197 43.1557 42.7033 44.525 40.0956C44.5523 40.0423 44.5969 39.9995 44.6514 39.9741C44.7062 39.9491 44.7678 39.9424 44.8265 39.956C44.8855 39.9697 44.9381 40.0024 44.9756 40.049C45.0135 40.0956 45.0343 40.1534 45.0349 40.213V43.3346C45.0349 43.5678 45.1286 43.7911 45.295 43.9561C45.4618 44.1207 45.6876 44.2133 45.9233 44.2133H52.087C52.3233 44.2133 52.5501 44.1204 52.7175 43.9551C52.8846 43.7895 52.9785 43.5652 52.9785 43.3314V19.2216C52.9782 19.1061 52.9548 18.9919 52.9096 18.8853C52.8647 18.779 52.7989 18.6823 52.7162 18.6011C52.6334 18.5198 52.535 18.4554 52.4272 18.4117C52.3192 18.3679 52.2037 18.3457 52.087 18.346ZM44.8586 33.7414C44.8586 34.1367 44.78 34.5282 44.627 34.8936C44.4741 35.2587 44.2499 35.5906 43.9674 35.8701C43.6845 36.1499 43.3491 36.3716 42.9799 36.5229C42.6105 36.6742 42.2148 36.752 41.8152 36.752H36.7098C35.9026 36.752 35.1284 36.4347 34.5579 35.8701C33.9871 35.3057 33.6664 34.5399 33.6664 33.7414V28.8148C33.6673 28.0169 33.9883 27.2521 34.5589 26.688C35.1297 26.124 35.9032 25.8074 36.7098 25.8074H41.8152C42.6217 25.8074 43.3956 26.1243 43.9661 26.688C44.5366 27.2521 44.8576 28.0169 44.8586 28.8148V33.7414ZM74.3303 18.346H73.7594C70.9566 18.346 68.4904 19.8592 67.1211 22.4701C67.0938 22.5233 67.0493 22.5662 66.9947 22.5916C66.9399 22.6169 66.8783 22.6233 66.8196 22.6096C66.7606 22.596 66.708 22.5633 66.6705 22.5167C66.6327 22.4701 66.6118 22.4123 66.6112 22.3527V19.2121C66.6077 18.9811 66.5127 18.7609 66.3466 18.5988C66.1802 18.437 65.9563 18.346 65.7229 18.346H59.5591C59.4421 18.3457 59.3257 18.3682 59.2176 18.4123C59.1092 18.4567 59.0108 18.5214 58.9277 18.6033C58.845 18.6854 58.7792 18.7828 58.7346 18.8901C58.6901 18.997 58.6673 19.1121 58.6676 19.2279V43.3092C58.6676 43.5449 58.7622 43.7708 58.9306 43.9373C59.0989 44.1039 59.3273 44.1975 59.5656 44.1975H65.7132C65.8313 44.1975 65.948 44.1746 66.0567 44.1299C66.1657 44.0852 66.2648 44.0198 66.3482 43.9373C66.4316 43.8549 66.4977 43.7568 66.5429 43.6493C66.5881 43.5414 66.6112 43.426 66.6112 43.3092L66.6336 29.132C66.6336 28.3345 66.954 27.5696 67.5242 27.0056C68.0941 26.4415 68.8676 26.1246 69.6738 26.1246H73.458C74.2639 26.1256 75.0368 26.4425 75.6066 27.0065C76.1768 27.5702 76.4972 28.3348 76.4982 29.132L76.5174 43.2934C76.5184 43.5294 76.6136 43.7552 76.7826 43.9218C76.9513 44.088 77.1799 44.1816 77.4185 44.1816H83.563C83.6814 44.1819 83.7984 44.1594 83.9078 44.115C84.0168 44.0706 84.1162 44.0052 84.1999 43.9224C84.2836 43.8399 84.3503 43.7419 84.3955 43.6341C84.4408 43.5259 84.4642 43.4104 84.4642 43.2934V28.3579C84.4606 25.7014 83.3915 23.155 81.4913 21.2776C79.5912 19.4005 77.0158 18.346 74.3303 18.346ZM5.20485 13.0609C3.82427 13.0618 2.50012 13.6049 1.52425 14.5709C0.548385 15.5369 0 16.8471 0 18.2128V41.4185C0 42.2404 0.329993 43.0291 0.917183 43.6106L6.3401 48.9718C6.47159 49.1016 6.63867 49.1901 6.82114 49.2256C7.00298 49.2615 7.19187 49.2431 7.36312 49.173C7.53501 49.1026 7.68156 48.9836 7.78483 48.831C7.88809 48.6784 7.94325 48.4989 7.94357 48.3152V36.4284C7.94357 36.1987 8.03593 35.9785 8.20012 35.8161C8.36432 35.6537 8.58688 35.5623 8.81906 35.5623H17.9588C18.2067 35.5623 18.4482 35.4843 18.6483 35.3393C18.8484 35.1947 18.9966 34.9904 19.0716 34.7566L20.7937 29.3636C20.8406 29.2176 20.8521 29.0631 20.8271 28.9121C20.8024 28.7611 20.7418 28.6177 20.6507 28.4943C20.5593 28.3706 20.44 28.2701 20.3021 28.2006C20.1642 28.1311 20.0119 28.0949 19.8573 28.0946H8.81906C8.70393 28.0949 8.58977 28.0731 8.48362 28.0296C8.37715 27.9861 8.2803 27.9224 8.19916 27.8418C8.11771 27.7615 8.05325 27.6657 8.00931 27.5604C7.96538 27.4551 7.94325 27.3425 7.94357 27.2286V21.3439C7.94357 21.2303 7.96602 21.1177 8.01027 21.013C8.05421 20.9083 8.11899 20.8128 8.20012 20.7326C8.28158 20.6523 8.37811 20.5889 8.48426 20.5457C8.59041 20.5026 8.70426 20.4807 8.81906 20.481H22.8462C23.0931 20.481 23.334 20.4033 23.5334 20.2589C23.7329 20.1146 23.8811 19.9112 23.9558 19.6784L25.6907 14.3298C25.7376 14.1839 25.7491 14.0294 25.7241 13.8784C25.6994 13.7274 25.6388 13.584 25.5477 13.4606C25.4563 13.3369 25.337 13.2363 25.1991 13.1668C25.0612 13.0974 24.9089 13.0612 24.7543 13.0609H5.20485Z" fill="#520044"/>
</g>
<defs>
<clipPath id="clip0_1062_1171">
<rect width="198" height="49.5" fill="white"/>
</clipPath>
</defs>
</svg>
