<svg width="250" height="40" viewBox="0 0 250 40" fill="none" xmlns="http://www.w3.org/2000/svg">
<g clip-path="url(#clip0_1062_800)">
<path fill-rule="evenodd" clip-rule="evenodd" d="M128.649 37.5898C119.793 37.5898 114.451 32.5131 114.451 23.3975V0.597256H124.081V23.0391C124.081 27.1359 125.459 29.2357 128.699 29.2357C132.059 29.2357 133.653 27.1882 133.653 23.0391V0.597256H143.223V23.3975C143.223 32.3115 137.397 37.5916 128.649 37.5916V37.5898ZM155.339 25.2732V36.9944H145.781V0.597256H158.743C162.871 0.597256 166.003 0.854822 168.637 2.59433C172.101 4.8471 173.915 8.27386 173.915 12.8317C173.915 17.5444 171.607 21.4359 167.707 23.6308C165.233 25.0213 162.157 25.2732 158.089 25.2732H155.339ZM155.371 8.9495H157.947C162.259 8.9495 164.323 10.2168 164.323 13.3468C164.323 16.7362 161.981 17.9009 157.171 17.9009H155.371V8.9495ZM226.977 16.7232V36.9944H217.393V0.597256H226.029L240.425 20.8218V0.597256H250.001V36.9925H241.577L226.977 16.7232ZM91.7766 38.187C85.9926 38.187 81.0326 36.2124 77.1786 32.3769C73.4826 28.7 71.6126 24.1459 71.6126 18.7053C71.6126 13.6249 73.7046 8.96443 77.5606 5.38463C81.4206 1.81416 86.2666 0 91.8346 0C97.0686 0 102.031 1.91682 105.829 5.44436C109.801 9.12121 111.893 13.8339 111.893 18.8639C111.893 24.1459 109.903 28.8568 106.215 32.4329C104.355 34.2599 102.116 35.7129 99.6326 36.7024C97.1496 37.692 94.4761 38.1972 91.7766 38.187ZM91.6006 8.9495C97.1006 8.9495 101.665 13.1956 101.665 18.5093C101.665 24.4483 97.1026 28.6403 91.4906 28.6403C86.1026 28.6403 81.2046 24.243 81.2046 18.5093C81.2046 13.1956 85.7726 8.9495 91.6006 8.9495ZM195.367 38.187C189.579 38.187 184.623 36.2124 180.767 32.3769C177.071 28.7 175.193 24.1459 175.193 18.7053C175.193 13.6249 177.285 8.96443 181.149 5.38463C185.013 1.81416 189.855 0 195.421 0C200.661 0 205.609 1.91682 209.419 5.44436C213.381 9.12121 215.475 13.8339 215.475 18.8639C215.475 24.1459 213.495 28.8568 209.801 32.4329C207.942 34.26 205.703 35.713 203.221 36.7026C200.739 37.6922 198.066 38.1973 195.367 38.187ZM195.171 8.9495C200.679 8.9495 205.243 13.1956 205.243 18.5093C205.243 24.4483 200.679 28.6403 195.071 28.6403C189.677 28.6403 184.783 24.243 184.783 18.5093C184.783 13.1956 189.349 8.9495 195.171 8.9495ZM5.49034 32.3451C1.85036 28.6776 0.000355498 24.1329 0.000355498 18.709C-0.015449 16.2415 0.495865 13.7957 1.50442 11.5147C2.51298 9.23362 3.99856 7.16301 5.87434 5.42383C9.67634 1.86269 14.4663 0 19.9543 0C28.2243 0 35.4523 4.80604 38.5543 12.6656H27.7803C25.3923 10.284 22.8863 9.09509 19.8443 9.09509C14.1923 9.09509 9.73434 13.4849 9.73434 18.7594C9.73434 24.5995 14.5163 29.092 19.8443 29.092C23.4363 29.092 26.6443 27.3375 28.5443 24.1329H17.5163V16.7978H39.5383C39.5883 17.6172 39.6443 18.4515 39.6443 19.2204C39.6443 23.3564 38.5563 26.869 36.3243 29.9729C34.5063 32.4937 32.0541 34.5605 29.1823 35.9925C26.3104 37.4244 23.1064 38.1779 19.8503 38.187C14.1403 38.187 9.30234 36.1676 5.49234 32.3451H5.49034ZM51.7346 25.2751V36.9963H42.2003V0.597256H55.1366C59.2426 0.597256 62.3606 0.854822 64.9986 2.59433C68.4506 4.8471 70.2586 8.27386 70.2586 12.7831C70.2586 18.668 66.9706 23.0746 61.4386 24.5061L70.9726 36.9944H59.1886L51.7346 25.2732V25.2751ZM51.7906 8.95137H54.4466C58.6946 8.95137 60.7426 10.2187 60.7426 13.3487C60.7426 16.7381 58.4186 17.9027 53.6706 17.9027H51.7906V8.9495V8.95137Z" fill="#52A318"/>
</g>
<defs>
<clipPath id="clip0_1062_800">
<rect width="250" height="39.1949" fill="white"/>
</clipPath>
</defs>
</svg>
