<svg width="174" height="32" viewBox="0 0 174 32" fill="none" xmlns="http://www.w3.org/2000/svg">
<path d="M43.9712 0.955322H52.1496V12.2174H62.6466V0.955322H70.825V31.0449H62.6466V19.6108H52.1496V31.0449H43.9712V0.955322Z" fill="#37434F"/>
<path fill-rule="evenodd" clip-rule="evenodd" d="M97.511 0.955322H89.6116L77.0234 31.1466H85.6409L87.753 25.7935H99.1584L101.313 31.1466H110.099L97.511 0.955322ZM93.4979 10.8049L96.7928 19.327H90.1608L93.4979 10.8049Z" fill="#37434F"/>
<path d="M127.921 31.0449C125.263 31.0449 122.74 30.6431 120.351 29.8396C117.962 29.0361 115.848 27.8309 114.011 26.2239L118.591 20.8626C121.559 23.19 124.768 24.3537 128.218 24.3537C129.32 24.3537 130.161 24.1805 130.741 23.8342C131.32 23.4879 131.61 22.9961 131.61 22.3588V22.2757C131.61 21.9709 131.54 21.7008 131.398 21.4653C131.257 21.2298 130.995 21.0012 130.614 20.7795C130.232 20.5579 129.723 20.3431 129.087 20.1353C128.451 19.9275 127.624 19.7128 126.606 19.4912C125.023 19.131 123.553 18.7361 122.196 18.3067C120.838 17.8772 119.658 17.3231 118.654 16.6443C117.651 15.9655 116.859 15.1204 116.28 14.1091C115.7 13.0978 115.41 11.8441 115.41 10.3479V10.2648C115.41 8.90716 115.672 7.66037 116.195 6.52438C116.718 5.3884 117.481 4.40482 118.485 3.57361C119.489 2.7424 120.697 2.09823 122.111 1.64106C123.524 1.1839 125.122 0.955322 126.903 0.955322C129.447 0.955322 131.716 1.28087 133.709 1.93199C135.703 2.5831 137.505 3.5459 139.117 4.82042L135.003 10.5142C133.646 9.57212 132.253 8.85868 130.826 8.37381C129.398 7.88894 128.02 7.64651 126.691 7.64651C125.701 7.64651 124.959 7.8266 124.464 8.18679C123.97 8.54698 123.722 8.99028 123.722 9.51671V9.59983C123.722 9.93232 123.8 10.2232 123.956 10.4726C124.111 10.722 124.38 10.9505 124.761 11.1583C125.143 11.3661 125.666 11.5739 126.33 11.7817C126.995 11.9895 127.836 12.2043 128.854 12.4259C130.55 12.7861 132.084 13.2086 133.455 13.6935C134.826 14.1784 135.992 14.7671 136.954 15.4598C137.915 16.1525 138.65 16.9906 139.159 17.9742C139.668 18.9578 139.922 20.1284 139.922 21.486V21.5692C139.922 23.0653 139.633 24.3952 139.053 25.5589C138.473 26.7226 137.661 27.7131 136.614 28.5305C135.568 29.3478 134.31 29.9712 132.84 30.4007C131.37 30.8302 129.73 31.0449 127.921 31.0449Z" fill="#37434F"/>
<path d="M147.146 0.955322H155.324V12.2174H165.821V0.955322H174V31.0449H165.821V19.6108H155.324V31.0449H147.146V0.955322Z" fill="#37434F"/>
<g opacity="0.9">
<path opacity="0.886277" d="M17.6973 32H26.4861V0H17.6973V32Z" fill="url(#paint0_linear_4851_33134)"/>
<path opacity="0.898345" d="M5.0791 32H13.8672V0H5.0791V32Z" fill="url(#paint1_linear_4851_33134)"/>
<path opacity="0.881278" d="M0 13.7154H31.565V4.80542H0V13.7154Z" fill="url(#paint2_linear_4851_33134)"/>
<path opacity="0.855632" d="M0 26.7367H31.565V17.8274H0V26.7367Z" fill="url(#paint3_linear_4851_33134)"/>
</g>
<defs>
<linearGradient id="paint0_linear_4851_33134" x1="26.4861" y1="32" x2="26.4861" y2="0" gradientUnits="userSpaceOnUse">
<stop stop-color="#00BBFF"/>
<stop offset="1" stop-color="#0046FF"/>
</linearGradient>
<linearGradient id="paint1_linear_4851_33134" x1="5.0791" y1="0" x2="5.0791" y2="32" gradientUnits="userSpaceOnUse">
<stop stop-color="#00B8FF"/>
<stop offset="1" stop-color="#0010FF"/>
</linearGradient>
<linearGradient id="paint2_linear_4851_33134" x1="1.84857" y1="13.273" x2="30.279" y2="13.273" gradientUnits="userSpaceOnUse">
<stop stop-color="#00AFFF"/>
<stop offset="1" stop-color="#5424FF"/>
</linearGradient>
<linearGradient id="paint3_linear_4851_33134" x1="2.77872" y1="26.3445" x2="31.565" y2="26.3445" gradientUnits="userSpaceOnUse">
<stop stop-color="#6D2BF6"/>
<stop offset="1" stop-color="#0080FF"/>
</linearGradient>
</defs>
</svg>
