<svg width="467" height="130" viewBox="0 0 467 130" fill="none" xmlns="http://www.w3.org/2000/svg">
<path d="M64.636 129.172C100.303 129.172 129.272 100.284 129.272 64.6013C129.272 28.9147 100.303 -3.84963e-06 64.636 -3.84963e-06C28.912 -3.84963e-06 0 28.9147 0 64.6013C0 100.284 28.912 129.172 64.636 129.172Z" fill="#C00E3B"/>
<path d="M62.0344 36.2527V92.9194H80.0531V87.826H67.2291V36.2527H62.0344Z" fill="white"/>
<path d="M43.9954 51.7163C48.2847 51.7163 51.738 48.2296 51.738 43.9736C51.738 39.7163 48.2847 36.2163 43.9954 36.2163C39.7114 36.2163 36.2554 39.7163 36.2554 43.9736C36.2554 48.2323 39.7114 51.7163 43.9954 51.7163Z" fill="white"/>
<path d="M67.2245 10.5445C66.5499 10.5111 65.2659 10.4658 64.6512 10.4658C34.8152 10.4658 10.5339 34.7578 10.5339 64.5711C10.5339 79.0551 16.1645 92.6298 26.3579 102.839C36.5939 113.023 50.1725 118.651 64.6512 118.651C79.0765 118.651 92.6539 113.023 102.87 102.839C113.086 92.6298 118.743 79.0551 118.743 64.5711V62.1671H116.555H80.1019V67.1458H113.586C113.586 67.2551 113.586 67.7845 113.566 67.9191C111.863 93.4111 90.5739 113.599 64.6512 113.599C51.5299 113.599 39.2272 108.498 29.9672 99.2325C20.6779 90.0058 15.5632 77.7085 15.5632 64.5711C15.5632 51.5138 20.6779 39.1538 29.9672 29.9018C39.2272 20.6484 51.5299 15.5471 64.6512 15.5471C65.2165 15.5471 66.5939 15.5471 67.2245 15.5778V10.5445Z" fill="white"/>
<path d="M445.318 22.7267V1.54674H429.685V22.7267H409.026V37.6694H429.685V58.6041H445.318V37.6694H466.116V22.7267H445.318Z" fill="#656263"/>
<path d="M376.623 22.5549V70.4922C376.623 83.9188 369.959 90.5215 358.68 90.5215C347.402 90.5215 340.738 83.9188 340.738 70.4922V22.5549H321.678V70.7815C321.678 97.2922 335.784 107.25 357.998 107.25H359.363C381.579 107.25 395.686 97.2922 395.686 70.7815V22.5549H376.623Z" fill="#656263"/>
<path d="M181.865 106.029H217.258V89.7715H177.305V22.5448H158.016V106.029H181.865Z" fill="#656263"/>
<path d="M259.688 74.2084H275.396V88.8018C272.503 89.9084 266.855 91.0111 261.483 91.0111C244.123 91.0111 238.333 82.1898 238.333 64.2844C238.333 47.2031 243.844 37.1431 261.201 37.1431C270.849 37.1431 276.36 40.1724 280.904 45.9578L292.896 34.9404C285.587 24.4738 272.776 21.3018 260.789 21.3018C233.787 21.3018 219.6 36.0391 219.6 64.1431C219.6 92.1124 232.407 107.268 260.652 107.268C273.603 107.268 286.279 103.96 293.167 99.1378V58.6378H259.688V74.2084Z" fill="#656263"/>
</svg>
