<svg width="242" height="41" viewBox="0 0 242 41" fill="none" xmlns="http://www.w3.org/2000/svg">
<g clip-path="url(#clip0_1062_977)">
<path fill-rule="evenodd" clip-rule="evenodd" d="M34.2104 10.1748C34.0723 10.0338 33.9043 9.9257 33.7187 9.85856C33.5331 9.79142 33.3348 9.76695 33.1385 9.78695H28.5948C28.2825 9.78405 27.9738 9.85373 27.693 9.99048C27.4122 10.1272 27.167 10.3273 26.9768 10.575L17.41 22.9232L12.2365 10.6262C12.1129 10.3368 11.8962 10.0969 11.6208 9.94461C11.3454 9.7923 11.0271 9.73627 10.7162 9.7854H6.42539C6.2309 9.76825 6.03496 9.79063 5.84934 9.85118C5.66373 9.91174 5.49228 10.0092 5.34532 10.1378C5.19837 10.2663 5.07893 10.4233 4.99422 10.5992C4.90951 10.7751 4.86128 10.9663 4.85241 11.1614L0.0589259 38.464C0.00453006 38.6405 -0.00976148 38.8269 0.0170761 39.0097C0.0439137 39.1925 0.111213 39.3669 0.214064 39.5204C0.352277 39.6612 0.520355 39.7691 0.705893 39.8363C0.891431 39.9034 1.08968 39.928 1.28599 39.9082H5.8297C6.21812 39.9241 6.59783 39.7902 6.89031 39.5341C7.18279 39.278 7.36566 38.9193 7.40115 38.5322L10.2385 22.3384L14.6612 32.718V32.7289C14.754 32.9383 14.9065 33.1156 15.0997 33.2387C15.2928 33.3618 15.518 33.4251 15.7471 33.4207C15.9874 33.4269 16.225 33.369 16.4355 33.2528C16.646 33.1367 16.8218 32.9665 16.9446 32.7599L25.0284 22.3911L22.2299 38.4609C22.174 38.6374 22.1589 38.8244 22.1858 39.0077C22.2127 39.1909 22.2808 39.3657 22.385 39.5188C22.5233 39.6595 22.6914 39.7674 22.8769 39.8346C23.0624 39.9017 23.2606 39.9263 23.4569 39.9066H28.0006C28.389 39.9222 28.7684 39.7882 29.0608 39.5321C29.3532 39.2761 29.5362 38.9176 29.5721 38.5307L34.3655 11.2281C34.4205 11.0521 34.435 10.8661 34.4082 10.6837C34.3813 10.5014 34.3137 10.3274 34.2104 10.1748ZM54.9418 11.0699C54.8908 10.6972 54.7005 10.3576 54.4092 10.1196C54.1179 9.88154 53.7472 9.76269 53.3718 9.78695H47.477C47.0818 9.7619 46.6889 9.86352 46.3554 10.077C46.0548 10.3337 45.8202 10.6587 45.6713 11.0249L31.5376 38.2018C31.4175 38.3764 31.343 38.5783 31.3208 38.7891C31.2985 38.9999 31.3293 39.2128 31.4103 39.4087C31.5123 39.58 31.6616 39.7182 31.8401 39.8068C32.0187 39.8954 32.2191 39.9306 32.4171 39.9082H37.5488C37.934 39.9041 38.3089 39.7833 38.6241 39.5618C38.9393 39.3402 39.1799 39.0283 39.3141 38.6672L41.5759 34.2181H51.0636L51.7523 38.6036C51.7597 38.7924 51.8062 38.9776 51.8888 39.1475C51.9714 39.3174 52.0883 39.4684 52.2322 39.5908C52.3761 39.7133 52.5437 39.8045 52.7247 39.8589C52.9056 39.9133 53.0959 39.9295 53.2834 39.9066H58.1731C58.3775 39.9211 58.5824 39.8852 58.7698 39.8022C58.9572 39.7192 59.1214 39.5915 59.2481 39.4304C59.3636 39.2604 59.4444 39.0694 59.4859 38.8681C59.5275 38.6669 59.5289 38.4594 59.4901 38.2576L54.9418 11.0699ZM44.165 27.8237L49.2966 17.5852L50.6773 27.8237H44.1619H44.165ZM77.1204 23.8726L89.7293 11.6609C89.8992 11.5106 90.0273 11.3189 90.1012 11.1044C90.1752 10.89 90.1924 10.66 90.1512 10.4369C90.0975 10.2268 89.9675 10.0442 89.7865 9.92465C89.6056 9.80508 89.3867 9.7571 89.1723 9.79006H83.5334C83.1282 9.82965 82.7356 9.95246 82.38 10.1508C82.0245 10.3491 81.7137 10.6187 81.4671 10.9427L72.1594 19.8967L73.6999 11.2374C73.7556 11.0608 73.7706 10.8738 73.7438 10.6906C73.7169 10.5074 73.6488 10.3326 73.5447 10.1794C73.4066 10.0385 73.2385 9.93051 73.0529 9.86338C72.8674 9.79624 72.6691 9.77172 72.4728 9.79161H67.7197C67.5252 9.77423 67.3292 9.79646 67.1436 9.85695C66.958 9.91744 66.7866 10.0149 66.6397 10.1435C66.4928 10.2722 66.3735 10.4292 66.289 10.6052C66.2046 10.7812 66.1567 10.9725 66.1482 11.1676L61.3532 38.4702C61.2973 38.6468 61.2823 38.8337 61.3091 39.017C61.336 39.2002 61.4041 39.375 61.5083 39.5281C61.6464 39.6691 61.8145 39.7772 62 39.8443C62.1856 39.9115 62.3839 39.936 62.5803 39.916H67.3334C67.5278 39.9331 67.7237 39.9107 67.9092 39.8502C68.0947 39.7896 68.2661 39.6921 68.4129 39.5635C68.5597 39.4349 68.679 39.278 68.7636 39.1021C68.8481 38.9261 68.8962 38.7349 68.9048 38.54L70.8781 27.4095L77.4307 38.6734C77.5707 39.0393 77.8187 39.354 78.1418 39.5756C78.4649 39.7973 78.8477 39.9154 79.2395 39.9144H84.2455C84.4663 39.9318 84.6874 39.8833 84.8807 39.7751C85.0739 39.6668 85.2308 39.5037 85.3314 39.3063C85.4289 39.1123 85.4722 38.8956 85.4567 38.679C85.4411 38.4625 85.3672 38.2541 85.2429 38.0761L77.1204 23.8726ZM109.038 21.8559C108.91 21.7304 108.756 21.6337 108.587 21.5724C108.418 21.5112 108.238 21.4867 108.059 21.5007H97.8037L98.7081 16.2698H109.7C109.898 16.2847 110.096 16.2595 110.283 16.1957C110.47 16.1318 110.643 16.0306 110.789 15.8981C110.936 15.7657 111.055 15.6048 111.138 15.4253C111.221 15.2457 111.266 15.0512 111.272 14.8534L111.945 11.2203C111.986 11.0384 111.988 10.8496 111.948 10.6672C111.909 10.4847 111.831 10.313 111.719 10.1639C111.581 10.0285 111.416 9.92468 111.234 9.85958C111.053 9.79449 110.859 9.7697 110.667 9.78695H93.671C93.4794 9.77284 93.2869 9.79763 93.105 9.85982C92.9232 9.92202 92.7558 10.0203 92.6129 10.1489C92.47 10.2774 92.3546 10.4335 92.2736 10.6077C92.1926 10.782 92.1477 10.9709 92.1415 11.1629L87.3465 38.4655C87.2923 38.6425 87.2788 38.8294 87.307 39.0124C87.3352 39.1953 87.4044 39.3695 87.5094 39.5219C87.6474 39.663 87.8154 39.7712 88.001 39.8383C88.1866 39.9054 88.3849 39.9299 88.5813 39.9098H105.745C106.142 39.9183 106.529 39.7773 106.827 39.5148C107.126 39.2523 107.315 38.8873 107.358 38.4919L107.991 34.9022C108.032 34.7204 108.032 34.5318 107.993 34.3497C107.954 34.1675 107.875 33.9961 107.763 33.8473C107.626 33.7118 107.461 33.6079 107.279 33.5427C107.098 33.4776 106.905 33.4529 106.713 33.4704H95.6598L96.6883 27.6903H107.091C107.482 27.7158 107.866 27.5855 108.161 27.3279C108.456 27.0702 108.636 26.7063 108.663 26.3159L109.296 22.9294C109.332 22.7422 109.327 22.5495 109.283 22.3641C109.239 22.1787 109.155 22.0049 109.038 21.8544V21.8559ZM133.978 11.0249C131.302 9.75069 128.351 9.16063 125.39 9.30761C122.183 9.15327 119.01 10.0136 116.32 11.7664C115.164 12.6402 114.245 13.788 113.644 15.1061C113.043 16.4242 112.779 17.8712 112.877 19.3165C112.829 20.266 112.987 21.2147 113.338 22.0981C113.689 22.9815 114.227 23.7787 114.914 24.4357C116.53 25.8219 118.392 26.8927 120.403 27.5926C121.609 28.0098 122.767 28.5543 123.857 29.2168C124.166 29.3848 124.426 29.6307 124.61 29.93C124.795 30.2294 124.898 30.5717 124.909 30.9232C124.916 31.4396 124.752 31.9439 124.444 32.3583C124.136 32.7726 123.699 33.074 123.203 33.216C121.917 33.7141 120.548 33.9601 119.169 33.9404C117.064 33.9795 114.976 33.5525 113.054 32.6901C112.877 32.6098 112.685 32.5669 112.491 32.564C112.296 32.5611 112.103 32.5983 111.923 32.6733C111.744 32.7482 111.582 32.8593 111.447 32.9996C111.312 33.14 111.208 33.3065 111.14 33.489L109.37 36.7001C109.27 36.8459 109.204 37.0123 109.178 37.1869C109.151 37.3615 109.163 37.54 109.215 37.709C109.266 37.878 109.355 38.0334 109.474 38.1635C109.594 38.2936 109.741 38.3953 109.905 38.4609C111.185 39.119 112.559 39.5743 113.979 39.8105C115.842 40.1724 117.736 40.3501 119.633 40.341C122.926 40.4669 126.174 39.547 128.912 37.7131C130.127 36.8322 131.102 35.6607 131.747 34.3057C132.393 32.9507 132.688 31.4554 132.607 29.9567C132.626 28.9286 132.419 27.9087 132.002 26.969C131.573 26.0702 130.934 25.2877 130.14 24.687C129.404 24.1068 128.622 23.588 127.801 23.1357C127.062 22.7371 126.08 22.281 124.883 21.7799C123.712 21.3197 122.582 20.7614 121.506 20.1107C121.222 19.9471 120.987 19.7117 120.824 19.4282C120.66 19.1447 120.574 18.8231 120.575 18.4959C120.575 16.6638 122.153 15.7734 125.396 15.7734C127.243 15.7426 129.081 16.0372 130.826 16.6436C131.007 16.7326 131.205 16.7818 131.406 16.7879C131.608 16.7941 131.808 16.7571 131.994 16.6793C132.18 16.6016 132.347 16.485 132.485 16.3373C132.622 16.1896 132.726 16.0142 132.79 15.823L134.474 12.784C134.572 12.6397 134.636 12.4758 134.664 12.3039C134.691 12.1321 134.681 11.9562 134.634 11.7887C134.587 11.6212 134.504 11.4659 134.39 11.3337C134.277 11.2016 134.136 11.0956 133.978 11.0233V11.0249ZM176.587 9.78385H171.581C171.188 9.76397 170.8 9.87655 170.479 10.1035C170.158 10.3305 169.922 10.6588 169.81 11.0357L164.551 23.6011L161.889 30.3833L161.499 23.6135L160.533 11.0559C160.523 10.8613 160.472 10.6711 160.383 10.4981C160.293 10.325 160.167 10.1733 160.014 10.0531C159.861 9.93289 159.683 9.84706 159.494 9.8014C159.305 9.75575 159.108 9.75136 158.916 9.7885H154.663C154.271 9.76967 153.884 9.8769 153.559 10.0944C153.233 10.312 152.985 10.6283 152.852 10.997L147.423 23.5623L144.687 30.3771L144.424 23.6539L143.584 11.0885C143.574 10.8967 143.524 10.7091 143.438 10.5375C143.352 10.3658 143.231 10.214 143.083 10.0915C142.935 9.96896 142.764 9.87851 142.579 9.82582C142.394 9.77314 142.201 9.75938 142.011 9.7854H137.172C137.001 9.77524 136.83 9.80105 136.67 9.86118C136.509 9.9213 136.363 10.0144 136.241 10.1344C136.097 10.3211 135.991 10.5351 135.932 10.7637C135.872 10.9922 135.86 11.2304 135.895 11.4639L138.588 38.602C138.595 38.7908 138.641 38.9761 138.724 39.1461C138.806 39.3162 138.923 39.4672 139.067 39.5897C139.211 39.7123 139.378 39.8036 139.559 39.8578C139.74 39.9121 139.93 39.9282 140.118 39.9051H145.377C145.77 39.9145 146.157 39.7997 146.482 39.5769C146.807 39.3541 147.053 39.0347 147.186 38.6641L152.657 26.6494L155.024 20.9608L155.415 26.5966L156.676 38.5989C156.678 38.79 156.72 38.9786 156.8 39.1519C156.881 39.3252 156.998 39.4791 157.143 39.6033C157.288 39.7275 157.458 39.819 157.642 39.8716C157.826 39.9242 158.019 39.9367 158.207 39.9082H163.426C163.822 39.9061 164.209 39.7872 164.538 39.5665C164.867 39.3458 165.124 39.033 165.277 38.6672L177.521 11.5197C177.628 11.3298 177.691 11.1179 177.704 10.9001C177.717 10.6823 177.68 10.4645 177.595 10.2632C177.49 10.0964 177.339 9.96298 177.16 9.87866C176.982 9.79433 176.783 9.76252 176.587 9.78695V9.78385ZM216.519 9.78385H199.69C199.496 9.76692 199.3 9.78946 199.115 9.85012C198.929 9.91078 198.758 10.0083 198.611 10.1368C198.464 10.2654 198.345 10.4222 198.261 10.598C198.176 10.7738 198.128 10.9649 198.119 11.1598L193.324 38.4624C193.269 38.6389 193.255 38.8254 193.282 39.0082C193.309 39.1909 193.376 39.3654 193.479 39.5188C193.617 39.6595 193.785 39.7674 193.97 39.8345C194.155 39.9017 194.353 39.9263 194.549 39.9066H199.262C199.651 39.9226 200.03 39.7887 200.323 39.5326C200.615 39.2765 200.798 38.9178 200.834 38.5307L202.574 28.4877H212.935C213.32 28.5169 213.7 28.3934 213.994 28.144C214.289 27.8946 214.473 27.5393 214.507 27.1551L215.138 23.6135C215.185 23.4333 215.193 23.2448 215.159 23.0614C215.126 22.878 215.052 22.7043 214.944 22.5525C214.809 22.4166 214.646 22.3124 214.466 22.2472C214.286 22.182 214.094 22.1575 213.903 22.1755H203.699L204.769 16.2263H215.594C215.788 16.2437 215.984 16.2215 216.17 16.161C216.356 16.1005 216.527 16.003 216.674 15.8744C216.821 15.7458 216.94 15.5887 217.025 15.4127C217.109 15.2367 217.157 15.0454 217.165 14.8503L217.797 11.2203C217.838 11.0385 217.84 10.8498 217.801 10.6674C217.762 10.4849 217.684 10.3132 217.572 10.1639C217.434 10.0284 217.269 9.92449 217.087 9.8594C216.905 9.7943 216.711 9.76958 216.519 9.78695V9.78385ZM241.778 10.1717C241.64 10.0307 241.472 9.9226 241.286 9.85546C241.101 9.78832 240.903 9.76384 240.706 9.78385H221.019C220.827 9.76974 220.634 9.79461 220.452 9.85698C220.27 9.91935 220.102 10.0179 219.959 10.1468C219.816 10.2756 219.701 10.432 219.62 10.6067C219.539 10.7813 219.494 10.9705 219.488 11.1629L218.774 15.1218C218.725 15.3092 218.718 15.5051 218.753 15.6956C218.788 15.8862 218.864 16.0668 218.976 16.2248C219.11 16.3598 219.272 16.4636 219.45 16.5288C219.629 16.594 219.82 16.6189 220.009 16.6017H225.972L222.144 38.4609C222.089 38.6378 222.076 38.8248 222.104 39.0077C222.132 39.1906 222.201 39.3648 222.306 39.5173C222.444 39.6581 222.612 39.7662 222.797 39.8333C222.983 39.9004 223.181 39.925 223.377 39.9051H228.132C228.52 39.921 228.9 39.7871 229.192 39.531C229.485 39.2749 229.667 38.9162 229.703 38.5291L233.542 16.5986H239.656C240.056 16.6161 240.447 16.4783 240.748 16.2141C241.048 15.9498 241.235 15.5796 241.269 15.1808L241.941 11.2265C241.994 11.0501 242.006 10.8642 241.978 10.6823C241.95 10.5004 241.882 10.327 241.778 10.1748V10.1717ZM181.09 16.5599H184.123L181.368 26.9069C181.338 27.0184 181.334 27.1352 181.357 27.2485C181.379 27.3617 181.427 27.4682 181.497 27.5599C181.568 27.6515 181.658 27.7258 181.761 27.7769C181.865 27.828 181.979 27.8547 182.094 27.8547H183.49C183.685 27.8546 183.876 27.8043 184.045 27.7086C184.215 27.613 184.356 27.4752 184.457 27.3087L193.991 11.4965C194.093 11.3254 194.147 11.1306 194.149 10.9316C194.152 10.7327 194.101 10.5367 194.003 10.3635C193.905 10.1903 193.763 10.0461 193.592 9.94536C193.42 9.84467 193.225 9.79109 193.026 9.79006H189.553L194.964 1.76372C195.078 1.5942 195.145 1.39669 195.156 1.19231C195.167 0.987924 195.122 0.784351 195.027 0.603357C194.931 0.422364 194.788 0.270755 194.613 0.164739C194.438 0.0587233 194.238 0.00228647 194.033 0.00146484H185.279C184.949 0.00150491 184.628 0.110133 184.366 0.310586C184.104 0.51104 183.915 0.792179 183.828 1.11063L180.009 15.1404C179.964 15.307 179.958 15.4817 179.992 15.651C180.025 15.8203 180.096 15.9797 180.201 16.117C180.305 16.2544 180.44 16.366 180.594 16.4433C180.748 16.5206 180.918 16.5615 181.09 16.563V16.5599ZM184.933 32.3736H180.025C179.692 32.3739 179.368 32.4846 179.105 32.6884C178.842 32.8922 178.653 33.1776 178.57 33.4999L177.273 38.4888C177.229 38.6552 177.224 38.8295 177.258 38.9981C177.293 39.1667 177.365 39.3254 177.47 39.4618C177.574 39.5983 177.709 39.7091 177.863 39.7856C178.017 39.8622 178.187 39.9025 178.359 39.9035H183.256C183.589 39.9045 183.913 39.7949 184.177 39.5919C184.441 39.3889 184.63 39.104 184.714 38.782L186.023 33.7915C186.067 33.6246 186.072 33.45 186.038 33.281C186.003 33.112 185.931 32.9532 185.825 32.8166C185.72 32.68 185.585 32.5694 185.43 32.4931C185.275 32.4169 185.105 32.377 184.933 32.3767V32.3736Z" fill="#F02EA6"/>
</g>
<defs>
<clipPath id="clip0_1062_977">
<rect width="242" height="40.3333" fill="white"/>
</clipPath>
</defs>
</svg>
