<svg xmlns="http://www.w3.org/2000/svg" width="196" height="60" fill="none"><path fill="#000" d="M163.287 1.257c-25.464 0-32.711 17.517-32.711 29.373 0 11.856 7.247 29.37 32.711 29.37C188.75 60 196 42.483 196 30.63c0-11.853-7.25-29.373-32.713-29.373Zm0 54.568c-9.411 0-9.787-9.524-9.787-25.195 0-15.67.376-25.197 9.787-25.197 9.41 0 9.786 9.526 9.786 25.197 0 15.67-.376 25.195-9.786 25.195ZM127.74 44.6c-13.072 7.796-27.127 2.505-31.736-12.514 20.951-3.545 30.888-7.292 30.888-15.182 0-7.637-7.074-16.446-23.001-15.59-23.69 1.277-29.186 18.914-29.186 29.324C74.705 51.56 90.758 60 103.002 60c10.217 0 20.5-6.172 26.012-12.592L127.74 44.6ZM103.891 5.454c3.695 0 7.379 3.185 7.379 9.087 0 7.437-3.02 11.553-16.106 13.77-.818-5.998-1.773-22.857 8.727-22.857ZM29.749 0A74.178 74.178 0 0 1 0 13.91c1.452.544 10.11 3.354 10.11 11.085v21.996c0 5.59-2.564 6.679-7.175 7.48v3.075H38.86V54.46c-4.612-.802-7.173-1.89-7.173-7.481V24.985c0-8.319 1.592-14.06 8.488-14.06 6.698 0 7.56 5.872 7.56 14.06v32.55h28.653V54.46c-4.612-.802-7.176-1.89-7.176-7.481V19.3c0-9.926-4.49-18.043-18.323-18.043-6.932 0-15.439 2.938-21.138 9.082L29.75 0Z"/></svg>