<svg width="187" height="53" viewBox="0 0 187 53" fill="none" xmlns="http://www.w3.org/2000/svg">
<path fill-rule="evenodd" clip-rule="evenodd" d="M25.8619 0.538696C11.7475 0.538696 0.305664 12.0368 0.305664 26.2207C0.305664 40.4043 11.7475 51.9025 25.8619 51.9025C39.9763 51.9025 51.4182 40.4043 51.4182 26.2207C51.4182 12.0368 39.9763 0.538696 25.8619 0.538696Z" fill="#1D4371"/>
<path fill-rule="evenodd" clip-rule="evenodd" d="M44.6759 37.6003L42.9811 37.7505L37.8986 38.1642C37.323 38.175 36.7965 37.9559 36.4054 37.5911L34.5627 35.8071L32.7358 34.0862C32.5264 33.9075 32.2478 33.809 31.9476 33.8364C31.4221 33.8846 31.0179 34.3009 30.9836 34.83C30.9668 35.0888 31.041 35.3286 31.177 35.5212L31.1972 35.5564L34.4041 39.3978L35.5528 40.6578C36.2295 41.313 36.2496 42.3953 35.5977 43.0752C34.9457 43.7554 33.8687 43.7756 33.192 43.1203L31.888 42.0223L27.0232 37.8556L26.7896 37.6561C26.5997 37.4824 26.3458 37.3785 26.0687 37.3837C25.7916 37.3889 25.5419 37.5024 25.3584 37.683L25.1324 37.8911L20.4255 42.2368L19.163 43.3829C18.5111 44.0631 17.4339 44.0833 16.7574 43.428C16.0807 42.7728 16.0606 41.6905 16.7125 41.0106L17.8137 39.7083L20.8761 35.7497L20.8948 35.7139C21.0235 35.5162 21.089 35.2736 21.0626 35.0157C21.0086 34.4883 20.5893 34.0874 20.0624 34.059C19.7613 34.043 19.4865 34.1517 19.284 34.3379L17.5221 36.126L15.7469 37.9779C15.3697 38.3573 14.8514 38.5958 14.2759 38.6066L9.18167 38.3835L7.48246 38.2968C6.5431 38.3144 5.7673 37.5632 5.74981 36.6192C5.73232 35.6751 6.47966 34.8956 7.41919 34.8779L9.11412 34.7395L12.9062 34.2647C13.8963 34.0619 14.6328 33.1729 14.6133 32.1212L14.3944 20.311C14.2774 14.0096 19.266 8.80618 25.5367 8.68885C31.8072 8.57152 36.9853 13.5843 37.102 19.8859L37.3211 31.696C37.3405 32.7477 38.1094 33.6086 39.1064 33.774L42.9136 34.1069L44.6124 34.1815C45.552 34.1639 46.3278 34.9149 46.3453 35.8591C46.3627 36.8031 45.6154 37.5827 44.6759 37.6003Z" fill="white"/>
<path fill-rule="evenodd" clip-rule="evenodd" d="M33.5841 19.3596C32.2349 18.4263 30.8601 17.5262 29.4558 16.6796C28.7196 16.2357 27.8623 16.8353 27.8738 17.6995C27.8798 18.1609 28.1166 18.4616 28.4871 18.6987C29.2207 19.1683 29.9459 19.6511 30.7454 20.1749C29.8865 20.6914 29.0978 21.1409 28.3361 21.6323C27.7842 21.9882 27.6611 22.6183 27.9813 23.1552C28.2808 23.6574 28.9087 23.8721 29.4405 23.5674C30.8152 22.7797 32.1823 21.9763 33.522 21.1302C34.1766 20.7167 34.2148 19.7962 33.5841 19.3596Z" fill="#1D4371"/>
<path fill-rule="evenodd" clip-rule="evenodd" d="M22.9329 21.505C22.2324 21.0785 21.526 20.6616 20.7127 20.1752C21.5077 19.657 22.2101 19.2038 22.9075 18.7433C23.6264 18.2685 23.8121 17.6305 23.4123 17.0386C23.0291 16.472 22.3901 16.3984 21.6884 16.8521C20.5119 17.6127 19.3368 18.3758 18.1656 19.1449C17.1843 19.7895 17.2024 20.7048 18.2109 21.3115C19.3949 22.0237 20.5844 22.7269 21.7746 23.4289C22.4777 23.8437 23.1347 23.7348 23.4831 23.1574C23.8357 22.5728 23.6247 21.9257 22.9329 21.505Z" fill="#1D4371"/>
<path fill-rule="evenodd" clip-rule="evenodd" d="M68 17.0205C67.0458 17.0205 66.1632 17.0565 65.3526 17.1283V25.1814H67.3206C68.4174 25.1814 69.3824 25.1218 70.2182 25.0017C71.0528 24.8821 71.7499 24.6664 72.3109 24.3546C72.8709 24.0434 73.2943 23.6237 73.5807 23.0963C73.8668 22.5693 74.01 21.8981 74.01 21.0828C74.01 20.3164 73.8668 19.6691 73.5807 19.1417C73.2943 18.6147 72.8834 18.195 72.3464 17.8833C71.8101 17.5722 71.1718 17.3501 70.4324 17.2179C69.6927 17.0866 68.8821 17.0205 68 17.0205ZM67.6777 13.1019C71.2555 13.1019 73.9923 13.7611 75.8887 15.0789C77.7845 16.3975 78.7325 18.4107 78.7325 21.1188C78.7325 24.4983 77.0748 26.7875 73.7598 27.9856C74.2126 28.5371 74.7254 29.2079 75.2979 29.9989C75.8703 30.7899 76.4543 31.647 77.0507 32.5693C77.6472 33.4923 78.2197 34.439 78.768 35.4095C79.3164 36.3804 79.8057 37.333 80.235 38.2677H75.1909C74.7374 37.4048 74.2481 36.5365 73.7238 35.6612C73.1994 34.7867 72.6682 33.9356 72.1318 33.1087C71.5955 32.2817 71.0643 31.5031 70.5399 30.7719C70.0151 30.0411 69.5256 29.3876 69.0733 28.8123C68.739 28.8366 68.4528 28.8483 68.2147 28.8483H67.5347H65.3526V38.2677H60.8452V13.7128C61.9414 13.4735 63.1104 13.3119 64.3508 13.2275C65.5907 13.1439 66.7001 13.1019 67.6777 13.1019Z" fill="#1D4371"/>
<path fill-rule="evenodd" clip-rule="evenodd" d="M124.449 13.9645C124.449 14.7796 124.186 15.4267 123.662 15.9061C123.137 16.3857 122.517 16.6249 121.802 16.6249C121.062 16.6249 120.43 16.3857 119.906 15.9061C119.38 15.4267 119.118 14.7796 119.118 13.9645C119.118 13.1261 119.38 12.4671 119.906 11.9873C120.43 11.5081 121.062 11.2683 121.802 11.2683C122.517 11.2683 123.137 11.5081 123.662 11.9873C124.186 12.4671 124.449 13.1261 124.449 13.9645Z" fill="#1D4371"/>
<path fill-rule="evenodd" clip-rule="evenodd" d="M88.9981 35.2117C90.3342 35.2117 91.3473 35.1399 92.0389 34.996V30.1786C91.8007 30.1067 91.4544 30.0349 91.0016 29.9629C90.5481 29.891 90.0479 29.855 89.4996 29.855C89.0221 29.855 88.5389 29.891 88.0502 29.9629C87.5614 30.0349 87.1199 30.1669 86.7268 30.3584C86.3329 30.5505 86.017 30.8204 85.7788 31.1675C85.5395 31.515 85.4205 31.9527 85.4205 32.4797C85.4205 33.5105 85.7426 34.2233 86.3866 34.6187C87.0306 35.0143 87.9013 35.2117 88.9981 35.2117ZM88.641 18.9979C90.0719 18.9979 91.2752 19.1777 92.254 19.5371C93.2318 19.8967 94.0126 20.4 94.597 21.0469C95.1815 21.6941 95.5988 22.4797 95.8488 23.402C96.0996 24.3248 96.2249 25.3375 96.2249 26.4398V37.8363C95.557 37.9801 94.5489 38.1541 93.202 38.3576C91.8544 38.5607 90.3342 38.6632 88.641 38.6632C87.519 38.6632 86.4943 38.5554 85.5635 38.3397C84.6339 38.124 83.8404 37.7768 83.1845 37.2971C82.5285 36.8178 82.0156 36.1948 81.6464 35.4274C81.2761 34.6607 81.0918 33.7145 81.0918 32.5876C81.0918 31.509 81.3001 30.5983 81.7179 29.855C82.1347 29.1124 82.702 28.507 83.417 28.0396C84.1324 27.5721 84.9614 27.2369 85.9035 27.0329C86.8457 26.8296 87.8292 26.7276 88.8549 26.7276C89.3324 26.7276 89.8327 26.7577 90.3575 26.8172C90.8819 26.8773 91.4424 26.9791 92.0389 27.123V26.4038C92.0389 25.9006 91.9792 25.4214 91.8602 24.9657C91.7406 24.5109 91.5322 24.1091 91.2339 23.7616C90.9358 23.4142 90.5425 23.1446 90.0537 22.9525C89.5647 22.7607 88.9499 22.6648 88.2115 22.6648C87.2099 22.6648 86.2911 22.7368 85.4565 22.8806C84.6212 23.0243 83.9413 23.1923 83.417 23.3839L82.8812 19.8607C83.429 19.6691 84.2274 19.4777 85.2773 19.2854C86.3271 19.0938 87.4479 18.9979 88.641 18.9979Z" fill="#1D4371"/>
<path fill-rule="evenodd" clip-rule="evenodd" d="M112.563 28.9563C112.563 27.0151 112.127 25.5051 111.257 24.4265C110.386 23.3478 108.985 22.8086 107.053 22.8086C106.647 22.8086 106.224 22.8268 105.783 22.8628C105.341 22.8987 104.907 22.9765 104.478 23.0963V33.8459C104.859 34.1099 105.365 34.3552 105.998 34.5828C106.629 34.8107 107.304 34.9243 108.019 34.9243C109.593 34.9243 110.743 34.3852 111.471 33.3066C112.198 32.2279 112.563 30.7781 112.563 28.9563ZM116.999 28.8844C116.999 30.3225 116.813 31.6409 116.444 32.8392C116.074 34.038 115.544 35.0681 114.852 35.9308C114.16 36.7937 113.296 37.4651 112.258 37.9442C111.221 38.4234 110.046 38.6634 108.734 38.6634C107.852 38.6634 107.041 38.5555 106.302 38.3398C105.562 38.1241 104.954 37.8846 104.478 37.6207V44.9188H100.149V20.0765C101.031 19.8372 102.116 19.6091 103.404 19.3934C104.692 19.1777 106.052 19.0698 107.483 19.0698C108.961 19.0698 110.284 19.2978 111.453 19.753C112.622 20.2087 113.618 20.8618 114.441 21.7123C115.263 22.5634 115.895 23.5942 116.337 24.8039C116.778 26.0146 116.999 27.3746 116.999 28.8844Z" fill="#1D4371"/>
<path fill-rule="evenodd" clip-rule="evenodd" d="M119.62 38.2678H123.948V19.4652H119.62V38.2678Z" fill="#1D4371"/>
<path fill-rule="evenodd" clip-rule="evenodd" d="M161.188 30.9327C160.627 29.4021 160.072 27.9204 159.521 26.4864C158.97 25.0527 158.396 23.6761 157.801 22.3569C157.188 23.6761 156.606 25.0527 156.055 26.4864C155.503 27.9204 154.956 29.4021 154.413 30.9327H161.188ZM163.577 37.7139C163.28 36.9223 163 36.144 162.737 35.3787C162.474 34.6134 162.203 33.8351 161.923 33.0434H153.679L152.024 37.7139H149.372C150.072 35.7791 150.729 33.9893 151.341 32.3441C151.954 30.6994 152.553 29.1381 153.14 27.6607C153.726 26.183 154.308 24.7712 154.886 23.4256C155.464 22.0798 156.067 20.7473 156.698 19.4279H159.035C159.665 20.7473 160.269 22.0798 160.847 23.4256C161.424 24.7712 162.006 26.183 162.593 27.6607C163.179 29.1381 163.778 30.6994 164.392 32.3441C165.004 33.9893 165.66 35.7791 166.361 37.7139H163.577Z" fill="#1D4371"/>
<path fill-rule="evenodd" clip-rule="evenodd" d="M173.738 21.4861C172.653 21.4861 171.822 21.5123 171.244 21.5652V28.7425H173.161C174.036 28.7425 174.824 28.6855 175.524 28.5711C176.223 28.4569 176.815 28.2634 177.296 27.9905C177.777 27.7179 178.15 27.344 178.412 26.869C178.674 26.394 178.806 25.7872 178.806 25.0483C178.806 24.345 178.67 23.7643 178.399 23.3069C178.128 22.8495 177.76 22.4847 177.296 22.2116C176.832 21.9391 176.294 21.7501 175.681 21.6445C175.069 21.539 174.421 21.4861 173.738 21.4861ZM173.528 19.2432C176.083 19.2432 178.049 19.7313 179.423 20.7075C180.798 21.6837 181.484 23.1399 181.484 25.0744C181.484 26.1301 181.296 27.0318 180.92 27.7793C180.543 28.5272 180 29.134 179.292 29.6C178.583 30.0664 177.721 30.405 176.705 30.6159C175.69 30.8271 174.543 30.9327 173.266 30.9327H171.244V37.7139H168.697V19.6917C169.414 19.516 170.216 19.3974 171.099 19.3357C171.983 19.2742 172.793 19.2432 173.528 19.2432Z" fill="#1D4371"/>
<path fill-rule="evenodd" clip-rule="evenodd" d="M184.223 37.714H186.771V19.4278H184.223V37.714Z" fill="#1D4371"/>
<path fill-rule="evenodd" clip-rule="evenodd" d="M132.251 28.8124C132.251 30.7303 132.704 32.2339 133.611 33.3243C134.517 34.4155 135.769 34.9601 137.367 34.9601C138.058 34.9601 138.649 34.9304 139.138 34.8703C139.626 34.8107 140.026 34.7444 140.336 34.6729V23.8872C139.955 23.6238 139.448 23.3785 138.816 23.1503C138.184 22.9227 137.51 22.8085 136.794 22.8085C135.221 22.8085 134.069 23.3478 133.342 24.4265C132.615 25.5051 132.251 26.9673 132.251 28.8124ZM144.665 37.6925C143.806 37.9566 142.727 38.1959 141.427 38.4116C140.128 38.6273 138.762 38.7352 137.331 38.7352C135.852 38.7352 134.528 38.5072 133.361 38.052C132.192 37.597 131.196 36.9438 130.373 36.0927C129.551 35.2421 128.918 34.2115 128.477 33.001C128.035 31.7908 127.815 30.4304 127.815 28.9202C127.815 27.4347 127.999 26.0864 128.37 24.8757C128.739 23.666 129.282 22.6288 129.997 21.766C130.712 20.9031 131.583 20.2381 132.609 19.7707C133.634 19.3034 134.814 19.0698 136.151 19.0698C137.057 19.0698 137.855 19.1776 138.548 19.3933C139.239 19.6091 139.836 19.8491 140.336 20.1125V11.976H144.665V37.6925Z" fill="#1D4371"/>
</svg>
