<svg fill="none" xmlns="http://www.w3.org/2000/svg" viewBox="0 0 600 132"><path fill-rule="evenodd" clip-rule="evenodd" d="M120.313 8H83.854a2.938 2.938 0 0 0-2.937 2.938v8.192a10.9 10.9 0 0 0-4.355-.901c-1.278 0-2.505.219-3.645.622v-7.913C72.917 4.896 77.814 0 83.855 0h36.458c6.04 0 10.937 4.897 10.937 10.938v36.458c0 6.04-4.897 10.937-10.937 10.937h-7.915c.403-1.14.623-2.367.623-3.645 0-1.548-.322-3.02-.901-4.355h8.193a2.937 2.937 0 0 0 2.937-2.937V10.937A2.937 2.937 0 0 0 120.313 8ZM92.046 50.333h-8.192a2.938 2.938 0 0 1-2.937-2.937v-8.194c-1.334.58-2.807.901-4.355.901a10.92 10.92 0 0 1-3.645-.622v7.915c0 6.04 4.897 10.937 10.938 10.937h7.913a10.92 10.92 0 0 1-.623-3.645c0-1.548.322-3.02.901-4.355Z" fill="#FF0072"/><path fill-rule="evenodd" clip-rule="evenodd" d="M113.021 76.563c0 1.547-.322 3.019-.901 4.353h8.193a2.937 2.937 0 0 1 2.937 2.938v36.458a2.937 2.937 0 0 1-2.937 2.937H83.854a2.937 2.937 0 0 1-2.937-2.937v-8.192c-1.334.58-2.807.901-4.355.901a10.92 10.92 0 0 1-3.645-.622v7.913c0 6.04 4.897 10.937 10.938 10.937h36.458c6.04 0 10.937-4.897 10.937-10.937V83.853c0-6.04-4.897-10.937-10.937-10.937h-7.915c.403 1.14.623 2.368.623 3.647ZM72.917 91.769v-7.916c0-6.04 4.897-10.937 10.938-10.937h7.913a10.92 10.92 0 0 0-.623 3.647c0 1.547.322 3.019.901 4.353h-8.192a2.938 2.938 0 0 0-2.937 2.938v8.194a10.902 10.902 0 0 0-4.355-.901c-1.278 0-2.505.219-3.645.622ZM10.938 80.916h36.458a2.938 2.938 0 0 1 2.937 2.938v8.194a10.901 10.901 0 0 1 4.355-.901c1.278 0 2.505.219 3.645.622v-7.916c0-6.04-4.896-10.937-10.937-10.937H10.937C4.897 72.916 0 77.813 0 83.854v36.458c0 6.04 4.897 10.937 10.938 10.937h36.458c6.04 0 10.937-4.897 10.937-10.937v-7.913c-1.14.403-2.367.622-3.645.622-1.548 0-3.02-.321-4.355-.901v8.192a2.937 2.937 0 0 1-2.937 2.937H10.937A2.937 2.937 0 0 1 8 120.312V83.853a2.938 2.938 0 0 1 2.938-2.937Z" fill="#111"/><path opacity=".5" fill="#AFAEB5" d="M58.333 27.344h14.583v3.646H58.333zM100.262 71.094V56.51h3.646v14.583zM58.333 100.26h14.583v3.646H58.333z"/><circle cx="102.084" cy="76.562" r="7.292" fill="#111"/><circle cx="54.686" cy="102.084" r="7.292" fill="#111"/><circle cx="76.562" cy="102.084" r="7.292" fill="#111"/><circle cx="76.562" cy="29.167" r="7.292" fill="#FF0072"/><path fill-rule="evenodd" clip-rule="evenodd" d="M10.938 8h36.458a2.938 2.938 0 0 1 2.937 2.938v8.191a10.901 10.901 0 0 1 4.355-.9c1.278 0 2.505.219 3.645.622v-7.913C58.333 4.896 53.437 0 47.396 0H10.937C4.897 0 0 4.897 0 10.938v36.458c0 6.04 4.897 10.937 10.938 10.937h36.458c6.04 0 10.937-4.896 10.937-10.937V39.48c-1.14.403-2.367.622-3.645.622a10.9 10.9 0 0 1-4.355-.9v8.193a2.938 2.938 0 0 1-2.937 2.937H10.937A2.938 2.938 0 0 1 8 47.396V10.937A2.938 2.938 0 0 1 10.938 8Z" fill="#111"/><circle cx="54.686" cy="29.167" r="7.292" fill="#111"/><circle cx="102.084" cy="54.688" r="7.292" fill="#FF0072"/><path d="M208.85 83.55c0 4.023.142 7.14.425 9.35.283 2.153.708 3.853 1.275 5.1h-12.835c-1.133-2.833-1.7-7.14-1.7-12.92 0-2.89-.737-5.185-2.21-6.885-1.417-1.757-3.372-2.635-5.865-2.635h-11.815V98h-12.75V38.585h24.905c6.743 0 11.928 1.558 15.555 4.675 3.683 3.117 5.525 7.537 5.525 13.26 0 3.23-.935 6.148-2.805 8.755-1.87 2.55-4.307 4.335-7.31 5.355 2.72.567 4.987 2.04 6.8 4.42 1.87 2.38 2.805 5.213 2.805 8.5Zm-20.57-17.34c3.003 0 5.157-.793 6.46-2.38 1.303-1.643 1.955-3.712 1.955-6.205 0-2.55-.708-4.647-2.125-6.29-1.36-1.7-3.598-2.55-6.715-2.55h-11.73V66.21h12.155Zm49.55 32.895c-4.08 0-7.764-.907-11.05-2.72-3.23-1.87-5.78-4.448-7.65-7.735-1.814-3.343-2.72-7.14-2.72-11.39 0-4.25.906-8.018 2.72-11.305 1.87-3.287 4.42-5.837 7.65-7.65 3.286-1.87 6.97-2.805 11.05-2.805 3.91 0 7.423.878 10.54 2.635 3.116 1.7 5.553 4.108 7.31 7.225 1.756 3.117 2.635 6.658 2.635 10.625 0 1.247-.085 2.465-.255 3.655h-29.835c.283 2.947 1.331 5.298 3.145 7.055 1.87 1.757 4.136 2.635 6.8 2.635 1.926 0 3.626-.567 5.1-1.7 1.473-1.19 2.465-2.777 2.975-4.76h11.39c-1.077 5.1-3.344 9.095-6.8 11.985-3.457 2.833-7.792 4.25-13.005 4.25Zm8.585-27.2c-.114-1.983-.992-3.683-2.635-5.1-1.644-1.473-3.769-2.21-6.375-2.21-1.7 0-3.259.368-4.675 1.105-1.417.68-2.522 1.587-3.315 2.72-.794 1.133-1.162 2.295-1.105 3.485h18.105Zm31.138 27.2c-4.363 0-7.961-1.077-10.795-3.23-2.833-2.21-4.25-5.327-4.25-9.35 0-2.833.85-5.1 2.55-6.8 1.757-1.7 3.91-2.918 6.46-3.655 2.607-.793 5.809-1.473 9.605-2.04 2.437-.34 4.165-.623 5.185-.85 1.077-.283 1.87-.652 2.38-1.105.51-.51.765-1.218.765-2.125 0-1.53-.68-2.748-2.04-3.655-1.36-.963-3.173-1.445-5.44-1.445-3.116 0-5.411.538-6.885 1.615-1.473 1.02-2.38 2.663-2.72 4.93h-10.285c.567-5.667 2.635-9.718 6.205-12.155 3.57-2.493 7.99-3.74 13.26-3.74 12.58 0 18.87 6.347 18.87 19.04v13.005c0 1.077.227 1.842.68 2.295.454.397 1.162.595 2.125.595.454 0 1.417-.113 2.89-.34v7.82c-1.7.793-3.853 1.19-6.46 1.19-2.153 0-3.966-.51-5.44-1.53-1.416-1.077-2.295-2.635-2.635-4.675-3.456 4.137-8.131 6.205-14.025 6.205Zm1.7-8.84c1.53 0 3.089-.312 4.675-.935 1.644-.68 2.975-1.615 3.995-2.805 1.077-1.19 1.615-2.522 1.615-3.995v-3.145c-1.19.51-2.351.907-3.485 1.19-1.076.227-2.748.51-5.015.85-2.493.34-4.335.822-5.525 1.445-1.133.623-1.7 1.558-1.7 2.805 0 1.473.482 2.607 1.445 3.4 1.02.793 2.352 1.19 3.995 1.19Zm50.849 8.84c-4.25 0-7.962-.907-11.135-2.72-3.173-1.87-5.638-4.448-7.395-7.735-1.7-3.287-2.55-7.112-2.55-11.475 0-4.363.85-8.16 2.55-11.39 1.757-3.287 4.193-5.808 7.31-7.565 3.173-1.813 6.828-2.72 10.965-2.72 5.497 0 9.945 1.558 13.345 4.675 3.457 3.06 5.468 7.197 6.035 12.41h-10.965c-.34-2.437-1.275-4.335-2.805-5.695-1.473-1.36-3.372-2.04-5.695-2.04-2.947 0-5.185 1.105-6.715 3.315-1.473 2.21-2.21 5.213-2.21 9.01 0 3.91.765 6.998 2.295 9.265 1.587 2.21 3.938 3.315 7.055 3.315 2.38 0 4.307-.652 5.78-1.955 1.53-1.36 2.465-3.23 2.805-5.61h10.88c-.623 5.213-2.663 9.35-6.12 12.41-3.457 3.003-7.933 4.505-13.43 4.505Zm44.264 0c-4.59 0-8.273-1.332-11.05-3.995-2.776-2.663-4.165-6.262-4.165-10.795V65.53h-7.65v-8.925h3.995c1.927 0 3.202-.312 3.825-.935.624-.623.935-1.87.935-3.74v-7.055h10.37v11.73h12.41l-.425 8.925h-11.985v16.66c0 2.663.539 4.562 1.615 5.695 1.134 1.133 2.664 1.7 4.59 1.7 2.437 0 4.647-.397 6.63-1.19v8.585c-1.416.793-2.805 1.332-4.165 1.615-1.303.34-2.946.51-4.93.51Zm47.14-49.98V62.98h19.975v10.625h-19.975V98h-12.75V38.5h39.78v10.625h-27.03Zm32.893-13.175h11.475V98h-11.475V35.95Zm41.057 63.155c-4.194 0-7.962-.935-11.305-2.805-3.344-1.87-5.979-4.448-7.905-7.735-1.87-3.343-2.805-7.083-2.805-11.22 0-4.193.935-7.933 2.805-11.22 1.926-3.343 4.561-5.95 7.905-7.82 3.343-1.87 7.111-2.805 11.305-2.805 4.25 0 8.046.935 11.39 2.805 3.343 1.87 5.95 4.477 7.82 7.82 1.926 3.287 2.89 7.027 2.89 11.22 0 4.137-.964 7.877-2.89 11.22-1.87 3.287-4.505 5.865-7.905 7.735-3.344 1.87-7.112 2.805-11.305 2.805Zm0-9.35c2.946 0 5.298-1.133 7.055-3.4 1.813-2.267 2.72-5.27 2.72-9.01s-.907-6.743-2.72-9.01c-1.757-2.323-4.109-3.485-7.055-3.485-2.89 0-5.242 1.162-7.055 3.485-1.757 2.267-2.635 5.27-2.635 9.01s.878 6.743 2.635 9.01c1.813 2.267 4.165 3.4 7.055 3.4Zm95.857-33.15L576.098 98h-11.9l-8.925-24.99-9.35 24.99h-11.985l-14.79-41.395h12.665l8.925 27.88 10.285-27.88h10.285l9.01 28.985 9.86-28.985h11.135Z" fill="#111"/></svg>