<svg width="213" height="47" viewBox="0 0 213 47" fill="none" xmlns="http://www.w3.org/2000/svg">
<g clip-path="url(#clip0_1062_1138)">
<path d="M40.6083 15.2936H16.8056C16.3515 15.2936 15.9834 15.6644 15.9834 16.1218V18.9135C15.9834 19.371 16.3515 19.7418 16.8056 19.7418H40.6083C41.0624 19.7418 41.4305 19.371 41.4305 18.9135V16.1218C41.4305 15.6644 41.0624 15.2936 40.6083 15.2936Z" fill="#52BD94"/>
<path d="M24.8637 26.4083H1.06094C0.606868 26.4083 0.23877 26.7791 0.23877 27.2365V30.0282C0.23877 30.4856 0.606868 30.8565 1.06094 30.8565H24.8637C25.3177 30.8565 25.6858 30.4856 25.6858 30.0282V27.2365C25.6858 26.7791 25.3177 26.4083 24.8637 26.4083Z" fill="#52BD94"/>
<path fill-rule="evenodd" clip-rule="evenodd" d="M3.29154 18.3372C3.50036 18.3915 3.72198 18.3614 3.90897 18.2531C4.09595 18.1448 4.23343 17.9671 4.29195 17.758C5.60997 13.6019 8.42178 10.0918 12.1759 7.91616C15.93 5.74048 20.3556 5.05621 24.5846 5.99754C24.7893 6.04002 25.0023 6.00184 25.1799 5.89087C25.3574 5.77989 25.486 5.60456 25.5391 5.40097L26.2577 2.69904C26.2858 2.59057 26.2919 2.4775 26.2755 2.36662C26.2591 2.25574 26.2206 2.14935 26.1623 2.05385C26.104 1.95835 26.0272 1.87571 25.9364 1.81091C25.8456 1.7461 25.7427 1.70048 25.6339 1.67677C20.2897 0.464941 14.6884 1.32641 9.94662 4.08946C5.20481 6.85251 1.67074 11.3142 0.0488526 16.5852C0.0183163 16.6909 0.00901167 16.8017 0.021483 16.9111C0.0339543 17.0205 0.0679511 17.1262 0.121485 17.2222C0.175019 17.3182 0.247016 17.4025 0.333265 17.4701C0.419514 17.5378 0.518284 17.5874 0.623798 17.6161L3.29154 18.3372Z" fill="#52BD94"/>
<path fill-rule="evenodd" clip-rule="evenodd" d="M38.3834 27.8012C38.173 27.7442 37.9488 27.773 37.7593 27.8815C37.5699 27.9899 37.4306 28.1692 37.3715 28.3804C36.0563 32.5392 33.2457 36.0526 29.4912 38.2311C25.7368 40.4097 21.3097 41.096 17.0788 40.1554C16.8741 40.1121 16.6607 40.15 16.483 40.2611C16.3052 40.3722 16.1768 40.548 16.1244 40.7519L15.42 43.4394C15.3915 43.548 15.3851 43.6614 15.4013 43.7726C15.4175 43.8838 15.4559 43.9906 15.5142 44.0864C15.5725 44.1823 15.6495 44.2652 15.7406 44.3302C15.8316 44.3952 15.9348 44.4409 16.0439 44.4645C21.3883 45.6734 26.9886 44.8104 31.7298 42.0471C36.471 39.2839 40.0053 34.8232 41.6289 29.5533C41.6598 29.4477 41.6694 29.337 41.6571 29.2277C41.6448 29.1184 41.6108 29.0126 41.5572 28.9168C41.5036 28.8209 41.4314 28.7369 41.345 28.6696C41.2585 28.6023 41.1596 28.5532 41.054 28.5252L38.3834 27.8012Z" fill="#52BD94"/>
<path d="M33.4156 10.411C34.7525 10.411 35.8362 9.31927 35.8362 7.97258C35.8362 6.62589 34.7525 5.53418 33.4156 5.53418C32.0788 5.53418 30.9951 6.62589 30.9951 7.97258C30.9951 9.31927 32.0788 10.411 33.4156 10.411Z" fill="#52BD94"/>
<path d="M8.2589 40.6129C9.59572 40.6129 10.6794 39.5212 10.6794 38.1745C10.6794 36.8279 9.59572 35.7361 8.2589 35.7361C6.92208 35.7361 5.83838 36.8279 5.83838 38.1745C5.83838 39.5212 6.92208 40.6129 8.2589 40.6129Z" fill="#52BD94"/>
<path fill-rule="evenodd" clip-rule="evenodd" d="M100.71 18.6529C101.593 17.6765 102.671 16.9 103.874 16.3748C105.077 15.8496 106.376 15.5877 107.687 15.6063C110.234 15.6063 112.218 16.3998 113.471 17.9231V16.6605C113.479 16.4859 113.552 16.3207 113.674 16.1966C113.796 16.0725 113.959 15.9984 114.132 15.9886H117.49C117.663 15.9991 117.826 16.0734 117.948 16.1973C118.07 16.3213 118.142 16.4862 118.151 16.6605V35.4408C118.255 38.0908 117.442 40.695 115.851 42.8081C114.04 45.0264 111.292 46.15 107.681 46.15C102.662 46.15 98.7008 42.95 98.0482 38.3802C98.0324 38.2153 98.0743 38.0501 98.1667 37.9131C98.2591 37.7761 98.3962 37.676 98.5542 37.6301L101.834 36.854C101.851 36.8526 101.869 36.8526 101.886 36.854C101.972 36.8409 102.059 36.8449 102.143 36.866C102.227 36.887 102.306 36.9246 102.375 36.9766C102.445 37.0285 102.503 37.0938 102.548 37.1687C102.592 37.2436 102.621 37.3266 102.633 37.4129C102.78 38.6493 103.379 39.7862 104.314 40.6009C105.249 41.4156 106.452 41.8495 107.687 41.8177C111.608 41.8177 113.437 39.7905 113.437 35.5537V33.9088C112.717 34.721 111.829 35.3641 110.836 35.7924C109.842 36.2208 108.767 36.424 107.687 36.3877C102.107 36.3877 98.0597 32.0235 98.0597 26.0173C98.0101 23.317 98.9543 20.6937 100.71 18.6529ZM165.82 15.3486H165.995C171.995 15.4297 175.712 19.6375 175.712 26.3706C175.711 26.7276 175.692 27.0843 175.654 27.4392C175.635 27.5982 175.56 27.7448 175.441 27.8514C175.322 27.9581 175.169 28.0174 175.01 28.0184H160.749C160.792 29.4687 161.399 30.8438 162.44 31.8468C163.481 32.8497 164.871 33.4 166.312 33.3788C167.439 33.4498 168.558 33.1337 169.485 32.4821C170.411 31.8305 171.091 30.8818 171.414 29.7907C171.474 29.6312 171.592 29.5009 171.745 29.427C171.897 29.3532 172.072 29.3413 172.233 29.394L175.071 30.4076C175.153 30.4346 175.228 30.4787 175.292 30.5371C175.356 30.5955 175.407 30.6668 175.442 30.7464C175.48 30.8233 175.504 30.9073 175.509 30.9934C175.515 31.0794 175.504 31.1658 175.476 31.2474C174.833 33.1682 173.593 34.8298 171.941 35.9873C170.289 37.1449 168.312 37.737 166.3 37.6764C164.96 37.6896 163.63 37.4348 162.388 36.9268C161.146 36.4187 160.016 35.6676 159.064 34.7168C158.026 33.6162 157.215 32.3176 156.682 30.8973C156.148 29.477 155.902 27.9636 155.957 26.4459C155.957 19.4956 160.97 15.3341 165.814 15.3341L165.82 15.3486ZM85.1321 15.3486C91.238 15.3486 95.0326 19.5738 95.0326 26.3735C95.0321 26.7305 95.0129 27.0872 94.9752 27.4421C94.9581 27.6019 94.8828 27.7495 94.7638 27.8565C94.6448 27.9635 94.4907 28.0222 94.3312 28.0213H80.0697C80.1096 29.4798 80.7205 30.8631 81.7691 31.8695C82.8177 32.8759 84.2188 33.4237 85.6668 33.3933C86.7949 33.4654 87.9139 33.1497 88.8408 32.4979C89.7677 31.8461 90.4476 30.8968 90.7694 29.8052C90.8274 29.6443 90.9456 29.5126 91.0987 29.4385C91.2519 29.3643 91.4278 29.3535 91.5887 29.4085L94.4376 30.4192C94.5198 30.4458 94.5954 30.4898 94.6593 30.5482C94.7233 30.6067 94.7741 30.6782 94.8084 30.758C94.8411 30.8374 94.8579 30.9225 94.8579 31.0085C94.8579 31.0945 94.8411 31.1796 94.8084 31.259C94.1651 33.1788 92.9268 34.8397 91.2758 35.9972C89.6248 37.1546 87.6486 37.7473 85.638 37.688C84.2953 37.7026 82.963 37.4485 81.7184 36.9405C80.4739 36.4324 79.3419 35.6805 78.388 34.7284C77.351 33.6265 76.5422 32.3277 76.0087 30.9077C75.4752 29.4877 75.2276 27.9749 75.2804 26.4575C75.2804 19.5072 80.2939 15.3457 85.1407 15.3457L85.1321 15.3486ZM63.5314 15.3486C66.271 15.3486 68.4874 16.0176 70.1289 17.341C71.2373 18.2317 72.0595 19.4327 72.4919 20.793C72.5055 20.8508 72.5076 20.9108 72.498 20.9694C72.4884 21.0281 72.4674 21.0842 72.4361 21.1346C72.4048 21.185 72.3639 21.2286 72.3157 21.2629C72.2676 21.2972 72.2131 21.3216 72.1556 21.3345L68.7548 22.4669C68.6039 22.5248 68.4371 22.5248 68.2862 22.4669C68.222 22.437 68.165 22.3936 68.1188 22.3397C68.0727 22.2857 68.0386 22.2225 68.0188 22.1541C67.7314 21.0449 66.7425 19.1828 63.5256 19.1828C61.2805 19.1828 59.9351 20.4802 59.9351 21.7371C59.9351 22.5711 60.3634 23.6455 62.3872 24.0336L66.1244 24.7402C70.3014 25.5887 72.6931 27.891 72.6931 31.0968V31.0418C72.6931 34.2274 69.6517 37.6301 64 37.6301C57.4456 37.6301 54.8698 33.8943 54.3955 31.6905C54.3798 31.5754 54.4065 31.4585 54.4706 31.3619C54.5347 31.2653 54.6318 31.1957 54.7433 31.1663L58.2505 30.0659C58.3132 30.0543 58.3775 30.0543 58.4402 30.0659C58.5404 30.064 58.6393 30.088 58.7277 30.1354C58.7913 30.1662 58.8475 30.2107 58.8922 30.2657C58.9369 30.3208 58.969 30.385 58.9864 30.4539C59.4292 32.5738 61.3293 33.8364 64.0632 33.8364C66.6073 33.8364 67.7659 32.4956 67.7659 31.2793C67.7659 30.063 66.7338 29.1681 64.9601 28.809L61.0275 28.0387C57.3593 27.3408 55.0739 25.0443 55.0739 22.0556C55.0739 18.4183 58.9519 15.3486 63.5314 15.3486ZM208.001 9.45532C208.179 9.46639 208.347 9.5457 208.469 9.67704C208.591 9.80837 208.659 9.98182 208.659 10.1619V15.9539H212.347C212.525 15.967 212.69 16.0471 212.811 16.1782C212.932 16.3092 213 16.4815 213 16.6605V19.7476C213.001 19.9232 212.933 20.0921 212.81 20.2174C212.688 20.3427 212.522 20.4142 212.347 20.4165H208.659V30.7232C208.659 32.4319 209.332 33.1385 211.062 33.1385C211.457 33.1318 211.851 33.0989 212.241 33.04C212.335 33.0238 212.432 33.0286 212.525 33.0541C212.617 33.0796 212.703 33.1252 212.776 33.1877C212.845 33.2529 212.901 33.3317 212.94 33.4193C212.978 33.507 212.999 33.6016 213 33.6974V36.5934C213.001 36.7375 212.956 36.878 212.871 36.994C212.786 37.1099 212.666 37.1949 212.528 37.2363C211.687 37.474 210.815 37.5881 209.941 37.5751C206.244 37.5751 203.953 35.1801 203.953 31.3169V20.46H200.762C200.59 20.4494 200.427 20.375 200.305 20.251C200.184 20.127 200.112 19.9622 200.104 19.7881V16.6952C200.103 16.5149 200.171 16.3411 200.293 16.2096C200.416 16.0781 200.584 15.999 200.762 15.9886H201.59C202.593 15.9886 204.284 15.6353 204.284 13.2259V10.1619C204.283 9.98162 204.35 9.80778 204.473 9.67629C204.595 9.54481 204.763 9.46571 204.942 9.45532H208.001ZM138.777 18.8006C139.498 17.6905 140.494 16.7885 141.666 16.1832C142.837 15.578 144.145 15.2904 145.461 15.3486C149.106 15.3486 152.789 17.9347 152.789 23.5847V36.6629C152.78 36.8372 152.708 37.0021 152.586 37.126C152.464 37.25 152.301 37.3243 152.128 37.3347H148.767C148.595 37.3236 148.432 37.249 148.311 37.1251C148.189 37.0012 148.118 36.8367 148.109 36.6629V24.0046C148.109 22.4032 147.611 19.7041 144.245 19.7041C141.784 19.7041 140.036 21.6531 140.036 24.4796V36.6629C140.028 36.8369 139.957 37.0018 139.835 37.1258C139.714 37.2498 139.551 37.3242 139.378 37.3347H135.975C135.802 37.3243 135.639 37.25 135.517 37.126C135.395 37.0021 135.322 36.8372 135.313 36.6629V24.0046C135.319 22.4032 134.825 19.6925 131.455 19.6925C128.897 19.6925 127.172 21.627 127.172 24.5085V36.6629C127.163 36.8367 127.091 37.0012 126.97 37.1251C126.849 37.249 126.686 37.3236 126.514 37.3347H123.156C122.984 37.3228 122.823 37.2478 122.703 37.1239C122.583 37.0001 122.512 36.836 122.504 36.6629V16.617C122.512 16.4441 122.583 16.2804 122.704 16.1566C122.824 16.0329 122.985 15.9577 123.156 15.9452H126.387C126.56 15.9563 126.722 16.0309 126.843 16.1548C126.965 16.2787 127.037 16.4432 127.046 16.617V17.8246C127.765 17.0314 128.644 16.4007 129.623 15.974C130.602 15.5472 131.659 15.3341 132.726 15.3486C133.951 15.3125 135.163 15.6151 136.23 16.2236C137.297 16.8322 138.178 17.7234 138.777 18.8006ZM189.979 15.3486C191.054 15.3023 192.125 15.5027 193.112 15.9347C194.098 16.3666 194.974 17.0188 195.674 17.842C196.979 19.5728 197.643 21.7085 197.551 23.8801V36.6629C197.544 36.8357 197.473 36.9998 197.354 37.1237C197.234 37.2477 197.073 37.3228 196.901 37.3347H193.501C193.328 37.3236 193.165 37.2491 193.043 37.1253C192.922 37.0015 192.849 36.8369 192.839 36.6629V24.5635C192.839 21.3983 191.362 19.7881 188.556 19.7881C187.945 19.7683 187.339 19.8935 186.785 20.1535C186.231 20.4136 185.746 20.8013 185.368 21.2853C184.608 22.3875 184.223 23.7087 184.273 25.0501V36.6629C184.264 36.8367 184.192 37.0012 184.071 37.1251C183.949 37.249 183.787 37.3236 183.614 37.3347H180.219C180.047 37.3236 179.885 37.249 179.763 37.1251C179.642 37.0012 179.57 36.8367 179.561 36.6629V16.6025C179.568 16.4278 179.639 16.2618 179.761 16.1371C179.883 16.0123 180.046 15.9377 180.219 15.9278H183.537C183.708 15.939 183.87 16.0134 183.99 16.1368C184.11 16.2602 184.181 16.4239 184.189 16.5968V18.01C184.893 17.1551 185.779 16.4716 186.781 16.0107C187.784 15.5498 188.877 15.3235 189.979 15.3486ZM108.271 19.8315C104.959 19.8315 102.858 22.2033 102.858 26.0173C102.858 29.8313 104.933 32.2002 108.271 32.2002C111.453 32.2002 113.598 29.7126 113.598 26.0173C113.598 22.3221 111.453 19.8315 108.271 19.8315ZM85.1666 19.6404C83.9447 19.6192 82.7588 20.058 81.8411 20.8711C80.9234 21.6841 80.3399 22.8129 80.2048 24.0365H90.1801C89.9415 21.323 88.0269 19.6404 85.1666 19.6404ZM165.875 19.6404C164.654 19.6213 163.47 20.061 162.553 20.8738C161.637 21.6866 161.054 22.8142 160.919 24.0365H170.897C170.649 21.323 168.746 19.6404 165.872 19.6404H165.875Z" fill="#52BD94"/>
<path d="M60.0216 1.79262V8.52862H58.1272V1.79262H55.5083V0.159302H62.6692V1.79262H60.0216Z" fill="#52BD94"/>
<path d="M74.4927 8.55758H72.5235L70.7182 2.38919L68.8813 8.55758H66.9523L64.5088 0.159302H66.5211L68.0706 6.20896L69.8184 0.159302H71.8307L73.5556 6.20896L75.0562 0.159302H76.9075L74.4927 8.55758Z" fill="#52BD94"/>
<path d="M79.5151 8.52862V0.159302H81.3808V8.52862H79.5151Z" fill="#52BD94"/>
<path d="M84.7383 8.52862V0.159302H86.6327V6.88082H89.8754V8.52862H84.7383Z" fill="#52BD94"/>
<path d="M92.6982 8.52862V0.159302H94.5783V8.52862H92.6982Z" fill="#52BD94"/>
<path d="M101.613 8.68786C99.313 8.68786 97.4731 7.02558 97.4731 4.3584C97.4731 1.69123 99.3388 0.0144653 101.627 0.0144653C103.915 0.0144653 105.764 1.67675 105.764 4.3584C105.764 7.04006 103.913 8.68786 101.613 8.68786ZM101.613 1.54643C100.175 1.54643 99.3388 2.73956 99.3388 4.34392C99.3388 5.94829 100.201 7.1559 101.613 7.1559C103.024 7.1559 103.855 5.93381 103.855 4.3584C103.855 2.783 103.016 1.54643 101.627 1.54643H101.613Z" fill="#52BD94"/>
</g>
<defs>
<clipPath id="clip0_1062_1138">
<rect width="213" height="46.15" fill="white"/>
</clipPath>
</defs>
</svg>
