<svg width="235" height="42" viewBox="0 0 235 42" fill="none" xmlns="http://www.w3.org/2000/svg">
<g clip-path="url(#clip0_1062_979)">
<path d="M158.195 3.4617C158.195 5.37354 156.656 6.9234 154.756 6.9234C152.857 6.9234 151.317 5.37354 151.317 3.4617C151.317 1.54986 152.857 0 154.756 0C156.656 0 158.195 1.54986 158.195 3.4617Z" fill="#18181B"/>
<path d="M26.9385 2.01931C26.9385 1.85999 27.0668 1.73083 27.2251 1.73083H32.3836C32.5418 1.73083 32.6702 1.85999 32.6702 2.01931V13.0592C32.6702 13.2883 32.9235 13.4272 33.1192 13.3103C35.0017 12.1851 37.2 11.539 39.5482 11.539C46.5124 11.539 52.158 17.2218 52.158 24.2319V40.675C52.158 40.8343 52.0296 40.9634 51.8714 40.9634H46.7129C46.5546 40.9634 46.4263 40.8343 46.4263 40.675V24.2319C46.4263 20.4082 43.3469 17.3085 39.5482 17.3085C35.7496 17.3085 32.6702 20.4082 32.6702 24.2319V40.675C32.6702 40.8343 32.5418 40.9634 32.3836 40.9634H27.2251C27.0668 40.9634 26.9385 40.8343 26.9385 40.675V2.01931Z" fill="#18181B"/>
<path fill-rule="evenodd" clip-rule="evenodd" d="M70.5001 41.5403C78.7305 41.5403 85.4025 34.8243 85.4025 26.5396C85.4025 18.255 78.7305 11.5389 70.5001 11.5389C62.2697 11.5389 55.5977 18.255 55.5977 26.5396C55.5977 34.8243 62.2697 41.5403 70.5001 41.5403ZM70.5001 35.7708C75.565 35.7708 79.6708 31.6379 79.6708 26.5396C79.6708 21.4414 75.565 17.3084 70.5001 17.3084C65.4353 17.3084 61.3294 21.4414 61.3294 26.5396C61.3294 31.6379 65.4353 35.7708 70.5001 35.7708Z" fill="#18181B"/>
<path d="M161.061 12.4044C161.061 12.245 161.189 12.1159 161.347 12.1159H165.359C165.518 12.1159 165.646 12.245 165.646 12.4044V13.2684C165.646 13.5062 165.918 13.6439 166.114 13.5107C167.943 12.2659 170.149 11.5389 172.524 11.5389C175.831 11.5389 178.81 12.9486 180.904 15.2034C181.021 15.3302 181.222 15.3302 181.339 15.2034C183.433 12.9486 186.412 11.5389 189.719 11.5389C196.05 11.5389 201.183 16.7051 201.183 23.078V40.6749C201.183 40.8343 201.054 40.9634 200.896 40.9634H195.692C195.533 40.9634 195.405 40.8343 195.405 40.6749V23.078C195.405 19.8916 192.838 17.3085 189.673 17.3085C186.717 17.3085 184.284 19.5607 183.975 22.4535C183.972 22.4682 183.972 22.4832 183.974 22.4981C183.983 22.6902 183.987 22.8835 183.987 23.078V40.9169C183.987 40.9426 183.967 40.9634 183.942 40.9634H178.542C178.384 40.9634 178.256 40.8343 178.256 40.6749V23.078C178.256 19.8916 175.689 17.3085 172.524 17.3085C169.359 17.3085 166.792 19.8916 166.792 23.078V40.6749C166.792 40.8343 166.664 40.9634 166.506 40.9634H161.347C161.189 40.9634 161.061 40.8343 161.061 40.6749V12.4044Z" fill="#18181B"/>
<path d="M138.134 2.01931C138.134 1.85999 138.006 1.73083 137.847 1.73083H132.689C132.531 1.73083 132.402 1.85999 132.402 2.01931V29.4244C132.402 35.7972 137.535 40.9634 143.866 40.9634H148.165C148.323 40.9634 148.451 40.8343 148.451 40.675V35.4824C148.451 35.3231 148.323 35.1939 148.165 35.1939H143.866C140.701 35.1939 138.134 32.6108 138.134 29.4244V17.02C138.134 16.8607 138.262 16.7315 138.421 16.7315H148.165C148.323 16.7315 148.451 16.6024 148.451 16.4431V12.4044C148.451 12.2451 148.323 12.1159 148.165 12.1159H138.421C138.262 12.1159 138.134 11.9868 138.134 11.8275V2.01931Z" fill="#18181B"/>
<path d="M8.0157 12.116C3.58875 12.116 0 15.7284 0 20.1845C0 23.8869 2.50328 27.1142 6.07161 28.0122L16.6113 30.6644C17.6281 30.9204 18.3413 31.8399 18.3413 32.8949C18.3413 34.1647 17.3188 35.194 16.0574 35.194H0.859677C0.7014 35.194 0.573092 35.3231 0.573092 35.4824V40.675C0.573092 40.8343 0.7014 40.9635 0.859677 40.9635H16.0574C20.4843 40.9635 24.0731 37.3511 24.0731 32.8949C24.0731 29.1925 21.5698 25.9652 18.0015 25.0672L7.46175 22.415C6.445 22.1591 5.73171 21.2395 5.73171 20.1845C5.73171 18.9147 6.75429 17.8855 8.0157 17.8855H23.2133C23.3716 17.8855 23.4999 17.7563 23.4999 17.597V12.4044C23.4999 12.2451 23.3716 12.116 23.2133 12.116H8.0157Z" fill="#18181B"/>
<path d="M88.8418 12.4044C88.8418 12.2451 88.9701 12.116 89.1284 12.116H94.2869C94.4451 12.116 94.5735 12.2451 94.5735 12.4044V30.0014C94.5735 33.1878 97.1396 35.7709 100.305 35.7709C103.471 35.7709 106.037 33.1878 106.037 30.0014V12.4044C106.037 12.2451 106.165 12.116 106.324 12.116H111.482C111.64 12.116 111.769 12.2451 111.769 12.4044V30.0014C111.769 33.1878 114.335 35.7709 117.5 35.7709C120.665 35.7709 123.232 33.1878 123.232 30.0014V12.4044C123.232 12.2451 123.361 12.116 123.519 12.116H128.677C128.835 12.116 128.964 12.2451 128.964 12.4044V30.0014C128.964 36.3742 123.832 41.5404 117.5 41.5404C114.193 41.5404 111.213 40.1308 109.121 37.876C109.003 37.7492 108.802 37.7492 108.685 37.876C106.592 40.1308 103.612 41.5404 100.305 41.5404C93.9741 41.5404 88.8418 36.3742 88.8418 30.0014V12.4044Z" fill="#18181B"/>
<path fill-rule="evenodd" clip-rule="evenodd" d="M204.622 26.5396C204.622 34.8243 211.294 41.5403 219.525 41.5403H220.671C225.841 41.5403 230.396 38.8903 233.069 34.8661C233.164 34.7237 233.11 34.5312 232.958 34.4546L228.286 32.1033C228.161 32.0404 228.01 32.0777 227.925 32.1888C226.247 34.368 223.622 35.7708 220.671 35.7708H219.525C215.38 35.7708 211.878 33.0043 210.742 29.2058C210.689 29.0254 210.825 28.8474 211.013 28.8474H234.14C234.299 28.8474 234.427 28.7183 234.427 28.559V26.5396C234.427 18.255 227.755 11.5389 219.525 11.5389C211.294 11.5389 204.622 18.255 204.622 26.5396ZM228.037 24.2318C228.224 24.2318 228.361 24.0539 228.307 23.8734C227.171 20.075 223.669 17.3084 219.525 17.3084C215.38 17.3084 211.878 20.075 210.742 23.8734C210.689 24.0539 210.825 24.2318 211.013 24.2318H228.037Z" fill="#18181B"/>
<path d="M157.336 12.116C157.494 12.116 157.622 12.2451 157.622 12.4044V40.675C157.622 40.8343 157.494 40.9635 157.336 40.9635H152.177C152.019 40.9635 151.891 40.8343 151.891 40.675V12.4044C151.891 12.2451 152.019 12.116 152.177 12.116H157.336Z" fill="#18181B"/>
</g>
<defs>
<clipPath id="clip0_1062_979">
<rect width="235" height="41.5404" fill="white"/>
</clipPath>
</defs>
</svg>
