<?xml version="1.0" encoding="UTF-8"?>
<!DOCTYPE svg PUBLIC "-//W3C//DTD SVG 1.1//EN" "http://www.w3.org/Graphics/SVG/1.1/DTD/svg11.dtd">
<svg xmlns="http://www.w3.org/2000/svg" version="1.1" width="1151px" height="1085px" style="shape-rendering:geometricPrecision; text-rendering:geometricPrecision; image-rendering:optimizeQuality; fill-rule:evenodd; clip-rule:evenodd" xmlns:xlink="http://www.w3.org/1999/xlink">
<g><path style="opacity:1" fill="#1f1f1f" d="M 545.5,235.5 C 556.345,235.169 566.845,236.835 577,240.5C 577.5,249.827 577.666,259.161 577.5,268.5C 573.687,266.234 569.687,264.068 565.5,262C 558.976,258.178 553.143,259.011 548,264.5C 547.163,268.295 547.496,271.961 549,275.5C 555.352,281.353 561.852,287.02 568.5,292.5C 582.791,306.916 585.291,323.249 576,341.5C 564.914,355.541 550.414,361.041 532.5,358C 525.623,357.385 519.123,355.552 513,352.5C 512.82,342.59 512.32,332.756 511.5,323C 512.5,322.333 513.5,322.333 514.5,323C 522.453,332.173 532.119,335.173 543.5,332C 548.244,326.622 548.744,320.789 545,314.5C 540.072,309.561 534.905,305.061 529.5,301C 506.86,280.848 506.86,260.848 529.5,241C 534.671,238.444 540.004,236.61 545.5,235.5 Z"/></g>
<g><path style="opacity:1" fill="#9a9a9a" d="M 636.5,238.5 C 623.124,237.852 610.124,238.519 597.5,240.5C 596.596,239.791 596.263,238.791 596.5,237.5C 610.01,237.171 623.344,237.504 636.5,238.5 Z"/></g>
<g><path style="opacity:1" fill="#9b9b9b" d="M 724.5,238.5 C 711.124,237.852 698.124,238.519 685.5,240.5C 684.596,239.791 684.263,238.791 684.5,237.5C 698.01,237.171 711.344,237.504 724.5,238.5 Z"/></g>
<g><path style="opacity:1" fill="#1f1f1f" d="M 636.5,238.5 C 635.029,243.053 633.862,247.719 633,252.5C 632.167,279.839 632.333,307.173 633.5,334.5C 647.238,333.224 660.238,329.557 672.5,323.5C 673.583,324.365 673.749,325.365 673,326.5C 668.833,336.167 664.667,345.833 660.5,355.5C 639.177,356.5 617.844,356.833 596.5,356.5C 597.98,350.937 599.146,345.27 600,339.5C 600.667,311.167 600.667,282.833 600,254.5C 599.228,249.809 598.395,245.142 597.5,240.5C 610.124,238.519 623.124,237.852 636.5,238.5 Z"/></g>
<g><path style="opacity:1" fill="#1e1e1e" d="M 724.5,238.5 C 722.866,243.371 721.699,248.371 721,253.5C 720.333,282.167 720.333,310.833 721,339.5C 721.696,345.281 722.863,350.948 724.5,356.5C 711.167,356.5 697.833,356.5 684.5,356.5C 685.819,351.555 686.986,346.555 688,341.5C 688.667,311.833 688.667,282.167 688,252.5C 687.478,248.416 686.645,244.416 685.5,240.5C 698.124,238.519 711.124,237.852 724.5,238.5 Z"/></g>
<g><path style="opacity:1" fill="#1f1f1f" d="M 744.5,237.5 C 757.5,237.5 770.5,237.5 783.5,237.5C 782.987,241.879 782.153,246.213 781,250.5C 780.333,281.5 780.333,312.5 781,343.5C 781.568,347.537 782.735,351.37 784.5,355C 777.829,356.151 770.996,356.651 764,356.5C 757.004,356.651 750.171,356.151 743.5,355C 745.044,352.001 746.211,348.834 747,345.5C 748.557,317.187 748.89,288.854 748,260.5C 747.669,252.685 746.503,245.019 744.5,237.5 Z"/></g>
<g><path style="opacity:1" fill="#202020" d="M 800.5,237.5 C 831.167,237.5 861.833,237.5 892.5,237.5C 890.471,246.614 887.971,255.614 885,264.5C 876.427,261.619 867.594,259.952 858.5,259.5C 858.333,286.169 858.5,312.835 859,339.5C 859.7,344.929 861.2,350.095 863.5,355C 856.662,356.151 849.662,356.651 842.5,356.5C 835.338,356.651 828.338,356.151 821.5,355C 824.001,350.517 825.501,345.684 826,340.5C 826.5,313.502 826.667,286.502 826.5,259.5C 814.603,259.636 802.936,261.303 791.5,264.5C 793.901,255.296 796.901,246.296 800.5,237.5 Z"/></g>
<g><path style="opacity:0.755" fill="#fedf00" d="M 385.5,287.5 C 388.206,287.575 390.873,287.908 393.5,288.5C 394.833,291.833 394.833,295.167 393.5,298.5C 389.833,299.833 386.167,299.833 382.5,298.5C 381.167,295.167 381.167,291.833 382.5,288.5C 383.791,288.737 384.791,288.404 385.5,287.5 Z"/></g>
<g><path style="opacity:0.771" fill="#fea400" d="M 399.5,293.5 C 401.861,293.674 404.194,294.007 406.5,294.5C 407.833,297.833 407.833,301.167 406.5,304.5C 403.167,305.833 399.833,305.833 396.5,304.5C 395.167,301.167 395.167,297.833 396.5,294.5C 397.791,294.737 398.791,294.404 399.5,293.5 Z"/></g>
<g><path style="opacity:0.709" fill="#0bfead" d="M 418.5,309.5 C 421.206,309.575 423.873,309.908 426.5,310.5C 429.277,320.18 425.944,323.68 416.5,321C 414.182,317.718 413.849,314.218 415.5,310.5C 416.791,310.737 417.791,310.404 418.5,309.5 Z"/></g>
<g><path style="opacity:0.659" fill="#fe0000" d="M 388.5,310.5 C 395.349,309.846 398.182,312.846 397,319.5C 395.528,321.442 393.528,322.442 391,322.5C 389.175,322.057 387.342,321.723 385.5,321.5C 384.167,318.167 384.167,314.833 385.5,311.5C 386.791,311.737 387.791,311.404 388.5,310.5 Z"/></g>
<g><path style="opacity:0.874" fill="#4200a6" d="M 403.5,326.5 C 412.264,325.263 416.431,328.93 416,337.5C 413.819,343.507 409.653,345.674 403.5,344C 398.845,341.103 397.345,336.937 399,331.5C 400.025,329.313 401.525,327.646 403.5,326.5 Z"/></g>
<g><path style="opacity:0.889" fill="#fece00" d="M 427.5,349.5 C 437.482,348.982 441.649,353.648 440,363.5C 434,371.5 428,371.5 422,363.5C 420.268,357.314 422.101,352.647 427.5,349.5 Z"/></g>
<g><path style="opacity:0.922" fill="#019fa5" d="M 398.5,359.5 C 412.055,358.984 416.555,364.984 412,377.5C 404.575,383.53 398.241,382.53 393,374.5C 391.087,367.97 392.92,362.97 398.5,359.5 Z"/></g>
<g><path style="opacity:0.955" fill="#fe3f35" d="M 460.5,375.5 C 469.854,375.681 474.02,380.348 473,389.5C 466.333,398.833 459.667,398.833 453,389.5C 452.11,382.943 454.61,378.276 460.5,375.5 Z"/></g>
<g><path style="opacity:0.951" fill="#69c800" d="M 428.5,387.5 C 445.688,388.158 451.521,396.491 446,412.5C 439.705,419.914 432.205,421.414 423.5,417C 416.06,410.735 414.56,403.235 419,394.5C 421.529,391.115 424.696,388.782 428.5,387.5 Z"/></g>
<g><path style="opacity:0.004" fill="#0000ff" d="M 258.5,388.5 C 259.833,389.167 259.833,389.167 258.5,388.5 Z"/></g>
<g><path style="opacity:0.993" fill="#3b3b3b" d="M 714.5,496.5 C 713.778,496.918 713.278,497.584 713,498.5C 696.823,495.429 684.823,486.763 677,472.5C 666.831,453.643 663.497,433.643 667,412.5C 669.078,407.925 670.911,403.258 672.5,398.5C 671.5,398.5 670.5,398.5 669.5,398.5C 674.708,395.607 680.374,393.774 686.5,393C 737.832,392.993 789.165,393.327 840.5,394C 841.701,394.903 842.535,396.069 843,397.5C 843.667,412.167 843.667,426.833 843,441.5C 842.797,445.421 842.297,449.255 841.5,453C 840.127,453.875 838.627,454.375 837,454.5C 804.677,453.803 772.344,453.136 740,452.5C 731.461,452.977 722.961,453.811 714.5,455C 706.086,459.803 701.419,467.136 700.5,477C 701.913,486.048 706.58,492.548 714.5,496.5 Z"/></g>
<g><path style="opacity:0.995" fill="#3b3b3b" d="M 974.5,496.5 C 973.778,496.918 973.278,497.584 973,498.5C 956.823,495.429 944.823,486.763 937,472.5C 926.831,453.643 923.497,433.643 927,412.5C 929.078,407.925 930.911,403.258 932.5,398.5C 931.5,398.5 930.5,398.5 929.5,398.5C 934.708,395.607 940.374,393.774 946.5,393C 955.167,392.833 963.833,392.667 972.5,392.5C 1013.69,393.664 1054.86,393.664 1096,392.5C 1099.4,392.735 1101.73,394.402 1103,397.5C 1103.67,412.167 1103.67,426.833 1103,441.5C 1102.76,445.222 1102.26,448.889 1101.5,452.5C 1067.66,453.788 1033.83,453.788 1000,452.5C 991.461,452.977 982.961,453.811 974.5,455C 966.086,459.803 961.419,467.136 960.5,477C 961.913,486.048 966.58,492.548 974.5,496.5 Z"/></g>
<g><path style="opacity:0.997" fill="#3b3b3b" d="M 105.5,472.5 C 109.238,457.15 117.238,443.983 129.5,433C 154.527,415.663 182.194,404.663 212.5,400C 225.645,398.391 238.645,396.891 251.5,395.5C 254.368,395.085 256.535,396.085 258,398.5C 258.333,395.833 258.667,393.167 259,390.5C 258.653,407.693 258.82,424.86 259.5,442C 258.886,448.823 258.219,455.656 257.5,462.5C 210.208,463.328 162.874,463.828 115.5,464C 111.043,465.698 107.71,468.531 105.5,472.5 Z"/></g>
<g><path style="opacity:0.996" fill="#1d1d1d" d="M 251.5,395.5 C 238.645,396.891 225.645,398.391 212.5,400C 182.194,404.663 154.527,415.663 129.5,433C 117.238,443.983 109.238,457.15 105.5,472.5C 104.91,473.766 104.41,475.099 104,476.5C 103.633,493.503 103.8,510.503 104.5,527.5C 103.177,547.804 103.177,568.137 104.5,588.5C 105.254,620.52 105.754,652.52 106,684.5C 104.167,686.333 102.333,688.167 100.5,690C 81.6512,690.211 62.8179,690.711 44,691.5C 39.4874,690.906 36.154,688.573 34,684.5C 32.755,607.169 32.0884,529.835 32,452.5C 41.203,420.301 62.3697,401.467 95.5,396C 147.499,395.5 199.499,395.333 251.5,395.5 Z"/></g>
<g><path style="opacity:0.996" fill="#3b3b3b" d="M 396.5,489.5 C 391.59,492.573 387.424,496.573 384,501.5C 365.165,533.817 369.332,562.817 396.5,588.5C 420.37,607.033 446.37,610.533 474.5,599C 508.429,580.645 520.595,552.812 511,515.5C 505.953,503.458 498.286,493.458 488,485.5C 487.667,483.5 487.333,481.5 487,479.5C 486.824,453.458 486.324,427.458 485.5,401.5C 486.28,399.545 487.78,398.545 490,398.5C 495.36,398.944 500.193,400.61 504.5,403.5C 502.451,403.706 502.117,404.539 503.5,406C 555.003,437.516 576.503,483.349 568,543.5C 558.788,585.703 534.955,616.536 496.5,636C 448.02,656.115 402.686,650.782 360.5,620C 320.348,584.545 305.515,540.379 316,487.5C 324.649,455.66 342.482,430.493 369.5,412C 365.222,413.082 361.222,414.915 357.5,417.5C 364.268,412.273 371.601,407.773 379.5,404C 383.953,402.274 388.286,400.274 392.5,398C 394.81,397.503 397.143,397.337 399.5,397.5C 397.914,424.032 398.247,450.532 400.5,477C 400.099,481.549 398.766,485.716 396.5,489.5 Z M 487.5,530.5 C 488.833,530.5 489.5,531.167 489.5,532.5C 488.5,532.167 487.833,531.5 487.5,530.5 Z"/></g>
<g><path style="opacity:0.997" fill="#1d1d1d" d="M 669.5,398.5 C 670.5,398.5 671.5,398.5 672.5,398.5C 670.911,403.258 669.078,407.925 667,412.5C 663.497,433.643 666.831,453.643 677,472.5C 684.823,486.763 696.823,495.429 713,498.5C 713.278,497.584 713.778,496.918 714.5,496.5C 740.01,497.006 765.51,497.673 791,498.5C 823.104,499.912 847.77,514.579 865,542.5C 884.801,579.218 884.134,615.551 863,651.5C 850.816,669.502 834.316,681.502 813.5,687.5C 812.624,687.631 811.957,687.298 811.5,686.5C 822.819,673.537 831.319,658.871 837,642.5C 845.848,613.36 838.681,589.193 815.5,570C 808.591,567.53 801.591,565.364 794.5,563.5C 793.584,563.543 792.917,563.876 792.5,564.5C 760.838,563.845 729.171,563.345 697.5,563C 662.457,555.96 640.291,535.126 631,500.5C 623.881,472.109 627.881,445.442 643,420.5C 649.927,410.728 658.76,403.395 669.5,398.5 Z"/></g>
<g><path style="opacity:0.997" fill="#1d1d1d" d="M 929.5,398.5 C 930.5,398.5 931.5,398.5 932.5,398.5C 930.911,403.258 929.078,407.925 927,412.5C 923.497,433.643 926.831,453.643 937,472.5C 944.823,486.763 956.823,495.429 973,498.5C 973.278,497.584 973.778,496.918 974.5,496.5C 999.845,497 1025.18,497.667 1050.5,498.5C 1070.8,498.476 1088.8,504.976 1104.5,518C 1133.12,544.87 1143.96,577.703 1137,616.5C 1128.7,653.966 1106.2,677.966 1069.5,688.5C 1081.97,675.25 1091.13,659.916 1097,642.5C 1104.97,616.802 1099.8,594.302 1081.5,575C 1072.99,568.441 1063.33,564.941 1052.5,564.5C 1020.84,563.845 989.171,563.345 957.5,563C 922.457,555.96 900.291,535.126 891,500.5C 883.881,472.109 887.881,445.442 903,420.5C 909.927,410.728 918.76,403.395 929.5,398.5 Z"/></g>
<g><path style="opacity:1" fill="#1e1e1e" d="M 504.5,403.5 C 510.224,407.029 516.224,410.029 522.5,412.5C 536.226,419.363 547.559,429.029 556.5,441.5C 560.93,447.36 565.597,453.026 570.5,458.5C 571.167,458.5 571.5,458.833 571.5,459.5C 570.475,459.897 570.308,460.563 571,461.5C 574.191,466.564 577.358,471.564 580.5,476.5C 581.733,481.293 583.733,485.626 586.5,489.5C 587.338,489.842 587.672,490.508 587.5,491.5C 587.85,496.54 589.184,501.206 591.5,505.5C 600.736,548.857 594.07,589.524 571.5,627.5C 561.898,643.768 549.232,657.101 533.5,667.5C 529.148,669.673 525.148,672.34 521.5,675.5C 519.664,677.588 517.331,678.921 514.5,679.5C 506.557,682.471 498.89,685.804 491.5,689.5C 491.5,690.167 491.167,690.5 490.5,690.5C 490.083,689.876 489.416,689.543 488.5,689.5C 479.696,692.19 470.696,694.024 461.5,695C 445.436,696.011 429.436,695.511 413.5,693.5C 412.274,693.52 411.274,693.853 410.5,694.5C 410.167,694.5 409.833,694.5 409.5,694.5C 405.58,691.3 400.913,689.633 395.5,689.5C 384.631,685.067 373.964,680.067 363.5,674.5C 357.219,672.025 351.553,668.525 346.5,664C 333.261,652.359 321.761,639.192 312,624.5C 308.816,619.428 306.316,614.095 304.5,608.5C 284.154,557.709 287.488,508.709 314.5,461.5C 316.062,457.608 318.395,454.275 321.5,451.5C 324.392,448.729 327.058,445.729 329.5,442.5C 330.75,440.068 332.25,437.734 334,435.5C 340.514,429.321 347.347,423.488 354.5,418C 355.448,417.517 356.448,417.351 357.5,417.5C 361.222,414.915 365.222,413.082 369.5,412C 342.482,430.493 324.649,455.66 316,487.5C 305.515,540.379 320.348,584.545 360.5,620C 402.686,650.782 448.02,656.115 496.5,636C 534.955,616.536 558.788,585.703 568,543.5C 576.503,483.349 555.003,437.516 503.5,406C 502.117,404.539 502.451,403.706 504.5,403.5 Z M 487.5,530.5 C 488.833,530.5 489.5,531.167 489.5,532.5C 488.5,532.167 487.833,531.5 487.5,530.5 Z"/></g>
<g><path style="opacity:0.373" fill="#6e8080" d="M 504.5,403.5 C 511.086,405.46 517.086,408.46 522.5,412.5C 516.224,410.029 510.224,407.029 504.5,403.5 Z"/></g>
<g><path style="opacity:0.004" fill="#fefffe" d="M 340.5,409.5 C 340.897,408.475 341.563,408.308 342.5,409C 341.906,409.464 341.239,409.631 340.5,409.5 Z"/></g>
<g><path style="opacity:0.004" fill="#0000ff" d="M 336.5,410.5 C 336.5,411.167 336.5,411.833 336.5,412.5C 336.167,412.5 335.833,412.5 335.5,412.5C 335.167,412.5 334.833,412.5 334.5,412.5C 334.5,411.167 335.167,410.5 336.5,410.5 Z"/></g>
<g><path style="opacity:0.004" fill="#fefffe" d="M 336.5,410.5 C 338.933,410.786 338.933,411.452 336.5,412.5C 336.5,411.833 336.5,411.167 336.5,410.5 Z"/></g>
<g><path style="opacity:0.004" fill="#fefffe" d="M 334.5,412.5 C 334.833,412.5 335.167,412.5 335.5,412.5C 334.613,414.735 333.613,415.235 332.5,414C 332.836,412.97 333.503,412.47 334.5,412.5 Z"/></g>
<g><path style="opacity:0.004" fill="#fefffe" d="M 544.5,421.5 C 545.946,420.387 547.613,420.22 549.5,421C 547.866,421.494 546.199,421.66 544.5,421.5 Z"/></g>
<g><path style="opacity:0.567" fill="#fe0000" d="M 402.5,424.5 C 412.654,421.817 415.988,425.317 412.5,435C 409.264,436.724 405.93,436.89 402.5,435.5C 401.167,431.833 401.167,428.167 402.5,424.5 Z"/></g>
<g><path style="opacity:0.945" fill="#feb800" d="M 437.5,442.5 C 459,441.17 469.5,451.17 469,472.5C 466.09,483.743 458.923,490.576 447.5,493C 427.719,492.55 418.219,482.383 419,462.5C 420.632,457.53 423.132,453.03 426.5,449C 430.23,446.807 433.897,444.64 437.5,442.5 Z"/></g>
<g><path style="opacity:0.253" fill="#7a7f80" d="M 329.5,442.5 C 327.058,445.729 324.392,448.729 321.5,451.5C 323.022,447.436 325.689,444.436 329.5,442.5 Z"/></g>
<g><path style="opacity:0.005" fill="#fcfcfc" d="M 292.5,450.5 C 293.117,450.611 293.617,450.944 294,451.5C 294.77,458.672 296.27,465.672 298.5,472.5C 295.333,476.833 292.167,481.167 289,485.5C 287.659,481.616 286.825,477.616 286.5,473.5C 287.418,465.494 289.418,457.827 292.5,450.5 Z"/></g>
<g><path style="opacity:0.518" fill="#6d7271" d="M 556.5,441.5 C 562.671,445.997 567.338,451.664 570.5,458.5C 565.597,453.026 560.93,447.36 556.5,441.5 Z"/></g>
<g><path style="opacity:0.071" fill="#748080" d="M 571.5,459.5 C 575.816,464.479 578.816,470.146 580.5,476.5C 577.358,471.564 574.191,466.564 571,461.5C 570.308,460.563 570.475,459.897 571.5,459.5 Z"/></g>
<g><path style="opacity:0.545" fill="#6c7574" d="M 314.5,461.5 C 287.488,508.709 284.154,557.709 304.5,608.5C 292.499,584.716 287.666,559.383 290,532.5C 292.001,509.819 298.334,488.486 309,468.5C 310.697,465.98 312.53,463.647 314.5,461.5 Z"/></g>
<g><path style="opacity:0.922" fill="#fe4543" d="M 478.5,519.5 C 478.158,518.662 477.492,518.328 476.5,518.5C 475.833,518.5 475.5,518.167 475.5,517.5C 475.5,516.833 475.167,516.5 474.5,516.5C 474.158,515.662 473.492,515.328 472.5,515.5C 472.5,514.833 472.167,514.5 471.5,514.5C 469.771,513.359 468.771,511.693 468.5,509.5C 469.524,506.944 470.358,504.277 471,501.5C 471.169,494.476 471.669,487.476 472.5,480.5C 474.098,479.515 475.765,479.349 477.5,480C 484.325,492.094 486.325,504.927 483.5,518.5C 481.929,519.309 480.262,519.643 478.5,519.5 Z"/></g>
<g><path style="opacity:0.31" fill="#798a88" d="M 580.5,476.5 C 581.79,477.058 582.623,478.058 583,479.5C 584.467,482.758 585.633,486.092 586.5,489.5C 583.733,485.626 581.733,481.293 580.5,476.5 Z"/></g>
<g><path style="opacity:0.927" fill="#56f100" d="M 418.5,513.5 C 417.508,513.328 416.842,513.662 416.5,514.5C 408.453,517.695 401.286,516.361 395,510.5C 391.545,503.227 392.045,496.227 396.5,489.5C 404.226,485.344 411.726,485.677 419,490.5C 423.808,498.35 423.641,506.017 418.5,513.5 Z"/></g>
<g><path style="opacity:0.004" fill="#fefffe" d="M 280.5,496.5 C 281.833,497.167 281.833,497.167 280.5,496.5 Z"/></g>
<g><path style="opacity:0.004" fill="#fefffe" d="M 278.5,498.5 C 279.525,498.897 279.692,499.563 279,500.5C 278.536,499.906 278.369,499.239 278.5,498.5 Z"/></g>
<g><path style="opacity:0.913" fill="#31a6fe" d="M 490.5,534.5 C 490.5,533.833 490.167,533.5 489.5,533.5C 489.5,533.167 489.5,532.833 489.5,532.5C 489.5,531.167 488.833,530.5 487.5,530.5C 487.167,529.833 486.833,529.167 486.5,528.5C 486.5,527.833 486.167,527.5 485.5,527.5C 485.672,526.508 485.338,525.842 484.5,525.5C 486.201,517.623 487.367,509.623 488,501.5C 490.632,498.808 492.966,499.141 495,502.5C 499.144,512.967 499.978,523.634 497.5,534.5C 495.167,534.5 492.833,534.5 490.5,534.5 Z"/></g>
<g><path style="opacity:0.18" fill="#838c8b" d="M 587.5,491.5 C 589.435,495.895 590.769,500.562 591.5,505.5C 589.184,501.206 587.85,496.54 587.5,491.5 Z"/></g>
<g><path style="opacity:0.004" fill="#fefffe" d="M 276.5,502.5 C 277.833,503.167 277.833,503.167 276.5,502.5 Z"/></g>
<g><path style="opacity:0.004" fill="#fefffe" d="M 274.5,505.5 C 274.897,504.475 275.563,504.308 276.5,505C 275.906,505.464 275.239,505.631 274.5,505.5 Z"/></g>
<g><path style="opacity:0.965" fill="#feb700" d="M 471.5,514.5 C 472.167,514.5 472.5,514.833 472.5,515.5C 472.842,516.338 473.508,516.672 474.5,516.5C 475.167,516.5 475.5,516.833 475.5,517.5C 475.5,518.167 475.833,518.5 476.5,518.5C 476.842,519.338 477.508,519.672 478.5,519.5C 479.5,522.5 481.5,524.5 484.5,525.5C 484.328,526.492 484.662,527.158 485.5,527.5C 486.167,527.5 486.5,527.833 486.5,528.5C 486.833,529.167 487.167,529.833 487.5,530.5C 487.833,531.5 488.5,532.167 489.5,532.5C 489.5,532.833 489.5,533.167 489.5,533.5C 490.167,533.5 490.5,533.833 490.5,534.5C 491.859,538.253 493.193,541.919 494.5,545.5C 494.5,545.833 494.5,546.167 494.5,546.5C 494.232,548.099 494.566,549.432 495.5,550.5C 495.5,551.833 495.5,553.167 495.5,554.5C 493.124,580.377 479.124,595.543 453.5,600C 447.807,600.518 442.307,601.018 437,601.5C 436.53,600.423 436.697,599.423 437.5,598.5C 438.167,598.5 438.5,598.167 438.5,597.5C 439.833,597.167 439.833,596.833 438.5,596.5C 444.124,590.551 446.791,583.384 446.5,575C 443.411,542.062 425.745,528.895 393.5,535.5C 396.736,530.215 400.069,525.715 403.5,522C 407.982,519.669 412.315,517.169 416.5,514.5C 417.492,514.672 418.158,514.338 418.5,513.5C 430.362,508.635 442.695,506.801 455.5,508C 460.968,509.903 466.301,512.07 471.5,514.5 Z"/></g>
<g><path style="opacity:0.004" fill="#fefffe" d="M 270.5,512.5 C 271.525,512.897 271.692,513.563 271,514.5C 270.536,513.906 270.369,513.239 270.5,512.5 Z"/></g>
<g><path style="opacity:0.004" fill="#fefffe" d="M 274.5,602.5 C 272.299,598.945 270.632,594.945 269.5,590.5C 264.783,569.398 263.45,548.064 265.5,526.5C 266.442,523.007 267.775,519.674 269.5,516.5C 269.833,517.5 270.167,518.5 270.5,519.5C 267.977,536.421 267.144,553.421 268,570.5C 270.958,581.31 273.124,591.976 274.5,602.5 Z"/></g>
<g><path style="opacity:0.918" fill="#57b901" d="M 495.5,554.5 C 495.5,553.167 495.5,551.833 495.5,550.5C 495.768,548.901 495.434,547.568 494.5,546.5C 494.5,546.167 494.5,545.833 494.5,545.5C 495.405,540.698 497.572,536.365 501,532.5C 503.427,528.46 505.094,524.126 506,519.5C 507.527,521.221 508.527,523.221 509,525.5C 511.381,537.365 509.215,548.199 502.5,558C 498.738,559.311 496.405,558.144 495.5,554.5 Z"/></g>
<g><path style="opacity:0.994" fill="#3b3b3b" d="M 237.5,526.5 C 243.509,526.334 249.509,526.501 255.5,527C 257.259,528.008 258.426,529.508 259,531.5C 260.45,547.81 260.783,564.143 260,580.5C 259.315,583.057 257.815,584.891 255.5,586C 205.171,587.157 154.838,587.991 104.5,588.5C 103.177,568.137 103.177,547.804 104.5,527.5C 131.083,527.632 157.75,527.632 184.5,527.5C 200.661,528.662 216.995,528.828 233.5,528C 235.058,527.79 236.391,527.29 237.5,526.5 Z"/></g>
<g><path style="opacity:0.439" fill="#7e7b78" d="M 237.5,526.5 C 236.391,527.29 235.058,527.79 233.5,528C 216.995,528.828 200.661,528.662 184.5,527.5C 202.173,527.429 219.839,527.096 237.5,526.5 Z"/></g>
<g><path style="opacity:0.992" fill="#3b3b3b" d="M 813.5,687.5 C 811.337,688.469 809.004,689.302 806.5,690C 754.167,690.667 701.833,690.667 649.5,690C 644.772,688.604 642.272,685.438 642,680.5C 640.739,665.516 640.405,650.516 641,635.5C 642.031,632.461 643.865,629.961 646.5,628C 694.797,626.528 743.13,625.528 791.5,625C 811.201,613.888 816.034,598.055 806,577.5C 803.861,574.061 801.361,570.894 798.5,568C 795.848,567.647 793.848,566.48 792.5,564.5C 792.917,563.876 793.584,563.543 794.5,563.5C 801.591,565.364 808.591,567.53 815.5,570C 838.681,589.193 845.848,613.36 837,642.5C 831.319,658.871 822.819,673.537 811.5,686.5C 811.957,687.298 812.624,687.631 813.5,687.5 Z"/></g>
<g><path style="opacity:0.991" fill="#3b3b3b" d="M 1052.5,564.5 C 1063.33,564.941 1072.99,568.441 1081.5,575C 1099.8,594.302 1104.97,616.802 1097,642.5C 1091.13,659.916 1081.97,675.25 1069.5,688.5C 1069.08,689.222 1068.42,689.722 1067.5,690C 1014.83,690.667 962.167,690.667 909.5,690C 904.772,688.604 902.272,685.438 902,680.5C 900.739,665.516 900.405,650.516 901,635.5C 902.031,632.461 903.865,629.961 906.5,628C 954.797,626.528 1003.13,625.528 1051.5,625C 1071.2,613.888 1076.03,598.055 1066,577.5C 1063.86,574.061 1061.36,570.894 1058.5,568C 1055.85,567.647 1053.85,566.48 1052.5,564.5 Z"/></g>
<g><path style="opacity:0.927" fill="#8b00d7" d="M 416.5,566.5 C 425.716,565.293 433.216,568.293 439,575.5C 442.175,586.651 438.342,594.151 427.5,598C 425.272,598.82 423.272,598.487 421.5,597C 424.768,589.457 423.102,583.124 416.5,578C 413.408,576.136 410.074,574.969 406.5,574.5C 403.199,575.554 399.865,576.054 396.5,576C 397.167,574.667 397.833,573.333 398.5,572C 404.519,569.835 410.519,568.001 416.5,566.5 Z"/></g>
<g><path style="opacity:0.208" fill="#767f7e" d="M 591.5,505.5 C 601.693,545.624 596.859,583.957 577,620.5C 575.303,623.02 573.47,625.353 571.5,627.5C 594.07,589.524 600.736,548.857 591.5,505.5 Z"/></g>
<g><path style="opacity:0.007" fill="#feff00" d="M 438.5,596.5 C 438.5,596.833 438.5,597.167 438.5,597.5C 437.833,597.5 437.5,597.833 437.5,598.5C 435.535,598.052 435.202,597.052 436.5,595.5C 437.183,595.863 437.85,596.196 438.5,596.5 Z"/></g>
<g><path style="opacity:0.004" fill="#fefffe" d="M 274.5,602.5 C 275.306,603.997 275.972,605.664 276.5,607.5C 276.167,607.833 275.833,608.167 275.5,608.5C 274.534,606.604 274.201,604.604 274.5,602.5 Z"/></g>
<g><path style="opacity:0.004" fill="#fefffe" d="M 276.5,610.5 C 277.598,611.601 277.765,612.934 277,614.5C 276.51,613.207 276.343,611.873 276.5,610.5 Z"/></g>
<g><path style="opacity:0.004" fill="#fefffe" d="M 278.5,617.5 C 279.833,618.167 279.833,618.167 278.5,617.5 Z"/></g>
<g><path style="opacity:0.004" fill="#f8f8f8" d="M 308.5,662.5 C 302.117,658.751 299.95,653.417 302,646.5C 304.271,651.817 306.437,657.15 308.5,662.5 Z"/></g>
<g><path style="opacity:0.004" fill="#fefffe" d="M 308.5,662.5 C 309.525,662.897 309.692,663.563 309,664.5C 308.536,663.906 308.369,663.239 308.5,662.5 Z"/></g>
<g><path style="opacity:0.055" fill="#7a817f" d="M 533.5,667.5 C 530.322,671.336 526.322,674.002 521.5,675.5C 525.148,672.34 529.148,669.673 533.5,667.5 Z"/></g>
<g><path style="opacity:0.431" fill="#747b7c" d="M 514.5,679.5 C 507.506,684.159 499.839,687.492 491.5,689.5C 498.89,685.804 506.557,682.471 514.5,679.5 Z"/></g>
<g><path style="opacity:0.235" fill="#7c8d8e" d="M 363.5,674.5 C 373.964,680.067 384.631,685.067 395.5,689.5C 383.765,686.631 373.098,681.631 363.5,674.5 Z"/></g>
<g><path style="opacity:0.055" fill="#257272" d="M 636.5,676.5 C 637.648,680.981 637.815,685.648 637,690.5C 636.501,685.845 636.334,681.179 636.5,676.5 Z"/></g>
<g><path style="opacity:0.055" fill="#257272" d="M 896.5,676.5 C 897.648,680.981 897.815,685.648 897,690.5C 896.501,685.845 896.334,681.179 896.5,676.5 Z"/></g>
<g><path style="opacity:0.122" fill="#798989" d="M 395.5,689.5 C 400.913,689.633 405.58,691.3 409.5,694.5C 404.649,693.128 399.982,691.461 395.5,689.5 Z"/></g>
<g><path style="opacity:0.459" fill="#666e6e" d="M 490.5,690.5 C 464.172,698.167 437.505,699.5 410.5,694.5C 411.274,693.853 412.274,693.52 413.5,693.5C 429.436,695.511 445.436,696.011 461.5,695C 470.696,694.024 479.696,692.19 488.5,689.5C 489.416,689.543 490.083,689.876 490.5,690.5 Z"/></g>
<g><path style="opacity:0.004" fill="#fefffe" d="M 372.5,708.5 C 368.428,707.302 364.428,705.802 360.5,704C 361.354,702.978 362.354,702.145 363.5,701.5C 366.388,704.095 369.388,706.428 372.5,708.5 Z"/></g>
<g><path style="opacity:0.004" fill="#fefffe" d="M 372.5,708.5 C 373.473,708.987 374.473,709.487 375.5,710C 373.843,710.725 372.843,710.225 372.5,708.5 Z"/></g>
<g><path style="opacity:0.909" fill="#1c1c1c" d="M 892.5,738.5 C 899.024,738.421 902.691,741.587 903.5,748C 902.543,753.238 899.376,756.072 894,756.5C 885.43,754.301 883.263,749.301 887.5,741.5C 889.145,740.304 890.811,739.304 892.5,738.5 Z"/></g>
<g><path style="opacity:0.931" fill="#1c1c1c" d="M 981.5,749.5 C 986.167,749.5 990.833,749.5 995.5,749.5C 995.5,754.5 995.5,759.5 995.5,764.5C 999.167,764.5 1002.83,764.5 1006.5,764.5C 1006.5,768.5 1006.5,772.5 1006.5,776.5C 1002.83,776.5 999.167,776.5 995.5,776.5C 995.333,787.172 995.5,797.839 996,808.5C 996.5,809.667 997.333,810.5 998.5,811C 1001.15,811.497 1003.81,811.664 1006.5,811.5C 1007.06,815.997 1006.39,820.164 1004.5,824C 996.707,825.511 989.873,823.678 984,818.5C 983.138,816.913 982.471,815.246 982,813.5C 981.5,801.171 981.333,788.838 981.5,776.5C 978.5,776.5 975.5,776.5 972.5,776.5C 972.5,772.5 972.5,768.5 972.5,764.5C 975.5,764.5 978.5,764.5 981.5,764.5C 981.5,759.5 981.5,754.5 981.5,749.5 Z"/></g>
<g><path style="opacity:0.931" fill="#1c1c1c" d="M 58.5,763.5 C 75.6765,762.399 86.3432,770.066 90.5,786.5C 85.456,786.827 80.456,786.494 75.5,785.5C 71.9727,778.403 66.306,775.57 58.5,777C 51.1813,780.458 47.5147,786.292 47.5,794.5C 48.7724,809.648 56.439,814.814 70.5,810C 73.23,807.87 75.23,805.203 76.5,802C 81.1548,801.501 85.8215,801.334 90.5,801.5C 87.7703,816.722 78.6037,824.722 63,825.5C 40.9689,822.451 31.3023,809.784 34,787.5C 37.1387,774.212 45.3054,766.212 58.5,763.5 Z"/></g>
<g><path style="opacity:0.934" fill="#1c1c1c" d="M 185.5,763.5 C 212.249,764.417 223.416,778.084 219,804.5C 211.75,821.709 198.917,828.209 180.5,824C 169.488,820.32 162.654,812.82 160,801.5C 157.351,781.086 165.851,768.42 185.5,763.5 Z M 185.5,776.5 C 201.882,777.054 208.382,785.388 205,801.5C 199.079,812.695 190.579,815.195 179.5,809C 171.5,799.333 171.5,789.667 179.5,780C 181.727,779.059 183.727,777.892 185.5,776.5 Z"/></g>
<g><path style="opacity:0.947" fill="#1c1c1c" d="M 320.5,763.5 C 329.255,762.57 336.588,765.236 342.5,771.5C 353.033,762.6 364.366,761.434 376.5,768C 379.933,771.104 382.1,774.937 383,779.5C 383.5,794.163 383.667,808.83 383.5,823.5C 378.833,823.5 374.167,823.5 369.5,823.5C 369.667,810.163 369.5,796.829 369,783.5C 366.27,776.947 361.437,774.78 354.5,777C 350.217,778.72 347.717,781.887 347,786.5C 346.5,798.829 346.333,811.162 346.5,823.5C 341.833,823.5 337.167,823.5 332.5,823.5C 332.667,811.162 332.5,798.829 332,786.5C 329.884,776.558 324.05,773.724 314.5,778C 312.106,779.952 310.606,782.452 310,785.5C 309.5,798.162 309.333,810.829 309.5,823.5C 304.833,823.5 300.167,823.5 295.5,823.5C 295.5,803.833 295.5,784.167 295.5,764.5C 299.833,764.5 304.167,764.5 308.5,764.5C 307.601,770.89 308.935,771.724 312.5,767C 315.309,765.907 317.976,764.74 320.5,763.5 Z"/></g>
<g><path style="opacity:0.947" fill="#1c1c1c" d="M 486.5,763.5 C 495.255,762.57 502.588,765.236 508.5,771.5C 519.033,762.6 530.366,761.434 542.5,768C 545.933,771.104 548.1,774.937 549,779.5C 549.5,794.163 549.667,808.83 549.5,823.5C 544.833,823.5 540.167,823.5 535.5,823.5C 535.667,810.163 535.5,796.829 535,783.5C 532.27,776.947 527.437,774.78 520.5,777C 516.217,778.72 513.717,781.887 513,786.5C 512.5,798.829 512.333,811.162 512.5,823.5C 507.833,823.5 503.167,823.5 498.5,823.5C 498.667,811.162 498.5,798.829 498,786.5C 495.884,776.558 490.05,773.724 480.5,778C 478.106,779.952 476.606,782.452 476,785.5C 475.5,798.162 475.333,810.829 475.5,823.5C 470.833,823.5 466.167,823.5 461.5,823.5C 461.5,803.833 461.5,784.167 461.5,764.5C 465.833,764.5 470.167,764.5 474.5,764.5C 473.601,770.89 474.935,771.724 478.5,767C 481.309,765.907 483.976,764.74 486.5,763.5 Z"/></g>
<g><path style="opacity:0.947" fill="#1c1c1c" d="M 783.5,763.5 C 794.818,762.239 802.985,766.572 808,776.5C 809.453,792.096 809.953,807.762 809.5,823.5C 804.833,823.5 800.167,823.5 795.5,823.5C 795.667,810.496 795.5,797.496 795,784.5C 793.927,778.588 790.427,775.922 784.5,776.5C 777.886,776.214 773.72,779.214 772,785.5C 771.5,798.162 771.333,810.829 771.5,823.5C 766.833,823.5 762.167,823.5 757.5,823.5C 757.5,803.833 757.5,784.167 757.5,764.5C 761.833,764.5 766.167,764.5 770.5,764.5C 770.338,766.527 770.505,768.527 771,770.5C 774.473,766.748 778.64,764.414 783.5,763.5 Z"/></g>
<g><path style="opacity:0.945" fill="#1c1c1c" d="M 626.5,764.5 C 631.167,764.5 635.833,764.5 640.5,764.5C 640.091,778.551 640.591,792.551 642,806.5C 643.78,810.793 646.946,812.793 651.5,812.5C 658.114,812.786 662.28,809.786 664,803.5C 664.5,790.504 664.667,777.504 664.5,764.5C 669.167,764.5 673.833,764.5 678.5,764.5C 678.5,784.167 678.5,803.833 678.5,823.5C 674.167,823.5 669.833,823.5 665.5,823.5C 666.187,817.401 664.854,816.901 661.5,822C 649.512,827.863 639.012,826.029 630,816.5C 628.25,813.754 627.25,810.754 627,807.5C 626.5,793.171 626.333,778.837 626.5,764.5 Z"/></g>
<g><path style="opacity:0.95" fill="#1c1c1c" d="M 887.5,764.5 C 892.167,764.5 896.833,764.5 901.5,764.5C 901.5,784.167 901.5,803.833 901.5,823.5C 896.833,823.5 892.167,823.5 887.5,823.5C 887.5,803.833 887.5,784.167 887.5,764.5 Z"/></g>
<g><path style="opacity:0.933" fill="#1c1c1c" d="M 1071.5,764.5 C 1076.76,764.195 1081.93,764.529 1087,765.5C 1091.8,778.911 1096.8,792.244 1102,805.5C 1107.07,792.127 1112.24,778.794 1117.5,765.5C 1122.5,764.167 1127.5,764.167 1132.5,765.5C 1121.7,792.58 1110.7,819.58 1099.5,846.5C 1094.88,847.493 1090.21,847.827 1085.5,847.5C 1088.06,839.202 1091.06,831.035 1094.5,823C 1086.53,803.595 1078.87,784.095 1071.5,764.5 Z"/></g>
</svg>
