<svg width="169" height="59" viewBox="0 0 169 59" fill="none" xmlns="http://www.w3.org/2000/svg">
<path d="M15.4454 50.074C18.5238 50.074 20.9037 48.931 20.9037 46.259C20.9037 44.2699 19.6027 43.2033 17.2164 42.5926L12.1406 41.2248C3.91584 39.0872 1.07456 35.0369 1.07456 30.0789C1.07456 23.2867 6.30208 18.0255 15.5202 18.0255C23.0549 18.0255 28.9767 21.6072 30.1282 28.0156L21.1344 30.0789C20.8268 27.4812 18.6755 26.0413 15.8342 26.0413C12.9097 26.0413 10.9143 27.4833 10.9143 29.9305C10.9143 31.7563 12.1406 32.8993 15.2211 33.7454L20.2158 35.0369C27.2122 36.8754 30.9763 40.6904 30.9763 46.2569C30.9763 53.2019 25.4433 58.0029 15.6035 58.0029C6.07136 58.0029 0.920745 53.4266 0 47.2515L9.22454 45.7225C9.37408 48.3966 11.7561 50.074 15.4454 50.074Z" fill="#333030"/>
<path d="M36.1035 7.4162V19.1706V27.4091V57.0189H45.9412V27.4091H53.2473V19.1706H45.9412V7.4162H36.1035Z" fill="#333030"/>
<path d="M65.653 34.74H84.0294C83.6406 29.0123 80.1114 26.2661 75.1915 26.2661C69.9576 26.2661 66.578 29.2392 65.653 34.74ZM94.2473 41.598H65.5013C66.1144 47.2515 70.5707 49.5375 75.1894 49.5375C79.7952 49.5375 82.7198 47.3999 84.4096 44.1194L92.7134 47.3999C89.9469 54.0352 83.1749 58.0029 75.1894 58.0029C63.8862 58.0029 56.0503 50.0719 56.0503 38.0927C56.0503 26.1898 63.7367 18.0255 75.3389 18.0255C86.7169 18.0255 94.2473 25.9565 94.2473 38.0927V41.598Z" fill="#333030"/>
<path d="M158.898 19.1707H148.83V57.019H158.898V19.1707Z" fill="#333030"/>
<path d="M120.022 49.0053C113.944 49.0053 109.488 44.7301 109.488 38.0164C109.488 31.2241 113.944 27.0275 120.022 27.0275C126.174 27.0275 130.556 31.2241 130.556 38.0164C130.556 44.7301 126.174 49.0053 120.022 49.0053ZM140.85 47.2515V39.5262V0.0238647H130.855V23.1341C128.163 19.6308 123.245 18.0277 118.712 18.0277C107.571 18.0277 99.3486 25.9587 99.3486 38.0948C99.3486 51.2913 107.573 58.005 118.488 58.005C123.707 58.005 128.552 55.9502 131.013 52.36C131.167 54.1901 131.318 55.7933 131.63 57.019H140.848V47.2515H140.85Z" fill="#333030"/>
<path d="M158.927 2.50331e-06L158.898 9.9986L168.971 10.0276L169 0.0289984L158.927 2.50331e-06Z" fill="#333030"/>
</svg>
