<svg width="958" height="184" viewBox="0 0 958 184" fill="none" xmlns="http://www.w3.org/2000/svg">
<path fill-rule="evenodd" clip-rule="evenodd" d="M91.79 183.52C71.25 183.52 54.85 160.94 52.61 130.94C22.61 128.7 0 112.26 0 91.76C0 71.26 22.61 54.82 52.64 52.58C54.88 22.59 71.28 0 91.82 0C112.36 0 128.75 22.58 131 52.58C161 54.82 183.54 71.22 183.54 91.76C183.54 112.3 160.97 128.7 130.97 130.94C128.72 160.93 112.33 183.52 91.79 183.52ZM91.79 168.84C99.79 168.84 105.53 161.43 108.24 157.02C113.61 148.26 116.56 136.51 116.57 123.87C116.586 118.262 115.972 112.671 114.74 107.2C106.75 119.97 89.01 129.13 67.33 130.9C68.21 140.83 70.98 149.92 75.33 157.02C78.04 161.43 83.79 168.84 91.79 168.84ZM81.1056 84.6209C79.6936 86.7341 78.94 89.2185 78.94 91.76C78.94 95.168 80.2938 98.4365 82.7037 100.846C85.1135 103.256 88.382 104.61 91.79 104.61C94.3315 104.61 96.8159 103.856 98.9291 102.444C101.042 101.032 102.689 99.0255 103.662 96.6775C104.634 94.3295 104.889 91.7457 104.393 89.2531C103.897 86.7604 102.673 84.4708 100.876 82.6737C99.0792 80.8766 96.7896 79.6527 94.2969 79.1569C91.8043 78.6611 89.2205 78.9156 86.8725 79.8881C84.5245 80.8607 82.5176 82.5077 81.1056 84.6209ZM168.82 91.76C168.82 83.76 161.42 78.02 157 75.31C148.31 69.94 136.54 66.99 123.86 67.03C118.252 67.0141 112.661 67.6279 107.19 68.86C119.96 76.85 129.12 94.58 130.88 116.26C140.81 115.39 149.91 112.62 157 108.26C161.46 105.5 168.82 99.76 168.82 91.76ZM91.75 14.68C83.75 14.68 78 22.09 75.29 26.5H75.33C70 35.26 67 47.01 67 59.65C66.9759 65.2559 67.5763 70.847 68.79 76.32C76.79 63.55 94.52 54.39 116.2 52.63C115.33 42.69 112.56 33.6 108.2 26.5C105.49 22.09 99.75 14.68 91.75 14.68ZM52.61 67.31C42.68 68.18 33.59 70.95 26.49 75.31H26.53C22.12 78.02 14.67 83.77 14.67 91.77C14.67 99.77 22.08 105.51 26.49 108.22C35.23 113.54 47 116.54 59.63 116.54C65.2377 116.557 70.8295 115.943 76.3 114.71C63.54 106.72 54.38 88.99 52.61 67.31ZM612 64.62C616.022 64.6682 619.985 65.5967 623.61 67.34L623.57 52.23C619.904 50.956 616.051 50.3037 612.17 50.3C601.61 50.3 593.96 56.03 589.87 70.03V52.03H574.87V131.49H589.87V102.4C589.87 81.47 596.17 64.62 612 64.62ZM251 107.84H237.26C237.94 124.18 252.58 133.2 266.87 133.23C283.38 133.23 297.67 124.21 297.67 109.4C297.67 100.4 293.42 90.48 276.91 86.4L265.17 83.51C260.06 82.32 254.96 79.42 254.96 73.98C254.96 67.85 260.06 63.26 267.72 63.26C274 63.26 280.31 67.34 280.48 73.46H294.78C294.78 57.46 280.82 50.32 267.38 50.32C251.38 50.32 240.15 60.36 240.15 73.46C240.15 86.26 247.81 92.69 261.08 96.26L271.93 98.82C278.23 100.2 282.83 103.25 282.83 109.2C282.83 115.67 276.83 120.26 266.83 120.26C257.13 120.26 251.17 114.65 251 107.84ZM381.5 131.49V52.03L366.68 52.08V95.08C366.51 112.26 353.24 118.56 342.18 118.56C331.12 118.56 323.12 110.39 323.12 97.12V52.03H308.32V97.97C308.16 120.26 320.41 133.2 340.32 133.2C349.17 133.2 361.93 128.94 366.69 119.07V131.49H381.5ZM563.76 98.14H499.1C501.31 112.26 511.52 119.24 525.1 119.24C534.79 119.24 543.81 115.16 548.24 107.16L561.17 112.26C554.17 126.05 539.9 133.2 524.59 133.2C501.95 133.2 483.75 116.69 483.75 91.51C483.75 66.33 501.95 50.33 524.59 50.33C547.23 50.33 564.06 66.33 564.06 91.51C564.1 93.72 563.93 95.93 563.76 98.14ZM549.3 85.38C547.43 71.77 537.73 64.28 524.63 64.28C511.18 64.28 501.63 71.08 499.27 85.38H549.3ZM706.43 85.55V131.49H691.62V86.4C691.62 73.13 683.45 64.96 672.39 64.96C661.33 64.96 648.06 71.26 648.06 88.44V131.44H633.25V52.03H648.06V64.11C652.82 54.41 665.76 50.33 674.44 50.33C694.17 50.33 706.6 63.26 706.43 85.55ZM756.63 50.33C734 50.33 715.11 66.32 715.11 91.51C715.11 116.69 733.99 133.2 756.63 133.2C779.27 133.2 798.32 116.69 798.32 91.51C798.32 66.33 779.26 50.33 756.63 50.33ZM756.63 64.28C771.27 64.28 783.52 75.17 783.52 91.51C783.52 108.01 771.27 119.26 756.63 119.24C742.17 119.24 730.09 108.01 730.09 91.51C730.09 75.17 742.17 64.28 756.63 64.28ZM876.81 52.03L843.63 131.49H829.17L796.17 52.03H812L836.5 112.61L860.84 52.03H876.81ZM958 131.49V52.03H943.2V64.45C937.92 55.09 926.69 50.33 914.78 50.33C893 50.33 875.13 66.49 875.13 91.67C875.13 116.69 893.17 133.2 914.95 133.2C926.35 133.2 937.92 128.09 943.2 118.9V131.49H958ZM916.14 64.28C929.2 64.28 943.2 74.32 943.2 91.51H943.17C943.17 108.52 930.4 119.26 916.14 119.24C901.71 119.24 890.14 107.33 890.14 91.51C890.14 75.51 901.67 64.28 916.14 64.28ZM475.57 91.85C475.57 117.03 457.7 133.2 435.92 133.2C424.01 133.2 412.78 128.43 407.5 119.07V173.07H392.7V52.07H407.5V64.66C412.78 55.47 424.35 50.37 435.75 50.37C457.53 50.33 475.57 66.83 475.57 91.85ZM460.57 92.02C460.57 76.19 449 64.28 434.37 64.28C420.24 64.28 407.48 75 407.48 92.02C407.431 95.583 408.091 99.1202 409.422 102.426C410.753 105.731 412.728 108.739 415.232 111.274C417.736 113.809 420.72 115.82 424.009 117.191C427.298 118.562 430.827 119.266 434.39 119.26C449 119.26 460.59 108.01 460.59 92.02H460.57Z" fill="#141618"/>
</svg>
