<svg width="252" height="39" viewBox="0 0 252 39" fill="none" xmlns="http://www.w3.org/2000/svg">
<g clip-path="url(#clip0_1062_1175)">
<path d="M52.6796 4.91451C50.1095 4.91451 48.0194 6.98212 48.0194 9.52367C48.0194 13.1419 49.3741 16.4482 51.6075 18.9878C52.5326 20.0372 53.6067 20.9539 54.8008 21.7049C55.5169 20.6262 56.1168 19.4618 56.5774 18.2329C57.2702 16.3799 57.6496 14.3766 57.6496 12.2876C57.6496 11.0471 57.5141 9.83772 57.2586 8.6693C57.2388 8.57198 57.214 8.47395 57.1906 8.37665C56.6739 6.38711 54.8488 4.91444 52.6813 4.91444L52.6796 4.91451ZM23.9284 18.2329C24.389 19.4618 24.989 20.6262 25.7089 21.7049C26.8991 20.9539 27.9732 20.0372 28.8983 18.9878C31.1336 16.4521 32.4903 13.1419 32.4903 9.52367C32.4903 6.98212 30.4001 4.91451 27.8262 4.91451C25.6586 4.91451 23.8355 6.3891 23.3168 8.37479C23.2971 8.47211 23.2708 8.57016 23.2488 8.66746C22.9972 9.8378 22.8617 11.0471 22.8617 12.2877C22.8617 14.3748 23.2391 16.38 23.932 18.233L23.9284 18.2329ZM75.6791 15.9781L80.1226 18.1783C76.91 24.5176 70.2815 28.8751 62.6195 28.8751C60.3668 28.8751 58.2069 28.4947 56.1903 27.8023C52.1319 31.8751 46.4943 34.4049 40.2529 34.4049C34.0115 34.4049 28.37 31.8731 24.3135 27.7984C22.3008 28.4929 20.1332 28.8712 17.8824 28.8712C9.90889 28.8712 3.04814 24.1509 0 17.3825L4.54802 15.3832C6.82397 20.4292 11.941 23.9578 17.8824 23.9578C18.9662 23.9578 20.0248 23.8369 21.0409 23.6143C19.0378 20.2983 17.8863 16.4265 17.8863 12.2854C17.8863 10.7094 18.0547 9.17041 18.3702 7.68801C18.4162 7.47347 18.4669 7.26631 18.5192 7.05621C19.6165 2.99126 23.3652 -0.000890911 27.8223 -0.000890911C27.9113 -0.000890911 27.9965 0.00291207 28.0855 0.00544971C28.3564 0.0130626 28.6273 0.0275308 28.8944 0.0570943C33.7134 0.583465 37.4563 4.62144 37.4563 9.52313C37.4563 16.1122 34.1237 21.9287 29.0376 25.4202C32.0684 27.9559 35.9816 29.4891 40.2529 29.4891C44.5222 29.4891 48.4355 27.954 51.4662 25.4202C46.3801 21.9287 43.0475 16.1102 43.0475 9.52313C43.0475 4.61945 46.7904 0.581776 51.6055 0.0551776C51.8726 0.025741 52.1416 0.0108922 52.4145 0.003533C52.5035 0.003533 52.5887 -0.00280762 52.6796 -0.00280762C57.1386 -0.00280762 60.8854 2.99126 61.9847 7.0582C62.0366 7.26684 62.0873 7.47545 62.1337 7.68851C62.4511 9.1709 62.6176 10.7118 62.6176 12.286C62.6176 16.427 61.4661 20.3028 59.463 23.6148C60.481 23.8374 61.5338 23.9583 62.6176 23.9583C68.3268 23.9583 73.2735 20.7048 75.6752 15.9767L75.6791 15.9781Z" fill="#ED2761"/>
<path d="M94.7196 30.902H99.8486V10.2244H109.118V5.05505H85.4507V10.2244H94.7196V30.902Z" fill="#282562"/>
<path d="M106.722 21.6708C106.722 27.1725 110.349 31.345 116.54 31.345C120.057 31.345 122.329 30.1634 123.831 28.908L121.816 24.8832C120.533 25.9909 118.812 26.7663 116.613 26.7663C114.489 26.7663 112.29 25.6955 111.704 23.2216L111.668 23.1477H125.15V21.8184C125.15 15.8736 121.706 11.9966 116.1 11.9966C110.349 11.9966 106.722 16.2059 106.722 21.6707V21.6708ZM119.874 19.603H111.631C112.107 17.3507 113.646 16.1322 115.954 16.1322C118.299 16.1322 119.654 17.6092 119.874 19.603Z" fill="#282562"/>
<path d="M127.114 21.6708C127.114 27.1725 130.741 31.345 136.933 31.345C140.45 31.345 142.721 30.1634 144.223 28.908L142.208 24.8832C140.926 25.9909 139.204 26.7663 137.006 26.7663C134.881 26.7663 132.683 25.6955 132.097 23.2216L132.06 23.1477H145.542V21.8184C145.542 15.8736 142.099 11.9966 136.493 11.9966C130.741 11.9966 127.114 16.2059 127.114 21.6707L127.114 21.6708ZM140.267 19.603H132.023C132.5 17.3507 134.038 16.1322 136.347 16.1322C138.691 16.1322 140.047 17.6092 140.267 19.603Z" fill="#282562"/>
<path d="M148.203 17.8677C148.203 21.8186 151.427 23.074 154.285 23.7017C157.435 24.4033 158.351 24.6248 158.351 25.5849C158.351 26.6187 157.289 26.988 155.933 26.988C153.185 26.988 151.28 25.9541 150.108 24.5879L147.287 28.2803C148.862 30.2373 151.757 31.345 155.42 31.345C160.476 31.345 163.334 29.388 163.334 25.3264C163.334 21.6339 160.952 20.3416 157.472 19.5293C154.101 18.7539 153.222 18.5692 153.222 17.6831C153.222 16.8707 154.028 16.3907 155.53 16.3907C157.399 16.3907 159.414 17.0553 160.513 18.2738L163.224 14.7291C161.575 12.9937 159.194 11.9967 155.933 11.9967C151.134 11.9967 148.203 14.1014 148.203 17.8677Z" fill="#282562"/>
<path d="M166.174 38.2868H171.01V28.2435C172.439 30.2374 174.637 31.382 177.165 31.382C182.074 31.382 185.444 27.3942 185.444 21.6709C185.444 15.9107 182.037 11.9598 177.091 11.9598C174.563 11.9598 172.402 13.0307 171.01 14.9877V12.4399H166.174V38.2868ZM175.663 26.6188C172.842 26.6188 170.863 24.6248 170.863 21.6709C170.863 18.717 172.842 16.7231 175.663 16.7231C178.484 16.7231 180.462 18.7539 180.462 21.6709C180.462 24.5879 178.484 26.6188 175.663 26.6188Z" fill="#282562"/>
<path d="M193.223 15.4676V12.4398H188.57V30.9019H193.406V22.557C193.406 19.0123 194.835 17.203 198.022 17.203C198.792 17.203 199.561 17.2769 200.221 17.4983V12.2551C199.634 12.1073 199.085 11.9966 198.425 11.9966C195.861 11.9966 194.212 13.3258 193.223 15.4675V15.4676Z" fill="#282562"/>
<path d="M205.45 10.2612C207.245 10.2612 208.564 8.93193 208.564 7.15956C208.564 5.35027 207.245 4.021 205.45 4.021C203.691 4.021 202.372 5.35027 202.372 7.15956C202.372 8.93193 203.691 10.2612 205.45 10.2612ZM207.867 12.4397H203.032V30.9019H207.867V12.4397Z" fill="#282562"/>
<path d="M212.398 30.9019H217.234V22.077C217.234 18.5692 218.59 16.6861 221.154 16.6861C223.389 16.6861 224.562 18.0523 224.562 20.6739V30.9019H229.507V19.3447C229.507 14.6553 227.163 11.9967 223.06 11.9967C220.605 11.9967 218.48 13.1044 217.088 15.2461V12.4398H212.398V30.9019Z" fill="#282562"/>
<path d="M232.729 21.597C232.729 27.3203 236.137 31.0865 241.339 31.0865C243.867 31.0865 245.992 30.0527 247.237 28.2434V29.425C247.237 32.6004 245.442 34.1882 241.888 34.1882C239.69 34.1882 237.895 33.4128 236.32 31.8619L233.938 35.8867C236.027 37.8437 238.628 38.7668 242.035 38.7668C248.52 38.7668 252 35.5913 252 29.6834V12.4398H247.164V15.0245C245.992 13.1414 243.72 11.9967 241.192 11.9967C236.21 11.9967 232.729 15.9476 232.729 21.597ZM247.274 21.6709C247.274 24.6249 245.369 26.6188 242.548 26.6188C239.69 26.6188 237.712 24.588 237.712 21.6709C237.712 18.7539 239.69 16.7231 242.548 16.7231C245.369 16.7231 247.274 18.717 247.274 21.6709Z" fill="#282562"/>
</g>
<defs>
<clipPath id="clip0_1062_1175">
<rect width="252" height="38.7692" fill="white"/>
</clipPath>
</defs>
</svg>
