<svg width="181" height="55" viewBox="0 0 181 55" fill="none" xmlns="http://www.w3.org/2000/svg">
<g clip-path="url(#clip0_1062_845)">
<path d="M26.064 20.453C26.064 23.53 23.53 26.064 20.453 26.064C17.376 26.064 14.842 23.53 14.842 20.453C14.842 17.376 17.376 14.842 20.453 14.842C23.53 14.842 26.064 17.376 26.064 20.453ZM20.453 28.236C17.376 28.236 14.842 30.77 14.842 33.847C14.842 36.924 17.376 39.458 20.453 39.458C23.53 39.458 26.064 36.924 26.064 33.847C26.064 30.77 23.53 28.236 20.453 28.236ZM54.3 27.15C54.3 42.173 42.173 54.3 27.15 54.3C12.127 54.3 0 42.173 0 27.15C0 12.127 12.127 0 27.15 0C42.173 0 54.3 12.127 54.3 27.15ZM47.06 27.15C47.06 16.109 38.191 7.24 27.15 7.24C16.109 7.24 7.24 16.109 7.24 27.15C7.24 38.191 16.109 47.06 27.15 47.06C38.191 47.06 47.06 38.191 47.06 27.15ZM33.847 28.236C30.77 28.236 28.236 30.77 28.236 33.847C28.236 36.924 30.77 39.458 33.847 39.458C36.924 39.458 39.458 36.924 39.458 33.847C39.458 30.77 36.924 28.236 33.847 28.236ZM33.847 14.842C30.77 14.842 28.236 17.376 28.236 20.453C28.236 23.53 30.77 26.064 33.847 26.064C36.924 26.064 39.458 23.53 39.458 20.453C39.458 17.376 36.924 14.842 33.847 14.842ZM127.243 10.679C127.424 10.679 127.605 10.86 127.786 11.041V16.833C127.786 17.195 127.424 17.376 127.243 17.376H117.65C117.288 17.376 117.107 17.014 117.107 16.833V11.222C117.107 10.86 117.469 10.679 117.65 10.679H127.243ZM127.062 18.824H108.6C108.419 18.824 108.057 19.005 108.057 19.367L105.704 28.417L105.523 28.96L102.627 19.367C102.627 19.186 102.265 18.824 102.084 18.824H94.844C94.663 18.824 94.301 19.005 94.301 19.367L91.586 28.417L91.405 28.96L91.224 28.417L90.138 23.892L89.052 19.367C89.052 19.186 88.69 18.824 88.509 18.824H74.029V11.041C74.029 10.86 73.667 10.498 73.305 10.679L64.255 13.575C63.893 13.575 63.712 13.756 63.712 14.118V19.005H61.359C61.178 19.005 60.816 19.186 60.816 19.548V26.426C60.816 26.607 60.997 26.969 61.359 26.969H63.712V35.476C63.712 41.449 66.97 44.164 72.943 44.164C75.477 44.164 77.83 43.621 79.459 42.716V35.476C79.459 35.114 79.097 34.933 78.916 35.114C78.011 35.476 77.106 35.657 76.382 35.657C74.753 35.657 73.848 34.933 73.848 33.123V26.969H79.097C79.278 26.969 79.64 26.788 79.64 26.426V20.634L86.518 43.44C86.518 43.621 86.88 43.983 87.061 43.983H94.663C94.844 43.983 95.206 43.802 95.206 43.44L98.464 33.304L100.093 38.553L101.541 43.44C101.541 43.621 101.903 43.983 102.084 43.983H109.686C109.867 43.983 110.229 43.802 110.229 43.44L117.107 20.634V43.44C117.107 43.621 117.288 43.983 117.65 43.983H126.881C127.062 43.983 127.424 43.802 127.424 43.44V19.367C127.424 19.186 127.243 18.824 127.062 18.824ZM139.189 10.679H129.958C129.777 10.679 129.415 10.86 129.415 11.222V43.259C129.415 43.44 129.596 43.802 129.958 43.802H139.189C139.37 43.802 139.732 43.621 139.732 43.259V11.041C139.732 10.86 139.551 10.679 139.189 10.679ZM151.497 10.679H141.904C141.723 10.679 141.361 10.86 141.361 11.222V16.833C141.361 17.014 141.542 17.376 141.904 17.376H151.497C151.678 17.376 152.04 17.195 152.04 16.833V11.041C152.04 10.86 151.859 10.679 151.497 10.679ZM151.316 18.824H142.085C141.904 18.824 141.542 19.005 141.542 19.367V43.078C141.542 43.259 141.723 43.621 142.085 43.621H151.316C151.497 43.621 151.859 43.44 151.859 43.078V19.367C151.859 19.186 151.678 18.824 151.316 18.824ZM180.457 31.132C180.457 38.01 174.665 43.983 166.52 43.983C158.556 43.983 152.764 38.01 152.764 31.132C152.764 24.254 158.556 18.281 166.701 18.281C174.665 18.281 180.457 24.254 180.457 31.132ZM170.683 31.313C170.683 28.779 168.873 26.788 166.701 26.969C164.348 26.969 162.719 28.96 162.719 31.313C162.719 33.666 164.529 35.657 166.701 35.657C169.054 35.657 170.683 33.666 170.683 31.313Z" fill="#F22F46"/>
</g>
<defs>
<clipPath id="clip0_1062_845">
<rect width="181" height="54.3" fill="white"/>
</clipPath>
</defs>
</svg>
