<svg width="186" height="53" viewBox="0 0 186 53" fill="none" xmlns="http://www.w3.org/2000/svg">
<g clip-path="url(#clip0_1095_921)">
<path d="M71.1569 16.969C69.3125 14.3586 65.791 13.249 62.7728 13.249C56.0659 13.249 49.9717 18.4107 49.9717 26.7384C49.9717 35.0646 56.0659 40.2279 62.7728 40.2279C65.6801 40.2279 69.3125 39.0624 71.1569 36.5094V39.7282H78.4828V13.8589H71.1569V16.9674V16.969ZM64.1702 33.4506C63.2816 33.4522 62.4015 33.2797 61.5802 32.9429C60.7589 32.6061 60.0127 32.1117 59.3842 31.488C58.7558 30.8643 58.2575 30.1236 57.9179 29.3083C57.5783 28.493 57.4042 27.6191 57.4054 26.7369C57.4054 22.9067 60.4799 20.076 64.1686 20.076C67.5776 20.076 70.9318 22.7406 70.9318 26.7369C70.9334 30.6757 67.748 33.4521 64.1702 33.4521V33.4506ZM103.488 16.9131C101.589 14.4145 98.0675 13.2505 95.104 13.2505C88.3971 13.2505 82.3044 18.4107 82.3044 26.7369C82.3044 35.0646 88.3971 40.2279 95.1056 40.2279C98.0128 40.2279 101.589 39.0624 103.49 36.5653V36.9533C103.49 43.7244 100.526 46.2774 95.8308 46.2774C93.033 46.2774 90.3524 44.6121 89.238 42.2811L83.1453 44.8884C85.3758 49.659 90.2368 52.766 95.8293 52.766C105.051 52.766 110.809 47.4941 110.809 36.1696V13.8589H103.488V16.9115V16.9131ZM96.4967 33.4521C95.6081 33.4536 94.728 33.2808 93.9068 32.9439C93.0856 32.6069 92.3395 32.1123 91.7112 31.4885C91.0828 30.8646 90.5847 30.1238 90.2454 29.3084C89.906 28.493 89.732 27.6191 89.7335 26.7369C89.7335 22.9067 92.8079 20.076 96.4967 20.076C99.9056 20.076 103.26 22.7406 103.26 26.7369C103.263 30.6757 100.076 33.4521 96.4967 33.4521ZM135.816 16.9131C133.915 14.4145 130.392 13.2505 127.431 13.2505C120.725 13.2505 114.631 18.4107 114.631 26.7369C114.631 35.0646 120.724 40.2279 127.432 40.2279C130.339 40.2279 133.915 39.0624 135.816 36.5653V36.9533C135.816 43.7244 132.853 46.2774 128.157 46.2774C125.359 46.2774 122.679 44.6121 121.564 42.2811L115.469 44.8837C117.705 49.6575 122.568 52.766 128.157 52.766C137.379 52.766 143.137 47.4941 143.137 36.1696V13.8589H135.816V16.9115V16.9131ZM128.829 33.4521C127.941 33.4538 127.06 33.2812 126.239 32.9443C125.418 32.6074 124.671 32.1129 124.043 31.489C123.414 30.8651 122.916 30.1242 122.577 29.3087C122.237 28.4933 122.063 27.6193 122.065 26.7369C122.065 22.9067 125.139 20.076 128.828 20.076C132.238 20.076 135.591 22.7406 135.591 26.7369C135.591 30.6757 132.406 33.4521 128.828 33.4521H128.829ZM177.213 0.0404053H184.536V39.722H177.213V0.0404053ZM160.607 13.0736C152.872 13.0736 147.017 18.9399 147.017 26.6205C147.017 34.4081 153.034 40.2745 161.09 40.2745C165.281 40.2745 169.202 38.676 171.834 35.8452L168.021 30.8852C166.194 32.6979 163.669 33.7656 161.09 33.7656C158.244 33.7656 156.096 32.4853 154.913 30.4041C159.533 29.1238 166.194 28.3245 173.177 28.2702C173.262 27.6711 173.297 27.0643 173.287 26.4591C173.232 18.4604 168.075 13.0736 160.607 13.0736ZM154.161 25.1803C154.699 21.8203 157.062 19.5809 160.393 19.5809C163.132 19.5809 165.173 21.0211 165.872 23.3676C161.842 23.5275 157.706 24.1684 154.161 25.1803ZM8.74688 40.2357C8.18709 40.2341 7.62998 40.159 7.09007 40.0122C1.38659 38.4835 0.31592 30.3498 0.0205078 22.5932L7.90128 22.2968C8.1076 27.7068 8.72812 30.3979 9.18296 31.6783C9.72533 31.1506 10.3474 30.4677 10.8273 29.9432C13.5329 26.979 17.2404 22.9222 22.8516 22.812H23.0798C28.863 22.812 32.6408 27.1668 35.1511 30.0596C35.595 30.5717 36.1733 31.2391 36.6703 31.7527C37.3299 30.5112 38.1083 28.1166 38.2412 24.949C38.4365 20.3056 37.1814 15.9276 34.7963 12.937C32.3376 9.85177 28.8411 8.34018 26.3434 7.61387L28.5551 0.0978271C33.7162 1.59545 38.0114 4.35325 40.9811 8.0748C46.8081 15.3844 47.1285 25.6117 44.8606 32.507C43.5007 36.6429 41.3141 39.2315 38.5413 39.9935C34.3539 41.142 31.4811 37.8286 29.1741 35.167C26.853 32.4899 25.0539 30.5903 23.0079 30.64C20.7978 30.6835 18.6987 32.9803 16.6683 35.2027C14.5895 37.4794 12.073 40.2357 8.74688 40.2357Z" fill="black"/>
</g>
<defs>
<clipPath id="clip0_1095_921">
<rect width="186" height="52.766" fill="white"/>
</clipPath>
</defs>
</svg>
