<svg width="262" height="38" viewBox="0 0 262 38" fill="none" xmlns="http://www.w3.org/2000/svg">
<g clip-path="url(#clip0_1062_832)">
<path d="M15.0159 11.817V24.8333C16.9303 23.8836 18.2708 22.23 18.9216 20.3653L19.0749 20.436C18.6533 25.0797 15.2072 29.723 9.84607 29.723C4.44649 29.723 0.463867 26.0295 0.463867 20.1189C0.463867 15.6867 3.60391 12.9071 7.62501 10.4093C7.03746 10.2677 6.43239 10.1968 5.82497 10.1982C3.06746 10.1982 1.45924 11.922 1.45924 13.6812H1.2295C1.19102 13.4348 1.19102 13.1889 1.19102 12.9425C1.19102 9.81148 2.99106 6.01196 7.35679 6.01196C10.1522 6.01196 12.2969 8.36892 15.5518 8.36892C16.8539 8.36892 18.4621 7.80593 19.1128 6.50425H19.2277C19.1898 8.79155 18.4242 11.1485 15.0159 11.817ZM17.0836 25.1499C15.1687 27.0141 13.101 28.5975 10.4204 28.5975C5.44243 28.5975 1.61316 25.009 1.61316 19.8023C1.61316 16.742 2.99163 15.0889 4.52345 13.1535H4.3701C3.41264 14.0331 0.885444 16.2492 0.885444 20.0134C0.885444 25.7831 4.82959 29.3362 9.99942 29.3362C13.599 29.3362 16.0498 27.0499 17.1606 25.1853L17.0836 25.1499ZM18.6149 8.08821C17.9641 9.21366 16.5856 10.6557 13.7902 10.6557C10.9948 10.6557 8.42912 8.89656 6.16958 8.89656C4.10131 8.89656 2.68493 10.1634 2.14848 11.1132L2.18696 11.1839C2.91467 10.5153 4.02492 9.84683 5.82497 9.84683C8.81165 9.84683 10.7266 11.5358 13.7517 11.5358C16.9687 11.5358 18.4236 9.60043 18.6918 8.12356L18.6149 8.08821ZM7.96907 10.5153C6.01623 12.38 4.21618 14.4204 4.21618 18.3956C4.21618 20.5764 5.02029 22.8278 6.82034 24.235L7.93059 23.7068V14.2795L6.89673 14.7718L6.70547 14.4199L12.0666 11.7458C10.6117 11.4651 9.30962 10.8673 7.96907 10.5153ZM14.5943 11.8872C14.3261 11.922 14.0584 11.922 13.7517 11.922C13.2159 11.922 12.7179 11.8872 12.2199 11.7812V22.0532L7.20344 24.5521C8.23729 25.2554 9.50089 25.6776 11.1091 25.6776C12.4112 25.6776 13.5599 25.4312 14.5938 25.009V11.8872H14.5943ZM9.07988 13.6817L8.35216 14.0685V23.4968L9.07988 23.1449V13.6817ZM31.0992 15.0182V27.1903C31.0992 30.5672 27.8443 32.8545 24.2063 33.5225L24.1299 33.3816C25.9299 32.5722 26.9638 30.9191 26.9638 29.16V16.5658L24.8961 14.8425L24.092 15.6514V25.4665L25.2407 26.4163V26.487L22.1391 29.5826L18.5781 26.5925V26.4516L19.9566 25.1146V9.5656L24.0156 5.59089L24.092 5.62572V15.0536L27.4238 11.7469L30.9085 14.632L31.5593 13.9983L31.866 14.2452L31.0992 15.0182ZM20.377 26.5218V26.4516L21.1811 25.7124V8.96726L20.377 9.74182V25.361L19.1513 26.487V26.5571L22.138 29.0196L22.6739 28.4566L20.377 26.5218ZM28.1889 16.0028L25.6996 14.0331L25.1637 14.5608L27.3848 16.3906V29.055C27.3848 29.8992 27.1935 30.7782 26.8489 31.2711L26.8874 31.3064C27.8449 30.6727 28.1895 29.723 28.1895 28.492V16.0028H28.1889ZM37.188 22.0891V23.8831L40.9024 26.5566L43.0471 24.4461L43.3538 24.7273L38.3758 29.6169L33.3208 25.8881L32.5552 26.6268L32.2485 26.3456L33.1296 25.5013V16.6011L40.3671 11.7463L44.1585 17.3752L37.188 22.0891ZM34.3541 25.1853V16.2492L33.55 16.7774V25.5372L38.2988 29.0903L38.9117 28.4925L34.3541 25.1853ZM37.265 14.3497L37.188 14.385V21.5968L40.5963 19.31L37.265 14.3497ZM38.2603 13.6463L37.5711 14.1033L40.9415 19.0636L41.6307 18.6062L38.2603 13.6463ZM69.1198 29.5821L63.7966 25.3605L59.7376 29.5821L54.2231 25.2196V18.3249H53.1508C52.1933 18.3249 51.6959 18.8879 51.4656 19.5559H51.3507C51.2285 19.1191 51.1643 18.6704 51.1595 18.2194C51.1595 17.3045 51.4277 14.9127 54.2231 14.9127V8.86173C54.2231 7.70093 52.7298 7.24347 52.7298 5.69538C52.7298 3.69087 54.7975 1.72067 58.5888 0.488647L58.7422 0.594175C57.3637 1.33339 56.636 2.03673 56.636 3.54947C56.636 5.8716 59.0868 5.27327 59.0868 8.93191V10.3391L63.5674 6.01196L68.2777 10.2684L72.7199 6.01196L77.0086 9.88166V22.898L69.1198 29.5821ZM55.4488 24.6571V17.2348H53.3041C52.1933 17.2348 51.6959 17.9028 51.6189 18.5012L51.6569 18.5365C52.04 18.1497 52.4231 17.9387 53.3036 17.9387H54.6436V25.0449L59.6985 29.0555L60.2729 28.4218L55.4488 24.6571ZM55.4488 8.5098C55.4488 7.06776 54.0703 6.57495 54.0703 5.66055C54.0703 4.3937 54.6062 3.33894 55.4488 2.35384L55.3724 2.31901C54.2237 3.1284 53.1513 4.43008 53.1513 5.6959C53.1513 6.96275 54.6447 7.56057 54.6447 8.68654V14.9132H55.4488V8.5098ZM63.5289 12.0281L60.6186 9.42472L59.0868 10.8668V23.3201L62.5715 26.029L63.5289 25.0439V12.0281ZM64.754 24.5869V11.5358L61.4991 8.5805L60.8863 9.14349L63.9499 11.8519V24.9737L69.1198 29.0898L69.7326 28.5616L64.754 24.5869ZM72.1834 11.5706L69.7711 9.45955L68.3926 10.7612V23.2852L72.1455 26.3102L72.1834 26.2754V11.5706ZM73.4085 11.0783L70.6131 8.5805L70.0387 9.14349L72.6044 11.3949V26.0997L73.4085 25.3958V11.0783ZM89.6803 29.5821L86.0422 26.5566L82.7873 29.5821L78.8047 26.3456L78.2682 26.8732L77.9621 26.592L78.6514 25.9234V16.4961L85.851 11.7115L89.987 14.6668L90.7147 13.9629L91.0214 14.2447L90.1788 15.0536V24.7985L92.208 26.5218L92.8593 25.8886L93.1655 26.135L89.6803 29.5821ZM79.877 25.6776V16.179L79.0729 16.7067V26.0295L82.7494 29.055L83.3623 28.492L79.877 25.6776ZM86.0422 16.4254L82.9022 14.174L82.7873 14.2447V24.4814L85.3915 26.5566L86.0422 25.9588V16.4254ZM87.2679 25.9941V15.8978L84.013 13.4701L83.2474 13.9624L86.4638 16.2845V26.3456L89.6808 29.0191L90.2552 28.4561L87.2679 25.9941ZM100.824 18.1139H104.768V25.6422L98.6794 29.5821C97.8753 28.7379 96.726 28.14 95.3096 28.14C94.1609 28.14 93.2413 28.492 92.0162 29.4417L91.8249 29.371L97.0332 22.4057H93.8162V15.8624L100.212 11.7817C100.977 12.3447 101.552 12.6607 102.548 12.6607C103.314 12.6607 104.424 12.5199 105.267 11.8872L105.42 11.9574L100.824 18.1139ZM96.5353 27.1196C95.4244 27.1196 94.5439 27.4715 93.7777 27.9638V28.0345C94.3906 27.7881 95.0034 27.7179 95.5778 27.7179C96.4583 27.7179 97.8373 28.1052 98.7563 29.0903L99.6374 28.4925C98.9091 27.7179 98.0286 27.1196 96.5353 27.1196ZM100.632 21.2095H98.4875L94.0069 27.1555L94.0454 27.2256C95.1557 26.487 96.228 25.9947 97.5301 25.9947C98.6788 25.9947 99.866 26.487 100.594 27.3312L100.632 27.2963V21.2095ZM95.0414 21.2095V15.5464L94.2372 16.074V21.9841H97.3388L97.9516 21.21H95.0414V21.2095ZM103.045 14.3143C102.241 14.8425 101.781 15.1237 100.441 15.1237C99.6747 15.1237 98.7558 14.8072 98.0286 14.1033L97.9522 14.1386V19.2747H99.4071L103.084 14.3492L103.045 14.3143ZM101.207 13.9978C100.518 13.9978 99.6374 13.6817 99.0625 12.9778L98.105 13.5757C98.8327 14.385 99.5219 14.7365 100.594 14.7365C101.283 14.7365 102.279 14.5602 103.313 13.7508L103.351 13.6458C102.7 13.8928 101.896 13.9978 101.207 13.9978ZM101.858 20.0492H99.3686L98.7942 20.7879H101.054V27.6124L101.858 27.0848V20.0492ZM117.98 15.0182V27.1903C117.98 30.5672 114.725 32.8545 111.087 33.5225L111.01 33.3816C112.81 32.5722 113.844 30.9191 113.844 29.16V16.5658L111.777 14.8425L110.972 15.6514V25.4665L112.121 26.4163V26.487L109.02 29.5826L105.459 26.5925V26.4516L106.837 25.1146V9.5656L110.896 5.59089L110.972 5.62572V15.0536L114.304 11.7469L117.789 14.632L118.44 13.9983L118.746 14.2452L117.98 15.0182ZM107.257 26.5218V26.4516L108.062 25.7124V8.96726L107.257 9.7413V25.3605L106.032 26.4864V26.5566L109.018 29.0191L109.554 28.4561L107.257 26.5218ZM115.069 16.0028L112.58 14.0331L112.044 14.5608L114.265 16.3906V29.055C114.265 29.8992 114.074 30.7782 113.729 31.2711L113.768 31.3064C114.725 30.6727 115.07 29.723 115.07 28.492V16.0028H115.069ZM124.95 29.5821L121.656 26.803L120.89 27.5417L120.583 27.26L121.464 26.3809V16.2144L119.856 14.8072L119.243 15.4408L118.937 15.1591L122.383 11.7115L125.446 14.2447L126.213 13.4706L126.557 13.717L125.6 14.6668V24.9394L127.438 26.5223L128.281 25.7129L128.587 25.9947L124.95 29.5821ZM122.69 26.135V15.6514L120.699 13.9629L120.163 14.5259L121.886 16.0387V26.487L124.95 29.0196L125.524 28.4566L122.69 26.135ZM123.839 11.4303L120.699 8.79207L123.571 5.97765L126.711 8.61585L123.839 11.4303ZM121.886 8.22857L121.312 8.7562L123.8 10.9021L124.375 10.3043L121.886 8.22857ZM141.142 29.5821L137.81 26.803V16.531L135.78 14.8425L134.708 15.8978V25.3958L135.895 26.4157V26.5566L132.755 29.5821L129.194 26.592V26.4864L130.573 25.1499V16.2845L128.773 14.7718L128.045 15.5105L127.739 15.2293L131.223 11.7463L134.708 14.5961V15.2994L138.346 11.7463L141.754 14.5608L142.52 13.8221L142.865 14.1033L141.946 14.9829V25.0439L143.669 26.5213L144.511 25.677L144.817 25.9583L141.142 29.5821ZM131.032 26.5218V26.4516C131.032 26.5218 131.798 25.7477 131.798 25.7477V15.7564L129.615 13.9271L129.079 14.4547L130.994 16.073V25.3599L129.806 26.4859V26.5561L132.755 29.0186L133.367 28.4208L131.032 26.5218ZM139.035 26.2405V15.9331L136.661 13.9629L136.049 14.5608L138.231 16.3547V26.592L141.103 29.0544L141.716 28.4561L139.035 26.2405ZM151.941 35.9143C150.678 34.6479 149.797 34.1203 148.609 34.1203C147.346 34.1203 145.89 34.5778 144.397 35.3165L144.282 35.2114L149.567 29.5826L145.814 26.8389L145.086 27.5428L144.78 27.2963L145.622 26.4521V16.4961L152.898 11.7115L156.957 14.6668L157.647 13.9629L157.953 14.2447L157.149 15.0536V27.0853C157.149 28.9146 158.259 28.8444 158.259 30.2158C158.259 31.7987 155.77 33.2761 151.941 35.9143ZM146.848 26.1698V16.2144L146.044 16.7425V26.487L149.834 29.3014L150.409 28.6677L146.848 26.1698ZM149.528 33.2059C148.265 33.2059 147.115 33.5578 146.044 34.2258V34.2965C146.733 34.0501 147.499 33.7335 148.801 33.7335C149.988 33.7335 150.983 34.3314 151.979 35.3872L152.745 34.8242C151.787 33.8042 150.639 33.2059 149.528 33.2059ZM154.2 29.8285C153.243 29.2655 153.013 28.6677 153.013 27.1549V26.5213L146.656 33.2756L146.694 33.3104C147.92 32.6424 149.03 32.1501 150.83 32.1501C152.362 32.1501 153.396 32.7126 154.583 33.6275C155.311 33.0645 155.808 32.502 155.808 31.6225C155.808 30.9191 155.157 30.3915 154.2 29.8285ZM153.013 16.4254L149.834 14.1392L149.757 14.2093V25.009L152.209 26.7682L153.013 25.924V16.4254ZM155.349 29.3362C154.353 28.6323 154.238 28.0345 154.238 26.5218V15.8276L151.021 13.4353L150.294 13.8928L153.434 16.179V27.0141C153.434 28.5268 153.511 28.9494 154.545 29.5821C155.464 30.1451 156.191 30.7429 156.191 31.5523C156.191 31.7628 156.153 32.1148 156.153 32.1148L156.191 32.1501C156.383 31.9739 156.612 31.6926 156.612 31.2352C156.613 30.4617 156.191 29.934 155.349 29.3362ZM164.54 29.5821L161.017 27.0494L160.289 27.7881L159.983 27.5064L160.825 26.6621V14.3497H158.604L158.527 14.2795L159.867 12.4497H160.824V10.0932L164.884 6.11801L164.96 6.18871V12.4502H168.024L168.101 12.5209L166.76 14.3502H164.96V25.0096L167.067 26.4875L167.871 25.6781L168.177 25.9593L164.54 29.5821ZM162.051 9.4949L161.246 10.3043V12.4502H162.051V9.4949ZM162.051 26.3107V14.3497H161.246V26.7328L164.501 29.055L165.076 28.492L162.051 26.3107ZM180.7 15.3701V25.2201L174.228 29.6174L169.364 26.2405L168.79 26.8384L168.483 26.5566L169.173 25.8533V16.2144L175.951 11.7463L180.47 14.9834L181.197 14.2795L181.504 14.5608L180.7 15.3701ZM170.399 25.5019V15.8978L169.594 16.4254V25.8886L174.19 29.1251L174.917 28.6329L170.399 25.5019ZM176.564 16.531L173.347 14.2088L173.309 14.2442V24.7273L176.564 26.9787V16.531ZM177.79 15.8978L174.228 13.3646L173.501 13.8569L176.986 16.3194V27.2605L177.79 26.698V15.8978ZM195.329 29.5821L191.997 26.803V16.531L189.967 14.8425L188.895 15.8978V25.3958L190.082 26.4157V26.5566L186.942 29.5821L183.38 26.592V26.4864L184.759 25.1499V16.2845L182.959 14.7718L182.231 15.5105L181.925 15.2293L185.41 11.7463L188.895 14.5961V15.2994L192.533 11.7463L195.941 14.5608L196.706 13.8221L197.051 14.1033L196.132 14.9829V25.0439L197.855 26.5213L198.698 25.677L199.004 25.9583L195.329 29.5821ZM185.218 26.5218V26.4516C185.218 26.5218 185.984 25.7477 185.984 25.7477V15.7564L183.802 13.9271L183.266 14.4547L185.181 16.073V25.3599L183.993 26.4859V26.5561L186.942 29.0186L187.555 28.4208L185.218 26.5218ZM193.222 26.2405V15.9331L190.848 13.9629L190.235 14.5608L192.418 16.3547V26.592L195.289 29.0544L195.902 28.4561L193.222 26.2405ZM218.985 29.5821C217.913 28.5268 217.531 28.1749 216.266 27.8583V34.7535L216.189 34.7883L214.658 33.5214L210.216 37.2856L210.139 37.2508V27.7881C208.799 28.0693 207.382 28.703 206.003 29.9688L205.926 29.934C206.194 27.2251 207.649 25.2201 210.138 24.4461V17.5862H209.334C208.224 17.5862 207.611 18.1139 207.075 19.0636H206.96C206.845 18.7476 206.768 18.2542 206.768 17.4459C206.768 15.968 207.955 14.4204 209.909 14.4204H210.138V10.6209L208.568 9.31919L207.802 10.0231L207.534 9.77665L211.402 6.01248L215.001 9.03796V12.2391L215.844 11.3949V7.34899H216.265V11.043L221.358 6.01196L225.685 9.63577V24.9389L218.985 29.5821ZM210.14 26.4864C208.57 26.7677 207.46 27.6472 206.732 28.808L206.77 28.8787C207.843 28.0345 208.838 27.6478 210.14 27.366V26.4864ZM211.365 16.3906H209.259C207.804 16.3906 207.229 17.2348 207.192 18.2199L207.229 18.2547C207.689 17.5509 208.148 17.305 209.067 17.2H210.561V36.3723L211.365 35.6684V16.3906ZM211.365 10.0579L209.45 8.44014L208.838 9.03796L210.561 10.4446V14.4199H211.365V10.0579ZM215.846 12.0629L215.003 12.8723V33.2412L215.846 33.9451V12.0629ZM220.862 11.254L218.603 9.35454L216.267 11.6767V24.0593C218.258 24.2355 219.637 24.7632 220.824 25.9588L220.862 25.924V11.254ZM216.267 26.4864V27.4014C217.569 27.6826 218.105 28.0345 219.024 29.0191L219.905 28.3859C218.985 27.3307 218.066 26.698 216.267 26.4864ZM222.088 10.6916L219.483 8.47497L218.871 9.07279L221.283 11.1132V27.4715L222.088 26.9085V10.6916ZM239.052 15.3701V25.2201L232.579 29.6174L227.716 26.2405L227.141 26.8384L226.835 26.5566L227.525 25.8533V16.2144L234.303 11.7463L238.822 14.9834L239.549 14.2795L239.856 14.5608L239.052 15.3701ZM228.751 25.5019V15.8978L227.946 16.4254V25.8886L232.542 29.1251L233.269 28.6329L228.751 25.5019ZM234.916 16.531L231.7 14.2088L231.661 14.2442V24.7273L234.916 26.9787V16.531ZM236.142 15.8978L232.58 13.3646L231.853 13.8569L235.338 16.3194V27.2605L236.142 26.698V15.8978ZM247.936 18.1139H251.88V25.6422L245.792 29.5821C244.987 28.7379 243.839 28.14 242.422 28.14C241.273 28.14 240.354 28.492 239.128 29.4417L238.937 29.371L244.145 22.4057H240.928V15.8624L247.323 11.7817C248.09 12.3447 248.663 12.6607 249.659 12.6607C250.425 12.6607 251.535 12.5199 252.378 11.8872L252.532 11.9574L247.936 18.1139ZM243.647 27.1196C242.537 27.1196 241.656 27.4715 240.89 27.9638V28.0345C241.503 27.7881 242.115 27.7179 242.69 27.7179C243.571 27.7179 244.949 28.1052 245.868 29.0903L246.749 28.4925C246.022 27.7179 245.141 27.1196 243.647 27.1196ZM247.745 21.2095H245.6L241.12 27.1555L241.158 27.2256C242.268 26.487 243.341 25.9947 244.643 25.9947C245.792 25.9947 246.979 26.487 247.706 27.3312L247.744 27.2963V21.2095H247.745ZM242.154 21.2095V15.5464L241.349 16.074V21.9841H244.451L245.064 21.21H242.154V21.2095ZM250.157 14.3143C249.353 14.8425 248.894 15.1237 247.553 15.1237C246.786 15.1237 245.867 14.8072 245.14 14.1033L245.063 14.1386V19.2747H246.518L250.195 14.3492L250.157 14.3143ZM248.319 13.9978C247.629 13.9978 246.749 13.6817 246.175 12.9778L245.217 13.5757C245.945 14.385 246.634 14.7365 247.706 14.7365C248.396 14.7365 249.392 14.5602 250.425 13.7508L250.463 13.6458C249.813 13.8928 249.009 13.9978 248.319 13.9978ZM248.97 20.0492H246.481L245.907 20.7879H248.166V27.6124L248.97 27.0848V20.0492ZM258.237 29.5821L254.714 27.0494L253.987 27.7881L253.68 27.5064L254.522 26.6621V14.3497H252.301L252.225 14.2795L253.565 12.4497H254.522V10.0932L258.581 6.11801L258.658 6.18871V12.4502H261.721L261.798 12.5209L260.458 14.3502H258.658V25.0096L260.765 26.4875L261.569 25.6781L261.875 25.9593L258.237 29.5821ZM255.748 9.4949L254.944 10.3043V12.4502H255.748V9.4949ZM255.748 26.3107V14.3497H254.944V26.7328L258.199 29.055L258.773 28.492L255.748 26.3107Z" fill="#231F20"/>
</g>
<defs>
<clipPath id="clip0_1062_832">
<rect width="262" height="37.4286" fill="white"/>
</clipPath>
</defs>
</svg>
