<svg width="215" height="46" viewBox="0 0 215 46" fill="none" xmlns="http://www.w3.org/2000/svg">
<g clip-path="url(#clip0_1062_880)">
<path d="M87.0857 11.4314L81.0127 33.6884H76.9428L72.0463 17.4408L67.1497 33.6884H63.0481L56.9751 11.4314H61.3629L65.2738 27.2974L70.075 11.4314H74.1448L78.946 27.3292L82.8568 11.4314H87.0857ZM101.515 22.3373V33.6884H97.6672V31.3037C96.565 33.1267 94.848 34.0382 92.5163 34.0382C91.0749 34.0382 89.8243 33.6354 88.7644 32.8299C87.747 32.0032 87.2382 30.7844 87.2382 29.1734C87.2382 26.333 88.9764 24.6584 92.4527 24.1497L95.7595 23.6727C97.0313 23.482 97.6672 22.9096 97.6672 21.9558C97.6672 21.4046 97.4129 20.9913 96.9041 20.7157C96.4166 20.419 95.7701 20.2706 94.9646 20.2706C93.9259 20.2706 93.131 20.472 92.5799 20.8747C92.05 21.2774 91.679 21.8816 91.4671 22.6871H87.7152C88.0331 20.8429 88.8492 19.4439 90.1634 18.49C91.4989 17.5149 93.2158 17.0274 95.3144 17.0274C97.2857 17.0274 98.8119 17.4726 99.893 18.3628C100.974 19.2319 101.515 20.5567 101.515 22.3373ZM97.5719 26.8205V25.9302C97.1903 26.0786 96.4908 26.2376 95.4733 26.4072L93.82 26.6615C92.0606 26.8947 91.1809 27.626 91.1809 28.8554C91.1809 30.1273 91.9652 30.7632 93.5338 30.7632C94.742 30.7632 95.7065 30.3816 96.4272 29.6185C97.1903 28.8554 97.5719 27.9228 97.5719 26.8205ZM114.021 30.1909V33.6884H111.445C109.707 33.6884 108.435 33.3174 107.63 32.5755C106.824 31.8124 106.422 30.4134 106.422 28.3785V20.8747H103.433V17.3136H106.422V13.6253L110.364 12.5442V17.3136H113.639V20.8747H110.364V28.2195C110.364 28.8978 110.502 29.396 110.778 29.7139C111.074 30.0319 111.594 30.1909 112.336 30.1909H114.021ZM130.835 26.6933H119.42C119.462 27.9652 119.844 28.9402 120.565 29.6185C121.307 30.2969 122.303 30.636 123.554 30.636C125.334 30.636 126.489 30.0107 127.019 28.7601H130.708C130.284 30.4346 129.393 31.7383 128.037 32.6709C126.68 33.5824 125.133 34.0382 123.395 34.0382C121.169 34.0382 119.314 33.2963 117.83 31.8124C116.346 30.3286 115.605 28.2619 115.605 25.6123C115.605 22.9202 116.357 20.8217 117.862 19.3167C119.367 17.7905 121.243 17.0274 123.49 17.0274C125.61 17.0274 127.358 17.7375 128.736 19.1577C130.135 20.5567 130.835 22.5281 130.835 25.0717V26.6933ZM119.515 23.7999H126.956C126.956 22.7401 126.638 21.9134 126.002 21.3198C125.387 20.7263 124.539 20.4296 123.458 20.4296C122.398 20.4296 121.519 20.7157 120.819 21.288C120.12 21.8604 119.685 22.6977 119.515 23.7999ZM143.119 17.1228V20.9701H142.07C139.229 20.9701 137.809 22.5387 137.809 25.6759V33.6884H133.866V17.3136H137.777V19.7301C138.562 17.9919 139.982 17.1228 142.038 17.1228H143.119ZM158.523 28.6011C158.523 30.3816 157.855 31.7277 156.52 32.6391C155.163 33.5718 153.521 34.0382 151.592 34.0382C149.663 34.0382 147.988 33.5824 146.568 32.6709C145.148 31.7595 144.374 30.3498 144.247 28.4421H148.221C148.349 29.2052 148.72 29.7881 149.334 30.1909C149.97 30.5936 150.786 30.795 151.783 30.795C153.69 30.795 154.644 30.2015 154.644 29.0144C154.644 28.5269 154.443 28.1877 154.04 27.997C153.658 27.785 152.853 27.573 151.624 27.361C150.034 27.0855 148.836 26.8205 148.031 26.5661C145.847 25.909 144.756 24.4676 144.756 22.2419C144.756 20.4826 145.37 19.1789 146.6 18.331C147.85 17.462 149.408 17.0274 151.274 17.0274C153.266 17.0274 154.877 17.5149 156.107 18.49C157.357 19.4439 158.036 20.8005 158.142 22.5599H154.294C154.125 21.0549 153.129 20.3024 151.306 20.3024C150.436 20.3024 149.769 20.472 149.302 20.8111C148.836 21.1291 148.603 21.5636 148.603 22.1147C148.603 22.6659 148.847 23.058 149.334 23.2912C149.843 23.5244 150.744 23.7363 152.037 23.9271C153.436 24.1391 154.559 24.3616 155.407 24.5948C157.485 25.1883 158.523 26.5238 158.523 28.6011ZM175.925 23.1322V33.6884H171.982V23.482C171.982 22.5493 171.717 21.8286 171.187 21.3198C170.657 20.8111 169.905 20.5567 168.93 20.5567C167.785 20.5567 166.895 20.9383 166.259 21.7014C165.644 22.4433 165.337 23.4926 165.337 24.8492V33.6884H161.394V11.0816H165.337V19.7301C165.867 18.8186 166.513 18.1403 167.277 17.6951C168.04 17.25 169.046 17.0274 170.297 17.0274C172.141 17.0274 173.54 17.5573 174.494 18.6172C175.448 19.6559 175.925 21.1609 175.925 23.1322ZM194.027 26.6933H182.612C182.654 27.9652 183.036 28.9402 183.757 29.6185C184.498 30.2969 185.495 30.636 186.745 30.636C188.526 30.636 189.681 30.0107 190.211 28.7601H193.899C193.475 30.4346 192.585 31.7383 191.229 32.6709C189.872 33.5824 188.325 34.0382 186.586 34.0382C184.361 34.0382 182.506 33.2963 181.022 31.8124C179.538 30.3286 178.796 28.2619 178.796 25.6123C178.796 22.9202 179.549 20.8217 181.054 19.3167C182.559 17.7905 184.435 17.0274 186.682 17.0274C188.801 17.0274 190.55 17.7375 191.928 19.1577C193.327 20.5567 194.027 22.5281 194.027 25.0717V26.6933ZM182.707 23.7999H190.148C190.148 22.7401 189.83 21.9134 189.194 21.3198C188.579 20.7263 187.731 20.4296 186.65 20.4296C185.59 20.4296 184.71 20.7157 184.011 21.288C183.311 21.8604 182.877 22.6977 182.707 23.7999ZM212.352 11.0816V33.6884H208.472V31.1765C208.027 32.0668 207.338 32.7663 206.406 33.2751C205.494 33.7838 204.456 34.0382 203.29 34.0382C201.149 34.0382 199.389 33.2963 198.012 31.8124C196.634 30.3074 195.945 28.1983 195.945 25.4851C195.945 22.8142 196.634 20.7369 198.012 19.2531C199.389 17.7693 201.149 17.0274 203.29 17.0274C204.392 17.0274 205.399 17.25 206.31 17.6951C207.222 18.1191 207.921 18.7126 208.409 19.4757V11.0816H212.352ZM208.504 25.4851C208.504 23.9165 208.08 22.6977 207.232 21.8286C206.406 20.9595 205.399 20.5249 204.212 20.5249C202.961 20.5249 201.933 20.9701 201.128 21.8604C200.343 22.7295 199.951 23.9377 199.951 25.4851C199.951 27.0113 200.343 28.2195 201.128 29.1098C201.933 29.9789 202.961 30.4134 204.212 30.4134C205.399 30.4134 206.406 29.9789 207.232 29.1098C208.08 28.2195 208.504 27.0113 208.504 25.4851Z" fill="#182342"/>
<path d="M22.7113 0C10.1701 0 0 10.1701 0 22.7113H11.3556C11.3556 12.7728 15.1393 2.83891 22.7113 0Z" fill="#FF3300"/>
<path d="M34.0671 22.7104H45.4227C45.4227 10.1697 35.2526 0 22.7114 0C30.2834 2.8388 34.0671 12.7723 34.0671 22.7104Z" fill="#FFCC00"/>
<path d="M34.0671 22.7112C34.0671 32.6497 30.2834 42.5836 22.7114 45.4225C35.2526 45.4225 45.4227 35.2524 45.4227 22.7112H34.0671Z" fill="#7AD1DA"/>
<path d="M11.3554 22.7112H0C0 35.2524 10.1699 45.4225 22.7107 45.4225C15.139 42.5836 11.3554 32.6497 11.3554 22.7112Z" fill="#0033CC"/>
<path d="M34.0671 22.7112H22.7114V45.4225C30.2834 42.5836 34.0671 32.6497 34.0671 22.7112Z" fill="#33B5CC"/>
<path d="M34.0671 22.7104C34.0671 12.7723 30.2834 2.8388 22.7114 0V22.7104H34.0671Z" fill="#FF9966"/>
<path d="M11.3555 22.7104H22.7111C22.7111 2.8388 22.7111 0 22.7111 0C15.1392 2.8388 11.3555 12.7723 11.3555 22.7104Z" fill="#FF6633"/>
<path d="M11.3555 22.7112C11.3555 32.6497 15.1392 42.5836 22.7111 45.4225C22.7111 45.4225 22.7111 42.5836 22.7111 22.7112H11.3555Z" fill="#0D59F2"/>
</g>
<defs>
<clipPath id="clip0_1062_880">
<rect width="215" height="45.4225" fill="white"/>
</clipPath>
</defs>
</svg>
