<svg width="206" height="48" viewBox="0 0 206 48" fill="none" xmlns="http://www.w3.org/2000/svg">
<path fill-rule="evenodd" clip-rule="evenodd" d="M10.2106 3.80841H64.8217C65.6425 3.80841 66.4553 3.9699 67.2136 4.28366C67.9719 4.59742 68.6608 5.0573 69.2411 5.63702C69.8214 6.21675 70.2816 6.90496 70.5955 7.66235C70.9094 8.41974 71.0707 9.23146 71.0704 10.0511V30.8576C71.0704 31.6769 70.9087 32.4883 70.5947 33.2452C70.2806 34.0021 69.8203 34.6899 69.24 35.2691C68.6597 35.8483 67.9709 36.3077 67.2128 36.621C66.4547 36.9343 65.6422 37.0954 64.8217 37.0951H45.2359L47.9165 43.6754L36.0847 37.0951H10.2027C8.54724 37.093 6.9603 36.435 5.79024 35.2655C4.62017 34.0961 3.96261 32.5108 3.96191 30.8576V10.0511C3.96191 8.39592 4.62017 6.80846 5.79195 5.6378C6.96372 4.46713 8.55309 3.80911 10.2106 3.80841Z" fill="#7D57A4"/>
<path d="M7.33983 9.46039C7.54651 9.20244 7.80737 8.99293 8.10399 8.84665C8.4006 8.70037 8.72576 8.62088 9.0565 8.61379C10.4492 8.51708 11.2485 9.17291 11.4545 10.5813C12.3138 16.2939 13.2337 21.1432 14.2144 25.1292L20.2254 13.7145C20.7694 12.6842 21.457 12.1391 22.288 12.0793C23.4923 11.9949 24.245 12.7607 24.5461 14.3765C25.1118 17.5718 25.9811 20.706 27.1422 23.7367C27.8641 16.7845 29.0693 11.7584 30.7578 8.65862C30.9207 8.31095 31.1755 8.01425 31.4948 7.80047C31.814 7.58669 32.1856 7.46393 32.5695 7.44542C33.1946 7.39411 33.8152 7.58805 34.2994 7.98608C34.5466 8.17245 34.7497 8.41081 34.8944 8.68427C35.039 8.95772 35.1217 9.2596 35.1366 9.56852C35.1808 10.0245 35.0889 10.4833 34.8725 10.8872C33.802 12.8706 32.9217 16.1682 32.2315 20.7801C31.5501 25.2321 31.2983 28.7143 31.4762 31.2269C31.5386 31.8427 31.4279 32.4638 31.1566 33.0203C31.0249 33.3012 30.8197 33.5414 30.5626 33.7155C30.3055 33.8896 30.0062 33.9911 29.6961 34.0093C28.9725 34.0621 28.2515 33.7219 27.5252 32.9939C24.9757 30.3829 22.9509 26.498 21.4508 21.3393C19.6901 24.8558 18.3696 27.4862 17.4893 29.2304C15.8783 32.3249 14.4979 33.9118 13.3482 33.9909C12.6016 34.0436 11.966 33.4177 11.4413 32.113C10.0328 28.5315 8.52213 21.6021 6.90934 11.325C6.8456 11.0015 6.851 10.6681 6.92518 10.3468C6.99937 10.0255 7.14067 9.72342 7.33983 9.46039Z" fill="white"/>
<path d="M66.2901 13.7646C65.837 12.9479 65.2092 12.2409 64.4515 11.6939C63.6938 11.1469 62.8247 10.7733 61.906 10.5997C61.4162 10.4963 60.9171 10.4433 60.4165 10.4415C57.7895 10.4415 55.6433 11.8068 53.9776 14.5374C52.5593 16.8594 51.8209 19.5319 51.8463 22.2518C51.8463 24.3617 52.2865 26.1701 53.1669 27.6769C53.6195 28.4945 54.2475 29.2021 55.0058 29.7492C55.7641 30.2964 56.6341 30.6694 57.5536 30.8418C58.0422 30.9474 58.5406 31.0014 59.0405 31.0027C61.6938 31.0027 63.8392 29.6374 65.4767 26.9068C66.8949 24.5681 67.6338 21.8815 67.6106 19.1475C67.6106 17.0376 67.1705 15.2433 66.2901 13.7646ZM62.8304 21.363C62.4553 23.1564 61.7599 24.5076 60.744 25.4166C59.9393 26.1393 59.2016 26.4338 58.5308 26.3002C57.86 26.1665 57.3221 25.5758 56.9171 24.5278C56.6068 23.733 56.4431 22.8886 56.4338 22.0355C56.4312 21.3605 56.4985 20.687 56.6345 20.0258C56.896 18.8558 57.388 17.7495 58.0818 16.7712C58.9938 15.4332 59.9464 14.8714 60.9394 15.0859C61.6102 15.2213 62.1472 15.8103 62.5504 16.853C62.8597 17.6472 63.0225 18.4906 63.0311 19.3427C63.0345 20.0212 62.9673 20.6983 62.8304 21.363Z" fill="white"/>
<path d="M49.1016 13.7646C48.6485 12.9479 48.0208 12.2409 47.263 11.6939C46.5053 11.1469 45.6362 10.7733 44.7175 10.5997C44.2277 10.4963 43.7286 10.4433 43.228 10.4415C40.5993 10.4415 38.4539 11.8068 36.7918 14.5374C35.3715 16.8587 34.6321 19.5315 34.6579 22.2518C34.6579 24.3617 35.098 26.1701 35.9784 27.6769C36.4303 28.4951 37.0581 29.2032 37.8165 29.7504C38.575 30.2976 39.4453 30.6703 40.3651 30.8418C40.8537 30.9474 41.3521 31.0014 41.852 31.0027C44.5071 31.0027 46.6534 29.6374 48.2909 26.9068C49.7141 24.5693 50.4592 21.8831 50.4433 19.1475C50.4433 17.0376 50.0031 15.2433 49.1228 13.7646H49.1016ZM45.6419 21.363C45.2669 23.1599 44.5696 24.5129 43.5502 25.4219C42.7438 26.1446 42.0061 26.4391 41.337 26.3054C40.668 26.1718 40.1318 25.5793 39.7286 24.5278C39.4184 23.733 39.2546 22.8886 39.2453 22.0355C39.2428 21.3605 39.31 20.687 39.4461 20.0258C39.7098 18.8566 40.2016 17.7506 40.8933 16.7712C41.8019 15.4367 42.7544 14.8767 43.7509 15.0912C44.4218 15.2266 44.9579 15.8156 45.3593 16.8583C45.6694 17.6523 45.8331 18.4958 45.8426 19.348C45.8453 20.023 45.7781 20.6965 45.6419 21.3577V21.363Z" fill="white"/>
<path d="M78.0083 13.5299C76.1824 15.3427 75.2695 17.6399 75.2695 20.4214C75.2695 23.4228 76.1745 25.8466 77.9845 27.6928C79.7945 29.5389 82.1617 30.4585 85.0862 30.4515C86.055 30.4279 87.0165 30.2781 87.9465 30.0058V25.5828C87.1374 25.8387 86.2964 25.9798 85.448 26.0022C83.9955 26.0022 82.8334 25.5151 81.9619 24.5411C81.0904 23.567 80.6555 22.2439 80.6572 20.5718C80.6572 19.0192 81.0895 17.7392 81.954 16.7317C82.3488 16.2506 82.8476 15.8649 83.4129 15.6037C83.9783 15.3424 84.5955 15.2123 85.2183 15.2231C86.1415 15.2297 87.0595 15.3628 87.9465 15.6187V11.1747C86.9679 10.926 85.9613 10.8046 84.9515 10.8134C82.1538 10.8134 79.8394 11.7189 78.0083 13.5299ZM97.0448 10.8134C94.5147 10.8134 92.5383 11.6538 91.1157 13.3347C89.6931 15.0156 88.9888 17.3594 89.0029 20.3661C89.0029 23.6259 89.7071 26.1191 91.1157 27.8457C92.5242 29.5723 94.5719 30.4365 97.2587 30.4383C99.8557 30.4383 101.856 29.5741 103.259 27.8457C104.662 26.1174 105.368 23.6927 105.377 20.5718C105.377 17.4438 104.664 15.0367 103.238 13.3506C101.812 11.6644 99.7474 10.8187 97.0448 10.8134ZM99.2184 25.0554C98.9918 25.424 98.671 25.7258 98.2891 25.9298C97.9071 26.1337 97.4776 26.2324 97.0448 26.2158C96.6353 26.228 96.2304 26.1258 95.8759 25.9208C95.5213 25.7158 95.231 25.4161 95.0376 25.0554C94.5781 24.2852 94.3483 22.7441 94.3483 20.432C94.3483 16.8328 95.2577 15.0332 97.0765 15.0332C99.0132 15.0332 99.9816 16.8539 99.9816 20.4953C99.9763 22.7564 99.7219 24.2764 99.2184 25.0554ZM118.944 11.3409L117.962 15.5291C117.706 16.6016 117.468 17.7005 117.246 18.8258L116.697 21.727C116.168 18.8311 115.453 15.3717 114.55 11.3488H108.171L105.776 29.9952H110.554L111.853 17.1458L115.115 29.9952H118.53L121.641 17.1431L122.99 29.9662H127.984L125.449 11.3409H118.944ZM141.794 11.3409L140.812 15.5291C140.557 16.6016 140.318 17.7005 140.096 18.8258L139.547 21.727C139.019 18.8311 138.302 15.3717 137.397 11.3488H131.022L128.618 29.9768H133.396L134.693 17.1273L137.957 29.9768H141.369L144.491 17.1431L145.84 29.9662H150.835L148.304 11.3409H141.794ZM157.3 22.6026H161.79V18.7256H157.3V15.297H162.46V11.3409H152.255V29.9873H162.495V25.9969H157.3V22.6026ZM176.703 19.6619C177.388 18.5763 177.636 17.2725 177.398 16.0119C177.16 14.7513 176.453 13.6273 175.42 12.8653C174.045 11.849 172.17 11.3409 169.794 11.3409H163.916V29.9873H168.963V21.4843H169.044L173.122 29.9768H178.452L174.422 21.5687C175.363 21.1867 176.161 20.5199 176.703 19.6619ZM168.963 19.3612V14.933C170.158 14.9611 171.015 15.1616 171.532 15.5343C172.05 15.9071 172.309 16.5225 172.309 17.3805C172.309 18.6641 171.193 19.3243 168.963 19.3612ZM180.472 13.5299C178.641 15.3427 177.725 17.6399 177.725 20.4214C177.725 23.4228 178.632 25.8422 180.446 27.6796C182.259 29.517 184.626 30.4365 187.547 30.4383C188.519 30.4199 189.484 30.2745 190.418 30.0058V25.5828C189.609 25.8387 188.768 25.9798 187.92 26.0022C186.466 26.0022 185.303 25.5151 184.431 24.5411C183.56 23.567 183.122 22.2439 183.118 20.5718C183.118 19.0192 183.552 17.7392 184.418 16.7317C184.813 16.2506 185.311 15.8649 185.877 15.6037C186.442 15.3424 187.059 15.2123 187.682 15.2231C188.608 15.2291 189.529 15.3622 190.418 15.6187V11.1747C189.437 10.9253 188.428 10.8039 187.415 10.8134C184.618 10.8134 182.303 11.7189 180.472 13.5299ZM196.847 25.9969V22.6026H201.336V18.7256H196.847V15.297H202.007V11.3409H191.8V29.9873H202.039V25.9969H196.847Z" fill="black"/>
</svg>
