<svg width="232" height="74" viewBox="0 0 232 74" fill="none" xmlns="http://www.w3.org/2000/svg">
<path d="M122.706 23.249V24.8793C122.706 31.613 117.213 37.0709 110.435 37.0709C103.658 37.0709 98.1647 31.613 98.1647 24.8793V23.249H92.6001V24.8793C92.6001 31.8257 96.6665 38.0632 102.945 40.9693C96.6665 43.8755 92.6001 50.113 92.6001 57.0594V58.6897H98.1647V57.0594C98.1647 50.3257 103.658 44.7969 110.435 44.7969C117.213 44.7969 122.706 50.3257 122.706 57.0594V58.6897H128.27V57.0594C128.27 50.113 124.204 43.8755 117.926 40.9693C124.204 38.0632 128.27 31.8257 128.27 24.8793V23.249H122.706ZM165.938 40.9693C165.938 31.046 157.877 23.249 148.032 23.249C141.683 23.249 135.69 26.6513 132.48 32.3927C128.556 39.4808 129.911 48.341 135.833 53.8697C139.257 57.0594 143.609 58.6897 148.032 58.6897C151.385 58.6897 154.667 57.7682 157.591 55.9253V48.6954C155.166 51.6015 151.67 53.1609 148.103 53.1609C146.034 53.1609 143.965 52.6648 142.039 51.6015C136.831 48.6954 134.548 42.4579 136.546 36.8582C138.544 31.2586 144.322 27.9272 150.172 28.9195C156.093 29.9828 160.374 35.0153 160.374 40.9693V58.6897H165.938V40.9693ZM187.035 28.8487V23.3199H174.765V3.54406H169.2V40.9693C169.2 50.751 177.19 58.6897 187.035 58.6897V53.1609C180.258 53.1609 174.765 47.7031 174.765 40.9693V28.8487H187.035ZM226.131 40.9693C226.131 31.046 218.071 23.249 208.226 23.249C201.877 23.249 195.884 26.6513 192.674 32.3927C188.75 39.4808 190.106 48.341 196.027 53.8697C199.451 57.0594 203.803 58.6897 208.226 58.6897C211.579 58.6897 214.861 57.7682 217.786 55.9253V48.6954C215.36 51.6015 211.865 53.1609 208.298 53.1609C206.229 53.1609 204.16 52.6648 202.234 51.6015C197.026 48.6954 194.743 42.4579 196.74 36.8582C198.738 31.2586 204.517 27.9272 210.366 28.9195C216.288 29.9828 220.568 35.0153 220.568 40.9693V58.6897H226.131V40.9693Z" fill="black"/>
<path d="M62.6982 70.5426C67.2987 65.9823 70.3767 60.2805 71.2552 54.6914C72.1337 49.1021 70.7407 44.0833 67.3827 40.7391L50.0366 57.9331L62.6982 70.5426Z" fill="#06D6A0"/>
<path d="M17.3459 70.6411C12.7454 66.0809 9.66733 60.379 8.78882 54.7898C7.91032 49.2006 9.3033 44.1818 12.6614 40.8375L30.0074 58.0316L17.3459 70.6411Z" fill="#FFBE0B"/>
<path d="M7.23 21.8575C7.2376 28.3141 9.82637 34.5031 14.4268 39.0632L14.4272 39.0628L31.7711 56.2546C36.3608 51.6838 38.9349 45.4887 38.9273 39.0322C38.9198 32.5756 36.3309 26.3865 31.7305 21.8263L31.73 21.8267L14.3863 4.63497C9.79658 9.20578 7.22239 15.4009 7.23 21.8575Z" fill="#FF0075"/>
<path d="M72.8141 21.7588C72.8065 28.2154 70.2177 34.4046 65.6173 38.9647L65.6168 38.9641L48.273 56.1559C43.6834 51.5851 41.1092 45.3899 41.1167 38.9334C41.1244 32.4769 43.7131 26.2877 48.3136 21.7276L48.3141 21.7281L65.6579 4.5364C70.2476 9.10722 72.8217 15.3023 72.8141 21.7588Z" fill="#0076FF"/>
</svg>
