<svg width="133" height="133" viewBox="0 0 133 133" fill="none" xmlns="http://www.w3.org/2000/svg">
<g clip-path="url(#clip0_1301_643)">
<path d="M119.137 13.8964C106.59 1.39702 88.5476 0 66.5 0C44.4246 0 26.3553 1.41313 13.8128 13.9463C1.27207 26.4743 0 44.5145 0 66.5647C0 88.6185 1.27207 106.664 13.818 119.197C26.3597 131.732 44.4269 133 66.5 133C88.5733 133 106.637 131.732 119.179 119.197C131.724 106.662 133 88.6185 133 66.5647C133 44.4862 131.711 26.4265 119.137 13.8964Z" fill="#FF6900"/>
<path d="M105.089 41.2001C105.546 41.2001 105.926 41.5682 105.926 42.0213V91.2172C105.926 91.6627 105.546 92.0326 105.089 92.0326H94.3099C93.8473 92.0326 93.4714 91.6627 93.4714 91.2172V42.0213C93.4714 41.5685 93.847 41.2001 94.3099 41.2001H105.089ZM58.3111 41.2001C66.4425 41.2001 74.9446 41.5729 79.138 45.7692C83.2608 49.8986 83.7073 58.1207 83.7245 66.1052V91.217C83.7245 91.6625 83.3488 92.0324 82.8883 92.0324H72.1106C71.649 92.0324 71.2718 91.6625 71.2718 91.217V65.6732C71.2604 61.2138 71.004 56.6307 68.7043 54.3235C66.7249 52.3386 63.0313 51.884 59.1904 51.7897H39.6534C39.1952 51.7897 38.8201 52.1583 38.8201 52.6044V91.2172C38.8201 91.6627 38.4403 92.0326 37.9792 92.0326H27.1948C26.734 92.0326 26.3633 91.6627 26.3633 91.2172V42.0213C26.3633 41.5685 26.7337 41.2001 27.1948 41.2001H58.3111ZM60.7235 60.7935C61.1823 60.7935 61.555 61.1605 61.555 61.6099V91.2172C61.555 91.6627 61.182 92.0326 60.7235 92.0326H49.4019C48.9364 92.0326 48.5634 91.6627 48.5634 91.2172V61.6099C48.5634 61.1605 48.9364 60.7935 49.4019 60.7935H60.7235Z" fill="white"/>
</g>
<defs>
<clipPath id="clip0_1301_643">
<rect width="133" height="133" fill="white"/>
</clipPath>
</defs>
</svg>
