<svg width="64" height="64" viewBox="0 0 64 64" fill="none" xmlns="http://www.w3.org/2000/svg">
    <g clip-path="url(#clip0_310_4750)">
        <rect x="8" y="8" width="48" height="48" rx="24" fill="url(#paint0_linear_310_4750)" fill-opacity="0.15" />
        <g filter="url(#filter0_d_310_4750)">
            <path fill-rule="evenodd" clip-rule="evenodd"
                d="M30.8637 39.8024C30.2362 39.1749 30.2362 38.1575 30.8637 37.5299C31.4913 36.9024 32.5087 36.9024 33.1362 37.5299C33.7638 38.1575 33.7638 39.1749 33.1362 39.8024C32.5087 40.43 31.4913 40.43 30.8637 39.8024ZM29.8031 36.4693C28.5897 37.6826 28.5897 39.6498 29.8031 40.8631C31.0164 42.0764 32.9836 42.0764 34.1969 40.8631C35.4102 39.6498 35.4102 37.6826 34.1969 36.4693C32.9836 35.2559 31.0164 35.2559 29.8031 36.4693ZM24.1977 30.8638C23.5702 31.4913 23.5702 32.5087 24.1977 33.1363C24.8252 33.7638 25.8427 33.7638 26.4702 33.1363C27.0977 32.5087 27.0977 31.4913 26.4702 30.8638C25.8427 30.2362 24.8252 30.2362 24.1977 30.8638ZM23.137 34.1969C21.9237 32.9836 21.9237 31.0164 23.137 29.8031C24.3504 28.5898 26.3175 28.5898 27.5309 29.8031C28.7442 31.0164 28.7442 32.9836 27.5309 34.1969C26.3175 35.4103 24.3504 35.4103 23.137 34.1969ZM37.5307 33.1363C36.9032 32.5087 36.9032 31.4913 37.5307 30.8638C38.1582 30.2362 39.1757 30.2362 39.8032 30.8638C40.4307 31.4913 40.4307 32.5087 39.8032 33.1363C39.1757 33.7638 38.1582 33.7638 37.5307 33.1363ZM36.47 29.8031C35.2567 31.0164 35.2567 32.9836 36.47 34.1969C37.6834 35.4103 39.6506 35.4103 40.8639 34.1969C42.0772 32.9836 42.0772 31.0164 40.8639 29.8031C39.6506 28.5898 37.6834 28.5898 36.47 29.8031ZM30.8637 26.4701C30.2362 25.8426 30.2362 24.8252 30.8637 24.1976C31.4913 23.5701 32.5087 23.5701 33.1362 24.1976C33.7638 24.8252 33.7638 25.8426 33.1362 26.4701C32.5087 27.0977 31.4913 27.0977 30.8637 26.4701ZM29.8031 23.137C28.5897 24.3503 28.5897 26.3175 29.8031 27.5308C31.0164 28.7441 32.9836 28.7441 34.1969 27.5308C35.4102 26.3175 35.4102 24.3503 34.1969 23.137C32.9836 21.9237 31.0164 21.9237 29.8031 23.137Z"
                fill="url(#paint1_linear_310_4750)" />
        </g>
    </g>
    <rect x="8.5" y="8.5" width="47" height="47" rx="23.5" stroke="white" stroke-opacity="0.05" />
    <rect x="0.5" y="0.5" width="63" height="63" rx="31.5" stroke="white" stroke-opacity="0.1" />
    <defs>
        <filter id="filter0_d_310_4750" x="6.22705" y="10.2271" width="51.5469" height="51.546"
            filterUnits="userSpaceOnUse" color-interpolation-filters="sRGB">
            <feFlood flood-opacity="0" result="BackgroundImageFix" />
            <feColorMatrix in="SourceAlpha" type="matrix" values="0 0 0 0 0 0 0 0 0 0 0 0 0 0 0 0 0 0 127 0"
                result="hardAlpha" />
            <feOffset dy="4" />
            <feGaussianBlur stdDeviation="8" />
            <feComposite in2="hardAlpha" operator="out" />
            <feColorMatrix type="matrix" values="0 0 0 0 0.941176 0 0 0 0 0.14902 0 0 0 0 0.384314 0 0 0 1 0" />
            <feBlend mode="normal" in2="BackgroundImageFix" result="effect1_dropShadow_310_4750" />
            <feBlend mode="normal" in="SourceGraphic" in2="effect1_dropShadow_310_4750" result="shape" />
        </filter>
        <linearGradient id="paint0_linear_310_4750" x1="32" y1="8" x2="32" y2="56" gradientUnits="userSpaceOnUse">
            <stop stop-color="#3286F1" />
            <stop offset="1" stop-color="#C43AC4" />
        </linearGradient>
        <linearGradient id="paint1_linear_310_4750" x1="39.5184" y1="37.5811" x2="27.6759" y2="41.528"
            gradientUnits="userSpaceOnUse">
            <stop stop-color="#FF1E56" />
            <stop offset="1" stop-color="#9C51A1" />
        </linearGradient>
        <clipPath id="clip0_310_4750">
            <rect x="8" y="8" width="48" height="48" rx="24" fill="white" />
        </clipPath>
    </defs>
</svg>