<svg width="64" height="64" viewBox="0 0 64 64" fill="none" xmlns="http://www.w3.org/2000/svg">
    <rect x="8" y="8" width="48" height="48" rx="24" fill="white" />
    <path fill-rule="evenodd" clip-rule="evenodd"
        d="M33.132 22.9787C33.4374 23.1113 33.6188 23.4293 33.5776 23.7597L32.8496 29.5833H39.5C39.791 29.5833 40.0558 29.7517 40.1792 30.0152C40.3026 30.2788 40.2625 30.5899 40.0762 30.8135L31.7428 40.8135C31.5297 41.0693 31.1734 41.1539 30.868 41.0213C30.5626 40.8887 30.3812 40.5707 30.4225 40.2403L31.1504 34.4167H24.5C24.209 34.4167 23.9443 34.2483 23.8208 33.9848C23.6974 33.7212 23.7375 33.4101 23.9238 33.1865L32.2572 23.1865C32.4703 22.9308 32.8266 22.8461 33.132 22.9787ZM26.1013 32.9167H32C32.2151 32.9167 32.4199 33.009 32.5623 33.1703C32.7046 33.3316 32.7709 33.5462 32.7442 33.7597L32.2282 37.888L37.8987 31.0833H32C31.7849 31.0833 31.5801 30.991 31.4378 30.8297C31.2954 30.6684 31.2291 30.4538 31.2558 30.2403L31.7718 26.112L26.1013 32.9167Z"
        fill="url(#paint0_linear_523_5406)" />
    <rect x="8.5" y="8.5" width="47" height="47" rx="23.5" stroke="black" stroke-opacity="0.05" />
    <rect x="0.5" y="0.5" width="63" height="63" rx="31.5" stroke="black" stroke-opacity="0.1" />
    <defs>
        <linearGradient id="paint0_linear_523_5406" x1="40.1745" y1="22.7987" x2="22.2253" y2="41.7212"
            gradientUnits="userSpaceOnUse">
            <stop stop-color="#FF1E56" />
            <stop offset="1" stop-color="#D67FDC" />
        </linearGradient>
    </defs>
</svg>