<svg width="64" height="64" viewBox="0 0 64 64" fill="none" xmlns="http://www.w3.org/2000/svg">
    <g clip-path="url(#clip0_310_4744)">
        <rect x="8" y="8" width="48" height="48" rx="24" fill="url(#paint0_linear_310_4744)" fill-opacity="0.15" />
        <g filter="url(#filter0_d_310_4744)">
            <path fill-rule="evenodd" clip-rule="evenodd"
                d="M37 24.5834C37.4142 24.5834 37.75 24.9192 37.75 25.3334V38.6667C37.75 39.0809 37.4142 39.4167 37 39.4167C36.5858 39.4167 36.25 39.0809 36.25 38.6667V25.3334C36.25 24.9192 36.5858 24.5834 37 24.5834ZM32 29.5834C32.4142 29.5834 32.75 29.9192 32.75 30.3334V38.6667C32.75 39.0809 32.4142 39.4167 32 39.4167C31.5858 39.4167 31.25 39.0809 31.25 38.6667V30.3334C31.25 29.9192 31.5858 29.5834 32 29.5834ZM27.75 35.3334C27.75 34.9192 27.4142 34.5834 27 34.5834C26.5858 34.5834 26.25 34.9192 26.25 35.3334V38.6667C26.25 39.0809 26.5858 39.4167 27 39.4167C27.4142 39.4167 27.75 39.0809 27.75 38.6667V35.3334Z"
                fill="url(#paint1_linear_310_4744)" />
        </g>
    </g>
    <rect x="8.5" y="8.5" width="47" height="47" rx="23.5" stroke="white" stroke-opacity="0.05" />
    <rect x="0.5" y="0.5" width="63" height="63" rx="31.5" stroke="white" stroke-opacity="0.1" />
    <defs>
        <filter id="filter0_d_310_4744" x="10.25" y="12.5834" width="43.5" height="46.8334" filterUnits="userSpaceOnUse"
            color-interpolation-filters="sRGB">
            <feFlood flood-opacity="0" result="BackgroundImageFix" />
            <feColorMatrix in="SourceAlpha" type="matrix" values="0 0 0 0 0 0 0 0 0 0 0 0 0 0 0 0 0 0 127 0"
                result="hardAlpha" />
            <feOffset dy="4" />
            <feGaussianBlur stdDeviation="8" />
            <feComposite in2="hardAlpha" operator="out" />
            <feColorMatrix type="matrix" values="0 0 0 0 0.941176 0 0 0 0 0.14902 0 0 0 0 0.384314 0 0 0 1 0" />
            <feBlend mode="normal" in2="BackgroundImageFix" result="effect1_dropShadow_310_4744" />
            <feBlend mode="normal" in="SourceGraphic" in2="effect1_dropShadow_310_4744" result="shape" />
        </filter>
        <linearGradient id="paint0_linear_310_4744" x1="32" y1="8" x2="32" y2="56" gradientUnits="userSpaceOnUse">
            <stop stop-color="#3286F1" />
            <stop offset="1" stop-color="#C43AC4" />
        </linearGradient>
        <linearGradient id="paint1_linear_310_4744" x1="36.4231" y1="27.7646" x2="29.1663" y2="25.8896"
            gradientUnits="userSpaceOnUse">
            <stop stop-color="#FF1E56" />
            <stop offset="1" stop-color="#9C51A1" />
        </linearGradient>
        <clipPath id="clip0_310_4744">
            <rect x="8" y="8" width="48" height="48" rx="24" fill="white" />
        </clipPath>
    </defs>
</svg>