<svg width="64" height="64" viewBox="0 0 64 64" fill="none" xmlns="http://www.w3.org/2000/svg">
    <rect x="8" y="8" width="48" height="48" rx="24" fill="white" />
    <g clip-path="url(#clip0_523_5398)">
        <path fill-rule="evenodd" clip-rule="evenodd"
            d="M31.6644 22.9958C31.8756 22.8902 32.1241 22.8902 32.3352 22.9958L40.6686 27.1625C40.9227 27.2895 41.0832 27.5492 41.0832 27.8333C41.0832 28.1174 40.9227 28.3771 40.6686 28.5041L32.3352 32.6708C32.1241 32.7764 31.8756 32.7764 31.6644 32.6708L23.3311 28.5041C23.077 28.3771 22.9165 28.1174 22.9165 27.8333C22.9165 27.5492 23.077 27.2895 23.3311 27.1625L31.6644 22.9958ZM25.3436 27.8333L31.9998 31.1614L38.6561 27.8333L31.9998 24.5052L25.3436 27.8333ZM22.9958 35.8313C23.1811 35.4608 23.6316 35.3106 24.0021 35.4958L32 39.4948L39.9979 35.4958C40.3684 35.3106 40.8189 35.4608 41.0042 35.8313C41.1894 36.2017 41.0392 36.6522 40.6687 36.8375L32.3354 41.0042C32.1243 41.1097 31.8757 41.1097 31.6646 41.0042L23.3313 36.8375C22.9608 36.6522 22.8106 36.2017 22.9958 35.8313ZM24.0021 31.3292C23.6316 31.144 23.1811 31.2941 22.9958 31.6646C22.8106 32.0351 22.9608 32.4856 23.3313 32.6709L31.6646 36.8375C31.8757 36.9431 32.1243 36.9431 32.3354 36.8375L40.6687 32.6709C41.0392 32.4856 41.1894 32.0351 41.0042 31.6646C40.8189 31.2941 40.3684 31.144 39.9979 31.3292L32 35.3282L24.0021 31.3292Z"
            fill="url(#paint0_linear_523_5398)" />
    </g>
    <rect x="8.5" y="8.5" width="47" height="47" rx="23.5" stroke="black" stroke-opacity="0.05" />
    <rect x="0.5" y="0.5" width="63" height="63" rx="31.5" stroke="black" stroke-opacity="0.1" />
    <defs>
        <linearGradient id="paint0_linear_523_5398" x1="41.0004" y1="22.7987" x2="23.224" y2="43.4323"
            gradientUnits="userSpaceOnUse">
            <stop stop-color="#FF1E56" />
            <stop offset="1" stop-color="#D67FDC" />
        </linearGradient>
        <clipPath id="clip0_523_5398">
            <rect width="20" height="20" fill="white" transform="translate(22 22)" />
        </clipPath>
    </defs>
</svg>