<svg width="64" height="64" viewBox="0 0 64 64" fill="none" xmlns="http://www.w3.org/2000/svg">
    <g clip-path="url(#clip0_310_4768)">
        <rect x="8" y="8" width="48" height="48" rx="24" fill="url(#paint0_linear_310_4768)" fill-opacity="0.15" />
        <g filter="url(#filter0_d_310_4768)">
            <path fill-rule="evenodd" clip-rule="evenodd"
                d="M24.4165 25.3333C24.4165 24.827 24.8269 24.4166 25.3332 24.4166H38.6665C39.1728 24.4166 39.5832 24.827 39.5832 25.3333V28.6666C39.5832 29.1729 39.1728 29.5833 38.6665 29.5833H25.3332C24.8269 29.5833 24.4165 29.1729 24.4165 28.6666V25.3333ZM25.3332 22.9166C23.9985 22.9166 22.9165 23.9986 22.9165 25.3333V28.6666C22.9165 30.0013 23.9985 31.0833 25.3332 31.0833H38.6665C40.0012 31.0833 41.0832 30.0013 41.0832 28.6666V25.3333C41.0832 23.9986 40.0012 22.9166 38.6665 22.9166H25.3332ZM24.4165 35.3333C24.4165 34.827 24.8269 34.4166 25.3332 34.4166H38.6665C39.1728 34.4166 39.5832 34.827 39.5832 35.3333V38.6666C39.5832 39.1729 39.1728 39.5833 38.6665 39.5833H25.3332C24.8269 39.5833 24.4165 39.1729 24.4165 38.6666V35.3333ZM25.3332 32.9166C23.9985 32.9166 22.9165 33.9986 22.9165 35.3333V38.6666C22.9165 40.0013 23.9985 41.0833 25.3332 41.0833H38.6665C40.0012 41.0833 41.0832 40.0013 41.0832 38.6666V35.3333C41.0832 33.9986 40.0012 32.9166 38.6665 32.9166H25.3332ZM27.8332 37C27.8332 37.4602 27.4601 37.8333 26.9998 37.8333C26.5396 37.8333 26.1665 37.4602 26.1665 37C26.1665 36.5397 26.5396 36.1666 26.9998 36.1666C27.4601 36.1666 27.8332 36.5397 27.8332 37ZM26.9998 27.8333C27.4601 27.8333 27.8332 27.4602 27.8332 27C27.8332 26.5397 27.4601 26.1666 26.9998 26.1666C26.5396 26.1666 26.1665 26.5397 26.1665 27C26.1665 27.4602 26.5396 27.8333 26.9998 27.8333Z"
                fill="url(#paint1_linear_310_4768)" />
        </g>
    </g>
    <rect x="8.5" y="8.5" width="47" height="47" rx="23.5" stroke="white" stroke-opacity="0.05" />
    <rect x="0.5" y="0.5" width="63" height="63" rx="31.5" stroke="white" stroke-opacity="0.1" />
    <defs>
        <filter id="filter0_d_310_4768" x="6.9165" y="10.9166" width="50.1665" height="50.1666"
            filterUnits="userSpaceOnUse" color-interpolation-filters="sRGB">
            <feFlood flood-opacity="0" result="BackgroundImageFix" />
            <feColorMatrix in="SourceAlpha" type="matrix" values="0 0 0 0 0 0 0 0 0 0 0 0 0 0 0 0 0 0 127 0"
                result="hardAlpha" />
            <feOffset dy="4" />
            <feGaussianBlur stdDeviation="8" />
            <feComposite in2="hardAlpha" operator="out" />
            <feColorMatrix type="matrix" values="0 0 0 0 0.941176 0 0 0 0 0.14902 0 0 0 0 0.384314 0 0 0 1 0" />
            <feBlend mode="normal" in2="BackgroundImageFix" result="effect1_dropShadow_310_4768" />
            <feBlend mode="normal" in="SourceGraphic" in2="effect1_dropShadow_310_4768" result="shape" />
        </filter>
        <linearGradient id="paint0_linear_310_4768" x1="32" y1="8" x2="32" y2="56" gradientUnits="userSpaceOnUse">
            <stop stop-color="#3286F1" />
            <stop offset="1" stop-color="#C43AC4" />
        </linearGradient>
        <linearGradient id="paint1_linear_310_4768" x1="38.987" y1="26.8128" x2="27.9806" y2="23.1446"
            gradientUnits="userSpaceOnUse">
            <stop stop-color="#FF1E56" />
            <stop offset="1" stop-color="#9C51A1" />
        </linearGradient>
        <clipPath id="clip0_310_4768">
            <rect x="8" y="8" width="48" height="48" rx="24" fill="white" />
        </clipPath>
    </defs>
</svg>