<svg width="298" height="61" viewBox="0 0 298 61" fill="none" xmlns="http://www.w3.org/2000/svg">
<path fill-rule="evenodd" clip-rule="evenodd" d="M177.49 7.06221C179.634 6.3425 180.586 6.8215 180.586 8.65862V52.2174C180.586 55.5704 183.761 56.369 183.761 58.285V58.5249C183.761 59.4032 183.126 59.8822 182.173 59.8822H172.331C171.22 59.8822 170.506 59.1641 170.506 58.1256L170.347 56.369C167.966 59.1641 164.078 60.6809 160.03 60.6809C150.346 60.6809 141.378 53.4942 141.378 40.6392C141.378 28.8219 149.949 20.7577 160.109 20.7577C163.998 20.7577 167.014 21.8751 169.395 23.8716V18.2403C169.395 14.5669 165.426 14.327 165.426 12.3321V12.0922C165.426 11.2935 166.062 10.5746 167.094 10.2558L177.49 7.06221ZM239.902 20.739C250.177 20.739 257.13 26.9959 258.237 36.976L259.977 51.6277C260.608 57.0927 264.085 55.5869 264.085 57.7265C264.085 59.5476 260.292 60.0226 256.498 60.0226C251.993 60.0226 249.939 59.1513 249.465 55.7465C247.726 58.3595 244.406 60.3395 238.953 60.3395C230.418 60.3395 224.095 56.3001 224.095 48.3802C224.016 40.4602 230.654 36.3414 238.4 36.3414C242.036 36.3414 244.959 37.2921 247.013 38.7177L246.935 37.7678C245.988 28.5009 244.723 24.0652 239.902 24.0652C236.74 24.0652 235.613 26.5997 234.536 29.1343L234.396 29.4647C233.367 31.8844 232.304 34.2034 229.47 34.2034C226.623 34.2034 224.728 32.4601 224.728 29.7677C224.728 24.0652 231.681 20.739 239.902 20.739ZM203.744 20.3976C210.619 20.3976 216.576 24.6787 219.581 30.9535C220.171 32.1833 220.511 35.1737 217.819 35.1737H198.978C198.437 35.1737 197.987 35.6189 198.006 36.1505C198.368 46.1099 202.646 52.1188 209.144 52.1188C214.829 52.1188 216.046 49.2701 217.671 48.4558C218.82 47.8802 219.702 48.8626 219.45 49.7201C218.128 54.2294 212.798 59.9981 203.744 59.9981C193.84 59.9981 185.812 51.1332 185.812 40.1979C185.812 29.2625 193.84 20.3976 203.744 20.3976ZM74.2002 20.3976C81.0767 20.3976 87.0334 24.6787 90.0379 30.9535C90.6272 32.1833 90.968 35.1737 88.2762 35.1737H69.435C68.8938 35.1737 68.4439 35.6189 68.4632 36.1505C68.8248 46.1099 73.1033 52.1188 79.6013 52.1188C85.2862 52.1188 86.5034 49.2701 88.1287 48.4558C89.2761 47.8802 90.1589 48.8626 89.9072 49.7201C88.5849 54.2294 83.2552 59.9981 74.2002 59.9981C64.2969 59.9981 56.269 51.1332 56.269 40.1979C56.269 29.2625 64.2969 20.3976 74.2002 20.3976ZM276.97 21.0722C278.794 20.1989 279.506 21.1522 279.506 22.6595V28.6149C281.252 23.5336 284.977 20.7552 290.288 20.7552C294.965 20.7552 297.581 23.9306 297.581 27.9801C297.581 31.314 296.314 34.2517 292.508 34.2517C289.45 34.2517 288.583 32.5821 287.97 30.894L287.89 30.669C287.864 30.5941 287.838 30.5192 287.812 30.4446L287.734 30.2218C287.219 28.7431 286.7 27.4238 284.819 27.4238C281.727 27.4238 280.617 31.7903 280.617 36.1568V52.0355C280.617 55.3694 284.581 56.005 284.581 57.9893V58.3071C284.581 59.1804 283.867 59.6567 282.837 59.6567H268.172C267.062 59.6567 266.348 59.1804 266.348 58.3071V57.9893C266.348 56.005 269.44 55.3694 269.44 52.0355V33.4577C269.44 29.9637 265.794 29.7259 265.794 27.7408V27.4238C265.794 26.6298 266.428 25.995 267.459 25.5187L276.97 21.0722ZM105.238 20.7535C107.064 19.7951 107.936 20.9138 107.936 22.4312V26.9045C110.079 22.8315 114.284 20.4346 119.68 20.4346C126.9 20.4346 133.882 24.7476 134.835 37.449L135.787 51.8289C136.024 55.3429 138.643 55.9824 138.643 57.979V58.2988C138.643 59.0977 137.929 59.6567 136.819 59.6567H123.091C121.981 59.6567 121.265 59.0977 121.265 58.2988V57.979C121.265 55.9824 124.282 55.3429 124.123 51.8289L123.329 37.0495C122.933 28.5024 120.631 24.9868 116.427 24.9868C112.141 24.9868 109.682 28.5822 109.682 33.7747V51.9086C109.682 55.3429 113.094 55.9824 113.094 57.979V58.2988C113.094 59.0977 112.38 59.6567 111.269 59.6567H96.51C95.3985 59.6567 94.6853 59.0977 94.6853 58.2988V57.979C94.6853 55.9824 98.097 55.3429 98.097 51.9086V33.2954C98.097 29.7001 94.2091 29.3811 94.2091 27.3837V27.0639C94.2091 26.2658 94.8436 25.8663 95.7961 25.3871L105.238 20.7535ZM241.561 39.9059C238.242 39.9059 235.791 42.5196 235.791 46.559C235.791 52.0248 238.4 56.8552 242.431 56.8552C246.065 56.8552 248.278 53.2908 248.041 49.7263L247.805 46.9553C247.331 42.2814 244.802 39.9059 241.561 39.9059ZM170.98 35.5078C167.517 27.7793 160.833 23.3991 156.051 25.724C151.268 28.0498 150.197 36.2001 153.661 43.9278C157.123 51.6563 163.808 56.0365 168.589 53.7115C173.372 51.3866 174.443 43.2363 170.98 35.5078ZM203.946 23.7108C200.91 23.6731 198.098 26.0607 197.948 31.3106C197.934 31.775 198.332 32.1593 198.822 32.1593H204.406C206.533 32.1593 207.352 31.2601 207.352 27.465C207.352 25.3817 206.141 23.738 203.946 23.7108ZM74.4031 23.7108C71.3674 23.6731 68.5554 26.0607 68.4046 31.3106C68.391 31.775 68.7887 32.1593 69.2794 32.1593H74.8633C76.9906 32.1593 77.8092 31.2601 77.8092 27.465C77.8092 25.3817 76.5977 23.738 74.4031 23.7108Z" fill="#2D3139"/>
<path fill-rule="evenodd" clip-rule="evenodd" d="M24.0831 0C10.782 0 0 10.7665 0 24.0476C0 37.3287 10.782 48.0952 24.0831 48.0952C37.3838 48.0952 48.1662 37.3287 48.1662 24.0476C48.1662 10.7665 37.3838 0 24.0831 0Z" fill="#FF8955"/>
<path fill-rule="evenodd" clip-rule="evenodd" d="M37.3626 17.4177L24.0832 24.0476V30.6776L37.3626 24.0476V30.6776L24.0832 37.3075V30.6776L10.8037 37.3075V30.6776L24.0832 24.0476V17.4177L10.8037 24.0476V17.4177L24.0832 10.7877V17.4177L37.3626 10.7877V17.4177Z" fill="white"/>
</svg>
