<svg width="360" height="200" viewBox="60 -100 800 600" fill="none" xmlns="http://www.w3.org/2000/svg">
<g filter="url(#glow)" >
  <path stroke-width="3" stroke-linecap="round" fill-rule="evenodd" clip-rule="evenodd" d="M413.345 0.835073C388.969 5.67207 353.221 31.7291 321.876 67.5071C284.01 110.729 257.017 159.743 241.034 211.309C233.439 236.288 230.91 254.413 230.91 283.862C230.91 318.124 233.891 336.239 242.355 353.398C251.411 371.76 262.821 376.881 277.22 369.044C290.63 361.745 300.117 343.075 304.778 314.809C308.802 290.409 309.381 279.284 309.396 226.023C309.411 172.445 309.37 171.928 305.312 173.485C303.334 174.244 303.049 177.209 301.915 208.809C299.285 282.076 298.185 297.85 294.383 316.809C289.86 339.36 281.3 353.772 270.16 357.591C265.163 359.304 261.864 357.608 257.603 351.138C250.331 340.096 246.526 322.692 245.354 295.116C243.381 248.667 253.06 208.371 278.456 157.309C304.648 104.646 345.178 55.6871 383.41 30.5271C400.484 19.2901 411.821 14.8091 423.175 14.8091C429.692 14.8091 430.31 15.0091 433.42 18.1191C438.415 23.1141 439.425 27.9471 439.31 46.3091C439.197 64.6011 437.474 74.4191 430.958 93.9081C421.738 121.483 403.851 152.208 381.547 178.781C377.636 183.44 368.799 193.115 361.909 200.281C355.018 207.446 346.85 216.485 343.756 220.367C340.663 224.248 335.783 229.536 332.913 232.117C330.042 234.697 327.952 236.809 328.268 236.809C328.584 236.809 333.372 235.052 338.908 232.905C352.416 227.667 360.453 222.244 372.4 210.307C411.616 171.122 441.745 119.829 450.927 76.6191C454.064 61.8531 455.357 44.6971 454.12 34.2371C451.908 15.5261 445.68 5.70007 433.212 1.25307C429.046 -0.232927 419.716 -0.428927 413.345 0.835073ZM505.752 48.3331C493.988 54.7221 458.125 125.631 439.823 178.687C434.647 193.691 432.887 200.699 431.944 210.055L431.162 217.801L423.286 227.499C409.759 244.155 380.317 272.809 376.729 272.809C372.567 272.809 385.931 229.244 393.904 216.819C398.018 210.408 401.162 208.451 407.132 208.587C411.34 208.683 411.809 208.491 411.007 207.002C409.386 203.996 405.316 200.786 401.875 199.799C393.876 197.505 383.998 204.404 377.454 216.856C372.874 225.573 365.652 247.354 362.957 260.58C359.141 279.306 360.779 287.943 368.418 289.377C374.269 290.474 378.531 289.215 386.188 284.125C394.932 278.314 419.069 254.974 431.39 240.417C440.291 229.9 440.405 229.809 444.779 229.809C447.325 229.809 451.057 228.877 453.603 227.605C459.49 224.665 471.803 213.08 480.335 202.453C484.145 197.708 487.418 193.984 487.61 194.175C487.801 194.367 487.05 198.419 485.94 203.179C480.919 224.713 480.5 227.525 480.455 239.965C480.41 252.619 480.41 252.62 483.481 256.465C489.948 264.561 499.114 266.046 509.764 260.724C514.201 258.507 518.835 254.71 526.24 247.224C531.906 241.496 536.8 236.809 537.115 236.809C537.43 236.809 537.973 238.334 538.323 240.197C539.717 247.628 548.255 251.985 557.332 249.897C564.41 248.269 577.067 239.437 589.778 227.257C595.775 221.511 600.846 216.809 601.046 216.809C601.246 216.809 601.413 219.622 601.416 223.059C601.424 231.301 604.182 235.984 610.438 238.373C618.704 241.53 627.936 238.608 641.287 228.61L648.046 223.548L651.228 226.567C656.742 231.798 660.558 233.161 670.91 233.599C682.261 234.079 690.421 232.253 710.91 224.648C735.98 215.342 750.902 206.799 754.796 199.523C755.636 197.952 758.657 195.853 762.779 193.976C769.309 191.002 777.771 188.337 778.468 189.034C778.665 189.23 777.5 193.197 775.881 197.85C766.151 225.806 780.105 239.898 822.913 245.347C833.787 246.731 841.496 246.946 864.824 246.515C880.546 246.224 896.785 245.478 900.91 244.856C931.623 240.228 941.65 238.762 950.41 237.616L960.41 236.309L936.41 235.733C904.437 234.966 855.089 233.012 835.91 231.753C811.418 230.145 798.06 226.725 791.003 220.253C787.752 217.272 787.427 216.499 787.593 212.134C787.693 209.48 789.156 203.584 790.843 199.03C794.255 189.821 794.579 186.347 792.494 181.355C788.507 171.813 774.961 172.019 754.152 181.937C747.448 185.133 745.395 186.667 743.238 190.091C740.011 195.215 739.366 195.729 729.91 200.697C720.464 205.66 705.449 211.651 691.939 215.849C679.401 219.744 666.302 220.379 662.855 217.259C661.785 216.291 660.91 214.959 660.91 214.3C660.91 213.64 664.173 210.222 668.16 206.705C681.321 195.095 686.612 188.667 694.792 174.351C700.687 164.033 701.374 159.533 697.596 155.983C692.864 151.538 685.21 153.646 674.197 162.426C659.587 174.075 649.659 188.948 646.491 203.928C645.531 208.47 623.39 224.782 618.16 224.801C615.009 224.812 615.18 221.043 618.976 206.883C620.857 199.866 621.791 194.465 621.396 192.883C620.334 188.625 617.99 186.809 613.555 186.809C609.648 186.809 608.961 187.368 593.46 203.145C573.329 223.635 558.651 235.809 554.077 235.809C551.539 235.809 553.269 224.302 557.779 211.189C560.051 204.584 561.91 197.746 561.91 195.994C561.91 189.822 554.792 186.556 550.065 190.559C548.929 191.522 545.511 196.743 542.469 202.162C535.153 215.196 529.612 222.832 520.196 232.854C509.354 244.394 503.572 248.809 499.299 248.809C496.583 248.809 495.623 248.272 494.695 246.237C493.088 242.709 494.831 229.497 499.513 209.719C502.201 198.366 503.194 191.88 503.286 185.085C503.404 176.3 503.28 175.73 500.687 173.135C497.255 169.698 492.675 169.555 487.55 172.723C485.491 173.995 479.387 180.497 473.985 187.173C463.938 199.586 457.625 206.264 459.679 202.303C460.251 201.2 462.807 196.765 465.359 192.449C479.759 168.092 497.065 128.26 510.604 88.3091C518.551 64.8611 520.314 56.7111 518.419 52.1761C516.228 46.9311 511.162 45.3941 505.752 48.3331ZM156.587 58.6131C155.689 59.6061 148.375 71.4181 140.334 84.8631C113.196 130.241 98.8962 149.891 79.1192 168.982C66.0792 181.57 65.1312 182.972 67.3622 186.376C71.2302 192.279 81.1062 187.686 95.4102 173.332C109.238 159.456 124.459 138.81 141.871 110.309C151.578 94.4201 152.236 93.7561 151.273 100.809C149.165 116.256 150.8 198.99 153.461 211.527C153.893 213.561 153.085 213.999 143.671 216.836C102.501 229.242 91.0842 234.21 62.0742 252.347C26.5362 274.563 6.66321 294.302 1.25121 312.757C-1.02779 320.526 -0.11479 332.444 3.34921 340.163C13.4142 362.587 36.3432 382.18 62.9102 391.058C75.2802 395.191 81.7822 396.239 94.9102 396.215C121.847 396.166 140.427 389.563 154.911 374.893C165.767 363.899 173.815 345.324 175.996 326.232C177.804 310.404 176.116 280.828 170.921 237.309C165.646 193.117 165.408 189.058 165.448 143.809C165.477 109.481 165.846 97.1271 167.198 85.2191C169.533 64.6401 169.465 62.2731 166.455 59.2641C163.529 56.3371 158.922 56.0331 156.587 58.6131ZM489.068 100.496C479.009 120.422 463.238 156.364 457.862 171.615C449.053 196.601 469.615 154.582 484.483 117.212C492.968 95.8851 494.84 89.0631 489.068 100.496ZM147.91 218.506C145.435 219.946 136.66 225.253 128.41 230.298C120.16 235.344 107.251 242.907 99.7222 247.104C49.5822 275.059 26.1852 293.569 16.6712 312.809C11.1442 323.986 15.6082 337.944 29.4002 352.605C43.4562 367.547 60.4042 376.854 80.8962 380.886C89.7312 382.624 110.389 381.522 119.907 378.805C139.327 373.261 151.189 361.508 158.165 340.896L161.41 331.309L161.309 305.309C161.222 282.966 160.765 275.512 158.06 252.309C153.991 217.41 153.769 215.802 153.031 215.848C152.69 215.869 150.385 217.065 147.91 218.506ZM221.619 231.433C219.808 233.244 221.025 236.817 223.97 238.34L227.031 239.923L226.72 235.616C226.472 232.167 226.003 231.251 224.369 231.017C223.246 230.856 222.009 231.044 221.619 231.433Z" fill="url(#paint0_linear_3_1553)"></path>
 </g>
 <defs>
    <filter id="glow" filterUnits="userSpaceOnUse" color-interpolation-filters="sRGB" width="2000" height="750">
      <feFlood flood-opacity="0" result="BackgroundImageFix"></feFlood>
      <feColorMatrix in="SourceAlpha" type="matrix" result="hardAlpha" values="0 0 0 0 0 0 0 0 0 0 0 0 0 0 0 0 0 0 1 0"></feColorMatrix>
      <feOffset dy="4" />
      <feGaussianBlur stdDeviation="35" />
      <feComposite in2="hardAlpha" operator="out" />
      <feColorMatrix type="matrix" values="0 0 0 0 0.941176 0 0 0 0 0.14902 0 0 0 0 0.384314 0 0 0 1 0" />
      <feBlend mode="normal" in2="BackgroundImageFix" result="effect1_dropShadow_926_5906" />
      <feBlend mode="normal" in="SourceGraphic" in2="effect1_dropShadow_926_5906" result="shape" />
    </filter>
    <linearGradient id="paint0_linear_3_1553" x1="480.205" y1="0" x2="480.205" y2="396.215" gradientUnits="userSpaceOnUse">
      <stop stop-color="#0096FF"></stop>
      <stop offset="1" stop-color="#FF1E56"></stop>
    </linearGradient>
  </defs>
</svg>