<svg width="173" height="57" viewBox="0 0 173 57" fill="none" xmlns="http://www.w3.org/2000/svg">
<g clip-path="url(#clip0_1062_917)">
<path d="M0 0H37.4382V18.7191H18.7191L0 0ZM0 18.7191H18.7191L37.4382 37.4382H0V18.7191ZM0 37.4382H18.7191V56.1573L0 37.4382Z" fill="black"/>
<path d="M58.562 14.7675H73.6952V19.5764H64.2899V26.2592H73.6952V30.9619H64.2899V39.5185H58.562V14.7675ZM76.8067 22.4754H82.2168V26.0468C82.4994 24.8195 83.0775 23.8774 83.9493 23.218C84.8435 22.5337 85.8361 22.1928 86.9195 22.1928C87.4856 22.1928 87.9575 22.2408 88.3334 22.3341V27.3554C87.7939 27.2903 87.2509 27.2552 86.7071 27.2492C85.222 27.2492 84.1035 27.7314 83.3481 28.6983C82.5953 29.6412 82.2168 31.0552 82.2168 32.9419V39.5185H76.8092V22.4754H76.8067ZM96.8738 39.9784C95.2243 39.9784 93.7855 39.5887 92.5599 38.8111C91.3575 38.0334 90.4017 36.9295 89.8022 35.6286C89.1659 34.2626 88.8456 32.7167 88.8456 30.997C88.8456 29.2995 89.1779 27.7665 89.8373 26.4005C90.4557 25.0807 91.4371 23.9648 92.6661 23.1829C93.914 22.4052 95.3408 22.0155 96.9449 22.0155C98.1465 22.0155 99.2204 22.2759 100.163 22.794C101.105 23.3139 101.812 24.0213 102.284 24.9154V22.4754H107.658V39.5185H102.284V37.1136C101.812 37.9624 101.081 38.6569 100.091 39.1999C99.1014 39.7249 97.9949 39.9921 96.8738 39.9784ZM98.4299 35.4873C99.7257 35.4873 100.728 35.0633 101.435 34.2146C102.143 33.3659 102.496 32.2928 102.496 30.997C102.496 29.7243 102.143 28.6632 101.435 27.8145C100.728 26.9657 99.7257 26.5418 98.4299 26.5418C97.2027 26.5418 96.2143 26.9537 95.4598 27.7793C94.7293 28.6049 94.3636 29.6763 94.3636 30.997C94.3636 32.3176 94.7293 33.401 95.4598 34.2497C96.2143 35.0753 97.2044 35.4873 98.4299 35.4873ZM111.442 22.4754H116.852V24.9505C117.23 24.077 117.842 23.3696 118.69 22.8291C119.563 22.2887 120.577 22.0155 121.731 22.0155C124.418 22.0155 126.199 23.0638 127.07 25.1629C127.55 24.2114 128.3 23.4244 129.227 22.9002C130.219 22.3033 131.358 21.9975 132.515 22.0155C136.546 22.0155 138.562 24.3245 138.562 28.9458V39.5185H133.116V29.9358C133.116 28.7822 132.904 27.9335 132.48 27.3905C132.055 26.8493 131.419 26.5769 130.57 26.5769C129.651 26.5769 128.944 26.8955 128.449 27.5318C127.954 28.145 127.706 29.2164 127.706 30.7495V39.5185H122.261V29.9007C122.261 28.7463 122.05 27.9087 121.625 27.3905C121.226 26.8493 120.6 26.5769 119.753 26.5769C118.809 26.5769 118.089 26.8955 117.594 27.5318C117.099 28.145 116.852 29.2164 116.852 30.7495V39.5185H111.443V22.4754H111.442ZM158.885 30.1131C158.885 30.8428 158.837 31.6333 158.741 32.482H146.156C146.204 33.5903 146.58 34.4373 147.287 35.0282C147.994 35.6166 148.951 35.9121 150.151 35.9121C151.825 35.9121 152.886 35.4042 153.333 34.391H158.637C158.377 36.0654 157.458 37.4194 155.879 38.4574C154.324 39.4705 152.414 39.9784 150.151 39.9784C147.229 39.9784 144.93 39.1879 143.256 37.6087C141.606 36.0285 140.781 33.8258 140.781 30.997C140.781 29.1582 141.158 27.5669 141.912 26.2232C142.641 24.8812 143.765 23.7952 145.13 23.1118C146.521 22.3821 148.136 22.0155 149.976 22.0155C151.719 22.0155 153.262 22.3572 154.606 23.0415C155.973 23.7258 157.023 24.6799 157.753 25.9055C158.508 27.1327 158.885 28.5347 158.885 30.1131ZM153.543 29.1231C153.52 27.9917 153.202 27.1302 152.588 26.5418C151.977 25.9534 151.091 25.658 149.937 25.658C148.782 25.658 147.863 25.9757 147.179 26.6129C146.52 27.2261 146.178 28.062 146.153 29.1231H153.543ZM161.27 22.4754H166.68V26.0468C166.963 24.8195 167.541 23.8774 168.413 23.218C169.259 22.5517 170.305 22.1902 171.383 22.1928C171.948 22.1928 172.421 22.2408 172.797 22.3341V27.3554C172.257 27.2903 171.714 27.2552 171.17 27.2492C169.685 27.2492 168.567 27.7314 167.812 28.6983C167.056 29.6412 166.68 31.0552 166.68 32.9419V39.5185H161.27V22.4754Z" fill="black"/>
</g>
<defs>
<clipPath id="clip0_1062_917">
<rect width="173" height="56.5248" fill="white"/>
</clipPath>
</defs>
</svg>
