<svg width="227" height="48" viewBox="0 0 227 48" fill="none" xmlns="http://www.w3.org/2000/svg">
<path d="M104.321 11.7514C96.199 11.7514 90.3427 17.0395 90.3427 24.9718C90.3427 32.904 96.9347 38.1921 105.057 38.1921C109.964 38.1921 114.29 36.2531 116.968 32.9848L111.34 29.7384C109.854 31.3616 107.595 32.309 105.057 32.309C101.533 32.309 98.5385 30.4729 97.4276 27.535H118.042C118.204 26.7124 118.3 25.8605 118.3 24.9644C118.3 17.0396 112.443 11.7514 104.321 11.7514ZM97.3614 22.4011C98.281 19.4706 100.797 17.6271 104.314 17.6271C107.838 17.6271 110.354 19.4706 111.266 22.4011H97.3614ZM183.542 11.7514C175.42 11.7514 169.564 17.0395 169.564 24.9718C169.564 32.904 176.156 38.1921 184.278 38.1921C189.185 38.1921 193.511 36.2531 196.189 32.9848L190.561 29.7384C189.075 31.3616 186.816 32.309 184.278 32.309C180.754 32.309 177.76 30.4729 176.649 27.535H197.264C197.425 26.7124 197.521 25.8605 197.521 24.9644C197.521 17.0396 191.665 11.7514 183.542 11.7514ZM176.59 22.4011C177.51 19.4706 180.026 17.6271 183.542 17.6271C187.067 17.6271 189.583 19.4706 190.495 22.4011H176.59ZM147.875 24.9718C147.875 29.3785 150.759 32.3164 155.232 32.3164C158.264 32.3164 160.537 30.9429 161.707 28.7028L167.357 31.9565C165.017 35.8492 160.632 38.1921 155.232 38.1921C147.103 38.1921 141.254 32.904 141.254 24.9718C141.254 17.0395 147.11 11.7514 155.232 11.7514C160.632 11.7514 165.01 14.0944 167.357 17.987L161.707 21.2407C160.537 19.0006 158.264 17.6271 155.232 17.6271C150.767 17.6271 147.875 20.565 147.875 24.9718ZM208.557 3.67232V37.4576H201.935V3.67232H208.557ZM27.7411 0L54.9256 47.0057H0.556641L27.7411 0ZM95.7061 3.67232L75.3195 38.9266L54.933 3.67232H62.577L75.3195 25.7062L88.062 3.67232H95.7061ZM139.047 12.4859V19.6028C138.311 19.3898 137.531 19.2429 136.692 19.2429C132.418 19.2429 129.335 22.1808 129.335 26.5876V37.4576H122.714V12.4859H129.335V19.2429C129.335 15.5119 133.683 12.4859 139.047 12.4859Z" fill="black"/>
</svg>
