<svg width="183" height="54" viewBox="0 0 183 54" fill="none" xmlns="http://www.w3.org/2000/svg">
<path d="M59.7803 19.2005H64.5262L69.2721 30.2386L74.2005 19.2005H78.9464L67.2642 44.7721H62.5183L66.8991 35.7576L59.7803 19.2005ZM97.0173 27.847C97.0173 32.9981 93.0015 37.2294 87.8906 37.2294C82.5971 37.2294 78.7638 33.1821 78.7638 27.847C78.7638 22.6959 82.7796 18.6486 88.0731 18.6486C93.0015 18.4646 97.0173 22.6959 97.0173 27.847ZM83.3272 27.847C83.3272 30.9744 85.1525 33.1821 88.0731 33.1821C90.8111 33.1821 92.819 30.9744 92.819 27.847C92.819 24.7195 90.9936 22.6959 88.0731 22.6959C85.1525 22.5119 83.3272 24.7195 83.3272 27.847ZM111.072 35.5736C109.795 36.6775 108.699 37.0454 107.057 37.0454C105.049 37.0454 103.041 36.1255 101.763 34.6538C100.485 33.1821 99.9378 31.3424 99.9378 28.3989V19.0165H104.319V28.0309C104.319 30.2386 104.501 31.1584 105.231 31.8943C105.779 32.4462 106.509 32.8141 107.604 32.8141C108.882 32.8141 109.795 32.4462 110.525 31.5263C111.072 30.7905 111.255 29.6867 111.255 27.479V18.8325H115.636V36.1256H111.255V35.5736H111.072ZM127.866 24.3516C126.953 22.8798 126.223 22.5119 125.31 22.5119C124.215 22.5119 123.485 23.0638 123.485 23.9836C123.485 24.7195 123.667 24.9035 125.675 25.6394L127.318 26.1913C130.239 27.2951 131.516 28.7668 131.516 31.1584C131.516 34.4698 128.778 37.0454 125.128 37.0454C122.937 37.0454 120.929 36.1255 119.834 34.4698C119.286 33.734 118.921 33.1821 118.556 31.7103L122.207 30.2386C123.302 32.4462 124.032 32.9981 125.31 32.9981C126.405 32.9981 127.318 32.2622 127.318 31.1584C127.318 30.4225 126.953 30.0546 125.128 29.5027L123.302 28.7668C120.747 27.847 119.469 26.1913 119.469 23.9836C119.469 20.8562 122.024 18.4646 125.493 18.4646C128.231 18.4646 130.056 19.7524 131.516 22.5119L127.866 24.3516ZM139.365 13.1295C139.365 14.6013 138.088 15.889 136.627 15.889C134.984 15.889 133.889 14.6013 133.889 13.1295C133.889 11.6578 135.167 10.37 136.81 10.37C138.088 10.37 139.365 11.6578 139.365 13.1295ZM138.818 36.4935H134.437V19.2005H138.818V36.4935ZM155.246 35.3897C153.42 36.6775 152.325 37.0454 150.5 37.0454C145.571 37.0454 141.556 32.8141 141.556 27.663C141.556 22.5119 145.571 18.4646 150.5 18.4646C152.325 18.4646 153.42 18.8325 155.246 20.1203V19.0165H159.627V35.7576C159.627 41.2767 155.976 45.14 150.317 45.14C147.944 45.14 145.754 44.4041 144.111 42.9324C143.381 42.3805 143.198 42.1965 141.921 40.5408L144.841 37.5973L145.571 38.3332C147.214 40.3568 148.309 40.9087 150.5 40.9087C153.603 40.9087 155.428 38.8851 155.428 35.5736V35.3897H155.246ZM146.119 27.847C146.119 30.9744 147.944 33.1821 150.865 33.1821C153.603 33.1821 155.428 30.9744 155.428 27.847C155.428 24.7195 153.603 22.6959 150.682 22.6959C147.944 22.5119 146.119 24.7195 146.119 27.847ZM168.206 19.9363C169.483 18.8325 170.579 18.4646 172.221 18.4646C174.229 18.4646 176.237 19.3844 177.515 20.8562C178.793 22.3279 179.34 24.1676 179.34 27.1111V36.4935H174.959V27.479C174.959 25.2714 174.777 24.3516 174.047 23.6157C173.499 23.0638 172.769 22.6959 171.674 22.6959C170.396 22.6959 169.483 23.0638 168.753 23.9836C168.206 24.7195 168.023 25.8233 168.023 28.0309V36.6775H163.642V19.3844H168.023V19.9363H168.206Z" fill="black"/>
<path d="M40.2595 3.30835C40.4425 3.30835 40.4425 3.49219 40.6255 3.49219L19.0315 50.3709H8.78352C8.60052 50.3709 8.60052 50.1871 8.41752 50.1871L30.0115 3.30835H40.2595ZM40.2595 0.918457H29.6455C28.9135 0.918457 28.3645 1.28613 27.9985 1.83765L6.40452 49.2679C5.67252 50.7386 7.13652 52.577 8.78352 52.577H19.3975C20.1295 52.577 20.6785 52.2093 21.0445 51.6578L42.8215 4.22754C43.3705 2.94068 42.0895 0.918457 40.2595 0.918457Z" fill="black"/>
<path d="M5.30656 0.918457H18.2996C19.5806 0.918457 20.4956 2.38916 19.9466 3.49219L10.9796 23.1629C10.2476 24.8174 7.86856 24.4497 7.50256 22.7952L3.47656 3.12451C3.29356 2.02149 4.20856 0.918457 5.30656 0.918457Z" fill="black"/>
</svg>
