<svg width="120" height="120" viewBox="0 0 120 120" fill="none" xmlns="http://www.w3.org/2000/svg">
  <path
    d="M7.8934 19.8934C7.8934 13.266 13.266 7.8934 19.8934 7.8934L99.6802 7.8934C106.308 7.8934 111.68 13.266 111.68 19.8934V99.6802C111.68 106.308 106.308 111.68 99.6802 111.68H19.8934C13.266 111.68 7.8934 106.308 7.8934 99.6802V19.8934Z"
    fill="black" fill-opacity="0.64" />
  <path
    d="M7.8934 19.8934C7.8934 13.266 13.266 7.8934 19.8934 7.8934L99.6802 7.8934C106.308 7.8934 111.68 13.266 111.68 19.8934V99.6802C111.68 106.308 106.308 111.68 99.6802 111.68H19.8934C13.266 111.68 7.8934 106.308 7.8934 99.6802V19.8934Z"
    fill="url(#paint0_linear_2_50)" fill-opacity="0.15" />
  <path
    d="M7.8934 19.8934C7.8934 13.266 13.266 7.8934 19.8934 7.8934L99.6802 7.8934C106.308 7.8934 111.68 13.266 111.68 19.8934V99.6802C111.68 106.308 106.308 111.68 99.6802 111.68H19.8934C13.266 111.68 7.8934 106.308 7.8934 99.6802V19.8934Z"
    fill="black" fill-opacity="0.5" />
  <path
    d="M19.8934 8.3934L99.6802 8.39341C106.031 8.3934 111.18 13.5421 111.18 19.8934L111.18 99.6802C111.18 106.031 106.031 111.18 99.6802 111.18L19.8934 111.18C13.5421 111.18 8.3934 106.031 8.3934 99.6802L8.3934 19.8934C8.3934 13.5421 13.5421 8.3934 19.8934 8.3934Z"
    stroke="url(#paint1_radial_2_50)" stroke-opacity="0.15" />
  <path
    d="M19.8934 8.3934L99.6802 8.39341C106.031 8.3934 111.18 13.5421 111.18 19.8934L111.18 99.6802C111.18 106.031 106.031 111.18 99.6802 111.18L19.8934 111.18C13.5421 111.18 8.3934 106.031 8.3934 99.6802L8.3934 19.8934C8.3934 13.5421 13.5421 8.3934 19.8934 8.3934Z"
    stroke="url(#paint2_linear_2_50)" stroke-opacity="0.5" />
  <path fill-rule="evenodd" clip-rule="evenodd"
    d="M52.5484 51.5484C51.9961 51.5484 51.5484 51.9961 51.5484 52.5484V66.4516C51.5484 67.0039 51.9961 67.4516 52.5484 67.4516H66.4516C67.0039 67.4516 67.4516 67.0039 67.4516 66.4516V52.5484C67.4516 51.9961 67.0039 51.5484 66.4516 51.5484H52.5484ZM45.916 45C45.4101 45 45 45.4101 45 45.916V73.084C45 73.5899 45.4101 74 45.916 74H73.084C73.5899 74 74 73.5899 74 73.084V45.916C74 45.4101 73.5899 45 73.084 45H45.916Z"
    fill="white" />
  <path fill-rule="evenodd" clip-rule="evenodd"
    d="M36 77V60H43V74C43 74.1502 43.0166 74.2966 43.048 74.4373L37.0678 80.4175C36.3946 79.4478 36 78.27 36 77ZM38.4651 81.8486C39.4565 82.5727 40.6783 83 42 83H59V76H45C44.7924 76 44.5923 75.9684 44.404 75.9097L38.4651 81.8486ZM61 76V83H77C80.3137 83 83 80.3137 83 77V42C83 38.6863 80.3137 36 77 36H60V43H74C75.1046 43 76 43.8954 76 45V74C76 75.1046 75.1046 76 74 76H61Z"
    fill="url(#paint3_linear_2_50)" />
  <defs>
    <linearGradient id="paint0_linear_2_50" x1="7.8934" y1="7.8934" x2="111.68" y2="111.68"
      gradientUnits="userSpaceOnUse">
      <stop stop-color="#3286F1" />
      <stop offset="1" stop-color="#C43AC4" />
    </linearGradient>
    <radialGradient id="paint1_radial_2_50" cx="0" cy="0" r="1" gradientUnits="userSpaceOnUse"
      gradientTransform="translate(7.89339 7.89341) rotate(45) scale(188.713)">
      <stop stop-color="white" />
      <stop offset="1" stop-color="white" />
    </radialGradient>
    <linearGradient id="paint2_linear_2_50" x1="-44" y1="59.7868" x2="20.8667" y2="79.2468"
      gradientUnits="userSpaceOnUse">
      <stop stop-color="white" />
      <stop offset="1" stop-color="white" stop-opacity="0" />
    </linearGradient>
    <linearGradient id="paint3_linear_2_50" x1="61.8108" y1="39.3047" x2="38.6787" y2="62.28"
      gradientUnits="userSpaceOnUse">
      <stop stop-color="#0096FF" />
      <stop offset="1" stop-color="#FF1E56" />
    </linearGradient>
  </defs>
</svg>
