<svg width="64" height="64" viewBox="0 0 64 64" fill="none" xmlns="http://www.w3.org/2000/svg">
<rect x="8" y="8" width="48" height="48" rx="24" fill="white"/>
<path d="M38.1901 34.8567C37.9574 34.624 37.6611 34.4654 37.3384 34.4008L35.3493 34.0033C34.259 33.7853 33.1271 33.9369 32.1326 34.4342L31.8676 34.5658C30.8731 35.0631 29.7412 35.2147 28.6509 34.9967L27.0418 34.675C26.7728 34.6213 26.4947 34.6347 26.2321 34.7143C25.9696 34.7938 25.7308 34.9369 25.5368 35.1308M28.6668 25.3333H35.3334L34.5001 26.1667V30.4767C34.5002 30.9187 34.6759 31.3425 34.9884 31.655L39.1551 35.8217C40.2051 36.8717 39.4609 38.6667 37.9759 38.6667H26.0234C24.5384 38.6667 23.7951 36.8717 24.8451 35.8217L29.0118 31.655C29.3244 31.3425 29.5 30.9187 29.5001 30.4767V26.1667L28.6668 25.3333Z" stroke="url(#paint0_linear_1032_5040)" stroke-width="1.5" stroke-linecap="round" stroke-linejoin="round"/>
<rect x="8.5" y="8.5" width="47" height="47" rx="23.5" stroke="url(#paint1_radial_1032_5040)" stroke-opacity="0.15"/>
<rect x="8.5" y="8.5" width="47" height="47" rx="23.5" stroke="url(#paint2_linear_1032_5040)" stroke-opacity="0.5"/>
<rect x="0.5" y="0.5" width="63" height="63" rx="31.5" stroke="black" stroke-opacity="0.1"/>
<defs>
<linearGradient id="paint0_linear_1032_5040" x1="39.5765" y1="25.2468" x2="26.9068" y2="42.1141" gradientUnits="userSpaceOnUse">
<stop stop-color="#FF1E56"/>
<stop offset="1" stop-color="#D67FDC"/>
</linearGradient>
<radialGradient id="paint1_radial_1032_5040" cx="0" cy="0" r="1" gradientUnits="userSpaceOnUse" gradientTransform="translate(32 8) rotate(90) scale(61.7143)">
<stop/>
<stop offset="1"/>
</radialGradient>
<linearGradient id="paint2_linear_1032_5040" x1="8" y1="8" x2="18.5" y2="27.5" gradientUnits="userSpaceOnUse">
<stop/>
<stop offset="1" stop-opacity="0"/>
</linearGradient>
</defs>
</svg>
