<svg width="64" height="64" viewBox="0 0 64 64" fill="none" xmlns="http://www.w3.org/2000/svg">
<rect x="8" y="8" width="48" height="48" rx="24" fill="black"/>
<path d="M27.8332 35.3333C27.0123 35.3343 26.22 35.0323 25.608 34.4853C24.9961 33.9383 24.6074 33.1847 24.5166 32.3689C24.4257 31.5531 24.6391 30.7325 25.1158 30.0643C25.5924 29.396 26.2989 28.9272 27.0998 28.7475C26.8681 27.6667 27.0752 26.5382 27.6755 25.6101C28.2759 24.6821 29.2203 24.0305 30.3011 23.7988C31.3818 23.567 32.5104 23.7741 33.4384 24.3745C34.3665 24.9748 35.0181 25.9192 35.2498 27H35.3332C36.3664 26.999 37.3633 27.3819 38.1301 28.0745C38.8969 28.7671 39.3791 29.7199 39.4829 30.7479C39.5868 31.776 39.3049 32.806 38.6921 33.6379C38.0792 34.4698 37.1791 35.0444 36.1665 35.25M34.4998 32.8333L31.9998 30.3333M31.9998 30.3333L29.4998 32.8333M31.9998 30.3333V40.3333" stroke="url(#paint0_linear_1032_4951)" stroke-width="1.5" stroke-linecap="round" stroke-linejoin="round"/>
<rect x="8.5" y="8.5" width="47" height="47" rx="23.5" stroke="url(#paint1_radial_1032_4951)" stroke-opacity="0.15"/>
<rect x="8.5" y="8.5" width="47" height="47" rx="23.5" stroke="url(#paint2_linear_1032_4951)" stroke-opacity="0.5"/>
<rect x="0.5" y="0.5" width="63" height="63" rx="31.5" stroke="white" stroke-opacity="0.1"/>
<defs>
<linearGradient id="paint0_linear_1032_4951" x1="37.7723" y1="27.2721" x2="28.508" y2="24.4852" gradientUnits="userSpaceOnUse">
<stop stop-color="#FF1E56"/>
<stop offset="1" stop-color="#9C51A1"/>
</linearGradient>
<radialGradient id="paint1_radial_1032_4951" cx="0" cy="0" r="1" gradientUnits="userSpaceOnUse" gradientTransform="translate(32 8) rotate(90) scale(61.7143)">
<stop stop-color="white"/>
<stop offset="1" stop-color="white"/>
</radialGradient>
<linearGradient id="paint2_linear_1032_4951" x1="8" y1="8" x2="18.5" y2="27.5" gradientUnits="userSpaceOnUse">
<stop stop-color="white"/>
<stop offset="1" stop-color="white" stop-opacity="0"/>
</linearGradient>
</defs>
</svg>
