<svg width="64" height="64" viewBox="0 0 64 64" fill="none" xmlns="http://www.w3.org/2000/svg">
    <rect x="8" y="8" width="48" height="48" rx="24" fill="url(#paint0_radial_934_7384)" fill-opacity="0.1" />
    <rect x="8" y="8" width="48" height="48" rx="24" fill="white" fill-opacity="0.8" />
    <path fill-rule="evenodd" clip-rule="evenodd"
        d="M30.8637 39.8023C30.2362 39.1748 30.2362 38.1573 30.8637 37.5298C31.4913 36.9023 32.5087 36.9023 33.1362 37.5298C33.7638 38.1573 33.7638 39.1748 33.1362 39.8023C32.5087 40.4298 31.4913 40.4298 30.8637 39.8023ZM29.8031 36.4691C28.5897 37.6825 28.5897 39.6496 29.8031 40.863C31.0164 42.0763 32.9836 42.0763 34.1969 40.863C35.4102 39.6496 35.4102 37.6825 34.1969 36.4691C32.9836 35.2558 31.0164 35.2558 29.8031 36.4691ZM24.1977 30.8637C23.5702 31.4912 23.5702 32.5086 24.1977 33.1362C24.8252 33.7637 25.8427 33.7637 26.4702 33.1362C27.0977 32.5086 27.0977 31.4912 26.4702 30.8637C25.8427 30.2361 24.8252 30.2361 24.1977 30.8637ZM23.137 34.1968C21.9237 32.9835 21.9237 31.0163 23.137 29.803C24.3504 28.5897 26.3175 28.5897 27.5309 29.803C28.7442 31.0163 28.7442 32.9835 27.5309 34.1968C26.3175 35.4101 24.3504 35.4101 23.137 34.1968ZM37.5307 33.1362C36.9032 32.5086 36.9032 31.4912 37.5307 30.8637C38.1582 30.2361 39.1757 30.2361 39.8032 30.8637C40.4307 31.4912 40.4307 32.5086 39.8032 33.1362C39.1757 33.7637 38.1582 33.7637 37.5307 33.1362ZM36.47 29.803C35.2567 31.0163 35.2567 32.9835 36.47 34.1968C37.6834 35.4101 39.6506 35.4101 40.8639 34.1968C42.0772 32.9835 42.0772 31.0163 40.8639 29.803C39.6506 28.5897 37.6834 28.5897 36.47 29.803ZM30.8637 26.47C30.2362 25.8425 30.2362 24.8251 30.8637 24.1975C31.4913 23.57 32.5087 23.57 33.1362 24.1975C33.7638 24.8251 33.7638 25.8425 33.1362 26.47C32.5087 27.0976 31.4913 27.0976 30.8637 26.47ZM29.8031 23.1369C28.5897 24.3502 28.5897 26.3174 29.8031 27.5307C31.0164 28.744 32.9836 28.744 34.1969 27.5307C35.4102 26.3174 35.4102 24.3502 34.1969 23.1369C32.9836 21.9235 31.0164 21.9235 29.8031 23.1369Z"
        fill="url(#paint1_linear_934_7384)" />
    <rect x="8.5" y="8.5" width="47" height="47" rx="23.5" stroke="black" stroke-opacity="0.05" />
    <rect x="8.5" y="8.5" width="47" height="47" rx="23.5" stroke="url(#paint2_radial_934_7384)"
        stroke-opacity="0.15" />
    <rect x="8.5" y="8.5" width="47" height="47" rx="23.5" stroke="url(#paint3_linear_934_7384)" stroke-opacity="0.5" />
    <rect x="0.5" y="0.5" width="63" height="63" rx="31.5" stroke="black" stroke-opacity="0.1" />
    <defs>
        <radialGradient id="paint0_radial_934_7384" cx="0" cy="0" r="1" gradientUnits="userSpaceOnUse"
            gradientTransform="translate(31.8345 8) rotate(89.6049) scale(24.0006 24.0098)">
            <stop stop-color="white" />
            <stop offset="1" stop-color="white" stop-opacity="0" />
        </radialGradient>
        <linearGradient id="paint1_linear_934_7384" x1="41.6844" y1="41.8998" x2="22.5584" y2="19.6991"
            gradientUnits="userSpaceOnUse">
            <stop stop-color="#FF1E56" />
            <stop offset="1" stop-color="#D67FDC" />
        </linearGradient>
        <radialGradient id="paint2_radial_934_7384" cx="0" cy="0" r="1" gradientUnits="userSpaceOnUse"
            gradientTransform="translate(32 8) rotate(90) scale(61.7143)">
            <stop />
            <stop offset="1" />
        </radialGradient>
        <linearGradient id="paint3_linear_934_7384" x1="8" y1="8" x2="18.5" y2="27.5" gradientUnits="userSpaceOnUse">
            <stop />
            <stop offset="1" stop-opacity="0" />
        </linearGradient>
    </defs>
</svg>