<svg width="64" height="64" viewBox="0 0 64 64" fill="none" xmlns="http://www.w3.org/2000/svg">
    <rect x="8" y="8" width="48" height="48" rx="24" fill="black" />
    <g clip-path="url(#clip0_926_5893)">
        <path fill-rule="evenodd" clip-rule="evenodd"
            d="M31.6644 22.9957C31.8756 22.8901 32.1241 22.8901 32.3352 22.9957L40.6686 27.1624C40.9227 27.2894 41.0832 27.5491 41.0832 27.8332C41.0832 28.1172 40.9227 28.3769 40.6686 28.504L32.3352 32.6707C32.1241 32.7762 31.8756 32.7762 31.6644 32.6707L23.3311 28.504C23.077 28.3769 22.9165 28.1172 22.9165 27.8332C22.9165 27.5491 23.077 27.2894 23.3311 27.1624L31.6644 22.9957ZM25.3436 27.8332L31.9998 31.1613L38.6561 27.8332L31.9998 24.505L25.3436 27.8332ZM22.9958 35.8311C23.1811 35.4607 23.6316 35.3105 24.0021 35.4957L32 39.4947L39.9979 35.4957C40.3684 35.3105 40.8189 35.4607 41.0042 35.8311C41.1894 36.2016 41.0392 36.6521 40.6687 36.8374L32.3354 41.004C32.1243 41.1096 31.8757 41.1096 31.6646 41.004L23.3313 36.8374C22.9608 36.6521 22.8106 36.2016 22.9958 35.8311ZM24.0021 31.3291C23.6316 31.1439 23.1811 31.294 22.9958 31.6645C22.8106 32.035 22.9608 32.4855 23.3313 32.6707L31.6646 36.8374C31.8757 36.943 32.1243 36.943 32.3354 36.8374L40.6687 32.6707C41.0392 32.4855 41.1894 32.035 41.0042 31.6645C40.8189 31.294 40.3684 31.1439 39.9979 31.3291L32 35.3281L24.0021 31.3291Z"
            fill="url(#paint0_linear_926_5893)" />
    </g>
    <rect x="8.5" y="8.5" width="47" height="47" rx="23.5" stroke="url(#paint1_radial_926_5893)"
        stroke-opacity="0.15" />
    <rect x="8.5" y="8.5" width="47" height="47" rx="23.5" stroke="url(#paint2_linear_926_5893)" stroke-opacity="0.5" />
    <rect x="0.5" y="0.5" width="63" height="63" rx="31.5" stroke="white" stroke-opacity="0.1" />
    <defs>
        <linearGradient id="paint0_linear_926_5893" x1="38.9873" y1="26.8126" x2="27.9807" y2="23.1444"
            gradientUnits="userSpaceOnUse">
            <stop stop-color="#FF1E56" />
            <stop offset="1" stop-color="#9C51A1" />
        </linearGradient>
        <radialGradient id="paint1_radial_926_5893" cx="0" cy="0" r="1" gradientUnits="userSpaceOnUse"
            gradientTransform="translate(32 8) rotate(90) scale(61.7143)">
            <stop stop-color="white" />
            <stop offset="1" stop-color="white" />
        </radialGradient>
        <linearGradient id="paint2_linear_926_5893" x1="8" y1="8" x2="18.5" y2="27.5" gradientUnits="userSpaceOnUse">
            <stop stop-color="white" />
            <stop offset="1" stop-color="white" stop-opacity="0" />
        </linearGradient>
        <clipPath id="clip0_926_5893">
            <rect width="20" height="20" fill="white" transform="translate(22 22)" />
        </clipPath>
    </defs>
</svg>