<svg width="64" height="64" viewBox="0 0 64 64" fill="none" xmlns="http://www.w3.org/2000/svg">
<rect x="8" y="8" width="48" height="48" rx="24" fill="white"/>
<path fill-rule="evenodd" clip-rule="evenodd" d="M31.9168 24.5458C31.9168 24.3324 31.8259 24.1291 31.6668 23.9868C31.5077 23.8446 31.2956 23.7768 31.0835 23.8005C29.5394 23.973 28.0753 24.5781 26.8599 25.546C25.6445 26.5139 24.7271 27.8054 24.2133 29.2717C23.6994 30.738 23.6101 32.3196 23.9555 33.8344C24.3009 35.3493 25.067 36.7358 26.1656 37.8345C27.2643 38.9331 28.6508 39.6993 30.1657 40.0447C31.6806 40.39 33.2622 40.3007 34.7285 39.7869C36.1948 39.273 37.4862 38.3556 38.4541 37.1402C39.422 35.9248 40.0271 34.4608 40.1996 32.9166C40.2233 32.7045 40.1556 32.4924 40.0133 32.3333C39.871 32.1743 39.6677 32.0833 39.4543 32.0833H31.9168V24.5458ZM27.7944 26.7194C28.5672 26.1039 29.4629 25.6678 30.4168 25.4377V32.8333C30.4168 33.2476 30.7526 33.5833 31.1668 33.5833H38.5625C38.3324 34.5372 37.8962 35.4329 37.2807 36.2058C36.4888 37.2002 35.4321 37.9508 34.2324 38.3713C33.0327 38.7917 31.7386 38.8648 30.4991 38.5822C29.2597 38.2996 28.1252 37.6727 27.2263 36.7738C26.3274 35.8749 25.7005 34.7404 25.4179 33.501C25.1353 32.2615 25.2085 30.9675 25.6289 29.7677C26.0493 28.568 26.7999 27.5113 27.7944 26.7194ZM34.7508 24.2199C34.5212 24.1384 34.2663 24.1735 34.0673 24.3141C33.8683 24.4546 33.75 24.6831 33.75 24.9267V29.5C33.75 29.9142 34.0858 30.25 34.5 30.25H39.0733C39.317 30.25 39.5454 30.1317 39.6859 29.9327C39.8265 29.7337 39.8616 29.4789 39.7802 29.2493C39.3688 28.0896 38.7038 27.0364 37.8337 26.1663C36.9636 25.2963 35.9104 24.6313 34.7508 24.2199ZM35.25 28.75V26.0829C35.8075 26.3897 36.3205 26.7745 36.7731 27.227C37.2256 27.6795 37.6103 28.1926 37.9172 28.75H35.25Z" fill="url(#paint0_linear_1032_5047)"/>
<rect x="8.5" y="8.5" width="47" height="47" rx="23.5" stroke="url(#paint1_radial_1032_5047)" stroke-opacity="0.15"/>
<rect x="8.5" y="8.5" width="47" height="47" rx="23.5" stroke="url(#paint2_linear_1032_5047)" stroke-opacity="0.5"/>
<rect x="0.5" y="0.5" width="63" height="63" rx="31.5" stroke="black" stroke-opacity="0.1"/>
<defs>
<linearGradient id="paint0_linear_1032_5047" x1="40.129" y1="23.689" x2="24.0273" y2="42.3785" gradientUnits="userSpaceOnUse">
<stop stop-color="#FF1E56"/>
<stop offset="1" stop-color="#D67FDC"/>
</linearGradient>
<radialGradient id="paint1_radial_1032_5047" cx="0" cy="0" r="1" gradientUnits="userSpaceOnUse" gradientTransform="translate(32 8) rotate(90) scale(61.7143)">
<stop/>
<stop offset="1"/>
</radialGradient>
<linearGradient id="paint2_linear_1032_5047" x1="8" y1="8" x2="18.5" y2="27.5" gradientUnits="userSpaceOnUse">
<stop/>
<stop offset="1" stop-opacity="0"/>
</linearGradient>
</defs>
</svg>
