<?xml version="1.0" standalone="no"?>
<!DOCTYPE svg PUBLIC "-//W3C//DTD SVG 20010904//EN"
 "http://www.w3.org/TR/2001/REC-SVG-20010904/DTD/svg10.dtd">
<svg version="1.0" xmlns="http://www.w3.org/2000/svg"
 width="700.000000pt" height="700.000000pt" viewBox="0 0 700.000000 700.000000"
 preserveAspectRatio="xMidYMid meet">
<metadata>
Created by potrace 1.14, written by Peter Selinger 2001-2017
</metadata>
<g transform="translate(0.000000,700.000000) scale(0.100000,-0.100000)"
fill="#000000" stroke="none">
<path d="M3653 6402 c-7 -5 -10 -115 -9 -352 l1 -345 60 -7 c214 -26 340 -55
525 -121 616 -218 1123 -736 1335 -1362 27 -79 76 -276 81 -325 3 -25 7 -51
10 -58 24 -74 23 -602 -1 -642 -1 -3 -6 -27 -9 -55 -21 -153 -101 -396 -193
-584 -331 -677 -986 -1135 -1738 -1217 -33 -4 -63 -11 -66 -16 -11 -17 -5
-693 6 -691 6 0 48 4 95 7 47 3 94 8 105 10 11 2 43 7 70 10 28 4 57 9 65 11
8 2 31 6 50 9 91 14 383 96 465 131 17 7 54 22 83 34 670 274 1232 817 1532
1479 113 250 190 517 235 812 27 183 27 590 -1 770 -19 127 -29 179 -56 294
-29 124 -100 339 -149 456 -38 90 -152 309 -205 393 -61 97 -194 277 -265 360
-68 79 -248 259 -318 317 -282 237 -611 423 -946 536 -234 78 -448 123 -665
140 -41 3 -77 7 -80 9 -3 2 -11 1 -17 -3z"/>
<path d="M3417 5394 c-1 -1 -40 -4 -87 -8 -47 -3 -96 -8 -110 -10 -14 -3 -41
-7 -60 -10 -50 -7 -155 -33 -227 -55 -667 -205 -1181 -785 -1297 -1466 -42
-247 -39 -502 11 -715 8 -36 17 -76 19 -90 21 -109 130 -362 216 -503 158
-258 416 -510 658 -646 73 -41 241 -121 253 -121 7 0 16 -3 20 -6 20 -21 293
-96 392 -108 116 -15 180 -19 275 -19 100 0 248 10 280 18 8 3 33 7 55 11 269
40 605 192 845 383 71 56 242 229 302 306 294 374 436 851 394 1322 -4 46 -9
93 -11 105 -3 12 -7 38 -10 58 -32 217 -149 511 -283 712 -210 315 -521 568
-869 707 -129 51 -267 90 -400 111 -101 17 -355 33 -366 24z m269 -928 c235
-51 434 -179 577 -371 126 -169 185 -341 191 -552 5 -177 -35 -349 -116 -493
-112 -200 -295 -361 -503 -442 -161 -62 -383 -80 -552 -44 -293 63 -556 272
-677 539 -44 97 -63 157 -80 252 -13 76 -14 256 -2 318 4 15 8 37 10 50 19
102 101 283 166 368 85 110 228 232 339 289 192 97 442 131 647 86z"/>
<path d="M599 3351 c-2 -9 -2 -8 5 -101 40 -495 238 -1023 539 -1435 28 -38
54 -72 57 -75 3 -3 31 -38 64 -78 32 -39 61 -72 65 -72 9 0 484 475 489 489 2
5 -20 38 -48 73 -252 310 -424 727 -465 1128 -4 36 -9 68 -11 71 -4 8 -694 8
-695 0z"/>
<path d="M1802 1608 c-133 -132 -242 -244 -242 -248 0 -8 117 -106 205 -171
33 -24 64 -47 70 -52 115 -86 399 -241 549 -298 28 -11 60 -24 71 -29 102 -48
436 -135 594 -155 30 -4 63 -9 75 -11 12 -2 57 -7 101 -10 44 -4 85 -7 90 -8
6 -1 11 123 11 352 l2 352 -37 1 c-20 0 -45 2 -56 4 -11 2 -40 7 -65 10 -127
18 -323 65 -395 95 -11 4 -58 23 -105 41 -189 72 -409 201 -557 325 -28 24
-55 44 -60 44 -5 0 -118 -109 -251 -242z"/>
</g>
</svg>
